# WaveFront *.obj file (generated by Autodesk ATF)

mtllib Easy Maze Map 3 (Fig. 12 From Paper) v1.mtl

g Body3

v -0.229767 -0.749453 0.000000
v -0.229767 -0.749453 0.075000
v 0.060702 -0.749453 0.075000
v 0.060702 -0.749453 0.000000
v -0.244767 -0.749453 0.075000
v -0.244767 -0.749453 0.000000
v -0.503044 -0.749453 0.000000
v -0.503044 -0.749453 0.075000
v -0.518044 -0.749453 0.075000
v -0.518044 -0.749453 0.000000
v -0.741166 -0.749453 0.000000
v -0.741166 -0.749453 0.075000
v 0.739573 -0.514367 0.000000
v 0.673072 -0.514367 0.000000
v 0.673072 -0.514367 0.075000
v 0.739573 -0.514367 0.075000
v 0.739573 -0.140700 0.000000
v 0.739573 -0.140700 0.075000
v 0.591572 -0.140700 0.000000
v 0.591572 -0.140700 0.075000
v 0.591572 -0.236853 0.000000
v 0.591572 -0.236853 0.075000
v 0.673072 -0.236853 0.000000
v 0.673072 -0.236853 0.075000
v 0.739573 0.570151 0.000000
v 0.595071 0.570151 0.000000
v 0.595071 0.570151 0.075000
v 0.739573 0.570151 0.075000
v 0.739573 0.710916 0.000000
v 0.739573 0.710916 0.075000
v 0.595071 0.710916 0.000000
v 0.595071 0.710916 0.075000
v -0.428241 0.463275 0.000000
v -0.244767 0.463275 0.000000
v -0.244767 0.463275 0.075000
v -0.428241 0.463275 0.075000
v -0.428241 0.398330 0.000000
v -0.428241 0.398330 0.075000
v -0.497573 0.398330 0.000000
v -0.497573 0.398330 0.075000
v -0.497573 0.413330 0.000000
v -0.497573 0.413330 0.075000
v -0.443241 0.413330 0.000000
v -0.443241 0.413330 0.075000
v -0.443241 0.493275 0.000000
v -0.443241 0.493275 0.075000
v 0.297087 0.493275 0.000000
v 0.297087 0.493275 0.075000
v 0.297087 0.118137 0.000000
v 0.297087 0.118137 0.075000
v 0.075702 0.118137 0.000000
v 0.075702 0.118137 0.075000
v 0.075702 -0.249935 0.000000
v 0.075702 -0.249935 0.075000
v 0.060702 -0.249935 0.000000
v 0.060702 -0.249935 0.075000
v 0.060702 -0.159451 0.000000
v 0.060702 -0.159451 0.075000
v -0.229767 -0.159451 0.000000
v -0.229767 -0.159451 0.075000
v -0.244767 -0.159451 0.000000
v -0.244767 -0.159451 0.075000
v -0.741166 -0.159451 0.000000
v -0.741166 -0.159451 0.075000
v 0.060702 -0.540795 0.000000
v 0.060702 -0.540795 0.075000
v 0.075702 -0.540795 0.000000
v 0.075702 -0.540795 0.075000
v 0.075702 -0.749453 0.000000
v 0.075702 -0.749453 0.075000
v 0.739573 -0.749453 0.000000
v 0.739573 -0.749453 0.075000
v 0.739573 -0.529367 0.000000
v 0.739573 -0.529367 0.075000
v 0.658072 -0.529367 0.000000
v 0.658072 -0.529367 0.075000
v 0.658072 -0.251853 0.000000
v 0.658072 -0.251853 0.075000
v 0.576572 -0.251853 0.000000
v 0.576572 -0.251853 0.075000
v 0.576572 0.276205 0.000000
v 0.576572 0.276205 0.075000
v 0.739573 0.276205 0.000000
v 0.739573 0.276205 0.075000
v 0.739573 0.555151 0.000000
v 0.739573 0.555151 0.075000
v 0.580071 0.555151 0.000000
v 0.580071 0.555151 0.075000
v 0.580071 0.710916 0.000000
v 0.580071 0.710916 0.075000
v -0.741166 0.710916 0.000000
v -0.741166 0.710916 0.075000
v -0.741166 -0.144451 0.000000
v -0.741166 -0.144451 0.075000
v -0.244767 -0.144451 0.000000
v -0.244767 -0.144451 0.075000
v 0.739573 0.246205 0.000000
v 0.739573 -0.125700 0.000000
v 0.739573 -0.125700 0.075000
v 0.739573 0.246205 0.075000
v 0.591572 0.246205 0.000000
v 0.591572 0.246205 0.075000
v 0.591572 -0.125700 0.000000
v 0.591572 -0.125700 0.075000
v 0.282087 0.133137 0.000000
v 0.060702 0.133137 0.000000
v 0.060702 0.133137 0.075000
v 0.282087 0.133137 0.075000
v 0.282087 0.463275 0.000000
v 0.282087 0.463275 0.075000
v -0.229767 0.463275 0.000000
v -0.229767 0.463275 0.075000
v -0.229767 -0.144451 0.000000
v -0.229767 -0.144451 0.075000
v 0.060702 -0.144451 0.000000
v 0.060702 -0.144451 0.075000
v -0.771166 0.740916 0.000000
v -0.771166 -0.779453 0.000000
v -0.771166 -0.779453 0.075000
v -0.771166 0.740916 0.075000
v 0.769573 0.740916 0.000000
v 0.769573 0.740916 0.075000
v 0.769573 -0.779453 0.000000
v 0.769573 -0.779453 0.075000
v -0.503044 -0.510932 0.075000
v -0.617719 -0.510932 0.075000
v -0.617719 -0.525932 0.075000
v -0.518044 -0.525932 0.075000
v -0.518044 -0.525932 0.000000
v -0.617719 -0.525932 0.000000
v -0.617719 -0.510932 0.000000
v -0.503044 -0.510932 0.000000
vt 0.290469 0.075000 0.000000
vt -0.000000 0.075000 0.000000
vt 0.290469 0.000000 0.000000
vt -0.000000 0.000000 0.000000
vt 0.305469 0.000000 0.000000
vt 0.563746 0.000000 0.000000
vt 0.305469 0.075000 0.000000
vt 0.563746 0.075000 0.000000
vt 0.578746 0.000000 0.000000
vt 0.801868 0.000000 0.000000
vt 0.578746 0.075000 0.000000
vt 0.801868 0.075000 0.000000
vt -0.000000 0.000000 0.000000
vt 0.066501 0.000000 0.000000
vt -0.000000 0.075000 0.000000
vt 0.066501 0.075000 0.000000
vt 0.000000 0.000000 0.000000
vt 0.373667 0.000000 0.000000
vt 0.000000 0.075000 0.000000
vt 0.373667 0.075000 0.000000
vt 0.000000 0.000000 0.000000
vt 0.148001 0.000000 0.000000
vt 0.000000 0.075000 0.000000
vt 0.148001 0.075000 0.000000
vt 0.000000 0.000000 0.000000
vt 0.096154 0.000000 0.000000
vt 0.000000 0.075000 0.000000
vt 0.096154 0.075000 0.000000
vt 0.000000 0.000000 0.000000
vt 0.081501 0.000000 0.000000
vt 0.000000 0.075000 0.000000
vt 0.081501 0.075000 0.000000
vt 0.000000 0.000000 0.000000
vt 0.277514 0.000000 0.000000
vt 0.000000 0.075000 0.000000
vt 0.277514 0.075000 0.000000
vt -0.000000 0.000000 0.000000
vt 0.144501 0.000000 0.000000
vt -0.000000 0.075000 0.000000
vt 0.144501 0.075000 0.000000
vt -0.000000 0.000000 0.000000
vt 0.140764 0.000000 0.000000
vt -0.000000 0.075000 0.000000
vt 0.140764 0.075000 0.000000
vt 0.000000 0.000000 0.000000
vt 0.144501 0.000000 0.000000
vt 0.000000 0.075000 0.000000
vt 0.144501 0.075000 0.000000
vt 0.000000 0.000000 0.000000
vt 0.140764 0.000000 0.000000
vt 0.000000 0.075000 0.000000
vt 0.140764 0.075000 0.000000
vt 0.000000 0.000000 0.000000
vt 0.183474 0.000000 0.000000
vt 0.000000 0.075000 0.000000
vt 0.183474 0.075000 0.000000
vt 0.000000 0.000000 0.000000
vt 0.064946 0.000000 0.000000
vt 0.000000 0.075000 0.000000
vt 0.064946 0.075000 0.000000
vt 0.000000 0.000000 0.000000
vt 0.069332 0.000000 0.000000
vt 0.000000 0.075000 0.000000
vt 0.069332 0.075000 0.000000
vt -0.000000 0.000000 0.000000
vt 0.015000 0.000000 0.000000
vt -0.000000 0.075000 0.000000
vt 0.015000 0.075000 0.000000
vt -0.000000 0.000000 0.000000
vt 0.054332 0.000000 0.000000
vt -0.000000 0.075000 0.000000
vt 0.054332 0.075000 0.000000
vt -0.000000 0.000000 0.000000
vt 0.079946 0.000000 0.000000
vt -0.000000 0.075000 0.000000
vt 0.079946 0.075000 0.000000
vt -0.000000 0.000000 0.000000
vt 0.740328 0.000000 0.000000
vt -0.000000 0.075000 0.000000
vt 0.740328 0.075000 0.000000
vt 0.000000 0.000000 0.000000
vt 0.375138 0.000000 0.000000
vt 0.000000 0.075000 0.000000
vt 0.375138 0.075000 0.000000
vt 0.000000 0.000000 0.000000
vt 0.221384 0.000000 0.000000
vt 0.000000 0.075000 0.000000
vt 0.221384 0.075000 0.000000
vt 0.000000 0.000000 0.000000
vt 0.368072 0.000000 0.000000
vt 0.000000 0.075000 0.000000
vt 0.368072 0.075000 0.000000
vt 0.000000 0.000000 0.000000
vt 0.015000 0.000000 0.000000
vt 0.000000 0.075000 0.000000
vt 0.015000 0.075000 0.000000
vt 0.000000 0.000000 0.000000
vt 0.090484 0.000000 0.000000
vt 0.000000 0.075000 0.000000
vt 0.090484 0.075000 0.000000
vt 0.000000 0.000000 0.000000
vt 0.290469 0.000000 0.000000
vt 0.000000 0.075000 0.000000
vt 0.290469 0.075000 0.000000
vt -0.015000 0.000000 0.000000
vt 0.575002 0.000000 0.000000
vt -0.015000 0.075000 0.000000
vt 0.575002 0.075000 0.000000
vt -0.000000 0.000000 0.000000
vt 0.590002 0.000000 0.000000
vt -0.000000 0.075000 0.000000
vt 0.590002 0.075000 0.000000
vt 0.000000 0.000000 0.000000
vt 0.496399 0.000000 0.000000
vt 0.000000 0.075000 0.000000
vt 0.496399 0.075000 0.000000
vt 0.000000 0.000000 0.000000
vt 0.590002 0.000000 0.000000
vt 0.000000 0.075000 0.000000
vt 0.590002 0.075000 0.000000
vt -0.000000 0.000000 0.000000
vt 0.208658 0.000000 0.000000
vt -0.000000 0.075000 0.000000
vt 0.208658 0.075000 0.000000
vt -0.000000 0.000000 0.000000
vt 0.015000 0.000000 0.000000
vt -0.000000 0.075000 0.000000
vt 0.015000 0.075000 0.000000
vt -0.000000 0.000000 0.000000
vt 0.208658 0.000000 0.000000
vt -0.000000 0.075000 0.000000
vt 0.208658 0.075000 0.000000
vt 0.000000 0.000000 0.000000
vt 0.663871 0.000000 0.000000
vt 0.000000 0.075000 0.000000
vt 0.663871 0.075000 0.000000
vt 0.000000 0.000000 0.000000
vt 0.220086 0.000000 0.000000
vt 0.000000 0.075000 0.000000
vt 0.220086 0.075000 0.000000
vt 0.000000 0.000000 0.000000
vt 0.081501 0.000000 0.000000
vt 0.000000 0.075000 0.000000
vt 0.081501 0.075000 0.000000
vt 0.000000 0.000000 0.000000
vt 0.277514 0.000000 0.000000
vt 0.000000 0.075000 0.000000
vt 0.277514 0.075000 0.000000
vt 0.000000 0.000000 0.000000
vt 0.081501 0.000000 0.000000
vt 0.000000 0.075000 0.000000
vt 0.081501 0.075000 0.000000
vt -0.000000 0.000000 0.000000
vt 0.528058 0.000000 0.000000
vt -0.000000 0.075000 0.000000
vt 0.528058 0.075000 0.000000
vt 0.000000 0.000000 0.000000
vt 0.163001 0.000000 0.000000
vt 0.000000 0.075000 0.000000
vt 0.163001 0.075000 0.000000
vt 0.000000 0.000000 0.000000
vt 0.278947 0.000000 0.000000
vt 0.000000 0.075000 0.000000
vt 0.278947 0.075000 0.000000
vt 0.000000 0.000000 0.000000
vt 0.159501 0.000000 0.000000
vt 0.000000 0.075000 0.000000
vt 0.159501 0.075000 0.000000
vt 0.000000 0.000000 0.000000
vt 0.155764 0.000000 0.000000
vt 0.000000 0.075000 0.000000
vt 0.155764 0.075000 0.000000
vt 0.000000 0.000000 0.000000
vt 1.321238 0.000000 0.000000
vt 0.000000 0.075000 0.000000
vt 1.321238 0.075000 0.000000
vt -0.000000 0.000000 0.000000
vt 0.855367 0.000000 0.000000
vt -0.000000 0.075000 0.000000
vt 0.855367 0.075000 0.000000
vt 0.000000 0.000000 0.000000
vt 0.496399 0.000000 0.000000
vt -0.000000 0.075000 0.000000
vt 0.496399 0.075000 0.000000
vt -0.000000 0.000000 0.000000
vt 0.607727 0.000000 0.000000
vt -0.000000 0.075000 0.000000
vt 0.607727 0.075000 0.000000
vt 0.000000 0.000000 0.000000
vt 0.371904 0.000000 0.000000
vt 0.000000 0.075000 0.000000
vt 0.371904 0.075000 0.000000
vt 0.000000 0.000000 0.000000
vt 0.148001 0.000000 0.000000
vt 0.000000 0.075000 0.000000
vt 0.148001 0.075000 0.000000
vt 0.000000 0.000000 0.000000
vt 0.371904 0.000000 0.000000
vt 0.000000 0.075000 0.000000
vt 0.371904 0.075000 0.000000
vt 0.000000 0.000000 0.000000
vt 0.148001 0.000000 0.000000
vt 0.000000 0.075000 0.000000
vt 0.148001 0.075000 0.000000
vt -0.000000 0.000000 0.000000
vt 0.221384 0.000000 0.000000
vt -0.000000 0.075000 0.000000
vt 0.221384 0.075000 0.000000
vt 0.000000 0.000000 0.000000
vt 0.330138 0.000000 0.000000
vt 0.000000 0.075000 0.000000
vt 0.330138 0.075000 0.000000
vt 0.000000 0.000000 0.000000
vt 0.511854 0.000000 0.000000
vt 0.000000 0.075000 0.000000
vt 0.511854 0.075000 0.000000
vt 0.000000 0.000000 0.000000
vt 0.607727 0.000000 0.000000
vt 0.000000 0.075000 0.000000
vt 0.607727 0.075000 0.000000
vt 0.000000 0.000000 0.000000
vt 0.290469 0.000000 0.000000
vt 0.000000 0.075000 0.000000
vt 0.290469 0.075000 0.000000
vt -0.000000 0.000000 0.000000
vt 0.277588 0.000000 0.000000
vt -0.000000 0.075000 0.000000
vt 0.277588 0.075000 0.000000
vt -0.000000 0.000000 0.000000
vt 1.520369 0.000000 0.000000
vt -0.000000 0.075000 0.000000
vt 1.520369 0.075000 0.000000
vt -0.000000 0.000000 0.000000
vt 1.540739 0.000000 0.000000
vt -0.000000 0.075000 0.000000
vt 1.540739 0.075000 0.000000
vt 0.000000 0.000000 0.000000
vt 1.520369 0.000000 0.000000
vt 0.000000 0.075000 0.000000
vt 1.520369 0.075000 0.000000
vt -0.000000 0.000000 0.000000
vt 1.540739 0.000000 0.000000
vt -0.000000 0.075000 0.000000
vt 1.540739 0.075000 0.000000
vt -0.502247 -0.730184 0.000000
vt -0.770369 -0.760184 0.000000
vt -0.243971 -0.730184 0.000000
vt -0.228971 -0.730184 0.000000
vt -0.243971 -0.140182 0.000000
vt -0.228971 -0.140182 0.000000
vt -0.243971 -0.125182 0.000000
vt -0.228971 -0.125182 0.000000
vt -0.243971 0.482544 0.000000
vt -0.228971 0.482544 0.000000
vt -0.442445 0.512544 0.000000
vt 0.297883 0.512544 0.000000
vt 0.282883 0.482544 0.000000
vt 0.297883 0.137406 0.000000
vt 0.282883 0.152406 0.000000
vt 0.076499 0.137406 0.000000
vt 0.061499 0.152406 0.000000
vt 0.061499 -0.125182 0.000000
vt -0.502247 -0.491663 0.000000
vt -0.517247 -0.506663 0.000000
vt -0.517247 -0.730184 0.000000
vt -0.740369 -0.730184 0.000000
vt -0.740369 -0.140182 0.000000
vt -0.616922 -0.491663 0.000000
vt -0.616922 -0.506663 0.000000
vt -0.740369 -0.125182 0.000000
vt 0.061499 -0.140182 0.000000
vt 0.076499 -0.230666 0.000000
vt 0.592368 -0.106431 0.000000
vt 0.740369 -0.121431 0.000000
vt 0.740369 -0.106431 0.000000
vt 0.770369 -0.760184 0.000000
vt 0.770369 0.760184 0.000000
vt 0.592368 0.265473 0.000000
vt 0.577368 0.295473 0.000000
vt 0.577368 -0.232585 0.000000
vt 0.592368 -0.121431 0.000000
vt 0.592368 -0.217585 0.000000
vt 0.658869 -0.232585 0.000000
vt 0.673869 -0.217585 0.000000
vt 0.673869 -0.495098 0.000000
vt 0.658869 -0.510098 0.000000
vt 0.740369 -0.510098 0.000000
vt 0.740369 0.295473 0.000000
vt 0.740369 0.265473 0.000000
vt 0.061499 -0.230666 0.000000
vt -0.427445 0.482544 0.000000
vt -0.442445 0.432598 0.000000
vt -0.427445 0.417598 0.000000
vt -0.496777 0.417598 0.000000
vt -0.496777 0.432598 0.000000
vt -0.770369 0.760184 0.000000
vt -0.740369 0.730184 0.000000
vt 0.580868 0.730184 0.000000
vt 0.580868 0.574420 0.000000
vt 0.595868 0.589420 0.000000
vt 0.595868 0.730184 0.000000
vt 0.740369 0.730184 0.000000
vt 0.740369 0.589420 0.000000
vt 0.740369 0.574420 0.000000
vt 0.740369 -0.730184 0.000000
vt 0.740369 -0.495098 0.000000
vt 0.076499 -0.730184 0.000000
vt 0.061499 -0.730184 0.000000
vt 0.076499 -0.521526 0.000000
vt 0.061499 -0.521526 0.000000
vt -0.061499 -0.730184 0.000000
vt 0.770369 -0.760184 0.000000
vt 0.228971 -0.730184 0.000000
vt 0.243971 -0.730184 0.000000
vt 0.228971 -0.140182 0.000000
vt 0.243971 -0.140182 0.000000
vt 0.228971 -0.125182 0.000000
vt 0.243971 -0.125182 0.000000
vt 0.228971 0.482544 0.000000
vt 0.243971 0.482544 0.000000
vt 0.442445 0.512544 0.000000
vt 0.427445 0.482544 0.000000
vt 0.442445 0.432598 0.000000
vt 0.427445 0.417598 0.000000
vt 0.496777 0.417598 0.000000
vt -0.061499 -0.521526 0.000000
vt -0.076499 -0.521526 0.000000
vt -0.076499 -0.730184 0.000000
vt -0.770369 -0.760184 0.000000
vt -0.740369 -0.730184 0.000000
vt -0.740369 -0.510098 0.000000
vt -0.658869 -0.510098 0.000000
vt -0.673869 -0.495098 0.000000
vt -0.740369 -0.495098 0.000000
vt -0.740369 -0.121431 0.000000
vt -0.740369 -0.106431 0.000000
vt -0.592368 -0.121431 0.000000
vt -0.592368 -0.106431 0.000000
vt -0.577368 -0.232585 0.000000
vt -0.577368 0.295473 0.000000
vt -0.658869 -0.232585 0.000000
vt -0.673869 -0.217585 0.000000
vt -0.592368 -0.217585 0.000000
vt -0.592368 0.265473 0.000000
vt -0.740369 0.295473 0.000000
vt -0.740369 0.265473 0.000000
vt -0.770369 0.760184 0.000000
vt -0.740369 0.574420 0.000000
vt -0.740369 0.589420 0.000000
vt -0.740369 0.730184 0.000000
vt -0.595868 0.589420 0.000000
vt -0.580868 0.574420 0.000000
vt -0.580868 0.730184 0.000000
vt 0.740369 0.730184 0.000000
vt 0.770369 0.760184 0.000000
vt -0.595868 0.730184 0.000000
vt 0.740369 -0.125182 0.000000
vt 0.740369 -0.140182 0.000000
vt 0.740369 -0.730184 0.000000
vt 0.496777 0.432598 0.000000
vt -0.297883 0.512544 0.000000
vt -0.282883 0.482544 0.000000
vt -0.297883 0.137406 0.000000
vt -0.282883 0.152406 0.000000
vt -0.076499 0.137406 0.000000
vt -0.061499 0.152406 0.000000
vt -0.061499 -0.125182 0.000000
vt -0.076499 -0.230666 0.000000
vt -0.061499 -0.140182 0.000000
vt -0.061499 -0.230666 0.000000
vt 0.517247 -0.730184 0.000000
vt 0.502247 -0.730184 0.000000
vt 0.517247 -0.506663 0.000000
vt 0.502247 -0.491663 0.000000
vt 0.616922 -0.491663 0.000000
vt 0.616922 -0.506663 0.000000
vt 0.000000 0.000000 0.000000
vt 0.099675 0.000000 0.000000
vt 0.000000 0.075000 0.000000
vt 0.099675 0.075000 0.000000
vt -0.000000 0.000000 0.000000
vt 0.015000 0.000000 0.000000
vt -0.000000 0.075000 0.000000
vt 0.015000 0.075000 0.000000
vt -0.000000 0.000000 0.000000
vt 0.114675 0.000000 0.000000
vt -0.000000 0.075000 0.000000
vt 0.114675 0.075000 0.000000
vt -0.015000 0.000000 0.000000
vt 0.223521 0.000000 0.000000
vt -0.015000 0.075000 0.000000
vt 0.223521 0.075000 0.000000
vt 0.000000 0.000000 0.000000
vt 0.223521 0.000000 0.000000
vt 0.000000 0.075000 0.000000
vt 0.223521 0.075000 0.000000
vn 0.000000 1.000000 0.000000
vn 0.000000 1.000000 0.000000
vn 0.000000 1.000000 0.000000
vn 0.000000 1.000000 0.000000
vn 0.000000 1.000000 0.000000
vn 0.000000 1.000000 0.000000
vn 0.000000 1.000000 0.000000
vn 0.000000 1.000000 0.000000
vn 0.000000 1.000000 0.000000
vn 0.000000 1.000000 0.000000
vn 0.000000 1.000000 0.000000
vn 0.000000 1.000000 0.000000
vn 0.000000 1.000000 0.000000
vn 0.000000 1.000000 0.000000
vn 0.000000 1.000000 0.000000
vn 0.000000 1.000000 0.000000
vn -1.000000 0.000000 0.000000
vn -1.000000 0.000000 0.000000
vn -1.000000 0.000000 0.000000
vn -1.000000 0.000000 0.000000
vn 0.000000 -1.000000 0.000000
vn 0.000000 -1.000000 0.000000
vn 0.000000 -1.000000 0.000000
vn 0.000000 -1.000000 0.000000
vn 1.000000 0.000000 -0.000000
vn 1.000000 0.000000 -0.000000
vn 1.000000 0.000000 -0.000000
vn 1.000000 0.000000 -0.000000
vn 0.000000 1.000000 -0.000000
vn 0.000000 1.000000 -0.000000
vn 0.000000 1.000000 -0.000000
vn 0.000000 1.000000 -0.000000
vn 1.000000 0.000000 -0.000000
vn 1.000000 0.000000 -0.000000
vn 1.000000 0.000000 -0.000000
vn 1.000000 0.000000 -0.000000
vn 0.000000 1.000000 0.000000
vn 0.000000 1.000000 0.000000
vn 0.000000 1.000000 0.000000
vn 0.000000 1.000000 0.000000
vn -1.000000 0.000000 0.000000
vn -1.000000 0.000000 0.000000
vn -1.000000 0.000000 0.000000
vn -1.000000 0.000000 0.000000
vn 0.000000 -1.000000 0.000000
vn 0.000000 -1.000000 0.000000
vn 0.000000 -1.000000 0.000000
vn 0.000000 -1.000000 0.000000
vn 1.000000 0.000000 -0.000000
vn 1.000000 0.000000 -0.000000
vn 1.000000 0.000000 -0.000000
vn 1.000000 0.000000 -0.000000
vn 0.000000 -1.000000 0.000000
vn 0.000000 -1.000000 0.000000
vn 0.000000 -1.000000 0.000000
vn 0.000000 -1.000000 0.000000
vn 1.000000 0.000000 -0.000000
vn 1.000000 0.000000 -0.000000
vn 1.000000 0.000000 -0.000000
vn 1.000000 0.000000 -0.000000
vn 0.000000 -1.000000 0.000000
vn 0.000000 -1.000000 0.000000
vn 0.000000 -1.000000 0.000000
vn 0.000000 -1.000000 0.000000
vn -1.000000 0.000000 0.000000
vn -1.000000 0.000000 0.000000
vn -1.000000 0.000000 0.000000
vn -1.000000 0.000000 0.000000
vn 0.000000 1.000000 0.000000
vn 0.000000 1.000000 0.000000
vn 0.000000 1.000000 0.000000
vn 0.000000 1.000000 0.000000
vn -1.000000 0.000000 0.000000
vn -1.000000 0.000000 0.000000
vn -1.000000 0.000000 0.000000
vn -1.000000 0.000000 0.000000
vn 0.000000 1.000000 0.000000
vn 0.000000 1.000000 0.000000
vn 0.000000 1.000000 0.000000
vn 0.000000 1.000000 0.000000
vn 1.000000 0.000000 0.000000
vn 1.000000 0.000000 0.000000
vn 1.000000 0.000000 0.000000
vn 1.000000 0.000000 0.000000
vn 0.000000 -1.000000 0.000000
vn 0.000000 -1.000000 0.000000
vn 0.000000 -1.000000 0.000000
vn 0.000000 -1.000000 0.000000
vn 1.000000 0.000000 -0.000000
vn 1.000000 0.000000 -0.000000
vn 1.000000 0.000000 -0.000000
vn 1.000000 0.000000 -0.000000
vn 0.000000 -1.000000 0.000000
vn 0.000000 -1.000000 0.000000
vn 0.000000 -1.000000 0.000000
vn 0.000000 -1.000000 0.000000
vn -1.000000 -0.000000 0.000000
vn -1.000000 -0.000000 0.000000
vn -1.000000 -0.000000 0.000000
vn -1.000000 -0.000000 0.000000
vn 0.000000 -1.000000 0.000000
vn 0.000000 -1.000000 0.000000
vn 0.000000 -1.000000 0.000000
vn 0.000000 -1.000000 0.000000
vn 1.000000 0.000000 0.000000
vn 1.000000 0.000000 0.000000
vn 1.000000 0.000000 0.000000
vn 1.000000 0.000000 0.000000
vn -1.000000 0.000000 0.000000
vn -1.000000 0.000000 0.000000
vn -1.000000 0.000000 0.000000
vn -1.000000 0.000000 0.000000
vn 0.000000 -1.000000 0.000000
vn 0.000000 -1.000000 0.000000
vn 0.000000 -1.000000 0.000000
vn 0.000000 -1.000000 0.000000
vn 1.000000 0.000000 -0.000000
vn 1.000000 0.000000 -0.000000
vn 1.000000 0.000000 -0.000000
vn 1.000000 0.000000 -0.000000
vn -1.000000 0.000000 0.000000
vn -1.000000 0.000000 0.000000
vn -1.000000 0.000000 0.000000
vn -1.000000 0.000000 0.000000
vn 0.000000 1.000000 0.000000
vn 0.000000 1.000000 0.000000
vn 0.000000 1.000000 0.000000
vn 0.000000 1.000000 0.000000
vn 1.000000 0.000000 -0.000000
vn 1.000000 0.000000 -0.000000
vn 1.000000 0.000000 -0.000000
vn 1.000000 0.000000 -0.000000
vn 0.000000 1.000000 -0.000000
vn 0.000000 1.000000 -0.000000
vn 0.000000 1.000000 -0.000000
vn 0.000000 1.000000 -0.000000
vn -1.000000 -0.000000 0.000000
vn -1.000000 -0.000000 0.000000
vn -1.000000 -0.000000 0.000000
vn -1.000000 -0.000000 0.000000
vn 0.000000 -1.000000 0.000000
vn 0.000000 -1.000000 0.000000
vn 0.000000 -1.000000 0.000000
vn 0.000000 -1.000000 0.000000
vn -1.000000 0.000000 0.000000
vn -1.000000 0.000000 0.000000
vn -1.000000 0.000000 0.000000
vn -1.000000 0.000000 0.000000
vn 0.000000 -1.000000 0.000000
vn 0.000000 -1.000000 0.000000
vn 0.000000 -1.000000 0.000000
vn 0.000000 -1.000000 0.000000
vn -1.000000 0.000000 0.000000
vn -1.000000 0.000000 0.000000
vn -1.000000 0.000000 0.000000
vn -1.000000 0.000000 0.000000
vn 0.000000 1.000000 -0.000000
vn 0.000000 1.000000 -0.000000
vn 0.000000 1.000000 -0.000000
vn 0.000000 1.000000 -0.000000
vn -1.000000 -0.000000 0.000000
vn -1.000000 -0.000000 0.000000
vn -1.000000 -0.000000 0.000000
vn -1.000000 -0.000000 0.000000
vn 0.000000 -1.000000 0.000000
vn 0.000000 -1.000000 0.000000
vn 0.000000 -1.000000 0.000000
vn 0.000000 -1.000000 0.000000
vn -1.000000 0.000000 0.000000
vn -1.000000 0.000000 0.000000
vn -1.000000 0.000000 0.000000
vn -1.000000 0.000000 0.000000
vn 0.000000 -1.000000 0.000000
vn 0.000000 -1.000000 0.000000
vn 0.000000 -1.000000 0.000000
vn 0.000000 -1.000000 0.000000
vn 1.000000 0.000000 0.000000
vn 1.000000 0.000000 0.000000
vn 1.000000 0.000000 0.000000
vn 1.000000 0.000000 0.000000
vn 0.000000 1.000000 -0.000000
vn 0.000000 1.000000 -0.000000
vn 0.000000 1.000000 -0.000000
vn 0.000000 1.000000 -0.000000
vn -1.000000 0.000000 0.000000
vn -1.000000 0.000000 0.000000
vn -1.000000 0.000000 0.000000
vn -1.000000 0.000000 0.000000
vn -1.000000 0.000000 0.000000
vn -1.000000 0.000000 0.000000
vn -1.000000 0.000000 0.000000
vn -1.000000 0.000000 0.000000
vn 0.000000 -1.000000 0.000000
vn 0.000000 -1.000000 0.000000
vn 0.000000 -1.000000 0.000000
vn 0.000000 -1.000000 0.000000
vn 1.000000 0.000000 0.000000
vn 1.000000 0.000000 0.000000
vn 1.000000 0.000000 0.000000
vn 1.000000 0.000000 0.000000
vn 0.000000 1.000000 -0.000000
vn 0.000000 1.000000 -0.000000
vn 0.000000 1.000000 -0.000000
vn 0.000000 1.000000 -0.000000
vn 0.000000 1.000000 0.000000
vn 0.000000 1.000000 0.000000
vn 0.000000 1.000000 0.000000
vn 0.000000 1.000000 0.000000
vn -1.000000 0.000000 0.000000
vn -1.000000 0.000000 0.000000
vn -1.000000 0.000000 0.000000
vn -1.000000 0.000000 0.000000
vn 0.000000 -1.000000 0.000000
vn 0.000000 -1.000000 0.000000
vn 0.000000 -1.000000 0.000000
vn 0.000000 -1.000000 0.000000
vn 1.000000 0.000000 0.000000
vn 1.000000 0.000000 0.000000
vn 1.000000 0.000000 0.000000
vn 1.000000 0.000000 0.000000
vn 0.000000 1.000000 -0.000000
vn 0.000000 1.000000 -0.000000
vn 0.000000 1.000000 -0.000000
vn 0.000000 1.000000 -0.000000
vn -1.000000 0.000000 0.000000
vn -1.000000 0.000000 0.000000
vn -1.000000 0.000000 0.000000
vn -1.000000 0.000000 0.000000
vn -1.000000 0.000000 0.000000
vn -1.000000 0.000000 0.000000
vn -1.000000 0.000000 0.000000
vn -1.000000 0.000000 0.000000
vn 0.000000 1.000000 0.000000
vn 0.000000 1.000000 0.000000
vn 0.000000 1.000000 0.000000
vn 0.000000 1.000000 0.000000
vn 1.000000 0.000000 -0.000000
vn 1.000000 0.000000 -0.000000
vn 1.000000 0.000000 -0.000000
vn 1.000000 0.000000 -0.000000
vn 0.000000 -1.000000 0.000000
vn 0.000000 -1.000000 0.000000
vn 0.000000 -1.000000 0.000000
vn 0.000000 -1.000000 0.000000
vn 0.000000 0.000000 1.000000
vn 0.000000 0.000000 1.000000
vn 0.000000 0.000000 1.000000
vn 0.000000 0.000000 1.000000
vn 0.000000 0.000000 1.000000
vn 0.000000 0.000000 1.000000
vn 0.000000 0.000000 1.000000
vn 0.000000 0.000000 1.000000
vn 0.000000 0.000000 1.000000
vn 0.000000 0.000000 1.000000
vn 0.000000 0.000000 1.000000
vn 0.000000 0.000000 1.000000
vn 0.000000 0.000000 1.000000
vn 0.000000 0.000000 1.000000
vn 0.000000 0.000000 1.000000
vn 0.000000 0.000000 1.000000
vn 0.000000 0.000000 1.000000
vn 0.000000 0.000000 1.000000
vn 0.000000 0.000000 1.000000
vn 0.000000 0.000000 1.000000
vn 0.000000 0.000000 1.000000
vn 0.000000 0.000000 1.000000
vn 0.000000 0.000000 1.000000
vn 0.000000 0.000000 1.000000
vn 0.000000 0.000000 1.000000
vn 0.000000 0.000000 1.000000
vn 0.000000 0.000000 1.000000
vn 0.000000 0.000000 1.000000
vn 0.000000 0.000000 1.000000
vn 0.000000 0.000000 1.000000
vn 0.000000 0.000000 1.000000
vn 0.000000 0.000000 1.000000
vn 0.000000 0.000000 1.000000
vn 0.000000 0.000000 1.000000
vn 0.000000 0.000000 1.000000
vn 0.000000 0.000000 1.000000
vn 0.000000 0.000000 1.000000
vn 0.000000 0.000000 1.000000
vn 0.000000 0.000000 1.000000
vn 0.000000 0.000000 1.000000
vn 0.000000 0.000000 1.000000
vn 0.000000 0.000000 1.000000
vn 0.000000 0.000000 1.000000
vn 0.000000 0.000000 1.000000
vn 0.000000 0.000000 1.000000
vn 0.000000 0.000000 1.000000
vn 0.000000 0.000000 1.000000
vn 0.000000 0.000000 1.000000
vn 0.000000 0.000000 1.000000
vn 0.000000 0.000000 1.000000
vn 0.000000 0.000000 1.000000
vn 0.000000 0.000000 1.000000
vn 0.000000 0.000000 1.000000
vn 0.000000 0.000000 1.000000
vn 0.000000 0.000000 1.000000
vn 0.000000 0.000000 1.000000
vn 0.000000 0.000000 1.000000
vn 0.000000 0.000000 1.000000
vn 0.000000 0.000000 1.000000
vn 0.000000 0.000000 1.000000
vn 0.000000 0.000000 1.000000
vn 0.000000 0.000000 1.000000
vn 0.000000 0.000000 1.000000
vn 0.000000 0.000000 1.000000
vn 0.000000 0.000000 1.000000
vn 0.000000 0.000000 1.000000
vn -0.000000 0.000000 -1.000000
vn -0.000000 0.000000 -1.000000
vn -0.000000 0.000000 -1.000000
vn -0.000000 0.000000 -1.000000
vn -0.000000 0.000000 -1.000000
vn -0.000000 0.000000 -1.000000
vn -0.000000 0.000000 -1.000000
vn -0.000000 0.000000 -1.000000
vn -0.000000 0.000000 -1.000000
vn -0.000000 0.000000 -1.000000
vn -0.000000 0.000000 -1.000000
vn -0.000000 0.000000 -1.000000
vn -0.000000 0.000000 -1.000000
vn -0.000000 0.000000 -1.000000
vn -0.000000 0.000000 -1.000000
vn -0.000000 0.000000 -1.000000
vn -0.000000 0.000000 -1.000000
vn -0.000000 0.000000 -1.000000
vn -0.000000 0.000000 -1.000000
vn -0.000000 0.000000 -1.000000
vn -0.000000 0.000000 -1.000000
vn -0.000000 0.000000 -1.000000
vn -0.000000 0.000000 -1.000000
vn -0.000000 0.000000 -1.000000
vn -0.000000 0.000000 -1.000000
vn -0.000000 0.000000 -1.000000
vn -0.000000 0.000000 -1.000000
vn -0.000000 0.000000 -1.000000
vn -0.000000 0.000000 -1.000000
vn -0.000000 0.000000 -1.000000
vn -0.000000 0.000000 -1.000000
vn -0.000000 0.000000 -1.000000
vn -0.000000 0.000000 -1.000000
vn -0.000000 0.000000 -1.000000
vn -0.000000 0.000000 -1.000000
vn -0.000000 0.000000 -1.000000
vn -0.000000 0.000000 -1.000000
vn -0.000000 0.000000 -1.000000
vn -0.000000 0.000000 -1.000000
vn -0.000000 0.000000 -1.000000
vn -0.000000 0.000000 -1.000000
vn -0.000000 0.000000 -1.000000
vn -0.000000 0.000000 -1.000000
vn -0.000000 0.000000 -1.000000
vn -0.000000 0.000000 -1.000000
vn -0.000000 0.000000 -1.000000
vn -0.000000 0.000000 -1.000000
vn -0.000000 0.000000 -1.000000
vn -0.000000 0.000000 -1.000000
vn -0.000000 0.000000 -1.000000
vn -0.000000 0.000000 -1.000000
vn -0.000000 0.000000 -1.000000
vn -0.000000 0.000000 -1.000000
vn -0.000000 0.000000 -1.000000
vn -0.000000 0.000000 -1.000000
vn -0.000000 0.000000 -1.000000
vn -0.000000 0.000000 -1.000000
vn -0.000000 0.000000 -1.000000
vn -0.000000 0.000000 -1.000000
vn -0.000000 0.000000 -1.000000
vn -0.000000 0.000000 -1.000000
vn -0.000000 0.000000 -1.000000
vn -0.000000 0.000000 -1.000000
vn -0.000000 0.000000 -1.000000
vn -0.000000 0.000000 -1.000000
vn -0.000000 0.000000 -1.000000
vn 0.000000 -1.000000 0.000000
vn 0.000000 -1.000000 0.000000
vn 0.000000 -1.000000 0.000000
vn 0.000000 -1.000000 0.000000
vn -1.000000 0.000000 0.000000
vn -1.000000 0.000000 0.000000
vn -1.000000 0.000000 0.000000
vn -1.000000 0.000000 0.000000
vn 0.000000 1.000000 0.000000
vn 0.000000 1.000000 0.000000
vn 0.000000 1.000000 0.000000
vn 0.000000 1.000000 0.000000
vn 1.000000 0.000000 -0.000000
vn 1.000000 0.000000 -0.000000
vn 1.000000 0.000000 -0.000000
vn 1.000000 0.000000 -0.000000
vn -1.000000 0.000000 0.000000
vn -1.000000 0.000000 0.000000
vn -1.000000 0.000000 0.000000
vn -1.000000 0.000000 0.000000
usemtl Steel_-_Satin
f 2/1/1 3/2/2 1/3/3
f 1/3/3 3/2/2 4/4/4
f 6/5/5 7/6/6 5/7/7
f 5/7/7 7/6/6 8/8/8
f 10/9/9 11/10/10 9/11/11
f 9/11/11 11/10/10 12/12/12
f 13/13/13 14/14/14 16/15/15
f 16/15/15 14/14/14 15/16/16
f 17/17/17 13/18/18 18/19/19
f 18/19/19 13/18/18 16/20/20
f 19/21/21 17/22/22 20/23/23
f 20/23/23 17/22/22 18/24/24
f 21/25/25 19/26/26 22/27/27
f 22/27/27 19/26/26 20/28/28
f 23/29/29 21/30/30 24/31/31
f 24/31/31 21/30/30 22/32/32
f 14/33/33 23/34/34 15/35/35
f 15/35/35 23/34/34 24/36/36
f 25/37/37 26/38/38 28/39/39
f 28/39/39 26/38/38 27/40/40
f 29/41/41 25/42/42 30/43/43
f 30/43/43 25/42/42 28/44/44
f 31/45/45 29/46/46 32/47/47
f 32/47/47 29/46/46 30/48/48
f 26/49/49 31/50/50 27/51/51
f 27/51/51 31/50/50 32/52/52
f 33/53/53 34/54/54 36/55/55
f 36/55/55 34/54/54 35/56/56
f 37/57/57 33/58/58 38/59/59
f 38/59/59 33/58/58 36/60/60
f 39/61/61 37/62/62 40/63/63
f 40/63/63 37/62/62 38/64/64
f 41/65/65 39/66/66 42/67/67
f 42/67/67 39/66/66 40/68/68
f 43/69/69 41/70/70 44/71/71
f 44/71/71 41/70/70 42/72/72
f 45/73/73 43/74/74 46/75/75
f 46/75/75 43/74/74 44/76/76
f 47/77/77 45/78/78 48/79/79
f 48/79/79 45/78/78 46/80/80
f 49/81/81 47/82/82 50/83/83
f 50/83/83 47/82/82 48/84/84
f 51/85/85 49/86/86 52/87/87
f 52/87/87 49/86/86 50/88/88
f 53/89/89 51/90/90 54/91/91
f 54/91/91 51/90/90 52/92/92
f 55/93/93 53/94/94 56/95/95
f 56/95/95 53/94/94 54/96/96
f 57/97/97 55/98/98 58/99/99
f 58/99/99 55/98/98 56/100/100
f 59/101/101 57/102/102 60/103/103
f 60/103/103 57/102/102 58/104/104
f 1/105/105 59/106/106 2/107/107
f 2/107/107 59/106/106 60/108/108
f 61/109/109 6/110/110 62/111/111
f 62/111/111 6/110/110 5/112/112
f 63/113/113 61/114/114 64/115/115
f 64/115/115 61/114/114 62/116/116
f 11/117/117 63/118/118 12/119/119
f 12/119/119 63/118/118 64/120/120
f 65/121/121 4/122/122 66/123/123
f 66/123/123 4/122/122 3/124/124
f 67/125/125 65/126/126 68/127/127
f 68/127/127 65/126/126 66/128/128
f 69/129/129 67/130/130 70/131/131
f 70/131/131 67/130/130 68/132/132
f 71/133/133 69/134/134 72/135/135
f 72/135/135 69/134/134 70/136/136
f 73/137/137 71/138/138 74/139/139
f 74/139/139 71/138/138 72/140/140
f 75/141/141 73/142/142 76/143/143
f 76/143/143 73/142/142 74/144/144
f 77/145/145 75/146/146 78/147/147
f 78/147/147 75/146/146 76/148/148
f 79/149/149 77/150/150 80/151/151
f 80/151/151 77/150/150 78/152/152
f 81/153/153 79/154/154 82/155/155
f 82/155/155 79/154/154 80/156/156
f 83/157/157 81/158/158 84/159/159
f 84/159/159 81/158/158 82/160/160
f 85/161/161 83/162/162 86/163/163
f 86/163/163 83/162/162 84/164/164
f 87/165/165 85/166/166 88/167/167
f 88/167/167 85/166/166 86/168/168
f 89/169/169 87/170/170 90/171/171
f 90/171/171 87/170/170 88/172/172
f 91/173/173 89/174/174 92/175/175
f 92/175/175 89/174/174 90/176/176
f 93/177/177 91/178/178 94/179/179
f 94/179/179 91/178/178 92/180/180
f 95/181/181 93/182/182 96/183/183
f 96/183/183 93/182/182 94/184/184
f 34/185/185 95/186/186 35/187/187
f 35/187/187 95/186/186 96/188/188
f 97/189/189 98/190/190 100/191/191
f 100/191/191 98/190/190 99/192/192
f 101/193/193 97/194/194 102/195/195
f 102/195/195 97/194/194 100/196/196
f 103/197/197 101/198/198 104/199/199
f 104/199/199 101/198/198 102/200/200
f 98/201/201 103/202/202 99/203/203
f 99/203/203 103/202/202 104/204/204
f 105/205/205 106/206/206 108/207/207
f 108/207/207 106/206/206 107/208/208
f 109/209/209 105/210/210 110/211/211
f 110/211/211 105/210/210 108/212/212
f 111/213/213 109/214/214 112/215/215
f 112/215/215 109/214/214 110/216/216
f 113/217/217 111/218/218 114/219/219
f 114/219/219 111/218/218 112/220/220
f 115/221/221 113/222/222 116/223/223
f 116/223/223 113/222/222 114/224/224
f 106/225/225 115/226/226 107/227/227
f 107/227/227 115/226/226 116/228/228
f 117/229/229 118/230/230 120/231/231
f 120/231/231 118/230/230 119/232/232
f 121/233/233 117/234/234 122/235/235
f 122/235/235 117/234/234 120/236/236
f 123/237/237 121/238/238 124/239/239
f 124/239/239 121/238/238 122/240/240
f 118/241/241 123/242/242 119/243/243
f 119/243/243 123/242/242 124/244/244
f 8/245/245 119/246/246 5/247/247
f 5/247/247 119/246/246 2/248/248
f 5/247/247 2/248/248 62/249/249
f 62/249/249 2/248/248 60/250/250
f 62/249/249 60/250/250 96/251/251
f 96/251/251 60/250/250 114/252/252
f 96/251/251 114/252/252 35/253/253
f 35/253/253 114/252/252 112/254/254
f 35/253/253 112/254/254 46/255/255
f 46/255/255 112/254/254 48/256/256
f 48/256/256 112/254/254 110/257/257
f 48/256/256 110/257/257 50/258/258
f 50/258/258 110/257/257 108/259/259
f 50/258/258 108/259/259 52/260/260
f 52/260/260 108/259/259 107/261/261
f 52/260/260 107/261/261 116/262/262
f 125/263/263 128/264/264 8/245/245
f 8/245/245 128/264/264 9/265/265
f 8/245/245 9/265/265 119/246/246
f 119/246/246 9/265/265 12/266/266
f 119/246/246 12/266/266 64/267/267
f 125/263/263 126/268/268 128/264/264
f 128/264/264 126/268/268 127/269/269
f 119/246/246 64/267/267 94/270/270
f 94/270/270 64/267/267 62/249/249
f 94/270/270 62/249/249 96/251/251
f 114/252/252 58/271/271 116/262/262
f 116/262/262 58/271/271 54/272/272
f 116/262/262 54/272/272 52/260/260
f 104/273/273 18/274/274 99/275/275
f 99/275/275 18/274/274 124/276/276
f 99/275/275 124/276/276 122/277/277
f 102/278/278 82/279/279 104/273/273
f 104/273/273 82/279/279 80/280/280
f 104/273/273 80/280/280 20/281/281
f 20/281/281 80/280/280 22/282/282
f 22/282/282 80/280/280 78/283/283
f 22/282/282 78/283/283 24/284/284
f 24/284/284 78/283/283 15/285/285
f 15/285/285 78/283/283 76/286/286
f 15/285/285 76/286/286 74/287/287
f 82/279/279 102/278/278 84/288/288
f 84/288/288 102/278/278 100/289/289
f 84/288/288 100/289/289 122/277/277
f 122/277/277 100/289/289 99/275/275
f 60/250/250 58/271/271 114/252/252
f 58/271/271 56/290/290 54/272/272
f 35/253/253 46/255/255 36/291/291
f 36/291/291 46/255/255 44/292/292
f 36/291/291 44/292/292 38/293/293
f 38/293/293 44/292/292 40/294/294
f 40/294/294 44/292/292 42/295/295
f 119/246/246 94/270/270 120/296/296
f 120/296/296 94/270/270 92/297/297
f 120/296/296 92/297/297 90/298/298
f 88/299/299 27/300/300 90/298/298
f 90/298/298 27/300/300 32/301/301
f 90/298/298 32/301/301 122/277/277
f 122/277/277 32/301/301 30/302/302
f 122/277/277 30/302/302 28/303/303
f 88/299/299 86/304/304 27/300/300
f 27/300/300 86/304/304 28/303/303
f 28/303/303 86/304/304 122/277/277
f 86/304/304 84/288/288 122/277/277
f 72/305/305 124/276/276 74/287/287
f 74/287/287 124/276/276 16/306/306
f 74/287/287 16/306/306 15/285/285
f 72/305/305 70/307/307 124/276/276
f 124/276/276 70/307/307 3/308/308
f 124/276/276 3/308/308 119/246/246
f 119/246/246 3/308/308 2/248/248
f 68/309/309 66/310/310 70/307/307
f 70/307/307 66/310/310 3/308/308
f 20/281/281 18/274/274 104/273/273
f 18/274/274 16/306/306 124/276/276
f 122/277/277 120/296/296 90/298/298
f 4/311/311 118/312/312 1/313/313
f 1/313/313 118/312/312 6/314/314
f 1/313/313 6/314/314 59/315/315
f 59/315/315 6/314/314 61/316/316
f 59/315/315 61/316/316 113/317/317
f 113/317/317 61/316/316 95/318/318
f 113/317/317 95/318/318 111/319/319
f 111/319/319 95/318/318 34/320/320
f 111/319/319 34/320/320 45/321/321
f 45/321/321 34/320/320 33/322/322
f 45/321/321 33/322/322 43/323/323
f 43/323/323 33/322/322 37/324/324
f 43/323/323 37/324/324 39/325/325
f 65/326/326 67/327/327 4/311/311
f 4/311/311 67/327/327 69/328/328
f 4/311/311 69/328/328 123/329/329
f 123/329/329 69/328/328 71/330/330
f 123/329/329 71/330/330 73/331/331
f 75/332/332 14/333/333 73/331/331
f 73/331/331 14/333/333 13/334/334
f 73/331/331 13/334/334 123/329/329
f 123/329/329 13/334/334 17/335/335
f 123/329/329 17/335/335 98/336/336
f 98/336/336 17/335/335 19/337/337
f 98/336/336 19/337/337 103/338/338
f 103/338/338 19/337/337 79/339/339
f 103/338/338 79/339/339 81/340/340
f 75/332/332 77/341/341 14/333/333
f 14/333/333 77/341/341 23/342/342
f 23/342/342 77/341/341 21/343/343
f 21/343/343 77/341/341 79/339/339
f 21/343/343 79/339/339 19/337/337
f 103/338/338 81/340/340 101/344/344
f 101/344/344 81/340/340 83/345/345
f 101/344/344 83/345/345 97/346/346
f 97/346/346 83/345/345 121/347/347
f 97/346/346 121/347/347 98/336/336
f 98/336/336 121/347/347 123/329/329
f 83/345/345 85/348/348 121/347/347
f 121/347/347 85/348/348 25/349/349
f 121/347/347 25/349/349 29/350/350
f 25/349/349 85/348/348 26/351/351
f 26/351/351 85/348/348 87/352/352
f 26/351/351 87/352/352 89/353/353
f 91/354/354 117/355/355 89/353/353
f 89/353/353 117/355/355 121/347/347
f 89/353/353 121/347/347 31/356/356
f 31/356/356 121/347/347 29/350/350
f 91/354/354 93/357/357 117/355/355
f 117/355/355 93/357/357 118/312/312
f 118/312/312 93/357/357 63/358/358
f 118/312/312 63/358/358 11/359/359
f 93/357/357 95/318/318 63/358/358
f 63/358/358 95/318/318 61/316/316
f 39/325/325 41/360/360 43/323/323
f 45/321/321 47/361/361 111/319/319
f 111/319/319 47/361/361 109/362/362
f 109/362/362 47/361/361 49/363/363
f 109/362/362 49/363/363 105/364/364
f 105/364/364 49/363/363 51/365/365
f 105/364/364 51/365/365 106/366/366
f 106/366/366 51/365/365 115/367/367
f 115/367/367 51/365/365 53/368/368
f 115/367/367 53/368/368 57/369/369
f 57/369/369 53/368/368 55/370/370
f 57/369/369 59/315/315 115/367/367
f 115/367/367 59/315/315 113/317/317
f 11/359/359 10/371/371 118/312/312
f 118/312/312 10/371/371 7/372/372
f 118/312/312 7/372/372 6/314/314
f 10/371/371 129/373/373 7/372/372
f 7/372/372 129/373/373 132/374/374
f 132/374/374 129/373/373 131/375/375
f 131/375/375 129/373/373 130/376/376
f 31/356/356 26/351/351 89/353/353
f 123/329/329 118/312/312 4/311/311
f 130/377/377 129/378/378 127/379/379
f 127/379/379 129/378/378 128/380/380
f 131/381/381 130/382/382 126/383/383
f 126/383/383 130/382/382 127/384/384
f 132/385/385 131/386/386 125/387/387
f 125/387/387 131/386/386 126/388/388
f 7/389/389 132/390/390 8/391/391
f 8/391/391 132/390/390 125/392/392
f 129/393/393 10/394/394 128/395/395
f 128/395/395 10/394/394 9/396/396
# 132 vertices
# 396 texture params
# 396 normals
# 284 facets

# 1 groups
