# WaveFront *.obj file (generated by Autodesk ATF)

mtllib Easy Maze Map (Fig. 9 From Paper) v1.mtl

g Body1

v -0.505083 -0.155724 0.000000
v -0.505083 0.188997 0.000000
v -0.505083 0.188997 0.075000
v -0.505083 -0.155724 0.075000
v 0.198239 -0.155724 0.000000
v 0.198239 -0.155724 0.075000
v 0.198239 0.560537 0.000000
v 0.198239 0.560537 0.075000
v -0.279117 0.560537 0.000000
v -0.279117 0.560537 0.075000
v -0.279117 0.615537 0.000000
v -0.279117 0.615537 0.075000
v 0.253239 0.615537 0.000000
v 0.253239 0.615537 0.075000
v 0.253239 -0.210724 0.000000
v 0.253239 -0.210724 0.075000
v -0.560083 -0.210724 0.000000
v -0.560083 -0.210724 0.075000
v -0.560083 0.243997 0.000000
v -0.560083 0.243997 0.075000
v -0.079484 0.243997 0.000000
v -0.079484 0.243997 0.075000
v -0.079484 0.188997 0.000000
v -0.079484 0.188997 0.075000
vt 0.000000 0.000000 0.000000
vt 0.344721 0.000000 0.000000
vt 0.000000 0.075000 0.000000
vt 0.344721 0.075000 0.000000
vt -0.000000 0.000000 0.000000
vt 0.703322 0.000000 0.000000
vt -0.000000 0.075000 0.000000
vt 0.703322 0.075000 0.000000
vt -0.000000 0.000000 0.000000
vt 0.716261 0.000000 0.000000
vt -0.000000 0.075000 0.000000
vt 0.716261 0.075000 0.000000
vt 0.000000 0.000000 0.000000
vt 0.477356 0.000000 0.000000
vt 0.000000 0.075000 0.000000
vt 0.477356 0.075000 0.000000
vt -0.000000 0.000000 0.000000
vt 0.055000 0.000000 0.000000
vt -0.000000 0.075000 0.000000
vt 0.055000 0.075000 0.000000
vt 0.000000 0.000000 0.000000
vt 0.532356 0.000000 0.000000
vt -0.000000 0.075000 0.000000
vt 0.532356 0.075000 0.000000
vt 0.000000 0.000000 0.000000
vt 0.826261 0.000000 0.000000
vt 0.000000 0.075000 0.000000
vt 0.826261 0.075000 0.000000
vt 0.000000 0.000000 0.000000
vt 0.813322 0.000000 0.000000
vt 0.000000 0.075000 0.000000
vt 0.813322 0.075000 0.000000
vt 0.000000 0.000000 0.000000
vt 0.454721 0.000000 0.000000
vt 0.000000 0.075000 0.000000
vt 0.454721 0.075000 0.000000
vt 0.000000 0.000000 0.000000
vt 0.480600 0.000000 0.000000
vt 0.000000 0.075000 0.000000
vt 0.480600 0.075000 0.000000
vt 0.000000 0.000000 0.000000
vt 0.055000 0.000000 0.000000
vt 0.000000 0.075000 0.000000
vt 0.055000 0.075000 0.000000
vt 0.000000 0.000000 0.000000
vt 0.425600 0.000000 0.000000
vt 0.000000 0.075000 0.000000
vt 0.425600 0.075000 0.000000
vt 0.073938 -0.013410 0.000000
vt 0.073938 0.041590 0.000000
vt -0.351661 -0.013410 0.000000
vt -0.406661 0.041590 0.000000
vt -0.406661 -0.413131 0.000000
vt -0.351661 -0.358131 0.000000
vt 0.406661 -0.413131 0.000000
vt 0.351661 -0.358131 0.000000
vt 0.351661 0.358131 0.000000
vt 0.406661 0.413131 0.000000
vt -0.125695 0.413131 0.000000
vt -0.125695 0.358131 0.000000
vt -0.073938 -0.013410 0.000000
vt 0.351661 -0.013410 0.000000
vt -0.073938 0.041590 0.000000
vt 0.406661 0.041590 0.000000
vt 0.406661 -0.413131 0.000000
vt 0.351661 -0.358131 0.000000
vt -0.351661 -0.358131 0.000000
vt -0.406661 -0.413131 0.000000
vt -0.351661 0.358131 0.000000
vt -0.406661 0.413131 0.000000
vt 0.125695 0.413131 0.000000
vt 0.125695 0.358131 0.000000
vn 1.000000 0.000000 -0.000000
vn 1.000000 0.000000 -0.000000
vn 1.000000 0.000000 -0.000000
vn 1.000000 0.000000 -0.000000
vn -0.000000 1.000000 0.000000
vn -0.000000 1.000000 0.000000
vn -0.000000 1.000000 0.000000
vn -0.000000 1.000000 0.000000
vn -1.000000 0.000000 0.000000
vn -1.000000 0.000000 0.000000
vn -1.000000 0.000000 0.000000
vn -1.000000 0.000000 0.000000
vn -0.000000 -1.000000 0.000000
vn -0.000000 -1.000000 0.000000
vn -0.000000 -1.000000 0.000000
vn -0.000000 -1.000000 0.000000
vn -1.000000 0.000000 0.000000
vn -1.000000 0.000000 0.000000
vn -1.000000 0.000000 0.000000
vn -1.000000 0.000000 0.000000
vn 0.000000 1.000000 -0.000000
vn 0.000000 1.000000 -0.000000
vn 0.000000 1.000000 -0.000000
vn 0.000000 1.000000 -0.000000
vn 1.000000 -0.000000 0.000000
vn 1.000000 -0.000000 0.000000
vn 1.000000 -0.000000 0.000000
vn 1.000000 -0.000000 0.000000
vn 0.000000 -1.000000 0.000000
vn 0.000000 -1.000000 0.000000
vn 0.000000 -1.000000 0.000000
vn 0.000000 -1.000000 0.000000
vn -1.000000 0.000000 0.000000
vn -1.000000 0.000000 0.000000
vn -1.000000 0.000000 0.000000
vn -1.000000 0.000000 0.000000
vn 0.000000 1.000000 -0.000000
vn 0.000000 1.000000 -0.000000
vn 0.000000 1.000000 -0.000000
vn 0.000000 1.000000 -0.000000
vn 1.000000 0.000000 0.000000
vn 1.000000 0.000000 0.000000
vn 1.000000 0.000000 0.000000
vn 1.000000 0.000000 0.000000
vn 0.000000 -1.000000 0.000000
vn 0.000000 -1.000000 0.000000
vn 0.000000 -1.000000 0.000000
vn 0.000000 -1.000000 0.000000
vn 0.000000 0.000000 1.000000
vn 0.000000 0.000000 1.000000
vn 0.000000 0.000000 1.000000
vn 0.000000 0.000000 1.000000
vn 0.000000 0.000000 1.000000
vn 0.000000 0.000000 1.000000
vn 0.000000 0.000000 1.000000
vn 0.000000 0.000000 1.000000
vn 0.000000 0.000000 1.000000
vn 0.000000 0.000000 1.000000
vn 0.000000 0.000000 1.000000
vn 0.000000 0.000000 1.000000
vn -0.000000 -0.000000 -1.000000
vn -0.000000 -0.000000 -1.000000
vn -0.000000 -0.000000 -1.000000
vn -0.000000 -0.000000 -1.000000
vn -0.000000 -0.000000 -1.000000
vn -0.000000 -0.000000 -1.000000
vn -0.000000 -0.000000 -1.000000
vn -0.000000 -0.000000 -1.000000
vn -0.000000 -0.000000 -1.000000
vn -0.000000 -0.000000 -1.000000
vn -0.000000 -0.000000 -1.000000
vn -0.000000 -0.000000 -1.000000
usemtl Steel_-_Satin
f 1/1/1 2/2/2 4/3/3
f 4/3/3 2/2/2 3/4/4
f 5/5/5 1/6/6 6/7/7
f 6/7/7 1/6/6 4/8/8
f 7/9/9 5/10/10 8/11/11
f 8/11/11 5/10/10 6/12/12
f 9/13/13 7/14/14 10/15/15
f 10/15/15 7/14/14 8/16/16
f 11/17/17 9/18/18 12/19/19
f 12/19/19 9/18/18 10/20/20
f 13/21/21 11/22/22 14/23/23
f 14/23/23 11/22/22 12/24/24
f 15/25/25 13/26/26 16/27/27
f 16/27/27 13/26/26 14/28/28
f 17/29/29 15/30/30 18/31/31
f 18/31/31 15/30/30 16/32/32
f 19/33/33 17/34/34 20/35/35
f 20/35/35 17/34/34 18/36/36
f 21/37/37 19/38/38 22/39/39
f 22/39/39 19/38/38 20/40/40
f 23/41/41 21/42/42 24/43/43
f 24/43/43 21/42/42 22/44/44
f 2/45/45 23/46/46 3/47/47
f 3/47/47 23/46/46 24/48/48
f 24/49/49 22/50/50 3/51/51
f 3/51/51 22/50/50 20/52/52
f 3/51/51 20/52/52 18/53/53
f 3/51/51 18/53/53 4/54/54
f 4/54/54 18/53/53 16/55/55
f 4/54/54 16/55/55 6/56/56
f 6/56/56 16/55/55 8/57/57
f 8/57/57 16/55/55 14/58/58
f 8/57/57 14/58/58 12/59/59
f 12/59/59 10/60/60 8/57/57
f 23/61/61 2/62/62 21/63/63
f 21/63/63 2/62/62 19/64/64
f 19/64/64 2/62/62 17/65/65
f 17/65/65 2/62/62 1/66/66
f 17/65/65 1/66/66 5/67/67
f 17/65/65 5/67/67 15/68/68
f 15/68/68 5/67/67 7/69/69
f 15/68/68 7/69/69 13/70/70
f 13/70/70 7/69/69 11/71/71
f 11/71/71 7/69/69 9/72/72
# 24 vertices
# 72 texture params
# 72 normals
# 44 facets

# 1 groups
