# WaveFront *.obj file (generated by Autodesk ATF)

mtllib Hard Maze Map 2 (Fig B.17 From Paper) v1.mtl

g Body3

v -0.113653 0.539055 0.000000
v 0.302724 0.539055 0.000000
v 0.302724 0.539055 0.075000
v -0.113653 0.539055 0.075000
v -0.113653 0.335869 0.000000
v -0.113653 0.335869 0.075000
v 0.302724 0.335869 0.000000
v 0.302724 0.335869 0.075000
v -0.143653 0.569055 0.000000
v -0.143653 0.305869 0.000000
v -0.143653 0.305869 0.075000
v -0.143653 0.569055 0.075000
v 0.332724 0.569055 0.000000
v 0.332724 0.569055 0.075000
v 0.332724 0.305869 0.000000
v 0.332724 0.305869 0.075000
vt 0.000000 0.000000 0.000000
vt 0.416378 0.000000 0.000000
vt 0.000000 0.075000 0.000000
vt 0.416378 0.075000 0.000000
vt 0.000000 0.000000 0.000000
vt 0.203187 0.000000 0.000000
vt 0.000000 0.075000 0.000000
vt 0.203187 0.075000 0.000000
vt 0.000000 0.000000 0.000000
vt 0.416378 0.000000 0.000000
vt 0.000000 0.075000 0.000000
vt 0.416378 0.075000 0.000000
vt 0.000000 0.000000 0.000000
vt 0.203187 0.000000 0.000000
vt 0.000000 0.075000 0.000000
vt 0.203187 0.075000 0.000000
vt -0.000000 0.000000 0.000000
vt 0.263187 0.000000 0.000000
vt 0.000000 0.075000 0.000000
vt 0.263187 0.075000 0.000000
vt -0.000000 0.000000 0.000000
vt 0.476378 0.000000 0.000000
vt -0.000000 0.075000 0.000000
vt 0.476378 0.075000 0.000000
vt 0.000000 0.000000 0.000000
vt 0.263187 0.000000 0.000000
vt 0.000000 0.075000 0.000000
vt 0.263187 0.075000 0.000000
vt 0.000000 0.000000 0.000000
vt 0.476378 0.000000 0.000000
vt 0.000000 0.075000 0.000000
vt 0.476378 0.075000 0.000000
vt 0.208189 -0.101593 0.000000
vt 0.238189 -0.131593 0.000000
vt 0.208189 0.101593 0.000000
vt 0.238189 0.131593 0.000000
vt -0.238189 0.131593 0.000000
vt -0.208189 -0.101593 0.000000
vt -0.238189 -0.131593 0.000000
vt -0.208189 0.101593 0.000000
vt -0.208189 0.101593 0.000000
vt -0.238189 -0.131593 0.000000
vt -0.208189 -0.101593 0.000000
vt 0.238189 -0.131593 0.000000
vt 0.208189 -0.101593 0.000000
vt 0.208189 0.101593 0.000000
vt 0.238189 0.131593 0.000000
vt -0.238189 0.131593 0.000000
vn 0.000000 -1.000000 0.000000
vn 0.000000 -1.000000 0.000000
vn 0.000000 -1.000000 0.000000
vn 0.000000 -1.000000 0.000000
vn 1.000000 0.000000 0.000000
vn 1.000000 0.000000 0.000000
vn 1.000000 0.000000 0.000000
vn 1.000000 0.000000 0.000000
vn 0.000000 1.000000 -0.000000
vn 0.000000 1.000000 -0.000000
vn 0.000000 1.000000 -0.000000
vn 0.000000 1.000000 -0.000000
vn -1.000000 0.000000 0.000000
vn -1.000000 0.000000 0.000000
vn -1.000000 0.000000 0.000000
vn -1.000000 0.000000 0.000000
vn -1.000000 0.000000 0.000000
vn -1.000000 0.000000 0.000000
vn -1.000000 0.000000 0.000000
vn -1.000000 0.000000 0.000000
vn 0.000000 1.000000 0.000000
vn 0.000000 1.000000 0.000000
vn 0.000000 1.000000 0.000000
vn 0.000000 1.000000 0.000000
vn 1.000000 0.000000 -0.000000
vn 1.000000 0.000000 -0.000000
vn 1.000000 0.000000 -0.000000
vn 1.000000 0.000000 -0.000000
vn 0.000000 -1.000000 0.000000
vn 0.000000 -1.000000 0.000000
vn 0.000000 -1.000000 0.000000
vn 0.000000 -1.000000 0.000000
vn 0.000000 0.000000 1.000000
vn 0.000000 0.000000 1.000000
vn 0.000000 0.000000 1.000000
vn 0.000000 0.000000 1.000000
vn 0.000000 0.000000 1.000000
vn 0.000000 0.000000 1.000000
vn 0.000000 0.000000 1.000000
vn 0.000000 0.000000 1.000000
vn -0.000000 0.000000 -1.000000
vn -0.000000 0.000000 -1.000000
vn -0.000000 0.000000 -1.000000
vn -0.000000 0.000000 -1.000000
vn -0.000000 0.000000 -1.000000
vn -0.000000 0.000000 -1.000000
vn -0.000000 0.000000 -1.000000
vn -0.000000 0.000000 -1.000000
usemtl Steel_-_Satin
f 1/1/1 2/2/2 4/3/3
f 4/3/3 2/2/2 3/4/4
f 5/5/5 1/6/6 6/7/7
f 6/7/7 1/6/6 4/8/8
f 7/9/9 5/10/10 8/11/11
f 8/11/11 5/10/10 6/12/12
f 2/13/13 7/14/14 3/15/15
f 3/15/15 7/14/14 8/16/16
f 9/17/17 10/18/18 12/19/19
f 12/19/19 10/18/18 11/20/20
f 13/21/21 9/22/22 14/23/23
f 14/23/23 9/22/22 12/24/24
f 15/25/25 13/26/26 16/27/27
f 16/27/27 13/26/26 14/28/28
f 10/29/29 15/30/30 11/31/31
f 11/31/31 15/30/30 16/32/32
f 8/33/33 16/34/34 3/35/35
f 3/35/35 16/34/34 14/36/36
f 3/35/35 14/36/36 12/37/37
f 8/33/33 6/38/38 16/34/34
f 16/34/34 6/38/38 11/39/39
f 11/39/39 6/38/38 4/40/40
f 11/39/39 4/40/40 12/37/37
f 12/37/37 4/40/40 3/35/35
f 2/41/41 15/42/42 7/43/43
f 7/43/43 15/42/42 10/44/44
f 7/43/43 10/44/44 5/45/45
f 5/45/45 10/44/44 1/46/46
f 1/46/46 10/44/44 9/47/47
f 1/46/46 9/47/47 13/48/48
f 15/42/42 2/41/41 13/48/48
f 13/48/48 2/41/41 1/46/46
g Body4

v 0.977023 0.331214 0.000000
v 0.540081 0.331214 0.000000
v 0.540081 0.331214 0.075000
v 0.977023 0.331214 0.075000
v 0.510081 0.301214 0.000000
v 0.977023 0.301214 0.000000
v 0.977023 0.301214 0.075000
v 0.510081 0.301214 0.075000
v 0.510081 0.737313 0.000000
v 0.510081 0.737313 0.075000
v 0.977023 0.982204 0.075000
v 0.977023 0.982204 0.000000
v 0.977023 0.129228 0.000000
v 0.977023 0.129228 0.075000
v 0.730686 -0.986472 0.000000
v 0.093508 -0.986472 0.000000
v 0.093508 -0.986472 0.075000
v 0.730686 -0.986472 0.075000
v 0.730686 -0.587384 0.000000
v 0.730686 -0.587384 0.075000
v 0.093508 -0.587384 0.000000
v 0.093508 -0.587384 0.075000
v -0.989574 -0.986472 0.000000
v -0.989574 -0.806964 0.000000
v -0.989574 -0.806964 0.075000
v -0.989574 -0.986472 0.075000
v -0.142814 -0.986472 0.000000
v -0.142814 -0.986472 0.075000
v -0.142814 -0.806964 0.000000
v -0.142814 -0.806964 0.075000
v -0.815088 -0.574622 0.000000
v -0.546488 -0.574622 0.000000
v -0.546488 -0.574622 0.075000
v -0.815088 -0.574622 0.075000
v -0.815088 0.306492 0.000000
v -0.815088 0.306492 0.075000
v -0.989574 0.306492 0.000000
v -0.989574 0.306492 0.075000
v -0.989574 -0.776964 0.000000
v -0.989574 -0.776964 0.075000
v -0.112814 -0.776964 0.000000
v -0.112814 -0.776964 0.075000
v -0.112814 -0.986472 0.000000
v -0.112814 -0.986472 0.075000
v 0.063508 -0.986472 0.000000
v 0.063508 -0.986472 0.075000
v 0.063508 -0.557384 0.000000
v 0.063508 -0.557384 0.075000
v 0.760686 -0.557384 0.000000
v 0.760686 -0.557384 0.075000
v 0.760686 -0.986472 0.000000
v 0.760686 -0.986472 0.075000
v 0.977023 -0.986472 0.000000
v 0.977023 -0.986472 0.075000
v 0.977023 -0.364549 0.000000
v 0.977023 -0.364549 0.075000
v -0.112814 -0.364549 0.000000
v -0.112814 -0.364549 0.075000
v 0.977023 -0.334549 0.000000
v -0.142814 -0.334549 0.000000
v -0.142814 -0.334549 0.075000
v 0.977023 -0.334549 0.075000
v 0.977023 0.099228 0.000000
v 0.977023 0.099228 0.075000
v -0.112814 0.099228 0.000000
v -0.112814 0.099228 0.075000
v -0.112814 -0.130991 0.000000
v -0.112814 -0.130991 0.075000
v -0.142814 0.129228 0.000000
v -0.142814 -0.100991 0.000000
v -0.142814 -0.100991 0.075000
v -0.142814 0.129228 0.075000
v 0.103108 0.982204 0.000000
v 0.103108 0.982204 0.075000
v 0.103108 0.767313 0.000000
v 0.103108 0.767313 0.075000
v 0.540081 0.767313 0.000000
v 0.540081 0.767313 0.075000
v 0.073108 0.737313 0.075000
v 0.073108 0.737313 0.000000
v 0.073108 0.982204 0.000000
v 0.073108 0.982204 0.075000
v -0.989574 0.982204 0.000000
v -0.989574 0.982204 0.075000
v -0.989574 0.765720 0.000000
v -0.989574 0.765720 0.075000
v -0.330122 0.765720 0.000000
v -0.330122 0.765720 0.075000
v -0.330122 0.070804 0.000000
v -0.330122 0.070804 0.075000
v -0.546488 0.070804 0.000000
v -0.546488 0.070804 0.075000
v -0.360122 0.735720 0.000000
v -0.360122 0.100804 0.000000
v -0.360122 0.100804 0.075000
v -0.360122 0.735720 0.075000
v -0.989574 0.735720 0.000000
v -0.989574 0.735720 0.075000
v -0.989574 0.336492 0.000000
v -0.989574 0.336492 0.075000
v -0.785088 0.336492 0.000000
v -0.785088 0.336492 0.075000
v -0.785088 -0.544622 0.000000
v -0.785088 -0.544622 0.075000
v -0.576488 -0.544622 0.000000
v -0.576488 -0.544622 0.075000
v -0.576488 0.100804 0.000000
v -0.576488 0.100804 0.075000
v 1.007023 1.012204 0.000000
v -1.019574 1.012204 0.000000
v -1.019574 1.012204 0.075000
v 1.007023 1.012204 0.075000
v 1.007023 -1.016472 0.000000
v 1.007023 -1.016472 0.075000
v -1.019574 -1.016472 0.000000
v -1.019574 -1.016472 0.075000
v -0.338888 -0.130991 0.000000
v -0.338888 -0.130991 0.075000
v -0.338888 -0.530391 0.000000
v -0.338888 -0.530391 0.075000
v -0.142814 -0.530391 0.000000
v -0.142814 -0.530391 0.075000
v -0.112814 -0.560391 0.000000
v -0.112814 -0.560391 0.075000
v -0.368888 -0.560391 0.000000
v -0.368888 -0.560391 0.075000
v -0.368888 -0.100991 0.000000
v -0.368888 -0.100991 0.075000
vt -0.000000 0.000000 0.000000
vt 0.436942 0.000000 0.000000
vt -0.000000 0.075000 0.000000
vt 0.436942 0.075000 0.000000
vt 0.000000 0.000000 0.000000
vt 0.466942 0.000000 0.000000
vt 0.000000 0.075000 0.000000
vt 0.466942 0.075000 0.000000
vt -0.000000 0.000000 0.000000
vt 0.436099 0.000000 0.000000
vt -0.000000 0.075000 0.000000
vt 0.436099 0.075000 0.000000
vt 0.650990 0.075000 0.000000
vt -0.000000 0.075000 0.000000
vt 0.650990 0.000000 0.000000
vt 0.000000 0.000000 0.000000
vt 0.680990 0.000000 0.000000
vt 0.852976 0.000000 0.000000
vt 0.680990 0.075000 0.000000
vt 0.852976 0.075000 0.000000
vt 0.000000 0.000000 0.000000
vt 0.637179 0.000000 0.000000
vt 0.000000 0.075000 0.000000
vt 0.637179 0.075000 0.000000
vt 0.000000 0.000000 0.000000
vt 0.399089 0.000000 0.000000
vt 0.000000 0.075000 0.000000
vt 0.399089 0.075000 0.000000
vt 0.000000 0.000000 0.000000
vt 0.637179 0.000000 0.000000
vt 0.000000 0.075000 0.000000
vt 0.637179 0.075000 0.000000
vt 0.000000 0.000000 0.000000
vt 0.399089 0.000000 0.000000
vt 0.000000 0.075000 0.000000
vt 0.399089 0.075000 0.000000
vt 0.000000 0.000000 0.000000
vt 0.179509 0.000000 0.000000
vt 0.000000 0.075000 0.000000
vt 0.179509 0.075000 0.000000
vt 0.000000 0.000000 0.000000
vt 0.846761 0.000000 0.000000
vt -0.000000 0.075000 0.000000
vt 0.846761 0.075000 0.000000
vt 0.000000 0.000000 0.000000
vt 0.179509 0.000000 0.000000
vt 0.000000 0.075000 0.000000
vt 0.179509 0.075000 0.000000
vt 0.000000 0.000000 0.000000
vt 0.846761 0.000000 0.000000
vt 0.000000 0.075000 0.000000
vt 0.846761 0.075000 0.000000
vt 0.000000 0.000000 0.000000
vt 0.268600 0.000000 0.000000
vt 0.000000 0.075000 0.000000
vt 0.268600 0.075000 0.000000
vt -0.000000 0.000000 0.000000
vt 0.881114 0.000000 0.000000
vt -0.000000 0.075000 0.000000
vt 0.881114 0.075000 0.000000
vt 0.000000 0.000000 0.000000
vt 0.174487 0.000000 0.000000
vt 0.000000 0.075000 0.000000
vt 0.174487 0.075000 0.000000
vt 0.000000 0.000000 0.000000
vt 1.083456 0.000000 0.000000
vt 0.000000 0.075000 0.000000
vt 1.083456 0.075000 0.000000
vt 0.000000 0.000000 0.000000
vt 0.876761 0.000000 0.000000
vt -0.000000 0.075000 0.000000
vt 0.876761 0.075000 0.000000
vt 0.000000 0.000000 0.000000
vt 0.209509 0.000000 0.000000
vt 0.000000 0.075000 0.000000
vt 0.209509 0.075000 0.000000
vt 0.000000 0.000000 0.000000
vt 0.176321 0.000000 0.000000
vt 0.000000 0.075000 0.000000
vt 0.176321 0.075000 0.000000
vt -0.000000 0.000000 0.000000
vt 0.429089 0.000000 0.000000
vt -0.000000 0.075000 0.000000
vt 0.429089 0.075000 0.000000
vt -0.000000 0.000000 0.000000
vt 0.697179 0.000000 0.000000
vt -0.000000 0.075000 0.000000
vt 0.697179 0.075000 0.000000
vt 0.000000 0.000000 0.000000
vt 0.429089 0.000000 0.000000
vt 0.000000 0.075000 0.000000
vt 0.429089 0.075000 0.000000
vt 0.000000 0.000000 0.000000
vt 0.216336 0.000000 0.000000
vt 0.000000 0.075000 0.000000
vt 0.216336 0.075000 0.000000
vt 0.000000 0.000000 0.000000
vt 0.621923 0.000000 0.000000
vt 0.000000 0.075000 0.000000
vt 0.621923 0.075000 0.000000
vt 0.000000 0.000000 0.000000
vt 1.089837 0.000000 0.000000
vt 0.000000 0.075000 0.000000
vt 1.089837 0.075000 0.000000
vt 0.000000 0.000000 0.000000
vt 1.119837 0.000000 0.000000
vt 0.000000 0.075000 0.000000
vt 1.119837 0.075000 0.000000
vt 0.000000 0.000000 0.000000
vt 0.433778 0.000000 0.000000
vt 0.000000 0.075000 0.000000
vt 0.433778 0.075000 0.000000
vt -0.000000 0.000000 0.000000
vt 1.089837 0.000000 0.000000
vt -0.000000 0.075000 0.000000
vt 1.089837 0.075000 0.000000
vt -0.030000 0.000000 0.000000
vt 0.200219 0.000000 0.000000
vt -0.030000 0.075000 0.000000
vt 0.200219 0.075000 0.000000
vt -0.000000 0.000000 0.000000
vt 0.230219 0.000000 0.000000
vt -0.000000 0.075000 0.000000
vt 0.230219 0.075000 0.000000
vt -0.000000 0.000000 0.000000
vt 1.119837 0.000000 0.000000
vt -0.000000 0.075000 0.000000
vt 1.119837 0.075000 0.000000
vt -0.000000 0.000000 0.000000
vt 0.873915 0.000000 0.000000
vt -0.000000 0.075000 0.000000
vt 0.873915 0.075000 0.000000
vt 0.000000 0.000000 0.000000
vt 0.214891 0.000000 0.000000
vt 0.000000 0.075000 0.000000
vt 0.214891 0.075000 0.000000
vt 0.000000 0.000000 0.000000
vt 0.436973 0.000000 0.000000
vt 0.000000 0.075000 0.000000
vt 0.436973 0.075000 0.000000
vt -0.406099 0.000000 0.000000
vt 0.030000 0.000000 0.000000
vt -0.406099 0.075000 0.000000
vt 0.030000 0.075000 0.000000
vt 0.436973 0.075000 0.000000
vt 0.000000 0.075000 0.000000
vt 0.436973 0.000000 0.000000
vt 0.000000 0.000000 0.000000
vt -0.000000 0.000000 0.000000
vt 0.244891 0.000000 0.000000
vt -0.000000 0.075000 0.000000
vt 0.244891 0.075000 0.000000
vt 0.000000 0.000000 0.000000
vt 1.062682 0.000000 0.000000
vt 0.000000 0.075000 0.000000
vt 1.062682 0.075000 0.000000
vt 0.000000 0.000000 0.000000
vt 0.216484 0.000000 0.000000
vt 0.000000 0.075000 0.000000
vt 0.216484 0.075000 0.000000
vt 0.000000 0.000000 0.000000
vt 0.659452 0.000000 0.000000
vt 0.000000 0.075000 0.000000
vt 0.659452 0.075000 0.000000
vt 0.000000 0.000000 0.000000
vt 0.694916 0.000000 0.000000
vt 0.000000 0.075000 0.000000
vt 0.694916 0.075000 0.000000
vt 0.000000 0.000000 0.000000
vt 0.216365 0.000000 0.000000
vt 0.000000 0.075000 0.000000
vt 0.216365 0.075000 0.000000
vt 0.000000 0.000000 0.000000
vt 0.645427 0.000000 0.000000
vt 0.000000 0.075000 0.000000
vt 0.645427 0.075000 0.000000
vt -0.000000 0.000000 0.000000
vt 0.634916 0.000000 0.000000
vt -0.000000 0.075000 0.000000
vt 0.634916 0.075000 0.000000
vt 0.000000 0.000000 0.000000
vt 0.629452 0.000000 0.000000
vt 0.000000 0.075000 0.000000
vt 0.629452 0.075000 0.000000
vt 0.000000 0.000000 0.000000
vt 0.399229 0.000000 0.000000
vt 0.000000 0.075000 0.000000
vt 0.399229 0.075000 0.000000
vt 0.000000 0.000000 0.000000
vt 0.204487 0.000000 0.000000
vt 0.000000 0.075000 0.000000
vt 0.204487 0.075000 0.000000
vt 0.000000 0.000000 0.000000
vt 0.881114 0.000000 0.000000
vt 0.000000 0.075000 0.000000
vt 0.881114 0.075000 0.000000
vt 0.000000 0.000000 0.000000
vt 0.208600 0.000000 0.000000
vt 0.000000 0.075000 0.000000
vt 0.208600 0.075000 0.000000
vt -0.000000 0.000000 0.000000
vt 0.645427 0.000000 0.000000
vt -0.000000 0.075000 0.000000
vt 0.645427 0.075000 0.000000
vt 0.000000 0.000000 0.000000
vt 0.216365 0.000000 0.000000
vt 0.000000 0.075000 0.000000
vt 0.216365 0.075000 0.000000
vt -0.000000 0.000000 0.000000
vt 2.026597 0.000000 0.000000
vt -0.000000 0.075000 0.000000
vt 2.026597 0.075000 0.000000
vt -0.000000 0.000000 0.000000
vt 2.028676 0.000000 0.000000
vt -0.000000 0.075000 0.000000
vt 2.028676 0.075000 0.000000
vt 0.000000 0.000000 0.000000
vt 2.026597 0.000000 0.000000
vt 0.000000 0.075000 0.000000
vt 2.026597 0.075000 0.000000
vt -0.000000 0.000000 0.000000
vt 2.028676 0.000000 0.000000
vt -0.000000 0.075000 0.000000
vt 2.028676 0.075000 0.000000
vt 0.000000 0.000000 0.000000
vt 0.226074 0.000000 0.000000
vt 0.000000 0.075000 0.000000
vt 0.226074 0.075000 0.000000
vt 0.000000 0.000000 0.000000
vt 0.399400 0.000000 0.000000
vt 0.000000 0.075000 0.000000
vt 0.399400 0.075000 0.000000
vt -0.000000 0.000000 0.000000
vt 0.196074 0.000000 0.000000
vt -0.000000 0.075000 0.000000
vt 0.196074 0.075000 0.000000
vt -0.030000 0.000000 0.000000
vt 0.165842 0.000000 0.000000
vt -0.030000 0.075000 0.000000
vt 0.165842 0.075000 0.000000
vt 0.000000 0.000000 0.000000
vt 0.195842 0.000000 0.000000
vt 0.000000 0.075000 0.000000
vt 0.195842 0.075000 0.000000
vt 0.000000 0.000000 0.000000
vt 0.256074 0.000000 0.000000
vt 0.000000 0.075000 0.000000
vt 0.256074 0.075000 0.000000
vt 0.000000 0.000000 0.000000
vt 0.459400 0.000000 0.000000
vt 0.000000 0.075000 0.000000
vt 0.459400 0.075000 0.000000
vt 0.000000 0.000000 0.000000
vt 0.226074 0.000000 0.000000
vt 0.000000 0.075000 0.000000
vt 0.226074 0.075000 0.000000
vt 1.217874 0.459919 0.000000
vt 1.247874 1.342895 0.000000
vt 1.217874 0.631905 0.000000
vt 1.217874 0.661905 0.000000
vt 0.780931 0.661905 0.000000
vt 0.098037 0.459919 0.000000
vt 0.128037 0.429919 0.000000
vt 1.217874 0.429919 0.000000
vt 1.247874 -0.685781 0.000000
vt 1.217874 -0.003858 0.000000
vt 1.217874 -0.033858 0.000000
vt 0.128037 -0.033858 0.000000
vt 0.098037 -0.003858 0.000000
vt 0.098037 -0.199700 0.000000
vt 0.098037 0.229700 0.000000
vt 0.128037 0.199700 0.000000
vt -0.098037 0.199700 0.000000
vt -0.128037 0.229700 0.000000
vt -0.128037 -0.229700 0.000000
vt -0.098037 -0.199700 0.000000
vt 0.128037 -0.229700 0.000000
vt 1.217874 -0.655781 0.000000
vt 1.001537 -0.655781 0.000000
vt 0.971537 -0.655781 0.000000
vt 0.971537 -0.256693 0.000000
vt 1.001537 -0.226693 0.000000
vt 0.304358 -0.226693 0.000000
vt 0.334358 -0.256693 0.000000
vt 0.304358 -0.655781 0.000000
vt 0.334358 -0.655781 0.000000
vt -0.778724 -0.685781 0.000000
vt 0.128037 -0.655781 0.000000
vt 0.098037 -0.655781 0.000000
vt 0.098037 -0.476273 0.000000
vt 0.128037 -0.446273 0.000000
vt -0.748724 -0.446273 0.000000
vt -0.748724 0.637183 0.000000
vt -0.748724 -0.476273 0.000000
vt -0.574237 0.637183 0.000000
vt -0.748724 0.667183 0.000000
vt -0.778724 1.342895 0.000000
vt -0.574237 -0.243931 0.000000
vt -0.544237 -0.213931 0.000000
vt -0.544237 0.667183 0.000000
vt -0.305637 -0.243931 0.000000
vt -0.335637 -0.213931 0.000000
vt -0.305637 0.401495 0.000000
vt -0.335637 0.431495 0.000000
vt -0.119271 0.431495 0.000000
vt -0.089271 0.401495 0.000000
vt -0.119271 1.066411 0.000000
vt -0.089271 1.096411 0.000000
vt -0.748724 1.096411 0.000000
vt -0.748724 1.312895 0.000000
vt -0.748724 1.066411 0.000000
vt 0.313958 1.312895 0.000000
vt 0.343958 1.312895 0.000000
vt 1.217874 1.312895 0.000000
vt 0.343958 1.098004 0.000000
vt 0.313958 1.068004 0.000000
vt 0.750931 1.068004 0.000000
vt 0.750931 0.631905 0.000000
vt 0.780931 1.098004 0.000000
vt -0.748724 -0.655781 0.000000
vt -1.217874 1.312895 0.000000
vt -1.247874 1.342895 0.000000
vt -1.217874 0.661905 0.000000
vt -1.217874 0.631905 0.000000
vt -0.780931 0.661905 0.000000
vt -0.750931 0.631905 0.000000
vt -0.750931 1.068004 0.000000
vt -0.343958 1.312895 0.000000
vt -0.313958 1.312895 0.000000
vt 0.778724 1.342895 0.000000
vt 0.748724 1.312895 0.000000
vt 0.748724 1.096411 0.000000
vt -0.343958 1.098004 0.000000
vt -0.313958 1.068004 0.000000
vt -0.780931 1.098004 0.000000
vt 0.089271 1.096411 0.000000
vt 0.119271 1.066411 0.000000
vt 0.748724 1.066411 0.000000
vt 0.748724 0.667183 0.000000
vt 0.748724 0.637183 0.000000
vt 0.574237 0.637183 0.000000
vt 0.544237 0.667183 0.000000
vt 0.544237 -0.213931 0.000000
vt 0.089271 0.401495 0.000000
vt 0.119271 0.431495 0.000000
vt 0.305637 0.401495 0.000000
vt 0.335637 0.431495 0.000000
vt 0.335637 -0.213931 0.000000
vt 0.305637 -0.243931 0.000000
vt 0.574237 -0.243931 0.000000
vt 0.778724 -0.685781 0.000000
vt 0.748724 -0.446273 0.000000
vt 0.748724 -0.476273 0.000000
vt -0.098037 -0.476273 0.000000
vt -0.128037 -0.446273 0.000000
vt -0.128037 -0.655781 0.000000
vt -0.304358 -0.655781 0.000000
vt -0.098037 -0.655781 0.000000
vt -0.304358 -0.226693 0.000000
vt -0.334358 -0.256693 0.000000
vt -0.334358 -0.655781 0.000000
vt -1.247874 -0.685781 0.000000
vt -0.971537 -0.655781 0.000000
vt -1.001537 -0.655781 0.000000
vt -0.971537 -0.256693 0.000000
vt -1.001537 -0.226693 0.000000
vt -1.217874 -0.655781 0.000000
vt -1.217874 -0.033858 0.000000
vt -1.217874 -0.003858 0.000000
vt -0.128037 -0.033858 0.000000
vt -0.098037 -0.003858 0.000000
vt -0.098037 -0.199700 0.000000
vt -0.128037 -0.229700 0.000000
vt 0.128037 -0.229700 0.000000
vt 0.128037 0.229700 0.000000
vt 0.098037 0.199700 0.000000
vt 0.098037 -0.199700 0.000000
vt -0.098037 0.229700 0.000000
vt -0.128037 0.199700 0.000000
vt -0.128037 0.429919 0.000000
vt -0.098037 0.459919 0.000000
vt -1.217874 0.459919 0.000000
vt -1.217874 0.429919 0.000000
vt 0.748724 -0.655781 0.000000
vn 0.000000 1.000000 0.000000
vn 0.000000 1.000000 0.000000
vn 0.000000 1.000000 0.000000
vn 0.000000 1.000000 0.000000
vn 0.000000 -1.000000 0.000000
vn 0.000000 -1.000000 0.000000
vn 0.000000 -1.000000 0.000000
vn 0.000000 -1.000000 0.000000
vn -1.000000 0.000000 0.000000
vn -1.000000 0.000000 0.000000
vn -1.000000 0.000000 0.000000
vn -1.000000 0.000000 0.000000
vn -1.000000 0.000000 0.000000
vn -1.000000 0.000000 0.000000
vn -1.000000 0.000000 0.000000
vn -1.000000 0.000000 0.000000
vn -1.000000 0.000000 0.000000
vn -1.000000 0.000000 0.000000
vn -1.000000 0.000000 0.000000
vn -1.000000 0.000000 0.000000
vn 0.000000 1.000000 -0.000000
vn 0.000000 1.000000 -0.000000
vn 0.000000 1.000000 -0.000000
vn 0.000000 1.000000 -0.000000
vn -1.000000 0.000000 0.000000
vn -1.000000 0.000000 0.000000
vn -1.000000 0.000000 0.000000
vn -1.000000 0.000000 0.000000
vn 0.000000 -1.000000 0.000000
vn 0.000000 -1.000000 0.000000
vn 0.000000 -1.000000 0.000000
vn 0.000000 -1.000000 0.000000
vn 1.000000 0.000000 -0.000000
vn 1.000000 0.000000 -0.000000
vn 1.000000 0.000000 -0.000000
vn 1.000000 0.000000 -0.000000
vn 1.000000 0.000000 -0.000000
vn 1.000000 0.000000 -0.000000
vn 1.000000 0.000000 -0.000000
vn 1.000000 0.000000 -0.000000
vn 0.000000 1.000000 0.000000
vn 0.000000 1.000000 0.000000
vn 0.000000 1.000000 0.000000
vn 0.000000 1.000000 0.000000
vn -1.000000 0.000000 0.000000
vn -1.000000 0.000000 0.000000
vn -1.000000 0.000000 0.000000
vn -1.000000 0.000000 0.000000
vn 0.000000 -1.000000 0.000000
vn 0.000000 -1.000000 0.000000
vn 0.000000 -1.000000 0.000000
vn 0.000000 -1.000000 0.000000
vn 0.000000 -1.000000 0.000000
vn 0.000000 -1.000000 0.000000
vn 0.000000 -1.000000 0.000000
vn 0.000000 -1.000000 0.000000
vn -1.000000 0.000000 0.000000
vn -1.000000 0.000000 0.000000
vn -1.000000 0.000000 0.000000
vn -1.000000 0.000000 0.000000
vn 0.000000 -1.000000 0.000000
vn 0.000000 -1.000000 0.000000
vn 0.000000 -1.000000 0.000000
vn 0.000000 -1.000000 0.000000
vn 1.000000 0.000000 -0.000000
vn 1.000000 0.000000 -0.000000
vn 1.000000 0.000000 -0.000000
vn 1.000000 0.000000 -0.000000
vn 0.000000 1.000000 -0.000000
vn 0.000000 1.000000 -0.000000
vn 0.000000 1.000000 -0.000000
vn 0.000000 1.000000 -0.000000
vn 1.000000 0.000000 0.000000
vn 1.000000 0.000000 0.000000
vn 1.000000 0.000000 0.000000
vn 1.000000 0.000000 0.000000
vn 0.000000 1.000000 -0.000000
vn 0.000000 1.000000 -0.000000
vn 0.000000 1.000000 -0.000000
vn 0.000000 1.000000 -0.000000
vn -1.000000 0.000000 0.000000
vn -1.000000 0.000000 0.000000
vn -1.000000 0.000000 0.000000
vn -1.000000 0.000000 0.000000
vn 0.000000 1.000000 0.000000
vn 0.000000 1.000000 0.000000
vn 0.000000 1.000000 0.000000
vn 0.000000 1.000000 0.000000
vn 1.000000 0.000000 -0.000000
vn 1.000000 0.000000 -0.000000
vn 1.000000 0.000000 -0.000000
vn 1.000000 0.000000 -0.000000
vn 0.000000 1.000000 -0.000000
vn 0.000000 1.000000 -0.000000
vn 0.000000 1.000000 -0.000000
vn 0.000000 1.000000 -0.000000
vn -1.000000 0.000000 0.000000
vn -1.000000 0.000000 0.000000
vn -1.000000 0.000000 0.000000
vn -1.000000 0.000000 0.000000
vn 0.000000 -1.000000 0.000000
vn 0.000000 -1.000000 0.000000
vn 0.000000 -1.000000 0.000000
vn 0.000000 -1.000000 0.000000
vn 0.000000 1.000000 -0.000000
vn 0.000000 1.000000 -0.000000
vn 0.000000 1.000000 -0.000000
vn 0.000000 1.000000 -0.000000
vn -1.000000 0.000000 0.000000
vn -1.000000 0.000000 0.000000
vn -1.000000 0.000000 0.000000
vn -1.000000 0.000000 0.000000
vn 0.000000 -1.000000 0.000000
vn 0.000000 -1.000000 0.000000
vn 0.000000 -1.000000 0.000000
vn 0.000000 -1.000000 0.000000
vn 1.000000 -0.000000 0.000000
vn 1.000000 -0.000000 0.000000
vn 1.000000 -0.000000 0.000000
vn 1.000000 -0.000000 0.000000
vn -1.000000 0.000000 0.000000
vn -1.000000 0.000000 0.000000
vn -1.000000 0.000000 0.000000
vn -1.000000 0.000000 0.000000
vn 0.000000 1.000000 0.000000
vn 0.000000 1.000000 0.000000
vn 0.000000 1.000000 0.000000
vn 0.000000 1.000000 0.000000
vn 0.000000 -1.000000 0.000000
vn 0.000000 -1.000000 0.000000
vn 0.000000 -1.000000 0.000000
vn 0.000000 -1.000000 0.000000
vn 1.000000 0.000000 0.000000
vn 1.000000 0.000000 0.000000
vn 1.000000 0.000000 0.000000
vn 1.000000 0.000000 0.000000
vn 0.000000 1.000000 -0.000000
vn 0.000000 1.000000 -0.000000
vn 0.000000 1.000000 -0.000000
vn 0.000000 1.000000 -0.000000
vn 1.000000 0.000000 -0.000000
vn 1.000000 0.000000 -0.000000
vn 1.000000 0.000000 -0.000000
vn 1.000000 0.000000 -0.000000
vn 0.000000 -1.000000 0.000000
vn 0.000000 -1.000000 0.000000
vn 0.000000 -1.000000 0.000000
vn 0.000000 -1.000000 0.000000
vn -1.000000 0.000000 0.000000
vn -1.000000 0.000000 0.000000
vn -1.000000 0.000000 0.000000
vn -1.000000 0.000000 0.000000
vn 0.000000 -1.000000 0.000000
vn 0.000000 -1.000000 0.000000
vn 0.000000 -1.000000 0.000000
vn 0.000000 -1.000000 0.000000
vn 1.000000 0.000000 0.000000
vn 1.000000 0.000000 0.000000
vn 1.000000 0.000000 0.000000
vn 1.000000 0.000000 0.000000
vn 0.000000 1.000000 -0.000000
vn 0.000000 1.000000 -0.000000
vn 0.000000 1.000000 -0.000000
vn 0.000000 1.000000 -0.000000
vn 1.000000 0.000000 0.000000
vn 1.000000 0.000000 0.000000
vn 1.000000 0.000000 0.000000
vn 1.000000 0.000000 0.000000
vn -0.000000 -1.000000 0.000000
vn -0.000000 -1.000000 0.000000
vn -0.000000 -1.000000 0.000000
vn -0.000000 -1.000000 0.000000
vn 1.000000 0.000000 -0.000000
vn 1.000000 0.000000 -0.000000
vn 1.000000 0.000000 -0.000000
vn 1.000000 0.000000 -0.000000
vn -1.000000 0.000000 0.000000
vn -1.000000 0.000000 0.000000
vn -1.000000 0.000000 0.000000
vn -1.000000 0.000000 0.000000
vn 0.000000 -1.000000 0.000000
vn 0.000000 -1.000000 0.000000
vn 0.000000 -1.000000 0.000000
vn 0.000000 -1.000000 0.000000
vn 1.000000 0.000000 -0.000000
vn 1.000000 0.000000 -0.000000
vn 1.000000 0.000000 -0.000000
vn 1.000000 0.000000 -0.000000
vn 0.000000 1.000000 -0.000000
vn 0.000000 1.000000 -0.000000
vn 0.000000 1.000000 -0.000000
vn 0.000000 1.000000 -0.000000
vn 1.000000 0.000000 0.000000
vn 1.000000 0.000000 0.000000
vn 1.000000 0.000000 0.000000
vn 1.000000 0.000000 0.000000
vn 0.000000 1.000000 -0.000000
vn 0.000000 1.000000 -0.000000
vn 0.000000 1.000000 -0.000000
vn 0.000000 1.000000 -0.000000
vn -1.000000 0.000000 0.000000
vn -1.000000 0.000000 0.000000
vn -1.000000 0.000000 0.000000
vn -1.000000 0.000000 0.000000
vn 0.000000 1.000000 -0.000000
vn 0.000000 1.000000 -0.000000
vn 0.000000 1.000000 -0.000000
vn 0.000000 1.000000 -0.000000
vn 0.000000 1.000000 0.000000
vn 0.000000 1.000000 0.000000
vn 0.000000 1.000000 0.000000
vn 0.000000 1.000000 0.000000
vn 1.000000 -0.000000 0.000000
vn 1.000000 -0.000000 0.000000
vn 1.000000 -0.000000 0.000000
vn 1.000000 -0.000000 0.000000
vn -0.000000 -1.000000 0.000000
vn -0.000000 -1.000000 0.000000
vn -0.000000 -1.000000 0.000000
vn -0.000000 -1.000000 0.000000
vn -1.000000 0.000000 0.000000
vn -1.000000 0.000000 0.000000
vn -1.000000 0.000000 0.000000
vn -1.000000 0.000000 0.000000
vn 0.000000 -1.000000 0.000000
vn 0.000000 -1.000000 0.000000
vn 0.000000 -1.000000 0.000000
vn 0.000000 -1.000000 0.000000
vn 1.000000 0.000000 -0.000000
vn 1.000000 0.000000 -0.000000
vn 1.000000 0.000000 -0.000000
vn 1.000000 0.000000 -0.000000
vn 0.000000 1.000000 0.000000
vn 0.000000 1.000000 0.000000
vn 0.000000 1.000000 0.000000
vn 0.000000 1.000000 0.000000
vn -1.000000 0.000000 0.000000
vn -1.000000 0.000000 0.000000
vn -1.000000 0.000000 0.000000
vn -1.000000 0.000000 0.000000
vn 1.000000 0.000000 0.000000
vn 1.000000 0.000000 0.000000
vn 1.000000 0.000000 0.000000
vn 1.000000 0.000000 0.000000
vn 0.000000 -1.000000 0.000000
vn 0.000000 -1.000000 0.000000
vn 0.000000 -1.000000 0.000000
vn 0.000000 -1.000000 0.000000
vn -1.000000 0.000000 0.000000
vn -1.000000 0.000000 0.000000
vn -1.000000 0.000000 0.000000
vn -1.000000 0.000000 0.000000
vn 0.000000 1.000000 -0.000000
vn 0.000000 1.000000 -0.000000
vn 0.000000 1.000000 -0.000000
vn 0.000000 1.000000 -0.000000
vn 0.000000 0.000000 1.000000
vn 0.000000 0.000000 1.000000
vn 0.000000 0.000000 1.000000
vn 0.000000 0.000000 1.000000
vn 0.000000 0.000000 1.000000
vn 0.000000 0.000000 1.000000
vn 0.000000 0.000000 1.000000
vn 0.000000 0.000000 1.000000
vn 0.000000 0.000000 1.000000
vn 0.000000 0.000000 1.000000
vn 0.000000 0.000000 1.000000
vn 0.000000 0.000000 1.000000
vn 0.000000 0.000000 1.000000
vn 0.000000 0.000000 1.000000
vn 0.000000 0.000000 1.000000
vn 0.000000 0.000000 1.000000
vn 0.000000 0.000000 1.000000
vn 0.000000 0.000000 1.000000
vn 0.000000 0.000000 1.000000
vn 0.000000 0.000000 1.000000
vn 0.000000 0.000000 1.000000
vn 0.000000 0.000000 1.000000
vn 0.000000 0.000000 1.000000
vn 0.000000 0.000000 1.000000
vn 0.000000 0.000000 1.000000
vn 0.000000 0.000000 1.000000
vn 0.000000 0.000000 1.000000
vn 0.000000 0.000000 1.000000
vn 0.000000 0.000000 1.000000
vn 0.000000 0.000000 1.000000
vn 0.000000 0.000000 1.000000
vn 0.000000 0.000000 1.000000
vn 0.000000 0.000000 1.000000
vn 0.000000 0.000000 1.000000
vn 0.000000 0.000000 1.000000
vn 0.000000 0.000000 1.000000
vn 0.000000 0.000000 1.000000
vn 0.000000 0.000000 1.000000
vn 0.000000 0.000000 1.000000
vn 0.000000 0.000000 1.000000
vn 0.000000 0.000000 1.000000
vn 0.000000 0.000000 1.000000
vn 0.000000 0.000000 1.000000
vn 0.000000 0.000000 1.000000
vn 0.000000 0.000000 1.000000
vn 0.000000 0.000000 1.000000
vn 0.000000 0.000000 1.000000
vn 0.000000 0.000000 1.000000
vn 0.000000 0.000000 1.000000
vn 0.000000 0.000000 1.000000
vn 0.000000 0.000000 1.000000
vn 0.000000 0.000000 1.000000
vn 0.000000 0.000000 1.000000
vn 0.000000 0.000000 1.000000
vn 0.000000 0.000000 1.000000
vn 0.000000 0.000000 1.000000
vn 0.000000 0.000000 1.000000
vn 0.000000 0.000000 1.000000
vn 0.000000 0.000000 1.000000
vn 0.000000 0.000000 1.000000
vn 0.000000 0.000000 1.000000
vn 0.000000 0.000000 1.000000
vn 0.000000 0.000000 1.000000
vn 0.000000 0.000000 1.000000
vn -0.000000 0.000000 -1.000000
vn -0.000000 0.000000 -1.000000
vn -0.000000 0.000000 -1.000000
vn -0.000000 0.000000 -1.000000
vn -0.000000 0.000000 -1.000000
vn -0.000000 0.000000 -1.000000
vn -0.000000 0.000000 -1.000000
vn -0.000000 0.000000 -1.000000
vn -0.000000 0.000000 -1.000000
vn -0.000000 0.000000 -1.000000
vn -0.000000 0.000000 -1.000000
vn -0.000000 0.000000 -1.000000
vn -0.000000 0.000000 -1.000000
vn -0.000000 0.000000 -1.000000
vn -0.000000 0.000000 -1.000000
vn -0.000000 0.000000 -1.000000
vn -0.000000 0.000000 -1.000000
vn -0.000000 0.000000 -1.000000
vn -0.000000 0.000000 -1.000000
vn -0.000000 0.000000 -1.000000
vn -0.000000 0.000000 -1.000000
vn -0.000000 0.000000 -1.000000
vn -0.000000 0.000000 -1.000000
vn -0.000000 0.000000 -1.000000
vn -0.000000 0.000000 -1.000000
vn -0.000000 0.000000 -1.000000
vn -0.000000 0.000000 -1.000000
vn -0.000000 0.000000 -1.000000
vn -0.000000 0.000000 -1.000000
vn -0.000000 0.000000 -1.000000
vn -0.000000 0.000000 -1.000000
vn -0.000000 0.000000 -1.000000
vn -0.000000 0.000000 -1.000000
vn -0.000000 0.000000 -1.000000
vn -0.000000 0.000000 -1.000000
vn -0.000000 0.000000 -1.000000
vn -0.000000 0.000000 -1.000000
vn -0.000000 0.000000 -1.000000
vn -0.000000 0.000000 -1.000000
vn -0.000000 0.000000 -1.000000
vn -0.000000 0.000000 -1.000000
vn -0.000000 0.000000 -1.000000
vn -0.000000 0.000000 -1.000000
vn -0.000000 0.000000 -1.000000
vn -0.000000 0.000000 -1.000000
vn -0.000000 0.000000 -1.000000
vn -0.000000 0.000000 -1.000000
vn -0.000000 0.000000 -1.000000
vn -0.000000 0.000000 -1.000000
vn -0.000000 0.000000 -1.000000
vn -0.000000 0.000000 -1.000000
vn -0.000000 0.000000 -1.000000
vn -0.000000 0.000000 -1.000000
vn -0.000000 0.000000 -1.000000
vn -0.000000 0.000000 -1.000000
vn -0.000000 0.000000 -1.000000
vn -0.000000 0.000000 -1.000000
vn -0.000000 0.000000 -1.000000
vn -0.000000 0.000000 -1.000000
vn -0.000000 0.000000 -1.000000
vn -0.000000 0.000000 -1.000000
vn -0.000000 0.000000 -1.000000
vn -0.000000 0.000000 -1.000000
vn -0.000000 0.000000 -1.000000
f 17/49/49 18/50/50 20/51/51
f 20/51/51 18/50/50 19/52/52
f 21/53/53 22/54/54 24/55/55
f 24/55/55 22/54/54 23/56/56
f 25/57/57 21/58/58 26/59/59
f 26/59/59 21/58/58 24/60/60
f 20/61/61 27/62/62 17/63/63
f 17/63/63 27/62/62 28/64/64
f 22/65/65 29/66/66 23/67/67
f 23/67/67 29/66/66 30/68/68
f 31/69/69 32/70/70 34/71/71
f 34/71/71 32/70/70 33/72/72
f 35/73/73 31/74/74 36/75/75
f 36/75/75 31/74/74 34/76/76
f 37/77/77 35/78/78 38/79/79
f 38/79/79 35/78/78 36/80/80
f 32/81/81 37/82/82 33/83/83
f 33/83/83 37/82/82 38/84/84
f 39/85/85 40/86/86 42/87/87
f 42/87/87 40/86/86 41/88/88
f 43/89/89 39/90/90 44/91/91
f 44/91/91 39/90/90 42/92/92
f 45/93/93 43/94/94 46/95/95
f 46/95/95 43/94/94 44/96/96
f 40/97/97 45/98/98 41/99/99
f 41/99/99 45/98/98 46/100/100
f 47/101/101 48/102/102 50/103/103
f 50/103/103 48/102/102 49/104/104
f 51/105/105 47/106/106 52/107/107
f 52/107/107 47/106/106 50/108/108
f 53/109/109 51/110/110 54/111/111
f 54/111/111 51/110/110 52/112/112
f 55/113/113 53/114/114 56/115/115
f 56/115/115 53/114/114 54/116/116
f 57/117/117 55/118/118 58/119/119
f 58/119/119 55/118/118 56/120/120
f 59/121/121 57/122/122 60/123/123
f 60/123/123 57/122/122 58/124/124
f 61/125/125 59/126/126 62/127/127
f 62/127/127 59/126/126 60/128/128
f 63/129/129 61/130/130 64/131/131
f 64/131/131 61/130/130 62/132/132
f 65/133/133 63/134/134 66/135/135
f 66/135/135 63/134/134 64/136/136
f 67/137/137 65/138/138 68/139/139
f 68/139/139 65/138/138 66/140/140
f 69/141/141 67/142/142 70/143/143
f 70/143/143 67/142/142 68/144/144
f 71/145/145 69/146/146 72/147/147
f 72/147/147 69/146/146 70/148/148
f 73/149/149 71/150/150 74/151/151
f 74/151/151 71/150/150 72/152/152
f 75/153/153 76/154/154 78/155/155
f 78/155/155 76/154/154 77/156/156
f 79/157/157 75/158/158 80/159/159
f 80/159/159 75/158/158 78/160/160
f 81/161/161 79/162/162 82/163/163
f 82/163/163 79/162/162 80/164/164
f 83/165/165 81/166/166 84/167/167
f 84/167/167 81/166/166 82/168/168
f 85/169/169 86/170/170 88/171/171
f 88/171/171 86/170/170 87/172/172
f 29/173/173 85/174/174 30/175/175
f 30/175/175 85/174/174 88/176/176
f 89/177/177 28/178/178 90/179/179
f 90/179/179 28/178/178 27/180/180
f 91/181/181 89/182/182 92/183/183
f 92/183/183 89/182/182 90/184/184
f 93/185/185 91/186/186 94/187/187
f 94/187/187 91/186/186 92/188/188
f 18/189/189 93/190/190 19/191/191
f 19/191/191 93/190/190 94/192/192
f 26/193/193 95/194/194 25/195/195
f 25/195/195 95/194/194 96/196/196
f 97/197/197 96/198/198 98/199/199
f 98/199/199 96/198/198 95/200/200
f 99/201/201 97/202/202 100/203/203
f 100/203/203 97/202/202 98/204/204
f 101/205/205 99/206/206 102/207/207
f 102/207/207 99/206/206 100/208/208
f 103/209/209 101/210/210 104/211/211
f 104/211/211 101/210/210 102/212/212
f 105/213/213 103/214/214 106/215/215
f 106/215/215 103/214/214 104/216/216
f 107/217/217 105/218/218 108/219/219
f 108/219/219 105/218/218 106/220/220
f 48/221/221 107/222/222 49/223/223
f 49/223/223 107/222/222 108/224/224
f 109/225/225 110/226/226 112/227/227
f 112/227/227 110/226/226 111/228/228
f 113/229/229 109/230/230 114/231/231
f 114/231/231 109/230/230 112/232/232
f 115/233/233 113/234/234 116/235/235
f 116/235/235 113/234/234 114/236/236
f 117/237/237 115/238/238 118/239/239
f 118/239/239 115/238/238 116/240/240
f 119/241/241 117/242/242 120/243/243
f 120/243/243 117/242/242 118/244/244
f 121/245/245 119/246/246 122/247/247
f 122/247/247 119/246/246 120/248/248
f 123/249/249 121/250/250 124/251/251
f 124/251/251 121/250/250 122/252/252
f 110/253/253 123/254/254 111/255/255
f 111/255/255 123/254/254 124/256/256
f 125/257/257 126/258/258 128/259/259
f 128/259/259 126/258/258 127/260/260
f 129/261/261 125/262/262 130/263/263
f 130/263/263 125/262/262 128/264/264
f 131/265/265 129/266/266 132/267/267
f 132/267/267 129/266/266 130/268/268
f 126/269/269 131/270/270 127/271/271
f 127/271/271 131/270/270 132/272/272
f 133/273/273 83/274/274 134/275/275
f 134/275/275 83/274/274 84/276/276
f 135/277/277 133/278/278 136/279/279
f 136/279/279 133/278/278 134/280/280
f 137/281/281 135/282/282 138/283/283
f 138/283/283 135/282/282 136/284/284
f 76/285/285 137/286/286 77/287/287
f 77/287/287 137/286/286 138/288/288
f 139/289/289 73/290/290 140/291/291
f 140/291/291 73/290/290 74/292/292
f 141/293/293 139/294/294 142/295/295
f 142/295/295 139/294/294 140/296/296
f 143/297/297 141/298/298 144/299/299
f 144/299/299 141/298/298 142/300/300
f 86/301/301 143/302/302 87/303/303
f 87/303/303 143/302/302 144/304/304
f 30/305/305 128/306/306 23/307/307
f 23/307/307 128/306/306 20/308/308
f 23/307/307 20/308/308 19/309/309
f 88/310/310 82/311/311 30/305/305
f 30/305/305 82/311/311 80/312/312
f 30/305/305 80/312/312 128/306/306
f 128/306/306 80/312/312 130/313/313
f 130/313/313 80/312/312 78/314/314
f 130/313/313 78/314/314 72/315/315
f 72/315/315 78/314/314 74/316/316
f 74/316/316 78/314/314 77/317/317
f 74/316/316 77/317/317 138/318/318
f 88/310/310 87/319/319 82/311/311
f 82/311/311 87/319/319 84/320/320
f 84/320/320 87/319/319 134/321/321
f 134/321/321 87/319/319 144/322/322
f 134/321/321 144/322/322 142/323/323
f 134/321/321 142/323/323 136/324/324
f 136/324/324 142/323/323 140/325/325
f 136/324/324 140/325/325 138/318/318
f 138/318/318 140/325/325 74/316/316
f 72/315/315 70/326/326 130/313/313
f 130/313/313 70/326/326 68/327/327
f 130/313/313 68/327/327 34/328/328
f 34/328/328 68/327/327 36/329/329
f 36/329/329 68/327/327 66/330/330
f 36/329/329 66/330/330 64/331/331
f 36/329/329 64/331/331 38/332/332
f 38/332/332 64/331/331 62/333/333
f 38/332/332 62/333/333 33/334/334
f 33/334/334 62/333/333 130/313/313
f 33/334/334 130/313/313 34/328/328
f 130/313/313 62/333/333 132/335/335
f 132/335/335 62/333/333 60/336/336
f 132/335/335 60/336/336 44/337/337
f 44/337/337 60/336/336 46/338/338
f 46/338/338 60/336/336 58/339/339
f 46/338/338 58/339/339 56/340/340
f 54/341/341 132/335/335 56/340/340
f 56/340/340 132/335/335 41/342/342
f 56/340/340 41/342/342 46/338/338
f 52/343/343 116/344/344 54/341/341
f 54/341/341 116/344/344 127/345/345
f 54/341/341 127/345/345 132/335/335
f 50/346/346 120/347/347 52/343/343
f 52/343/343 120/347/347 118/348/348
f 52/343/343 118/348/348 116/344/344
f 50/346/346 49/349/349 120/347/347
f 120/347/347 49/349/349 122/350/350
f 122/350/350 49/349/349 108/351/351
f 122/350/350 108/351/351 124/352/352
f 124/352/352 108/351/351 111/353/353
f 111/353/353 108/351/351 106/354/354
f 111/353/353 106/354/354 112/355/355
f 112/355/355 106/354/354 104/356/356
f 112/355/355 104/356/356 102/357/357
f 100/358/358 127/345/345 102/357/357
f 102/357/357 127/345/345 114/359/359
f 102/357/357 114/359/359 112/355/355
f 100/358/358 98/360/360 127/345/345
f 127/345/345 98/360/360 128/306/306
f 128/306/306 98/360/360 90/361/361
f 128/306/306 90/361/361 27/362/362
f 90/361/361 98/360/360 92/363/363
f 92/363/363 98/360/360 95/364/364
f 92/363/363 95/364/364 26/365/365
f 24/366/366 19/309/309 26/365/365
f 26/365/365 19/309/309 94/367/367
f 26/365/365 94/367/367 92/363/363
f 24/366/366 23/307/307 19/309/309
f 44/337/337 42/368/368 132/335/335
f 132/335/335 42/368/368 41/342/342
f 116/344/344 114/359/359 127/345/345
f 27/362/362 20/308/308 128/306/306
f 28/369/369 125/370/370 17/371/371
f 17/371/371 125/370/370 22/372/372
f 17/371/371 22/372/372 18/373/373
f 18/373/373 22/372/372 21/374/374
f 18/373/373 21/374/374 25/375/375
f 28/369/369 89/376/376 125/370/370
f 125/370/370 89/376/376 97/377/377
f 125/370/370 97/377/377 126/378/378
f 126/378/378 97/377/377 99/379/379
f 126/378/378 99/379/379 101/380/380
f 89/376/376 91/381/381 97/377/377
f 97/377/377 91/381/381 96/382/382
f 96/382/382 91/381/381 25/375/375
f 25/375/375 91/381/381 93/383/383
f 25/375/375 93/383/383 18/373/373
f 103/384/384 109/385/385 101/380/380
f 101/380/380 109/385/385 113/386/386
f 101/380/380 113/386/386 126/378/378
f 126/378/378 113/386/386 115/387/387
f 126/378/378 115/387/387 53/388/388
f 53/388/388 115/387/387 51/389/389
f 51/389/389 115/387/387 117/390/390
f 51/389/389 117/390/390 119/391/391
f 103/384/384 105/392/392 109/385/385
f 109/385/385 105/392/392 110/393/393
f 110/393/393 105/392/392 107/394/394
f 110/393/393 107/394/394 123/395/395
f 123/395/395 107/394/394 121/396/396
f 121/396/396 107/394/394 48/397/397
f 121/396/396 48/397/397 47/398/398
f 121/396/396 47/398/398 119/391/391
f 119/391/391 47/398/398 51/389/389
f 126/378/378 53/388/388 131/399/399
f 131/399/399 53/388/388 55/400/400
f 131/399/399 55/400/400 40/401/401
f 40/401/401 55/400/400 45/402/402
f 45/402/402 55/400/400 57/403/403
f 45/402/402 57/403/403 59/404/404
f 61/405/405 131/399/399 59/404/404
f 59/404/404 131/399/399 43/406/406
f 59/404/404 43/406/406 45/402/402
f 63/407/407 37/408/408 61/405/405
f 61/405/405 37/408/408 32/409/409
f 61/405/405 32/409/409 129/410/410
f 129/410/410 32/409/409 31/411/411
f 129/410/410 31/411/411 67/412/412
f 67/412/412 31/411/411 35/413/413
f 67/412/412 35/413/413 65/414/414
f 65/414/414 35/413/413 37/408/408
f 65/414/414 37/408/408 63/407/407
f 67/412/412 69/415/415 129/410/410
f 129/410/410 69/415/415 71/416/416
f 129/410/410 71/416/416 75/417/417
f 75/417/417 71/416/416 73/418/418
f 75/417/417 73/418/418 76/419/419
f 76/419/419 73/418/418 137/420/420
f 137/420/420 73/418/418 139/421/421
f 137/420/420 139/421/421 141/422/422
f 143/423/423 133/424/424 141/422/422
f 141/422/422 133/424/424 135/425/425
f 141/422/422 135/425/425 137/420/420
f 143/423/423 86/426/426 133/424/424
f 133/424/424 86/426/426 83/427/427
f 83/427/427 86/426/426 81/428/428
f 81/428/428 86/426/426 85/429/429
f 81/428/428 85/429/429 29/430/430
f 22/372/372 125/370/370 29/430/430
f 29/430/430 125/370/370 79/431/431
f 29/430/430 79/431/431 81/428/428
f 125/370/370 129/410/410 79/431/431
f 79/431/431 129/410/410 75/417/417
f 129/410/410 131/399/399 61/405/405
f 40/401/401 39/432/432 131/399/399
f 131/399/399 39/432/432 43/406/406
# 144 vertices
# 432 texture params
# 432 normals
# 308 facets

# 2 groups
