# WaveFront *.obj file (generated by Autodesk ATF)

mtllib Hard Maze Map 3 (Fig. 7 From Paper) v2.mtl

g Body1

v -0.117295 -0.187398 0.000000
v -0.117295 -0.612966 0.000000
v -0.117295 -0.612966 0.075000
v -0.117295 -0.187398 0.075000
v -0.316464 -0.187398 0.000000
v -0.316464 -0.187398 0.075000
v -0.316464 -0.612966 0.000000
v -0.316464 -0.612966 0.075000
v -0.067295 -0.662966 0.000000
v -0.067295 0.039000 0.000000
v -0.067295 0.039000 0.075000
v -0.067295 -0.662966 0.075000
v -0.366464 -0.662966 0.000000
v -0.366464 -0.662966 0.075000
v -0.366464 -0.137398 0.000000
v -0.366464 -0.137398 0.075000
v -0.117295 -0.137398 0.000000
v -0.117295 -0.137398 0.075000
v -0.117295 0.089000 0.000000
v -0.117295 0.089000 0.075000
v 0.096036 0.089000 0.000000
v 0.096036 0.089000 0.075000
v 0.096036 0.039000 0.000000
v 0.096036 0.039000 0.075000
vt 0.000000 0.000000 0.000000
vt 0.425568 0.000000 0.000000
vt 0.000000 0.075000 0.000000
vt 0.425568 0.075000 0.000000
vt 0.000000 0.000000 0.000000
vt 0.199169 0.000000 0.000000
vt 0.000000 0.075000 0.000000
vt 0.199169 0.075000 0.000000
vt 0.000000 0.000000 0.000000
vt 0.425568 0.000000 0.000000
vt 0.000000 0.075000 0.000000
vt 0.425568 0.075000 0.000000
vt 0.000000 0.000000 0.000000
vt 0.199169 0.000000 0.000000
vt 0.000000 0.075000 0.000000
vt 0.199169 0.075000 0.000000
vt 0.000000 0.000000 0.000000
vt 0.701966 0.000000 0.000000
vt 0.000000 0.075000 0.000000
vt 0.701966 0.075000 0.000000
vt 0.000000 0.000000 0.000000
vt 0.299169 0.000000 0.000000
vt 0.000000 0.075000 0.000000
vt 0.299169 0.075000 0.000000
vt -0.000000 0.000000 0.000000
vt 0.525568 0.000000 0.000000
vt -0.000000 0.075000 0.000000
vt 0.525568 0.075000 0.000000
vt -0.000000 0.000000 0.000000
vt 0.249169 0.000000 0.000000
vt -0.000000 0.075000 0.000000
vt 0.249169 0.075000 0.000000
vt 0.000000 0.000000 0.000000
vt 0.226398 0.000000 0.000000
vt 0.000000 0.075000 0.000000
vt 0.226398 0.075000 0.000000
vt 0.000000 0.000000 0.000000
vt 0.213330 0.000000 0.000000
vt -0.000000 0.075000 0.000000
vt 0.213330 0.075000 0.000000
vt 0.000000 0.000000 0.000000
vt 0.050000 0.000000 0.000000
vt 0.000000 0.075000 0.000000
vt 0.050000 0.075000 0.000000
vt 0.000000 0.000000 0.000000
vt 0.163330 0.000000 0.000000
vt -0.000000 0.075000 0.000000
vt 0.163330 0.075000 0.000000
vt 0.017920 0.099585 0.000000
vt 0.017920 -0.325983 0.000000
vt 0.067920 -0.375983 0.000000
vt -0.181250 -0.325983 0.000000
vt -0.231250 -0.375983 0.000000
vt -0.181250 0.099585 0.000000
vt -0.231250 0.149585 0.000000
vt 0.017920 0.149585 0.000000
vt 0.067920 0.325983 0.000000
vt 0.231250 0.325983 0.000000
vt 0.231250 0.375983 0.000000
vt 0.017920 0.375983 0.000000
vt 0.181250 0.099585 0.000000
vt 0.181250 -0.325983 0.000000
vt 0.231250 -0.375983 0.000000
vt -0.017920 -0.325983 0.000000
vt -0.067920 -0.375983 0.000000
vt -0.017920 0.099585 0.000000
vt -0.067920 0.325983 0.000000
vt -0.017920 0.149585 0.000000
vt -0.017920 0.375983 0.000000
vt 0.231250 0.149585 0.000000
vt -0.231250 0.325983 0.000000
vt -0.231250 0.375983 0.000000
vn -1.000000 0.000000 0.000000
vn -1.000000 0.000000 0.000000
vn -1.000000 0.000000 0.000000
vn -1.000000 0.000000 0.000000
vn 0.000000 -1.000000 0.000000
vn 0.000000 -1.000000 0.000000
vn 0.000000 -1.000000 0.000000
vn 0.000000 -1.000000 0.000000
vn 1.000000 0.000000 0.000000
vn 1.000000 0.000000 0.000000
vn 1.000000 0.000000 0.000000
vn 1.000000 0.000000 0.000000
vn 0.000000 1.000000 -0.000000
vn 0.000000 1.000000 -0.000000
vn 0.000000 1.000000 -0.000000
vn 0.000000 1.000000 -0.000000
vn 1.000000 -0.000000 0.000000
vn 1.000000 -0.000000 0.000000
vn 1.000000 -0.000000 0.000000
vn 1.000000 -0.000000 0.000000
vn 0.000000 -1.000000 0.000000
vn 0.000000 -1.000000 0.000000
vn 0.000000 -1.000000 0.000000
vn 0.000000 -1.000000 0.000000
vn -1.000000 0.000000 0.000000
vn -1.000000 0.000000 0.000000
vn -1.000000 0.000000 0.000000
vn -1.000000 0.000000 0.000000
vn 0.000000 1.000000 0.000000
vn 0.000000 1.000000 0.000000
vn 0.000000 1.000000 0.000000
vn 0.000000 1.000000 0.000000
vn -1.000000 0.000000 0.000000
vn -1.000000 0.000000 0.000000
vn -1.000000 0.000000 0.000000
vn -1.000000 0.000000 0.000000
vn 0.000000 1.000000 -0.000000
vn 0.000000 1.000000 -0.000000
vn 0.000000 1.000000 -0.000000
vn 0.000000 1.000000 -0.000000
vn 1.000000 0.000000 0.000000
vn 1.000000 0.000000 0.000000
vn 1.000000 0.000000 0.000000
vn 1.000000 0.000000 0.000000
vn 0.000000 -1.000000 0.000000
vn 0.000000 -1.000000 0.000000
vn 0.000000 -1.000000 0.000000
vn 0.000000 -1.000000 0.000000
vn 0.000000 0.000000 1.000000
vn 0.000000 0.000000 1.000000
vn 0.000000 0.000000 1.000000
vn 0.000000 0.000000 1.000000
vn 0.000000 0.000000 1.000000
vn 0.000000 0.000000 1.000000
vn 0.000000 0.000000 1.000000
vn 0.000000 0.000000 1.000000
vn 0.000000 0.000000 1.000000
vn 0.000000 0.000000 1.000000
vn 0.000000 0.000000 1.000000
vn 0.000000 0.000000 1.000000
vn -0.000000 0.000000 -1.000000
vn -0.000000 0.000000 -1.000000
vn -0.000000 0.000000 -1.000000
vn -0.000000 0.000000 -1.000000
vn -0.000000 0.000000 -1.000000
vn -0.000000 0.000000 -1.000000
vn -0.000000 0.000000 -1.000000
vn -0.000000 0.000000 -1.000000
vn -0.000000 0.000000 -1.000000
vn -0.000000 0.000000 -1.000000
vn -0.000000 0.000000 -1.000000
vn -0.000000 0.000000 -1.000000
usemtl Steel_-_Satin
f 1/1/1 2/2/2 4/3/3
f 4/3/3 2/2/2 3/4/4
f 5/5/5 1/6/6 6/7/7
f 6/7/7 1/6/6 4/8/8
f 7/9/9 5/10/10 8/11/11
f 8/11/11 5/10/10 6/12/12
f 2/13/13 7/14/14 3/15/15
f 3/15/15 7/14/14 8/16/16
f 9/17/17 10/18/18 12/19/19
f 12/19/19 10/18/18 11/20/20
f 13/21/21 9/22/22 14/23/23
f 14/23/23 9/22/22 12/24/24
f 15/25/25 13/26/26 16/27/27
f 16/27/27 13/26/26 14/28/28
f 17/29/29 15/30/30 18/31/31
f 18/31/31 15/30/30 16/32/32
f 19/33/33 17/34/34 20/35/35
f 20/35/35 17/34/34 18/36/36
f 21/37/37 19/38/38 22/39/39
f 22/39/39 19/38/38 20/40/40
f 23/41/41 21/42/42 24/43/43
f 24/43/43 21/42/42 22/44/44
f 10/45/45 23/46/46 11/47/47
f 11/47/47 23/46/46 24/48/48
f 4/49/49 3/50/50 12/51/51
f 12/51/51 3/50/50 8/52/52
f 12/51/51 8/52/52 14/53/53
f 14/53/53 8/52/52 6/54/54
f 14/53/53 6/54/54 16/55/55
f 16/55/55 6/54/54 18/56/56
f 18/56/56 6/54/54 4/49/49
f 18/56/56 4/49/49 11/57/57
f 11/57/57 4/49/49 12/51/51
f 24/58/58 22/59/59 11/57/57
f 11/57/57 22/59/59 20/60/60
f 11/57/57 20/60/60 18/56/56
f 5/61/61 7/62/62 13/63/63
f 13/63/63 7/62/62 2/64/64
f 13/63/63 2/64/64 9/65/65
f 9/65/65 2/64/64 1/66/66
f 9/65/65 1/66/66 10/67/67
f 10/67/67 1/66/66 17/68/68
f 10/67/67 17/68/68 19/69/69
f 1/66/66 5/61/61 17/68/68
f 17/68/68 5/61/61 15/70/70
f 15/70/70 5/61/61 13/63/63
f 23/71/71 10/67/67 21/72/72
f 21/72/72 10/67/67 19/69/69
g Body2

v 0.291067 0.351106 0.000000
v -0.053067 0.351106 0.000000
v -0.053067 0.351106 0.075000
v 0.291067 0.351106 0.075000
v 0.291067 0.301106 0.000000
v 0.291067 0.301106 0.075000
v -0.103067 0.301106 0.000000
v -0.103067 0.301106 0.075000
v -0.103067 0.614332 0.000000
v -0.103067 0.614332 0.075000
v 0.415895 0.614332 0.000000
v 0.415895 0.614332 0.075000
v 0.415895 0.457719 0.000000
v 0.415895 0.457719 0.075000
v 0.365895 0.457719 0.000000
v 0.365895 0.457719 0.075000
v 0.365895 0.564332 0.000000
v 0.365895 0.564332 0.075000
v -0.053067 0.564332 0.000000
v -0.053067 0.564332 0.075000
vt 0.000000 0.000000 0.000000
vt 0.344134 0.000000 0.000000
vt 0.000000 0.075000 0.000000
vt 0.344134 0.075000 0.000000
vt 0.000000 0.000000 0.000000
vt 0.050000 0.000000 0.000000
vt 0.000000 0.075000 0.000000
vt 0.050000 0.075000 0.000000
vt -0.000000 0.000000 0.000000
vt 0.394134 0.000000 0.000000
vt -0.000000 0.075000 0.000000
vt 0.394134 0.075000 0.000000
vt -0.000000 0.000000 0.000000
vt 0.313227 0.000000 0.000000
vt -0.000000 0.075000 0.000000
vt 0.313227 0.075000 0.000000
vt -0.000000 0.000000 0.000000
vt 0.518962 0.000000 0.000000
vt -0.000000 0.075000 0.000000
vt 0.518962 0.075000 0.000000
vt 0.000000 0.000000 0.000000
vt 0.156613 0.000000 0.000000
vt 0.000000 0.075000 0.000000
vt 0.156613 0.075000 0.000000
vt 0.000000 0.000000 0.000000
vt 0.050000 0.000000 0.000000
vt 0.000000 0.075000 0.000000
vt 0.050000 0.075000 0.000000
vt 0.000000 0.000000 0.000000
vt 0.106613 0.000000 0.000000
vt 0.000000 0.075000 0.000000
vt 0.106613 0.075000 0.000000
vt 0.000000 0.000000 0.000000
vt 0.418962 0.000000 0.000000
vt 0.000000 0.075000 0.000000
vt 0.418962 0.075000 0.000000
vt 0.000000 0.000000 0.000000
vt 0.213227 0.000000 0.000000
vt 0.000000 0.075000 0.000000
vt 0.213227 0.075000 0.000000
vt -0.209481 0.106613 0.000000
vt -0.259481 -0.156613 0.000000
vt -0.209481 -0.106613 0.000000
vt 0.134653 -0.156613 0.000000
vt 0.134653 -0.106613 0.000000
vt -0.259481 0.156613 0.000000
vt 0.209481 0.106613 0.000000
vt 0.259481 0.156613 0.000000
vt 0.259481 0.000000 0.000000
vt 0.209481 0.000000 0.000000
vt 0.209481 -0.106613 0.000000
vt 0.259481 -0.156613 0.000000
vt 0.209481 0.106613 0.000000
vt 0.259481 0.156613 0.000000
vt -0.259481 0.156613 0.000000
vt -0.134653 -0.106613 0.000000
vt -0.134653 -0.156613 0.000000
vt -0.209481 0.106613 0.000000
vt -0.259481 0.000000 0.000000
vt -0.209481 0.000000 0.000000
vn 0.000000 1.000000 -0.000000
vn 0.000000 1.000000 -0.000000
vn 0.000000 1.000000 -0.000000
vn 0.000000 1.000000 -0.000000
vn 1.000000 0.000000 -0.000000
vn 1.000000 0.000000 -0.000000
vn 1.000000 0.000000 -0.000000
vn 1.000000 0.000000 -0.000000
vn 0.000000 -1.000000 0.000000
vn 0.000000 -1.000000 0.000000
vn 0.000000 -1.000000 0.000000
vn 0.000000 -1.000000 0.000000
vn -1.000000 0.000000 0.000000
vn -1.000000 0.000000 0.000000
vn -1.000000 0.000000 0.000000
vn -1.000000 0.000000 0.000000
vn 0.000000 1.000000 0.000000
vn 0.000000 1.000000 0.000000
vn 0.000000 1.000000 0.000000
vn 0.000000 1.000000 0.000000
vn 1.000000 0.000000 -0.000000
vn 1.000000 0.000000 -0.000000
vn 1.000000 0.000000 -0.000000
vn 1.000000 0.000000 -0.000000
vn 0.000000 -1.000000 0.000000
vn 0.000000 -1.000000 0.000000
vn 0.000000 -1.000000 0.000000
vn 0.000000 -1.000000 0.000000
vn -1.000000 -0.000000 0.000000
vn -1.000000 -0.000000 0.000000
vn -1.000000 -0.000000 0.000000
vn -1.000000 -0.000000 0.000000
vn 0.000000 -1.000000 0.000000
vn 0.000000 -1.000000 0.000000
vn 0.000000 -1.000000 0.000000
vn 0.000000 -1.000000 0.000000
vn 1.000000 0.000000 0.000000
vn 1.000000 0.000000 0.000000
vn 1.000000 0.000000 0.000000
vn 1.000000 0.000000 0.000000
vn 0.000000 0.000000 1.000000
vn 0.000000 0.000000 1.000000
vn 0.000000 0.000000 1.000000
vn 0.000000 0.000000 1.000000
vn 0.000000 0.000000 1.000000
vn 0.000000 0.000000 1.000000
vn 0.000000 0.000000 1.000000
vn 0.000000 0.000000 1.000000
vn 0.000000 0.000000 1.000000
vn 0.000000 0.000000 1.000000
vn -0.000000 0.000000 -1.000000
vn -0.000000 0.000000 -1.000000
vn -0.000000 0.000000 -1.000000
vn -0.000000 0.000000 -1.000000
vn -0.000000 0.000000 -1.000000
vn -0.000000 0.000000 -1.000000
vn -0.000000 0.000000 -1.000000
vn -0.000000 0.000000 -1.000000
vn -0.000000 0.000000 -1.000000
vn -0.000000 0.000000 -1.000000
f 25/73/73 26/74/74 28/75/75
f 28/75/75 26/74/74 27/76/76
f 29/77/77 25/78/78 30/79/79
f 30/79/79 25/78/78 28/80/80
f 31/81/81 29/82/82 32/83/83
f 32/83/83 29/82/82 30/84/84
f 33/85/85 31/86/86 34/87/87
f 34/87/87 31/86/86 32/88/88
f 35/89/89 33/90/90 36/91/91
f 36/91/91 33/90/90 34/92/92
f 37/93/93 35/94/94 38/95/95
f 38/95/95 35/94/94 36/96/96
f 39/97/97 37/98/98 40/99/99
f 40/99/99 37/98/98 38/100/100
f 41/101/101 39/102/102 42/103/103
f 42/103/103 39/102/102 40/104/104
f 43/105/105 41/106/106 44/107/107
f 44/107/107 41/106/106 42/108/108
f 26/109/109 43/110/110 27/111/111
f 27/111/111 43/110/110 44/112/112
f 44/113/113 32/114/114 27/115/115
f 27/115/115 32/114/114 30/116/116
f 27/115/115 30/116/116 28/117/117
f 32/114/114 44/113/113 34/118/118
f 34/118/118 44/113/113 42/119/119
f 34/118/118 42/119/119 36/120/120
f 36/120/120 42/119/119 38/121/121
f 38/121/121 42/119/119 40/122/122
f 26/123/123 31/124/124 43/125/125
f 43/125/125 31/124/124 33/126/126
f 43/125/125 33/126/126 35/127/127
f 25/128/128 29/129/129 26/123/123
f 26/123/123 29/129/129 31/124/124
f 43/125/125 35/127/127 41/130/130
f 41/130/130 35/127/127 37/131/131
f 41/130/130 37/131/131 39/132/132
g Body3

v 0.674419 0.694116 0.000000
v 0.624419 0.694116 0.000000
v 0.624419 0.694116 0.075000
v 0.674419 0.694116 0.075000
v 1.201711 -1.182177 0.000000
v -1.073369 -1.182177 0.000000
v -1.073369 1.096874 0.000000
v 1.201711 1.096874 0.000000
v 0.175402 -0.738798 0.000000
v 0.175402 -1.132177 0.000000
v 0.469574 -1.132177 0.000000
v 0.469574 -0.738798 0.000000
v 0.863746 -1.132177 0.000000
v 0.863746 -0.738798 0.000000
v 0.569574 -0.738798 0.000000
v 0.569574 -1.132177 0.000000
v 0.202732 0.856422 0.000000
v 0.624957 0.856422 0.000000
v 0.624957 0.996874 0.000000
v 0.624419 0.996874 0.000000
v 0.624419 1.046874 0.000000
v 0.202732 1.046874 0.000000
v -0.604415 -0.996047 0.000000
v -1.023369 -0.996047 0.000000
v -1.023369 -1.132177 0.000000
v -0.604415 -1.132177 0.000000
v 0.674419 0.806422 0.000000
v 0.152732 0.806422 0.000000
v 0.152732 1.046874 0.000000
v -1.023369 1.046874 0.000000
v -1.023369 0.830032 0.000000
v -0.328470 0.830032 0.000000
v -0.328470 0.583273 0.000000
v -0.378470 0.583273 0.000000
v -0.378470 0.780032 0.000000
v -1.023369 0.780032 0.000000
v -1.023369 0.345878 0.000000
v -0.804601 0.345878 0.000000
v -0.804601 0.242819 0.000000
v -0.379385 0.242819 0.000000
v -0.379385 0.382149 0.000000
v -0.329385 0.382149 0.000000
v -0.329385 0.057695 0.000000
v -0.581307 0.057695 0.000000
v -0.581307 -0.300359 0.000000
v -0.631307 -0.300359 0.000000
v -0.631307 0.107695 0.000000
v -0.379385 0.107695 0.000000
v -0.379385 0.192819 0.000000
v -0.804601 0.192819 0.000000
v -0.804601 -0.676698 0.000000
v -0.631307 -0.676698 0.000000
v -0.631307 -0.624994 0.000000
v -0.581307 -0.624994 0.000000
v -0.581307 -0.726698 0.000000
v -0.854601 -0.726698 0.000000
v -0.854601 0.295878 0.000000
v -1.023369 0.295878 0.000000
v -1.023369 -0.946047 0.000000
v -0.430588 -0.946047 0.000000
v -0.430588 -0.996047 0.000000
v -0.504415 -0.996047 0.000000
v -0.504415 -1.132177 0.000000
v -0.115460 -1.132177 0.000000
v -0.115460 -0.996047 0.000000
v -0.173339 -0.996047 0.000000
v -0.173339 -0.946047 0.000000
v -0.065460 -0.946047 0.000000
v -0.065460 -1.132177 0.000000
v 0.125402 -1.132177 0.000000
v 0.125402 -0.688798 0.000000
v 0.913746 -0.688798 0.000000
v 0.913746 -1.132177 0.000000
v 1.151711 -1.132177 0.000000
v 1.151711 -0.428950 0.000000
v 0.981929 -0.428950 0.000000
v 0.981929 -0.378950 0.000000
v 1.151711 -0.378950 0.000000
v 1.151711 0.073224 0.000000
v 0.552216 0.073224 0.000000
v 0.552216 -0.378950 0.000000
v 0.776964 -0.378950 0.000000
v 0.776964 -0.428950 0.000000
v 0.184552 -0.428950 0.000000
v 0.184552 -0.378950 0.000000
v 0.452216 -0.378950 0.000000
v 0.452216 0.073224 0.000000
v 0.375473 0.073224 0.000000
v 0.375473 0.123224 0.000000
v 1.151711 0.123224 0.000000
v 1.151711 0.271094 0.000000
v 0.624419 0.271094 0.000000
v 0.674419 0.321094 0.000000
v 1.151711 0.321094 0.000000
v 1.151711 1.046874 0.000000
v 0.674957 1.046874 0.000000
v 0.674419 0.996874 0.000000
v 0.674419 0.321094 0.075000
v 0.624419 0.271094 0.075000
v 0.175402 -1.132177 0.075000
v 0.469574 -1.132177 0.075000
v 0.469574 -0.738798 0.075000
v 0.175402 -0.738798 0.075000
v 0.863746 -0.738798 0.075000
v 0.569574 -0.738798 0.075000
v 0.569574 -1.132177 0.075000
v 0.863746 -1.132177 0.075000
v 0.624957 0.856422 0.075000
v 0.624957 0.996874 0.075000
v 0.624419 0.996874 0.075000
v 0.624419 1.046874 0.075000
v 0.202732 1.046874 0.075000
v 0.202732 0.856422 0.075000
v 1.151711 -0.378950 0.075000
v 1.151711 0.073224 0.075000
v 0.552216 0.073224 0.075000
v 0.552216 -0.378950 0.075000
v 0.776964 -0.378950 0.075000
v 0.776964 -0.428950 0.075000
v 0.184552 -0.428950 0.075000
v 0.184552 -0.378950 0.075000
v 0.452216 -0.378950 0.075000
v 0.452216 0.073224 0.075000
v 0.375473 0.073224 0.075000
v 0.375473 0.123224 0.075000
v 1.151711 0.123224 0.075000
v 1.151711 0.271094 0.075000
v 1.151711 0.321094 0.075000
v 1.151711 1.046874 0.075000
v 0.674957 1.046874 0.075000
v 0.674419 0.996874 0.075000
v 0.674419 0.806422 0.075000
v 0.152732 0.806422 0.075000
v 0.152732 1.046874 0.075000
v -1.023369 1.046874 0.075000
v -1.023369 0.830032 0.075000
v -0.328470 0.830032 0.075000
v -0.328470 0.583273 0.075000
v -0.378470 0.583273 0.075000
v -0.378470 0.780032 0.075000
v -1.023369 0.780032 0.075000
v -1.023369 0.345878 0.075000
v -0.804601 0.345878 0.075000
v -0.804601 0.242819 0.075000
v -0.379385 0.242819 0.075000
v -0.379385 0.382149 0.075000
v -0.329385 0.382149 0.075000
v -0.329385 0.057695 0.075000
v -0.581307 0.057695 0.075000
v -0.581307 -0.300359 0.075000
v -0.631307 -0.300359 0.075000
v -0.631307 0.107695 0.075000
v -0.379385 0.107695 0.075000
v -0.379385 0.192819 0.075000
v -0.804601 0.192819 0.075000
v -0.804601 -0.676698 0.075000
v -0.631307 -0.676698 0.075000
v -0.631307 -0.624994 0.075000
v -0.581307 -0.624994 0.075000
v -0.581307 -0.726698 0.075000
v -0.854601 -0.726698 0.075000
v -0.854601 0.295878 0.075000
v -1.023369 0.295878 0.075000
v -1.023369 -0.946047 0.075000
v -0.430588 -0.946047 0.075000
v -0.430588 -0.996047 0.075000
v -0.504415 -0.996047 0.075000
v -0.504415 -1.132177 0.075000
v -0.115460 -1.132177 0.075000
v -0.115460 -0.996047 0.075000
v -0.173339 -0.996047 0.075000
v -0.173339 -0.946047 0.075000
v -0.065460 -0.946047 0.075000
v -0.065460 -1.132177 0.075000
v 0.125402 -1.132177 0.075000
v 0.125402 -0.688798 0.075000
v 0.913746 -0.688798 0.075000
v 0.913746 -1.132177 0.075000
v 1.151711 -1.132177 0.075000
v 1.151711 -0.428950 0.075000
v 0.981929 -0.428950 0.075000
v 0.981929 -0.378950 0.075000
v -1.023369 -0.996047 0.075000
v -1.023369 -1.132177 0.075000
v -0.604415 -1.132177 0.075000
v -0.604415 -0.996047 0.075000
v -1.073369 -1.182177 0.075000
v -1.073369 1.096874 0.075000
v 1.201711 1.096874 0.075000
v 1.201711 -1.182177 0.075000
vt -0.050000 0.000000 0.000000
vt -0.000000 0.000000 0.000000
vt -0.050000 0.075000 0.000000
vt -0.000000 0.075000 0.000000
vt 1.137540 -1.139525 0.000000
vt -0.061231 -1.089525 0.000000
vt -1.137540 -1.139525 0.000000
vt -0.111231 -1.089525 0.000000
vt -0.405403 -1.089525 0.000000
vt 1.137540 1.139525 0.000000
vt 1.087540 0.338530 0.000000
vt 1.087540 -0.903395 0.000000
vt 1.087540 -0.953395 0.000000
vt 0.668586 -0.953395 0.000000
vt 0.494759 -0.903395 0.000000
vt 0.568586 -0.953395 0.000000
vt 0.494759 -0.953395 0.000000
vt -1.137540 1.139525 0.000000
vt -0.088561 1.089525 0.000000
vt 1.087540 1.089525 0.000000
vt 1.087540 0.872684 0.000000
vt -1.087540 0.115875 0.000000
vt -1.087540 0.165875 0.000000
vt -1.087540 0.313746 0.000000
vt -0.111231 -0.696146 0.000000
vt -0.061231 -0.646146 0.000000
vt -0.405403 -0.696146 0.000000
vt -0.849575 -0.646146 0.000000
vt -0.505403 -0.696146 0.000000
vt -0.799575 -0.696146 0.000000
vt -0.849575 -1.089525 0.000000
vt -0.799575 -1.089525 0.000000
vt -0.505403 -1.089525 0.000000
vt -0.560786 0.899074 0.000000
vt -0.610248 0.849074 0.000000
vt -0.138561 0.899074 0.000000
vt -0.088561 0.849074 0.000000
vt -0.610248 1.039525 0.000000
vt -0.560786 1.039525 0.000000
vt -0.610786 1.089525 0.000000
vt -0.560248 1.089525 0.000000
vt -0.138561 1.089525 0.000000
vt -0.560248 1.039525 0.000000
vt 1.087540 -1.089525 0.000000
vt 0.668586 -1.089525 0.000000
vt 0.568586 -1.089525 0.000000
vt 0.392641 0.872684 0.000000
vt 0.442641 0.822684 0.000000
vt 1.087540 0.822684 0.000000
vt 1.087540 0.388530 0.000000
vt 0.918772 0.338530 0.000000
vt 0.868772 0.388530 0.000000
vt 0.868772 0.285471 0.000000
vt 0.392641 0.625925 0.000000
vt 0.442641 0.625925 0.000000
vt 0.868772 0.235471 0.000000
vt 0.443556 0.285471 0.000000
vt 0.443556 0.235471 0.000000
vt 0.393556 0.100346 0.000000
vt 0.443556 0.150346 0.000000
vt 0.645478 0.100346 0.000000
vt 0.695478 0.150346 0.000000
vt 0.695478 -0.257707 0.000000
vt 0.645478 -0.257707 0.000000
vt 0.443556 0.424801 0.000000
vt 0.393556 0.424801 0.000000
vt 0.918772 -0.684046 0.000000
vt 0.868772 -0.634046 0.000000
vt 0.695478 -0.634046 0.000000
vt 0.695478 -0.582343 0.000000
vt 0.645478 -0.582343 0.000000
vt 0.645478 -0.684046 0.000000
vt 0.179631 -1.089525 0.000000
vt 0.129631 -1.089525 0.000000
vt 0.179631 -0.953395 0.000000
vt 0.129631 -0.903395 0.000000
vt 0.237510 -0.903395 0.000000
vt 0.237510 -0.953395 0.000000
vt -1.087540 -1.089525 0.000000
vt -1.087540 -0.386299 0.000000
vt -1.087540 -0.336299 0.000000
vt -0.917758 -0.386299 0.000000
vt -0.917758 -0.336299 0.000000
vt -0.488045 0.115875 0.000000
vt -0.311302 0.165875 0.000000
vt -0.388045 0.115875 0.000000
vt -0.311302 0.115875 0.000000
vt -0.388045 -0.336299 0.000000
vt -0.488045 -0.336299 0.000000
vt -0.712793 -0.386299 0.000000
vt -0.712793 -0.336299 0.000000
vt -0.120381 -0.386299 0.000000
vt -0.120381 -0.336299 0.000000
vt -0.560248 0.313746 0.000000
vt -0.610248 0.363746 0.000000
vt -1.087540 0.363746 0.000000
vt -1.087540 1.089525 0.000000
vt -0.560248 0.736767 0.000000
vt -0.610248 0.736767 0.000000
vt -0.116050 0.075000 0.000000
vt -0.489072 0.075000 0.000000
vt -0.116050 0.000000 0.000000
vt -0.489072 0.000000 0.000000
vt 0.112307 0.000000 0.000000
vt 0.535328 0.000000 0.000000
vt 0.112307 0.075000 0.000000
vt 0.535328 0.075000 0.000000
vt 0.000000 0.000000 0.000000
vt 0.294172 0.000000 0.000000
vt 0.000000 0.075000 0.000000
vt 0.294172 0.075000 0.000000
vt 0.000000 0.000000 0.000000
vt 0.393379 0.000000 0.000000
vt 0.000000 0.075000 0.000000
vt 0.393379 0.075000 0.000000
vt 0.000000 0.000000 0.000000
vt 0.294172 0.000000 0.000000
vt -0.000000 0.075000 0.000000
vt 0.294172 0.075000 0.000000
vt 0.000000 0.000000 0.000000
vt 0.393379 0.000000 0.000000
vt 0.000000 0.075000 0.000000
vt 0.393379 0.075000 0.000000
vt 0.000000 0.000000 0.000000
vt 0.294172 0.000000 0.000000
vt 0.000000 0.075000 0.000000
vt 0.294172 0.075000 0.000000
vt 0.000000 0.000000 0.000000
vt 0.393379 0.000000 0.000000
vt 0.000000 0.075000 0.000000
vt 0.393379 0.075000 0.000000
vt 0.000000 0.000000 0.000000
vt 0.294172 0.000000 0.000000
vt 0.000000 0.075000 0.000000
vt 0.294172 0.075000 0.000000
vt 0.000000 0.000000 0.000000
vt 0.393379 0.000000 0.000000
vt 0.000000 0.075000 0.000000
vt 0.393379 0.075000 0.000000
vt -0.000000 0.000000 0.000000
vt 0.140451 0.000000 0.000000
vt -0.000000 0.075000 0.000000
vt 0.140451 0.075000 0.000000
vt 0.000000 0.000000 0.000000
vt 0.000538 0.000000 0.000000
vt 0.000000 0.075000 0.000000
vt 0.000538 0.075000 0.000000
vt 0.000000 0.000000 0.000000
vt 0.050000 0.000000 0.000000
vt 0.000000 0.075000 0.000000
vt 0.050000 0.075000 0.000000
vt 0.000000 0.000000 0.000000
vt 0.421688 0.000000 0.000000
vt 0.000000 0.075000 0.000000
vt 0.421688 0.075000 0.000000
vt 0.000000 0.000000 0.000000
vt 0.190451 0.000000 0.000000
vt 0.000000 0.075000 0.000000
vt 0.190451 0.075000 0.000000
vt -0.000000 0.000000 0.000000
vt 0.422226 0.000000 0.000000
vt -0.000000 0.075000 0.000000
vt 0.422226 0.075000 0.000000
vt -0.000000 0.000000 0.000000
vt 0.452174 0.000000 0.000000
vt -0.000000 0.075000 0.000000
vt 0.452174 0.075000 0.000000
vt -0.000000 0.000000 0.000000
vt 0.599495 0.000000 0.000000
vt 0.000000 0.075000 0.000000
vt 0.599495 0.075000 0.000000
vt 0.000000 0.000000 0.000000
vt 0.452174 0.000000 0.000000
vt 0.000000 0.075000 0.000000
vt 0.452174 0.075000 0.000000
vt 0.000000 0.000000 0.000000
vt 0.224748 0.000000 0.000000
vt 0.000000 0.075000 0.000000
vt 0.224748 0.075000 0.000000
vt 0.000000 0.000000 0.000000
vt 0.050000 0.000000 0.000000
vt 0.000000 0.075000 0.000000
vt 0.050000 0.075000 0.000000
vt 0.000000 0.000000 0.000000
vt 0.592412 0.000000 0.000000
vt -0.000000 0.075000 0.000000
vt 0.592412 0.075000 0.000000
vt -0.000000 0.000000 0.000000
vt 0.050000 0.000000 0.000000
vt -0.000000 0.075000 0.000000
vt 0.050000 0.075000 0.000000
vt 0.000000 0.000000 0.000000
vt 0.267664 0.000000 0.000000
vt -0.000000 0.075000 0.000000
vt 0.267664 0.075000 0.000000
vt -0.000000 0.000000 0.000000
vt 0.452174 0.000000 0.000000
vt 0.000000 0.075000 0.000000
vt 0.452174 0.075000 0.000000
vt 0.000000 0.000000 0.000000
vt 0.076743 0.000000 0.000000
vt -0.000000 0.075000 0.000000
vt 0.076743 0.075000 0.000000
vt 0.000000 0.000000 0.000000
vt 0.050000 0.000000 0.000000
vt 0.000000 0.075000 0.000000
vt 0.050000 0.075000 0.000000
vt 0.000000 0.000000 0.000000
vt 0.776238 0.000000 0.000000
vt -0.000000 0.075000 0.000000
vt 0.776238 0.075000 0.000000
vt 0.000000 0.000000 0.000000
vt 0.147870 0.000000 0.000000
vt 0.000000 0.075000 0.000000
vt 0.147870 0.075000 0.000000
vt 0.000000 0.000000 0.000000
vt 0.527292 0.000000 0.000000
vt 0.000000 0.075000 0.000000
vt 0.527292 0.075000 0.000000
vt -0.000000 0.000000 0.000000
vt 0.477292 0.000000 0.000000
vt 0.000000 0.075000 0.000000
vt 0.477292 0.075000 0.000000
vt -0.000000 0.000000 0.000000
vt 0.725780 0.000000 0.000000
vt -0.000000 0.075000 0.000000
vt 0.725780 0.075000 0.000000
vt 0.000000 0.000000 0.000000
vt 0.476754 0.000000 0.000000
vt 0.000000 0.075000 0.000000
vt 0.476754 0.075000 0.000000
vt 0.000000 0.000000 0.000000
vt 0.050003 0.000000 0.000000
vt 0.000000 0.075000 0.000000
vt 0.050003 0.075000 0.000000
vt -0.003744 0.000000 0.000000
vt 0.186708 0.000000 0.000000
vt -0.003744 0.075000 0.000000
vt 0.186708 0.075000 0.000000
vt 0.000000 0.000000 0.000000
vt 0.521688 0.000000 0.000000
vt 0.000000 0.075000 0.000000
vt 0.521688 0.075000 0.000000
vt 0.000000 0.000000 0.000000
vt 0.240451 0.000000 0.000000
vt 0.000000 0.075000 0.000000
vt 0.240451 0.075000 0.000000
vt 0.000000 0.000000 0.000000
vt 1.176101 0.000000 0.000000
vt 0.000000 0.075000 0.000000
vt 1.176101 0.075000 0.000000
vt 0.000000 0.000000 0.000000
vt 0.216842 0.000000 0.000000
vt 0.000000 0.075000 0.000000
vt 0.216842 0.075000 0.000000
vt 0.000000 0.000000 0.000000
vt 0.694899 0.000000 0.000000
vt 0.000000 0.075000 0.000000
vt 0.694899 0.075000 0.000000
vt 0.000000 0.000000 0.000000
vt 0.246759 0.000000 0.000000
vt 0.000000 0.075000 0.000000
vt 0.246759 0.075000 0.000000
vt 0.000000 0.000000 0.000000
vt 0.050000 0.000000 0.000000
vt 0.000000 0.075000 0.000000
vt 0.050000 0.075000 0.000000
vt 0.000000 0.000000 0.000000
vt 0.196759 0.000000 0.000000
vt 0.000000 0.075000 0.000000
vt 0.196759 0.075000 0.000000
vt 0.000000 0.000000 0.000000
vt 0.644899 0.000000 0.000000
vt 0.000000 0.075000 0.000000
vt 0.644899 0.075000 0.000000
vt -0.000000 0.000000 0.000000
vt 0.434154 0.000000 0.000000
vt 0.000000 0.075000 0.000000
vt 0.434154 0.075000 0.000000
vt 0.000000 0.000000 0.000000
vt 0.218768 0.000000 0.000000
vt 0.000000 0.075000 0.000000
vt 0.218768 0.075000 0.000000
vt 0.000000 0.000000 0.000000
vt 0.103059 0.000000 0.000000
vt -0.000000 0.075000 0.000000
vt 0.103059 0.075000 0.000000
vt -0.000000 0.000000 0.000000
vt 0.425216 0.000000 0.000000
vt 0.000000 0.075000 0.000000
vt 0.425216 0.075000 0.000000
vt 0.000000 0.000000 0.000000
vt 0.139330 0.000000 0.000000
vt 0.000000 0.075000 0.000000
vt 0.139330 0.075000 0.000000
vt 0.000000 0.000000 0.000000
vt 0.050000 0.000000 0.000000
vt 0.000000 0.075000 0.000000
vt 0.050000 0.075000 0.000000
vt 0.000000 0.000000 0.000000
vt 0.324454 0.000000 0.000000
vt 0.000000 0.075000 0.000000
vt 0.324454 0.075000 0.000000
vt 0.000000 0.000000 0.000000
vt 0.251922 0.000000 0.000000
vt 0.000000 0.075000 0.000000
vt 0.251922 0.075000 0.000000
vt 0.000000 0.000000 0.000000
vt 0.358053 0.000000 0.000000
vt 0.000000 0.075000 0.000000
vt 0.358053 0.075000 0.000000
vt 0.000000 0.000000 0.000000
vt 0.050000 0.000000 0.000000
vt 0.000000 0.075000 0.000000
vt 0.050000 0.075000 0.000000
vt 0.000000 0.000000 0.000000
vt 0.408053 0.000000 0.000000
vt -0.000000 0.075000 0.000000
vt 0.408053 0.075000 0.000000
vt 0.000000 0.000000 0.000000
vt 0.251922 0.000000 0.000000
vt 0.000000 0.075000 0.000000
vt 0.251922 0.075000 0.000000
vt 0.000000 0.000000 0.000000
vt 0.085124 0.000000 0.000000
vt -0.000000 0.075000 0.000000
vt 0.085124 0.075000 0.000000
vt -0.050000 0.000000 0.000000
vt 0.375216 0.000000 0.000000
vt -0.050000 0.075000 0.000000
vt 0.375216 0.075000 0.000000
vt -0.000000 0.000000 0.000000
vt 0.869517 0.000000 0.000000
vt -0.000000 0.075000 0.000000
vt 0.869517 0.075000 0.000000
vt 0.000000 0.000000 0.000000
vt 0.173294 0.000000 0.000000
vt 0.000000 0.075000 0.000000
vt 0.173294 0.075000 0.000000
vt 0.000000 0.000000 0.000000
vt 0.051704 0.000000 0.000000
vt 0.000000 0.075000 0.000000
vt 0.051704 0.075000 0.000000
vt -0.000000 0.000000 0.000000
vt 0.050000 0.000000 0.000000
vt -0.000000 0.075000 0.000000
vt 0.050000 0.075000 0.000000
vt 0.000000 0.000000 0.000000
vt 0.101704 0.000000 0.000000
vt 0.000000 0.075000 0.000000
vt 0.101704 0.075000 0.000000
vt 0.000000 0.000000 0.000000
vt 0.273294 0.000000 0.000000
vt 0.000000 0.075000 0.000000
vt 0.273294 0.075000 0.000000
vt 0.000000 0.000000 0.000000
vt 1.022576 0.000000 0.000000
vt 0.000000 0.075000 0.000000
vt 1.022576 0.075000 0.000000
vt 0.000000 0.000000 0.000000
vt 0.168768 0.000000 0.000000
vt -0.000000 0.075000 0.000000
vt 0.168768 0.075000 0.000000
vt -0.000000 0.000000 0.000000
vt 1.241925 0.000000 0.000000
vt -0.000000 0.075000 0.000000
vt 1.241925 0.075000 0.000000
vt -0.000000 0.000000 0.000000
vt 0.592781 0.000000 0.000000
vt -0.000000 0.075000 0.000000
vt 0.592781 0.075000 0.000000
vt 0.000000 0.000000 0.000000
vt 0.050000 0.000000 0.000000
vt 0.000000 0.075000 0.000000
vt 0.050000 0.075000 0.000000
vt 0.000000 0.000000 0.000000
vt 0.073827 0.000000 0.000000
vt 0.000000 0.075000 0.000000
vt 0.073827 0.075000 0.000000
vt 0.000000 0.000000 0.000000
vt 0.136130 0.000000 0.000000
vt 0.000000 0.075000 0.000000
vt 0.136130 0.075000 0.000000
vt 0.000000 0.000000 0.000000
vt 0.388955 0.000000 0.000000
vt 0.000000 0.075000 0.000000
vt 0.388955 0.075000 0.000000
vt 0.000000 0.000000 0.000000
vt 0.136130 0.000000 0.000000
vt 0.000000 0.075000 0.000000
vt 0.136130 0.075000 0.000000
vt 0.000000 0.000000 0.000000
vt 0.057879 0.000000 0.000000
vt 0.000000 0.075000 0.000000
vt 0.057879 0.075000 0.000000
vt 0.000000 0.000000 0.000000
vt 0.050000 0.000000 0.000000
vt 0.000000 0.075000 0.000000
vt 0.050000 0.075000 0.000000
vt -0.000000 0.000000 0.000000
vt 0.107879 0.000000 0.000000
vt -0.000000 0.075000 0.000000
vt 0.107879 0.075000 0.000000
vt 0.000000 0.000000 0.000000
vt 0.186130 0.000000 0.000000
vt 0.000000 0.075000 0.000000
vt 0.186130 0.075000 0.000000
vt -0.000000 0.000000 0.000000
vt 0.190862 0.000000 0.000000
vt -0.000000 0.075000 0.000000
vt 0.190862 0.075000 0.000000
vt -0.000000 0.000000 0.000000
vt 0.443379 0.000000 0.000000
vt -0.000000 0.075000 0.000000
vt 0.443379 0.075000 0.000000
vt -0.000000 0.000000 0.000000
vt 0.788344 0.000000 0.000000
vt -0.000000 0.075000 0.000000
vt 0.788344 0.075000 0.000000
vt 0.000000 0.000000 0.000000
vt 0.443379 0.000000 0.000000
vt 0.000000 0.075000 0.000000
vt 0.443379 0.075000 0.000000
vt 0.000000 0.000000 0.000000
vt 0.237965 0.000000 0.000000
vt -0.000000 0.075000 0.000000
vt 0.237965 0.075000 0.000000
vt 0.000000 0.000000 0.000000
vt 0.703227 0.000000 0.000000
vt -0.000000 0.075000 0.000000
vt 0.703227 0.075000 0.000000
vt 0.000000 0.000000 0.000000
vt 0.169783 0.000000 0.000000
vt 0.000000 0.075000 0.000000
vt 0.169783 0.075000 0.000000
vt 0.000000 0.000000 0.000000
vt 0.050000 0.000000 0.000000
vt 0.000000 0.075000 0.000000
vt 0.050000 0.075000 0.000000
vt 0.000000 0.000000 0.000000
vt 0.169783 0.000000 0.000000
vt -0.000000 0.075000 0.000000
vt 0.169783 0.075000 0.000000
vt 0.000000 0.000000 0.000000
vt 0.136130 0.000000 0.000000
vt 0.000000 0.075000 0.000000
vt 0.136130 0.075000 0.000000
vt 0.000000 0.000000 0.000000
vt 0.418955 0.000000 0.000000
vt 0.000000 0.075000 0.000000
vt 0.418955 0.075000 0.000000
vt 0.000000 0.000000 0.000000
vt 0.136130 0.000000 0.000000
vt 0.000000 0.075000 0.000000
vt 0.136130 0.075000 0.000000
vt 0.000000 0.000000 0.000000
vt 0.418955 0.000000 0.000000
vt 0.000000 0.075000 0.000000
vt 0.418955 0.075000 0.000000
vt -0.000000 0.000000 0.000000
vt 2.279051 0.000000 0.000000
vt 0.000000 0.075000 0.000000
vt 2.279051 0.075000 0.000000
vt -0.000000 0.000000 0.000000
vt 2.275080 0.000000 0.000000
vt -0.000000 0.075000 0.000000
vt 2.275080 0.075000 0.000000
vt -0.000000 0.000000 0.000000
vt 2.279051 0.000000 0.000000
vt -0.000000 0.075000 0.000000
vt 2.279051 0.075000 0.000000
vt -0.000000 0.000000 0.000000
vt 2.275080 0.000000 0.000000
vt -0.000000 0.075000 0.000000
vt 2.275080 0.075000 0.000000
vt 0.088561 1.089525 0.000000
vt 0.088561 0.849074 0.000000
vt 0.138561 0.899074 0.000000
vt 0.610248 0.849074 0.000000
vt 0.560786 0.899074 0.000000
vt 0.610248 1.039525 0.000000
vt 0.560786 1.039525 0.000000
vt 0.560248 1.089525 0.000000
vt 0.560248 1.039525 0.000000
vt 0.610786 1.089525 0.000000
vt 1.137540 1.139525 0.000000
vt 0.138561 1.089525 0.000000
vt 1.087540 1.089525 0.000000
vt 1.087540 0.363746 0.000000
vt 1.087540 0.313746 0.000000
vt 0.610248 0.363746 0.000000
vt 0.560248 0.313746 0.000000
vt 0.560248 0.736767 0.000000
vt 0.610248 0.736767 0.000000
vt 1.087540 0.165875 0.000000
vt 1.087540 0.115875 0.000000
vt 1.137540 -1.139525 0.000000
vt 1.087540 -0.336299 0.000000
vt 1.087540 -0.386299 0.000000
vt 0.917758 -0.336299 0.000000
vt 0.917758 -0.386299 0.000000
vt 0.488045 0.115875 0.000000
vt 0.311302 0.165875 0.000000
vt 0.388045 0.115875 0.000000
vt 0.311302 0.115875 0.000000
vt 0.488045 -0.336299 0.000000
vt 0.388045 -0.336299 0.000000
vt 0.712793 -0.386299 0.000000
vt 0.120381 -0.386299 0.000000
vt 0.120381 -0.336299 0.000000
vt 0.712793 -0.336299 0.000000
vt 1.087540 -1.089525 0.000000
vt 0.849575 -1.089525 0.000000
vt 0.799575 -1.089525 0.000000
vt 0.799575 -0.696146 0.000000
vt 0.849575 -0.646146 0.000000
vt 0.505403 -0.696146 0.000000
vt 0.061231 -0.646146 0.000000
vt 0.405403 -0.696146 0.000000
vt 0.111231 -0.696146 0.000000
vt 0.061231 -1.089525 0.000000
vt 0.111231 -1.089525 0.000000
vt 0.405403 -1.089525 0.000000
vt 0.505403 -1.089525 0.000000
vt -1.137540 -1.139525 0.000000
vt -0.129631 -1.089525 0.000000
vt -0.179631 -1.089525 0.000000
vt -0.179631 -0.953395 0.000000
vt -0.129631 -0.903395 0.000000
vt -0.237510 -0.903395 0.000000
vt -0.237510 -0.953395 0.000000
vt -0.568586 -1.089525 0.000000
vt -0.668586 -1.089525 0.000000
vt -1.087540 -1.089525 0.000000
vt -0.668586 -0.953395 0.000000
vt -0.568586 -0.953395 0.000000
vt -0.494759 -0.903395 0.000000
vt -0.494759 -0.953395 0.000000
vt -1.087540 -0.903395 0.000000
vt -1.087540 -0.953395 0.000000
vt -1.087540 0.338530 0.000000
vt -1.137540 1.139525 0.000000
vt -1.087540 0.388530 0.000000
vt -1.087540 0.822684 0.000000
vt -0.918772 0.338530 0.000000
vt -0.868772 0.388530 0.000000
vt -0.868772 0.285471 0.000000
vt -0.868772 0.235471 0.000000
vt -0.443556 0.235471 0.000000
vt -0.918772 -0.684046 0.000000
vt -0.868772 -0.634046 0.000000
vt -0.645478 -0.684046 0.000000
vt -0.695478 -0.634046 0.000000
vt -0.645478 -0.582343 0.000000
vt -0.695478 -0.582343 0.000000
vt -0.443556 0.150346 0.000000
vt -0.393556 0.100346 0.000000
vt -0.443556 0.285471 0.000000
vt -0.645478 0.100346 0.000000
vt -0.695478 0.150346 0.000000
vt -0.695478 -0.257707 0.000000
vt -0.645478 -0.257707 0.000000
vt -0.393556 0.424801 0.000000
vt -0.443556 0.424801 0.000000
vt -1.087540 0.872684 0.000000
vt -0.442641 0.822684 0.000000
vt -0.392641 0.872684 0.000000
vt -0.392641 0.625925 0.000000
vt -0.442641 0.625925 0.000000
vt -1.087540 1.089525 0.000000
vn -0.000000 1.000000 -0.000000
vn -0.000000 1.000000 -0.000000
vn -0.000000 1.000000 -0.000000
vn -0.000000 1.000000 -0.000000
vn -0.000000 0.000000 -1.000000
vn -0.000000 0.000000 -1.000000
vn -0.000000 0.000000 -1.000000
vn -0.000000 0.000000 -1.000000
vn -0.000000 0.000000 -1.000000
vn -0.000000 0.000000 -1.000000
vn -0.000000 0.000000 -1.000000
vn -0.000000 0.000000 -1.000000
vn -0.000000 0.000000 -1.000000
vn -0.000000 0.000000 -1.000000
vn -0.000000 0.000000 -1.000000
vn -0.000000 0.000000 -1.000000
vn -0.000000 0.000000 -1.000000
vn -0.000000 0.000000 -1.000000
vn -0.000000 0.000000 -1.000000
vn -0.000000 0.000000 -1.000000
vn -0.000000 0.000000 -1.000000
vn -0.000000 0.000000 -1.000000
vn -0.000000 0.000000 -1.000000
vn -0.000000 0.000000 -1.000000
vn -0.000000 0.000000 -1.000000
vn -0.000000 0.000000 -1.000000
vn -0.000000 0.000000 -1.000000
vn -0.000000 0.000000 -1.000000
vn -0.000000 0.000000 -1.000000
vn -0.000000 0.000000 -1.000000
vn -0.000000 0.000000 -1.000000
vn -0.000000 0.000000 -1.000000
vn -0.000000 0.000000 -1.000000
vn -0.000000 0.000000 -1.000000
vn -0.000000 0.000000 -1.000000
vn -0.000000 0.000000 -1.000000
vn -0.000000 0.000000 -1.000000
vn -0.000000 0.000000 -1.000000
vn -0.000000 0.000000 -1.000000
vn -0.000000 0.000000 -1.000000
vn -0.000000 0.000000 -1.000000
vn -0.000000 0.000000 -1.000000
vn -0.000000 0.000000 -1.000000
vn -0.000000 0.000000 -1.000000
vn -0.000000 0.000000 -1.000000
vn -0.000000 0.000000 -1.000000
vn -0.000000 0.000000 -1.000000
vn -0.000000 0.000000 -1.000000
vn -0.000000 0.000000 -1.000000
vn -0.000000 0.000000 -1.000000
vn -0.000000 0.000000 -1.000000
vn -0.000000 0.000000 -1.000000
vn -0.000000 0.000000 -1.000000
vn -0.000000 0.000000 -1.000000
vn -0.000000 0.000000 -1.000000
vn -0.000000 0.000000 -1.000000
vn -0.000000 0.000000 -1.000000
vn -0.000000 0.000000 -1.000000
vn -0.000000 0.000000 -1.000000
vn -0.000000 0.000000 -1.000000
vn -0.000000 0.000000 -1.000000
vn -0.000000 0.000000 -1.000000
vn -0.000000 0.000000 -1.000000
vn -0.000000 0.000000 -1.000000
vn -0.000000 0.000000 -1.000000
vn -0.000000 0.000000 -1.000000
vn -0.000000 0.000000 -1.000000
vn -0.000000 0.000000 -1.000000
vn -0.000000 0.000000 -1.000000
vn -0.000000 0.000000 -1.000000
vn -0.000000 0.000000 -1.000000
vn -0.000000 0.000000 -1.000000
vn -0.000000 0.000000 -1.000000
vn -0.000000 0.000000 -1.000000
vn -0.000000 0.000000 -1.000000
vn -0.000000 0.000000 -1.000000
vn -0.000000 0.000000 -1.000000
vn -0.000000 0.000000 -1.000000
vn -0.000000 0.000000 -1.000000
vn -0.000000 0.000000 -1.000000
vn -0.000000 0.000000 -1.000000
vn -0.000000 0.000000 -1.000000
vn -0.000000 0.000000 -1.000000
vn -0.000000 0.000000 -1.000000
vn -0.000000 0.000000 -1.000000
vn -0.000000 0.000000 -1.000000
vn -0.000000 0.000000 -1.000000
vn -0.000000 0.000000 -1.000000
vn -0.000000 0.000000 -1.000000
vn -0.000000 0.000000 -1.000000
vn -0.000000 0.000000 -1.000000
vn -0.000000 0.000000 -1.000000
vn -0.000000 0.000000 -1.000000
vn -0.000000 0.000000 -1.000000
vn -0.000000 0.000000 -1.000000
vn -0.000000 0.000000 -1.000000
vn -0.000000 0.000000 -1.000000
vn -0.000000 0.000000 -1.000000
vn -0.000000 0.000000 -1.000000
vn 1.000000 0.000000 -0.000000
vn 1.000000 0.000000 -0.000000
vn 1.000000 0.000000 -0.000000
vn 1.000000 0.000000 -0.000000
vn -1.000000 0.000000 0.000000
vn -1.000000 0.000000 0.000000
vn -1.000000 0.000000 0.000000
vn -1.000000 0.000000 0.000000
vn 0.000000 1.000000 -0.000000
vn 0.000000 1.000000 -0.000000
vn 0.000000 1.000000 -0.000000
vn 0.000000 1.000000 -0.000000
vn -1.000000 0.000000 0.000000
vn -1.000000 0.000000 0.000000
vn -1.000000 0.000000 0.000000
vn -1.000000 0.000000 0.000000
vn 0.000000 -1.000000 0.000000
vn 0.000000 -1.000000 0.000000
vn 0.000000 -1.000000 0.000000
vn 0.000000 -1.000000 0.000000
vn 1.000000 0.000000 0.000000
vn 1.000000 0.000000 0.000000
vn 1.000000 0.000000 0.000000
vn 1.000000 0.000000 0.000000
vn 0.000000 -1.000000 0.000000
vn 0.000000 -1.000000 0.000000
vn 0.000000 -1.000000 0.000000
vn 0.000000 -1.000000 0.000000
vn 1.000000 0.000000 0.000000
vn 1.000000 0.000000 0.000000
vn 1.000000 0.000000 0.000000
vn 1.000000 0.000000 0.000000
vn 0.000000 1.000000 -0.000000
vn 0.000000 1.000000 -0.000000
vn 0.000000 1.000000 -0.000000
vn 0.000000 1.000000 -0.000000
vn -1.000000 0.000000 0.000000
vn -1.000000 0.000000 0.000000
vn -1.000000 0.000000 0.000000
vn -1.000000 0.000000 0.000000
vn -1.000000 0.000000 0.000000
vn -1.000000 0.000000 0.000000
vn -1.000000 0.000000 0.000000
vn -1.000000 0.000000 0.000000
vn 0.000000 -1.000000 0.000000
vn 0.000000 -1.000000 0.000000
vn 0.000000 -1.000000 0.000000
vn 0.000000 -1.000000 0.000000
vn -1.000000 0.000000 0.000000
vn -1.000000 0.000000 0.000000
vn -1.000000 0.000000 0.000000
vn -1.000000 0.000000 0.000000
vn 0.000000 -1.000000 0.000000
vn 0.000000 -1.000000 0.000000
vn 0.000000 -1.000000 0.000000
vn 0.000000 -1.000000 0.000000
vn 1.000000 0.000000 0.000000
vn 1.000000 0.000000 0.000000
vn 1.000000 0.000000 0.000000
vn 1.000000 0.000000 0.000000
vn 0.000000 1.000000 0.000000
vn 0.000000 1.000000 0.000000
vn 0.000000 1.000000 0.000000
vn 0.000000 1.000000 0.000000
vn -1.000000 0.000000 0.000000
vn -1.000000 0.000000 0.000000
vn -1.000000 0.000000 0.000000
vn -1.000000 0.000000 0.000000
vn 0.000000 -1.000000 0.000000
vn 0.000000 -1.000000 0.000000
vn 0.000000 -1.000000 0.000000
vn 0.000000 -1.000000 0.000000
vn 1.000000 0.000000 -0.000000
vn 1.000000 0.000000 -0.000000
vn 1.000000 0.000000 -0.000000
vn 1.000000 0.000000 -0.000000
vn 0.000000 1.000000 -0.000000
vn 0.000000 1.000000 -0.000000
vn 0.000000 1.000000 -0.000000
vn 0.000000 1.000000 -0.000000
vn 1.000000 0.000000 -0.000000
vn 1.000000 0.000000 -0.000000
vn 1.000000 0.000000 -0.000000
vn 1.000000 0.000000 -0.000000
vn 0.000000 -1.000000 0.000000
vn 0.000000 -1.000000 0.000000
vn 0.000000 -1.000000 0.000000
vn 0.000000 -1.000000 0.000000
vn -1.000000 0.000000 0.000000
vn -1.000000 0.000000 0.000000
vn -1.000000 0.000000 0.000000
vn -1.000000 0.000000 0.000000
vn 0.000000 1.000000 -0.000000
vn 0.000000 1.000000 -0.000000
vn 0.000000 1.000000 -0.000000
vn 0.000000 1.000000 -0.000000
vn -1.000000 0.000000 0.000000
vn -1.000000 0.000000 0.000000
vn -1.000000 0.000000 0.000000
vn -1.000000 0.000000 0.000000
vn 0.000000 -1.000000 0.000000
vn 0.000000 -1.000000 0.000000
vn 0.000000 -1.000000 0.000000
vn 0.000000 -1.000000 0.000000
vn -1.000000 0.000000 0.000000
vn -1.000000 0.000000 0.000000
vn -1.000000 0.000000 0.000000
vn -1.000000 0.000000 0.000000
vn 0.000000 1.000000 -0.000000
vn 0.000000 1.000000 -0.000000
vn 0.000000 1.000000 -0.000000
vn 0.000000 1.000000 -0.000000
vn -1.000000 0.000000 0.000000
vn -1.000000 0.000000 0.000000
vn -1.000000 0.000000 0.000000
vn -1.000000 0.000000 0.000000
vn 0.000000 -1.000000 0.000000
vn 0.000000 -1.000000 0.000000
vn 0.000000 -1.000000 0.000000
vn 0.000000 -1.000000 0.000000
vn 0.000000 1.000000 0.000000
vn 0.000000 1.000000 0.000000
vn 0.000000 1.000000 0.000000
vn 0.000000 1.000000 0.000000
vn -1.000000 0.000000 0.000000
vn -1.000000 0.000000 0.000000
vn -1.000000 0.000000 0.000000
vn -1.000000 0.000000 0.000000
vn 0.000000 -1.000000 0.000000
vn 0.000000 -1.000000 0.000000
vn 0.000000 -1.000000 0.000000
vn 0.000000 -1.000000 0.000000
vn 0.999942 -0.010759 0.000000
vn 0.999942 -0.010759 0.000000
vn 0.999942 -0.010759 0.000000
vn 0.999942 -0.010759 0.000000
vn 1.000000 0.000000 -0.000000
vn 1.000000 0.000000 -0.000000
vn 1.000000 0.000000 -0.000000
vn 1.000000 0.000000 -0.000000
vn 0.000000 -1.000000 0.000000
vn 0.000000 -1.000000 0.000000
vn 0.000000 -1.000000 0.000000
vn 0.000000 -1.000000 0.000000
vn -1.000000 0.000000 0.000000
vn -1.000000 0.000000 0.000000
vn -1.000000 0.000000 0.000000
vn -1.000000 0.000000 0.000000
vn -0.000000 -1.000000 0.000000
vn -0.000000 -1.000000 0.000000
vn -0.000000 -1.000000 0.000000
vn -0.000000 -1.000000 0.000000
vn 1.000000 0.000000 0.000000
vn 1.000000 0.000000 0.000000
vn 1.000000 0.000000 0.000000
vn 1.000000 0.000000 0.000000
vn 0.000000 1.000000 -0.000000
vn 0.000000 1.000000 -0.000000
vn 0.000000 1.000000 -0.000000
vn 0.000000 1.000000 -0.000000
vn 1.000000 0.000000 0.000000
vn 1.000000 0.000000 0.000000
vn 1.000000 0.000000 0.000000
vn 1.000000 0.000000 0.000000
vn 0.000000 -1.000000 0.000000
vn 0.000000 -1.000000 0.000000
vn 0.000000 -1.000000 0.000000
vn 0.000000 -1.000000 0.000000
vn -1.000000 0.000000 0.000000
vn -1.000000 0.000000 0.000000
vn -1.000000 0.000000 0.000000
vn -1.000000 0.000000 0.000000
vn 0.000000 -1.000000 0.000000
vn 0.000000 -1.000000 0.000000
vn 0.000000 -1.000000 0.000000
vn 0.000000 -1.000000 0.000000
vn 1.000000 0.000000 -0.000000
vn 1.000000 0.000000 -0.000000
vn 1.000000 0.000000 -0.000000
vn 1.000000 0.000000 -0.000000
vn 0.000000 1.000000 -0.000000
vn 0.000000 1.000000 -0.000000
vn 0.000000 1.000000 -0.000000
vn 0.000000 1.000000 -0.000000
vn 1.000000 0.000000 0.000000
vn 1.000000 0.000000 0.000000
vn 1.000000 0.000000 0.000000
vn 1.000000 0.000000 0.000000
vn 0.000000 1.000000 0.000000
vn 0.000000 1.000000 0.000000
vn 0.000000 1.000000 0.000000
vn 0.000000 1.000000 0.000000
vn -1.000000 0.000000 0.000000
vn -1.000000 0.000000 0.000000
vn -1.000000 0.000000 0.000000
vn -1.000000 0.000000 0.000000
vn 0.000000 1.000000 -0.000000
vn 0.000000 1.000000 -0.000000
vn 0.000000 1.000000 -0.000000
vn 0.000000 1.000000 -0.000000
vn 1.000000 0.000000 0.000000
vn 1.000000 0.000000 0.000000
vn 1.000000 0.000000 0.000000
vn 1.000000 0.000000 0.000000
vn 0.000000 -1.000000 0.000000
vn 0.000000 -1.000000 0.000000
vn 0.000000 -1.000000 0.000000
vn 0.000000 -1.000000 0.000000
vn 1.000000 0.000000 -0.000000
vn 1.000000 0.000000 -0.000000
vn 1.000000 0.000000 -0.000000
vn 1.000000 0.000000 -0.000000
vn 0.000000 -1.000000 0.000000
vn 0.000000 -1.000000 0.000000
vn 0.000000 -1.000000 0.000000
vn 0.000000 -1.000000 0.000000
vn -1.000000 0.000000 0.000000
vn -1.000000 0.000000 0.000000
vn -1.000000 0.000000 0.000000
vn -1.000000 0.000000 0.000000
vn 0.000000 1.000000 -0.000000
vn 0.000000 1.000000 -0.000000
vn 0.000000 1.000000 -0.000000
vn 0.000000 1.000000 -0.000000
vn -1.000000 0.000000 0.000000
vn -1.000000 0.000000 0.000000
vn -1.000000 0.000000 0.000000
vn -1.000000 0.000000 0.000000
vn 0.000000 -1.000000 0.000000
vn 0.000000 -1.000000 0.000000
vn 0.000000 -1.000000 0.000000
vn 0.000000 -1.000000 0.000000
vn 1.000000 0.000000 0.000000
vn 1.000000 0.000000 0.000000
vn 1.000000 0.000000 0.000000
vn 1.000000 0.000000 0.000000
vn 0.000000 1.000000 -0.000000
vn 0.000000 1.000000 -0.000000
vn 0.000000 1.000000 -0.000000
vn 0.000000 1.000000 -0.000000
vn -1.000000 0.000000 0.000000
vn -1.000000 0.000000 0.000000
vn -1.000000 0.000000 0.000000
vn -1.000000 0.000000 0.000000
vn 0.000000 1.000000 0.000000
vn 0.000000 1.000000 0.000000
vn 0.000000 1.000000 0.000000
vn 0.000000 1.000000 0.000000
vn 1.000000 0.000000 -0.000000
vn 1.000000 0.000000 -0.000000
vn 1.000000 0.000000 -0.000000
vn 1.000000 0.000000 -0.000000
vn 0.000000 -1.000000 0.000000
vn 0.000000 -1.000000 0.000000
vn 0.000000 -1.000000 0.000000
vn 0.000000 -1.000000 0.000000
vn -1.000000 0.000000 0.000000
vn -1.000000 0.000000 0.000000
vn -1.000000 0.000000 0.000000
vn -1.000000 0.000000 0.000000
vn -0.000000 -1.000000 0.000000
vn -0.000000 -1.000000 0.000000
vn -0.000000 -1.000000 0.000000
vn -0.000000 -1.000000 0.000000
vn 1.000000 0.000000 -0.000000
vn 1.000000 0.000000 -0.000000
vn 1.000000 0.000000 -0.000000
vn 1.000000 0.000000 -0.000000
vn 0.000000 1.000000 0.000000
vn 0.000000 1.000000 0.000000
vn 0.000000 1.000000 0.000000
vn 0.000000 1.000000 0.000000
vn 1.000000 0.000000 -0.000000
vn 1.000000 0.000000 -0.000000
vn 1.000000 0.000000 -0.000000
vn 1.000000 0.000000 -0.000000
vn 0.000000 -1.000000 0.000000
vn 0.000000 -1.000000 0.000000
vn 0.000000 -1.000000 0.000000
vn 0.000000 -1.000000 0.000000
vn 1.000000 0.000000 0.000000
vn 1.000000 0.000000 0.000000
vn 1.000000 0.000000 0.000000
vn 1.000000 0.000000 0.000000
vn 0.000000 1.000000 -0.000000
vn 0.000000 1.000000 -0.000000
vn 0.000000 1.000000 -0.000000
vn 0.000000 1.000000 -0.000000
vn -1.000000 0.000000 0.000000
vn -1.000000 0.000000 0.000000
vn -1.000000 0.000000 0.000000
vn -1.000000 0.000000 0.000000
vn 0.000000 -1.000000 0.000000
vn 0.000000 -1.000000 0.000000
vn 0.000000 -1.000000 0.000000
vn 0.000000 -1.000000 0.000000
vn -1.000000 0.000000 0.000000
vn -1.000000 0.000000 0.000000
vn -1.000000 0.000000 0.000000
vn -1.000000 0.000000 0.000000
vn 0.000000 1.000000 0.000000
vn 0.000000 1.000000 0.000000
vn 0.000000 1.000000 0.000000
vn 0.000000 1.000000 0.000000
vn 1.000000 0.000000 -0.000000
vn 1.000000 0.000000 -0.000000
vn 1.000000 0.000000 -0.000000
vn 1.000000 0.000000 -0.000000
vn 0.000000 1.000000 -0.000000
vn 0.000000 1.000000 -0.000000
vn 0.000000 1.000000 -0.000000
vn 0.000000 1.000000 -0.000000
vn -1.000000 0.000000 0.000000
vn -1.000000 0.000000 0.000000
vn -1.000000 0.000000 0.000000
vn -1.000000 0.000000 0.000000
vn 0.000000 1.000000 0.000000
vn 0.000000 1.000000 0.000000
vn 0.000000 1.000000 0.000000
vn 0.000000 1.000000 0.000000
vn 1.000000 0.000000 -0.000000
vn 1.000000 0.000000 -0.000000
vn 1.000000 0.000000 -0.000000
vn 1.000000 0.000000 -0.000000
vn 0.000000 1.000000 -0.000000
vn 0.000000 1.000000 -0.000000
vn 0.000000 1.000000 -0.000000
vn 0.000000 1.000000 -0.000000
vn -1.000000 0.000000 0.000000
vn -1.000000 0.000000 0.000000
vn -1.000000 0.000000 0.000000
vn -1.000000 0.000000 0.000000
vn 0.000000 -1.000000 0.000000
vn 0.000000 -1.000000 0.000000
vn 0.000000 -1.000000 0.000000
vn 0.000000 -1.000000 0.000000
vn -1.000000 0.000000 0.000000
vn -1.000000 0.000000 0.000000
vn -1.000000 0.000000 0.000000
vn -1.000000 0.000000 0.000000
vn 0.000000 1.000000 -0.000000
vn 0.000000 1.000000 -0.000000
vn 0.000000 1.000000 -0.000000
vn 0.000000 1.000000 -0.000000
vn 1.000000 0.000000 0.000000
vn 1.000000 0.000000 0.000000
vn 1.000000 0.000000 0.000000
vn 1.000000 0.000000 0.000000
vn 0.000000 1.000000 -0.000000
vn 0.000000 1.000000 -0.000000
vn 0.000000 1.000000 -0.000000
vn 0.000000 1.000000 -0.000000
vn -1.000000 0.000000 0.000000
vn -1.000000 0.000000 0.000000
vn -1.000000 0.000000 0.000000
vn -1.000000 0.000000 0.000000
vn 0.000000 -1.000000 0.000000
vn 0.000000 -1.000000 0.000000
vn 0.000000 -1.000000 0.000000
vn 0.000000 -1.000000 0.000000
vn -1.000000 0.000000 0.000000
vn -1.000000 0.000000 0.000000
vn -1.000000 0.000000 0.000000
vn -1.000000 0.000000 0.000000
vn 0.000000 1.000000 0.000000
vn 0.000000 1.000000 0.000000
vn 0.000000 1.000000 0.000000
vn 0.000000 1.000000 0.000000
vn 1.000000 0.000000 -0.000000
vn 1.000000 0.000000 -0.000000
vn 1.000000 0.000000 -0.000000
vn 1.000000 0.000000 -0.000000
vn -0.000000 -1.000000 0.000000
vn -0.000000 -1.000000 0.000000
vn -0.000000 -1.000000 0.000000
vn -0.000000 -1.000000 0.000000
vn 0.000000 0.000000 1.000000
vn 0.000000 0.000000 1.000000
vn 0.000000 0.000000 1.000000
vn 0.000000 0.000000 1.000000
vn 0.000000 0.000000 1.000000
vn 0.000000 0.000000 1.000000
vn 0.000000 0.000000 1.000000
vn 0.000000 0.000000 1.000000
vn 0.000000 0.000000 1.000000
vn 0.000000 0.000000 1.000000
vn 0.000000 0.000000 1.000000
vn 0.000000 0.000000 1.000000
vn 0.000000 0.000000 1.000000
vn 0.000000 0.000000 1.000000
vn 0.000000 0.000000 1.000000
vn 0.000000 0.000000 1.000000
vn 0.000000 0.000000 1.000000
vn 0.000000 0.000000 1.000000
vn 0.000000 0.000000 1.000000
vn 0.000000 0.000000 1.000000
vn 0.000000 0.000000 1.000000
vn 0.000000 0.000000 1.000000
vn 0.000000 0.000000 1.000000
vn 0.000000 0.000000 1.000000
vn 0.000000 0.000000 1.000000
vn 0.000000 0.000000 1.000000
vn 0.000000 0.000000 1.000000
vn 0.000000 0.000000 1.000000
vn 0.000000 0.000000 1.000000
vn 0.000000 0.000000 1.000000
vn 0.000000 0.000000 1.000000
vn 0.000000 0.000000 1.000000
vn 0.000000 0.000000 1.000000
vn 0.000000 0.000000 1.000000
vn 0.000000 0.000000 1.000000
vn 0.000000 0.000000 1.000000
vn 0.000000 0.000000 1.000000
vn 0.000000 0.000000 1.000000
vn 0.000000 0.000000 1.000000
vn 0.000000 0.000000 1.000000
vn 0.000000 0.000000 1.000000
vn 0.000000 0.000000 1.000000
vn 0.000000 0.000000 1.000000
vn 0.000000 0.000000 1.000000
vn 0.000000 0.000000 1.000000
vn 0.000000 0.000000 1.000000
vn 0.000000 0.000000 1.000000
vn 0.000000 0.000000 1.000000
vn 0.000000 0.000000 1.000000
vn 0.000000 0.000000 1.000000
vn 0.000000 0.000000 1.000000
vn 0.000000 0.000000 1.000000
vn 0.000000 0.000000 1.000000
vn 0.000000 0.000000 1.000000
vn 0.000000 0.000000 1.000000
vn 0.000000 0.000000 1.000000
vn 0.000000 0.000000 1.000000
vn 0.000000 0.000000 1.000000
vn 0.000000 0.000000 1.000000
vn 0.000000 0.000000 1.000000
vn 0.000000 0.000000 1.000000
vn 0.000000 0.000000 1.000000
vn 0.000000 0.000000 1.000000
vn 0.000000 0.000000 1.000000
vn 0.000000 0.000000 1.000000
vn 0.000000 0.000000 1.000000
vn 0.000000 0.000000 1.000000
vn 0.000000 0.000000 1.000000
vn 0.000000 0.000000 1.000000
vn 0.000000 0.000000 1.000000
vn 0.000000 0.000000 1.000000
vn 0.000000 0.000000 1.000000
vn 0.000000 0.000000 1.000000
vn 0.000000 0.000000 1.000000
vn 0.000000 0.000000 1.000000
vn 0.000000 0.000000 1.000000
vn 0.000000 0.000000 1.000000
vn 0.000000 0.000000 1.000000
vn 0.000000 0.000000 1.000000
vn 0.000000 0.000000 1.000000
vn 0.000000 0.000000 1.000000
vn 0.000000 0.000000 1.000000
vn 0.000000 0.000000 1.000000
vn 0.000000 0.000000 1.000000
vn 0.000000 0.000000 1.000000
vn 0.000000 0.000000 1.000000
vn 0.000000 0.000000 1.000000
vn 0.000000 0.000000 1.000000
vn 0.000000 0.000000 1.000000
vn 0.000000 0.000000 1.000000
vn 0.000000 0.000000 1.000000
vn 0.000000 0.000000 1.000000
vn 0.000000 0.000000 1.000000
vn 0.000000 0.000000 1.000000
vn 0.000000 0.000000 1.000000
f 45/133/133 46/134/134 48/135/135
f 48/135/135 46/134/134 47/136/136
f 50/137/137 114/138/138 49/139/139
f 49/139/139 114/138/138 54/140/140
f 49/139/139 54/140/140 55/141/141
f 51/142/142 102/143/143 50/137/137
f 50/137/137 102/143/143 103/144/144
f 50/137/137 103/144/144 68/145/145
f 68/145/145 103/144/144 67/146/146
f 67/146/146 103/144/144 104/147/147
f 67/146/146 104/147/147 106/148/148
f 106/148/148 104/147/147 105/149/149
f 52/150/150 73/151/151 51/142/142
f 51/142/142 73/151/151 74/152/152
f 51/142/142 74/152/152 75/153/153
f 49/139/139 123/154/154 52/150/150
f 52/150/150 123/154/154 134/155/155
f 52/150/150 134/155/155 135/156/156
f 54/140/140 114/138/138 53/157/157
f 53/157/157 114/138/138 115/158/158
f 53/157/157 115/158/158 56/159/159
f 56/159/159 115/158/158 116/160/160
f 56/159/159 116/160/160 59/161/161
f 59/161/161 116/160/160 58/162/162
f 58/162/162 116/160/160 117/163/163
f 58/162/162 117/163/163 57/164/164
f 57/164/164 117/163/163 49/139/139
f 57/164/164 49/139/139 60/165/165
f 60/165/165 49/139/139 55/141/141
f 60/165/165 55/141/141 59/161/161
f 59/161/161 55/141/141 56/159/159
f 62/166/166 71/167/167 61/168/168
f 61/168/168 71/167/167 72/169/169
f 61/168/168 72/169/169 73/151/151
f 71/167/167 62/166/166 141/170/170
f 141/170/170 62/166/166 63/171/171
f 141/170/170 63/171/171 140/172/172
f 140/172/172 63/171/171 65/173/173
f 140/172/172 65/173/173 52/150/150
f 52/150/150 65/173/173 66/174/174
f 52/150/150 66/174/174 73/151/151
f 73/151/151 66/174/174 61/168/168
f 63/171/171 64/175/175 65/173/173
f 68/145/145 69/176/176 50/137/137
f 50/137/137 69/176/176 70/177/177
f 50/137/137 70/177/177 107/178/178
f 107/178/178 70/177/177 106/148/148
f 106/148/148 70/177/177 67/146/146
f 76/179/179 79/180/180 75/153/153
f 75/153/153 79/180/180 80/181/181
f 75/153/153 80/181/181 51/142/142
f 51/142/142 80/181/181 81/182/182
f 51/142/142 81/182/182 102/143/143
f 102/143/143 81/182/182 101/183/183
f 101/183/183 81/182/182 82/184/184
f 101/183/183 82/184/184 83/185/185
f 76/179/179 77/186/186 79/180/180
f 79/180/180 77/186/186 78/187/187
f 101/183/183 83/185/185 94/188/188
f 94/188/188 83/185/185 84/189/189
f 94/188/188 84/189/189 93/190/190
f 93/190/190 84/189/189 87/191/191
f 93/190/190 87/191/191 92/192/192
f 92/192/192 87/191/191 88/193/193
f 92/192/192 88/193/193 91/194/194
f 91/194/194 88/193/193 90/195/195
f 90/195/195 88/193/193 89/196/196
f 85/197/197 86/198/198 84/189/189
f 84/189/189 86/198/198 87/191/191
f 101/183/183 94/188/188 100/199/199
f 100/199/199 94/188/188 95/200/200
f 100/199/199 95/200/200 96/201/201
f 97/202/202 98/203/203 96/201/201
f 96/201/201 98/203/203 99/204/204
f 96/201/201 99/204/204 100/199/199
f 107/178/178 108/205/205 50/137/137
f 50/137/137 108/205/205 113/206/206
f 50/137/137 113/206/206 114/138/138
f 108/205/205 109/207/207 113/206/206
f 113/206/206 109/207/207 112/208/208
f 112/208/208 109/207/207 111/209/209
f 111/209/209 109/207/207 110/210/210
f 117/163/163 118/211/211 49/139/139
f 49/139/139 118/211/211 119/212/212
f 49/139/139 119/212/212 122/213/213
f 122/213/213 119/212/212 120/214/214
f 122/213/213 120/214/214 121/215/215
f 122/213/213 123/154/154 49/139/139
f 123/154/154 124/216/216 134/155/155
f 134/155/155 124/216/216 133/217/217
f 133/217/217 124/216/216 131/218/218
f 133/217/217 131/218/218 132/219/219
f 131/218/218 124/216/216 130/220/220
f 130/220/220 124/216/216 125/221/221
f 130/220/220 125/221/221 127/222/222
f 127/222/222 125/221/221 126/223/223
f 127/222/222 128/224/224 130/220/220
f 130/220/220 128/224/224 129/225/225
f 136/226/226 137/227/227 135/156/156
f 135/156/156 137/227/227 138/228/228
f 135/156/156 138/228/228 52/150/150
f 52/150/150 138/228/228 139/229/229
f 52/150/150 139/229/229 140/172/172
f 136/226/226 46/230/230 137/227/227
f 137/227/227 46/230/230 45/231/231
f 48/232/232 142/233/233 45/234/234
f 45/234/234 142/233/233 137/235/235
f 46/236/236 136/237/237 47/238/238
f 47/238/238 136/237/237 143/239/239
f 55/240/240 54/241/241 145/242/242
f 145/242/242 54/241/241 144/243/243
f 56/244/244 55/245/245 146/246/246
f 146/246/246 55/245/245 145/247/247
f 53/248/248 56/249/249 147/250/250
f 147/250/250 56/249/249 146/251/251
f 54/252/252 53/253/253 144/254/254
f 144/254/254 53/253/253 147/255/255
f 59/256/256 58/257/257 149/258/258
f 149/258/258 58/257/257 148/259/259
f 60/260/260 59/261/261 150/262/262
f 150/262/262 59/261/261 149/263/263
f 57/264/264 60/265/265 151/266/266
f 151/266/266 60/265/265 150/267/267
f 58/268/268 57/269/269 148/270/270
f 148/270/270 57/269/269 151/271/271
f 63/272/272 62/273/273 153/274/274
f 153/274/274 62/273/273 152/275/275
f 64/276/276 63/277/277 154/278/278
f 154/278/278 63/277/277 153/279/279
f 65/280/280 64/281/281 155/282/282
f 155/282/282 64/281/281 154/283/283
f 66/284/284 65/285/285 156/286/286
f 156/286/286 65/285/285 155/287/287
f 61/288/288 66/289/289 157/290/290
f 157/290/290 66/289/289 156/291/291
f 62/292/292 61/293/293 152/294/294
f 152/294/294 61/293/293 157/295/295
f 123/296/296 122/297/297 159/298/298
f 159/298/298 122/297/297 158/299/299
f 124/300/300 123/301/301 160/302/302
f 160/302/302 123/301/301 159/303/303
f 125/304/304 124/305/305 161/306/306
f 161/306/306 124/305/305 160/307/307
f 126/308/308 125/309/309 162/310/310
f 162/310/310 125/309/309 161/311/311
f 127/312/312 126/313/313 163/314/314
f 163/314/314 126/313/313 162/315/315
f 128/316/316 127/317/317 164/318/318
f 164/318/318 127/317/317 163/319/319
f 129/320/320 128/321/321 165/322/322
f 165/322/322 128/321/321 164/323/323
f 130/324/324 129/325/325 166/326/326
f 166/326/326 129/325/325 165/327/327
f 131/328/328 130/329/329 167/330/330
f 167/330/330 130/329/329 166/331/331
f 132/332/332 131/333/333 168/334/334
f 168/334/334 131/333/333 167/335/335
f 133/336/336 132/337/337 169/338/338
f 169/338/338 132/337/337 168/339/339
f 134/340/340 133/341/341 170/342/342
f 170/342/342 133/341/341 169/343/343
f 135/344/344 134/345/345 171/346/346
f 171/346/346 134/345/345 170/347/347
f 136/348/348 135/349/349 143/350/350
f 143/350/350 135/349/349 171/351/351
f 138/352/352 137/353/353 172/354/354
f 172/354/354 137/353/353 142/355/355
f 139/356/356 138/357/357 173/358/358
f 173/358/358 138/357/357 172/359/359
f 140/360/360 139/361/361 174/362/362
f 174/362/362 139/361/361 173/363/363
f 141/364/364 140/365/365 175/366/366
f 175/366/366 140/365/365 174/367/367
f 71/368/368 141/369/369 176/370/370
f 176/370/370 141/369/369 175/371/371
f 72/372/372 71/373/373 177/374/374
f 177/374/374 71/373/373 176/375/375
f 73/376/376 72/377/377 178/378/378
f 178/378/378 72/377/377 177/379/379
f 74/380/380 73/381/381 179/382/382
f 179/382/382 73/381/381 178/383/383
f 75/384/384 74/385/385 180/386/386
f 180/386/386 74/385/385 179/387/387
f 76/388/388 75/389/389 181/390/390
f 181/390/390 75/389/389 180/391/391
f 77/392/392 76/393/393 182/394/394
f 182/394/394 76/393/393 181/395/395
f 78/396/396 77/397/397 183/398/398
f 183/398/398 77/397/397 182/399/399
f 79/400/400 78/401/401 184/402/402
f 184/402/402 78/401/401 183/403/403
f 80/404/404 79/405/405 185/406/406
f 185/406/406 79/405/405 184/407/407
f 81/408/408 80/409/409 186/410/410
f 186/410/410 80/409/409 185/411/411
f 82/412/412 81/413/413 187/414/414
f 187/414/414 81/413/413 186/415/415
f 83/416/416 82/417/417 188/418/418
f 188/418/418 82/417/417 187/419/419
f 84/420/420 83/421/421 189/422/422
f 189/422/422 83/421/421 188/423/423
f 85/424/424 84/425/425 190/426/426
f 190/426/426 84/425/425 189/427/427
f 86/428/428 85/429/429 191/430/430
f 191/430/430 85/429/429 190/431/431
f 87/432/432 86/433/433 192/434/434
f 192/434/434 86/433/433 191/435/435
f 88/436/436 87/437/437 193/438/438
f 193/438/438 87/437/437 192/439/439
f 89/440/440 88/441/441 194/442/442
f 194/442/442 88/441/441 193/443/443
f 90/444/444 89/445/445 195/446/446
f 195/446/446 89/445/445 194/447/447
f 91/448/448 90/449/449 196/450/450
f 196/450/450 90/449/449 195/451/451
f 92/452/452 91/453/453 197/454/454
f 197/454/454 91/453/453 196/455/455
f 93/456/456 92/457/457 198/458/458
f 198/458/458 92/457/457 197/459/459
f 94/460/460 93/461/461 199/462/462
f 199/462/462 93/461/461 198/463/463
f 95/464/464 94/465/465 200/466/466
f 200/466/466 94/465/465 199/467/467
f 96/468/468 95/469/469 201/470/470
f 201/470/470 95/469/469 200/471/471
f 97/472/472 96/473/473 202/474/474
f 202/474/474 96/473/473 201/475/475
f 98/476/476 97/477/477 203/478/478
f 203/478/478 97/477/477 202/479/479
f 99/480/480 98/481/481 204/482/482
f 204/482/482 98/481/481 203/483/483
f 100/484/484 99/485/485 205/486/486
f 205/486/486 99/485/485 204/487/487
f 101/488/488 100/489/489 206/490/490
f 206/490/490 100/489/489 205/491/491
f 102/492/492 101/493/493 207/494/494
f 207/494/494 101/493/493 206/495/495
f 103/496/496 102/497/497 208/498/498
f 208/498/498 102/497/497 207/499/499
f 104/500/500 103/501/501 209/502/502
f 209/502/502 103/501/501 208/503/503
f 105/504/504 104/505/505 210/506/506
f 210/506/506 104/505/505 209/507/507
f 106/508/508 105/509/509 211/510/510
f 211/510/510 105/509/509 210/511/511
f 107/512/512 106/513/513 212/514/514
f 212/514/514 106/513/513 211/515/515
f 108/516/516 107/517/517 213/518/518
f 213/518/518 107/517/517 212/519/519
f 109/520/520 108/521/521 214/522/522
f 214/522/522 108/521/521 213/523/523
f 110/524/524 109/525/525 215/526/526
f 215/526/526 109/525/525 214/527/527
f 111/528/528 110/529/529 216/530/530
f 216/530/530 110/529/529 215/531/531
f 112/532/532 111/533/533 217/534/534
f 217/534/534 111/533/533 216/535/535
f 113/536/536 112/537/537 218/538/538
f 218/538/538 112/537/537 217/539/539
f 114/540/540 113/541/541 219/542/542
f 219/542/542 113/541/541 218/543/543
f 115/544/544 114/545/545 220/546/546
f 220/546/546 114/545/545 219/547/547
f 116/548/548 115/549/549 221/550/550
f 221/550/550 115/549/549 220/551/551
f 117/552/552 116/553/553 222/554/554
f 222/554/554 116/553/553 221/555/555
f 118/556/556 117/557/557 223/558/558
f 223/558/558 117/557/557 222/559/559
f 119/560/560 118/561/561 224/562/562
f 224/562/562 118/561/561 223/563/563
f 120/564/564 119/565/565 225/566/566
f 225/566/566 119/565/565 224/567/567
f 121/568/568 120/569/569 226/570/570
f 226/570/570 120/569/569 225/571/571
f 122/572/572 121/573/573 158/574/574
f 158/574/574 121/573/573 226/575/575
f 69/576/576 68/577/577 228/578/578
f 228/578/578 68/577/577 227/579/579
f 70/580/580 69/581/581 229/582/582
f 229/582/582 69/581/581 228/583/583
f 67/584/584 70/585/585 230/586/586
f 230/586/586 70/585/585 229/587/587
f 68/588/588 67/589/589 227/590/590
f 227/590/590 67/589/589 230/591/591
f 51/592/592 50/593/593 232/594/594
f 232/594/594 50/593/593 231/595/595
f 52/596/596 51/597/597 233/598/598
f 233/598/598 51/597/597 232/599/599
f 49/600/600 52/601/601 234/602/602
f 234/602/602 52/601/601 233/603/603
f 50/604/604 49/605/605 231/606/606
f 231/606/606 49/605/605 234/607/607
f 178/608/608 177/609/609 157/610/610
f 157/610/610 177/609/609 176/611/611
f 157/610/610 176/611/611 152/612/612
f 152/612/612 176/611/611 175/613/613
f 152/612/612 175/613/613 153/614/614
f 153/614/614 175/613/613 155/615/615
f 153/614/614 155/615/615 154/616/616
f 175/613/613 174/617/617 155/615/615
f 155/615/615 174/617/617 233/618/618
f 155/615/615 233/618/618 156/619/619
f 156/619/619 233/618/618 178/608/608
f 156/619/619 178/608/608 157/610/610
f 174/617/617 173/620/620 233/618/618
f 233/618/618 173/620/620 172/621/621
f 233/618/618 172/621/621 171/622/622
f 171/622/622 172/621/621 142/623/623
f 171/622/622 142/623/623 143/624/624
f 143/624/624 142/623/623 47/625/625
f 47/625/625 142/623/623 48/626/626
f 171/622/622 170/627/627 233/618/618
f 233/618/618 170/627/627 159/628/628
f 233/618/618 159/628/628 234/629/629
f 234/629/629 159/628/628 158/630/630
f 234/629/629 158/630/630 224/631/631
f 224/631/631 158/630/630 226/632/632
f 224/631/631 226/632/632 225/633/633
f 159/628/628 170/627/627 160/634/634
f 160/634/634 170/627/627 169/635/635
f 160/634/634 169/635/635 167/636/636
f 167/636/636 169/635/635 168/637/637
f 160/634/634 167/636/636 161/638/638
f 161/638/638 167/636/636 166/639/639
f 161/638/638 166/639/639 163/640/640
f 163/640/640 166/639/639 164/641/641
f 164/641/641 166/639/639 165/642/642
f 163/640/640 162/643/643 161/638/638
f 224/631/631 223/644/644 234/629/629
f 234/629/629 223/644/644 222/645/645
f 234/629/629 222/645/645 151/646/646
f 151/646/646 222/645/645 148/647/647
f 148/647/647 222/645/645 221/648/648
f 148/647/647 221/648/648 149/649/649
f 149/649/649 221/648/648 220/650/650
f 149/649/649 220/650/650 146/651/651
f 146/651/651 220/650/650 147/652/652
f 147/652/652 220/650/650 219/653/653
f 147/652/652 219/653/653 144/654/654
f 144/654/654 219/653/653 234/629/629
f 144/654/654 234/629/629 145/655/655
f 145/655/655 234/629/629 150/656/656
f 145/655/655 150/656/656 146/651/651
f 146/651/651 150/656/656 149/649/649
f 234/629/629 219/653/653 231/657/657
f 231/657/657 219/653/653 218/658/658
f 231/657/657 218/658/658 213/659/659
f 213/659/659 218/658/658 214/660/660
f 214/660/660 218/658/658 217/661/661
f 214/660/660 217/661/661 216/662/662
f 216/662/662 215/663/663 214/660/660
f 213/659/659 212/664/664 231/657/657
f 231/657/657 212/664/664 229/665/665
f 231/657/657 229/665/665 228/666/666
f 229/665/665 212/664/664 230/667/667
f 230/667/667 212/664/664 211/668/668
f 230/667/667 211/668/668 209/669/669
f 209/669/669 211/668/668 210/670/670
f 209/669/669 208/671/671 230/667/667
f 230/667/667 208/671/671 227/672/672
f 227/672/672 208/671/671 231/657/657
f 227/672/672 231/657/657 228/666/666
f 208/671/671 207/673/673 231/657/657
f 231/657/657 207/673/673 232/674/674
f 232/674/674 207/673/673 186/675/675
f 232/674/674 186/675/675 185/676/676
f 207/673/673 206/677/677 186/675/675
f 186/675/675 206/677/677 187/678/678
f 187/678/678 206/677/677 188/679/679
f 188/679/679 206/677/677 199/680/680
f 188/679/679 199/680/680 198/681/681
f 206/677/677 205/682/682 199/680/680
f 199/680/680 205/682/682 200/683/683
f 200/683/683 205/682/682 204/684/684
f 200/683/683 204/684/684 201/685/685
f 201/685/685 204/684/684 203/686/686
f 201/685/685 203/686/686 202/687/687
f 197/688/688 192/689/689 198/681/681
f 198/681/681 192/689/689 189/690/690
f 198/681/681 189/690/690 188/679/679
f 192/689/689 197/688/688 193/691/691
f 193/691/691 197/688/688 196/692/692
f 193/691/691 196/692/692 195/693/693
f 195/693/693 194/694/694 193/691/691
f 192/689/689 191/695/695 189/690/690
f 189/690/690 191/695/695 190/696/696
f 232/674/674 185/676/676 180/697/697
f 180/697/697 185/676/676 184/698/698
f 180/697/697 184/698/698 181/699/699
f 181/699/699 184/698/698 182/700/700
f 182/700/700 184/698/698 183/701/701
f 180/697/697 179/702/702 232/674/674
f 232/674/674 179/702/702 178/608/608
f 232/674/674 178/608/608 233/618/618
f 151/646/646 150/656/656 234/629/629
# 234 vertices
# 702 texture params
# 702 normals
# 480 facets

# 3 groups
