# WaveFront *.obj file (generated by Autodesk ATF)

mtllib Hard Maze Map (Fig. 1 From Paper) v2.mtl

g Body3

v -0.450447 -0.662590 0.000000
v -0.420447 -0.662590 0.000000
v -0.420447 -0.662590 0.075000
v -0.450447 -0.662590 0.075000
v -0.450447 -0.392403 0.000000
v -0.450447 -0.392403 0.075000
v 0.228061 -0.392403 0.000000
v 0.228061 -0.392403 0.075000
v 0.228061 -0.662590 0.000000
v 0.228061 -0.662590 0.075000
v -0.031700 -0.662590 0.000000
v -0.031700 -0.662590 0.075000
v -0.031700 -0.632590 0.000000
v -0.031700 -0.632590 0.075000
v 0.198061 -0.632590 0.000000
v 0.198061 -0.632590 0.075000
v 0.198061 -0.422403 0.000000
v 0.198061 -0.422403 0.075000
v -0.420447 -0.422403 0.000000
v -0.420447 -0.422403 0.075000
vt 0.000000 0.000000 0.000000
vt 0.030000 0.000000 0.000000
vt 0.000000 0.075000 0.000000
vt 0.030000 0.075000 0.000000
vt -0.000000 0.000000 0.000000
vt 0.270187 0.000000 0.000000
vt -0.000000 0.075000 0.000000
vt 0.270187 0.075000 0.000000
vt -0.000000 0.000000 0.000000
vt 0.678508 0.000000 0.000000
vt -0.000000 0.075000 0.000000
vt 0.678508 0.075000 0.000000
vt 0.000000 0.000000 0.000000
vt 0.270187 0.000000 0.000000
vt 0.000000 0.075000 0.000000
vt 0.270187 0.075000 0.000000
vt -0.000000 0.000000 0.000000
vt 0.259762 0.000000 0.000000
vt -0.000000 0.075000 0.000000
vt 0.259762 0.075000 0.000000
vt 0.000000 0.000000 0.000000
vt 0.030000 0.000000 0.000000
vt 0.000000 0.075000 0.000000
vt 0.030000 0.075000 0.000000
vt 0.000000 0.000000 0.000000
vt 0.229762 0.000000 0.000000
vt -0.000000 0.075000 0.000000
vt 0.229762 0.075000 0.000000
vt 0.000000 0.000000 0.000000
vt 0.210187 0.000000 0.000000
vt 0.000000 0.075000 0.000000
vt 0.210187 0.075000 0.000000
vt 0.000000 0.000000 0.000000
vt 0.618508 0.000000 0.000000
vt 0.000000 0.075000 0.000000
vt 0.618508 0.075000 0.000000
vt 0.000000 0.000000 0.000000
vt 0.240187 0.000000 0.000000
vt 0.000000 0.075000 0.000000
vt 0.240187 0.075000 0.000000
vt -0.309254 -0.135093 0.000000
vt -0.309254 0.105093 0.000000
vt -0.339254 -0.135093 0.000000
vt -0.339254 0.135093 0.000000
vt 0.309254 0.105093 0.000000
vt 0.339254 0.135093 0.000000
vt 0.339254 -0.135093 0.000000
vt 0.309254 -0.105093 0.000000
vt 0.079492 -0.135093 0.000000
vt 0.079492 -0.105093 0.000000
vt 0.309254 -0.135093 0.000000
vt 0.339254 -0.135093 0.000000
vt 0.309254 0.105093 0.000000
vt 0.339254 0.135093 0.000000
vt -0.339254 0.135093 0.000000
vt -0.309254 0.105093 0.000000
vt -0.339254 -0.135093 0.000000
vt -0.309254 -0.105093 0.000000
vt -0.079492 -0.135093 0.000000
vt -0.079492 -0.105093 0.000000
vn 0.000000 -1.000000 0.000000
vn 0.000000 -1.000000 0.000000
vn 0.000000 -1.000000 0.000000
vn 0.000000 -1.000000 0.000000
vn -1.000000 0.000000 0.000000
vn -1.000000 0.000000 0.000000
vn -1.000000 0.000000 0.000000
vn -1.000000 0.000000 0.000000
vn 0.000000 1.000000 0.000000
vn 0.000000 1.000000 0.000000
vn 0.000000 1.000000 0.000000
vn 0.000000 1.000000 0.000000
vn 1.000000 0.000000 -0.000000
vn 1.000000 0.000000 -0.000000
vn 1.000000 0.000000 -0.000000
vn 1.000000 0.000000 -0.000000
vn 0.000000 -1.000000 0.000000
vn 0.000000 -1.000000 0.000000
vn 0.000000 -1.000000 0.000000
vn 0.000000 -1.000000 0.000000
vn -1.000000 0.000000 0.000000
vn -1.000000 0.000000 0.000000
vn -1.000000 0.000000 0.000000
vn -1.000000 0.000000 0.000000
vn 0.000000 1.000000 -0.000000
vn 0.000000 1.000000 -0.000000
vn 0.000000 1.000000 -0.000000
vn 0.000000 1.000000 -0.000000
vn -1.000000 -0.000000 0.000000
vn -1.000000 -0.000000 0.000000
vn -1.000000 -0.000000 0.000000
vn -1.000000 -0.000000 0.000000
vn 0.000000 -1.000000 0.000000
vn 0.000000 -1.000000 0.000000
vn 0.000000 -1.000000 0.000000
vn 0.000000 -1.000000 0.000000
vn 1.000000 0.000000 0.000000
vn 1.000000 0.000000 0.000000
vn 1.000000 0.000000 0.000000
vn 1.000000 0.000000 0.000000
vn 0.000000 0.000000 1.000000
vn 0.000000 0.000000 1.000000
vn 0.000000 0.000000 1.000000
vn 0.000000 0.000000 1.000000
vn 0.000000 0.000000 1.000000
vn 0.000000 0.000000 1.000000
vn 0.000000 0.000000 1.000000
vn 0.000000 0.000000 1.000000
vn 0.000000 0.000000 1.000000
vn 0.000000 0.000000 1.000000
vn -0.000000 0.000000 -1.000000
vn -0.000000 0.000000 -1.000000
vn -0.000000 0.000000 -1.000000
vn -0.000000 0.000000 -1.000000
vn -0.000000 0.000000 -1.000000
vn -0.000000 0.000000 -1.000000
vn -0.000000 0.000000 -1.000000
vn -0.000000 0.000000 -1.000000
vn -0.000000 0.000000 -1.000000
vn -0.000000 0.000000 -1.000000
usemtl Steel_-_Satin
f 1/1/1 2/2/2 4/3/3
f 4/3/3 2/2/2 3/4/4
f 5/5/5 1/6/6 6/7/7
f 6/7/7 1/6/6 4/8/8
f 7/9/9 5/10/10 8/11/11
f 8/11/11 5/10/10 6/12/12
f 9/13/13 7/14/14 10/15/15
f 10/15/15 7/14/14 8/16/16
f 11/17/17 9/18/18 12/19/19
f 12/19/19 9/18/18 10/20/20
f 13/21/21 11/22/22 14/23/23
f 14/23/23 11/22/22 12/24/24
f 15/25/25 13/26/26 16/27/27
f 16/27/27 13/26/26 14/28/28
f 17/29/29 15/30/30 18/31/31
f 18/31/31 15/30/30 16/32/32
f 19/33/33 17/34/34 20/35/35
f 20/35/35 17/34/34 18/36/36
f 2/37/37 19/38/38 3/39/39
f 3/39/39 19/38/38 20/40/40
f 3/41/41 20/42/42 4/43/43
f 4/43/43 20/42/42 6/44/44
f 6/44/44 20/42/42 18/45/45
f 6/44/44 18/45/45 8/46/46
f 8/46/46 18/45/45 10/47/47
f 10/47/47 18/45/45 16/48/48
f 10/47/47 16/48/48 12/49/49
f 12/49/49 16/48/48 14/50/50
f 2/51/51 1/52/52 19/53/53
f 19/53/53 1/52/52 5/54/54
f 19/53/53 5/54/54 7/55/55
f 19/53/53 7/55/55 17/56/56
f 17/56/56 7/55/55 9/57/57
f 17/56/56 9/57/57 15/58/58
f 15/58/58 9/57/57 11/59/59
f 15/58/58 11/59/59 13/60/60
g Body4

v 0.229521 0.234822 0.000000
v 0.229521 0.433285 0.000000
v 0.229521 0.433285 0.075000
v 0.229521 0.234822 0.075000
v 0.199521 0.234822 0.000000
v 0.199521 0.234822 0.075000
v 0.199521 0.463285 0.000000
v 0.199521 0.463285 0.075000
v 0.801409 0.463285 0.000000
v 0.801409 0.463285 0.075000
v 0.801409 -0.226365 0.000000
v 0.801409 -0.226365 0.075000
v -0.481197 -0.226365 0.000000
v -0.481197 -0.226365 0.075000
v -0.481197 -0.196365 0.000000
v -0.481197 -0.196365 0.075000
v 0.771409 -0.196365 0.000000
v 0.771409 -0.196365 0.075000
v 0.771409 0.433285 0.000000
v 0.771409 0.433285 0.075000
vt 0.000000 0.000000 0.000000
vt 0.198463 0.000000 0.000000
vt 0.000000 0.075000 0.000000
vt 0.198463 0.075000 0.000000
vt 0.000000 0.000000 0.000000
vt 0.030000 0.000000 0.000000
vt 0.000000 0.075000 0.000000
vt 0.030000 0.075000 0.000000
vt -0.000000 0.000000 0.000000
vt 0.228463 0.000000 0.000000
vt -0.000000 0.075000 0.000000
vt 0.228463 0.075000 0.000000
vt 0.000000 0.000000 0.000000
vt 0.601888 0.000000 0.000000
vt 0.000000 0.075000 0.000000
vt 0.601888 0.075000 0.000000
vt 0.000000 0.000000 0.000000
vt 0.689650 0.000000 0.000000
vt 0.000000 0.075000 0.000000
vt 0.689650 0.075000 0.000000
vt 0.000000 0.000000 0.000000
vt 1.282607 0.000000 0.000000
vt 0.000000 0.075000 0.000000
vt 1.282607 0.075000 0.000000
vt 0.000000 0.000000 0.000000
vt 0.030000 0.000000 0.000000
vt 0.000000 0.075000 0.000000
vt 0.030000 0.075000 0.000000
vt 0.000000 0.000000 0.000000
vt 1.252607 0.000000 0.000000
vt 0.000000 0.075000 0.000000
vt 1.252607 0.075000 0.000000
vt -0.000000 0.000000 0.000000
vt 0.629650 0.000000 0.000000
vt -0.000000 0.075000 0.000000
vt 0.629650 0.075000 0.000000
vt 0.000000 0.000000 0.000000
vt 0.541888 0.000000 0.000000
vt 0.000000 0.075000 0.000000
vt 0.541888 0.075000 0.000000
vt 0.611303 0.314825 0.000000
vt 0.039415 0.344825 0.000000
vt 0.069415 0.314825 0.000000
vt 0.039415 0.116362 0.000000
vt 0.069415 0.116362 0.000000
vt 0.611303 -0.314825 0.000000
vt 0.641303 -0.344825 0.000000
vt 0.641303 0.344825 0.000000
vt -0.641303 -0.314825 0.000000
vt -0.641303 -0.344825 0.000000
vt -0.069415 0.314825 0.000000
vt -0.641303 0.344825 0.000000
vt -0.611303 0.314825 0.000000
vt -0.641303 -0.344825 0.000000
vt -0.611303 -0.314825 0.000000
vt 0.641303 -0.344825 0.000000
vt 0.641303 -0.314825 0.000000
vt -0.069415 0.116362 0.000000
vt -0.039415 0.116362 0.000000
vt -0.039415 0.344825 0.000000
vn 1.000000 0.000000 -0.000000
vn 1.000000 0.000000 -0.000000
vn 1.000000 0.000000 -0.000000
vn 1.000000 0.000000 -0.000000
vn 0.000000 -1.000000 0.000000
vn 0.000000 -1.000000 0.000000
vn 0.000000 -1.000000 0.000000
vn 0.000000 -1.000000 0.000000
vn -1.000000 0.000000 0.000000
vn -1.000000 0.000000 0.000000
vn -1.000000 0.000000 0.000000
vn -1.000000 0.000000 0.000000
vn 0.000000 1.000000 -0.000000
vn 0.000000 1.000000 -0.000000
vn 0.000000 1.000000 -0.000000
vn 0.000000 1.000000 -0.000000
vn 1.000000 0.000000 -0.000000
vn 1.000000 0.000000 -0.000000
vn 1.000000 0.000000 -0.000000
vn 1.000000 0.000000 -0.000000
vn 0.000000 -1.000000 0.000000
vn 0.000000 -1.000000 0.000000
vn 0.000000 -1.000000 0.000000
vn 0.000000 -1.000000 0.000000
vn -1.000000 0.000000 0.000000
vn -1.000000 0.000000 0.000000
vn -1.000000 0.000000 0.000000
vn -1.000000 0.000000 0.000000
vn 0.000000 1.000000 -0.000000
vn 0.000000 1.000000 -0.000000
vn 0.000000 1.000000 -0.000000
vn 0.000000 1.000000 -0.000000
vn -1.000000 0.000000 0.000000
vn -1.000000 0.000000 0.000000
vn -1.000000 0.000000 0.000000
vn -1.000000 0.000000 0.000000
vn 0.000000 -1.000000 0.000000
vn 0.000000 -1.000000 0.000000
vn 0.000000 -1.000000 0.000000
vn 0.000000 -1.000000 0.000000
vn 0.000000 0.000000 1.000000
vn 0.000000 0.000000 1.000000
vn 0.000000 0.000000 1.000000
vn 0.000000 0.000000 1.000000
vn 0.000000 0.000000 1.000000
vn 0.000000 0.000000 1.000000
vn 0.000000 0.000000 1.000000
vn 0.000000 0.000000 1.000000
vn 0.000000 0.000000 1.000000
vn 0.000000 0.000000 1.000000
vn -0.000000 -0.000000 -1.000000
vn -0.000000 -0.000000 -1.000000
vn -0.000000 -0.000000 -1.000000
vn -0.000000 -0.000000 -1.000000
vn -0.000000 -0.000000 -1.000000
vn -0.000000 -0.000000 -1.000000
vn -0.000000 -0.000000 -1.000000
vn -0.000000 -0.000000 -1.000000
vn -0.000000 -0.000000 -1.000000
vn -0.000000 -0.000000 -1.000000
f 21/61/61 22/62/62 24/63/63
f 24/63/63 22/62/62 23/64/64
f 25/65/65 21/66/66 26/67/67
f 26/67/67 21/66/66 24/68/68
f 27/69/69 25/70/70 28/71/71
f 28/71/71 25/70/70 26/72/72
f 29/73/73 27/74/74 30/75/75
f 30/75/75 27/74/74 28/76/76
f 31/77/77 29/78/78 32/79/79
f 32/79/79 29/78/78 30/80/80
f 33/81/81 31/82/82 34/83/83
f 34/83/83 31/82/82 32/84/84
f 35/85/85 33/86/86 36/87/87
f 36/87/87 33/86/86 34/88/88
f 37/89/89 35/90/90 38/91/91
f 38/91/91 35/90/90 36/92/92
f 39/93/93 37/94/94 40/95/95
f 40/95/95 37/94/94 38/96/96
f 22/97/97 39/98/98 23/99/99
f 23/99/99 39/98/98 40/100/100
f 40/101/101 28/102/102 23/103/103
f 23/103/103 28/102/102 26/104/104
f 23/103/103 26/104/104 24/105/105
f 38/106/106 32/107/107 40/101/101
f 40/101/101 32/107/107 30/108/108
f 40/101/101 30/108/108 28/102/102
f 36/109/109 34/110/110 38/106/106
f 38/106/106 34/110/110 32/107/107
f 22/111/111 29/112/112 39/113/113
f 39/113/113 29/112/112 31/114/114
f 39/113/113 31/114/114 37/115/115
f 37/115/115 31/114/114 33/116/116
f 37/115/115 33/116/116 35/117/117
f 21/118/118 25/119/119 22/111/111
f 22/111/111 25/119/119 27/120/120
f 22/111/111 27/120/120 29/112/112
g Body5

v -0.295270 0.880422 0.000000
v 0.001943 0.880422 0.000000
v 0.001943 0.880422 0.075000
v -0.295270 0.880422 0.075000
v 1.103062 0.910422 0.075000
v -0.904385 0.910422 0.075000
v -0.904385 -1.104756 0.075000
v 1.103062 -1.104756 0.075000
v -0.295270 0.494644 0.075000
v 0.001943 0.494644 0.075000
v -0.325270 0.494644 0.075000
v -0.634675 0.494644 0.075000
v -0.634675 0.880422 0.075000
v -0.325270 0.880422 0.075000
v -0.422114 -1.074756 0.075000
v -0.422114 -0.859140 0.075000
v -0.016450 -0.859140 0.075000
v -0.016450 -1.074756 0.075000
v 1.073062 0.707025 0.075000
v 0.696280 0.707025 0.075000
v 0.696280 0.880422 0.075000
v 1.073062 0.880422 0.075000
v -0.664675 0.464644 0.075000
v 0.031943 0.464644 0.075000
v 0.031943 0.880422 0.075000
v 0.209253 0.880422 0.075000
v 0.209253 0.677025 0.075000
v 0.414277 0.677025 0.075000
v 0.414277 0.707025 0.075000
v 0.239253 0.707025 0.075000
v 0.239253 0.880422 0.075000
v 0.666280 0.880422 0.075000
v 0.666280 0.707025 0.075000
v 0.619837 0.707025 0.075000
v 0.619837 0.677025 0.075000
v 1.073062 0.677025 0.075000
v 1.073062 -0.293329 0.075000
v 0.417377 -0.293329 0.075000
v 0.417377 -0.589168 0.075000
v 0.447377 -0.589168 0.075000
v 0.447377 -0.323329 0.075000
v 1.073062 -0.323329 0.075000
v 1.073062 -0.829931 0.075000
v 0.447377 -0.829931 0.075000
v 0.447377 -0.787865 0.075000
v 0.417377 -0.787865 0.075000
v 0.417377 -0.859931 0.075000
v 1.073062 -0.859931 0.075000
v 1.073062 -1.074756 0.075000
v 0.013550 -1.074756 0.075000
v 0.013550 -0.829140 0.075000
v -0.452114 -0.829140 0.075000
v -0.452114 -1.074756 0.075000
v -0.874385 -1.074756 0.075000
v -0.874385 -0.226365 0.075000
v -0.779409 -0.226365 0.075000
v -0.779409 -0.196365 0.075000
v -0.874385 -0.196365 0.075000
v -0.874385 0.233733 0.075000
v -0.334452 0.233733 0.075000
v -0.334452 0.006506 0.075000
v -0.304452 0.006506 0.075000
v -0.304452 0.233733 0.075000
v -0.109159 0.233733 0.075000
v -0.109159 0.263733 0.075000
v -0.874385 0.263733 0.075000
v -0.874385 0.880422 0.075000
v -0.664675 0.880422 0.075000
v -0.325270 0.494644 0.000000
v -0.634675 0.494644 0.000000
v -0.664675 0.880422 0.000000
v -0.664675 0.464644 0.000000
v -0.634675 0.880422 0.000000
v -0.874385 0.880422 0.000000
v -0.325270 0.880422 0.000000
v -0.295270 0.494644 0.000000
v 0.001943 0.494644 0.000000
v 0.417377 -0.787865 0.000000
v 0.417377 -0.859931 0.000000
v 0.447377 -0.787865 0.000000
v 0.447377 -0.829931 0.000000
v 1.073062 -0.829931 0.000000
v 1.073062 -0.323329 0.000000
v 0.447377 -0.323329 0.000000
v 0.447377 -0.589168 0.000000
v 0.417377 -0.589168 0.000000
v 0.417377 -0.293329 0.000000
v 1.073062 -0.293329 0.000000
v 1.073062 0.677025 0.000000
v 0.619837 0.677025 0.000000
v 0.619837 0.707025 0.000000
v 0.666280 0.707025 0.000000
v 0.666280 0.880422 0.000000
v 0.239253 0.880422 0.000000
v 0.239253 0.707025 0.000000
v 0.414277 0.707025 0.000000
v 0.414277 0.677025 0.000000
v 0.209253 0.677025 0.000000
v 0.209253 0.880422 0.000000
v 0.031943 0.880422 0.000000
v 0.031943 0.464644 0.000000
v -0.874385 0.263733 0.000000
v -0.109159 0.263733 0.000000
v -0.109159 0.233733 0.000000
v -0.304452 0.233733 0.000000
v -0.304452 0.006506 0.000000
v -0.334452 0.006506 0.000000
v -0.334452 0.233733 0.000000
v -0.874385 0.233733 0.000000
v -0.874385 -0.196365 0.000000
v -0.779409 -0.196365 0.000000
v -0.779409 -0.226365 0.000000
v -0.874385 -0.226365 0.000000
v -0.874385 -1.074756 0.000000
v -0.452114 -1.074756 0.000000
v -0.452114 -0.829140 0.000000
v 0.013550 -0.829140 0.000000
v 0.013550 -1.074756 0.000000
v 1.073062 -1.074756 0.000000
v 1.073062 -0.859931 0.000000
v -0.016450 -1.074756 0.000000
v -0.422114 -1.074756 0.000000
v -0.016450 -0.859140 0.000000
v -0.422114 -0.859140 0.000000
v 1.073062 0.880422 0.000000
v 1.073062 0.707025 0.000000
v 0.696280 0.880422 0.000000
v 0.696280 0.707025 0.000000
v 1.103062 -1.104756 0.000000
v 1.103062 0.910422 0.000000
v -0.904385 -1.104756 0.000000
v -0.904385 0.910422 0.000000
vt -0.297213 0.000000 0.000000
vt -0.000000 0.000000 0.000000
vt -0.297213 0.075000 0.000000
vt -0.000000 0.075000 0.000000
vt -1.003724 1.007589 0.000000
vt -0.067396 0.977589 0.000000
vt 1.003724 1.007589 0.000000
vt 0.109914 0.977589 0.000000
vt 0.139914 0.977589 0.000000
vt 0.139914 0.804192 0.000000
vt 0.109914 0.774192 0.000000
vt 0.314938 0.774192 0.000000
vt -1.003724 -1.007589 0.000000
vt -0.973724 -0.099198 0.000000
vt -0.973724 0.330900 0.000000
vt -0.973724 0.360900 0.000000
vt -0.433790 0.330900 0.000000
vt -0.208498 0.360900 0.000000
vt -0.403790 0.330900 0.000000
vt -0.208498 0.330900 0.000000
vt 1.003724 -1.007589 0.000000
vt -0.085788 -0.977589 0.000000
vt -0.115788 -0.977589 0.000000
vt -0.521452 -0.977589 0.000000
vt 0.973724 -0.196162 0.000000
vt 0.973724 -0.226162 0.000000
vt 0.973724 -0.732764 0.000000
vt -0.394609 0.977589 0.000000
vt -0.424609 0.977589 0.000000
vt -0.394609 0.591812 0.000000
vt -0.424609 0.591812 0.000000
vt -0.067396 0.561812 0.000000
vt -0.764014 0.561812 0.000000
vt -0.734014 0.591812 0.000000
vt -0.764014 0.977589 0.000000
vt -0.734014 0.977589 0.000000
vt -0.097396 0.977589 0.000000
vt -0.097396 0.591812 0.000000
vt -0.551452 -0.977589 0.000000
vt -0.521452 -0.761973 0.000000
vt -0.551452 -0.731973 0.000000
vt -0.115788 -0.761973 0.000000
vt -0.085788 -0.731973 0.000000
vt 0.596941 0.804192 0.000000
vt 0.973724 0.774192 0.000000
vt 0.973724 0.804192 0.000000
vt 0.973724 0.977589 0.000000
vt 0.596941 0.977589 0.000000
vt 0.566941 0.977589 0.000000
vt 0.566941 0.804192 0.000000
vt 0.520499 0.774192 0.000000
vt 0.520499 0.804192 0.000000
vt 0.314938 0.804192 0.000000
vt 0.348038 -0.226162 0.000000
vt 0.318038 -0.196162 0.000000
vt 0.318038 -0.492001 0.000000
vt 0.348038 -0.492001 0.000000
vt 0.973724 -0.762764 0.000000
vt 0.348038 -0.732764 0.000000
vt 0.318038 -0.762764 0.000000
vt 0.318038 -0.690698 0.000000
vt 0.348038 -0.690698 0.000000
vt 0.973724 -0.977589 0.000000
vt -0.973724 -0.977589 0.000000
vt -0.973724 -0.129198 0.000000
vt -0.878748 -0.129198 0.000000
vt -0.878748 -0.099198 0.000000
vt -0.433790 0.103674 0.000000
vt -0.403790 0.103674 0.000000
vt -0.973724 0.977589 0.000000
vt -0.000000 0.000000 0.000000
vt 0.309405 0.000000 0.000000
vt -0.000000 0.075000 0.000000
vt 0.309405 0.075000 0.000000
vt 0.000000 0.000000 0.000000
vt 0.415777 0.000000 0.000000
vt 0.000000 0.075000 0.000000
vt 0.415777 0.075000 0.000000
vt 0.000000 0.000000 0.000000
vt 0.385777 0.000000 0.000000
vt 0.000000 0.075000 0.000000
vt 0.385777 0.075000 0.000000
vt 0.209710 0.075000 0.000000
vt 0.000000 0.075000 0.000000
vt 0.209710 0.000000 0.000000
vt 0.000000 0.000000 0.000000
vt 0.239710 0.000000 0.000000
vt 0.549115 0.000000 0.000000
vt 0.239710 0.075000 0.000000
vt 0.549115 0.075000 0.000000
vt 0.000000 0.000000 0.000000
vt 0.385777 0.000000 0.000000
vt 0.000000 0.075000 0.000000
vt 0.385777 0.075000 0.000000
vt -0.000000 0.000000 0.000000
vt 0.297213 0.000000 0.000000
vt -0.000000 0.075000 0.000000
vt 0.297213 0.075000 0.000000
vt -0.030000 0.000000 0.000000
vt 0.355777 0.000000 0.000000
vt -0.030000 0.075000 0.000000
vt 0.355777 0.075000 0.000000
vt -0.000000 0.000000 0.000000
vt 0.072066 0.000000 0.000000
vt 0.000000 0.075000 0.000000
vt 0.072066 0.075000 0.000000
vt -0.000000 0.000000 0.000000
vt 0.030000 0.000000 0.000000
vt 0.000000 0.075000 0.000000
vt 0.030000 0.075000 0.000000
vt 0.000000 0.000000 0.000000
vt 0.042066 0.000000 0.000000
vt 0.000000 0.075000 0.000000
vt 0.042066 0.075000 0.000000
vt 0.000000 0.000000 0.000000
vt 0.625686 0.000000 0.000000
vt 0.000000 0.075000 0.000000
vt 0.625686 0.075000 0.000000
vt 0.000000 0.000000 0.000000
vt 0.506602 0.000000 0.000000
vt 0.000000 0.075000 0.000000
vt 0.506602 0.075000 0.000000
vt 0.000000 0.000000 0.000000
vt 0.625686 0.000000 0.000000
vt 0.000000 0.075000 0.000000
vt 0.625686 0.075000 0.000000
vt 0.000000 0.000000 0.000000
vt 0.265839 0.000000 0.000000
vt 0.000000 0.075000 0.000000
vt 0.265839 0.075000 0.000000
vt 0.000000 0.000000 0.000000
vt 0.030000 0.000000 0.000000
vt -0.000000 0.075000 0.000000
vt 0.030000 0.075000 0.000000
vt -0.000000 0.000000 0.000000
vt 0.295839 0.000000 0.000000
vt 0.000000 0.075000 0.000000
vt 0.295839 0.075000 0.000000
vt -0.000000 0.000000 0.000000
vt 0.655686 0.000000 0.000000
vt -0.000000 0.075000 0.000000
vt 0.655686 0.075000 0.000000
vt 0.000000 0.000000 0.000000
vt 0.970354 0.000000 0.000000
vt 0.000000 0.075000 0.000000
vt 0.970354 0.075000 0.000000
vt 0.000000 0.000000 0.000000
vt 0.453225 0.000000 0.000000
vt 0.000000 0.075000 0.000000
vt 0.453225 0.075000 0.000000
vt 0.000000 0.000000 0.000000
vt 0.030000 0.000000 0.000000
vt 0.000000 0.075000 0.000000
vt 0.030000 0.075000 0.000000
vt 0.000000 0.000000 0.000000
vt 0.046443 0.000000 0.000000
vt 0.000000 0.075000 0.000000
vt 0.046443 0.075000 0.000000
vt 0.000000 0.000000 0.000000
vt 0.173397 0.000000 0.000000
vt 0.000000 0.075000 0.000000
vt 0.173397 0.075000 0.000000
vt 0.000000 0.000000 0.000000
vt 0.427027 0.000000 0.000000
vt -0.000000 0.075000 0.000000
vt 0.427027 0.075000 0.000000
vt 0.000000 0.000000 0.000000
vt 0.173397 0.000000 0.000000
vt 0.000000 0.075000 0.000000
vt 0.173397 0.075000 0.000000
vt 0.000000 0.000000 0.000000
vt 0.175024 0.000000 0.000000
vt 0.000000 0.075000 0.000000
vt 0.175024 0.075000 0.000000
vt 0.000000 0.000000 0.000000
vt 0.030000 0.000000 0.000000
vt 0.000000 0.075000 0.000000
vt 0.030000 0.075000 0.000000
vt 0.000000 0.000000 0.000000
vt 0.205024 0.000000 0.000000
vt -0.000000 0.075000 0.000000
vt 0.205024 0.075000 0.000000
vt 0.000000 0.000000 0.000000
vt 0.203397 0.000000 0.000000
vt 0.000000 0.075000 0.000000
vt 0.203397 0.075000 0.000000
vt 0.000000 0.000000 0.000000
vt 0.177310 0.000000 0.000000
vt 0.000000 0.075000 0.000000
vt 0.177310 0.075000 0.000000
vt 0.000000 0.000000 0.000000
vt 0.415777 0.000000 0.000000
vt 0.000000 0.075000 0.000000
vt 0.415777 0.075000 0.000000
vt -0.339405 0.000000 0.000000
vt 0.357213 0.000000 0.000000
vt -0.339405 0.075000 0.000000
vt 0.357213 0.075000 0.000000
vt 0.385777 0.075000 0.000000
vt 0.000000 0.075000 0.000000
vt 0.385777 0.000000 0.000000
vt -0.000000 0.000000 0.000000
vt 0.000000 0.000000 0.000000
vt 0.616689 0.000000 0.000000
vt 0.000000 0.075000 0.000000
vt 0.616689 0.075000 0.000000
vt 0.000000 0.000000 0.000000
vt 0.765226 0.000000 0.000000
vt 0.000000 0.075000 0.000000
vt 0.765226 0.075000 0.000000
vt 0.000000 0.000000 0.000000
vt 0.030000 0.000000 0.000000
vt 0.000000 0.075000 0.000000
vt 0.030000 0.075000 0.000000
vt 0.000000 0.000000 0.000000
vt 0.195293 0.000000 0.000000
vt 0.000000 0.075000 0.000000
vt 0.195293 0.075000 0.000000
vt 0.000000 0.000000 0.000000
vt 0.227227 0.000000 0.000000
vt -0.000000 0.075000 0.000000
vt 0.227227 0.075000 0.000000
vt 0.000000 0.000000 0.000000
vt 0.030000 0.000000 0.000000
vt -0.000000 0.075000 0.000000
vt 0.030000 0.075000 0.000000
vt -0.000000 0.000000 0.000000
vt 0.227227 0.000000 0.000000
vt 0.000000 0.075000 0.000000
vt 0.227227 0.075000 0.000000
vt 0.000000 0.000000 0.000000
vt 0.539933 0.000000 0.000000
vt 0.000000 0.075000 0.000000
vt 0.539933 0.075000 0.000000
vt 0.000000 0.000000 0.000000
vt 0.430098 0.000000 0.000000
vt 0.000000 0.075000 0.000000
vt 0.430098 0.075000 0.000000
vt -0.000000 0.000000 0.000000
vt 0.094976 0.000000 0.000000
vt 0.000000 0.075000 0.000000
vt 0.094976 0.075000 0.000000
vt 0.000000 0.000000 0.000000
vt 0.030000 0.000000 0.000000
vt -0.000000 0.075000 0.000000
vt 0.030000 0.075000 0.000000
vt 0.000000 0.000000 0.000000
vt 0.094976 0.000000 0.000000
vt 0.000000 0.075000 0.000000
vt 0.094976 0.075000 0.000000
vt 0.000000 0.000000 0.000000
vt 0.848391 0.000000 0.000000
vt 0.000000 0.075000 0.000000
vt 0.848391 0.075000 0.000000
vt 0.000000 0.000000 0.000000
vt 0.422271 0.000000 0.000000
vt -0.000000 0.075000 0.000000
vt 0.422271 0.075000 0.000000
vt -0.000000 0.000000 0.000000
vt 0.245615 0.000000 0.000000
vt -0.000000 0.075000 0.000000
vt 0.245615 0.075000 0.000000
vt -0.000000 0.000000 0.000000
vt 0.465664 0.000000 0.000000
vt -0.000000 0.075000 0.000000
vt 0.465664 0.075000 0.000000
vt 0.000000 0.000000 0.000000
vt 0.245615 0.000000 0.000000
vt -0.000000 0.075000 0.000000
vt 0.245615 0.075000 0.000000
vt 0.000000 0.000000 0.000000
vt 1.059512 0.000000 0.000000
vt 0.000000 0.075000 0.000000
vt 1.059512 0.075000 0.000000
vt -0.000000 0.000000 0.000000
vt 0.214825 0.000000 0.000000
vt -0.000000 0.075000 0.000000
vt 0.214825 0.075000 0.000000
vt 0.000000 0.000000 0.000000
vt 0.655686 0.000000 0.000000
vt 0.000000 0.075000 0.000000
vt 0.655686 0.075000 0.000000
vt 0.000000 0.000000 0.000000
vt 0.405664 0.000000 0.000000
vt -0.000000 0.075000 0.000000
vt 0.405664 0.075000 0.000000
vt 0.000000 0.000000 0.000000
vt 0.215615 0.000000 0.000000
vt 0.000000 0.075000 0.000000
vt 0.215615 0.075000 0.000000
vt 0.000000 0.000000 0.000000
vt 0.405664 0.000000 0.000000
vt -0.000000 0.075000 0.000000
vt 0.405664 0.075000 0.000000
vt 0.000000 0.000000 0.000000
vt 0.215615 0.000000 0.000000
vt 0.000000 0.075000 0.000000
vt 0.215615 0.075000 0.000000
vt 0.000000 0.000000 0.000000
vt 0.173397 0.000000 0.000000
vt 0.000000 0.075000 0.000000
vt 0.173397 0.075000 0.000000
vt -0.000000 0.000000 0.000000
vt 0.376782 0.000000 0.000000
vt -0.000000 0.075000 0.000000
vt 0.376782 0.075000 0.000000
vt 0.000000 0.000000 0.000000
vt 0.173397 0.000000 0.000000
vt 0.000000 0.075000 0.000000
vt 0.173397 0.075000 0.000000
vt 0.000000 0.000000 0.000000
vt 0.376782 0.000000 0.000000
vt 0.000000 0.075000 0.000000
vt 0.376782 0.075000 0.000000
vt 0.000000 0.000000 0.000000
vt 2.015177 0.000000 0.000000
vt 0.000000 0.075000 0.000000
vt 2.015177 0.075000 0.000000
vt 0.000000 0.000000 0.000000
vt 2.007447 0.000000 0.000000
vt 0.000000 0.075000 0.000000
vt 2.007447 0.075000 0.000000
vt -0.000000 0.000000 0.000000
vt 2.015177 0.000000 0.000000
vt -0.000000 0.075000 0.000000
vt 2.015177 0.075000 0.000000
vt -0.000000 0.000000 0.000000
vt 2.007447 0.000000 0.000000
vt -0.000000 0.075000 0.000000
vt 2.007447 0.075000 0.000000
vt 0.394609 0.591812 0.000000
vt 0.424609 0.591812 0.000000
vt 0.394609 0.977589 0.000000
vt 0.424609 0.977589 0.000000
vt 1.003724 1.007589 0.000000
vt 0.734014 0.977589 0.000000
vt 0.764014 0.977589 0.000000
vt 0.734014 0.591812 0.000000
vt 0.764014 0.561812 0.000000
vt 0.067396 0.561812 0.000000
vt 0.097396 0.591812 0.000000
vt 0.067396 0.977589 0.000000
vt 0.097396 0.977589 0.000000
vt -0.973724 0.804192 0.000000
vt -0.973724 0.774192 0.000000
vt -0.596941 0.804192 0.000000
vt -0.520499 0.774192 0.000000
vt -0.566941 0.804192 0.000000
vt -0.520499 0.804192 0.000000
vt -1.003724 1.007589 0.000000
vt -0.973724 0.977589 0.000000
vt -0.596941 0.977589 0.000000
vt -0.566941 0.977589 0.000000
vt -0.139914 0.977589 0.000000
vt -0.109914 0.977589 0.000000
vt -0.139914 0.804192 0.000000
vt -0.109914 0.774192 0.000000
vt -0.314938 0.774192 0.000000
vt -0.314938 0.804192 0.000000
vt 0.521452 -0.977589 0.000000
vt 0.551452 -0.977589 0.000000
vt 0.521452 -0.761973 0.000000
vt 0.551452 -0.731973 0.000000
vt 0.085788 -0.731973 0.000000
vt 1.003724 -1.007589 0.000000
vt 0.115788 -0.977589 0.000000
vt 0.085788 -0.977589 0.000000
vt 0.115788 -0.761973 0.000000
vt 0.973724 0.977589 0.000000
vt 0.973724 0.360900 0.000000
vt 0.973724 0.330900 0.000000
vt 0.433790 0.330900 0.000000
vt 0.208498 0.360900 0.000000
vt 0.403790 0.330900 0.000000
vt 0.208498 0.330900 0.000000
vt 0.403790 0.103674 0.000000
vt 0.433790 0.103674 0.000000
vt 0.973724 -0.099198 0.000000
vt 0.973724 -0.129198 0.000000
vt 0.973724 -0.977589 0.000000
vt 0.878748 -0.099198 0.000000
vt 0.878748 -0.129198 0.000000
vt -1.003724 -1.007589 0.000000
vt -0.973724 -0.977589 0.000000
vt -0.973724 -0.762764 0.000000
vt -0.318038 -0.762764 0.000000
vt -0.348038 -0.732764 0.000000
vt -0.973724 -0.732764 0.000000
vt -0.973724 -0.226162 0.000000
vt -0.973724 -0.196162 0.000000
vt -0.348038 -0.226162 0.000000
vt -0.318038 -0.196162 0.000000
vt -0.318038 -0.492001 0.000000
vt -0.348038 -0.492001 0.000000
vt -0.318038 -0.690698 0.000000
vt -0.348038 -0.690698 0.000000
vn -0.000000 -1.000000 0.000000
vn -0.000000 -1.000000 0.000000
vn -0.000000 -1.000000 0.000000
vn -0.000000 -1.000000 0.000000
vn 0.000000 0.000000 1.000000
vn 0.000000 0.000000 1.000000
vn 0.000000 0.000000 1.000000
vn 0.000000 0.000000 1.000000
vn 0.000000 0.000000 1.000000
vn 0.000000 0.000000 1.000000
vn 0.000000 0.000000 1.000000
vn 0.000000 0.000000 1.000000
vn 0.000000 0.000000 1.000000
vn 0.000000 0.000000 1.000000
vn 0.000000 0.000000 1.000000
vn 0.000000 0.000000 1.000000
vn 0.000000 0.000000 1.000000
vn 0.000000 0.000000 1.000000
vn 0.000000 0.000000 1.000000
vn 0.000000 0.000000 1.000000
vn 0.000000 0.000000 1.000000
vn 0.000000 0.000000 1.000000
vn 0.000000 0.000000 1.000000
vn 0.000000 0.000000 1.000000
vn 0.000000 0.000000 1.000000
vn 0.000000 0.000000 1.000000
vn 0.000000 0.000000 1.000000
vn 0.000000 0.000000 1.000000
vn 0.000000 0.000000 1.000000
vn 0.000000 0.000000 1.000000
vn 0.000000 0.000000 1.000000
vn 0.000000 0.000000 1.000000
vn 0.000000 0.000000 1.000000
vn 0.000000 0.000000 1.000000
vn 0.000000 0.000000 1.000000
vn 0.000000 0.000000 1.000000
vn 0.000000 0.000000 1.000000
vn 0.000000 0.000000 1.000000
vn 0.000000 0.000000 1.000000
vn 0.000000 0.000000 1.000000
vn 0.000000 0.000000 1.000000
vn 0.000000 0.000000 1.000000
vn 0.000000 0.000000 1.000000
vn 0.000000 0.000000 1.000000
vn 0.000000 0.000000 1.000000
vn 0.000000 0.000000 1.000000
vn 0.000000 0.000000 1.000000
vn 0.000000 0.000000 1.000000
vn 0.000000 0.000000 1.000000
vn 0.000000 0.000000 1.000000
vn 0.000000 0.000000 1.000000
vn 0.000000 0.000000 1.000000
vn 0.000000 0.000000 1.000000
vn 0.000000 0.000000 1.000000
vn 0.000000 0.000000 1.000000
vn 0.000000 0.000000 1.000000
vn 0.000000 0.000000 1.000000
vn 0.000000 0.000000 1.000000
vn 0.000000 0.000000 1.000000
vn 0.000000 0.000000 1.000000
vn 0.000000 0.000000 1.000000
vn 0.000000 0.000000 1.000000
vn 0.000000 0.000000 1.000000
vn 0.000000 0.000000 1.000000
vn 0.000000 0.000000 1.000000
vn 0.000000 0.000000 1.000000
vn 0.000000 0.000000 1.000000
vn 0.000000 0.000000 1.000000
vn 0.000000 0.000000 1.000000
vn 0.000000 0.000000 1.000000
vn 0.000000 1.000000 0.000000
vn 0.000000 1.000000 0.000000
vn 0.000000 1.000000 0.000000
vn 0.000000 1.000000 0.000000
vn -1.000000 0.000000 0.000000
vn -1.000000 0.000000 0.000000
vn -1.000000 0.000000 0.000000
vn -1.000000 0.000000 0.000000
vn 1.000000 0.000000 -0.000000
vn 1.000000 0.000000 -0.000000
vn 1.000000 0.000000 -0.000000
vn 1.000000 0.000000 -0.000000
vn 0.000000 -1.000000 0.000000
vn 0.000000 -1.000000 0.000000
vn 0.000000 -1.000000 0.000000
vn 0.000000 -1.000000 0.000000
vn 0.000000 -1.000000 0.000000
vn 0.000000 -1.000000 0.000000
vn 0.000000 -1.000000 0.000000
vn 0.000000 -1.000000 0.000000
vn 1.000000 0.000000 -0.000000
vn 1.000000 0.000000 -0.000000
vn 1.000000 0.000000 -0.000000
vn 1.000000 0.000000 -0.000000
vn 0.000000 1.000000 0.000000
vn 0.000000 1.000000 0.000000
vn 0.000000 1.000000 0.000000
vn 0.000000 1.000000 0.000000
vn -1.000000 0.000000 0.000000
vn -1.000000 0.000000 0.000000
vn -1.000000 0.000000 0.000000
vn -1.000000 0.000000 0.000000
vn -1.000000 0.000000 0.000000
vn -1.000000 0.000000 0.000000
vn -1.000000 0.000000 0.000000
vn -1.000000 0.000000 0.000000
vn 0.000000 1.000000 0.000000
vn 0.000000 1.000000 0.000000
vn 0.000000 1.000000 0.000000
vn 0.000000 1.000000 0.000000
vn 1.000000 0.000000 0.000000
vn 1.000000 0.000000 0.000000
vn 1.000000 0.000000 0.000000
vn 1.000000 0.000000 0.000000
vn 0.000000 1.000000 -0.000000
vn 0.000000 1.000000 -0.000000
vn 0.000000 1.000000 -0.000000
vn 0.000000 1.000000 -0.000000
vn -1.000000 0.000000 0.000000
vn -1.000000 0.000000 0.000000
vn -1.000000 0.000000 0.000000
vn -1.000000 0.000000 0.000000
vn 0.000000 -1.000000 0.000000
vn 0.000000 -1.000000 0.000000
vn 0.000000 -1.000000 0.000000
vn 0.000000 -1.000000 0.000000
vn 1.000000 0.000000 0.000000
vn 1.000000 0.000000 0.000000
vn 1.000000 0.000000 0.000000
vn 1.000000 0.000000 0.000000
vn 0.000000 -1.000000 0.000000
vn 0.000000 -1.000000 0.000000
vn 0.000000 -1.000000 0.000000
vn 0.000000 -1.000000 0.000000
vn -1.000000 0.000000 0.000000
vn -1.000000 0.000000 0.000000
vn -1.000000 0.000000 0.000000
vn -1.000000 0.000000 0.000000
vn 0.000000 1.000000 0.000000
vn 0.000000 1.000000 0.000000
vn 0.000000 1.000000 0.000000
vn 0.000000 1.000000 0.000000
vn -1.000000 0.000000 0.000000
vn -1.000000 0.000000 0.000000
vn -1.000000 0.000000 0.000000
vn -1.000000 0.000000 0.000000
vn 0.000000 -1.000000 0.000000
vn 0.000000 -1.000000 0.000000
vn 0.000000 -1.000000 0.000000
vn 0.000000 -1.000000 0.000000
vn -1.000000 0.000000 0.000000
vn -1.000000 0.000000 0.000000
vn -1.000000 0.000000 0.000000
vn -1.000000 0.000000 0.000000
vn 0.000000 1.000000 -0.000000
vn 0.000000 1.000000 -0.000000
vn 0.000000 1.000000 -0.000000
vn 0.000000 1.000000 -0.000000
vn -1.000000 0.000000 0.000000
vn -1.000000 0.000000 0.000000
vn -1.000000 0.000000 0.000000
vn -1.000000 0.000000 0.000000
vn -0.000000 -1.000000 0.000000
vn -0.000000 -1.000000 0.000000
vn -0.000000 -1.000000 0.000000
vn -0.000000 -1.000000 0.000000
vn 1.000000 0.000000 -0.000000
vn 1.000000 0.000000 -0.000000
vn 1.000000 0.000000 -0.000000
vn 1.000000 0.000000 -0.000000
vn 0.000000 1.000000 -0.000000
vn 0.000000 1.000000 -0.000000
vn 0.000000 1.000000 -0.000000
vn 0.000000 1.000000 -0.000000
vn 1.000000 0.000000 0.000000
vn 1.000000 0.000000 0.000000
vn 1.000000 0.000000 0.000000
vn 1.000000 0.000000 0.000000
vn 0.000000 -1.000000 0.000000
vn 0.000000 -1.000000 0.000000
vn 0.000000 -1.000000 0.000000
vn 0.000000 -1.000000 0.000000
vn -1.000000 0.000000 0.000000
vn -1.000000 0.000000 0.000000
vn -1.000000 0.000000 0.000000
vn -1.000000 0.000000 0.000000
vn -0.000000 -1.000000 0.000000
vn -0.000000 -1.000000 0.000000
vn -0.000000 -1.000000 0.000000
vn -0.000000 -1.000000 0.000000
vn 1.000000 0.000000 0.000000
vn 1.000000 0.000000 0.000000
vn 1.000000 0.000000 0.000000
vn 1.000000 0.000000 0.000000
vn 0.000000 -1.000000 0.000000
vn 0.000000 -1.000000 0.000000
vn 0.000000 -1.000000 0.000000
vn 0.000000 -1.000000 0.000000
vn -1.000000 0.000000 0.000000
vn -1.000000 0.000000 0.000000
vn -1.000000 0.000000 0.000000
vn -1.000000 0.000000 0.000000
vn 1.000000 0.000000 0.000000
vn 1.000000 0.000000 0.000000
vn 1.000000 0.000000 0.000000
vn 1.000000 0.000000 0.000000
vn 0.000000 1.000000 -0.000000
vn 0.000000 1.000000 -0.000000
vn 0.000000 1.000000 -0.000000
vn 0.000000 1.000000 -0.000000
vn 1.000000 0.000000 0.000000
vn 1.000000 0.000000 0.000000
vn 1.000000 0.000000 0.000000
vn 1.000000 0.000000 0.000000
vn 0.000000 -1.000000 0.000000
vn 0.000000 -1.000000 0.000000
vn 0.000000 -1.000000 0.000000
vn 0.000000 -1.000000 0.000000
vn 1.000000 0.000000 -0.000000
vn 1.000000 0.000000 -0.000000
vn 1.000000 0.000000 -0.000000
vn 1.000000 0.000000 -0.000000
vn 0.000000 -1.000000 0.000000
vn 0.000000 -1.000000 0.000000
vn 0.000000 -1.000000 0.000000
vn 0.000000 -1.000000 0.000000
vn -1.000000 0.000000 0.000000
vn -1.000000 0.000000 0.000000
vn -1.000000 0.000000 0.000000
vn -1.000000 0.000000 0.000000
vn 0.000000 -1.000000 0.000000
vn 0.000000 -1.000000 0.000000
vn 0.000000 -1.000000 0.000000
vn 0.000000 -1.000000 0.000000
vn 1.000000 0.000000 0.000000
vn 1.000000 0.000000 0.000000
vn 1.000000 0.000000 0.000000
vn 1.000000 0.000000 0.000000
vn 0.000000 1.000000 0.000000
vn 0.000000 1.000000 0.000000
vn 0.000000 1.000000 0.000000
vn 0.000000 1.000000 0.000000
vn 1.000000 0.000000 -0.000000
vn 1.000000 0.000000 -0.000000
vn 1.000000 0.000000 -0.000000
vn 1.000000 0.000000 -0.000000
vn 0.000000 -1.000000 0.000000
vn 0.000000 -1.000000 0.000000
vn 0.000000 -1.000000 0.000000
vn 0.000000 -1.000000 0.000000
vn 1.000000 0.000000 0.000000
vn 1.000000 0.000000 0.000000
vn 1.000000 0.000000 0.000000
vn 1.000000 0.000000 0.000000
vn -0.000000 1.000000 0.000000
vn -0.000000 1.000000 0.000000
vn -0.000000 1.000000 0.000000
vn -0.000000 1.000000 0.000000
vn -1.000000 0.000000 0.000000
vn -1.000000 0.000000 0.000000
vn -1.000000 0.000000 0.000000
vn -1.000000 0.000000 0.000000
vn 0.000000 1.000000 0.000000
vn 0.000000 1.000000 0.000000
vn 0.000000 1.000000 0.000000
vn 0.000000 1.000000 0.000000
vn 1.000000 0.000000 -0.000000
vn 1.000000 0.000000 -0.000000
vn 1.000000 0.000000 -0.000000
vn 1.000000 0.000000 -0.000000
vn -0.000000 1.000000 0.000000
vn -0.000000 1.000000 0.000000
vn -0.000000 1.000000 0.000000
vn -0.000000 1.000000 0.000000
vn -1.000000 0.000000 0.000000
vn -1.000000 0.000000 0.000000
vn -1.000000 0.000000 0.000000
vn -1.000000 0.000000 0.000000
vn 0.000000 -1.000000 0.000000
vn 0.000000 -1.000000 0.000000
vn 0.000000 -1.000000 0.000000
vn 0.000000 -1.000000 0.000000
vn 0.000000 1.000000 -0.000000
vn 0.000000 1.000000 -0.000000
vn 0.000000 1.000000 -0.000000
vn 0.000000 1.000000 -0.000000
vn -1.000000 0.000000 0.000000
vn -1.000000 0.000000 0.000000
vn -1.000000 0.000000 0.000000
vn -1.000000 0.000000 0.000000
vn 0.000000 -1.000000 0.000000
vn 0.000000 -1.000000 0.000000
vn 0.000000 -1.000000 0.000000
vn 0.000000 -1.000000 0.000000
vn 1.000000 0.000000 -0.000000
vn 1.000000 0.000000 -0.000000
vn 1.000000 0.000000 -0.000000
vn 1.000000 0.000000 -0.000000
vn -1.000000 0.000000 0.000000
vn -1.000000 0.000000 0.000000
vn -1.000000 0.000000 0.000000
vn -1.000000 0.000000 0.000000
vn -0.000000 -1.000000 0.000000
vn -0.000000 -1.000000 0.000000
vn -0.000000 -1.000000 0.000000
vn -0.000000 -1.000000 0.000000
vn 1.000000 0.000000 0.000000
vn 1.000000 0.000000 0.000000
vn 1.000000 0.000000 0.000000
vn 1.000000 0.000000 0.000000
vn 0.000000 1.000000 -0.000000
vn 0.000000 1.000000 -0.000000
vn 0.000000 1.000000 -0.000000
vn 0.000000 1.000000 -0.000000
vn 1.000000 -0.000000 0.000000
vn 1.000000 -0.000000 0.000000
vn 1.000000 -0.000000 0.000000
vn 1.000000 -0.000000 0.000000
vn 0.000000 -1.000000 0.000000
vn 0.000000 -1.000000 0.000000
vn 0.000000 -1.000000 0.000000
vn 0.000000 -1.000000 0.000000
vn -1.000000 0.000000 0.000000
vn -1.000000 0.000000 0.000000
vn -1.000000 0.000000 0.000000
vn -1.000000 0.000000 0.000000
vn 0.000000 1.000000 0.000000
vn 0.000000 1.000000 0.000000
vn 0.000000 1.000000 0.000000
vn 0.000000 1.000000 0.000000
vn -0.000000 0.000000 -1.000000
vn -0.000000 0.000000 -1.000000
vn -0.000000 0.000000 -1.000000
vn -0.000000 0.000000 -1.000000
vn -0.000000 0.000000 -1.000000
vn -0.000000 0.000000 -1.000000
vn -0.000000 0.000000 -1.000000
vn -0.000000 0.000000 -1.000000
vn -0.000000 0.000000 -1.000000
vn -0.000000 0.000000 -1.000000
vn -0.000000 0.000000 -1.000000
vn -0.000000 0.000000 -1.000000
vn -0.000000 0.000000 -1.000000
vn -0.000000 0.000000 -1.000000
vn -0.000000 0.000000 -1.000000
vn -0.000000 0.000000 -1.000000
vn -0.000000 0.000000 -1.000000
vn -0.000000 0.000000 -1.000000
vn -0.000000 0.000000 -1.000000
vn -0.000000 0.000000 -1.000000
vn -0.000000 0.000000 -1.000000
vn -0.000000 0.000000 -1.000000
vn -0.000000 0.000000 -1.000000
vn -0.000000 0.000000 -1.000000
vn -0.000000 0.000000 -1.000000
vn -0.000000 0.000000 -1.000000
vn -0.000000 0.000000 -1.000000
vn -0.000000 0.000000 -1.000000
vn -0.000000 0.000000 -1.000000
vn -0.000000 0.000000 -1.000000
vn -0.000000 0.000000 -1.000000
vn -0.000000 0.000000 -1.000000
vn -0.000000 0.000000 -1.000000
vn -0.000000 0.000000 -1.000000
vn -0.000000 0.000000 -1.000000
vn -0.000000 0.000000 -1.000000
vn -0.000000 0.000000 -1.000000
vn -0.000000 0.000000 -1.000000
vn -0.000000 0.000000 -1.000000
vn -0.000000 0.000000 -1.000000
vn -0.000000 0.000000 -1.000000
vn -0.000000 0.000000 -1.000000
vn -0.000000 0.000000 -1.000000
vn -0.000000 0.000000 -1.000000
vn -0.000000 0.000000 -1.000000
vn -0.000000 0.000000 -1.000000
vn -0.000000 0.000000 -1.000000
vn -0.000000 0.000000 -1.000000
vn -0.000000 0.000000 -1.000000
vn -0.000000 0.000000 -1.000000
vn -0.000000 0.000000 -1.000000
vn -0.000000 0.000000 -1.000000
vn -0.000000 0.000000 -1.000000
vn -0.000000 0.000000 -1.000000
vn -0.000000 0.000000 -1.000000
vn -0.000000 0.000000 -1.000000
vn -0.000000 0.000000 -1.000000
vn -0.000000 0.000000 -1.000000
vn -0.000000 0.000000 -1.000000
vn -0.000000 0.000000 -1.000000
vn -0.000000 0.000000 -1.000000
vn -0.000000 0.000000 -1.000000
vn -0.000000 0.000000 -1.000000
vn -0.000000 0.000000 -1.000000
vn -0.000000 0.000000 -1.000000
vn -0.000000 0.000000 -1.000000
f 41/121/121 42/122/122 44/123/123
f 44/123/123 42/122/122 43/124/124
f 46/125/125 65/126/126 45/127/127
f 45/127/127 65/126/126 66/128/128
f 45/127/127 66/128/128 71/129/129
f 71/129/129 66/128/128 70/130/130
f 70/130/130 66/128/128 67/131/131
f 70/130/130 67/131/131 68/132/132
f 47/133/133 98/134/134 46/125/125
f 46/125/125 98/134/134 99/135/135
f 46/125/125 99/135/135 106/136/136
f 106/136/136 99/135/135 100/137/137
f 106/136/136 100/137/137 105/138/138
f 105/138/138 100/137/137 103/139/139
f 105/138/138 103/139/139 104/140/140
f 48/141/141 90/142/142 47/133/133
f 47/133/133 90/142/142 58/143/143
f 47/133/133 58/143/143 55/144/144
f 45/127/127 77/145/145 48/141/141
f 48/141/141 77/145/145 82/146/146
f 48/141/141 82/146/146 83/147/147
f 44/148/148 54/149/149 49/150/150
f 49/150/150 54/149/149 51/151/151
f 49/150/150 51/151/151 64/152/152
f 64/152/152 51/151/151 63/153/153
f 63/153/153 51/151/151 52/154/154
f 63/153/153 52/154/154 108/155/155
f 108/155/155 52/154/154 53/156/156
f 108/155/155 53/156/156 46/125/125
f 46/125/125 53/156/156 54/149/149
f 46/125/125 54/149/149 44/148/148
f 44/148/148 43/157/157 46/125/125
f 46/125/125 43/157/157 65/126/126
f 43/157/157 50/158/158 65/126/126
f 65/126/126 50/158/158 64/152/152
f 64/152/152 50/158/158 49/150/150
f 47/133/133 55/144/144 93/159/159
f 93/159/159 55/144/144 56/160/160
f 93/159/159 56/160/160 92/161/161
f 92/161/161 56/160/160 57/162/162
f 92/161/161 57/162/162 91/163/163
f 91/163/163 57/162/162 90/142/142
f 90/142/142 57/162/162 58/143/143
f 60/164/164 76/165/165 59/166/166
f 59/166/166 76/165/165 45/127/127
f 59/166/166 45/127/127 62/167/167
f 62/167/167 45/127/127 61/168/168
f 61/168/168 45/127/127 72/169/169
f 61/168/168 72/169/169 60/164/164
f 60/164/164 72/169/169 73/170/170
f 60/164/164 73/170/170 75/171/171
f 75/171/171 73/170/170 74/172/172
f 68/132/132 69/173/173 70/130/130
f 71/129/129 72/169/169 45/127/127
f 75/171/171 76/165/165 60/164/164
f 76/165/165 77/145/145 45/127/127
f 82/146/146 77/145/145 81/174/174
f 81/174/174 77/145/145 78/175/175
f 81/174/174 78/175/175 79/176/176
f 79/176/176 80/177/177 81/174/174
f 48/141/141 83/147/147 88/178/178
f 88/178/178 83/147/147 84/179/179
f 88/178/178 84/179/179 87/180/180
f 87/180/180 84/179/179 86/181/181
f 86/181/181 84/179/179 85/182/182
f 88/178/178 89/183/183 48/141/141
f 48/141/141 89/183/183 90/142/142
f 93/159/159 94/184/184 47/133/133
f 47/133/133 94/184/184 95/185/185
f 47/133/133 95/185/185 98/134/134
f 98/134/134 95/185/185 96/186/186
f 98/134/134 96/186/186 97/187/187
f 101/188/188 102/189/189 100/137/137
f 100/137/137 102/189/189 103/139/139
f 106/136/136 107/190/190 46/125/125
f 46/125/125 107/190/190 108/155/155
f 109/191/191 110/192/192 51/193/193
f 51/193/193 110/192/192 52/194/194
f 111/195/195 112/196/196 108/197/197
f 108/197/197 112/196/196 63/198/198
f 110/199/199 113/200/200 52/201/201
f 52/201/201 113/200/200 53/202/202
f 108/203/203 107/204/204 111/205/205
f 111/205/205 107/204/204 114/206/206
f 113/207/207 115/208/208 53/209/209
f 53/209/209 115/208/208 54/210/210
f 116/211/211 41/212/212 49/213/213
f 49/213/213 41/212/212 44/214/214
f 117/215/215 116/216/216 50/217/217
f 50/217/217 116/216/216 49/218/218
f 42/219/219 117/220/220 43/221/221
f 43/221/221 117/220/220 50/222/222
f 118/223/223 119/224/224 86/225/225
f 86/225/225 119/224/224 87/226/226
f 120/227/227 118/228/228 85/229/229
f 85/229/229 118/228/228 86/230/230
f 121/231/231 120/232/232 84/233/233
f 84/233/233 120/232/232 85/234/234
f 122/235/235 121/236/236 83/237/237
f 83/237/237 121/236/236 84/238/238
f 123/239/239 122/240/240 82/241/241
f 82/241/241 122/240/240 83/242/242
f 124/243/243 123/244/244 81/245/245
f 81/245/245 123/244/244 82/246/246
f 125/247/247 124/248/248 80/249/249
f 80/249/249 124/248/248 81/250/250
f 126/251/251 125/252/252 79/253/253
f 79/253/253 125/252/252 80/254/254
f 127/255/255 126/256/256 78/257/257
f 78/257/257 126/256/256 79/258/258
f 128/259/259 127/260/260 77/261/261
f 77/261/261 127/260/260 78/262/262
f 129/263/263 128/264/264 76/265/265
f 76/265/265 128/264/264 77/266/266
f 130/267/267 129/268/268 75/269/269
f 75/269/269 129/268/268 76/270/270
f 131/271/271 130/272/272 74/273/273
f 74/273/273 130/272/272 75/274/274
f 132/275/275 131/276/276 73/277/277
f 73/277/277 131/276/276 74/278/278
f 133/279/279 132/280/280 72/281/281
f 72/281/281 132/280/280 73/282/282
f 134/283/283 133/284/284 71/285/285
f 71/285/285 133/284/284 72/286/286
f 135/287/287 134/288/288 70/289/289
f 70/289/289 134/288/288 71/290/290
f 136/291/291 135/292/292 69/293/293
f 69/293/293 135/292/292 70/294/294
f 137/295/295 136/296/296 68/297/297
f 68/297/297 136/296/296 69/298/298
f 138/299/299 137/300/300 67/301/301
f 67/301/301 137/300/300 68/302/302
f 139/303/303 138/304/304 66/305/305
f 66/305/305 138/304/304 67/306/306
f 140/307/307 139/308/308 65/309/309
f 65/309/309 139/308/308 66/310/310
f 141/311/311 140/312/312 64/313/313
f 64/313/313 140/312/312 65/314/314
f 112/315/315 141/316/316 63/317/317
f 63/317/317 141/316/316 64/318/318
f 51/319/319 54/320/320 109/321/321
f 109/321/321 54/320/320 115/322/322
f 142/323/323 114/324/324 106/325/325
f 106/325/325 114/324/324 107/326/326
f 143/327/327 142/328/328 105/329/329
f 105/329/329 142/328/328 106/330/330
f 144/331/331 143/332/332 104/333/333
f 104/333/333 143/332/332 105/334/334
f 145/335/335 144/336/336 103/337/337
f 103/337/337 144/336/336 104/338/338
f 146/339/339 145/340/340 102/341/341
f 102/341/341 145/340/340 103/342/342
f 147/343/343 146/344/344 101/345/345
f 101/345/345 146/344/344 102/346/346
f 148/347/347 147/348/348 100/349/349
f 100/349/349 147/348/348 101/350/350
f 149/351/351 148/352/352 99/353/353
f 99/353/353 148/352/352 100/354/354
f 150/355/355 149/356/356 98/357/357
f 98/357/357 149/356/356 99/358/358
f 151/359/359 150/360/360 97/361/361
f 97/361/361 150/360/360 98/362/362
f 152/363/363 151/364/364 96/365/365
f 96/365/365 151/364/364 97/366/366
f 153/367/367 152/368/368 95/369/369
f 95/369/369 152/368/368 96/370/370
f 154/371/371 153/372/372 94/373/373
f 94/373/373 153/372/372 95/374/374
f 155/375/375 154/376/376 93/377/377
f 93/377/377 154/376/376 94/378/378
f 156/379/379 155/380/380 92/381/381
f 92/381/381 155/380/380 93/382/382
f 157/383/383 156/384/384 91/385/385
f 91/385/385 156/384/384 92/386/386
f 158/387/387 157/388/388 90/389/389
f 90/389/389 157/388/388 91/390/390
f 159/391/391 158/392/392 89/393/393
f 89/393/393 158/392/392 90/394/394
f 160/395/395 159/396/396 88/397/397
f 88/397/397 159/396/396 89/398/398
f 119/399/399 160/400/400 87/401/401
f 87/401/401 160/400/400 88/402/402
f 161/403/403 162/404/404 58/405/405
f 58/405/405 162/404/404 55/406/406
f 163/407/407 161/408/408 57/409/409
f 57/409/409 161/408/408 58/410/410
f 164/411/411 163/412/412 56/413/413
f 56/413/413 163/412/412 57/414/414
f 162/415/415 164/416/416 55/417/417
f 55/417/417 164/416/416 56/418/418
f 165/419/419 166/420/420 62/421/421
f 62/421/421 166/420/420 59/422/422
f 167/423/423 165/424/424 61/425/425
f 61/425/425 165/424/424 62/426/426
f 168/427/427 167/428/428 60/429/429
f 60/429/429 167/428/428 61/430/430
f 166/431/431 168/432/432 59/433/433
f 59/433/433 168/432/432 60/434/434
f 169/435/435 170/436/436 48/437/437
f 48/437/437 170/436/436 45/438/438
f 171/439/439 169/440/440 47/441/441
f 47/441/441 169/440/440 48/442/442
f 172/443/443 171/444/444 46/445/445
f 46/445/445 171/444/444 47/446/446
f 170/447/447 172/448/448 45/449/449
f 45/449/449 172/448/448 46/450/450
f 116/451/451 109/452/452 41/453/453
f 41/453/453 109/452/452 115/454/454
f 41/453/453 115/454/454 172/455/455
f 172/455/455 115/454/454 113/456/456
f 172/455/455 113/456/456 111/457/457
f 111/457/457 113/456/456 110/458/458
f 111/457/457 110/458/458 112/459/459
f 112/459/459 110/458/458 109/452/452
f 112/459/459 109/452/452 141/460/460
f 141/460/460 109/452/452 116/451/451
f 141/460/460 116/451/451 117/461/461
f 141/460/460 117/461/461 140/462/462
f 140/462/462 117/461/461 42/463/463
f 140/462/462 42/463/463 172/455/455
f 172/455/455 42/463/463 41/453/453
f 166/464/464 129/465/465 168/466/466
f 168/466/466 129/465/465 130/467/467
f 168/466/466 130/467/467 132/468/468
f 132/468/468 130/467/467 131/469/469
f 129/465/465 166/464/464 170/470/470
f 170/470/470 166/464/464 165/471/471
f 170/470/470 165/471/471 167/472/472
f 168/466/466 132/468/468 167/472/472
f 167/472/472 132/468/468 133/473/473
f 167/472/472 133/473/473 170/470/470
f 170/470/470 133/473/473 134/474/474
f 170/470/470 134/474/474 139/475/475
f 139/475/475 134/474/474 135/476/476
f 139/475/475 135/476/476 138/477/477
f 138/477/477 135/476/476 137/478/478
f 137/478/478 135/476/476 136/479/479
f 162/480/480 155/481/481 164/482/482
f 164/482/482 155/481/481 156/483/483
f 164/482/482 156/483/483 157/484/484
f 155/481/481 162/480/480 171/485/485
f 171/485/485 162/480/480 161/486/486
f 171/485/485 161/486/486 158/487/487
f 158/487/487 161/486/486 163/488/488
f 158/487/487 163/488/488 157/484/484
f 157/484/484 163/488/488 164/482/482
f 111/457/457 114/489/489 172/455/455
f 172/455/455 114/489/489 142/490/490
f 172/455/455 142/490/490 149/491/491
f 149/491/491 142/490/490 148/492/492
f 148/492/492 142/490/490 143/493/493
f 148/492/492 143/493/493 145/494/494
f 145/494/494 143/493/493 144/495/495
f 146/496/496 147/497/497 145/494/494
f 145/494/494 147/497/497 148/492/492
f 149/491/491 150/498/498 172/455/455
f 172/455/455 150/498/498 171/485/485
f 171/485/485 150/498/498 153/499/499
f 171/485/485 153/499/499 154/500/500
f 150/498/498 151/501/501 153/499/499
f 153/499/499 151/501/501 152/502/502
f 154/500/500 155/481/481 171/485/485
f 171/485/485 158/487/487 169/503/503
f 169/503/503 158/487/487 159/504/504
f 169/503/503 159/504/504 160/505/505
f 119/506/506 121/507/507 160/505/505
f 160/505/505 121/507/507 122/508/508
f 160/505/505 122/508/508 169/503/503
f 169/503/503 122/508/508 123/509/509
f 169/503/503 123/509/509 128/510/510
f 128/510/510 123/509/509 124/511/511
f 128/510/510 124/511/511 127/512/512
f 127/512/512 124/511/511 126/513/513
f 126/513/513 124/511/511 125/514/514
f 119/506/506 118/515/515 121/507/507
f 121/507/507 118/515/515 120/516/516
f 169/503/503 128/510/510 170/470/470
f 170/470/470 128/510/510 129/465/465
f 139/475/475 140/462/462 170/470/470
f 170/470/470 140/462/462 172/455/455
# 172 vertices
# 516 texture params
# 516 normals
# 352 facets

# 3 groups
