# WaveFront *.obj file (generated by Autodesk ATF)

mtllib Maze (Thin Walls) v1.mtl

g Body1

v 0.839000 0.457000 0.000000
v 0.839000 0.191000 0.000000
v 0.839000 0.191000 0.075000
v 0.839000 0.457000 0.075000
v 0.889000 0.457000 0.000000
v 0.889000 0.457000 0.075000
v 0.889000 0.241000 0.000000
v 0.889000 0.241000 0.075000
v 1.030000 0.241000 0.000000
v 1.030000 0.241000 0.075000
v 1.030000 1.030000 0.000000
v 1.030000 1.030000 0.075000
v -0.025000 1.030000 0.000000
v -0.025000 1.030000 0.075000
v -0.025000 1.080000 0.000000
v -0.025000 1.080000 0.075000
v 1.080000 1.080000 0.000000
v 1.080000 1.080000 0.075000
v 1.080000 -1.080000 -0.000000
v 1.080000 -1.080000 0.075000
v 0.191000 -1.080000 -0.000000
v 0.191000 -1.080000 0.075000
v 0.191000 -0.889000 -0.000000
v 0.191000 -0.889000 0.075000
v -0.025000 -0.889000 -0.000000
v -0.025000 -0.889000 0.075000
v -0.025000 -0.623000 -0.000000
v -0.025000 -0.623000 0.075000
v 0.191000 -0.623000 -0.000000
v 0.191000 -0.623000 0.075000
v 0.191000 -0.191000 -0.000000
v 0.191000 -0.191000 0.075000
v 0.457000 -0.191000 -0.000000
v 0.457000 -0.191000 0.075000
v 0.457000 -0.407000 -0.000000
v 0.457000 -0.407000 0.075000
v 0.673000 -0.407000 -0.000000
v 0.673000 -0.407000 0.075000
v 0.673000 -0.673000 -0.000000
v 0.673000 -0.673000 0.075000
v 0.623000 -0.673000 -0.000000
v 0.623000 -0.673000 0.075000
v 0.623000 -0.457000 -0.000000
v 0.623000 -0.457000 0.075000
v 0.407000 -0.457000 -0.000000
v 0.407000 -0.457000 0.075000
v 0.407000 -0.241000 -0.000000
v 0.407000 -0.241000 0.075000
v 0.241000 -0.241000 -0.000000
v 0.241000 -0.241000 0.075000
v 0.241000 -0.673000 -0.000000
v 0.241000 -0.673000 0.075000
v 0.025000 -0.673000 -0.000000
v 0.025000 -0.673000 0.075000
v 0.025000 -0.839000 -0.000000
v 0.025000 -0.839000 0.075000
v 0.241000 -0.839000 -0.000000
v 0.241000 -0.839000 0.075000
v 0.241000 -1.030000 -0.000000
v 0.241000 -1.030000 0.075000
v 0.407000 -1.030000 -0.000000
v 0.407000 -1.030000 0.075000
v 0.407000 -0.623000 -0.000000
v 0.407000 -0.623000 0.075000
v 0.457000 -0.623000 -0.000000
v 0.457000 -0.623000 0.075000
v 0.457000 -1.030000 -0.000000
v 0.457000 -1.030000 0.075000
v 1.030000 -1.030000 -0.000000
v 1.030000 -1.030000 0.075000
v 1.030000 0.191000 0.000000
v 1.030000 0.191000 0.075000
vt 0.000000 0.000000 0.000000
vt 0.266000 0.000000 0.000000
vt -0.000000 0.075000 0.000000
vt 0.266000 0.075000 0.000000
vt 0.000000 -0.000000 0.000000
vt 0.050000 -0.000000 0.000000
vt 0.000000 0.075000 0.000000
vt 0.050000 0.075000 0.000000
vt 0.000000 0.000000 0.000000
vt 0.216000 0.000000 0.000000
vt -0.000000 0.075000 0.000000
vt 0.216000 0.075000 0.000000
vt -0.000000 0.000000 0.000000
vt 0.141000 -0.000000 0.000000
vt 0.000000 0.075000 0.000000
vt 0.141000 0.075000 0.000000
vt -0.000000 0.000000 0.000000
vt 0.789000 -0.000000 0.000000
vt -0.000000 0.075000 0.000000
vt 0.789000 0.075000 0.000000
vt -0.000000 0.000000 0.000000
vt 1.055000 -0.000000 0.000000
vt -0.000000 0.075000 0.000000
vt 1.055000 0.075000 0.000000
vt 0.000000 0.000000 0.000000
vt 0.050000 -0.000000 0.000000
vt -0.000000 0.075000 0.000000
vt 0.050000 0.075000 0.000000
vt 0.000000 0.000000 0.000000
vt 1.105000 0.000000 0.000000
vt 0.000000 0.075000 0.000000
vt 1.105000 0.075000 0.000000
vt 0.000000 0.000000 0.000000
vt 2.160000 0.000000 0.000000
vt 0.000000 0.075000 0.000000
vt 2.160000 0.075000 0.000000
vt 0.000000 0.000000 0.000000
vt 0.889000 0.000000 0.000000
vt 0.000000 0.075000 0.000000
vt 0.889000 0.075000 0.000000
vt 0.000000 0.000000 0.000000
vt 0.191000 -0.000000 0.000000
vt -0.000000 0.075000 0.000000
vt 0.191000 0.075000 0.000000
vt -0.000000 0.000000 0.000000
vt 0.216000 0.000000 0.000000
vt -0.000000 0.075000 0.000000
vt 0.216000 0.075000 0.000000
vt 0.000000 0.000000 0.000000
vt 0.266000 0.000000 0.000000
vt -0.000000 0.075000 0.000000
vt 0.266000 0.075000 0.000000
vt -0.000000 0.000000 0.000000
vt 0.216000 0.000000 0.000000
vt -0.000000 0.075000 0.000000
vt 0.216000 0.075000 0.000000
vt 0.000000 0.000000 0.000000
vt 0.432000 -0.000000 0.000000
vt 0.000000 0.075000 0.000000
vt 0.432000 0.075000 0.000000
vt 0.000000 -0.000000 0.000000
vt 0.266000 -0.000000 0.000000
vt 0.000000 0.075000 0.000000
vt 0.266000 0.075000 0.000000
vt 0.000000 0.000000 0.000000
vt 0.216000 0.000000 0.000000
vt 0.000000 0.075000 0.000000
vt 0.216000 0.075000 0.000000
vt -0.000000 0.000000 0.000000
vt 0.216000 0.000000 0.000000
vt -0.000000 0.075000 0.000000
vt 0.216000 0.075000 0.000000
vt 0.000000 0.000000 0.000000
vt 0.266000 0.000000 0.000000
vt 0.000000 0.075000 0.000000
vt 0.266000 0.075000 0.000000
vt -0.000000 0.000000 0.000000
vt 0.050000 0.000000 0.000000
vt -0.000000 0.075000 0.000000
vt 0.050000 0.075000 0.000000
vt 0.000000 0.000000 0.000000
vt 0.216000 -0.000000 0.000000
vt -0.000000 0.075000 0.000000
vt 0.216000 0.075000 0.000000
vt 0.000000 0.000000 0.000000
vt 0.216000 0.000000 0.000000
vt 0.000000 0.075000 0.000000
vt 0.216000 0.075000 0.000000
vt 0.000000 0.000000 0.000000
vt 0.216000 0.000000 0.000000
vt 0.000000 0.075000 0.000000
vt 0.216000 0.075000 0.000000
vt -0.000000 -0.000000 0.000000
vt 0.166000 0.000000 0.000000
vt -0.000000 0.075000 0.000000
vt 0.166000 0.075000 0.000000
vt 0.000000 0.000000 0.000000
vt 0.432000 0.000000 0.000000
vt 0.000000 0.075000 0.000000
vt 0.432000 0.075000 0.000000
vt 0.000000 0.000000 0.000000
vt 0.216000 0.000000 0.000000
vt 0.000000 0.075000 0.000000
vt 0.216000 0.075000 0.000000
vt 0.000000 0.000000 0.000000
vt 0.166000 -0.000000 0.000000
vt 0.000000 0.075000 0.000000
vt 0.166000 0.075000 0.000000
vt -0.000000 0.000000 0.000000
vt 0.216000 0.000000 0.000000
vt -0.000000 0.075000 0.000000
vt 0.216000 0.075000 0.000000
vt 0.000000 0.000000 0.000000
vt 0.191000 0.000000 0.000000
vt 0.000000 0.075000 0.000000
vt 0.191000 0.075000 0.000000
vt -0.000000 0.000000 0.000000
vt 0.166000 0.000000 0.000000
vt -0.000000 0.075000 0.000000
vt 0.166000 0.075000 0.000000
vt 0.000000 0.000000 0.000000
vt 0.407000 0.000000 0.000000
vt -0.000000 0.075000 0.000000
vt 0.407000 0.075000 0.000000
vt -0.000000 0.000000 0.000000
vt 0.050000 0.000000 0.000000
vt -0.000000 0.075000 0.000000
vt 0.050000 0.075000 0.000000
vt 0.000000 0.000000 0.000000
vt 0.407000 0.000000 0.000000
vt 0.000000 0.075000 0.000000
vt 0.407000 0.075000 0.000000
vt -0.000000 0.000000 0.000000
vt 0.573000 -0.000000 0.000000
vt -0.000000 0.075000 0.000000
vt 0.573000 0.075000 0.000000
vt 0.000000 0.000000 0.000000
vt 1.221000 0.000000 0.000000
vt 0.000000 0.075000 0.000000
vt 1.221000 0.075000 0.000000
vt -0.000000 -0.000000 0.000000
vt 0.191000 0.000000 0.000000
vt -0.000000 0.075000 0.000000
vt 0.191000 0.075000 0.000000
vt 0.311500 0.457000 0.000000
vt 0.311500 0.191000 0.000000
vt 0.361500 0.241000 0.000000
vt 0.502500 0.191000 0.000000
vt 0.502500 0.241000 0.000000
vt 0.552500 1.080000 0.000000
vt 0.502500 1.030000 0.000000
vt -0.552500 1.080000 0.000000
vt -0.552500 1.030000 0.000000
vt 0.552500 -1.080000 0.000000
vt 0.502500 -1.030000 0.000000
vt -0.070500 -1.030000 0.000000
vt -0.070500 -0.623000 0.000000
vt -0.120500 -0.623000 0.000000
vt -0.120500 -1.030000 0.000000
vt -0.336500 -1.080000 0.000000
vt -0.286500 -1.030000 0.000000
vt -0.336500 -0.889000 0.000000
vt -0.286500 -0.839000 0.000000
vt -0.502500 -0.839000 0.000000
vt -0.552500 -0.889000 0.000000
vt -0.502500 -0.673000 0.000000
vt -0.552500 -0.623000 0.000000
vt -0.336500 -0.623000 0.000000
vt -0.286500 -0.673000 0.000000
vt -0.286500 -0.241000 0.000000
vt -0.336500 -0.191000 0.000000
vt -0.120500 -0.241000 0.000000
vt -0.070500 -0.191000 0.000000
vt -0.070500 -0.407000 0.000000
vt -0.120500 -0.457000 0.000000
vt 0.095500 -0.457000 0.000000
vt 0.095500 -0.673000 0.000000
vt 0.145500 -0.673000 0.000000
vt 0.145500 -0.407000 0.000000
vt 0.361500 0.457000 0.000000
vt -0.191000 -0.311500 0.000000
vt -0.241000 -0.361500 0.000000
vt -0.191000 -0.502500 0.000000
vt -0.241000 -0.502500 0.000000
vt -1.080000 -0.552500 0.000000
vt -1.030000 -0.502500 0.000000
vt -1.080000 0.552500 0.000000
vt -1.030000 0.552500 0.000000
vt -0.457000 -0.311500 0.000000
vt -0.457000 -0.361500 0.000000
vt 1.080000 -0.552500 0.000000
vt 1.030000 -0.502500 0.000000
vt 1.030000 0.070500 0.000000
vt 1.080000 0.336500 0.000000
vt 1.030000 0.120500 0.000000
vt 1.030000 0.286500 0.000000
vt 0.889000 0.336500 0.000000
vt 0.839000 0.286500 0.000000
vt 0.839000 0.502500 0.000000
vt 0.889000 0.552500 0.000000
vt 0.623000 0.552500 0.000000
vt 0.673000 0.502500 0.000000
vt 0.623000 0.336500 0.000000
vt 0.673000 0.286500 0.000000
vt 0.241000 0.286500 0.000000
vt 0.191000 0.336500 0.000000
vt 0.191000 0.070500 0.000000
vt 0.241000 0.120500 0.000000
vt 0.407000 0.070500 0.000000
vt 0.457000 0.120500 0.000000
vt 0.457000 -0.095500 0.000000
vt 0.407000 -0.145500 0.000000
vt 0.673000 -0.145500 0.000000
vt 0.673000 -0.095500 0.000000
vt 0.623000 0.120500 0.000000
vt 0.623000 0.070500 0.000000
vn -1.000000 -0.000000 -0.000000
vn -1.000000 -0.000000 -0.000000
vn -1.000000 -0.000000 -0.000000
vn -1.000000 -0.000000 -0.000000
vn -0.000000 1.000000 0.000000
vn -0.000000 1.000000 0.000000
vn -0.000000 1.000000 0.000000
vn -0.000000 1.000000 0.000000
vn 1.000000 0.000000 0.000000
vn 1.000000 0.000000 0.000000
vn 1.000000 0.000000 0.000000
vn 1.000000 0.000000 0.000000
vn -0.000000 1.000000 0.000000
vn -0.000000 1.000000 0.000000
vn -0.000000 1.000000 0.000000
vn -0.000000 1.000000 0.000000
vn -1.000000 -0.000000 -0.000000
vn -1.000000 -0.000000 -0.000000
vn -1.000000 -0.000000 -0.000000
vn -1.000000 -0.000000 -0.000000
vn -0.000000 -1.000000 -0.000000
vn -0.000000 -1.000000 -0.000000
vn -0.000000 -1.000000 -0.000000
vn -0.000000 -1.000000 -0.000000
vn -1.000000 -0.000000 -0.000000
vn -1.000000 -0.000000 -0.000000
vn -1.000000 -0.000000 -0.000000
vn -1.000000 -0.000000 -0.000000
vn -0.000000 1.000000 0.000000
vn -0.000000 1.000000 0.000000
vn -0.000000 1.000000 0.000000
vn -0.000000 1.000000 0.000000
vn 1.000000 0.000000 0.000000
vn 1.000000 0.000000 0.000000
vn 1.000000 0.000000 0.000000
vn 1.000000 0.000000 0.000000
vn 0.000000 -1.000000 -0.000000
vn 0.000000 -1.000000 -0.000000
vn 0.000000 -1.000000 -0.000000
vn 0.000000 -1.000000 -0.000000
vn -1.000000 -0.000000 -0.000000
vn -1.000000 -0.000000 -0.000000
vn -1.000000 -0.000000 -0.000000
vn -1.000000 -0.000000 -0.000000
vn 0.000000 -1.000000 -0.000000
vn 0.000000 -1.000000 -0.000000
vn 0.000000 -1.000000 -0.000000
vn 0.000000 -1.000000 -0.000000
vn -1.000000 -0.000000 -0.000000
vn -1.000000 -0.000000 -0.000000
vn -1.000000 -0.000000 -0.000000
vn -1.000000 -0.000000 -0.000000
vn -0.000000 1.000000 0.000000
vn -0.000000 1.000000 0.000000
vn -0.000000 1.000000 0.000000
vn -0.000000 1.000000 0.000000
vn -1.000000 -0.000000 -0.000000
vn -1.000000 -0.000000 -0.000000
vn -1.000000 -0.000000 -0.000000
vn -1.000000 -0.000000 -0.000000
vn -0.000000 1.000000 0.000000
vn -0.000000 1.000000 0.000000
vn -0.000000 1.000000 0.000000
vn -0.000000 1.000000 0.000000
vn 1.000000 0.000000 0.000000
vn 1.000000 0.000000 0.000000
vn 1.000000 0.000000 0.000000
vn 1.000000 0.000000 0.000000
vn -0.000000 1.000000 0.000000
vn -0.000000 1.000000 0.000000
vn -0.000000 1.000000 0.000000
vn -0.000000 1.000000 0.000000
vn 1.000000 0.000000 0.000000
vn 1.000000 0.000000 0.000000
vn 1.000000 0.000000 0.000000
vn 1.000000 0.000000 0.000000
vn 0.000000 -1.000000 -0.000000
vn 0.000000 -1.000000 -0.000000
vn 0.000000 -1.000000 -0.000000
vn 0.000000 -1.000000 -0.000000
vn -1.000000 -0.000000 -0.000000
vn -1.000000 -0.000000 -0.000000
vn -1.000000 -0.000000 -0.000000
vn -1.000000 -0.000000 -0.000000
vn 0.000000 -1.000000 -0.000000
vn 0.000000 -1.000000 -0.000000
vn 0.000000 -1.000000 -0.000000
vn 0.000000 -1.000000 -0.000000
vn -1.000000 -0.000000 -0.000000
vn -1.000000 -0.000000 -0.000000
vn -1.000000 -0.000000 -0.000000
vn -1.000000 -0.000000 -0.000000
vn 0.000000 -1.000000 -0.000000
vn 0.000000 -1.000000 -0.000000
vn 0.000000 -1.000000 -0.000000
vn 0.000000 -1.000000 -0.000000
vn 1.000000 0.000000 0.000000
vn 1.000000 0.000000 0.000000
vn 1.000000 0.000000 0.000000
vn 1.000000 0.000000 0.000000
vn 0.000000 -1.000000 -0.000000
vn 0.000000 -1.000000 -0.000000
vn 0.000000 -1.000000 -0.000000
vn 0.000000 -1.000000 -0.000000
vn 1.000000 0.000000 0.000000
vn 1.000000 0.000000 0.000000
vn 1.000000 0.000000 0.000000
vn 1.000000 0.000000 0.000000
vn -0.000000 1.000000 0.000000
vn -0.000000 1.000000 0.000000
vn -0.000000 1.000000 0.000000
vn -0.000000 1.000000 0.000000
vn 1.000000 0.000000 0.000000
vn 1.000000 0.000000 0.000000
vn 1.000000 0.000000 0.000000
vn 1.000000 0.000000 0.000000
vn -0.000000 1.000000 0.000000
vn -0.000000 1.000000 0.000000
vn -0.000000 1.000000 0.000000
vn -0.000000 1.000000 0.000000
vn -1.000000 -0.000000 -0.000000
vn -1.000000 -0.000000 -0.000000
vn -1.000000 -0.000000 -0.000000
vn -1.000000 -0.000000 -0.000000
vn -0.000000 1.000000 0.000000
vn -0.000000 1.000000 0.000000
vn -0.000000 1.000000 0.000000
vn -0.000000 1.000000 0.000000
vn 1.000000 0.000000 0.000000
vn 1.000000 0.000000 0.000000
vn 1.000000 0.000000 0.000000
vn 1.000000 0.000000 0.000000
vn -0.000000 1.000000 0.000000
vn -0.000000 1.000000 0.000000
vn -0.000000 1.000000 0.000000
vn -0.000000 1.000000 0.000000
vn -1.000000 -0.000000 -0.000000
vn -1.000000 -0.000000 -0.000000
vn -1.000000 -0.000000 -0.000000
vn -1.000000 -0.000000 -0.000000
vn 0.000000 -1.000000 -0.000000
vn 0.000000 -1.000000 -0.000000
vn 0.000000 -1.000000 -0.000000
vn 0.000000 -1.000000 -0.000000
vn 0.000000 -0.000000 1.000000
vn 0.000000 -0.000000 1.000000
vn 0.000000 -0.000000 1.000000
vn 0.000000 -0.000000 1.000000
vn 0.000000 -0.000000 1.000000
vn 0.000000 -0.000000 1.000000
vn 0.000000 -0.000000 1.000000
vn 0.000000 -0.000000 1.000000
vn 0.000000 -0.000000 1.000000
vn 0.000000 -0.000000 1.000000
vn 0.000000 -0.000000 1.000000
vn 0.000000 -0.000000 1.000000
vn 0.000000 -0.000000 1.000000
vn 0.000000 -0.000000 1.000000
vn 0.000000 -0.000000 1.000000
vn 0.000000 -0.000000 1.000000
vn 0.000000 -0.000000 1.000000
vn 0.000000 -0.000000 1.000000
vn 0.000000 -0.000000 1.000000
vn 0.000000 -0.000000 1.000000
vn 0.000000 -0.000000 1.000000
vn 0.000000 -0.000000 1.000000
vn 0.000000 -0.000000 1.000000
vn 0.000000 -0.000000 1.000000
vn 0.000000 -0.000000 1.000000
vn 0.000000 -0.000000 1.000000
vn 0.000000 -0.000000 1.000000
vn 0.000000 -0.000000 1.000000
vn 0.000000 -0.000000 1.000000
vn 0.000000 -0.000000 1.000000
vn 0.000000 -0.000000 1.000000
vn 0.000000 -0.000000 1.000000
vn 0.000000 -0.000000 1.000000
vn 0.000000 -0.000000 1.000000
vn 0.000000 -0.000000 1.000000
vn 0.000000 -0.000000 1.000000
vn -0.000000 0.000000 -1.000000
vn -0.000000 0.000000 -1.000000
vn -0.000000 0.000000 -1.000000
vn -0.000000 0.000000 -1.000000
vn -0.000000 0.000000 -1.000000
vn -0.000000 0.000000 -1.000000
vn -0.000000 0.000000 -1.000000
vn -0.000000 0.000000 -1.000000
vn -0.000000 0.000000 -1.000000
vn -0.000000 0.000000 -1.000000
vn -0.000000 0.000000 -1.000000
vn -0.000000 0.000000 -1.000000
vn -0.000000 0.000000 -1.000000
vn -0.000000 0.000000 -1.000000
vn -0.000000 0.000000 -1.000000
vn -0.000000 0.000000 -1.000000
vn -0.000000 0.000000 -1.000000
vn -0.000000 0.000000 -1.000000
vn -0.000000 0.000000 -1.000000
vn -0.000000 0.000000 -1.000000
vn -0.000000 0.000000 -1.000000
vn -0.000000 0.000000 -1.000000
vn -0.000000 0.000000 -1.000000
vn -0.000000 0.000000 -1.000000
vn -0.000000 0.000000 -1.000000
vn -0.000000 0.000000 -1.000000
vn -0.000000 0.000000 -1.000000
vn -0.000000 0.000000 -1.000000
vn -0.000000 0.000000 -1.000000
vn -0.000000 0.000000 -1.000000
vn -0.000000 0.000000 -1.000000
vn -0.000000 0.000000 -1.000000
vn -0.000000 0.000000 -1.000000
vn -0.000000 0.000000 -1.000000
vn -0.000000 0.000000 -1.000000
vn -0.000000 0.000000 -1.000000
usemtl Steel_-_Satin
f 1/1/1 2/2/2 4/3/3
f 4/3/3 2/2/2 3/4/4
f 5/5/5 1/6/6 6/7/7
f 6/7/7 1/6/6 4/8/8
f 7/9/9 5/10/10 8/11/11
f 8/11/11 5/10/10 6/12/12
f 9/13/13 7/14/14 10/15/15
f 10/15/15 7/14/14 8/16/16
f 11/17/17 9/18/18 12/19/19
f 12/19/19 9/18/18 10/20/20
f 13/21/21 11/22/22 14/23/23
f 14/23/23 11/22/22 12/24/24
f 15/25/25 13/26/26 16/27/27
f 16/27/27 13/26/26 14/28/28
f 17/29/29 15/30/30 18/31/31
f 18/31/31 15/30/30 16/32/32
f 19/33/33 17/34/34 20/35/35
f 20/35/35 17/34/34 18/36/36
f 21/37/37 19/38/38 22/39/39
f 22/39/39 19/38/38 20/40/40
f 23/41/41 21/42/42 24/43/43
f 24/43/43 21/42/42 22/44/44
f 25/45/45 23/46/46 26/47/47
f 26/47/47 23/46/46 24/48/48
f 27/49/49 25/50/50 28/51/51
f 28/51/51 25/50/50 26/52/52
f 29/53/53 27/54/54 30/55/55
f 30/55/55 27/54/54 28/56/56
f 31/57/57 29/58/58 32/59/59
f 32/59/59 29/58/58 30/60/60
f 33/61/61 31/62/62 34/63/63
f 34/63/63 31/62/62 32/64/64
f 35/65/65 33/66/66 36/67/67
f 36/67/67 33/66/66 34/68/68
f 37/69/69 35/70/70 38/71/71
f 38/71/71 35/70/70 36/72/72
f 39/73/73 37/74/74 40/75/75
f 40/75/75 37/74/74 38/76/76
f 41/77/77 39/78/78 42/79/79
f 42/79/79 39/78/78 40/80/80
f 43/81/81 41/82/82 44/83/83
f 44/83/83 41/82/82 42/84/84
f 45/85/85 43/86/86 46/87/87
f 46/87/87 43/86/86 44/88/88
f 47/89/89 45/90/90 48/91/91
f 48/91/91 45/90/90 46/92/92
f 49/93/93 47/94/94 50/95/95
f 50/95/95 47/94/94 48/96/96
f 51/97/97 49/98/98 52/99/99
f 52/99/99 49/98/98 50/100/100
f 53/101/101 51/102/102 54/103/103
f 54/103/103 51/102/102 52/104/104
f 55/105/105 53/106/106 56/107/107
f 56/107/107 53/106/106 54/108/108
f 57/109/109 55/110/110 58/111/111
f 58/111/111 55/110/110 56/112/112
f 59/113/113 57/114/114 60/115/115
f 60/115/115 57/114/114 58/116/116
f 61/117/117 59/118/118 62/119/119
f 62/119/119 59/118/118 60/120/120
f 63/121/121 61/122/122 64/123/123
f 64/123/123 61/122/122 62/124/124
f 65/125/125 63/126/126 66/127/127
f 66/127/127 63/126/126 64/128/128
f 67/129/129 65/130/130 68/131/131
f 68/131/131 65/130/130 66/132/132
f 69/133/133 67/134/134 70/135/135
f 70/135/135 67/134/134 68/136/136
f 71/137/137 69/138/138 72/139/139
f 72/139/139 69/138/138 70/140/140
f 2/141/141 71/142/142 3/143/143
f 3/143/143 71/142/142 72/144/144
f 4/145/145 3/146/146 8/147/147
f 8/147/147 3/146/146 72/148/148
f 8/147/147 72/148/148 10/149/149
f 10/149/149 72/148/148 18/150/150
f 10/149/149 18/150/150 12/151/151
f 12/151/151 18/150/150 16/152/152
f 12/151/151 16/152/152 14/153/153
f 18/150/150 72/148/148 20/154/154
f 20/154/154 72/148/148 70/155/155
f 20/154/154 70/155/155 68/156/156
f 66/157/157 64/158/158 68/156/156
f 68/156/156 64/158/158 62/159/159
f 68/156/156 62/159/159 22/160/160
f 22/160/160 62/159/159 60/161/161
f 22/160/160 60/161/161 24/162/162
f 24/162/162 60/161/161 58/163/163
f 24/162/162 58/163/163 56/164/164
f 24/162/162 56/164/164 26/165/165
f 26/165/165 56/164/164 54/166/166
f 26/165/165 54/166/166 28/167/167
f 28/167/167 54/166/166 30/168/168
f 30/168/168 54/166/166 52/169/169
f 30/168/168 52/169/169 50/170/170
f 30/168/168 50/170/170 32/171/171
f 32/171/171 50/170/170 48/172/172
f 32/171/171 48/172/172 34/173/173
f 34/173/173 48/172/172 36/174/174
f 36/174/174 48/172/172 46/175/175
f 36/174/174 46/175/175 44/176/176
f 42/177/177 40/178/178 44/176/176
f 44/176/176 40/178/178 38/179/179
f 44/176/176 38/179/179 36/174/174
f 22/160/160 20/154/154 68/156/156
f 8/147/147 6/180/180 4/145/145
f 2/181/181 7/182/182 71/183/183
f 71/183/183 7/182/182 9/184/184
f 71/183/183 9/184/184 17/185/185
f 17/185/185 9/184/184 11/186/186
f 17/185/185 11/186/186 15/187/187
f 15/187/187 11/186/186 13/188/188
f 2/181/181 1/189/189 7/182/182
f 7/182/182 1/189/189 5/190/190
f 17/185/185 19/191/191 71/183/183
f 71/183/183 19/191/191 69/192/192
f 69/192/192 19/191/191 67/193/193
f 67/193/193 19/191/191 21/194/194
f 67/193/193 21/194/194 61/195/195
f 61/195/195 21/194/194 59/196/196
f 59/196/196 21/194/194 23/197/197
f 59/196/196 23/197/197 57/198/198
f 57/198/198 23/197/197 55/199/199
f 55/199/199 23/197/197 25/200/200
f 55/199/199 25/200/200 27/201/201
f 55/199/199 27/201/201 53/202/202
f 53/202/202 27/201/201 29/203/203
f 53/202/202 29/203/203 51/204/204
f 51/204/204 29/203/203 49/205/205
f 49/205/205 29/203/203 31/206/206
f 49/205/205 31/206/206 33/207/207
f 49/205/205 33/207/207 47/208/208
f 47/208/208 33/207/207 35/209/209
f 47/208/208 35/209/209 45/210/210
f 45/210/210 35/209/209 43/211/211
f 43/211/211 35/209/209 37/212/212
f 43/211/211 37/212/212 39/213/213
f 39/213/213 41/214/214 43/211/211
f 61/195/195 63/215/215 67/193/193
f 67/193/193 63/215/215 65/216/216
g Body2

v 0.623000 -0.839000 -0.000000
v 0.623000 -0.889000 -0.000000
v 0.623000 -0.889000 0.075000
v 0.623000 -0.839000 0.075000
v 0.839000 -0.839000 -0.000000
v 0.839000 -0.839000 0.075000
v 0.839000 -0.025000 -0.000000
v 0.839000 -0.025000 0.075000
v 0.673000 -0.025000 -0.000000
v 0.673000 -0.025000 0.075000
v 0.673000 -0.241000 -0.000000
v 0.673000 -0.241000 0.075000
v 0.623000 -0.241000 -0.000000
v 0.623000 -0.241000 0.075000
v 0.623000 0.191000 0.000000
v 0.623000 0.191000 0.075000
v 0.407000 0.191000 0.000000
v 0.407000 0.191000 0.075000
v 0.407000 0.241000 0.000000
v 0.407000 0.241000 0.075000
v 0.623000 0.241000 0.000000
v 0.623000 0.241000 0.075000
v 0.623000 0.407000 0.000000
v 0.623000 0.407000 0.075000
v 0.241000 0.407000 0.000000
v 0.241000 0.407000 0.075000
v 0.241000 0.191000 0.000000
v 0.241000 0.191000 0.075000
v 0.191000 0.191000 0.000000
v 0.191000 0.191000 0.075000
v 0.191000 0.623000 0.000000
v 0.191000 0.623000 0.075000
v -0.191000 0.623000 0.000000
v -0.191000 0.623000 0.075000
v -0.191000 0.457000 0.000000
v -0.191000 0.457000 0.075000
v 0.025000 0.457000 0.000000
v 0.025000 0.457000 0.075000
v 0.025000 0.025000 0.000000
v 0.025000 0.025000 0.075000
v 0.457000 0.025000 0.000000
v 0.457000 0.025000 0.075000
v 0.457000 -0.025000 -0.000000
v 0.457000 -0.025000 0.075000
v 0.025000 -0.025000 -0.000000
v 0.025000 -0.025000 0.075000
v 0.025000 -0.457000 -0.000000
v 0.025000 -0.457000 0.075000
v -0.191000 -0.457000 -0.000000
v -0.191000 -0.457000 0.075000
v -0.191000 -1.030000 -0.000000
v -0.191000 -1.030000 0.075000
v 0.025000 -1.030000 -0.000000
v 0.025000 -1.030000 0.075000
v 0.025000 -1.080000 -0.000000
v 0.025000 -1.080000 0.075000
v -1.080000 -1.080000 -0.000000
v -1.080000 -1.080000 0.075000
v -1.080000 1.080000 0.000000
v -1.080000 1.080000 0.075000
v -0.191000 1.080000 0.000000
v -0.191000 1.080000 0.075000
v -0.191000 0.839000 0.000000
v -0.191000 0.839000 0.075000
v -0.241000 0.839000 0.000000
v -0.241000 0.839000 0.075000
v -0.241000 1.030000 0.000000
v -0.241000 1.030000 0.075000
v -1.030000 1.030000 0.000000
v -1.030000 1.030000 0.075000
v -1.030000 0.673000 0.000000
v -1.030000 0.673000 0.075000
v -0.839000 0.673000 0.000000
v -0.839000 0.673000 0.075000
v -0.839000 0.623000 0.000000
v -0.839000 0.623000 0.075000
v -1.030000 0.623000 0.000000
v -1.030000 0.623000 0.075000
v -1.030000 -0.407000 -0.000000
v -1.030000 -0.407000 0.075000
v -0.623000 -0.407000 -0.000000
v -0.623000 -0.407000 0.075000
v -0.623000 -0.457000 -0.000000
v -0.623000 -0.457000 0.075000
v -1.030000 -0.457000 -0.000000
v -1.030000 -0.457000 0.075000
v -1.030000 -0.839000 -0.000000
v -1.030000 -0.839000 0.075000
v -0.889000 -0.839000 -0.000000
v -0.889000 -0.839000 0.075000
v -0.889000 -0.623000 -0.000000
v -0.889000 -0.623000 0.075000
v -0.839000 -0.623000 -0.000000
v -0.839000 -0.623000 0.075000
v -0.839000 -0.889000 -0.000000
v -0.839000 -0.889000 0.075000
v -1.030000 -0.889000 -0.000000
v -1.030000 -0.889000 0.075000
v -1.030000 -1.030000 -0.000000
v -1.030000 -1.030000 0.075000
v -0.673000 -1.030000 -0.000000
v -0.673000 -1.030000 0.075000
v -0.673000 -0.839000 -0.000000
v -0.673000 -0.839000 0.075000
v -0.623000 -0.839000 -0.000000
v -0.623000 -0.839000 0.075000
v -0.623000 -1.030000 -0.000000
v -0.623000 -1.030000 0.075000
v -0.241000 -1.030000 -0.000000
v -0.241000 -1.030000 0.075000
v -0.241000 -0.673000 -0.000000
v -0.241000 -0.673000 0.075000
v -0.407000 -0.673000 -0.000000
v -0.407000 -0.673000 0.075000
v -0.407000 -0.889000 -0.000000
v -0.407000 -0.889000 0.075000
v -0.457000 -0.889000 -0.000000
v -0.457000 -0.889000 0.075000
v -0.457000 -0.673000 -0.000000
v -0.457000 -0.673000 0.075000
v -0.673000 -0.673000 -0.000000
v -0.673000 -0.673000 0.075000
v -0.673000 -0.623000 -0.000000
v -0.673000 -0.623000 0.075000
v -0.241000 -0.623000 -0.000000
v -0.241000 -0.623000 0.075000
v -0.241000 -0.407000 -0.000000
v -0.241000 -0.407000 0.075000
v -0.025000 -0.407000 -0.000000
v -0.025000 -0.407000 0.075000
v -0.025000 0.407000 0.000000
v -0.025000 0.407000 0.075000
v -0.241000 0.407000 0.000000
v -0.241000 0.407000 0.075000
v -0.241000 0.623000 0.000000
v -0.241000 0.623000 0.075000
v -0.407000 0.623000 0.000000
v -0.407000 0.623000 0.075000
v -0.407000 0.241000 0.000000
v -0.407000 0.241000 0.075000
v -0.191000 0.241000 0.000000
v -0.191000 0.241000 0.075000
v -0.191000 -0.241000 -0.000000
v -0.191000 -0.241000 0.075000
v -0.407000 -0.241000 -0.000000
v -0.407000 -0.241000 0.075000
v -0.407000 -0.457000 -0.000000
v -0.407000 -0.457000 0.075000
v -0.457000 -0.457000 -0.000000
v -0.457000 -0.457000 0.075000
v -0.457000 -0.241000 -0.000000
v -0.457000 -0.241000 0.075000
v -0.889000 -0.241000 -0.000000
v -0.889000 -0.241000 0.075000
v -0.889000 0.241000 0.000000
v -0.889000 0.241000 0.075000
v -0.839000 0.241000 0.000000
v -0.839000 0.241000 0.075000
v -0.839000 0.025000 0.000000
v -0.839000 0.025000 0.075000
v -0.407000 0.025000 0.000000
v -0.407000 0.025000 0.075000
v -0.407000 -0.025000 -0.000000
v -0.407000 -0.025000 0.075000
v -0.839000 -0.025000 -0.000000
v -0.839000 -0.025000 0.075000
v -0.839000 -0.191000 -0.000000
v -0.839000 -0.191000 0.075000
v -0.241000 -0.191000 -0.000000
v -0.241000 -0.191000 0.075000
v -0.241000 0.191000 0.000000
v -0.241000 0.191000 0.075000
v -0.673000 0.191000 0.000000
v -0.673000 0.191000 0.075000
v -0.673000 0.241000 0.000000
v -0.673000 0.241000 0.075000
v -0.457000 0.241000 0.000000
v -0.457000 0.241000 0.075000
v -0.457000 0.407000 0.000000
v -0.457000 0.407000 0.075000
v -0.889000 0.407000 0.000000
v -0.889000 0.407000 0.075000
v -0.889000 0.457000 0.000000
v -0.889000 0.457000 0.075000
v -0.457000 0.457000 0.000000
v -0.457000 0.457000 0.075000
v -0.457000 0.623000 0.000000
v -0.457000 0.623000 0.075000
v -0.673000 0.623000 0.000000
v -0.673000 0.623000 0.075000
v -0.673000 0.839000 0.000000
v -0.673000 0.839000 0.075000
v -0.889000 0.839000 0.000000
v -0.889000 0.839000 0.075000
v -0.889000 0.889000 0.000000
v -0.889000 0.889000 0.075000
v -0.623000 0.889000 0.000000
v -0.623000 0.889000 0.075000
v -0.623000 0.673000 0.000000
v -0.623000 0.673000 0.075000
v -0.457000 0.673000 0.000000
v -0.457000 0.673000 0.075000
v -0.457000 0.889000 0.000000
v -0.457000 0.889000 0.075000
v -0.407000 0.889000 0.000000
v -0.407000 0.889000 0.075000
v -0.407000 0.673000 0.000000
v -0.407000 0.673000 0.075000
v -0.025000 0.673000 0.000000
v -0.025000 0.673000 0.075000
v -0.025000 0.889000 0.000000
v -0.025000 0.889000 0.075000
v 0.241000 0.889000 0.000000
v 0.241000 0.889000 0.075000
v 0.241000 0.839000 0.000000
v 0.241000 0.839000 0.075000
v 0.025000 0.839000 0.000000
v 0.025000 0.839000 0.075000
v 0.025000 0.673000 0.000000
v 0.025000 0.673000 0.075000
v 0.407000 0.673000 0.000000
v 0.407000 0.673000 0.075000
v 0.407000 0.889000 0.000000
v 0.407000 0.889000 0.075000
v 0.457000 0.889000 0.000000
v 0.457000 0.889000 0.075000
v 0.457000 0.623000 0.000000
v 0.457000 0.623000 0.075000
v 0.241000 0.623000 0.000000
v 0.241000 0.623000 0.075000
v 0.241000 0.457000 0.000000
v 0.241000 0.457000 0.075000
v 0.623000 0.457000 0.000000
v 0.623000 0.457000 0.075000
v 0.623000 0.673000 0.000000
v 0.623000 0.673000 0.075000
v 0.839000 0.673000 0.000000
v 0.839000 0.673000 0.075000
v 0.839000 0.839000 0.000000
v 0.839000 0.839000 0.075000
v 0.623000 0.839000 0.000000
v 0.623000 0.839000 0.075000
v 0.623000 0.889000 0.000000
v 0.623000 0.889000 0.075000
v 0.889000 0.889000 0.000000
v 0.889000 0.889000 0.075000
v 0.889000 0.623000 0.000000
v 0.889000 0.623000 0.075000
v 0.673000 0.623000 0.000000
v 0.673000 0.623000 0.075000
v 0.673000 0.025000 0.000000
v 0.673000 0.025000 0.075000
v 0.889000 0.025000 0.000000
v 0.889000 0.025000 0.075000
v 0.889000 -0.889000 -0.000000
v 0.889000 -0.889000 0.075000
vt 0.000000 0.000000 0.000000
vt 0.050000 -0.000000 0.000000
vt -0.000000 0.075000 0.000000
vt 0.050000 0.075000 0.000000
vt -0.000000 0.000000 0.000000
vt 0.216000 -0.000000 0.000000
vt -0.000000 0.075000 0.000000
vt 0.216000 0.075000 0.000000
vt 0.000000 0.000000 0.000000
vt 0.814000 0.000000 0.000000
vt 0.000000 0.075000 0.000000
vt 0.814000 0.075000 0.000000
vt -0.000000 -0.000000 0.000000
vt 0.166000 -0.000000 0.000000
vt -0.000000 0.075000 0.000000
vt 0.166000 0.075000 0.000000
vt 0.000000 0.000000 0.000000
vt 0.216000 0.000000 0.000000
vt -0.000000 0.075000 0.000000
vt 0.216000 0.075000 0.000000
vt -0.000000 -0.000000 0.000000
vt 0.050000 -0.000000 0.000000
vt -0.000000 0.075000 0.000000
vt 0.050000 0.075000 0.000000
vt 0.000000 0.000000 0.000000
vt 0.432000 0.000000 0.000000
vt -0.000000 0.075000 0.000000
vt 0.432000 0.075000 0.000000
vt -0.000000 -0.000000 0.000000
vt 0.216000 0.000000 0.000000
vt 0.000000 0.075000 0.000000
vt 0.216000 0.075000 0.000000
vt 0.000000 0.000000 0.000000
vt 0.050000 -0.000000 0.000000
vt 0.000000 0.075000 0.000000
vt 0.050000 0.075000 0.000000
vt 0.000000 -0.000000 0.000000
vt 0.216000 -0.000000 0.000000
vt 0.000000 0.075000 0.000000
vt 0.216000 0.075000 0.000000
vt 0.000000 0.000000 0.000000
vt 0.166000 0.000000 0.000000
vt -0.000000 0.075000 0.000000
vt 0.166000 0.075000 0.000000
vt -0.000000 0.000000 0.000000
vt 0.382000 0.000000 0.000000
vt -0.000000 0.075000 0.000000
vt 0.382000 0.075000 0.000000
vt 0.000000 0.000000 0.000000
vt 0.216000 0.000000 0.000000
vt 0.000000 0.075000 0.000000
vt 0.216000 0.075000 0.000000
vt -0.000000 -0.000000 0.000000
vt 0.050000 -0.000000 0.000000
vt 0.000000 0.075000 0.000000
vt 0.050000 0.075000 0.000000
vt 0.000000 0.000000 0.000000
vt 0.432000 -0.000000 0.000000
vt 0.000000 0.075000 0.000000
vt 0.432000 0.075000 0.000000
vt -0.000000 0.000000 0.000000
vt 0.382000 0.000000 0.000000
vt -0.000000 0.075000 0.000000
vt 0.382000 0.075000 0.000000
vt 0.000000 0.000000 0.000000
vt 0.166000 0.000000 0.000000
vt -0.000000 0.075000 0.000000
vt 0.166000 0.075000 0.000000
vt -0.000000 0.000000 0.000000
vt 0.216000 -0.000000 0.000000
vt -0.000000 0.075000 0.000000
vt 0.216000 0.075000 0.000000
vt 0.000000 0.000000 0.000000
vt 0.432000 0.000000 0.000000
vt -0.000000 0.075000 0.000000
vt 0.432000 0.075000 0.000000
vt 0.000000 -0.000000 0.000000
vt 0.432000 -0.000000 0.000000
vt 0.000000 0.075000 0.000000
vt 0.432000 0.075000 0.000000
vt 0.000000 0.000000 0.000000
vt 0.050000 0.000000 0.000000
vt -0.000000 0.075000 0.000000
vt 0.050000 0.075000 0.000000
vt 0.000000 -0.000000 0.000000
vt 0.432000 0.000000 0.000000
vt -0.000000 0.075000 0.000000
vt 0.432000 0.075000 0.000000
vt 0.000000 0.000000 0.000000
vt 0.432000 0.000000 0.000000
vt 0.000000 0.075000 0.000000
vt 0.432000 0.075000 0.000000
vt 0.000000 0.000000 0.000000
vt 0.216000 0.000000 0.000000
vt 0.000000 0.075000 0.000000
vt 0.216000 0.075000 0.000000
vt 0.000000 0.000000 0.000000
vt 0.573000 0.000000 0.000000
vt 0.000000 0.075000 0.000000
vt 0.573000 0.075000 0.000000
vt -0.000000 0.000000 0.000000
vt 0.216000 -0.000000 0.000000
vt -0.000000 0.075000 0.000000
vt 0.216000 0.075000 0.000000
vt 0.000000 0.000000 0.000000
vt 0.050000 0.000000 0.000000
vt 0.000000 0.075000 0.000000
vt 0.050000 0.075000 0.000000
vt 0.000000 0.000000 0.000000
vt 1.105000 0.000000 0.000000
vt 0.000000 0.075000 0.000000
vt 1.105000 0.075000 0.000000
vt 0.000000 0.000000 0.000000
vt 2.160000 0.000000 0.000000
vt 0.000000 0.075000 0.000000
vt 2.160000 0.075000 0.000000
vt -0.000000 0.000000 0.000000
vt 0.889000 -0.000000 0.000000
vt 0.000000 0.075000 0.000000
vt 0.889000 0.075000 0.000000
vt 0.000000 0.000000 0.000000
vt 0.241000 0.000000 0.000000
vt 0.000000 0.075000 0.000000
vt 0.241000 0.075000 0.000000
vt 0.000000 0.000000 0.000000
vt 0.050000 0.000000 0.000000
vt 0.000000 0.075000 0.000000
vt 0.050000 0.075000 0.000000
vt 0.000000 0.000000 0.000000
vt 0.191000 -0.000000 0.000000
vt 0.000000 0.075000 0.000000
vt 0.191000 0.075000 0.000000
vt 0.000000 0.000000 0.000000
vt 0.789000 0.000000 0.000000
vt 0.000000 0.075000 0.000000
vt 0.789000 0.075000 0.000000
vt -0.000000 -0.000000 0.000000
vt 0.357000 -0.000000 0.000000
vt -0.000000 0.075000 0.000000
vt 0.357000 0.075000 0.000000
vt 0.000000 -0.000000 0.000000
vt 0.191000 0.000000 0.000000
vt 0.000000 0.075000 0.000000
vt 0.191000 0.075000 0.000000
vt 0.000000 0.000000 0.000000
vt 0.050000 0.000000 0.000000
vt -0.000000 0.075000 0.000000
vt 0.050000 0.075000 0.000000
vt 0.000000 0.000000 0.000000
vt 0.191000 0.000000 0.000000
vt 0.000000 0.075000 0.000000
vt 0.191000 0.075000 0.000000
vt 0.000000 0.000000 0.000000
vt 1.030000 -0.000000 0.000000
vt 0.000000 0.075000 0.000000
vt 1.030000 0.075000 0.000000
vt 0.000000 -0.000000 0.000000
vt 0.407000 -0.000000 0.000000
vt 0.000000 0.075000 0.000000
vt 0.407000 0.075000 0.000000
vt 0.000000 0.000000 0.000000
vt 0.050000 0.000000 0.000000
vt 0.000000 0.075000 0.000000
vt 0.050000 0.075000 0.000000
vt 0.000000 0.000000 0.000000
vt 0.407000 0.000000 0.000000
vt 0.000000 0.075000 0.000000
vt 0.407000 0.075000 0.000000
vt 0.000000 0.000000 0.000000
vt 0.382000 0.000000 0.000000
vt 0.000000 0.075000 0.000000
vt 0.382000 0.075000 0.000000
vt -0.000000 0.000000 0.000000
vt 0.141000 0.000000 0.000000
vt -0.000000 0.075000 0.000000
vt 0.141000 0.075000 0.000000
vt 0.000000 0.000000 0.000000
vt 0.216000 0.000000 0.000000
vt -0.000000 0.075000 0.000000
vt 0.216000 0.075000 0.000000
vt -0.000000 0.000000 0.000000
vt 0.050000 0.000000 0.000000
vt -0.000000 0.075000 0.000000
vt 0.050000 0.075000 0.000000
vt 0.000000 0.000000 0.000000
vt 0.266000 -0.000000 0.000000
vt 0.000000 0.075000 0.000000
vt 0.266000 0.075000 0.000000
vt 0.000000 0.000000 0.000000
vt 0.191000 0.000000 0.000000
vt 0.000000 0.075000 0.000000
vt 0.191000 0.075000 0.000000
vt 0.000000 0.000000 0.000000
vt 0.141000 0.000000 0.000000
vt 0.000000 0.075000 0.000000
vt 0.141000 0.075000 0.000000
vt -0.000000 0.000000 0.000000
vt 0.357000 0.000000 0.000000
vt 0.000000 0.075000 0.000000
vt 0.357000 0.075000 0.000000
vt 0.000000 0.000000 0.000000
vt 0.191000 -0.000000 0.000000
vt -0.000000 0.075000 0.000000
vt 0.191000 0.075000 0.000000
vt -0.000000 0.000000 0.000000
vt 0.050000 0.000000 0.000000
vt -0.000000 0.075000 0.000000
vt 0.050000 0.075000 0.000000
vt 0.000000 0.000000 0.000000
vt 0.191000 0.000000 0.000000
vt 0.000000 0.075000 0.000000
vt 0.191000 0.075000 0.000000
vt 0.000000 0.000000 0.000000
vt 0.382000 -0.000000 0.000000
vt 0.000000 0.075000 0.000000
vt 0.382000 0.075000 0.000000
vt 0.000000 0.000000 0.000000
vt 0.357000 0.000000 0.000000
vt -0.000000 0.075000 0.000000
vt 0.357000 0.075000 0.000000
vt -0.000000 0.000000 0.000000
vt 0.166000 0.000000 0.000000
vt -0.000000 0.075000 0.000000
vt 0.166000 0.075000 0.000000
vt 0.000000 0.000000 0.000000
vt 0.216000 -0.000000 0.000000
vt 0.000000 0.075000 0.000000
vt 0.216000 0.075000 0.000000
vt 0.000000 0.000000 0.000000
vt 0.050000 0.000000 0.000000
vt 0.000000 0.075000 0.000000
vt 0.050000 0.075000 0.000000
vt 0.000000 0.000000 0.000000
vt 0.216000 0.000000 0.000000
vt -0.000000 0.075000 0.000000
vt 0.216000 0.075000 0.000000
vt 0.000000 0.000000 0.000000
vt 0.216000 0.000000 0.000000
vt -0.000000 0.075000 0.000000
vt 0.216000 0.075000 0.000000
vt 0.000000 0.000000 0.000000
vt 0.050000 -0.000000 0.000000
vt -0.000000 0.075000 0.000000
vt 0.050000 0.075000 0.000000
vt -0.000000 0.000000 0.000000
vt 0.432000 -0.000000 0.000000
vt -0.000000 0.075000 0.000000
vt 0.432000 0.075000 0.000000
vt 0.000000 0.000000 0.000000
vt 0.216000 -0.000000 0.000000
vt -0.000000 0.075000 0.000000
vt 0.216000 0.075000 0.000000
vt -0.000000 0.000000 0.000000
vt 0.216000 -0.000000 0.000000
vt -0.000000 0.075000 0.000000
vt 0.216000 0.075000 0.000000
vt 0.000000 0.000000 0.000000
vt 0.814000 0.000000 0.000000
vt -0.000000 0.075000 0.000000
vt 0.814000 0.075000 0.000000
vt -0.000000 0.000000 0.000000
vt 0.216000 0.000000 0.000000
vt -0.000000 0.075000 0.000000
vt 0.216000 0.075000 0.000000
vt 0.000000 0.000000 0.000000
vt 0.216000 -0.000000 0.000000
vt 0.000000 0.075000 0.000000
vt 0.216000 0.075000 0.000000
vt 0.000000 0.000000 0.000000
vt 0.166000 0.000000 0.000000
vt 0.000000 0.075000 0.000000
vt 0.166000 0.075000 0.000000
vt 0.000000 0.000000 0.000000
vt 0.382000 0.000000 0.000000
vt -0.000000 0.075000 0.000000
vt 0.382000 0.075000 0.000000
vt 0.000000 0.000000 0.000000
vt 0.216000 0.000000 0.000000
vt 0.000000 0.075000 0.000000
vt 0.216000 0.075000 0.000000
vt 0.000000 0.000000 0.000000
vt 0.482000 0.000000 0.000000
vt -0.000000 0.075000 0.000000
vt 0.482000 0.075000 0.000000
vt 0.000000 0.000000 0.000000
vt 0.216000 0.000000 0.000000
vt 0.000000 0.075000 0.000000
vt 0.216000 0.075000 0.000000
vt 0.000000 0.000000 0.000000
vt 0.216000 0.000000 0.000000
vt 0.000000 0.075000 0.000000
vt 0.216000 0.075000 0.000000
vt -0.000000 -0.000000 0.000000
vt 0.050000 -0.000000 0.000000
vt -0.000000 0.075000 0.000000
vt 0.050000 0.075000 0.000000
vt 0.000000 0.000000 0.000000
vt 0.216000 0.000000 0.000000
vt 0.000000 0.075000 0.000000
vt 0.216000 0.075000 0.000000
vt -0.000000 -0.000000 0.000000
vt 0.432000 0.000000 0.000000
vt -0.000000 0.075000 0.000000
vt 0.432000 0.075000 0.000000
vt 0.000000 0.000000 0.000000
vt 0.482000 0.000000 0.000000
vt 0.000000 0.075000 0.000000
vt 0.482000 0.075000 0.000000
vt -0.000000 0.000000 0.000000
vt 0.050000 0.000000 0.000000
vt -0.000000 0.075000 0.000000
vt 0.050000 0.075000 0.000000
vt 0.000000 0.000000 0.000000
vt 0.216000 0.000000 0.000000
vt -0.000000 0.075000 0.000000
vt 0.216000 0.075000 0.000000
vt -0.000000 0.000000 0.000000
vt 0.432000 -0.000000 0.000000
vt -0.000000 0.075000 0.000000
vt 0.432000 0.075000 0.000000
vt 0.000000 0.000000 0.000000
vt 0.050000 0.000000 0.000000
vt -0.000000 0.075000 0.000000
vt 0.050000 0.075000 0.000000
vt 0.000000 0.000000 0.000000
vt 0.432000 0.000000 0.000000
vt 0.000000 0.075000 0.000000
vt 0.432000 0.075000 0.000000
vt 0.000000 0.000000 0.000000
vt 0.166000 -0.000000 0.000000
vt -0.000000 0.075000 0.000000
vt 0.166000 0.075000 0.000000
vt -0.000000 0.000000 0.000000
vt 0.598000 -0.000000 0.000000
vt -0.000000 0.075000 0.000000
vt 0.598000 0.075000 0.000000
vt 0.000000 0.000000 0.000000
vt 0.382000 0.000000 0.000000
vt -0.000000 0.075000 0.000000
vt 0.382000 0.075000 0.000000
vt 0.000000 0.000000 0.000000
vt 0.432000 0.000000 0.000000
vt 0.000000 0.075000 0.000000
vt 0.432000 0.075000 0.000000
vt 0.000000 0.000000 0.000000
vt 0.050000 -0.000000 0.000000
vt 0.000000 0.075000 0.000000
vt 0.050000 0.075000 0.000000
vt -0.000000 0.000000 0.000000
vt 0.216000 0.000000 0.000000
vt 0.000000 0.075000 0.000000
vt 0.216000 0.075000 0.000000
vt 0.000000 0.000000 0.000000
vt 0.166000 0.000000 0.000000
vt -0.000000 0.075000 0.000000
vt 0.166000 0.075000 0.000000
vt -0.000000 -0.000000 0.000000
vt 0.432000 0.000000 0.000000
vt -0.000000 0.075000 0.000000
vt 0.432000 0.075000 0.000000
vt 0.000000 0.000000 0.000000
vt 0.050000 -0.000000 0.000000
vt 0.000000 0.075000 0.000000
vt 0.050000 0.075000 0.000000
vt -0.000000 0.000000 0.000000
vt 0.432000 -0.000000 0.000000
vt -0.000000 0.075000 0.000000
vt 0.432000 0.075000 0.000000
vt 0.000000 0.000000 0.000000
vt 0.166000 -0.000000 0.000000
vt 0.000000 0.075000 0.000000
vt 0.166000 0.075000 0.000000
vt 0.000000 0.000000 0.000000
vt 0.216000 0.000000 0.000000
vt 0.000000 0.075000 0.000000
vt 0.216000 0.075000 0.000000
vt 0.000000 0.000000 0.000000
vt 0.216000 0.000000 0.000000
vt 0.000000 0.075000 0.000000
vt 0.216000 0.075000 0.000000
vt -0.000000 -0.000000 0.000000
vt 0.216000 0.000000 0.000000
vt -0.000000 0.075000 0.000000
vt 0.216000 0.075000 0.000000
vt 0.000000 0.000000 0.000000
vt 0.050000 -0.000000 0.000000
vt 0.000000 0.075000 0.000000
vt 0.050000 0.075000 0.000000
vt -0.000000 0.000000 0.000000
vt 0.266000 0.000000 0.000000
vt 0.000000 0.075000 0.000000
vt 0.266000 0.075000 0.000000
vt 0.000000 0.000000 0.000000
vt 0.216000 -0.000000 0.000000
vt -0.000000 0.075000 0.000000
vt 0.216000 0.075000 0.000000
vt -0.000000 0.000000 0.000000
vt 0.166000 -0.000000 0.000000
vt -0.000000 0.075000 0.000000
vt 0.166000 0.075000 0.000000
vt 0.000000 0.000000 0.000000
vt 0.216000 0.000000 0.000000
vt 0.000000 0.075000 0.000000
vt 0.216000 0.075000 0.000000
vt -0.000000 0.000000 0.000000
vt 0.050000 0.000000 0.000000
vt -0.000000 0.075000 0.000000
vt 0.050000 0.075000 0.000000
vt 0.000000 0.000000 0.000000
vt 0.216000 -0.000000 0.000000
vt 0.000000 0.075000 0.000000
vt 0.216000 0.075000 0.000000
vt 0.000000 0.000000 0.000000
vt 0.382000 -0.000000 0.000000
vt 0.000000 0.075000 0.000000
vt 0.382000 0.075000 0.000000
vt 0.000000 0.000000 0.000000
vt 0.216000 0.000000 0.000000
vt 0.000000 0.075000 0.000000
vt 0.216000 0.075000 0.000000
vt 0.000000 0.000000 0.000000
vt 0.266000 0.000000 0.000000
vt 0.000000 0.075000 0.000000
vt 0.266000 0.075000 0.000000
vt 0.000000 0.000000 0.000000
vt 0.050000 0.000000 0.000000
vt 0.000000 0.075000 0.000000
vt 0.050000 0.075000 0.000000
vt -0.000000 0.000000 0.000000
vt 0.216000 0.000000 0.000000
vt -0.000000 0.075000 0.000000
vt 0.216000 0.075000 0.000000
vt 0.000000 0.000000 0.000000
vt 0.166000 -0.000000 0.000000
vt 0.000000 0.075000 0.000000
vt 0.166000 0.075000 0.000000
vt -0.000000 0.000000 0.000000
vt 0.382000 -0.000000 0.000000
vt -0.000000 0.075000 0.000000
vt 0.382000 0.075000 0.000000
vt 0.000000 0.000000 0.000000
vt 0.216000 0.000000 0.000000
vt 0.000000 0.075000 0.000000
vt 0.216000 0.075000 0.000000
vt -0.000000 0.000000 0.000000
vt 0.050000 0.000000 0.000000
vt -0.000000 0.075000 0.000000
vt 0.050000 0.075000 0.000000
vt 0.000000 0.000000 0.000000
vt 0.266000 -0.000000 0.000000
vt -0.000000 0.075000 0.000000
vt 0.266000 0.075000 0.000000
vt -0.000000 0.000000 0.000000
vt 0.216000 0.000000 0.000000
vt -0.000000 0.075000 0.000000
vt 0.216000 0.075000 0.000000
vt 0.000000 0.000000 0.000000
vt 0.166000 0.000000 0.000000
vt -0.000000 0.075000 0.000000
vt 0.166000 0.075000 0.000000
vt 0.000000 -0.000000 0.000000
vt 0.382000 -0.000000 0.000000
vt 0.000000 0.075000 0.000000
vt 0.382000 0.075000 0.000000
vt 0.000000 0.000000 0.000000
vt 0.216000 -0.000000 0.000000
vt 0.000000 0.075000 0.000000
vt 0.216000 0.075000 0.000000
vt -0.000000 0.000000 0.000000
vt 0.216000 0.000000 0.000000
vt -0.000000 0.075000 0.000000
vt 0.216000 0.075000 0.000000
vt 0.000000 0.000000 0.000000
vt 0.166000 0.000000 0.000000
vt 0.000000 0.075000 0.000000
vt 0.166000 0.075000 0.000000
vt -0.000000 0.000000 0.000000
vt 0.216000 0.000000 0.000000
vt -0.000000 0.075000 0.000000
vt 0.216000 0.075000 0.000000
vt 0.000000 0.000000 0.000000
vt 0.050000 -0.000000 0.000000
vt 0.000000 0.075000 0.000000
vt 0.050000 0.075000 0.000000
vt -0.000000 -0.000000 0.000000
vt 0.266000 -0.000000 0.000000
vt -0.000000 0.075000 0.000000
vt 0.266000 0.075000 0.000000
vt 0.000000 0.000000 0.000000
vt 0.266000 -0.000000 0.000000
vt -0.000000 0.075000 0.000000
vt 0.266000 0.075000 0.000000
vt -0.000000 -0.000000 0.000000
vt 0.216000 0.000000 0.000000
vt -0.000000 0.075000 0.000000
vt 0.216000 0.075000 0.000000
vt 0.000000 0.000000 0.000000
vt 0.598000 0.000000 0.000000
vt -0.000000 0.075000 0.000000
vt 0.598000 0.075000 0.000000
vt 0.000000 -0.000000 0.000000
vt 0.216000 -0.000000 0.000000
vt 0.000000 0.075000 0.000000
vt 0.216000 0.075000 0.000000
vt 0.000000 0.000000 0.000000
vt 0.914000 0.000000 0.000000
vt 0.000000 0.075000 0.000000
vt 0.914000 0.075000 0.000000
vt -0.000000 0.000000 0.000000
vt 0.266000 0.000000 0.000000
vt -0.000000 0.075000 0.000000
vt 0.266000 0.075000 0.000000
vt 0.718500 -0.839000 0.000000
vt 0.718500 -0.889000 0.000000
vt 0.934500 -0.839000 0.000000
vt 0.984500 -0.889000 0.000000
vt 0.934500 -0.025000 0.000000
vt 0.984500 0.025000 0.000000
vt 0.768500 0.025000 0.000000
vt 0.768500 0.623000 0.000000
vt 0.718500 0.407000 0.000000
vt 0.718500 0.241000 0.000000
vt 0.718500 0.191000 0.000000
vt 0.502500 0.241000 0.000000
vt 0.502500 0.191000 0.000000
vt 0.984500 0.623000 0.000000
vt 0.934500 0.673000 0.000000
vt 0.718500 0.673000 0.000000
vt 0.718500 0.457000 0.000000
vt 0.934500 0.839000 0.000000
vt 0.984500 0.889000 0.000000
vt 0.718500 0.889000 0.000000
vt 0.718500 0.839000 0.000000
vt 0.336500 0.457000 0.000000
vt 0.336500 0.407000 0.000000
vt 0.286500 0.623000 0.000000
vt 0.286500 0.191000 0.000000
vt 0.336500 0.623000 0.000000
vt 0.120500 0.673000 0.000000
vt 0.070500 0.673000 0.000000
vt 0.120500 0.839000 0.000000
vt 0.070500 0.889000 0.000000
vt 0.336500 0.889000 0.000000
vt 0.336500 0.839000 0.000000
vt 0.502500 0.673000 0.000000
vt 0.552500 0.623000 0.000000
vt 0.552500 0.889000 0.000000
vt 0.502500 0.889000 0.000000
vt -0.095500 0.623000 0.000000
vt -0.311500 0.673000 0.000000
vt -0.145500 0.623000 0.000000
vt -0.311500 0.623000 0.000000
vt -0.361500 0.673000 0.000000
vt -0.361500 0.623000 0.000000
vt -0.527500 0.673000 0.000000
vt -0.577500 0.623000 0.000000
vt -0.577500 0.839000 0.000000
vt -0.527500 0.889000 0.000000
vt -0.793500 0.889000 0.000000
vt -0.311500 0.889000 0.000000
vt -0.361500 0.889000 0.000000
vt -0.793500 0.839000 0.000000
vt -0.361500 0.457000 0.000000
vt -0.311500 0.241000 0.000000
vt -0.361500 0.407000 0.000000
vt -0.361500 0.241000 0.000000
vt -0.793500 0.457000 0.000000
vt -0.793500 0.407000 0.000000
vt -0.577500 0.241000 0.000000
vt -0.577500 0.191000 0.000000
vt -0.145500 0.191000 0.000000
vt -0.095500 0.241000 0.000000
vt -0.095500 -0.241000 0.000000
vt -0.145500 -0.191000 0.000000
vt -0.311500 -0.241000 0.000000
vt -0.361500 -0.241000 0.000000
vt -0.311500 -0.457000 0.000000
vt -0.361500 -0.457000 0.000000
vt -0.743500 -0.191000 0.000000
vt -0.793500 -0.241000 0.000000
vt -0.743500 -0.025000 0.000000
vt -0.743500 0.025000 0.000000
vt -0.311500 -0.025000 0.000000
vt -0.311500 0.025000 0.000000
vt -0.743500 0.241000 0.000000
vt -0.793500 0.241000 0.000000
vt -0.095500 0.457000 0.000000
vt -0.145500 0.407000 0.000000
vt 0.070500 0.407000 0.000000
vt 0.070500 -0.407000 0.000000
vt 0.120500 0.025000 0.000000
vt 0.120500 0.457000 0.000000
vt -0.145500 -0.407000 0.000000
vt -0.095500 -0.457000 0.000000
vt 0.120500 -0.457000 0.000000
vt 0.120500 -0.025000 0.000000
vt -0.145500 -0.623000 0.000000
vt -0.145500 -0.673000 0.000000
vt -0.095500 -1.030000 0.000000
vt -0.145500 -1.030000 0.000000
vt 0.120500 -1.080000 0.000000
vt -0.527500 -1.030000 0.000000
vt -0.984500 -1.080000 0.000000
vt -0.577500 -1.030000 0.000000
vt -0.934500 -1.030000 0.000000
vt -0.577500 -0.623000 0.000000
vt -0.361500 -0.673000 0.000000
vt -0.311500 -0.673000 0.000000
vt -0.577500 -0.673000 0.000000
vt -0.361500 -0.889000 0.000000
vt -0.311500 -0.889000 0.000000
vt -0.527500 -0.839000 0.000000
vt -0.577500 -0.839000 0.000000
vt -0.934500 -0.889000 0.000000
vt -0.934500 -0.839000 0.000000
vt -0.934500 -0.457000 0.000000
vt -0.793500 -0.839000 0.000000
vt -0.743500 -0.889000 0.000000
vt -0.743500 -0.623000 0.000000
vt -0.793500 -0.623000 0.000000
vt -0.934500 -0.407000 0.000000
vt -0.527500 -0.457000 0.000000
vt -0.527500 -0.407000 0.000000
vt -0.984500 1.080000 0.000000
vt -0.934500 0.623000 0.000000
vt -0.934500 0.673000 0.000000
vt -0.743500 0.623000 0.000000
vt -0.743500 0.673000 0.000000
vt -0.934500 1.030000 0.000000
vt -0.145500 1.030000 0.000000
vt -0.095500 1.080000 0.000000
vt -0.095500 0.839000 0.000000
vt -0.145500 0.839000 0.000000
vt 0.120500 -1.030000 0.000000
vt 0.552500 -0.025000 0.000000
vt 0.552500 0.025000 0.000000
vt 0.336500 0.191000 0.000000
vt 0.768500 -0.025000 0.000000
vt 0.718500 -0.241000 0.000000
vt 0.768500 -0.241000 0.000000
vt 0.889000 -0.718500 0.000000
vt 0.839000 -0.934500 0.000000
vt 0.889000 -0.984500 0.000000
vt 0.025000 -0.934500 0.000000
vt -0.025000 -0.984500 0.000000
vt -0.025000 -0.768500 0.000000
vt 0.025000 -0.768500 0.000000
vt -0.191000 -0.718500 0.000000
vt 0.241000 -0.718500 0.000000
vt 0.241000 -0.768500 0.000000
vt 0.839000 -0.718500 0.000000
vt -0.191000 -0.502500 0.000000
vt -0.241000 -0.502500 0.000000
vt -0.241000 -0.718500 0.000000
vt -0.407000 -0.718500 0.000000
vt -0.623000 -0.768500 0.000000
vt -0.457000 -0.718500 0.000000
vt -0.673000 -0.718500 0.000000
vt -0.457000 -0.336500 0.000000
vt -0.407000 -0.336500 0.000000
vt -0.623000 -0.286500 0.000000
vt -0.191000 -0.286500 0.000000
vt -0.191000 -0.336500 0.000000
vt -0.623000 0.095500 0.000000
vt -0.673000 -0.070500 0.000000
vt -0.673000 -0.120500 0.000000
vt -0.673000 -0.502500 0.000000
vt -0.623000 0.145500 0.000000
vt -0.457000 0.095500 0.000000
vt -0.407000 0.145500 0.000000
vt -0.407000 -0.070500 0.000000
vt -0.457000 -0.120500 0.000000
vt -0.025000 -0.120500 0.000000
vt -0.025000 -0.552500 0.000000
vt 0.025000 -0.552500 0.000000
vt 0.025000 -0.120500 0.000000
vt 0.407000 -0.070500 0.000000
vt 0.457000 -0.120500 0.000000
vt 0.457000 0.095500 0.000000
vt 1.030000 0.095500 0.000000
vt 0.673000 0.145500 0.000000
vt 0.623000 0.145500 0.000000
vt 0.407000 0.145500 0.000000
vt 1.030000 -0.120500 0.000000
vt 1.080000 -0.120500 0.000000
vt 1.030000 0.145500 0.000000
vt 1.030000 0.527500 0.000000
vt 1.080000 0.984500 0.000000
vt 1.030000 0.577500 0.000000
vt 1.030000 0.934500 0.000000
vt 0.889000 0.934500 0.000000
vt 0.839000 0.934500 0.000000
vt 0.839000 0.793500 0.000000
vt -1.080000 0.984500 0.000000
vt 0.407000 0.934500 0.000000
vt 0.457000 0.934500 0.000000
vt -1.080000 0.095500 0.000000
vt -1.030000 0.934500 0.000000
vt -0.673000 0.934500 0.000000
vt -0.623000 0.934500 0.000000
vt -0.623000 0.743500 0.000000
vt -0.673000 0.743500 0.000000
vt -1.030000 0.145500 0.000000
vt -0.839000 0.095500 0.000000
vt -0.839000 0.145500 0.000000
vt 0.407000 0.527500 0.000000
vt 0.457000 0.527500 0.000000
vt 0.623000 0.793500 0.000000
vt 0.623000 0.743500 0.000000
vt 0.889000 0.743500 0.000000
vt 0.839000 0.577500 0.000000
vt 0.839000 0.527500 0.000000
vt 0.673000 0.311500 0.000000
vt 0.673000 0.361500 0.000000
vt 0.623000 0.577500 0.000000
vt 0.673000 0.577500 0.000000
vt 0.889000 0.311500 0.000000
vt 0.889000 0.361500 0.000000
vt -0.673000 0.311500 0.000000
vt -0.623000 0.311500 0.000000
vt -0.673000 0.361500 0.000000
vt -0.623000 0.361500 0.000000
vt -0.673000 0.527500 0.000000
vt -0.623000 0.577500 0.000000
vt -0.839000 0.577500 0.000000
vt -0.457000 0.361500 0.000000
vt -0.241000 0.311500 0.000000
vt -0.407000 0.361500 0.000000
vt -0.241000 0.361500 0.000000
vt -0.191000 0.145500 0.000000
vt -0.191000 0.577500 0.000000
vt -0.241000 0.095500 0.000000
vt 0.241000 0.095500 0.000000
vt 0.191000 0.145500 0.000000
vt 0.241000 0.311500 0.000000
vt 0.241000 0.361500 0.000000
vt 0.457000 0.311500 0.000000
vt 0.457000 0.361500 0.000000
vt 0.191000 0.743500 0.000000
vt 0.241000 0.793500 0.000000
vt 0.025000 0.743500 0.000000
vt -0.241000 0.793500 0.000000
vt -0.025000 0.743500 0.000000
vt -0.241000 0.743500 0.000000
vt -0.025000 0.311500 0.000000
vt 0.025000 0.311500 0.000000
vt -0.241000 0.577500 0.000000
vt -0.407000 0.793500 0.000000
vt -0.457000 0.793500 0.000000
vt -0.839000 0.793500 0.000000
vt -0.889000 0.793500 0.000000
vt -0.889000 0.527500 0.000000
vt -0.889000 0.361500 0.000000
vt -0.889000 0.311500 0.000000
vt -0.839000 -0.120500 0.000000
vt -0.889000 -0.070500 0.000000
vt -0.889000 -0.336500 0.000000
vt -0.839000 -0.336500 0.000000
vt -0.889000 -0.502500 0.000000
vt -0.889000 -0.552500 0.000000
vt -0.623000 -0.552500 0.000000
vt -0.623000 -0.336500 0.000000
vt -0.673000 -0.934500 0.000000
vt -0.623000 -0.984500 0.000000
vt -0.839000 -0.934500 0.000000
vt -0.889000 -0.984500 0.000000
vt -0.889000 -0.718500 0.000000
vt -0.839000 -0.718500 0.000000
vn -1.000000 -0.000000 -0.000000
vn -1.000000 -0.000000 -0.000000
vn -1.000000 -0.000000 -0.000000
vn -1.000000 -0.000000 -0.000000
vn -0.000000 1.000000 0.000000
vn -0.000000 1.000000 0.000000
vn -0.000000 1.000000 0.000000
vn -0.000000 1.000000 0.000000
vn -1.000000 -0.000000 -0.000000
vn -1.000000 -0.000000 -0.000000
vn -1.000000 -0.000000 -0.000000
vn -1.000000 -0.000000 -0.000000
vn 0.000000 -1.000000 -0.000000
vn 0.000000 -1.000000 -0.000000
vn 0.000000 -1.000000 -0.000000
vn 0.000000 -1.000000 -0.000000
vn 1.000000 0.000000 0.000000
vn 1.000000 0.000000 0.000000
vn 1.000000 0.000000 0.000000
vn 1.000000 0.000000 0.000000
vn 0.000000 -1.000000 -0.000000
vn 0.000000 -1.000000 -0.000000
vn 0.000000 -1.000000 -0.000000
vn 0.000000 -1.000000 -0.000000
vn -1.000000 -0.000000 -0.000000
vn -1.000000 -0.000000 -0.000000
vn -1.000000 -0.000000 -0.000000
vn -1.000000 -0.000000 -0.000000
vn 0.000000 -1.000000 -0.000000
vn 0.000000 -1.000000 -0.000000
vn 0.000000 -1.000000 -0.000000
vn 0.000000 -1.000000 -0.000000
vn -1.000000 -0.000000 -0.000000
vn -1.000000 -0.000000 -0.000000
vn -1.000000 -0.000000 -0.000000
vn -1.000000 -0.000000 -0.000000
vn -0.000000 1.000000 0.000000
vn -0.000000 1.000000 0.000000
vn -0.000000 1.000000 0.000000
vn -0.000000 1.000000 0.000000
vn -1.000000 -0.000000 -0.000000
vn -1.000000 -0.000000 -0.000000
vn -1.000000 -0.000000 -0.000000
vn -1.000000 -0.000000 -0.000000
vn 0.000000 -1.000000 -0.000000
vn 0.000000 -1.000000 -0.000000
vn 0.000000 -1.000000 -0.000000
vn 0.000000 -1.000000 -0.000000
vn 1.000000 0.000000 0.000000
vn 1.000000 0.000000 0.000000
vn 1.000000 0.000000 0.000000
vn 1.000000 0.000000 0.000000
vn 0.000000 -1.000000 -0.000000
vn 0.000000 -1.000000 -0.000000
vn 0.000000 -1.000000 -0.000000
vn 0.000000 -1.000000 -0.000000
vn -1.000000 -0.000000 -0.000000
vn -1.000000 -0.000000 -0.000000
vn -1.000000 -0.000000 -0.000000
vn -1.000000 -0.000000 -0.000000
vn 0.000000 -1.000000 -0.000000
vn 0.000000 -1.000000 -0.000000
vn 0.000000 -1.000000 -0.000000
vn 0.000000 -1.000000 -0.000000
vn 1.000000 0.000000 0.000000
vn 1.000000 0.000000 0.000000
vn 1.000000 0.000000 0.000000
vn 1.000000 0.000000 0.000000
vn -0.000000 1.000000 0.000000
vn -0.000000 1.000000 0.000000
vn -0.000000 1.000000 0.000000
vn -0.000000 1.000000 0.000000
vn 1.000000 0.000000 0.000000
vn 1.000000 0.000000 0.000000
vn 1.000000 0.000000 0.000000
vn 1.000000 0.000000 0.000000
vn -0.000000 1.000000 0.000000
vn -0.000000 1.000000 0.000000
vn -0.000000 1.000000 0.000000
vn -0.000000 1.000000 0.000000
vn 1.000000 0.000000 0.000000
vn 1.000000 0.000000 0.000000
vn 1.000000 0.000000 0.000000
vn 1.000000 0.000000 0.000000
vn 0.000000 -1.000000 -0.000000
vn 0.000000 -1.000000 -0.000000
vn 0.000000 -1.000000 -0.000000
vn 0.000000 -1.000000 -0.000000
vn 1.000000 0.000000 0.000000
vn 1.000000 0.000000 0.000000
vn 1.000000 0.000000 0.000000
vn 1.000000 0.000000 0.000000
vn 0.000000 -1.000000 -0.000000
vn 0.000000 -1.000000 -0.000000
vn 0.000000 -1.000000 -0.000000
vn 0.000000 -1.000000 -0.000000
vn 1.000000 0.000000 0.000000
vn 1.000000 0.000000 0.000000
vn 1.000000 0.000000 0.000000
vn 1.000000 0.000000 0.000000
vn -0.000000 1.000000 0.000000
vn -0.000000 1.000000 0.000000
vn -0.000000 1.000000 0.000000
vn -0.000000 1.000000 0.000000
vn 1.000000 0.000000 0.000000
vn 1.000000 0.000000 0.000000
vn 1.000000 0.000000 0.000000
vn 1.000000 0.000000 0.000000
vn 0.000000 -1.000000 -0.000000
vn 0.000000 -1.000000 -0.000000
vn 0.000000 -1.000000 -0.000000
vn 0.000000 -1.000000 -0.000000
vn -1.000000 -0.000000 -0.000000
vn -1.000000 -0.000000 -0.000000
vn -1.000000 -0.000000 -0.000000
vn -1.000000 -0.000000 -0.000000
vn -0.000000 1.000000 0.000000
vn -0.000000 1.000000 0.000000
vn -0.000000 1.000000 0.000000
vn -0.000000 1.000000 0.000000
vn 1.000000 0.000000 0.000000
vn 1.000000 0.000000 0.000000
vn 1.000000 0.000000 0.000000
vn 1.000000 0.000000 0.000000
vn 0.000000 -1.000000 -0.000000
vn 0.000000 -1.000000 -0.000000
vn 0.000000 -1.000000 -0.000000
vn 0.000000 -1.000000 -0.000000
vn -1.000000 -0.000000 -0.000000
vn -1.000000 -0.000000 -0.000000
vn -1.000000 -0.000000 -0.000000
vn -1.000000 -0.000000 -0.000000
vn -0.000000 -1.000000 -0.000000
vn -0.000000 -1.000000 -0.000000
vn -0.000000 -1.000000 -0.000000
vn -0.000000 -1.000000 -0.000000
vn 1.000000 0.000000 0.000000
vn 1.000000 0.000000 0.000000
vn 1.000000 0.000000 0.000000
vn 1.000000 0.000000 0.000000
vn -0.000000 1.000000 0.000000
vn -0.000000 1.000000 0.000000
vn -0.000000 1.000000 0.000000
vn -0.000000 1.000000 0.000000
vn 1.000000 0.000000 0.000000
vn 1.000000 0.000000 0.000000
vn 1.000000 0.000000 0.000000
vn 1.000000 0.000000 0.000000
vn 0.000000 -1.000000 -0.000000
vn 0.000000 -1.000000 -0.000000
vn 0.000000 -1.000000 -0.000000
vn 0.000000 -1.000000 -0.000000
vn 1.000000 0.000000 0.000000
vn 1.000000 0.000000 0.000000
vn 1.000000 0.000000 0.000000
vn 1.000000 0.000000 0.000000
vn -0.000000 1.000000 0.000000
vn -0.000000 1.000000 0.000000
vn -0.000000 1.000000 0.000000
vn -0.000000 1.000000 0.000000
vn 1.000000 0.000000 0.000000
vn 1.000000 0.000000 0.000000
vn 1.000000 0.000000 0.000000
vn 1.000000 0.000000 0.000000
vn 0.000000 -1.000000 -0.000000
vn 0.000000 -1.000000 -0.000000
vn 0.000000 -1.000000 -0.000000
vn 0.000000 -1.000000 -0.000000
vn 1.000000 0.000000 0.000000
vn 1.000000 0.000000 0.000000
vn 1.000000 0.000000 0.000000
vn 1.000000 0.000000 0.000000
vn -0.000000 1.000000 0.000000
vn -0.000000 1.000000 0.000000
vn -0.000000 1.000000 0.000000
vn -0.000000 1.000000 0.000000
vn -1.000000 -0.000000 -0.000000
vn -1.000000 -0.000000 -0.000000
vn -1.000000 -0.000000 -0.000000
vn -1.000000 -0.000000 -0.000000
vn -0.000000 1.000000 0.000000
vn -0.000000 1.000000 0.000000
vn -0.000000 1.000000 0.000000
vn -0.000000 1.000000 0.000000
vn 1.000000 0.000000 0.000000
vn 1.000000 0.000000 0.000000
vn 1.000000 0.000000 0.000000
vn 1.000000 0.000000 0.000000
vn 0.000000 -1.000000 -0.000000
vn 0.000000 -1.000000 -0.000000
vn 0.000000 -1.000000 -0.000000
vn 0.000000 -1.000000 -0.000000
vn 1.000000 0.000000 0.000000
vn 1.000000 0.000000 0.000000
vn 1.000000 0.000000 0.000000
vn 1.000000 0.000000 0.000000
vn -0.000000 1.000000 0.000000
vn -0.000000 1.000000 0.000000
vn -0.000000 1.000000 0.000000
vn -0.000000 1.000000 0.000000
vn -1.000000 -0.000000 -0.000000
vn -1.000000 -0.000000 -0.000000
vn -1.000000 -0.000000 -0.000000
vn -1.000000 -0.000000 -0.000000
vn -0.000000 1.000000 0.000000
vn -0.000000 1.000000 0.000000
vn -0.000000 1.000000 0.000000
vn -0.000000 1.000000 0.000000
vn 1.000000 0.000000 0.000000
vn 1.000000 0.000000 0.000000
vn 1.000000 0.000000 0.000000
vn 1.000000 0.000000 0.000000
vn -0.000000 1.000000 0.000000
vn -0.000000 1.000000 0.000000
vn -0.000000 1.000000 0.000000
vn -0.000000 1.000000 0.000000
vn -1.000000 -0.000000 -0.000000
vn -1.000000 -0.000000 -0.000000
vn -1.000000 -0.000000 -0.000000
vn -1.000000 -0.000000 -0.000000
vn 0.000000 -1.000000 -0.000000
vn 0.000000 -1.000000 -0.000000
vn 0.000000 -1.000000 -0.000000
vn 0.000000 -1.000000 -0.000000
vn 1.000000 0.000000 0.000000
vn 1.000000 0.000000 0.000000
vn 1.000000 0.000000 0.000000
vn 1.000000 0.000000 0.000000
vn 0.000000 -1.000000 -0.000000
vn 0.000000 -1.000000 -0.000000
vn 0.000000 -1.000000 -0.000000
vn 0.000000 -1.000000 -0.000000
vn -1.000000 -0.000000 -0.000000
vn -1.000000 -0.000000 -0.000000
vn -1.000000 -0.000000 -0.000000
vn -1.000000 -0.000000 -0.000000
vn 0.000000 -1.000000 -0.000000
vn 0.000000 -1.000000 -0.000000
vn 0.000000 -1.000000 -0.000000
vn 0.000000 -1.000000 -0.000000
vn -1.000000 -0.000000 -0.000000
vn -1.000000 -0.000000 -0.000000
vn -1.000000 -0.000000 -0.000000
vn -1.000000 -0.000000 -0.000000
vn -0.000000 1.000000 0.000000
vn -0.000000 1.000000 0.000000
vn -0.000000 1.000000 0.000000
vn -0.000000 1.000000 0.000000
vn -1.000000 -0.000000 -0.000000
vn -1.000000 -0.000000 -0.000000
vn -1.000000 -0.000000 -0.000000
vn -1.000000 -0.000000 -0.000000
vn -0.000000 1.000000 0.000000
vn -0.000000 1.000000 0.000000
vn -0.000000 1.000000 0.000000
vn -0.000000 1.000000 0.000000
vn -1.000000 -0.000000 -0.000000
vn -1.000000 -0.000000 -0.000000
vn -1.000000 -0.000000 -0.000000
vn -1.000000 -0.000000 -0.000000
vn 0.000000 -1.000000 -0.000000
vn 0.000000 -1.000000 -0.000000
vn 0.000000 -1.000000 -0.000000
vn 0.000000 -1.000000 -0.000000
vn -1.000000 -0.000000 -0.000000
vn -1.000000 -0.000000 -0.000000
vn -1.000000 -0.000000 -0.000000
vn -1.000000 -0.000000 -0.000000
vn 0.000000 -1.000000 -0.000000
vn 0.000000 -1.000000 -0.000000
vn 0.000000 -1.000000 -0.000000
vn 0.000000 -1.000000 -0.000000
vn 1.000000 0.000000 0.000000
vn 1.000000 0.000000 0.000000
vn 1.000000 0.000000 0.000000
vn 1.000000 0.000000 0.000000
vn -0.000000 1.000000 0.000000
vn -0.000000 1.000000 0.000000
vn -0.000000 1.000000 0.000000
vn -0.000000 1.000000 0.000000
vn 1.000000 0.000000 0.000000
vn 1.000000 0.000000 0.000000
vn 1.000000 0.000000 0.000000
vn 1.000000 0.000000 0.000000
vn 0.000000 -1.000000 -0.000000
vn 0.000000 -1.000000 -0.000000
vn 0.000000 -1.000000 -0.000000
vn 0.000000 -1.000000 -0.000000
vn 1.000000 0.000000 0.000000
vn 1.000000 0.000000 0.000000
vn 1.000000 0.000000 0.000000
vn 1.000000 0.000000 0.000000
vn 0.000000 -1.000000 -0.000000
vn 0.000000 -1.000000 -0.000000
vn 0.000000 -1.000000 -0.000000
vn 0.000000 -1.000000 -0.000000
vn -1.000000 -0.000000 -0.000000
vn -1.000000 -0.000000 -0.000000
vn -1.000000 -0.000000 -0.000000
vn -1.000000 -0.000000 -0.000000
vn 0.000000 -1.000000 -0.000000
vn 0.000000 -1.000000 -0.000000
vn 0.000000 -1.000000 -0.000000
vn 0.000000 -1.000000 -0.000000
vn -1.000000 -0.000000 -0.000000
vn -1.000000 -0.000000 -0.000000
vn -1.000000 -0.000000 -0.000000
vn -1.000000 -0.000000 -0.000000
vn -0.000000 1.000000 0.000000
vn -0.000000 1.000000 0.000000
vn -0.000000 1.000000 0.000000
vn -0.000000 1.000000 0.000000
vn 1.000000 0.000000 0.000000
vn 1.000000 0.000000 0.000000
vn 1.000000 0.000000 0.000000
vn 1.000000 0.000000 0.000000
vn -0.000000 1.000000 0.000000
vn -0.000000 1.000000 0.000000
vn -0.000000 1.000000 0.000000
vn -0.000000 1.000000 0.000000
vn 1.000000 0.000000 0.000000
vn 1.000000 0.000000 0.000000
vn 1.000000 0.000000 0.000000
vn 1.000000 0.000000 0.000000
vn 0.000000 -1.000000 -0.000000
vn 0.000000 -1.000000 -0.000000
vn 0.000000 -1.000000 -0.000000
vn 0.000000 -1.000000 -0.000000
vn 1.000000 0.000000 0.000000
vn 1.000000 0.000000 0.000000
vn 1.000000 0.000000 0.000000
vn 1.000000 0.000000 0.000000
vn -0.000000 1.000000 0.000000
vn -0.000000 1.000000 0.000000
vn -0.000000 1.000000 0.000000
vn -0.000000 1.000000 0.000000
vn -1.000000 -0.000000 -0.000000
vn -1.000000 -0.000000 -0.000000
vn -1.000000 -0.000000 -0.000000
vn -1.000000 -0.000000 -0.000000
vn 0.000000 -1.000000 -0.000000
vn 0.000000 -1.000000 -0.000000
vn 0.000000 -1.000000 -0.000000
vn 0.000000 -1.000000 -0.000000
vn -1.000000 -0.000000 -0.000000
vn -1.000000 -0.000000 -0.000000
vn -1.000000 -0.000000 -0.000000
vn -1.000000 -0.000000 -0.000000
vn -0.000000 1.000000 0.000000
vn -0.000000 1.000000 0.000000
vn -0.000000 1.000000 0.000000
vn -0.000000 1.000000 0.000000
vn -1.000000 -0.000000 -0.000000
vn -1.000000 -0.000000 -0.000000
vn -1.000000 -0.000000 -0.000000
vn -1.000000 -0.000000 -0.000000
vn 0.000000 -1.000000 -0.000000
vn 0.000000 -1.000000 -0.000000
vn 0.000000 -1.000000 -0.000000
vn 0.000000 -1.000000 -0.000000
vn -1.000000 -0.000000 -0.000000
vn -1.000000 -0.000000 -0.000000
vn -1.000000 -0.000000 -0.000000
vn -1.000000 -0.000000 -0.000000
vn -0.000000 1.000000 0.000000
vn -0.000000 1.000000 0.000000
vn -0.000000 1.000000 0.000000
vn -0.000000 1.000000 0.000000
vn -1.000000 -0.000000 -0.000000
vn -1.000000 -0.000000 -0.000000
vn -1.000000 -0.000000 -0.000000
vn -1.000000 -0.000000 -0.000000
vn 0.000000 -1.000000 -0.000000
vn 0.000000 -1.000000 -0.000000
vn 0.000000 -1.000000 -0.000000
vn 0.000000 -1.000000 -0.000000
vn -1.000000 -0.000000 -0.000000
vn -1.000000 -0.000000 -0.000000
vn -1.000000 -0.000000 -0.000000
vn -1.000000 -0.000000 -0.000000
vn 0.000000 -1.000000 -0.000000
vn 0.000000 -1.000000 -0.000000
vn 0.000000 -1.000000 -0.000000
vn 0.000000 -1.000000 -0.000000
vn -1.000000 -0.000000 -0.000000
vn -1.000000 -0.000000 -0.000000
vn -1.000000 -0.000000 -0.000000
vn -1.000000 -0.000000 -0.000000
vn -0.000000 1.000000 0.000000
vn -0.000000 1.000000 0.000000
vn -0.000000 1.000000 0.000000
vn -0.000000 1.000000 0.000000
vn 1.000000 0.000000 0.000000
vn 1.000000 0.000000 0.000000
vn 1.000000 0.000000 0.000000
vn 1.000000 0.000000 0.000000
vn -0.000000 1.000000 0.000000
vn -0.000000 1.000000 0.000000
vn -0.000000 1.000000 0.000000
vn -0.000000 1.000000 0.000000
vn -1.000000 -0.000000 -0.000000
vn -1.000000 -0.000000 -0.000000
vn -1.000000 -0.000000 -0.000000
vn -1.000000 -0.000000 -0.000000
vn -0.000000 1.000000 0.000000
vn -0.000000 1.000000 0.000000
vn -0.000000 1.000000 0.000000
vn -0.000000 1.000000 0.000000
vn 1.000000 0.000000 0.000000
vn 1.000000 0.000000 0.000000
vn 1.000000 0.000000 0.000000
vn 1.000000 0.000000 0.000000
vn -0.000000 1.000000 0.000000
vn -0.000000 1.000000 0.000000
vn -0.000000 1.000000 0.000000
vn -0.000000 1.000000 0.000000
vn -1.000000 -0.000000 -0.000000
vn -1.000000 -0.000000 -0.000000
vn -1.000000 -0.000000 -0.000000
vn -1.000000 -0.000000 -0.000000
vn -0.000000 1.000000 0.000000
vn -0.000000 1.000000 0.000000
vn -0.000000 1.000000 0.000000
vn -0.000000 1.000000 0.000000
vn 1.000000 0.000000 0.000000
vn 1.000000 0.000000 0.000000
vn 1.000000 0.000000 0.000000
vn 1.000000 0.000000 0.000000
vn 0.000000 -1.000000 -0.000000
vn 0.000000 -1.000000 -0.000000
vn 0.000000 -1.000000 -0.000000
vn 0.000000 -1.000000 -0.000000
vn 1.000000 0.000000 0.000000
vn 1.000000 0.000000 0.000000
vn 1.000000 0.000000 0.000000
vn 1.000000 0.000000 0.000000
vn -0.000000 1.000000 0.000000
vn -0.000000 1.000000 0.000000
vn -0.000000 1.000000 0.000000
vn -0.000000 1.000000 0.000000
vn -1.000000 -0.000000 -0.000000
vn -1.000000 -0.000000 -0.000000
vn -1.000000 -0.000000 -0.000000
vn -1.000000 -0.000000 -0.000000
vn -0.000000 1.000000 0.000000
vn -0.000000 1.000000 0.000000
vn -0.000000 1.000000 0.000000
vn -0.000000 1.000000 0.000000
vn 1.000000 0.000000 0.000000
vn 1.000000 0.000000 0.000000
vn 1.000000 0.000000 0.000000
vn 1.000000 0.000000 0.000000
vn 0.000000 -1.000000 -0.000000
vn 0.000000 -1.000000 -0.000000
vn 0.000000 -1.000000 -0.000000
vn 0.000000 -1.000000 -0.000000
vn 1.000000 0.000000 0.000000
vn 1.000000 0.000000 0.000000
vn 1.000000 0.000000 0.000000
vn 1.000000 0.000000 0.000000
vn -0.000000 1.000000 0.000000
vn -0.000000 1.000000 0.000000
vn -0.000000 1.000000 0.000000
vn -0.000000 1.000000 0.000000
vn -1.000000 -0.000000 -0.000000
vn -1.000000 -0.000000 -0.000000
vn -1.000000 -0.000000 -0.000000
vn -1.000000 -0.000000 -0.000000
vn -0.000000 1.000000 0.000000
vn -0.000000 1.000000 0.000000
vn -0.000000 1.000000 0.000000
vn -0.000000 1.000000 0.000000
vn -1.000000 -0.000000 -0.000000
vn -1.000000 -0.000000 -0.000000
vn -1.000000 -0.000000 -0.000000
vn -1.000000 -0.000000 -0.000000
vn 0.000000 -1.000000 -0.000000
vn 0.000000 -1.000000 -0.000000
vn 0.000000 -1.000000 -0.000000
vn 0.000000 -1.000000 -0.000000
vn -1.000000 -0.000000 -0.000000
vn -1.000000 -0.000000 -0.000000
vn -1.000000 -0.000000 -0.000000
vn -1.000000 -0.000000 -0.000000
vn -0.000000 1.000000 0.000000
vn -0.000000 1.000000 0.000000
vn -0.000000 1.000000 0.000000
vn -0.000000 1.000000 0.000000
vn 1.000000 0.000000 0.000000
vn 1.000000 0.000000 0.000000
vn 1.000000 0.000000 0.000000
vn 1.000000 0.000000 0.000000
vn 0.000000 -1.000000 -0.000000
vn 0.000000 -1.000000 -0.000000
vn 0.000000 -1.000000 -0.000000
vn 0.000000 -1.000000 -0.000000
vn 1.000000 0.000000 0.000000
vn 1.000000 0.000000 0.000000
vn 1.000000 0.000000 0.000000
vn 1.000000 0.000000 0.000000
vn -0.000000 1.000000 0.000000
vn -0.000000 1.000000 0.000000
vn -0.000000 1.000000 0.000000
vn -0.000000 1.000000 0.000000
vn 1.000000 0.000000 0.000000
vn 1.000000 0.000000 0.000000
vn 1.000000 0.000000 0.000000
vn 1.000000 0.000000 0.000000
vn 0.000000 -1.000000 -0.000000
vn 0.000000 -1.000000 -0.000000
vn 0.000000 -1.000000 -0.000000
vn 0.000000 -1.000000 -0.000000
vn 0.000000 -0.000000 1.000000
vn 0.000000 -0.000000 1.000000
vn 0.000000 -0.000000 1.000000
vn 0.000000 -0.000000 1.000000
vn 0.000000 -0.000000 1.000000
vn 0.000000 -0.000000 1.000000
vn 0.000000 -0.000000 1.000000
vn 0.000000 -0.000000 1.000000
vn 0.000000 -0.000000 1.000000
vn 0.000000 -0.000000 1.000000
vn 0.000000 -0.000000 1.000000
vn 0.000000 -0.000000 1.000000
vn 0.000000 -0.000000 1.000000
vn 0.000000 -0.000000 1.000000
vn 0.000000 -0.000000 1.000000
vn 0.000000 -0.000000 1.000000
vn 0.000000 -0.000000 1.000000
vn 0.000000 -0.000000 1.000000
vn 0.000000 -0.000000 1.000000
vn 0.000000 -0.000000 1.000000
vn 0.000000 -0.000000 1.000000
vn 0.000000 -0.000000 1.000000
vn 0.000000 -0.000000 1.000000
vn 0.000000 -0.000000 1.000000
vn 0.000000 -0.000000 1.000000
vn 0.000000 -0.000000 1.000000
vn 0.000000 -0.000000 1.000000
vn 0.000000 -0.000000 1.000000
vn 0.000000 -0.000000 1.000000
vn 0.000000 -0.000000 1.000000
vn 0.000000 -0.000000 1.000000
vn 0.000000 -0.000000 1.000000
vn 0.000000 -0.000000 1.000000
vn 0.000000 -0.000000 1.000000
vn 0.000000 -0.000000 1.000000
vn 0.000000 -0.000000 1.000000
vn 0.000000 -0.000000 1.000000
vn 0.000000 -0.000000 1.000000
vn 0.000000 -0.000000 1.000000
vn 0.000000 -0.000000 1.000000
vn 0.000000 -0.000000 1.000000
vn 0.000000 -0.000000 1.000000
vn 0.000000 -0.000000 1.000000
vn 0.000000 -0.000000 1.000000
vn 0.000000 -0.000000 1.000000
vn 0.000000 -0.000000 1.000000
vn 0.000000 -0.000000 1.000000
vn 0.000000 -0.000000 1.000000
vn 0.000000 -0.000000 1.000000
vn 0.000000 -0.000000 1.000000
vn 0.000000 -0.000000 1.000000
vn 0.000000 -0.000000 1.000000
vn 0.000000 -0.000000 1.000000
vn 0.000000 -0.000000 1.000000
vn 0.000000 -0.000000 1.000000
vn 0.000000 -0.000000 1.000000
vn 0.000000 -0.000000 1.000000
vn 0.000000 -0.000000 1.000000
vn 0.000000 -0.000000 1.000000
vn 0.000000 -0.000000 1.000000
vn 0.000000 -0.000000 1.000000
vn 0.000000 -0.000000 1.000000
vn 0.000000 -0.000000 1.000000
vn 0.000000 -0.000000 1.000000
vn 0.000000 -0.000000 1.000000
vn 0.000000 -0.000000 1.000000
vn 0.000000 -0.000000 1.000000
vn 0.000000 -0.000000 1.000000
vn 0.000000 -0.000000 1.000000
vn 0.000000 -0.000000 1.000000
vn 0.000000 -0.000000 1.000000
vn 0.000000 -0.000000 1.000000
vn 0.000000 -0.000000 1.000000
vn 0.000000 -0.000000 1.000000
vn 0.000000 -0.000000 1.000000
vn 0.000000 -0.000000 1.000000
vn 0.000000 -0.000000 1.000000
vn 0.000000 -0.000000 1.000000
vn 0.000000 -0.000000 1.000000
vn 0.000000 -0.000000 1.000000
vn 0.000000 -0.000000 1.000000
vn 0.000000 -0.000000 1.000000
vn 0.000000 -0.000000 1.000000
vn 0.000000 -0.000000 1.000000
vn 0.000000 -0.000000 1.000000
vn 0.000000 -0.000000 1.000000
vn 0.000000 -0.000000 1.000000
vn 0.000000 -0.000000 1.000000
vn 0.000000 -0.000000 1.000000
vn 0.000000 -0.000000 1.000000
vn 0.000000 -0.000000 1.000000
vn 0.000000 -0.000000 1.000000
vn 0.000000 -0.000000 1.000000
vn 0.000000 -0.000000 1.000000
vn 0.000000 -0.000000 1.000000
vn 0.000000 -0.000000 1.000000
vn 0.000000 -0.000000 1.000000
vn 0.000000 -0.000000 1.000000
vn 0.000000 -0.000000 1.000000
vn 0.000000 -0.000000 1.000000
vn 0.000000 -0.000000 1.000000
vn 0.000000 -0.000000 1.000000
vn 0.000000 -0.000000 1.000000
vn 0.000000 -0.000000 1.000000
vn 0.000000 -0.000000 1.000000
vn 0.000000 -0.000000 1.000000
vn 0.000000 -0.000000 1.000000
vn 0.000000 -0.000000 1.000000
vn 0.000000 -0.000000 1.000000
vn 0.000000 -0.000000 1.000000
vn 0.000000 -0.000000 1.000000
vn 0.000000 -0.000000 1.000000
vn 0.000000 -0.000000 1.000000
vn 0.000000 -0.000000 1.000000
vn 0.000000 -0.000000 1.000000
vn 0.000000 -0.000000 1.000000
vn 0.000000 -0.000000 1.000000
vn 0.000000 -0.000000 1.000000
vn 0.000000 -0.000000 1.000000
vn 0.000000 -0.000000 1.000000
vn 0.000000 -0.000000 1.000000
vn 0.000000 -0.000000 1.000000
vn 0.000000 -0.000000 1.000000
vn 0.000000 -0.000000 1.000000
vn 0.000000 -0.000000 1.000000
vn 0.000000 -0.000000 1.000000
vn 0.000000 -0.000000 1.000000
vn 0.000000 -0.000000 1.000000
vn -0.000000 0.000000 -1.000000
vn -0.000000 0.000000 -1.000000
vn -0.000000 0.000000 -1.000000
vn -0.000000 0.000000 -1.000000
vn -0.000000 0.000000 -1.000000
vn -0.000000 0.000000 -1.000000
vn -0.000000 0.000000 -1.000000
vn -0.000000 0.000000 -1.000000
vn -0.000000 0.000000 -1.000000
vn -0.000000 0.000000 -1.000000
vn -0.000000 0.000000 -1.000000
vn -0.000000 0.000000 -1.000000
vn -0.000000 0.000000 -1.000000
vn -0.000000 0.000000 -1.000000
vn -0.000000 0.000000 -1.000000
vn -0.000000 0.000000 -1.000000
vn -0.000000 0.000000 -1.000000
vn -0.000000 0.000000 -1.000000
vn -0.000000 0.000000 -1.000000
vn -0.000000 0.000000 -1.000000
vn -0.000000 0.000000 -1.000000
vn -0.000000 0.000000 -1.000000
vn -0.000000 0.000000 -1.000000
vn -0.000000 0.000000 -1.000000
vn -0.000000 0.000000 -1.000000
vn -0.000000 0.000000 -1.000000
vn -0.000000 0.000000 -1.000000
vn -0.000000 0.000000 -1.000000
vn -0.000000 0.000000 -1.000000
vn -0.000000 0.000000 -1.000000
vn -0.000000 0.000000 -1.000000
vn -0.000000 0.000000 -1.000000
vn -0.000000 0.000000 -1.000000
vn -0.000000 0.000000 -1.000000
vn -0.000000 0.000000 -1.000000
vn -0.000000 0.000000 -1.000000
vn -0.000000 0.000000 -1.000000
vn -0.000000 0.000000 -1.000000
vn -0.000000 0.000000 -1.000000
vn -0.000000 0.000000 -1.000000
vn -0.000000 0.000000 -1.000000
vn -0.000000 0.000000 -1.000000
vn -0.000000 0.000000 -1.000000
vn -0.000000 0.000000 -1.000000
vn -0.000000 0.000000 -1.000000
vn -0.000000 0.000000 -1.000000
vn -0.000000 0.000000 -1.000000
vn -0.000000 0.000000 -1.000000
vn -0.000000 0.000000 -1.000000
vn -0.000000 0.000000 -1.000000
vn -0.000000 0.000000 -1.000000
vn -0.000000 0.000000 -1.000000
vn -0.000000 0.000000 -1.000000
vn -0.000000 0.000000 -1.000000
vn -0.000000 0.000000 -1.000000
vn -0.000000 0.000000 -1.000000
vn -0.000000 0.000000 -1.000000
vn -0.000000 0.000000 -1.000000
vn -0.000000 0.000000 -1.000000
vn -0.000000 0.000000 -1.000000
vn -0.000000 0.000000 -1.000000
vn -0.000000 0.000000 -1.000000
vn -0.000000 0.000000 -1.000000
vn -0.000000 0.000000 -1.000000
vn -0.000000 0.000000 -1.000000
vn -0.000000 0.000000 -1.000000
vn -0.000000 0.000000 -1.000000
vn -0.000000 0.000000 -1.000000
vn -0.000000 0.000000 -1.000000
vn -0.000000 0.000000 -1.000000
vn -0.000000 0.000000 -1.000000
vn -0.000000 0.000000 -1.000000
vn -0.000000 0.000000 -1.000000
vn -0.000000 0.000000 -1.000000
vn -0.000000 0.000000 -1.000000
vn -0.000000 0.000000 -1.000000
vn -0.000000 0.000000 -1.000000
vn -0.000000 0.000000 -1.000000
vn -0.000000 0.000000 -1.000000
vn -0.000000 0.000000 -1.000000
vn -0.000000 0.000000 -1.000000
vn -0.000000 0.000000 -1.000000
vn -0.000000 0.000000 -1.000000
vn -0.000000 0.000000 -1.000000
vn -0.000000 0.000000 -1.000000
vn -0.000000 0.000000 -1.000000
vn -0.000000 0.000000 -1.000000
vn -0.000000 0.000000 -1.000000
vn -0.000000 0.000000 -1.000000
vn -0.000000 0.000000 -1.000000
vn -0.000000 0.000000 -1.000000
vn -0.000000 0.000000 -1.000000
vn -0.000000 0.000000 -1.000000
vn -0.000000 0.000000 -1.000000
vn -0.000000 0.000000 -1.000000
vn -0.000000 0.000000 -1.000000
vn -0.000000 0.000000 -1.000000
vn -0.000000 0.000000 -1.000000
vn -0.000000 0.000000 -1.000000
vn -0.000000 0.000000 -1.000000
vn -0.000000 0.000000 -1.000000
vn -0.000000 0.000000 -1.000000
vn -0.000000 0.000000 -1.000000
vn -0.000000 0.000000 -1.000000
vn -0.000000 0.000000 -1.000000
vn -0.000000 0.000000 -1.000000
vn -0.000000 0.000000 -1.000000
vn -0.000000 0.000000 -1.000000
vn -0.000000 0.000000 -1.000000
vn -0.000000 0.000000 -1.000000
vn -0.000000 0.000000 -1.000000
vn -0.000000 0.000000 -1.000000
vn -0.000000 0.000000 -1.000000
vn -0.000000 0.000000 -1.000000
vn -0.000000 0.000000 -1.000000
vn -0.000000 0.000000 -1.000000
vn -0.000000 0.000000 -1.000000
vn -0.000000 0.000000 -1.000000
vn -0.000000 0.000000 -1.000000
vn -0.000000 0.000000 -1.000000
vn -0.000000 0.000000 -1.000000
vn -0.000000 0.000000 -1.000000
vn -0.000000 0.000000 -1.000000
vn -0.000000 0.000000 -1.000000
vn -0.000000 0.000000 -1.000000
vn -0.000000 0.000000 -1.000000
vn -0.000000 0.000000 -1.000000
vn -0.000000 0.000000 -1.000000
f 73/217/217 74/218/218 76/219/219
f 76/219/219 74/218/218 75/220/220
f 77/221/221 73/222/222 78/223/223
f 78/223/223 73/222/222 76/224/224
f 79/225/225 77/226/226 80/227/227
f 80/227/227 77/226/226 78/228/228
f 81/229/229 79/230/230 82/231/231
f 82/231/231 79/230/230 80/232/232
f 83/233/233 81/234/234 84/235/235
f 84/235/235 81/234/234 82/236/236
f 85/237/237 83/238/238 86/239/239
f 86/239/239 83/238/238 84/240/240
f 87/241/241 85/242/242 88/243/243
f 88/243/243 85/242/242 86/244/244
f 89/245/245 87/246/246 90/247/247
f 90/247/247 87/246/246 88/248/248
f 91/249/249 89/250/250 92/251/251
f 92/251/251 89/250/250 90/252/252
f 93/253/253 91/254/254 94/255/255
f 94/255/255 91/254/254 92/256/256
f 95/257/257 93/258/258 96/259/259
f 96/259/259 93/258/258 94/260/260
f 97/261/261 95/262/262 98/263/263
f 98/263/263 95/262/262 96/264/264
f 99/265/265 97/266/266 100/267/267
f 100/267/267 97/266/266 98/268/268
f 101/269/269 99/270/270 102/271/271
f 102/271/271 99/270/270 100/272/272
f 103/273/273 101/274/274 104/275/275
f 104/275/275 101/274/274 102/276/276
f 105/277/277 103/278/278 106/279/279
f 106/279/279 103/278/278 104/280/280
f 107/281/281 105/282/282 108/283/283
f 108/283/283 105/282/282 106/284/284
f 109/285/285 107/286/286 110/287/287
f 110/287/287 107/286/286 108/288/288
f 111/289/289 109/290/290 112/291/291
f 112/291/291 109/290/290 110/292/292
f 113/293/293 111/294/294 114/295/295
f 114/295/295 111/294/294 112/296/296
f 115/297/297 113/298/298 116/299/299
f 116/299/299 113/298/298 114/300/300
f 117/301/301 115/302/302 118/303/303
f 118/303/303 115/302/302 116/304/304
f 119/305/305 117/306/306 120/307/307
f 120/307/307 117/306/306 118/308/308
f 121/309/309 119/310/310 122/311/311
f 122/311/311 119/310/310 120/312/312
f 123/313/313 121/314/314 124/315/315
f 124/315/315 121/314/314 122/316/316
f 125/317/317 123/318/318 126/319/319
f 126/319/319 123/318/318 124/320/320
f 127/321/321 125/322/322 128/323/323
f 128/323/323 125/322/322 126/324/324
f 129/325/325 127/326/326 130/327/327
f 130/327/327 127/326/326 128/328/328
f 131/329/329 129/330/330 132/331/331
f 132/331/331 129/330/330 130/332/332
f 133/333/333 131/334/334 134/335/335
f 134/335/335 131/334/334 132/336/336
f 135/337/337 133/338/338 136/339/339
f 136/339/339 133/338/338 134/340/340
f 137/341/341 135/342/342 138/343/343
f 138/343/343 135/342/342 136/344/344
f 139/345/345 137/346/346 140/347/347
f 140/347/347 137/346/346 138/348/348
f 141/349/349 139/350/350 142/351/351
f 142/351/351 139/350/350 140/352/352
f 143/353/353 141/354/354 144/355/355
f 144/355/355 141/354/354 142/356/356
f 145/357/357 143/358/358 146/359/359
f 146/359/359 143/358/358 144/360/360
f 147/361/361 145/362/362 148/363/363
f 148/363/363 145/362/362 146/364/364
f 149/365/365 147/366/366 150/367/367
f 150/367/367 147/366/366 148/368/368
f 151/369/369 149/370/370 152/371/371
f 152/371/371 149/370/370 150/372/372
f 153/373/373 151/374/374 154/375/375
f 154/375/375 151/374/374 152/376/376
f 155/377/377 153/378/378 156/379/379
f 156/379/379 153/378/378 154/380/380
f 157/381/381 155/382/382 158/383/383
f 158/383/383 155/382/382 156/384/384
f 159/385/385 157/386/386 160/387/387
f 160/387/387 157/386/386 158/388/388
f 161/389/389 159/390/390 162/391/391
f 162/391/391 159/390/390 160/392/392
f 163/393/393 161/394/394 164/395/395
f 164/395/395 161/394/394 162/396/396
f 165/397/397 163/398/398 166/399/399
f 166/399/399 163/398/398 164/400/400
f 167/401/401 165/402/402 168/403/403
f 168/403/403 165/402/402 166/404/404
f 169/405/405 167/406/406 170/407/407
f 170/407/407 167/406/406 168/408/408
f 171/409/409 169/410/410 172/411/411
f 172/411/411 169/410/410 170/412/412
f 173/413/413 171/414/414 174/415/415
f 174/415/415 171/414/414 172/416/416
f 175/417/417 173/418/418 176/419/419
f 176/419/419 173/418/418 174/420/420
f 177/421/421 175/422/422 178/423/423
f 178/423/423 175/422/422 176/424/424
f 179/425/425 177/426/426 180/427/427
f 180/427/427 177/426/426 178/428/428
f 181/429/429 179/430/430 182/431/431
f 182/431/431 179/430/430 180/432/432
f 183/433/433 181/434/434 184/435/435
f 184/435/435 181/434/434 182/436/436
f 185/437/437 183/438/438 186/439/439
f 186/439/439 183/438/438 184/440/440
f 187/441/441 185/442/442 188/443/443
f 188/443/443 185/442/442 186/444/444
f 189/445/445 187/446/446 190/447/447
f 190/447/447 187/446/446 188/448/448
f 191/449/449 189/450/450 192/451/451
f 192/451/451 189/450/450 190/452/452
f 193/453/453 191/454/454 194/455/455
f 194/455/455 191/454/454 192/456/456
f 195/457/457 193/458/458 196/459/459
f 196/459/459 193/458/458 194/460/460
f 197/461/461 195/462/462 198/463/463
f 198/463/463 195/462/462 196/464/464
f 199/465/465 197/466/466 200/467/467
f 200/467/467 197/466/466 198/468/468
f 201/469/469 199/470/470 202/471/471
f 202/471/471 199/470/470 200/472/472
f 203/473/473 201/474/474 204/475/475
f 204/475/475 201/474/474 202/476/476
f 205/477/477 203/478/478 206/479/479
f 206/479/479 203/478/478 204/480/480
f 207/481/481 205/482/482 208/483/483
f 208/483/483 205/482/482 206/484/484
f 209/485/485 207/486/486 210/487/487
f 210/487/487 207/486/486 208/488/488
f 211/489/489 209/490/490 212/491/491
f 212/491/491 209/490/490 210/492/492
f 213/493/493 211/494/494 214/495/495
f 214/495/495 211/494/494 212/496/496
f 215/497/497 213/498/498 216/499/499
f 216/499/499 213/498/498 214/500/500
f 217/501/501 215/502/502 218/503/503
f 218/503/503 215/502/502 216/504/504
f 219/505/505 217/506/506 220/507/507
f 220/507/507 217/506/506 218/508/508
f 221/509/509 219/510/510 222/511/511
f 222/511/511 219/510/510 220/512/512
f 223/513/513 221/514/514 224/515/515
f 224/515/515 221/514/514 222/516/516
f 225/517/517 223/518/518 226/519/519
f 226/519/519 223/518/518 224/520/520
f 227/521/521 225/522/522 228/523/523
f 228/523/523 225/522/522 226/524/524
f 229/525/525 227/526/526 230/527/527
f 230/527/527 227/526/526 228/528/528
f 231/529/529 229/530/530 232/531/531
f 232/531/531 229/530/530 230/532/532
f 233/533/533 231/534/534 234/535/535
f 234/535/535 231/534/534 232/536/536
f 235/537/537 233/538/538 236/539/539
f 236/539/539 233/538/538 234/540/540
f 237/541/541 235/542/542 238/543/543
f 238/543/543 235/542/542 236/544/544
f 239/545/545 237/546/546 240/547/547
f 240/547/547 237/546/546 238/548/548
f 241/549/549 239/550/550 242/551/551
f 242/551/551 239/550/550 240/552/552
f 243/553/553 241/554/554 244/555/555
f 244/555/555 241/554/554 242/556/556
f 245/557/557 243/558/558 246/559/559
f 246/559/559 243/558/558 244/560/560
f 247/561/561 245/562/562 248/563/563
f 248/563/563 245/562/562 246/564/564
f 249/565/565 247/566/566 250/567/567
f 250/567/567 247/566/566 248/568/568
f 251/569/569 249/570/570 252/571/571
f 252/571/571 249/570/570 250/572/572
f 253/573/573 251/574/574 254/575/575
f 254/575/575 251/574/574 252/576/576
f 255/577/577 253/578/578 256/579/579
f 256/579/579 253/578/578 254/580/580
f 257/581/581 255/582/582 258/583/583
f 258/583/583 255/582/582 256/584/584
f 259/585/585 257/586/586 260/587/587
f 260/587/587 257/586/586 258/588/588
f 261/589/589 259/590/590 262/591/591
f 262/591/591 259/590/590 260/592/592
f 263/593/593 261/594/594 264/595/595
f 264/595/595 261/594/594 262/596/596
f 265/597/597 263/598/598 266/599/599
f 266/599/599 263/598/598 264/600/600
f 267/601/601 265/602/602 268/603/603
f 268/603/603 265/602/602 266/604/604
f 269/605/605 267/606/606 270/607/607
f 270/607/607 267/606/606 268/608/608
f 271/609/609 269/610/610 272/611/611
f 272/611/611 269/610/610 270/612/612
f 273/613/613 271/614/614 274/615/615
f 274/615/615 271/614/614 272/616/616
f 275/617/617 273/618/618 276/619/619
f 276/619/619 273/618/618 274/620/620
f 277/621/621 275/622/622 278/623/623
f 278/623/623 275/622/622 276/624/624
f 279/625/625 277/626/626 280/627/627
f 280/627/627 277/626/626 278/628/628
f 281/629/629 279/630/630 282/631/631
f 282/631/631 279/630/630 280/632/632
f 283/633/633 281/634/634 284/635/635
f 284/635/635 281/634/634 282/636/636
f 285/637/637 283/638/638 286/639/639
f 286/639/639 283/638/638 284/640/640
f 287/641/641 285/642/642 288/643/643
f 288/643/643 285/642/642 286/644/644
f 289/645/645 287/646/646 290/647/647
f 290/647/647 287/646/646 288/648/648
f 291/649/649 289/650/650 292/651/651
f 292/651/651 289/650/650 290/652/652
f 293/653/653 291/654/654 294/655/655
f 294/655/655 291/654/654 292/656/656
f 295/657/657 293/658/658 296/659/659
f 296/659/659 293/658/658 294/660/660
f 297/661/661 295/662/662 298/663/663
f 298/663/663 295/662/662 296/664/664
f 299/665/665 297/666/666 300/667/667
f 300/667/667 297/666/666 298/668/668
f 301/669/669 299/670/670 302/671/671
f 302/671/671 299/670/670 300/672/672
f 303/673/673 301/674/674 304/675/675
f 304/675/675 301/674/674 302/676/676
f 305/677/677 303/678/678 306/679/679
f 306/679/679 303/678/678 304/680/680
f 307/681/681 305/682/682 308/683/683
f 308/683/683 305/682/682 306/684/684
f 309/685/685 307/686/686 310/687/687
f 310/687/687 307/686/686 308/688/688
f 311/689/689 309/690/690 312/691/691
f 312/691/691 309/690/690 310/692/692
f 313/693/693 311/694/694 314/695/695
f 314/695/695 311/694/694 312/696/696
f 315/697/697 313/698/698 316/699/699
f 316/699/699 313/698/698 314/700/700
f 317/701/701 315/702/702 318/703/703
f 318/703/703 315/702/702 316/704/704
f 319/705/705 317/706/706 320/707/707
f 320/707/707 317/706/706 318/708/708
f 321/709/709 319/710/710 322/711/711
f 322/711/711 319/710/710 320/712/712
f 323/713/713 321/714/714 324/715/715
f 324/715/715 321/714/714 322/716/716
f 325/717/717 323/718/718 326/719/719
f 326/719/719 323/718/718 324/720/720
f 327/721/721 325/722/722 328/723/723
f 328/723/723 325/722/722 326/724/724
f 74/725/725 327/726/726 75/727/727
f 75/727/727 327/726/726 328/728/728
f 76/729/729 75/730/730 78/731/731
f 78/731/731 75/730/730 328/732/732
f 78/731/731 328/732/732 80/733/733
f 80/733/733 328/732/732 326/734/734
f 80/733/733 326/734/734 324/735/735
f 322/736/736 96/737/737 324/735/735
f 324/735/735 96/737/737 94/738/738
f 324/735/735 94/738/738 88/739/739
f 88/739/739 94/738/738 92/740/740
f 88/739/739 92/740/740 90/741/741
f 320/742/742 310/743/743 322/736/736
f 322/736/736 310/743/743 308/744/744
f 322/736/736 308/744/744 306/745/745
f 310/743/743 320/742/742 312/746/746
f 312/746/746 320/742/742 318/747/747
f 312/746/746 318/747/747 316/748/748
f 316/748/748 314/749/749 312/746/746
f 322/736/736 306/745/745 96/737/737
f 96/737/737 306/745/745 304/750/750
f 96/737/737 304/750/750 98/751/751
f 98/751/751 304/750/750 104/752/752
f 98/751/751 104/752/752 102/753/753
f 304/750/750 302/754/754 104/752/752
f 104/752/752 302/754/754 292/755/755
f 104/752/752 292/755/755 282/756/756
f 282/756/756 292/755/755 290/757/757
f 282/756/756 290/757/757 284/758/758
f 284/758/758 290/757/757 286/759/759
f 286/759/759 290/757/757 288/760/760
f 292/755/755 302/754/754 294/761/761
f 294/761/761 302/754/754 300/762/762
f 294/761/761 300/762/762 298/763/763
f 298/763/763 296/764/764 294/761/761
f 104/752/752 282/756/756 106/765/765
f 106/765/765 282/756/756 280/766/766
f 106/765/765 280/766/766 208/767/767
f 208/767/767 280/766/766 210/768/768
f 210/768/768 280/766/766 274/769/769
f 210/768/768 274/769/769 260/770/770
f 260/770/770 274/769/769 272/771/771
f 260/770/770 272/771/771 262/772/772
f 262/772/772 272/771/771 264/773/773
f 264/773/773 272/771/771 270/774/774
f 264/773/773 270/774/774 268/775/775
f 278/776/776 276/777/777 280/766/766
f 280/766/766 276/777/777 274/769/769
f 268/775/775 266/778/778 264/773/773
f 260/770/770 258/779/779 210/768/768
f 210/768/768 258/779/779 212/780/780
f 212/780/780 258/779/779 252/781/781
f 212/780/780 252/781/781 250/782/782
f 258/779/779 256/783/783 252/781/781
f 252/781/781 256/783/783 254/784/784
f 248/785/785 246/786/786 250/782/782
f 250/782/782 246/786/786 244/787/787
f 250/782/782 244/787/787 212/780/780
f 212/780/780 244/787/787 214/788/788
f 214/788/788 244/787/787 216/789/789
f 216/789/789 244/787/787 242/790/790
f 216/789/789 242/790/790 218/791/791
f 218/791/791 242/790/790 224/792/792
f 218/791/791 224/792/792 220/793/793
f 220/793/793 224/792/792 222/794/794
f 242/790/790 240/795/795 224/792/792
f 224/792/792 240/795/795 226/796/796
f 226/796/796 240/795/795 238/797/797
f 226/796/796 238/797/797 232/798/798
f 232/798/798 238/797/797 236/799/799
f 232/798/798 236/799/799 234/800/800
f 230/801/801 228/802/802 232/798/798
f 232/798/798 228/802/802 226/796/796
f 106/765/765 208/767/767 108/803/803
f 108/803/803 208/767/767 206/804/804
f 108/803/803 206/804/804 204/805/805
f 202/806/806 112/807/807 204/805/805
f 204/805/805 112/807/807 110/808/808
f 204/805/805 110/808/808 108/803/803
f 200/809/809 122/810/810 202/806/806
f 202/806/806 122/810/810 120/811/811
f 202/806/806 120/811/811 118/812/812
f 200/809/809 198/813/813 122/810/810
f 122/810/810 198/813/813 184/814/814
f 122/810/810 184/814/814 124/815/815
f 124/815/815 184/814/814 182/816/816
f 124/815/815 182/816/816 128/817/817
f 128/817/817 182/816/816 180/818/818
f 128/817/817 180/818/818 130/819/819
f 130/819/819 180/818/818 174/820/820
f 130/819/819 174/820/820 172/821/821
f 196/822/822 192/823/823 198/813/813
f 198/813/813 192/823/823 186/824/824
f 198/813/813 186/824/824 184/814/814
f 196/822/822 194/825/825 192/823/823
f 190/826/826 188/827/827 192/823/823
f 192/823/823 188/827/827 186/824/824
f 178/828/828 176/829/829 180/818/818
f 180/818/818 176/829/829 174/820/820
f 172/821/821 170/830/830 130/819/819
f 130/819/819 170/830/830 160/831/831
f 130/819/819 160/831/831 158/832/832
f 160/831/831 170/830/830 162/833/833
f 162/833/833 170/830/830 168/834/834
f 162/833/833 168/834/834 166/835/835
f 166/835/835 164/836/836 162/833/833
f 130/819/819 158/832/832 152/837/837
f 152/837/837 158/832/832 156/838/838
f 152/837/837 156/838/838 154/839/839
f 130/819/819 152/837/837 132/840/840
f 132/840/840 152/837/837 150/841/841
f 132/840/840 150/841/841 144/842/842
f 144/842/842 150/841/841 148/843/843
f 144/842/842 148/843/843 146/844/844
f 144/842/842 142/845/845 132/840/840
f 132/840/840 142/845/845 140/846/846
f 132/840/840 140/846/846 134/847/847
f 134/847/847 140/846/846 136/848/848
f 136/848/848 140/846/846 138/849/849
f 128/817/817 126/850/850 124/815/815
f 202/806/806 118/812/812 112/807/807
f 112/807/807 118/812/812 116/851/851
f 112/807/807 116/851/851 114/852/852
f 102/753/753 100/853/853 98/751/751
f 324/735/735 88/739/739 82/854/854
f 82/854/854 88/739/739 86/855/855
f 82/854/854 86/855/855 84/856/856
f 82/854/854 80/733/733 324/735/735
f 74/857/857 77/858/858 327/859/859
f 327/859/859 77/858/858 79/860/860
f 327/859/859 79/860/860 325/861/861
f 325/861/861 79/860/860 323/862/862
f 323/862/862 79/860/860 81/863/863
f 323/862/862 81/863/863 87/864/864
f 87/864/864 81/863/863 85/865/865
f 85/865/865 81/863/863 83/866/866
f 74/857/857 73/867/867 77/858/858
f 89/868/868 91/869/869 87/864/864
f 87/864/864 91/869/869 93/870/870
f 87/864/864 93/870/870 323/862/862
f 323/862/862 93/870/870 95/871/871
f 323/862/862 95/871/871 321/872/872
f 321/872/872 95/871/871 305/873/873
f 321/872/872 305/873/873 307/874/874
f 305/873/873 95/871/871 303/875/875
f 303/875/875 95/871/871 97/876/876
f 303/875/875 97/876/876 103/877/877
f 103/877/877 97/876/876 101/878/878
f 101/878/878 97/876/876 99/879/879
f 105/880/880 281/881/881 103/877/877
f 103/877/877 281/881/881 291/882/882
f 103/877/877 291/882/882 293/883/883
f 281/881/881 105/880/880 207/884/884
f 207/884/884 105/880/880 107/885/885
f 207/884/884 107/885/885 205/886/886
f 205/886/886 107/885/885 203/887/887
f 203/887/887 107/885/885 109/888/888
f 203/887/887 109/888/888 111/889/889
f 113/890/890 115/891/891 111/889/889
f 111/889/889 115/891/891 117/892/892
f 111/889/889 117/892/892 203/887/887
f 203/887/887 117/892/892 201/893/893
f 201/893/893 117/892/892 119/894/894
f 201/893/893 119/894/894 121/895/895
f 123/896/896 183/897/897 121/895/895
f 121/895/895 183/897/897 197/898/898
f 121/895/895 197/898/898 199/899/899
f 125/900/900 127/901/901 123/896/896
f 123/896/896 127/901/901 181/902/902
f 123/896/896 181/902/902 183/897/897
f 181/902/902 127/901/901 179/903/903
f 179/903/903 127/901/901 129/904/904
f 179/903/903 129/904/904 173/905/905
f 173/905/905 129/904/904 171/906/906
f 171/906/906 129/904/904 169/907/907
f 169/907/907 129/904/904 159/908/908
f 169/907/907 159/908/908 161/909/909
f 131/910/910 151/911/911 129/904/904
f 129/904/904 151/911/911 157/912/912
f 129/904/904 157/912/912 159/908/908
f 133/913/913 141/914/914 131/910/910
f 131/910/910 141/914/914 143/915/915
f 131/910/910 143/915/915 149/916/916
f 149/916/916 143/915/915 147/917/917
f 147/917/917 143/915/915 145/918/918
f 141/914/914 133/913/913 139/919/919
f 139/919/919 133/913/913 135/920/920
f 139/919/919 135/920/920 137/921/921
f 149/916/916 151/911/911 131/910/910
f 153/922/922 155/923/923 151/911/911
f 151/911/911 155/923/923 157/912/912
f 163/924/924 165/925/925 161/909/909
f 161/909/909 165/925/925 167/926/926
f 161/909/909 167/926/926 169/907/907
f 173/905/905 175/927/927 179/903/903
f 179/903/903 175/927/927 177/928/928
f 183/897/897 185/929/929 197/898/898
f 197/898/898 185/929/929 191/930/930
f 197/898/898 191/930/930 195/931/931
f 195/931/931 191/930/930 193/932/932
f 185/929/929 187/933/933 191/930/930
f 191/930/930 187/933/933 189/934/934
f 199/899/899 201/893/893 121/895/895
f 281/881/881 207/884/884 279/935/935
f 279/935/935 207/884/884 209/936/936
f 279/935/935 209/936/936 273/937/937
f 273/937/937 209/936/936 259/938/938
f 273/937/937 259/938/938 271/939/939
f 271/939/939 259/938/938 261/940/940
f 271/939/939 261/940/940 263/941/941
f 259/938/938 209/936/936 257/942/942
f 257/942/942 209/936/936 211/943/943
f 257/942/942 211/943/943 251/944/944
f 251/944/944 211/943/943 249/945/945
f 249/945/945 211/943/943 243/946/946
f 249/945/945 243/946/946 245/947/947
f 211/943/943 213/948/948 243/946/946
f 243/946/946 213/948/948 215/949/949
f 243/946/946 215/949/949 241/950/950
f 241/950/950 215/949/949 217/951/951
f 241/950/950 217/951/951 223/952/952
f 223/952/952 217/951/951 219/953/953
f 223/952/952 219/953/953 221/954/954
f 241/950/950 223/952/952 239/955/955
f 239/955/955 223/952/952 225/956/956
f 239/955/955 225/956/956 237/957/957
f 237/957/957 225/956/956 227/958/958
f 237/957/957 227/958/958 231/959/959
f 231/959/959 227/958/958 229/960/960
f 233/961/961 235/962/962 231/959/959
f 231/959/959 235/962/962 237/957/957
f 245/947/947 247/963/963 249/945/945
f 253/964/964 255/965/965 251/944/944
f 251/944/944 255/965/965 257/942/942
f 265/966/966 267/967/967 263/941/941
f 263/941/941 267/967/967 269/968/968
f 263/941/941 269/968/968 271/939/939
f 273/937/937 275/969/969 279/935/935
f 279/935/935 275/969/969 277/970/970
f 291/882/882 281/881/881 289/971/971
f 289/971/971 281/881/881 283/972/972
f 289/971/971 283/972/972 285/973/973
f 285/973/973 287/974/974 289/971/971
f 295/975/975 297/976/976 293/883/883
f 293/883/883 297/976/976 299/977/977
f 293/883/883 299/977/977 301/978/978
f 293/883/883 301/978/978 103/877/877
f 103/877/877 301/978/978 303/875/875
f 307/874/874 309/979/979 321/872/872
f 321/872/872 309/979/979 319/980/980
f 319/980/980 309/979/979 311/981/981
f 319/980/980 311/981/981 317/982/982
f 317/982/982 311/981/981 315/983/983
f 315/983/983 311/981/981 313/984/984
# 328 vertices
# 984 texture params
# 984 normals
# 648 facets

# 2 groups
