# WaveFront *.obj file (generated by Autodesk ATF)

mtllib Maze v10.mtl

g Body11

v 0.253500 0.000000 0.610500
v 0.253500 0.000000 0.394500
v 0.253500 0.075000 0.394500
v 0.253500 0.075000 0.610500
v 0.178500 0.000000 0.394500
v 0.178500 0.000000 0.610500
v 0.178500 0.075000 0.610500
v 0.178500 0.075000 0.394500
v 0.394500 0.075000 0.610500
v 0.394500 0.000000 0.610500
v -0.253500 0.000000 0.610500
v -0.253500 0.075000 0.610500
v -0.826500 0.000000 0.610500
v -0.901500 0.000000 0.610500
v -0.901500 0.075000 0.610500
v -0.826500 0.075000 0.610500
v -0.826500 0.000000 0.826500
v -0.826500 0.075000 0.826500
v -0.037500 0.000000 0.826500
v -0.037500 0.075000 0.826500
v -0.037500 0.000000 0.685500
v -0.037500 0.075000 0.685500
v -0.253500 0.000000 0.685500
v -0.253500 0.075000 0.685500
v 0.394500 0.000000 0.253500
v 0.394500 0.075000 0.253500
v 0.178500 0.000000 0.253500
v 0.178500 0.075000 0.253500
v 0.178500 0.000000 0.178500
v 0.178500 0.075000 0.178500
v 0.610500 0.000000 0.178500
v 0.610500 0.075000 0.178500
v 0.610500 0.000000 -0.178500
v 0.610500 0.075000 -0.178500
v 0.469500 0.000000 -0.178500
v 0.469500 0.075000 -0.178500
v 0.469500 0.000000 0.037500
v 0.469500 0.075000 0.037500
v 0.037500 0.000000 0.037500
v 0.037500 0.075000 0.037500
v 0.037500 0.000000 0.469500
v 0.037500 0.075000 0.469500
v -0.037500 0.000000 0.469500
v -0.037500 0.075000 0.469500
v -0.037500 0.000000 0.037500
v -0.037500 0.075000 0.037500
v -0.469500 0.000000 0.037500
v -0.469500 0.075000 0.037500
v -0.469500 0.000000 -0.178500
v -0.469500 0.075000 -0.178500
v -1.005000 0.000000 -0.178500
v -1.005000 0.075000 -0.178500
v -1.005000 0.000000 0.037500
v -1.005000 0.075000 0.037500
v -1.080000 0.000000 0.037500
v -1.080000 0.075000 0.037500
v -1.080000 0.000000 -1.080000
v -1.080000 0.075000 -1.080000
v 1.080000 0.000000 -1.080000
v 1.080000 0.075000 -1.080000
v 1.080000 0.000000 -0.178500
v 1.080000 0.075000 -0.178500
v 0.826500 0.000000 -0.178500
v 0.826500 0.075000 -0.178500
v 0.826500 0.000000 -0.253500
v 0.826500 0.075000 -0.253500
v 1.005000 0.000000 -0.253500
v 1.005000 0.075000 -0.253500
v 1.005000 0.000000 -1.005000
v 1.005000 0.075000 -1.005000
v 0.685500 0.000000 -1.005000
v 0.685500 0.075000 -1.005000
v 0.685500 0.000000 -0.826500
v 0.685500 0.075000 -0.826500
v 0.610500 0.000000 -0.826500
v 0.610500 0.075000 -0.826500
v 0.610500 0.000000 -1.005000
v 0.610500 0.075000 -1.005000
v -0.394500 0.000000 -1.005000
v -0.394500 0.075000 -1.005000
v -0.394500 0.000000 -0.610500
v -0.394500 0.075000 -0.610500
v -0.469500 0.000000 -0.610500
v -0.469500 0.075000 -0.610500
v -0.469500 0.000000 -1.005000
v -0.469500 0.075000 -1.005000
v -0.826500 0.000000 -1.005000
v -0.826500 0.075000 -1.005000
v -0.826500 0.000000 -0.901500
v -0.826500 0.075000 -0.901500
v -0.610500 0.000000 -0.901500
v -0.610500 0.075000 -0.901500
v -0.610500 0.000000 -0.826500
v -0.610500 0.075000 -0.826500
v -0.901500 0.000000 -0.826500
v -0.901500 0.075000 -0.826500
v -0.901500 0.000000 -1.005000
v -0.901500 0.075000 -1.005000
v -1.005000 0.000000 -1.005000
v -1.005000 0.075000 -1.005000
v -1.005000 0.000000 -0.685500
v -1.005000 0.075000 -0.685500
v -0.826500 0.000000 -0.685500
v -0.826500 0.075000 -0.685500
v -0.826500 0.000000 -0.610500
v -0.826500 0.075000 -0.610500
v -1.005000 0.000000 -0.610500
v -1.005000 0.075000 -0.610500
v -1.005000 0.000000 -0.253500
v -1.005000 0.075000 -0.253500
v -0.685500 0.000000 -0.253500
v -0.685500 0.075000 -0.253500
v -0.685500 0.000000 -0.394500
v -0.685500 0.075000 -0.394500
v -0.901500 0.000000 -0.394500
v -0.901500 0.075000 -0.394500
v -0.901500 0.000000 -0.469500
v -0.901500 0.075000 -0.469500
v -0.685500 0.000000 -0.469500
v -0.685500 0.075000 -0.469500
v -0.685500 0.000000 -0.685500
v -0.685500 0.075000 -0.685500
v -0.610500 0.000000 -0.685500
v -0.610500 0.075000 -0.685500
v -0.610500 0.000000 -0.253500
v -0.610500 0.075000 -0.253500
v -0.394500 0.000000 -0.253500
v -0.394500 0.075000 -0.253500
v -0.394500 0.000000 -0.037500
v -0.394500 0.075000 -0.037500
v 0.394500 0.000000 -0.037500
v 0.394500 0.075000 -0.037500
v 0.394500 0.000000 -0.253500
v 0.394500 0.075000 -0.253500
v 0.610500 0.000000 -0.253500
v 0.610500 0.075000 -0.253500
v 0.610500 0.000000 -0.394500
v 0.610500 0.075000 -0.394500
v 0.253500 0.000000 -0.394500
v 0.253500 0.075000 -0.394500
v 0.253500 0.000000 -0.178500
v 0.253500 0.075000 -0.178500
v -0.253500 0.000000 -0.178500
v -0.253500 0.075000 -0.178500
v -0.253500 0.000000 -0.394500
v -0.253500 0.075000 -0.394500
v -0.469500 0.000000 -0.394500
v -0.469500 0.075000 -0.394500
v -0.469500 0.000000 -0.469500
v -0.469500 0.075000 -0.469500
v -0.253500 0.000000 -0.469500
v -0.253500 0.075000 -0.469500
v -0.253500 0.000000 -0.901500
v -0.253500 0.075000 -0.901500
v 0.253500 0.000000 -0.901500
v 0.253500 0.075000 -0.901500
v 0.253500 0.000000 -0.826500
v 0.253500 0.075000 -0.826500
v 0.037500 0.000000 -0.826500
v 0.037500 0.075000 -0.826500
v 0.037500 0.000000 -0.394500
v 0.037500 0.075000 -0.394500
v -0.037500 0.000000 -0.394500
v -0.037500 0.075000 -0.394500
v -0.037500 0.000000 -0.826500
v -0.037500 0.075000 -0.826500
v -0.178500 0.000000 -0.826500
v -0.178500 0.075000 -0.826500
v -0.178500 0.000000 -0.253500
v -0.178500 0.075000 -0.253500
v 0.178500 0.000000 -0.253500
v 0.178500 0.075000 -0.253500
v 0.178500 0.000000 -0.685500
v 0.178500 0.075000 -0.685500
v 0.253500 0.000000 -0.685500
v 0.253500 0.075000 -0.685500
v 0.253500 0.000000 -0.469500
v 0.253500 0.075000 -0.469500
v 0.394500 0.000000 -0.469500
v 0.394500 0.075000 -0.469500
v 0.394500 0.000000 -0.901500
v 0.394500 0.075000 -0.901500
v 0.469500 0.000000 -0.901500
v 0.469500 0.075000 -0.901500
v 0.469500 0.000000 -0.469500
v 0.469500 0.075000 -0.469500
v 0.610500 0.000000 -0.469500
v 0.610500 0.075000 -0.469500
v 0.610500 0.000000 -0.685500
v 0.610500 0.075000 -0.685500
v 0.826500 0.000000 -0.685500
v 0.826500 0.075000 -0.685500
v 0.826500 0.000000 -0.901500
v 0.826500 0.075000 -0.901500
v 0.901500 0.000000 -0.901500
v 0.901500 0.075000 -0.901500
v 0.901500 0.000000 -0.610500
v 0.901500 0.075000 -0.610500
v 0.685500 0.000000 -0.610500
v 0.685500 0.075000 -0.610500
v 0.685500 0.000000 -0.469500
v 0.685500 0.075000 -0.469500
v 0.901500 0.000000 -0.469500
v 0.901500 0.075000 -0.469500
v 0.901500 0.000000 -0.394500
v 0.901500 0.075000 -0.394500
v 0.685500 0.000000 -0.394500
v 0.685500 0.075000 -0.394500
v 0.685500 0.000000 -0.037500
v 0.685500 0.075000 -0.037500
v 0.901500 0.000000 -0.037500
v 0.901500 0.075000 -0.037500
v 0.901500 0.000000 0.253500
v 0.901500 0.075000 0.253500
v 0.826500 0.000000 0.253500
v 0.826500 0.075000 0.253500
v 0.826500 0.000000 0.037500
v 0.826500 0.075000 0.037500
v 0.685500 0.000000 0.037500
v 0.685500 0.075000 0.037500
v 0.685500 0.000000 0.394500
v 0.685500 0.075000 0.394500
v 0.901500 0.000000 0.394500
v 0.901500 0.075000 0.394500
v 0.901500 0.000000 0.469500
v 0.901500 0.075000 0.469500
v 0.610500 0.000000 0.469500
v 0.610500 0.075000 0.469500
v 0.610500 0.000000 0.253500
v 0.610500 0.075000 0.253500
v 0.469500 0.000000 0.253500
v 0.469500 0.075000 0.253500
v 0.469500 0.000000 0.610500
v 0.469500 0.075000 0.610500
v 0.685500 0.000000 0.610500
v 0.685500 0.075000 0.610500
v 0.685500 0.000000 0.826500
v 0.685500 0.075000 0.826500
v 0.826500 0.000000 0.826500
v 0.826500 0.075000 0.826500
v 0.826500 0.000000 0.610500
v 0.826500 0.075000 0.610500
v 0.901500 0.000000 0.610500
v 0.901500 0.075000 0.610500
v 0.901500 0.000000 0.901500
v 0.901500 0.075000 0.901500
v 0.610500 0.000000 0.901500
v 0.610500 0.075000 0.901500
v 0.610500 0.000000 0.685500
v 0.610500 0.075000 0.685500
v 0.037500 0.000000 0.685500
v 0.037500 0.075000 0.685500
v 0.037500 0.000000 0.901500
v 0.037500 0.075000 0.901500
v -0.901500 0.000000 0.901500
v -0.901500 0.075000 0.901500
vt -0.000000 0.000000 0.000000
vt 0.216000 0.000000 0.000000
vt -0.000000 0.075000 0.000000
vt 0.216000 0.075000 0.000000
vt -0.000000 0.000000 0.000000
vt 0.216000 0.000000 0.000000
vt -0.000000 0.075000 0.000000
vt 0.216000 0.075000 0.000000
vt 0.000000 0.000000 0.000000
vt 0.075000 0.000000 0.000000
vt 0.000000 0.075000 0.000000
vt 0.075000 0.075000 0.000000
vt 0.141000 0.075000 0.000000
vt -0.000000 0.075000 0.000000
vt 0.141000 0.000000 0.000000
vt 0.000000 0.000000 0.000000
vt 0.216000 0.000000 0.000000
vt 0.648000 0.000000 0.000000
vt 0.216000 0.075000 0.000000
vt 0.648000 0.075000 0.000000
vt 0.000000 0.000000 0.000000
vt 0.075000 0.000000 0.000000
vt 0.000000 0.075000 0.000000
vt 0.075000 0.075000 0.000000
vt 0.000000 0.000000 0.000000
vt 0.216000 0.000000 0.000000
vt 0.000000 0.075000 0.000000
vt 0.216000 0.075000 0.000000
vt 0.000000 0.000000 0.000000
vt 0.789000 0.000000 0.000000
vt 0.000000 0.075000 0.000000
vt 0.789000 0.075000 0.000000
vt -0.000000 0.000000 0.000000
vt 0.141000 0.000000 0.000000
vt -0.000000 0.075000 0.000000
vt 0.141000 0.075000 0.000000
vt 0.000000 0.000000 0.000000
vt 0.216000 0.000000 0.000000
vt 0.000000 0.075000 0.000000
vt 0.216000 0.075000 0.000000
vt -0.000000 0.000000 0.000000
vt 0.075000 0.000000 0.000000
vt -0.000000 0.075000 0.000000
vt 0.075000 0.075000 0.000000
vt -0.000000 0.000000 0.000000
vt 0.357000 0.000000 0.000000
vt -0.000000 0.075000 0.000000
vt 0.357000 0.075000 0.000000
vt 0.000000 0.000000 0.000000
vt 0.216000 0.000000 0.000000
vt 0.000000 0.075000 0.000000
vt 0.216000 0.075000 0.000000
vt -0.000000 0.000000 0.000000
vt 0.075000 0.000000 0.000000
vt 0.000000 0.075000 0.000000
vt 0.075000 0.075000 0.000000
vt 0.000000 0.000000 0.000000
vt 0.432000 0.000000 0.000000
vt 0.000000 0.075000 0.000000
vt 0.432000 0.075000 0.000000
vt -0.000000 0.000000 0.000000
vt 0.357000 0.000000 0.000000
vt -0.000000 0.075000 0.000000
vt 0.357000 0.075000 0.000000
vt 0.000000 0.000000 0.000000
vt 0.141000 0.000000 0.000000
vt -0.000000 0.075000 0.000000
vt 0.141000 0.075000 0.000000
vt 0.000000 0.000000 0.000000
vt 0.216000 0.000000 0.000000
vt 0.000000 0.075000 0.000000
vt 0.216000 0.075000 0.000000
vt 0.000000 0.000000 0.000000
vt 0.432000 0.000000 0.000000
vt -0.000000 0.075000 0.000000
vt 0.432000 0.075000 0.000000
vt -0.000000 0.000000 0.000000
vt 0.432000 0.000000 0.000000
vt -0.000000 0.075000 0.000000
vt 0.432000 0.075000 0.000000
vt 0.000000 0.000000 0.000000
vt 0.075000 0.000000 0.000000
vt 0.000000 0.075000 0.000000
vt 0.075000 0.075000 0.000000
vt -0.000000 0.000000 0.000000
vt 0.432000 0.000000 0.000000
vt -0.000000 0.075000 0.000000
vt 0.432000 0.075000 0.000000
vt 0.000000 0.000000 0.000000
vt 0.432000 0.000000 0.000000
vt 0.000000 0.075000 0.000000
vt 0.432000 0.075000 0.000000
vt 0.000000 0.000000 0.000000
vt 0.216000 0.000000 0.000000
vt 0.000000 0.075000 0.000000
vt 0.216000 0.075000 0.000000
vt 0.000000 0.000000 0.000000
vt 0.535500 0.000000 0.000000
vt 0.000000 0.075000 0.000000
vt 0.535500 0.075000 0.000000
vt 0.000000 0.000000 0.000000
vt 0.216000 0.000000 0.000000
vt 0.000000 0.075000 0.000000
vt 0.216000 0.075000 0.000000
vt 0.000000 0.000000 0.000000
vt 0.075000 0.000000 0.000000
vt 0.000000 0.075000 0.000000
vt 0.075000 0.075000 0.000000
vt 0.000000 0.000000 0.000000
vt 1.117500 0.000000 0.000000
vt 0.000000 0.075000 0.000000
vt 1.117500 0.075000 0.000000
vt 0.000000 0.000000 0.000000
vt 2.160000 0.000000 0.000000
vt -0.000000 0.075000 0.000000
vt 2.160000 0.075000 0.000000
vt 0.000000 0.000000 0.000000
vt 0.901500 0.000000 0.000000
vt 0.000000 0.075000 0.000000
vt 0.901500 0.075000 0.000000
vt 0.000000 0.000000 0.000000
vt 0.253500 0.000000 0.000000
vt 0.000000 0.075000 0.000000
vt 0.253500 0.075000 0.000000
vt 0.000000 0.000000 0.000000
vt 0.075000 0.000000 0.000000
vt 0.000000 0.075000 0.000000
vt 0.075000 0.075000 0.000000
vt 0.000000 0.000000 0.000000
vt 0.178500 0.000000 0.000000
vt -0.000000 0.075000 0.000000
vt 0.178500 0.075000 0.000000
vt 0.000000 0.000000 0.000000
vt 0.751500 0.000000 0.000000
vt -0.000000 0.075000 0.000000
vt 0.751500 0.075000 0.000000
vt 0.000000 0.000000 0.000000
vt 0.319500 0.000000 0.000000
vt 0.000000 0.075000 0.000000
vt 0.319500 0.075000 0.000000
vt -0.000000 0.000000 0.000000
vt 0.178500 0.000000 0.000000
vt -0.000000 0.075000 0.000000
vt 0.178500 0.075000 0.000000
vt 0.000000 0.000000 0.000000
vt 0.075000 0.000000 0.000000
vt 0.000000 0.075000 0.000000
vt 0.075000 0.075000 0.000000
vt 0.000000 0.000000 0.000000
vt 0.178500 0.000000 0.000000
vt -0.000000 0.075000 0.000000
vt 0.178500 0.075000 0.000000
vt 0.000000 0.000000 0.000000
vt 1.005000 0.000000 0.000000
vt 0.000000 0.075000 0.000000
vt 1.005000 0.075000 0.000000
vt 0.000000 0.000000 0.000000
vt 0.394500 0.000000 0.000000
vt 0.000000 0.075000 0.000000
vt 0.394500 0.075000 0.000000
vt 0.000000 0.000000 0.000000
vt 0.075000 0.000000 0.000000
vt 0.000000 0.075000 0.000000
vt 0.075000 0.075000 0.000000
vt 0.000000 0.000000 0.000000
vt 0.394500 0.000000 0.000000
vt 0.000000 0.075000 0.000000
vt 0.394500 0.075000 0.000000
vt 0.000000 0.000000 0.000000
vt 0.357000 0.000000 0.000000
vt 0.000000 0.075000 0.000000
vt 0.357000 0.075000 0.000000
vt -0.000000 0.000000 0.000000
vt 0.103500 0.000000 0.000000
vt -0.000000 0.075000 0.000000
vt 0.103500 0.075000 0.000000
vt 0.000000 0.000000 0.000000
vt 0.216000 0.000000 0.000000
vt 0.000000 0.075000 0.000000
vt 0.216000 0.075000 0.000000
vt -0.000000 0.000000 0.000000
vt 0.075000 0.000000 0.000000
vt -0.000000 0.075000 0.000000
vt 0.075000 0.075000 0.000000
vt 0.000000 0.000000 0.000000
vt 0.291000 0.000000 0.000000
vt 0.000000 0.075000 0.000000
vt 0.291000 0.075000 0.000000
vt 0.000000 0.000000 0.000000
vt 0.178500 0.000000 0.000000
vt -0.000000 0.075000 0.000000
vt 0.178500 0.075000 0.000000
vt 0.000000 0.000000 0.000000
vt 0.103500 0.000000 0.000000
vt 0.000000 0.075000 0.000000
vt 0.103500 0.075000 0.000000
vt 0.000000 0.000000 0.000000
vt 0.319500 0.000000 0.000000
vt 0.000000 0.075000 0.000000
vt 0.319500 0.075000 0.000000
vt 0.000000 0.000000 0.000000
vt 0.178500 0.000000 0.000000
vt -0.000000 0.075000 0.000000
vt 0.178500 0.075000 0.000000
vt -0.000000 0.000000 0.000000
vt 0.075000 0.000000 0.000000
vt -0.000000 0.075000 0.000000
vt 0.075000 0.075000 0.000000
vt 0.000000 0.000000 0.000000
vt 0.178500 0.000000 0.000000
vt -0.000000 0.075000 0.000000
vt 0.178500 0.075000 0.000000
vt -0.000000 0.000000 0.000000
vt 0.357000 0.000000 0.000000
vt -0.000000 0.075000 0.000000
vt 0.357000 0.075000 0.000000
vt 0.000000 0.000000 0.000000
vt 0.319500 0.000000 0.000000
vt 0.000000 0.075000 0.000000
vt 0.319500 0.075000 0.000000
vt -0.000000 0.000000 0.000000
vt 0.141000 0.000000 0.000000
vt -0.000000 0.075000 0.000000
vt 0.141000 0.075000 0.000000
vt 0.000000 0.000000 0.000000
vt 0.216000 0.000000 0.000000
vt 0.000000 0.075000 0.000000
vt 0.216000 0.075000 0.000000
vt 0.000000 0.000000 0.000000
vt 0.075000 0.000000 0.000000
vt 0.000000 0.075000 0.000000
vt 0.075000 0.075000 0.000000
vt 0.000000 0.000000 0.000000
vt 0.216000 0.000000 0.000000
vt -0.000000 0.075000 0.000000
vt 0.216000 0.075000 0.000000
vt 0.000000 0.000000 0.000000
vt 0.216000 0.000000 0.000000
vt -0.000000 0.075000 0.000000
vt 0.216000 0.075000 0.000000
vt 0.000000 0.000000 0.000000
vt 0.075000 0.000000 0.000000
vt -0.000000 0.075000 0.000000
vt 0.075000 0.075000 0.000000
vt -0.000000 0.000000 0.000000
vt 0.432000 0.000000 0.000000
vt -0.000000 0.075000 0.000000
vt 0.432000 0.075000 0.000000
vt 0.000000 0.000000 0.000000
vt 0.216000 0.000000 0.000000
vt 0.000000 0.075000 0.000000
vt 0.216000 0.075000 0.000000
vt -0.000000 0.000000 0.000000
vt 0.216000 0.000000 0.000000
vt -0.000000 0.075000 0.000000
vt 0.216000 0.075000 0.000000
vt 0.000000 0.000000 0.000000
vt 0.789000 0.000000 0.000000
vt -0.000000 0.075000 0.000000
vt 0.789000 0.075000 0.000000
vt -0.000000 0.000000 0.000000
vt 0.216000 0.000000 0.000000
vt -0.000000 0.075000 0.000000
vt 0.216000 0.075000 0.000000
vt 0.000000 0.000000 0.000000
vt 0.216000 0.000000 0.000000
vt 0.000000 0.075000 0.000000
vt 0.216000 0.075000 0.000000
vt 0.000000 0.000000 0.000000
vt 0.141000 0.000000 0.000000
vt 0.000000 0.075000 0.000000
vt 0.141000 0.075000 0.000000
vt 0.000000 0.000000 0.000000
vt 0.357000 0.000000 0.000000
vt -0.000000 0.075000 0.000000
vt 0.357000 0.075000 0.000000
vt 0.000000 0.000000 0.000000
vt 0.216000 0.000000 0.000000
vt 0.000000 0.075000 0.000000
vt 0.216000 0.075000 0.000000
vt 0.000000 0.000000 0.000000
vt 0.507000 0.000000 0.000000
vt 0.000000 0.075000 0.000000
vt 0.507000 0.075000 0.000000
vt 0.000000 0.000000 0.000000
vt 0.216000 0.000000 0.000000
vt 0.000000 0.075000 0.000000
vt 0.216000 0.075000 0.000000
vt 0.000000 0.000000 0.000000
vt 0.216000 0.000000 0.000000
vt 0.000000 0.075000 0.000000
vt 0.216000 0.075000 0.000000
vt -0.000000 0.000000 0.000000
vt 0.075000 0.000000 0.000000
vt -0.000000 0.075000 0.000000
vt 0.075000 0.075000 0.000000
vt 0.000000 0.000000 0.000000
vt 0.216000 0.000000 0.000000
vt 0.000000 0.075000 0.000000
vt 0.216000 0.075000 0.000000
vt 0.000000 0.000000 0.000000
vt 0.432000 0.000000 0.000000
vt -0.000000 0.075000 0.000000
vt 0.432000 0.075000 0.000000
vt 0.000000 0.000000 0.000000
vt 0.507000 0.000000 0.000000
vt -0.000000 0.075000 0.000000
vt 0.507000 0.075000 0.000000
vt 0.000000 0.000000 0.000000
vt 0.075000 0.000000 0.000000
vt -0.000000 0.075000 0.000000
vt 0.075000 0.075000 0.000000
vt 0.000000 0.000000 0.000000
vt 0.216000 0.000000 0.000000
vt -0.000000 0.075000 0.000000
vt 0.216000 0.075000 0.000000
vt -0.000000 0.000000 0.000000
vt 0.432000 0.000000 0.000000
vt -0.000000 0.075000 0.000000
vt 0.432000 0.075000 0.000000
vt 0.000000 0.000000 0.000000
vt 0.075000 0.000000 0.000000
vt 0.000000 0.075000 0.000000
vt 0.075000 0.075000 0.000000
vt 0.000000 0.000000 0.000000
vt 0.432000 0.000000 0.000000
vt 0.000000 0.075000 0.000000
vt 0.432000 0.075000 0.000000
vt 0.000000 0.000000 0.000000
vt 0.141000 0.000000 0.000000
vt -0.000000 0.075000 0.000000
vt 0.141000 0.075000 0.000000
vt -0.000000 0.000000 0.000000
vt 0.573000 0.000000 0.000000
vt -0.000000 0.075000 0.000000
vt 0.573000 0.075000 0.000000
vt 0.000000 0.000000 0.000000
vt 0.357000 0.000000 0.000000
vt -0.000000 0.075000 0.000000
vt 0.357000 0.075000 0.000000
vt 0.000000 0.000000 0.000000
vt 0.432000 0.000000 0.000000
vt 0.000000 0.075000 0.000000
vt 0.432000 0.075000 0.000000
vt 0.000000 0.000000 0.000000
vt 0.075000 0.000000 0.000000
vt 0.000000 0.075000 0.000000
vt 0.075000 0.075000 0.000000
vt -0.000000 0.000000 0.000000
vt 0.216000 0.000000 0.000000
vt 0.000000 0.075000 0.000000
vt 0.216000 0.075000 0.000000
vt 0.000000 0.000000 0.000000
vt 0.141000 0.000000 0.000000
vt -0.000000 0.075000 0.000000
vt 0.141000 0.075000 0.000000
vt 0.000000 0.000000 0.000000
vt 0.432000 0.000000 0.000000
vt -0.000000 0.075000 0.000000
vt 0.432000 0.075000 0.000000
vt 0.000000 0.000000 0.000000
vt 0.075000 0.000000 0.000000
vt -0.000000 0.075000 0.000000
vt 0.075000 0.075000 0.000000
vt -0.000000 0.000000 0.000000
vt 0.432000 0.000000 0.000000
vt -0.000000 0.075000 0.000000
vt 0.432000 0.075000 0.000000
vt 0.000000 0.000000 0.000000
vt 0.141000 0.000000 0.000000
vt 0.000000 0.075000 0.000000
vt 0.141000 0.075000 0.000000
vt -0.000000 0.000000 0.000000
vt 0.216000 0.000000 0.000000
vt 0.000000 0.075000 0.000000
vt 0.216000 0.075000 0.000000
vt 0.000000 0.000000 0.000000
vt 0.216000 0.000000 0.000000
vt -0.000000 0.075000 0.000000
vt 0.216000 0.075000 0.000000
vt 0.000000 0.000000 0.000000
vt 0.216000 0.000000 0.000000
vt 0.000000 0.075000 0.000000
vt 0.216000 0.075000 0.000000
vt 0.000000 0.000000 0.000000
vt 0.075000 0.000000 0.000000
vt -0.000000 0.075000 0.000000
vt 0.075000 0.075000 0.000000
vt 0.000000 0.000000 0.000000
vt 0.291000 0.000000 0.000000
vt 0.000000 0.075000 0.000000
vt 0.291000 0.075000 0.000000
vt 0.000000 0.000000 0.000000
vt 0.216000 0.000000 0.000000
vt 0.000000 0.075000 0.000000
vt 0.216000 0.075000 0.000000
vt -0.000000 0.000000 0.000000
vt 0.141000 0.000000 0.000000
vt -0.000000 0.075000 0.000000
vt 0.141000 0.075000 0.000000
vt 0.000000 0.000000 0.000000
vt 0.216000 0.000000 0.000000
vt 0.000000 0.075000 0.000000
vt 0.216000 0.075000 0.000000
vt -0.000000 0.000000 0.000000
vt 0.075000 0.000000 0.000000
vt -0.000000 0.075000 0.000000
vt 0.075000 0.075000 0.000000
vt 0.000000 0.000000 0.000000
vt 0.216000 0.000000 0.000000
vt 0.000000 0.075000 0.000000
vt 0.216000 0.075000 0.000000
vt -0.000000 0.000000 0.000000
vt 0.357000 0.000000 0.000000
vt -0.000000 0.075000 0.000000
vt 0.357000 0.075000 0.000000
vt 0.000000 0.000000 0.000000
vt 0.216000 0.000000 0.000000
vt 0.000000 0.075000 0.000000
vt 0.216000 0.075000 0.000000
vt -0.000000 0.000000 0.000000
vt 0.291000 0.000000 0.000000
vt -0.000000 0.075000 0.000000
vt 0.291000 0.075000 0.000000
vt 0.000000 0.000000 0.000000
vt 0.075000 0.000000 0.000000
vt 0.000000 0.075000 0.000000
vt 0.075000 0.075000 0.000000
vt -0.000000 0.000000 0.000000
vt 0.216000 0.000000 0.000000
vt -0.000000 0.075000 0.000000
vt 0.216000 0.075000 0.000000
vt 0.000000 0.000000 0.000000
vt 0.141000 0.000000 0.000000
vt 0.000000 0.075000 0.000000
vt 0.141000 0.075000 0.000000
vt 0.000000 0.000000 0.000000
vt 0.357000 0.000000 0.000000
vt 0.000000 0.075000 0.000000
vt 0.357000 0.075000 0.000000
vt 0.000000 0.000000 0.000000
vt 0.216000 0.000000 0.000000
vt 0.000000 0.075000 0.000000
vt 0.216000 0.075000 0.000000
vt -0.000000 0.000000 0.000000
vt 0.075000 0.000000 0.000000
vt -0.000000 0.075000 0.000000
vt 0.075000 0.075000 0.000000
vt 0.000000 0.000000 0.000000
vt 0.291000 0.000000 0.000000
vt -0.000000 0.075000 0.000000
vt 0.291000 0.075000 0.000000
vt -0.000000 0.000000 0.000000
vt 0.216000 0.000000 0.000000
vt -0.000000 0.075000 0.000000
vt 0.216000 0.075000 0.000000
vt 0.000000 0.000000 0.000000
vt 0.141000 0.000000 0.000000
vt -0.000000 0.075000 0.000000
vt 0.141000 0.075000 0.000000
vt -0.000000 0.000000 0.000000
vt 0.357000 0.000000 0.000000
vt -0.000000 0.075000 0.000000
vt 0.357000 0.075000 0.000000
vt 0.000000 0.000000 0.000000
vt 0.216000 0.000000 0.000000
vt -0.000000 0.075000 0.000000
vt 0.216000 0.075000 0.000000
vt -0.000000 0.000000 0.000000
vt 0.216000 0.000000 0.000000
vt -0.000000 0.075000 0.000000
vt 0.216000 0.075000 0.000000
vt 0.000000 0.000000 0.000000
vt 0.141000 0.000000 0.000000
vt -0.000000 0.075000 0.000000
vt 0.141000 0.075000 0.000000
vt -0.000000 0.000000 0.000000
vt 0.216000 0.000000 0.000000
vt -0.000000 0.075000 0.000000
vt 0.216000 0.075000 0.000000
vt 0.000000 0.000000 0.000000
vt 0.075000 0.000000 0.000000
vt -0.000000 0.075000 0.000000
vt 0.075000 0.075000 0.000000
vt -0.000000 0.000000 0.000000
vt 0.291000 0.000000 0.000000
vt -0.000000 0.075000 0.000000
vt 0.291000 0.075000 0.000000
vt 0.000000 0.000000 0.000000
vt 0.291000 0.000000 0.000000
vt 0.000000 0.075000 0.000000
vt 0.291000 0.075000 0.000000
vt -0.000000 0.000000 0.000000
vt 0.216000 0.000000 0.000000
vt -0.000000 0.075000 0.000000
vt 0.216000 0.075000 0.000000
vt 0.000000 0.000000 0.000000
vt 0.573000 0.000000 0.000000
vt 0.000000 0.075000 0.000000
vt 0.573000 0.075000 0.000000
vt -0.000000 0.000000 0.000000
vt 0.216000 0.000000 0.000000
vt -0.000000 0.075000 0.000000
vt 0.216000 0.075000 0.000000
vt 0.000000 0.000000 0.000000
vt 0.939000 0.000000 0.000000
vt 0.000000 0.075000 0.000000
vt 0.939000 0.075000 0.000000
vt 0.000000 0.000000 0.000000
vt 0.291000 0.000000 0.000000
vt 0.000000 0.075000 0.000000
vt 0.291000 0.075000 0.000000
vt 0.699750 -0.826500 0.000000
vt 0.699750 -0.901500 0.000000
vt 0.915750 -0.826500 0.000000
vt 0.990750 -0.901500 0.000000
vt 0.915750 -0.037500 0.000000
vt 0.990750 0.037500 0.000000
vt 0.774750 0.037500 0.000000
vt 0.774750 0.610500 0.000000
vt 0.699750 0.394500 0.000000
vt 0.699750 0.253500 0.000000
vt 0.699750 0.178500 0.000000
vt 0.483750 0.253500 0.000000
vt 0.483750 0.178500 0.000000
vt 0.990750 0.610500 0.000000
vt 0.915750 0.685500 0.000000
vt 0.699750 0.685500 0.000000
vt 0.699750 0.469500 0.000000
vt 0.915750 0.826500 0.000000
vt 0.990750 0.901500 0.000000
vt 0.699750 0.901500 0.000000
vt 0.699750 0.826500 0.000000
vt 0.342750 0.469500 0.000000
vt 0.342750 0.394500 0.000000
vt 0.267750 0.610500 0.000000
vt 0.267750 0.178500 0.000000
vt 0.342750 0.610500 0.000000
vt 0.126750 0.685500 0.000000
vt 0.051750 0.685500 0.000000
vt 0.126750 0.826500 0.000000
vt 0.051750 0.901500 0.000000
vt 0.342750 0.901500 0.000000
vt 0.342750 0.826500 0.000000
vt 0.483750 0.685500 0.000000
vt 0.558750 0.610500 0.000000
vt 0.558750 0.901500 0.000000
vt 0.483750 0.901500 0.000000
vt -0.089250 0.610500 0.000000
vt -0.305250 0.685500 0.000000
vt -0.164250 0.610500 0.000000
vt -0.305250 0.610500 0.000000
vt -0.380250 0.685500 0.000000
vt -0.380250 0.610500 0.000000
vt -0.521250 0.685500 0.000000
vt -0.596250 0.610500 0.000000
vt -0.596250 0.826500 0.000000
vt -0.521250 0.901500 0.000000
vt -0.812250 0.901500 0.000000
vt -0.305250 0.901500 0.000000
vt -0.380250 0.901500 0.000000
vt -0.812250 0.826500 0.000000
vt -0.380250 0.469500 0.000000
vt -0.305250 0.253500 0.000000
vt -0.380250 0.394500 0.000000
vt -0.380250 0.253500 0.000000
vt -0.812250 0.469500 0.000000
vt -0.812250 0.394500 0.000000
vt -0.596250 0.253500 0.000000
vt -0.596250 0.178500 0.000000
vt -0.164250 0.178500 0.000000
vt -0.089250 0.253500 0.000000
vt -0.089250 -0.253500 0.000000
vt -0.164250 -0.178500 0.000000
vt -0.305250 -0.253500 0.000000
vt -0.380250 -0.253500 0.000000
vt -0.305250 -0.469500 0.000000
vt -0.380250 -0.469500 0.000000
vt -0.737250 -0.178500 0.000000
vt -0.812250 -0.253500 0.000000
vt -0.737250 -0.037500 0.000000
vt -0.737250 0.037500 0.000000
vt -0.305250 -0.037500 0.000000
vt -0.305250 0.037500 0.000000
vt -0.737250 0.253500 0.000000
vt -0.812250 0.253500 0.000000
vt -0.089250 0.469500 0.000000
vt -0.164250 0.394500 0.000000
vt 0.051750 0.394500 0.000000
vt 0.051750 -0.394500 0.000000
vt 0.126750 0.037500 0.000000
vt 0.126750 0.469500 0.000000
vt -0.164250 -0.394500 0.000000
vt -0.089250 -0.469500 0.000000
vt 0.126750 -0.469500 0.000000
vt 0.126750 -0.037500 0.000000
vt -0.164250 -0.610500 0.000000
vt -0.164250 -0.685500 0.000000
vt -0.089250 -1.005000 0.000000
vt -0.164250 -1.005000 0.000000
vt 0.126750 -1.080000 0.000000
vt -0.521250 -1.005000 0.000000
vt -0.990750 -1.080000 0.000000
vt -0.596250 -1.005000 0.000000
vt -0.915750 -1.005000 0.000000
vt -0.596250 -0.610500 0.000000
vt -0.380250 -0.685500 0.000000
vt -0.305250 -0.685500 0.000000
vt -0.596250 -0.685500 0.000000
vt -0.380250 -0.901500 0.000000
vt -0.305250 -0.901500 0.000000
vt -0.521250 -0.826500 0.000000
vt -0.596250 -0.826500 0.000000
vt -0.915750 -0.901500 0.000000
vt -0.915750 -0.826500 0.000000
vt -0.915750 -0.469500 0.000000
vt -0.812250 -0.826500 0.000000
vt -0.737250 -0.901500 0.000000
vt -0.737250 -0.610500 0.000000
vt -0.812250 -0.610500 0.000000
vt -0.915750 -0.394500 0.000000
vt -0.521250 -0.469500 0.000000
vt -0.521250 -0.394500 0.000000
vt -0.990750 1.080000 0.000000
vt -0.915750 0.610500 0.000000
vt -0.915750 0.685500 0.000000
vt -0.737250 0.610500 0.000000
vt -0.737250 0.685500 0.000000
vt -0.915750 1.005000 0.000000
vt -0.164250 1.005000 0.000000
vt -0.089250 1.080000 0.000000
vt -0.089250 0.826500 0.000000
vt -0.164250 0.826500 0.000000
vt 0.126750 -1.005000 0.000000
vt 0.558750 -0.037500 0.000000
vt 0.558750 0.037500 0.000000
vt 0.342750 0.178500 0.000000
vt 0.774750 -0.037500 0.000000
vt 0.699750 -0.253500 0.000000
vt 0.774750 -0.253500 0.000000
vt 0.901500 -0.699750 0.000000
vt 0.826500 -0.915750 0.000000
vt 0.901500 -0.990750 0.000000
vt 0.037500 -0.915750 0.000000
vt -0.037500 -0.990750 0.000000
vt -0.037500 -0.774750 0.000000
vt 0.037500 -0.774750 0.000000
vt -0.178500 -0.699750 0.000000
vt 0.253500 -0.699750 0.000000
vt 0.253500 -0.774750 0.000000
vt 0.826500 -0.699750 0.000000
vt -0.178500 -0.483750 0.000000
vt -0.253500 -0.483750 0.000000
vt -0.253500 -0.699750 0.000000
vt -0.394500 -0.699750 0.000000
vt -0.610500 -0.774750 0.000000
vt -0.469500 -0.699750 0.000000
vt -0.685500 -0.699750 0.000000
vt -0.469500 -0.342750 0.000000
vt -0.394500 -0.342750 0.000000
vt -0.610500 -0.267750 0.000000
vt -0.178500 -0.267750 0.000000
vt -0.178500 -0.342750 0.000000
vt -0.610500 0.089250 0.000000
vt -0.685500 -0.051750 0.000000
vt -0.685500 -0.126750 0.000000
vt -0.685500 -0.483750 0.000000
vt -0.610500 0.164250 0.000000
vt -0.469500 0.089250 0.000000
vt -0.394500 0.164250 0.000000
vt -0.394500 -0.051750 0.000000
vt -0.469500 -0.126750 0.000000
vt -0.037500 -0.126750 0.000000
vt -0.037500 -0.558750 0.000000
vt 0.037500 -0.558750 0.000000
vt 0.037500 -0.126750 0.000000
vt 0.394500 -0.051750 0.000000
vt 0.469500 -0.126750 0.000000
vt 0.469500 0.089250 0.000000
vt 1.005000 0.089250 0.000000
vt 0.685500 0.164250 0.000000
vt 0.610500 0.164250 0.000000
vt 0.394500 0.164250 0.000000
vt 1.005000 -0.126750 0.000000
vt 1.080000 -0.126750 0.000000
vt 1.005000 0.164250 0.000000
vt 1.005000 0.521250 0.000000
vt 1.080000 0.990750 0.000000
vt 1.005000 0.596250 0.000000
vt 1.005000 0.915750 0.000000
vt 0.901500 0.915750 0.000000
vt 0.826500 0.915750 0.000000
vt 0.826500 0.812250 0.000000
vt -1.080000 0.990750 0.000000
vt 0.394500 0.915750 0.000000
vt 0.469500 0.915750 0.000000
vt -1.080000 0.089250 0.000000
vt -1.005000 0.915750 0.000000
vt -0.685500 0.915750 0.000000
vt -0.610500 0.915750 0.000000
vt -0.610500 0.737250 0.000000
vt -0.685500 0.737250 0.000000
vt -1.005000 0.164250 0.000000
vt -0.826500 0.089250 0.000000
vt -0.826500 0.164250 0.000000
vt 0.394500 0.521250 0.000000
vt 0.469500 0.521250 0.000000
vt 0.610500 0.812250 0.000000
vt 0.610500 0.737250 0.000000
vt 0.901500 0.737250 0.000000
vt 0.826500 0.596250 0.000000
vt 0.826500 0.521250 0.000000
vt 0.685500 0.305250 0.000000
vt 0.685500 0.380250 0.000000
vt 0.610500 0.596250 0.000000
vt 0.685500 0.596250 0.000000
vt 0.901500 0.305250 0.000000
vt 0.901500 0.380250 0.000000
vt -0.685500 0.305250 0.000000
vt -0.610500 0.305250 0.000000
vt -0.685500 0.380250 0.000000
vt -0.610500 0.380250 0.000000
vt -0.685500 0.521250 0.000000
vt -0.610500 0.596250 0.000000
vt -0.826500 0.596250 0.000000
vt -0.469500 0.380250 0.000000
vt -0.253500 0.305250 0.000000
vt -0.394500 0.380250 0.000000
vt -0.253500 0.380250 0.000000
vt -0.178500 0.164250 0.000000
vt -0.178500 0.596250 0.000000
vt -0.253500 0.089250 0.000000
vt 0.253500 0.089250 0.000000
vt 0.178500 0.164250 0.000000
vt 0.253500 0.305250 0.000000
vt 0.253500 0.380250 0.000000
vt 0.469500 0.305250 0.000000
vt 0.469500 0.380250 0.000000
vt 0.178500 0.737250 0.000000
vt 0.253500 0.812250 0.000000
vt 0.037500 0.737250 0.000000
vt -0.253500 0.812250 0.000000
vt -0.037500 0.737250 0.000000
vt -0.253500 0.737250 0.000000
vt -0.037500 0.305250 0.000000
vt 0.037500 0.305250 0.000000
vt -0.253500 0.596250 0.000000
vt -0.394500 0.812250 0.000000
vt -0.469500 0.812250 0.000000
vt -0.826500 0.812250 0.000000
vt -0.901500 0.812250 0.000000
vt -0.901500 0.521250 0.000000
vt -0.901500 0.380250 0.000000
vt -0.901500 0.305250 0.000000
vt -0.826500 -0.126750 0.000000
vt -0.901500 -0.051750 0.000000
vt -0.901500 -0.342750 0.000000
vt -0.826500 -0.342750 0.000000
vt -0.901500 -0.483750 0.000000
vt -0.901500 -0.558750 0.000000
vt -0.610500 -0.558750 0.000000
vt -0.610500 -0.342750 0.000000
vt -0.685500 -0.915750 0.000000
vt -0.610500 -0.990750 0.000000
vt -0.826500 -0.915750 0.000000
vt -0.901500 -0.990750 0.000000
vt -0.901500 -0.699750 0.000000
vt -0.826500 -0.699750 0.000000
vn 1.000000 0.000000 -0.000000
vn 1.000000 0.000000 -0.000000
vn 1.000000 0.000000 -0.000000
vn 1.000000 0.000000 -0.000000
vn -1.000000 0.000000 0.000000
vn -1.000000 0.000000 0.000000
vn -1.000000 0.000000 0.000000
vn -1.000000 0.000000 0.000000
vn -0.000000 0.000000 -1.000000
vn -0.000000 0.000000 -1.000000
vn -0.000000 0.000000 -1.000000
vn -0.000000 0.000000 -1.000000
vn -0.000000 0.000000 -1.000000
vn -0.000000 0.000000 -1.000000
vn -0.000000 0.000000 -1.000000
vn -0.000000 0.000000 -1.000000
vn -0.000000 0.000000 -1.000000
vn -0.000000 0.000000 -1.000000
vn -0.000000 0.000000 -1.000000
vn -0.000000 0.000000 -1.000000
vn -0.000000 0.000000 -1.000000
vn -0.000000 0.000000 -1.000000
vn -0.000000 0.000000 -1.000000
vn -0.000000 0.000000 -1.000000
vn 1.000000 0.000000 -0.000000
vn 1.000000 0.000000 -0.000000
vn 1.000000 0.000000 -0.000000
vn 1.000000 0.000000 -0.000000
vn -0.000000 0.000000 -1.000000
vn -0.000000 0.000000 -1.000000
vn -0.000000 0.000000 -1.000000
vn -0.000000 0.000000 -1.000000
vn -1.000000 0.000000 0.000000
vn -1.000000 0.000000 0.000000
vn -1.000000 0.000000 0.000000
vn -1.000000 0.000000 0.000000
vn 0.000000 -0.000000 1.000000
vn 0.000000 -0.000000 1.000000
vn 0.000000 -0.000000 1.000000
vn 0.000000 -0.000000 1.000000
vn -1.000000 0.000000 0.000000
vn -1.000000 0.000000 0.000000
vn -1.000000 0.000000 0.000000
vn -1.000000 0.000000 0.000000
vn -1.000000 0.000000 0.000000
vn -1.000000 0.000000 0.000000
vn -1.000000 0.000000 0.000000
vn -1.000000 0.000000 0.000000
vn 0.000000 -0.000000 1.000000
vn 0.000000 -0.000000 1.000000
vn 0.000000 -0.000000 1.000000
vn 0.000000 -0.000000 1.000000
vn -1.000000 0.000000 0.000000
vn -1.000000 0.000000 0.000000
vn -1.000000 0.000000 0.000000
vn -1.000000 0.000000 0.000000
vn -0.000000 0.000000 -1.000000
vn -0.000000 0.000000 -1.000000
vn -0.000000 0.000000 -1.000000
vn -0.000000 0.000000 -1.000000
vn -1.000000 0.000000 0.000000
vn -1.000000 0.000000 0.000000
vn -1.000000 0.000000 0.000000
vn -1.000000 0.000000 0.000000
vn 0.000000 -0.000000 1.000000
vn 0.000000 -0.000000 1.000000
vn 0.000000 -0.000000 1.000000
vn 0.000000 -0.000000 1.000000
vn 1.000000 0.000000 -0.000000
vn 1.000000 0.000000 -0.000000
vn 1.000000 0.000000 -0.000000
vn 1.000000 0.000000 -0.000000
vn 0.000000 -0.000000 1.000000
vn 0.000000 -0.000000 1.000000
vn 0.000000 -0.000000 1.000000
vn 0.000000 -0.000000 1.000000
vn 1.000000 0.000000 -0.000000
vn 1.000000 0.000000 -0.000000
vn 1.000000 0.000000 -0.000000
vn 1.000000 0.000000 -0.000000
vn 0.000000 -0.000000 1.000000
vn 0.000000 -0.000000 1.000000
vn 0.000000 -0.000000 1.000000
vn 0.000000 -0.000000 1.000000
vn -1.000000 0.000000 0.000000
vn -1.000000 0.000000 0.000000
vn -1.000000 0.000000 0.000000
vn -1.000000 0.000000 0.000000
vn 0.000000 -0.000000 1.000000
vn 0.000000 -0.000000 1.000000
vn 0.000000 -0.000000 1.000000
vn 0.000000 -0.000000 1.000000
vn -1.000000 0.000000 0.000000
vn -1.000000 0.000000 0.000000
vn -1.000000 0.000000 0.000000
vn -1.000000 0.000000 0.000000
vn 0.000000 -0.000000 1.000000
vn 0.000000 -0.000000 1.000000
vn 0.000000 -0.000000 1.000000
vn 0.000000 -0.000000 1.000000
vn 1.000000 0.000000 -0.000000
vn 1.000000 0.000000 -0.000000
vn 1.000000 0.000000 -0.000000
vn 1.000000 0.000000 -0.000000
vn 0.000000 -0.000000 1.000000
vn 0.000000 -0.000000 1.000000
vn 0.000000 -0.000000 1.000000
vn 0.000000 -0.000000 1.000000
vn -1.000000 0.000000 0.000000
vn -1.000000 0.000000 0.000000
vn -1.000000 0.000000 0.000000
vn -1.000000 0.000000 0.000000
vn 0.000000 0.000000 -1.000000
vn 0.000000 0.000000 -1.000000
vn 0.000000 0.000000 -1.000000
vn 0.000000 0.000000 -1.000000
vn 1.000000 -0.000000 0.000000
vn 1.000000 -0.000000 0.000000
vn 1.000000 -0.000000 0.000000
vn 1.000000 -0.000000 0.000000
vn 0.000000 -0.000000 1.000000
vn 0.000000 -0.000000 1.000000
vn 0.000000 -0.000000 1.000000
vn 0.000000 -0.000000 1.000000
vn -1.000000 0.000000 0.000000
vn -1.000000 0.000000 0.000000
vn -1.000000 0.000000 0.000000
vn -1.000000 0.000000 0.000000
vn -0.000000 0.000000 -1.000000
vn -0.000000 0.000000 -1.000000
vn -0.000000 0.000000 -1.000000
vn -0.000000 0.000000 -1.000000
vn -1.000000 0.000000 0.000000
vn -1.000000 0.000000 0.000000
vn -1.000000 0.000000 0.000000
vn -1.000000 0.000000 0.000000
vn 0.000000 -0.000000 1.000000
vn 0.000000 -0.000000 1.000000
vn 0.000000 -0.000000 1.000000
vn 0.000000 -0.000000 1.000000
vn 1.000000 0.000000 -0.000000
vn 1.000000 0.000000 -0.000000
vn 1.000000 0.000000 -0.000000
vn 1.000000 0.000000 -0.000000
vn 0.000000 -0.000000 1.000000
vn 0.000000 -0.000000 1.000000
vn 0.000000 -0.000000 1.000000
vn 0.000000 -0.000000 1.000000
vn -1.000000 0.000000 0.000000
vn -1.000000 0.000000 0.000000
vn -1.000000 0.000000 0.000000
vn -1.000000 0.000000 0.000000
vn 0.000000 -0.000000 1.000000
vn 0.000000 -0.000000 1.000000
vn 0.000000 -0.000000 1.000000
vn 0.000000 -0.000000 1.000000
vn 1.000000 0.000000 -0.000000
vn 1.000000 0.000000 -0.000000
vn 1.000000 0.000000 -0.000000
vn 1.000000 0.000000 -0.000000
vn 0.000000 -0.000000 1.000000
vn 0.000000 -0.000000 1.000000
vn 0.000000 -0.000000 1.000000
vn 0.000000 -0.000000 1.000000
vn -1.000000 0.000000 0.000000
vn -1.000000 0.000000 0.000000
vn -1.000000 0.000000 0.000000
vn -1.000000 0.000000 0.000000
vn 0.000000 -0.000000 1.000000
vn 0.000000 -0.000000 1.000000
vn 0.000000 -0.000000 1.000000
vn 0.000000 -0.000000 1.000000
vn 1.000000 0.000000 -0.000000
vn 1.000000 0.000000 -0.000000
vn 1.000000 0.000000 -0.000000
vn 1.000000 0.000000 -0.000000
vn -0.000000 0.000000 -1.000000
vn -0.000000 0.000000 -1.000000
vn -0.000000 0.000000 -1.000000
vn -0.000000 0.000000 -1.000000
vn 1.000000 0.000000 -0.000000
vn 1.000000 0.000000 -0.000000
vn 1.000000 0.000000 -0.000000
vn 1.000000 0.000000 -0.000000
vn 0.000000 -0.000000 1.000000
vn 0.000000 -0.000000 1.000000
vn 0.000000 -0.000000 1.000000
vn 0.000000 -0.000000 1.000000
vn -1.000000 0.000000 0.000000
vn -1.000000 0.000000 0.000000
vn -1.000000 0.000000 0.000000
vn -1.000000 0.000000 0.000000
vn 0.000000 -0.000000 1.000000
vn 0.000000 -0.000000 1.000000
vn 0.000000 -0.000000 1.000000
vn 0.000000 -0.000000 1.000000
vn 1.000000 0.000000 -0.000000
vn 1.000000 0.000000 -0.000000
vn 1.000000 0.000000 -0.000000
vn 1.000000 0.000000 -0.000000
vn -0.000000 0.000000 -1.000000
vn -0.000000 0.000000 -1.000000
vn -0.000000 0.000000 -1.000000
vn -0.000000 0.000000 -1.000000
vn 1.000000 0.000000 -0.000000
vn 1.000000 0.000000 -0.000000
vn 1.000000 0.000000 -0.000000
vn 1.000000 0.000000 -0.000000
vn 0.000000 -0.000000 1.000000
vn 0.000000 -0.000000 1.000000
vn 0.000000 -0.000000 1.000000
vn 0.000000 -0.000000 1.000000
vn 1.000000 0.000000 -0.000000
vn 1.000000 0.000000 -0.000000
vn 1.000000 0.000000 -0.000000
vn 1.000000 0.000000 -0.000000
vn -0.000000 0.000000 -1.000000
vn -0.000000 0.000000 -1.000000
vn -0.000000 0.000000 -1.000000
vn -0.000000 0.000000 -1.000000
vn -1.000000 0.000000 0.000000
vn -1.000000 0.000000 0.000000
vn -1.000000 0.000000 0.000000
vn -1.000000 0.000000 0.000000
vn 0.000000 -0.000000 1.000000
vn 0.000000 -0.000000 1.000000
vn 0.000000 -0.000000 1.000000
vn 0.000000 -0.000000 1.000000
vn -1.000000 0.000000 0.000000
vn -1.000000 0.000000 0.000000
vn -1.000000 0.000000 0.000000
vn -1.000000 0.000000 0.000000
vn -0.000000 0.000000 -1.000000
vn -0.000000 0.000000 -1.000000
vn -0.000000 0.000000 -1.000000
vn -0.000000 0.000000 -1.000000
vn -1.000000 0.000000 0.000000
vn -1.000000 0.000000 0.000000
vn -1.000000 0.000000 0.000000
vn -1.000000 0.000000 0.000000
vn -0.000000 0.000000 -1.000000
vn -0.000000 0.000000 -1.000000
vn -0.000000 0.000000 -1.000000
vn -0.000000 0.000000 -1.000000
vn 1.000000 0.000000 -0.000000
vn 1.000000 0.000000 -0.000000
vn 1.000000 0.000000 -0.000000
vn 1.000000 0.000000 -0.000000
vn -0.000000 0.000000 -1.000000
vn -0.000000 0.000000 -1.000000
vn -0.000000 0.000000 -1.000000
vn -0.000000 0.000000 -1.000000
vn 1.000000 0.000000 -0.000000
vn 1.000000 0.000000 -0.000000
vn 1.000000 0.000000 -0.000000
vn 1.000000 0.000000 -0.000000
vn -0.000000 0.000000 -1.000000
vn -0.000000 0.000000 -1.000000
vn -0.000000 0.000000 -1.000000
vn -0.000000 0.000000 -1.000000
vn -1.000000 0.000000 0.000000
vn -1.000000 0.000000 0.000000
vn -1.000000 0.000000 0.000000
vn -1.000000 0.000000 0.000000
vn -0.000000 0.000000 -1.000000
vn -0.000000 0.000000 -1.000000
vn -0.000000 0.000000 -1.000000
vn -0.000000 0.000000 -1.000000
vn -1.000000 0.000000 0.000000
vn -1.000000 0.000000 0.000000
vn -1.000000 0.000000 0.000000
vn -1.000000 0.000000 0.000000
vn 0.000000 -0.000000 1.000000
vn 0.000000 -0.000000 1.000000
vn 0.000000 -0.000000 1.000000
vn 0.000000 -0.000000 1.000000
vn 1.000000 0.000000 -0.000000
vn 1.000000 0.000000 -0.000000
vn 1.000000 0.000000 -0.000000
vn 1.000000 0.000000 -0.000000
vn 0.000000 -0.000000 1.000000
vn 0.000000 -0.000000 1.000000
vn 0.000000 -0.000000 1.000000
vn 0.000000 -0.000000 1.000000
vn -1.000000 0.000000 0.000000
vn -1.000000 0.000000 0.000000
vn -1.000000 0.000000 0.000000
vn -1.000000 0.000000 0.000000
vn 0.000000 -0.000000 1.000000
vn 0.000000 -0.000000 1.000000
vn 0.000000 -0.000000 1.000000
vn 0.000000 -0.000000 1.000000
vn -1.000000 0.000000 0.000000
vn -1.000000 0.000000 0.000000
vn -1.000000 0.000000 0.000000
vn -1.000000 0.000000 0.000000
vn -0.000000 0.000000 -1.000000
vn -0.000000 0.000000 -1.000000
vn -0.000000 0.000000 -1.000000
vn -0.000000 0.000000 -1.000000
vn -1.000000 0.000000 0.000000
vn -1.000000 0.000000 0.000000
vn -1.000000 0.000000 0.000000
vn -1.000000 0.000000 0.000000
vn -0.000000 0.000000 -1.000000
vn -0.000000 0.000000 -1.000000
vn -0.000000 0.000000 -1.000000
vn -0.000000 0.000000 -1.000000
vn 1.000000 0.000000 -0.000000
vn 1.000000 0.000000 -0.000000
vn 1.000000 0.000000 -0.000000
vn 1.000000 0.000000 -0.000000
vn 0.000000 -0.000000 1.000000
vn 0.000000 -0.000000 1.000000
vn 0.000000 -0.000000 1.000000
vn 0.000000 -0.000000 1.000000
vn 1.000000 0.000000 -0.000000
vn 1.000000 0.000000 -0.000000
vn 1.000000 0.000000 -0.000000
vn 1.000000 0.000000 -0.000000
vn 0.000000 -0.000000 1.000000
vn 0.000000 -0.000000 1.000000
vn 0.000000 -0.000000 1.000000
vn 0.000000 -0.000000 1.000000
vn -1.000000 0.000000 0.000000
vn -1.000000 0.000000 0.000000
vn -1.000000 0.000000 0.000000
vn -1.000000 0.000000 0.000000
vn 0.000000 -0.000000 1.000000
vn 0.000000 -0.000000 1.000000
vn 0.000000 -0.000000 1.000000
vn 0.000000 -0.000000 1.000000
vn 1.000000 0.000000 -0.000000
vn 1.000000 0.000000 -0.000000
vn 1.000000 0.000000 -0.000000
vn 1.000000 0.000000 -0.000000
vn -0.000000 0.000000 -1.000000
vn -0.000000 0.000000 -1.000000
vn -0.000000 0.000000 -1.000000
vn -0.000000 0.000000 -1.000000
vn -1.000000 0.000000 0.000000
vn -1.000000 0.000000 0.000000
vn -1.000000 0.000000 0.000000
vn -1.000000 0.000000 0.000000
vn -0.000000 0.000000 -1.000000
vn -0.000000 0.000000 -1.000000
vn -0.000000 0.000000 -1.000000
vn -0.000000 0.000000 -1.000000
vn 1.000000 0.000000 -0.000000
vn 1.000000 0.000000 -0.000000
vn 1.000000 0.000000 -0.000000
vn 1.000000 0.000000 -0.000000
vn -0.000000 0.000000 -1.000000
vn -0.000000 0.000000 -1.000000
vn -0.000000 0.000000 -1.000000
vn -0.000000 0.000000 -1.000000
vn -1.000000 0.000000 0.000000
vn -1.000000 0.000000 0.000000
vn -1.000000 0.000000 0.000000
vn -1.000000 0.000000 0.000000
vn -0.000000 0.000000 -1.000000
vn -0.000000 0.000000 -1.000000
vn -0.000000 0.000000 -1.000000
vn -0.000000 0.000000 -1.000000
vn 1.000000 0.000000 -0.000000
vn 1.000000 0.000000 -0.000000
vn 1.000000 0.000000 -0.000000
vn 1.000000 0.000000 -0.000000
vn -0.000000 0.000000 -1.000000
vn -0.000000 0.000000 -1.000000
vn -0.000000 0.000000 -1.000000
vn -0.000000 0.000000 -1.000000
vn -1.000000 0.000000 0.000000
vn -1.000000 0.000000 0.000000
vn -1.000000 0.000000 0.000000
vn -1.000000 0.000000 0.000000
vn -0.000000 0.000000 -1.000000
vn -0.000000 0.000000 -1.000000
vn -0.000000 0.000000 -1.000000
vn -0.000000 0.000000 -1.000000
vn -1.000000 0.000000 0.000000
vn -1.000000 0.000000 0.000000
vn -1.000000 0.000000 0.000000
vn -1.000000 0.000000 0.000000
vn -0.000000 0.000000 -1.000000
vn -0.000000 0.000000 -1.000000
vn -0.000000 0.000000 -1.000000
vn -0.000000 0.000000 -1.000000
vn 1.000000 0.000000 -0.000000
vn 1.000000 0.000000 -0.000000
vn 1.000000 0.000000 -0.000000
vn 1.000000 0.000000 -0.000000
vn 0.000000 -0.000000 1.000000
vn 0.000000 -0.000000 1.000000
vn 0.000000 -0.000000 1.000000
vn 0.000000 -0.000000 1.000000
vn 1.000000 0.000000 -0.000000
vn 1.000000 0.000000 -0.000000
vn 1.000000 0.000000 -0.000000
vn 1.000000 0.000000 -0.000000
vn -0.000000 0.000000 -1.000000
vn -0.000000 0.000000 -1.000000
vn -0.000000 0.000000 -1.000000
vn -0.000000 0.000000 -1.000000
vn 1.000000 0.000000 -0.000000
vn 1.000000 0.000000 -0.000000
vn 1.000000 0.000000 -0.000000
vn 1.000000 0.000000 -0.000000
vn 0.000000 -0.000000 1.000000
vn 0.000000 -0.000000 1.000000
vn 0.000000 -0.000000 1.000000
vn 0.000000 -0.000000 1.000000
vn 1.000000 0.000000 -0.000000
vn 1.000000 0.000000 -0.000000
vn 1.000000 0.000000 -0.000000
vn 1.000000 0.000000 -0.000000
vn -0.000000 0.000000 -1.000000
vn -0.000000 0.000000 -1.000000
vn -0.000000 0.000000 -1.000000
vn -0.000000 0.000000 -1.000000
vn 1.000000 0.000000 -0.000000
vn 1.000000 0.000000 -0.000000
vn 1.000000 0.000000 -0.000000
vn 1.000000 0.000000 -0.000000
vn 0.000000 -0.000000 1.000000
vn 0.000000 -0.000000 1.000000
vn 0.000000 -0.000000 1.000000
vn 0.000000 -0.000000 1.000000
vn -1.000000 0.000000 0.000000
vn -1.000000 0.000000 0.000000
vn -1.000000 0.000000 0.000000
vn -1.000000 0.000000 0.000000
vn 0.000000 -0.000000 1.000000
vn 0.000000 -0.000000 1.000000
vn 0.000000 -0.000000 1.000000
vn 0.000000 -0.000000 1.000000
vn 1.000000 0.000000 -0.000000
vn 1.000000 0.000000 -0.000000
vn 1.000000 0.000000 -0.000000
vn 1.000000 0.000000 -0.000000
vn -0.000000 0.000000 -1.000000
vn -0.000000 0.000000 -1.000000
vn -0.000000 0.000000 -1.000000
vn -0.000000 0.000000 -1.000000
vn 1.000000 0.000000 -0.000000
vn 1.000000 0.000000 -0.000000
vn 1.000000 0.000000 -0.000000
vn 1.000000 0.000000 -0.000000
vn 0.000000 -0.000000 1.000000
vn 0.000000 -0.000000 1.000000
vn 0.000000 -0.000000 1.000000
vn 0.000000 -0.000000 1.000000
vn -1.000000 0.000000 0.000000
vn -1.000000 0.000000 0.000000
vn -1.000000 0.000000 0.000000
vn -1.000000 0.000000 0.000000
vn 0.000000 -0.000000 1.000000
vn 0.000000 -0.000000 1.000000
vn 0.000000 -0.000000 1.000000
vn 0.000000 -0.000000 1.000000
vn 1.000000 0.000000 -0.000000
vn 1.000000 0.000000 -0.000000
vn 1.000000 0.000000 -0.000000
vn 1.000000 0.000000 -0.000000
vn -0.000000 0.000000 -1.000000
vn -0.000000 0.000000 -1.000000
vn -0.000000 0.000000 -1.000000
vn -0.000000 0.000000 -1.000000
vn 1.000000 0.000000 -0.000000
vn 1.000000 0.000000 -0.000000
vn 1.000000 0.000000 -0.000000
vn 1.000000 0.000000 -0.000000
vn -0.000000 0.000000 -1.000000
vn -0.000000 0.000000 -1.000000
vn -0.000000 0.000000 -1.000000
vn -0.000000 0.000000 -1.000000
vn -1.000000 0.000000 0.000000
vn -1.000000 0.000000 0.000000
vn -1.000000 0.000000 0.000000
vn -1.000000 0.000000 0.000000
vn -0.000000 0.000000 -1.000000
vn -0.000000 0.000000 -1.000000
vn -0.000000 0.000000 -1.000000
vn -0.000000 0.000000 -1.000000
vn 1.000000 0.000000 -0.000000
vn 1.000000 0.000000 -0.000000
vn 1.000000 0.000000 -0.000000
vn 1.000000 0.000000 -0.000000
vn 0.000000 -0.000000 1.000000
vn 0.000000 -0.000000 1.000000
vn 0.000000 -0.000000 1.000000
vn 0.000000 -0.000000 1.000000
vn -1.000000 0.000000 0.000000
vn -1.000000 0.000000 0.000000
vn -1.000000 0.000000 0.000000
vn -1.000000 0.000000 0.000000
vn 0.000000 -0.000000 1.000000
vn 0.000000 -0.000000 1.000000
vn 0.000000 -0.000000 1.000000
vn 0.000000 -0.000000 1.000000
vn 1.000000 0.000000 -0.000000
vn 1.000000 0.000000 -0.000000
vn 1.000000 0.000000 -0.000000
vn 1.000000 0.000000 -0.000000
vn 0.000000 -0.000000 1.000000
vn 0.000000 -0.000000 1.000000
vn 0.000000 -0.000000 1.000000
vn 0.000000 -0.000000 1.000000
vn -1.000000 0.000000 0.000000
vn -1.000000 0.000000 0.000000
vn -1.000000 0.000000 0.000000
vn -1.000000 0.000000 0.000000
vn 0.000000 1.000000 0.000000
vn 0.000000 1.000000 0.000000
vn 0.000000 1.000000 0.000000
vn 0.000000 1.000000 0.000000
vn 0.000000 1.000000 0.000000
vn 0.000000 1.000000 0.000000
vn 0.000000 1.000000 0.000000
vn 0.000000 1.000000 0.000000
vn 0.000000 1.000000 0.000000
vn 0.000000 1.000000 0.000000
vn 0.000000 1.000000 0.000000
vn 0.000000 1.000000 0.000000
vn 0.000000 1.000000 0.000000
vn 0.000000 1.000000 0.000000
vn 0.000000 1.000000 0.000000
vn 0.000000 1.000000 0.000000
vn 0.000000 1.000000 0.000000
vn 0.000000 1.000000 0.000000
vn 0.000000 1.000000 0.000000
vn 0.000000 1.000000 0.000000
vn 0.000000 1.000000 0.000000
vn 0.000000 1.000000 0.000000
vn 0.000000 1.000000 0.000000
vn 0.000000 1.000000 0.000000
vn 0.000000 1.000000 0.000000
vn 0.000000 1.000000 0.000000
vn 0.000000 1.000000 0.000000
vn 0.000000 1.000000 0.000000
vn 0.000000 1.000000 0.000000
vn 0.000000 1.000000 0.000000
vn 0.000000 1.000000 0.000000
vn 0.000000 1.000000 0.000000
vn 0.000000 1.000000 0.000000
vn 0.000000 1.000000 0.000000
vn 0.000000 1.000000 0.000000
vn 0.000000 1.000000 0.000000
vn 0.000000 1.000000 0.000000
vn 0.000000 1.000000 0.000000
vn 0.000000 1.000000 0.000000
vn 0.000000 1.000000 0.000000
vn 0.000000 1.000000 0.000000
vn 0.000000 1.000000 0.000000
vn 0.000000 1.000000 0.000000
vn 0.000000 1.000000 0.000000
vn 0.000000 1.000000 0.000000
vn 0.000000 1.000000 0.000000
vn 0.000000 1.000000 0.000000
vn 0.000000 1.000000 0.000000
vn 0.000000 1.000000 0.000000
vn 0.000000 1.000000 0.000000
vn 0.000000 1.000000 0.000000
vn 0.000000 1.000000 0.000000
vn 0.000000 1.000000 0.000000
vn 0.000000 1.000000 0.000000
vn 0.000000 1.000000 0.000000
vn 0.000000 1.000000 0.000000
vn 0.000000 1.000000 0.000000
vn 0.000000 1.000000 0.000000
vn 0.000000 1.000000 0.000000
vn 0.000000 1.000000 0.000000
vn 0.000000 1.000000 0.000000
vn 0.000000 1.000000 0.000000
vn 0.000000 1.000000 0.000000
vn 0.000000 1.000000 0.000000
vn 0.000000 1.000000 0.000000
vn 0.000000 1.000000 0.000000
vn 0.000000 1.000000 0.000000
vn 0.000000 1.000000 0.000000
vn 0.000000 1.000000 0.000000
vn 0.000000 1.000000 0.000000
vn 0.000000 1.000000 0.000000
vn 0.000000 1.000000 0.000000
vn 0.000000 1.000000 0.000000
vn 0.000000 1.000000 0.000000
vn 0.000000 1.000000 0.000000
vn 0.000000 1.000000 0.000000
vn 0.000000 1.000000 0.000000
vn 0.000000 1.000000 0.000000
vn 0.000000 1.000000 0.000000
vn 0.000000 1.000000 0.000000
vn 0.000000 1.000000 0.000000
vn 0.000000 1.000000 0.000000
vn 0.000000 1.000000 0.000000
vn 0.000000 1.000000 0.000000
vn 0.000000 1.000000 0.000000
vn 0.000000 1.000000 0.000000
vn 0.000000 1.000000 0.000000
vn 0.000000 1.000000 0.000000
vn 0.000000 1.000000 0.000000
vn 0.000000 1.000000 0.000000
vn 0.000000 1.000000 0.000000
vn 0.000000 1.000000 0.000000
vn 0.000000 1.000000 0.000000
vn 0.000000 1.000000 0.000000
vn 0.000000 1.000000 0.000000
vn 0.000000 1.000000 0.000000
vn 0.000000 1.000000 0.000000
vn 0.000000 1.000000 0.000000
vn 0.000000 1.000000 0.000000
vn 0.000000 1.000000 0.000000
vn 0.000000 1.000000 0.000000
vn 0.000000 1.000000 0.000000
vn 0.000000 1.000000 0.000000
vn 0.000000 1.000000 0.000000
vn 0.000000 1.000000 0.000000
vn 0.000000 1.000000 0.000000
vn 0.000000 1.000000 0.000000
vn 0.000000 1.000000 0.000000
vn 0.000000 1.000000 0.000000
vn 0.000000 1.000000 0.000000
vn 0.000000 1.000000 0.000000
vn 0.000000 1.000000 0.000000
vn 0.000000 1.000000 0.000000
vn 0.000000 1.000000 0.000000
vn 0.000000 1.000000 0.000000
vn 0.000000 1.000000 0.000000
vn 0.000000 1.000000 0.000000
vn 0.000000 1.000000 0.000000
vn 0.000000 1.000000 0.000000
vn 0.000000 1.000000 0.000000
vn 0.000000 1.000000 0.000000
vn 0.000000 1.000000 0.000000
vn 0.000000 1.000000 0.000000
vn 0.000000 1.000000 0.000000
vn 0.000000 1.000000 0.000000
vn 0.000000 1.000000 0.000000
vn 0.000000 1.000000 0.000000
vn 0.000000 1.000000 0.000000
vn -0.000000 -1.000000 -0.000000
vn -0.000000 -1.000000 -0.000000
vn -0.000000 -1.000000 -0.000000
vn -0.000000 -1.000000 -0.000000
vn -0.000000 -1.000000 -0.000000
vn -0.000000 -1.000000 -0.000000
vn -0.000000 -1.000000 -0.000000
vn -0.000000 -1.000000 -0.000000
vn -0.000000 -1.000000 -0.000000
vn -0.000000 -1.000000 -0.000000
vn -0.000000 -1.000000 -0.000000
vn -0.000000 -1.000000 -0.000000
vn -0.000000 -1.000000 -0.000000
vn -0.000000 -1.000000 -0.000000
vn -0.000000 -1.000000 -0.000000
vn -0.000000 -1.000000 -0.000000
vn -0.000000 -1.000000 -0.000000
vn -0.000000 -1.000000 -0.000000
vn -0.000000 -1.000000 -0.000000
vn -0.000000 -1.000000 -0.000000
vn -0.000000 -1.000000 -0.000000
vn -0.000000 -1.000000 -0.000000
vn -0.000000 -1.000000 -0.000000
vn -0.000000 -1.000000 -0.000000
vn -0.000000 -1.000000 -0.000000
vn -0.000000 -1.000000 -0.000000
vn -0.000000 -1.000000 -0.000000
vn -0.000000 -1.000000 -0.000000
vn -0.000000 -1.000000 -0.000000
vn -0.000000 -1.000000 -0.000000
vn -0.000000 -1.000000 -0.000000
vn -0.000000 -1.000000 -0.000000
vn -0.000000 -1.000000 -0.000000
vn -0.000000 -1.000000 -0.000000
vn -0.000000 -1.000000 -0.000000
vn -0.000000 -1.000000 -0.000000
vn -0.000000 -1.000000 -0.000000
vn -0.000000 -1.000000 -0.000000
vn -0.000000 -1.000000 -0.000000
vn -0.000000 -1.000000 -0.000000
vn -0.000000 -1.000000 -0.000000
vn -0.000000 -1.000000 -0.000000
vn -0.000000 -1.000000 -0.000000
vn -0.000000 -1.000000 -0.000000
vn -0.000000 -1.000000 -0.000000
vn -0.000000 -1.000000 -0.000000
vn -0.000000 -1.000000 -0.000000
vn -0.000000 -1.000000 -0.000000
vn -0.000000 -1.000000 -0.000000
vn -0.000000 -1.000000 -0.000000
vn -0.000000 -1.000000 -0.000000
vn -0.000000 -1.000000 -0.000000
vn -0.000000 -1.000000 -0.000000
vn -0.000000 -1.000000 -0.000000
vn -0.000000 -1.000000 -0.000000
vn -0.000000 -1.000000 -0.000000
vn -0.000000 -1.000000 -0.000000
vn -0.000000 -1.000000 -0.000000
vn -0.000000 -1.000000 -0.000000
vn -0.000000 -1.000000 -0.000000
vn -0.000000 -1.000000 -0.000000
vn -0.000000 -1.000000 -0.000000
vn -0.000000 -1.000000 -0.000000
vn -0.000000 -1.000000 -0.000000
vn -0.000000 -1.000000 -0.000000
vn -0.000000 -1.000000 -0.000000
vn -0.000000 -1.000000 -0.000000
vn -0.000000 -1.000000 -0.000000
vn -0.000000 -1.000000 -0.000000
vn -0.000000 -1.000000 -0.000000
vn -0.000000 -1.000000 -0.000000
vn -0.000000 -1.000000 -0.000000
vn -0.000000 -1.000000 -0.000000
vn -0.000000 -1.000000 -0.000000
vn -0.000000 -1.000000 -0.000000
vn -0.000000 -1.000000 -0.000000
vn -0.000000 -1.000000 -0.000000
vn -0.000000 -1.000000 -0.000000
vn -0.000000 -1.000000 -0.000000
vn -0.000000 -1.000000 -0.000000
vn -0.000000 -1.000000 -0.000000
vn -0.000000 -1.000000 -0.000000
vn -0.000000 -1.000000 -0.000000
vn -0.000000 -1.000000 -0.000000
vn -0.000000 -1.000000 -0.000000
vn -0.000000 -1.000000 -0.000000
vn -0.000000 -1.000000 -0.000000
vn -0.000000 -1.000000 -0.000000
vn -0.000000 -1.000000 -0.000000
vn -0.000000 -1.000000 -0.000000
vn -0.000000 -1.000000 -0.000000
vn -0.000000 -1.000000 -0.000000
vn -0.000000 -1.000000 -0.000000
vn -0.000000 -1.000000 -0.000000
vn -0.000000 -1.000000 -0.000000
vn -0.000000 -1.000000 -0.000000
vn -0.000000 -1.000000 -0.000000
vn -0.000000 -1.000000 -0.000000
vn -0.000000 -1.000000 -0.000000
vn -0.000000 -1.000000 -0.000000
vn -0.000000 -1.000000 -0.000000
vn -0.000000 -1.000000 -0.000000
vn -0.000000 -1.000000 -0.000000
vn -0.000000 -1.000000 -0.000000
vn -0.000000 -1.000000 -0.000000
vn -0.000000 -1.000000 -0.000000
vn -0.000000 -1.000000 -0.000000
vn -0.000000 -1.000000 -0.000000
vn -0.000000 -1.000000 -0.000000
vn -0.000000 -1.000000 -0.000000
vn -0.000000 -1.000000 -0.000000
vn -0.000000 -1.000000 -0.000000
vn -0.000000 -1.000000 -0.000000
vn -0.000000 -1.000000 -0.000000
vn -0.000000 -1.000000 -0.000000
vn -0.000000 -1.000000 -0.000000
vn -0.000000 -1.000000 -0.000000
vn -0.000000 -1.000000 -0.000000
vn -0.000000 -1.000000 -0.000000
vn -0.000000 -1.000000 -0.000000
vn -0.000000 -1.000000 -0.000000
vn -0.000000 -1.000000 -0.000000
vn -0.000000 -1.000000 -0.000000
vn -0.000000 -1.000000 -0.000000
vn -0.000000 -1.000000 -0.000000
vn -0.000000 -1.000000 -0.000000
vn -0.000000 -1.000000 -0.000000
vn -0.000000 -1.000000 -0.000000
usemtl Steel_-_Satin
f 1/1/1 2/2/2 4/3/3
f 4/3/3 2/2/2 3/4/4
f 5/5/5 6/6/6 8/7/7
f 8/7/7 6/6/6 7/8/8
f 2/9/9 5/10/10 3/11/11
f 3/11/11 5/10/10 8/12/12
f 4/13/13 9/14/14 1/15/15
f 1/15/15 9/14/14 10/16/16
f 6/17/17 11/18/18 7/19/19
f 7/19/19 11/18/18 12/20/20
f 13/21/21 14/22/22 16/23/23
f 16/23/23 14/22/22 15/24/24
f 17/25/25 13/26/26 18/27/27
f 18/27/27 13/26/26 16/28/28
f 19/29/29 17/30/30 20/31/31
f 20/31/31 17/30/30 18/32/32
f 21/33/33 19/34/34 22/35/35
f 22/35/35 19/34/34 20/36/36
f 23/37/37 21/38/38 24/39/39
f 24/39/39 21/38/38 22/40/40
f 11/41/41 23/42/42 12/43/43
f 12/43/43 23/42/42 24/44/44
f 25/45/45 10/46/46 26/47/47
f 26/47/47 10/46/46 9/48/48
f 27/49/49 25/50/50 28/51/51
f 28/51/51 25/50/50 26/52/52
f 29/53/53 27/54/54 30/55/55
f 30/55/55 27/54/54 28/56/56
f 31/57/57 29/58/58 32/59/59
f 32/59/59 29/58/58 30/60/60
f 33/61/61 31/62/62 34/63/63
f 34/63/63 31/62/62 32/64/64
f 35/65/65 33/66/66 36/67/67
f 36/67/67 33/66/66 34/68/68
f 37/69/69 35/70/70 38/71/71
f 38/71/71 35/70/70 36/72/72
f 39/73/73 37/74/74 40/75/75
f 40/75/75 37/74/74 38/76/76
f 41/77/77 39/78/78 42/79/79
f 42/79/79 39/78/78 40/80/80
f 43/81/81 41/82/82 44/83/83
f 44/83/83 41/82/82 42/84/84
f 45/85/85 43/86/86 46/87/87
f 46/87/87 43/86/86 44/88/88
f 47/89/89 45/90/90 48/91/91
f 48/91/91 45/90/90 46/92/92
f 49/93/93 47/94/94 50/95/95
f 50/95/95 47/94/94 48/96/96
f 51/97/97 49/98/98 52/99/99
f 52/99/99 49/98/98 50/100/100
f 53/101/101 51/102/102 54/103/103
f 54/103/103 51/102/102 52/104/104
f 55/105/105 53/106/106 56/107/107
f 56/107/107 53/106/106 54/108/108
f 57/109/109 55/110/110 58/111/111
f 58/111/111 55/110/110 56/112/112
f 59/113/113 57/114/114 60/115/115
f 60/115/115 57/114/114 58/116/116
f 61/117/117 59/118/118 62/119/119
f 62/119/119 59/118/118 60/120/120
f 63/121/121 61/122/122 64/123/123
f 64/123/123 61/122/122 62/124/124
f 65/125/125 63/126/126 66/127/127
f 66/127/127 63/126/126 64/128/128
f 67/129/129 65/130/130 68/131/131
f 68/131/131 65/130/130 66/132/132
f 69/133/133 67/134/134 70/135/135
f 70/135/135 67/134/134 68/136/136
f 71/137/137 69/138/138 72/139/139
f 72/139/139 69/138/138 70/140/140
f 73/141/141 71/142/142 74/143/143
f 74/143/143 71/142/142 72/144/144
f 75/145/145 73/146/146 76/147/147
f 76/147/147 73/146/146 74/148/148
f 77/149/149 75/150/150 78/151/151
f 78/151/151 75/150/150 76/152/152
f 79/153/153 77/154/154 80/155/155
f 80/155/155 77/154/154 78/156/156
f 81/157/157 79/158/158 82/159/159
f 82/159/159 79/158/158 80/160/160
f 83/161/161 81/162/162 84/163/163
f 84/163/163 81/162/162 82/164/164
f 85/165/165 83/166/166 86/167/167
f 86/167/167 83/166/166 84/168/168
f 87/169/169 85/170/170 88/171/171
f 88/171/171 85/170/170 86/172/172
f 89/173/173 87/174/174 90/175/175
f 90/175/175 87/174/174 88/176/176
f 91/177/177 89/178/178 92/179/179
f 92/179/179 89/178/178 90/180/180
f 93/181/181 91/182/182 94/183/183
f 94/183/183 91/182/182 92/184/184
f 95/185/185 93/186/186 96/187/187
f 96/187/187 93/186/186 94/188/188
f 97/189/189 95/190/190 98/191/191
f 98/191/191 95/190/190 96/192/192
f 99/193/193 97/194/194 100/195/195
f 100/195/195 97/194/194 98/196/196
f 101/197/197 99/198/198 102/199/199
f 102/199/199 99/198/198 100/200/200
f 103/201/201 101/202/202 104/203/203
f 104/203/203 101/202/202 102/204/204
f 105/205/205 103/206/206 106/207/207
f 106/207/207 103/206/206 104/208/208
f 107/209/209 105/210/210 108/211/211
f 108/211/211 105/210/210 106/212/212
f 109/213/213 107/214/214 110/215/215
f 110/215/215 107/214/214 108/216/216
f 111/217/217 109/218/218 112/219/219
f 112/219/219 109/218/218 110/220/220
f 113/221/221 111/222/222 114/223/223
f 114/223/223 111/222/222 112/224/224
f 115/225/225 113/226/226 116/227/227
f 116/227/227 113/226/226 114/228/228
f 117/229/229 115/230/230 118/231/231
f 118/231/231 115/230/230 116/232/232
f 119/233/233 117/234/234 120/235/235
f 120/235/235 117/234/234 118/236/236
f 121/237/237 119/238/238 122/239/239
f 122/239/239 119/238/238 120/240/240
f 123/241/241 121/242/242 124/243/243
f 124/243/243 121/242/242 122/244/244
f 125/245/245 123/246/246 126/247/247
f 126/247/247 123/246/246 124/248/248
f 127/249/249 125/250/250 128/251/251
f 128/251/251 125/250/250 126/252/252
f 129/253/253 127/254/254 130/255/255
f 130/255/255 127/254/254 128/256/256
f 131/257/257 129/258/258 132/259/259
f 132/259/259 129/258/258 130/260/260
f 133/261/261 131/262/262 134/263/263
f 134/263/263 131/262/262 132/264/264
f 135/265/265 133/266/266 136/267/267
f 136/267/267 133/266/266 134/268/268
f 137/269/269 135/270/270 138/271/271
f 138/271/271 135/270/270 136/272/272
f 139/273/273 137/274/274 140/275/275
f 140/275/275 137/274/274 138/276/276
f 141/277/277 139/278/278 142/279/279
f 142/279/279 139/278/278 140/280/280
f 143/281/281 141/282/282 144/283/283
f 144/283/283 141/282/282 142/284/284
f 145/285/285 143/286/286 146/287/287
f 146/287/287 143/286/286 144/288/288
f 147/289/289 145/290/290 148/291/291
f 148/291/291 145/290/290 146/292/292
f 149/293/293 147/294/294 150/295/295
f 150/295/295 147/294/294 148/296/296
f 151/297/297 149/298/298 152/299/299
f 152/299/299 149/298/298 150/300/300
f 153/301/301 151/302/302 154/303/303
f 154/303/303 151/302/302 152/304/304
f 155/305/305 153/306/306 156/307/307
f 156/307/307 153/306/306 154/308/308
f 157/309/309 155/310/310 158/311/311
f 158/311/311 155/310/310 156/312/312
f 159/313/313 157/314/314 160/315/315
f 160/315/315 157/314/314 158/316/316
f 161/317/317 159/318/318 162/319/319
f 162/319/319 159/318/318 160/320/320
f 163/321/321 161/322/322 164/323/323
f 164/323/323 161/322/322 162/324/324
f 165/325/325 163/326/326 166/327/327
f 166/327/327 163/326/326 164/328/328
f 167/329/329 165/330/330 168/331/331
f 168/331/331 165/330/330 166/332/332
f 169/333/333 167/334/334 170/335/335
f 170/335/335 167/334/334 168/336/336
f 171/337/337 169/338/338 172/339/339
f 172/339/339 169/338/338 170/340/340
f 173/341/341 171/342/342 174/343/343
f 174/343/343 171/342/342 172/344/344
f 175/345/345 173/346/346 176/347/347
f 176/347/347 173/346/346 174/348/348
f 177/349/349 175/350/350 178/351/351
f 178/351/351 175/350/350 176/352/352
f 179/353/353 177/354/354 180/355/355
f 180/355/355 177/354/354 178/356/356
f 181/357/357 179/358/358 182/359/359
f 182/359/359 179/358/358 180/360/360
f 183/361/361 181/362/362 184/363/363
f 184/363/363 181/362/362 182/364/364
f 185/365/365 183/366/366 186/367/367
f 186/367/367 183/366/366 184/368/368
f 187/369/369 185/370/370 188/371/371
f 188/371/371 185/370/370 186/372/372
f 189/373/373 187/374/374 190/375/375
f 190/375/375 187/374/374 188/376/376
f 191/377/377 189/378/378 192/379/379
f 192/379/379 189/378/378 190/380/380
f 193/381/381 191/382/382 194/383/383
f 194/383/383 191/382/382 192/384/384
f 195/385/385 193/386/386 196/387/387
f 196/387/387 193/386/386 194/388/388
f 197/389/389 195/390/390 198/391/391
f 198/391/391 195/390/390 196/392/392
f 199/393/393 197/394/394 200/395/395
f 200/395/395 197/394/394 198/396/396
f 201/397/397 199/398/398 202/399/399
f 202/399/399 199/398/398 200/400/400
f 203/401/401 201/402/402 204/403/403
f 204/403/403 201/402/402 202/404/404
f 205/405/405 203/406/406 206/407/407
f 206/407/407 203/406/406 204/408/408
f 207/409/409 205/410/410 208/411/411
f 208/411/411 205/410/410 206/412/412
f 209/413/413 207/414/414 210/415/415
f 210/415/415 207/414/414 208/416/416
f 211/417/417 209/418/418 212/419/419
f 212/419/419 209/418/418 210/420/420
f 213/421/421 211/422/422 214/423/423
f 214/423/423 211/422/422 212/424/424
f 215/425/425 213/426/426 216/427/427
f 216/427/427 213/426/426 214/428/428
f 217/429/429 215/430/430 218/431/431
f 218/431/431 215/430/430 216/432/432
f 219/433/433 217/434/434 220/435/435
f 220/435/435 217/434/434 218/436/436
f 221/437/437 219/438/438 222/439/439
f 222/439/439 219/438/438 220/440/440
f 223/441/441 221/442/442 224/443/443
f 224/443/443 221/442/442 222/444/444
f 225/445/445 223/446/446 226/447/447
f 226/447/447 223/446/446 224/448/448
f 227/449/449 225/450/450 228/451/451
f 228/451/451 225/450/450 226/452/452
f 229/453/453 227/454/454 230/455/455
f 230/455/455 227/454/454 228/456/456
f 231/457/457 229/458/458 232/459/459
f 232/459/459 229/458/458 230/460/460
f 233/461/461 231/462/462 234/463/463
f 234/463/463 231/462/462 232/464/464
f 235/465/465 233/466/466 236/467/467
f 236/467/467 233/466/466 234/468/468
f 237/469/469 235/470/470 238/471/471
f 238/471/471 235/470/470 236/472/472
f 239/473/473 237/474/474 240/475/475
f 240/475/475 237/474/474 238/476/476
f 241/477/477 239/478/478 242/479/479
f 242/479/479 239/478/478 240/480/480
f 243/481/481 241/482/482 244/483/483
f 244/483/483 241/482/482 242/484/484
f 245/485/485 243/486/486 246/487/487
f 246/487/487 243/486/486 244/488/488
f 247/489/489 245/490/490 248/491/491
f 248/491/491 245/490/490 246/492/492
f 249/493/493 247/494/494 250/495/495
f 250/495/495 247/494/494 248/496/496
f 251/497/497 249/498/498 252/499/499
f 252/499/499 249/498/498 250/500/500
f 253/501/501 251/502/502 254/503/503
f 254/503/503 251/502/502 252/504/504
f 255/505/505 253/506/506 256/507/507
f 256/507/507 253/506/506 254/508/508
f 14/509/509 255/510/510 15/511/511
f 15/511/511 255/510/510 256/512/512
f 16/513/513 15/514/514 18/515/515
f 18/515/515 15/514/514 256/516/516
f 18/515/515 256/516/516 20/517/517
f 20/517/517 256/516/516 254/518/518
f 20/517/517 254/518/518 252/519/519
f 250/520/520 9/521/521 252/519/519
f 252/519/519 9/521/521 4/522/522
f 252/519/519 4/522/522 7/523/523
f 7/523/523 4/522/522 3/524/524
f 7/523/523 3/524/524 8/525/525
f 248/526/526 238/527/527 250/520/520
f 250/520/520 238/527/527 236/528/528
f 250/520/520 236/528/528 234/529/529
f 238/527/527 248/526/526 240/530/530
f 240/530/530 248/526/526 246/531/531
f 240/530/530 246/531/531 244/532/532
f 244/532/532 242/533/533 240/530/530
f 250/520/520 234/529/529 9/521/521
f 9/521/521 234/529/529 232/534/534
f 9/521/521 232/534/534 26/535/535
f 26/535/535 232/534/534 32/536/536
f 26/535/535 32/536/536 30/537/537
f 232/534/534 230/538/538 32/536/536
f 32/536/536 230/538/538 220/539/539
f 32/536/536 220/539/539 210/540/540
f 210/540/540 220/539/539 218/541/541
f 210/540/540 218/541/541 212/542/542
f 212/542/542 218/541/541 214/543/543
f 214/543/543 218/541/541 216/544/544
f 220/539/539 230/538/538 222/545/545
f 222/545/545 230/538/538 228/546/546
f 222/545/545 228/546/546 226/547/547
f 226/547/547 224/548/548 222/545/545
f 32/536/536 210/540/540 34/549/549
f 34/549/549 210/540/540 208/550/550
f 34/549/549 208/550/550 136/551/551
f 136/551/551 208/550/550 138/552/552
f 138/552/552 208/550/550 202/553/553
f 138/552/552 202/553/553 188/554/554
f 188/554/554 202/553/553 200/555/555
f 188/554/554 200/555/555 190/556/556
f 190/556/556 200/555/555 192/557/557
f 192/557/557 200/555/555 198/558/558
f 192/557/557 198/558/558 196/559/559
f 206/560/560 204/561/561 208/550/550
f 208/550/550 204/561/561 202/553/553
f 196/559/559 194/562/562 192/557/557
f 188/554/554 186/563/563 138/552/552
f 138/552/552 186/563/563 140/564/564
f 140/564/564 186/563/563 180/565/565
f 140/564/564 180/565/565 178/566/566
f 186/563/563 184/567/567 180/565/565
f 180/565/565 184/567/567 182/568/568
f 176/569/569 174/570/570 178/566/566
f 178/566/566 174/570/570 172/571/571
f 178/566/566 172/571/571 140/564/564
f 140/564/564 172/571/571 142/572/572
f 142/572/572 172/571/571 144/573/573
f 144/573/573 172/571/571 170/574/574
f 144/573/573 170/574/574 146/575/575
f 146/575/575 170/574/574 152/576/576
f 146/575/575 152/576/576 148/577/577
f 148/577/577 152/576/576 150/578/578
f 170/574/574 168/579/579 152/576/576
f 152/576/576 168/579/579 154/580/580
f 154/580/580 168/579/579 166/581/581
f 154/580/580 166/581/581 160/582/582
f 160/582/582 166/581/581 164/583/583
f 160/582/582 164/583/583 162/584/584
f 158/585/585 156/586/586 160/582/582
f 160/582/582 156/586/586 154/580/580
f 34/549/549 136/551/551 36/587/587
f 36/587/587 136/551/551 134/588/588
f 36/587/587 134/588/588 132/589/589
f 130/590/590 40/591/591 132/589/589
f 132/589/589 40/591/591 38/592/592
f 132/589/589 38/592/592 36/587/587
f 128/593/593 50/594/594 130/590/590
f 130/590/590 50/594/594 48/595/595
f 130/590/590 48/595/595 46/596/596
f 128/593/593 126/597/597 50/594/594
f 50/594/594 126/597/597 112/598/598
f 50/594/594 112/598/598 52/599/599
f 52/599/599 112/598/598 110/600/600
f 52/599/599 110/600/600 56/601/601
f 56/601/601 110/600/600 108/602/602
f 56/601/601 108/602/602 58/603/603
f 58/603/603 108/602/602 102/604/604
f 58/603/603 102/604/604 100/605/605
f 124/606/606 120/607/607 126/597/597
f 126/597/597 120/607/607 114/608/608
f 126/597/597 114/608/608 112/598/598
f 124/606/606 122/609/609 120/607/607
f 118/610/610 116/611/611 120/607/607
f 120/607/607 116/611/611 114/608/608
f 106/612/612 104/613/613 108/602/602
f 108/602/602 104/613/613 102/604/604
f 100/605/605 98/614/614 58/603/603
f 58/603/603 98/614/614 88/615/615
f 58/603/603 88/615/615 86/616/616
f 88/615/615 98/614/614 90/617/617
f 90/617/617 98/614/614 96/618/618
f 90/617/617 96/618/618 94/619/619
f 94/619/619 92/620/620 90/617/617
f 58/603/603 86/616/616 80/621/621
f 80/621/621 86/616/616 84/622/622
f 80/621/621 84/622/622 82/623/623
f 58/603/603 80/621/621 60/624/624
f 60/624/624 80/621/621 78/625/625
f 60/624/624 78/625/625 72/626/626
f 72/626/626 78/625/625 76/627/627
f 72/626/626 76/627/627 74/628/628
f 72/626/626 70/629/629 60/624/624
f 60/624/624 70/629/629 68/630/630
f 60/624/624 68/630/630 62/631/631
f 62/631/631 68/630/630 64/632/632
f 64/632/632 68/630/630 66/633/633
f 56/601/601 54/634/634 52/599/599
f 130/590/590 46/596/596 40/591/591
f 40/591/591 46/596/596 44/635/635
f 40/591/591 44/635/635 42/636/636
f 30/537/537 28/637/637 26/535/535
f 252/519/519 7/523/523 22/638/638
f 22/638/638 7/523/523 12/639/639
f 22/638/638 12/639/639 24/640/640
f 22/638/638 20/517/517 252/519/519
f 14/641/641 17/642/642 255/643/643
f 255/643/643 17/642/642 19/644/644
f 255/643/643 19/644/644 253/645/645
f 253/645/645 19/644/644 251/646/646
f 251/646/646 19/644/644 21/647/647
f 251/646/646 21/647/647 6/648/648
f 6/648/648 21/647/647 11/649/649
f 11/649/649 21/647/647 23/650/650
f 14/641/641 13/651/651 17/642/642
f 5/652/652 2/653/653 6/648/648
f 6/648/648 2/653/653 1/654/654
f 6/648/648 1/654/654 251/646/646
f 251/646/646 1/654/654 10/655/655
f 251/646/646 10/655/655 249/656/656
f 249/656/656 10/655/655 233/657/657
f 249/656/656 233/657/657 235/658/658
f 233/657/657 10/655/655 231/659/659
f 231/659/659 10/655/655 25/660/660
f 231/659/659 25/660/660 31/661/661
f 31/661/661 25/660/660 29/662/662
f 29/662/662 25/660/660 27/663/663
f 33/664/664 209/665/665 31/661/661
f 31/661/661 209/665/665 219/666/666
f 31/661/661 219/666/666 221/667/667
f 209/665/665 33/664/664 135/668/668
f 135/668/668 33/664/664 35/669/669
f 135/668/668 35/669/669 133/670/670
f 133/670/670 35/669/669 131/671/671
f 131/671/671 35/669/669 37/672/672
f 131/671/671 37/672/672 39/673/673
f 41/674/674 43/675/675 39/673/673
f 39/673/673 43/675/675 45/676/676
f 39/673/673 45/676/676 131/671/671
f 131/671/671 45/676/676 129/677/677
f 129/677/677 45/676/676 47/678/678
f 129/677/677 47/678/678 49/679/679
f 51/680/680 111/681/681 49/679/679
f 49/679/679 111/681/681 125/682/682
f 49/679/679 125/682/682 127/683/683
f 53/684/684 55/685/685 51/680/680
f 51/680/680 55/685/685 109/686/686
f 51/680/680 109/686/686 111/681/681
f 109/686/686 55/685/685 107/687/687
f 107/687/687 55/685/685 57/688/688
f 107/687/687 57/688/688 101/689/689
f 101/689/689 57/688/688 99/690/690
f 99/690/690 57/688/688 97/691/691
f 97/691/691 57/688/688 87/692/692
f 97/691/691 87/692/692 89/693/693
f 59/694/694 79/695/695 57/688/688
f 57/688/688 79/695/695 85/696/696
f 57/688/688 85/696/696 87/692/692
f 61/697/697 69/698/698 59/694/694
f 59/694/694 69/698/698 71/699/699
f 59/694/694 71/699/699 77/700/700
f 77/700/700 71/699/699 75/701/701
f 75/701/701 71/699/699 73/702/702
f 69/698/698 61/697/697 67/703/703
f 67/703/703 61/697/697 63/704/704
f 67/703/703 63/704/704 65/705/705
f 77/700/700 79/695/695 59/694/694
f 81/706/706 83/707/707 79/695/695
f 79/695/695 83/707/707 85/696/696
f 91/708/708 93/709/709 89/693/693
f 89/693/693 93/709/709 95/710/710
f 89/693/693 95/710/710 97/691/691
f 101/689/689 103/711/711 107/687/687
f 107/687/687 103/711/711 105/712/712
f 111/681/681 113/713/713 125/682/682
f 125/682/682 113/713/713 119/714/714
f 125/682/682 119/714/714 123/715/715
f 123/715/715 119/714/714 121/716/716
f 113/713/713 115/717/717 119/714/714
f 119/714/714 115/717/717 117/718/718
f 127/683/683 129/677/677 49/679/679
f 209/665/665 135/668/668 207/719/719
f 207/719/719 135/668/668 137/720/720
f 207/719/719 137/720/720 201/721/721
f 201/721/721 137/720/720 187/722/722
f 201/721/721 187/722/722 199/723/723
f 199/723/723 187/722/722 189/724/724
f 199/723/723 189/724/724 191/725/725
f 187/722/722 137/720/720 185/726/726
f 185/726/726 137/720/720 139/727/727
f 185/726/726 139/727/727 179/728/728
f 179/728/728 139/727/727 177/729/729
f 177/729/729 139/727/727 171/730/730
f 177/729/729 171/730/730 173/731/731
f 139/727/727 141/732/732 171/730/730
f 171/730/730 141/732/732 143/733/733
f 171/730/730 143/733/733 169/734/734
f 169/734/734 143/733/733 145/735/735
f 169/734/734 145/735/735 151/736/736
f 151/736/736 145/735/735 147/737/737
f 151/736/736 147/737/737 149/738/738
f 169/734/734 151/736/736 167/739/739
f 167/739/739 151/736/736 153/740/740
f 167/739/739 153/740/740 165/741/741
f 165/741/741 153/740/740 155/742/742
f 165/741/741 155/742/742 159/743/743
f 159/743/743 155/742/742 157/744/744
f 161/745/745 163/746/746 159/743/743
f 159/743/743 163/746/746 165/741/741
f 173/731/731 175/747/747 177/729/729
f 181/748/748 183/749/749 179/728/728
f 179/728/728 183/749/749 185/726/726
f 193/750/750 195/751/751 191/725/725
f 191/725/725 195/751/751 197/752/752
f 191/725/725 197/752/752 199/723/723
f 201/721/721 203/753/753 207/719/719
f 207/719/719 203/753/753 205/754/754
f 219/666/666 209/665/665 217/755/755
f 217/755/755 209/665/665 211/756/756
f 217/755/755 211/756/756 213/757/757
f 213/757/757 215/758/758 217/755/755
f 223/759/759 225/760/760 221/667/667
f 221/667/667 225/760/760 227/761/761
f 221/667/667 227/761/761 229/762/762
f 221/667/667 229/762/762 31/661/661
f 31/661/661 229/762/762 231/659/659
f 235/658/658 237/763/763 249/656/656
f 249/656/656 237/763/763 247/764/764
f 247/764/764 237/763/763 239/765/765
f 247/764/764 239/765/765 245/766/766
f 245/766/766 239/765/765 243/767/767
f 243/767/767 239/765/765 241/768/768
g Body12

v 0.469500 0.000000 0.826500
v 0.178500 0.000000 0.826500
v 0.178500 0.075000 0.826500
v 0.469500 0.075000 0.826500
v 0.469500 0.000000 0.901500
v 0.469500 0.075000 0.901500
v 0.253500 0.000000 0.901500
v 0.253500 0.075000 0.901500
v 0.253500 0.000000 1.005000
v 0.253500 0.075000 1.005000
v 1.005000 0.000000 1.005000
v 1.005000 0.075000 1.005000
v 1.005000 0.000000 -0.037500
v 1.005000 0.075000 -0.037500
v 1.080000 0.000000 -0.037500
v 1.080000 0.075000 -0.037500
v 1.080000 0.000000 1.080000
v 1.080000 0.075000 1.080000
v -1.080000 0.000000 1.080000
v -1.080000 0.075000 1.080000
v -1.080000 0.000000 0.178500
v -1.080000 0.075000 0.178500
v -0.901500 0.000000 0.178500
v -0.901500 0.075000 0.178500
v -0.901500 0.000000 -0.037500
v -0.901500 0.075000 -0.037500
v -0.610500 0.000000 -0.037500
v -0.610500 0.075000 -0.037500
v -0.610500 0.000000 0.178500
v -0.610500 0.075000 0.178500
v -0.178500 0.000000 0.178500
v -0.178500 0.075000 0.178500
v -0.178500 0.000000 0.469500
v -0.178500 0.075000 0.469500
v -0.394500 0.000000 0.469500
v -0.394500 0.075000 0.469500
v -0.394500 0.000000 0.685500
v -0.394500 0.075000 0.685500
v -0.685500 0.000000 0.685500
v -0.685500 0.075000 0.685500
v -0.685500 0.000000 0.610500
v -0.685500 0.075000 0.610500
v -0.469500 0.000000 0.610500
v -0.469500 0.075000 0.610500
v -0.469500 0.000000 0.394500
v -0.469500 0.075000 0.394500
v -0.253500 0.000000 0.394500
v -0.253500 0.075000 0.394500
v -0.253500 0.000000 0.253500
v -0.253500 0.075000 0.253500
v -0.685500 0.000000 0.253500
v -0.685500 0.075000 0.253500
v -0.685500 0.000000 0.037500
v -0.685500 0.075000 0.037500
v -0.826500 0.000000 0.037500
v -0.826500 0.075000 0.037500
v -0.826500 0.000000 0.253500
v -0.826500 0.075000 0.253500
v -1.005000 0.000000 0.253500
v -1.005000 0.075000 0.253500
v -1.005000 0.000000 0.394500
v -1.005000 0.075000 0.394500
v -0.610500 0.000000 0.394500
v -0.610500 0.075000 0.394500
v -0.610500 0.000000 0.469500
v -0.610500 0.075000 0.469500
v -1.005000 0.000000 0.469500
v -1.005000 0.075000 0.469500
v -1.005000 0.000000 1.005000
v -1.005000 0.075000 1.005000
v 0.178500 0.000000 1.005000
v 0.178500 0.075000 1.005000
vt 0.000000 0.000000 0.000000
vt 0.291000 0.000000 0.000000
vt 0.000000 0.075000 0.000000
vt 0.291000 0.075000 0.000000
vt -0.000000 0.000000 0.000000
vt 0.075000 0.000000 0.000000
vt -0.000000 0.075000 0.000000
vt 0.075000 0.075000 0.000000
vt 0.000000 0.000000 0.000000
vt 0.216000 0.000000 0.000000
vt 0.000000 0.075000 0.000000
vt 0.216000 0.075000 0.000000
vt -0.000000 0.000000 0.000000
vt 0.103500 0.000000 0.000000
vt -0.000000 0.075000 0.000000
vt 0.103500 0.075000 0.000000
vt -0.000000 0.000000 0.000000
vt 0.751500 0.000000 0.000000
vt -0.000000 0.075000 0.000000
vt 0.751500 0.075000 0.000000
vt 0.000000 0.000000 0.000000
vt 1.042500 0.000000 0.000000
vt 0.000000 0.075000 0.000000
vt 1.042500 0.075000 0.000000
vt 0.000000 0.000000 0.000000
vt 0.075000 0.000000 0.000000
vt 0.000000 0.075000 0.000000
vt 0.075000 0.075000 0.000000
vt 0.000000 0.000000 0.000000
vt 1.117500 0.000000 0.000000
vt 0.000000 0.075000 0.000000
vt 1.117500 0.075000 0.000000
vt 0.000000 0.000000 0.000000
vt 2.160000 0.000000 0.000000
vt 0.000000 0.075000 0.000000
vt 2.160000 0.075000 0.000000
vt 0.000000 0.000000 0.000000
vt 0.901500 0.000000 0.000000
vt 0.000000 0.075000 0.000000
vt 0.901500 0.075000 0.000000
vt 0.000000 0.000000 0.000000
vt 0.178500 0.000000 0.000000
vt 0.000000 0.075000 0.000000
vt 0.178500 0.075000 0.000000
vt 0.000000 0.000000 0.000000
vt 0.216000 0.000000 0.000000
vt 0.000000 0.075000 0.000000
vt 0.216000 0.075000 0.000000
vt 0.000000 0.000000 0.000000
vt 0.291000 0.000000 0.000000
vt 0.000000 0.075000 0.000000
vt 0.291000 0.075000 0.000000
vt -0.000000 0.000000 0.000000
vt 0.216000 0.000000 0.000000
vt -0.000000 0.075000 0.000000
vt 0.216000 0.075000 0.000000
vt 0.000000 0.000000 0.000000
vt 0.432000 0.000000 0.000000
vt -0.000000 0.075000 0.000000
vt 0.432000 0.075000 0.000000
vt 0.000000 0.000000 0.000000
vt 0.291000 0.000000 0.000000
vt 0.000000 0.075000 0.000000
vt 0.291000 0.075000 0.000000
vt 0.000000 0.000000 0.000000
vt 0.216000 0.000000 0.000000
vt 0.000000 0.075000 0.000000
vt 0.216000 0.075000 0.000000
vt -0.000000 0.000000 0.000000
vt 0.216000 0.000000 0.000000
vt -0.000000 0.075000 0.000000
vt 0.216000 0.075000 0.000000
vt 0.000000 0.000000 0.000000
vt 0.291000 0.000000 0.000000
vt 0.000000 0.075000 0.000000
vt 0.291000 0.075000 0.000000
vt 0.000000 0.000000 0.000000
vt 0.075000 0.000000 0.000000
vt 0.000000 0.075000 0.000000
vt 0.075000 0.075000 0.000000
vt 0.000000 0.000000 0.000000
vt 0.216000 0.000000 0.000000
vt 0.000000 0.075000 0.000000
vt 0.216000 0.075000 0.000000
vt -0.000000 0.000000 0.000000
vt 0.216000 0.000000 0.000000
vt -0.000000 0.075000 0.000000
vt 0.216000 0.075000 0.000000
vt 0.000000 0.000000 0.000000
vt 0.216000 0.000000 0.000000
vt 0.000000 0.075000 0.000000
vt 0.216000 0.075000 0.000000
vt 0.000000 0.000000 0.000000
vt 0.141000 0.000000 0.000000
vt 0.000000 0.075000 0.000000
vt 0.141000 0.075000 0.000000
vt 0.000000 0.000000 0.000000
vt 0.432000 0.000000 0.000000
vt 0.000000 0.075000 0.000000
vt 0.432000 0.075000 0.000000
vt -0.000000 0.000000 0.000000
vt 0.216000 0.000000 0.000000
vt -0.000000 0.075000 0.000000
vt 0.216000 0.075000 0.000000
vt 0.000000 0.000000 0.000000
vt 0.141000 0.000000 0.000000
vt -0.000000 0.075000 0.000000
vt 0.141000 0.075000 0.000000
vt -0.000000 0.000000 0.000000
vt 0.216000 0.000000 0.000000
vt -0.000000 0.075000 0.000000
vt 0.216000 0.075000 0.000000
vt 0.000000 0.000000 0.000000
vt 0.178500 0.000000 0.000000
vt 0.000000 0.075000 0.000000
vt 0.178500 0.075000 0.000000
vt 0.000000 0.000000 0.000000
vt 0.141000 0.000000 0.000000
vt 0.000000 0.075000 0.000000
vt 0.141000 0.075000 0.000000
vt 0.000000 0.000000 0.000000
vt 0.394500 0.000000 0.000000
vt 0.000000 0.075000 0.000000
vt 0.394500 0.075000 0.000000
vt -0.000000 0.000000 0.000000
vt 0.075000 0.000000 0.000000
vt -0.000000 0.075000 0.000000
vt 0.075000 0.075000 0.000000
vt 0.000000 0.000000 0.000000
vt 0.394500 0.000000 0.000000
vt 0.000000 0.075000 0.000000
vt 0.394500 0.075000 0.000000
vt 0.000000 0.000000 0.000000
vt 0.535500 0.000000 0.000000
vt 0.000000 0.075000 0.000000
vt 0.535500 0.075000 0.000000
vt 0.000000 0.000000 0.000000
vt 1.183500 0.000000 0.000000
vt 0.000000 0.075000 0.000000
vt 1.183500 0.075000 0.000000
vt -0.000000 0.000000 0.000000
vt 0.178500 0.000000 0.000000
vt -0.000000 0.075000 0.000000
vt 0.178500 0.075000 0.000000
vt 0.305250 0.469500 0.000000
vt 0.305250 0.178500 0.000000
vt 0.380250 0.253500 0.000000
vt 0.483750 0.178500 0.000000
vt 0.483750 0.253500 0.000000
vt 0.558750 1.080000 0.000000
vt 0.483750 1.005000 0.000000
vt -0.558750 1.080000 0.000000
vt -0.558750 1.005000 0.000000
vt 0.558750 -1.080000 0.000000
vt 0.483750 -1.005000 0.000000
vt -0.051750 -1.005000 0.000000
vt -0.051750 -0.610500 0.000000
vt -0.126750 -0.610500 0.000000
vt -0.126750 -1.005000 0.000000
vt -0.342750 -1.080000 0.000000
vt -0.267750 -1.005000 0.000000
vt -0.342750 -0.901500 0.000000
vt -0.267750 -0.826500 0.000000
vt -0.483750 -0.826500 0.000000
vt -0.558750 -0.901500 0.000000
vt -0.483750 -0.685500 0.000000
vt -0.558750 -0.610500 0.000000
vt -0.342750 -0.610500 0.000000
vt -0.267750 -0.685500 0.000000
vt -0.267750 -0.253500 0.000000
vt -0.342750 -0.178500 0.000000
vt -0.126750 -0.253500 0.000000
vt -0.051750 -0.178500 0.000000
vt -0.051750 -0.394500 0.000000
vt -0.126750 -0.469500 0.000000
vt 0.089250 -0.469500 0.000000
vt 0.089250 -0.685500 0.000000
vt 0.164250 -0.685500 0.000000
vt 0.164250 -0.394500 0.000000
vt 0.380250 0.469500 0.000000
vt -0.178500 -0.305250 0.000000
vt -0.253500 -0.380250 0.000000
vt -0.178500 -0.483750 0.000000
vt -0.253500 -0.483750 0.000000
vt -1.080000 -0.558750 0.000000
vt -1.005000 -0.483750 0.000000
vt -1.080000 0.558750 0.000000
vt -1.005000 0.558750 0.000000
vt -0.469500 -0.305250 0.000000
vt -0.469500 -0.380250 0.000000
vt 1.080000 -0.558750 0.000000
vt 1.005000 -0.483750 0.000000
vt 1.005000 0.051750 0.000000
vt 1.080000 0.342750 0.000000
vt 1.005000 0.126750 0.000000
vt 1.005000 0.267750 0.000000
vt 0.901500 0.342750 0.000000
vt 0.826500 0.267750 0.000000
vt 0.826500 0.483750 0.000000
vt 0.901500 0.558750 0.000000
vt 0.610500 0.558750 0.000000
vt 0.685500 0.483750 0.000000
vt 0.610500 0.342750 0.000000
vt 0.685500 0.267750 0.000000
vt 0.253500 0.267750 0.000000
vt 0.178500 0.342750 0.000000
vt 0.178500 0.051750 0.000000
vt 0.253500 0.126750 0.000000
vt 0.394500 0.051750 0.000000
vt 0.469500 0.126750 0.000000
vt 0.469500 -0.089250 0.000000
vt 0.394500 -0.164250 0.000000
vt 0.685500 -0.164250 0.000000
vt 0.685500 -0.089250 0.000000
vt 0.610500 0.126750 0.000000
vt 0.610500 0.051750 0.000000
vn -0.000000 0.000000 -1.000000
vn -0.000000 0.000000 -1.000000
vn -0.000000 0.000000 -1.000000
vn -0.000000 0.000000 -1.000000
vn 1.000000 0.000000 -0.000000
vn 1.000000 0.000000 -0.000000
vn 1.000000 0.000000 -0.000000
vn 1.000000 0.000000 -0.000000
vn 0.000000 -0.000000 1.000000
vn 0.000000 -0.000000 1.000000
vn 0.000000 -0.000000 1.000000
vn 0.000000 -0.000000 1.000000
vn 1.000000 0.000000 -0.000000
vn 1.000000 0.000000 -0.000000
vn 1.000000 0.000000 -0.000000
vn 1.000000 0.000000 -0.000000
vn -0.000000 0.000000 -1.000000
vn -0.000000 0.000000 -1.000000
vn -0.000000 0.000000 -1.000000
vn -0.000000 0.000000 -1.000000
vn -1.000000 0.000000 0.000000
vn -1.000000 0.000000 0.000000
vn -1.000000 0.000000 0.000000
vn -1.000000 0.000000 0.000000
vn -0.000000 0.000000 -1.000000
vn -0.000000 0.000000 -1.000000
vn -0.000000 0.000000 -1.000000
vn -0.000000 0.000000 -1.000000
vn 1.000000 -0.000000 0.000000
vn 1.000000 -0.000000 0.000000
vn 1.000000 -0.000000 0.000000
vn 1.000000 -0.000000 0.000000
vn 0.000000 -0.000000 1.000000
vn 0.000000 -0.000000 1.000000
vn 0.000000 -0.000000 1.000000
vn 0.000000 -0.000000 1.000000
vn -1.000000 0.000000 0.000000
vn -1.000000 0.000000 0.000000
vn -1.000000 0.000000 0.000000
vn -1.000000 0.000000 0.000000
vn -0.000000 0.000000 -1.000000
vn -0.000000 0.000000 -1.000000
vn -0.000000 0.000000 -1.000000
vn -0.000000 0.000000 -1.000000
vn -1.000000 0.000000 0.000000
vn -1.000000 0.000000 0.000000
vn -1.000000 0.000000 0.000000
vn -1.000000 0.000000 0.000000
vn -0.000000 0.000000 -1.000000
vn -0.000000 0.000000 -1.000000
vn -0.000000 0.000000 -1.000000
vn -0.000000 0.000000 -1.000000
vn 1.000000 0.000000 -0.000000
vn 1.000000 0.000000 -0.000000
vn 1.000000 0.000000 -0.000000
vn 1.000000 0.000000 -0.000000
vn -0.000000 0.000000 -1.000000
vn -0.000000 0.000000 -1.000000
vn -0.000000 0.000000 -1.000000
vn -0.000000 0.000000 -1.000000
vn 1.000000 0.000000 -0.000000
vn 1.000000 0.000000 -0.000000
vn 1.000000 0.000000 -0.000000
vn 1.000000 0.000000 -0.000000
vn 0.000000 -0.000000 1.000000
vn 0.000000 -0.000000 1.000000
vn 0.000000 -0.000000 1.000000
vn 0.000000 -0.000000 1.000000
vn 1.000000 0.000000 -0.000000
vn 1.000000 0.000000 -0.000000
vn 1.000000 0.000000 -0.000000
vn 1.000000 0.000000 -0.000000
vn 0.000000 -0.000000 1.000000
vn 0.000000 -0.000000 1.000000
vn 0.000000 -0.000000 1.000000
vn 0.000000 -0.000000 1.000000
vn -1.000000 0.000000 0.000000
vn -1.000000 0.000000 0.000000
vn -1.000000 0.000000 0.000000
vn -1.000000 0.000000 0.000000
vn -0.000000 0.000000 -1.000000
vn -0.000000 0.000000 -1.000000
vn -0.000000 0.000000 -1.000000
vn -0.000000 0.000000 -1.000000
vn -1.000000 0.000000 0.000000
vn -1.000000 0.000000 0.000000
vn -1.000000 0.000000 0.000000
vn -1.000000 0.000000 0.000000
vn -0.000000 0.000000 -1.000000
vn -0.000000 0.000000 -1.000000
vn -0.000000 0.000000 -1.000000
vn -0.000000 0.000000 -1.000000
vn -1.000000 0.000000 0.000000
vn -1.000000 0.000000 0.000000
vn -1.000000 0.000000 0.000000
vn -1.000000 0.000000 0.000000
vn 0.000000 -0.000000 1.000000
vn 0.000000 -0.000000 1.000000
vn 0.000000 -0.000000 1.000000
vn 0.000000 -0.000000 1.000000
vn -1.000000 0.000000 0.000000
vn -1.000000 0.000000 0.000000
vn -1.000000 0.000000 0.000000
vn -1.000000 0.000000 0.000000
vn 0.000000 -0.000000 1.000000
vn 0.000000 -0.000000 1.000000
vn 0.000000 -0.000000 1.000000
vn 0.000000 -0.000000 1.000000
vn 1.000000 0.000000 -0.000000
vn 1.000000 0.000000 -0.000000
vn 1.000000 0.000000 -0.000000
vn 1.000000 0.000000 -0.000000
vn 0.000000 -0.000000 1.000000
vn 0.000000 -0.000000 1.000000
vn 0.000000 -0.000000 1.000000
vn 0.000000 -0.000000 1.000000
vn 1.000000 0.000000 -0.000000
vn 1.000000 0.000000 -0.000000
vn 1.000000 0.000000 -0.000000
vn 1.000000 0.000000 -0.000000
vn -0.000000 0.000000 -1.000000
vn -0.000000 0.000000 -1.000000
vn -0.000000 0.000000 -1.000000
vn -0.000000 0.000000 -1.000000
vn 1.000000 0.000000 -0.000000
vn 1.000000 0.000000 -0.000000
vn 1.000000 0.000000 -0.000000
vn 1.000000 0.000000 -0.000000
vn 0.000000 -0.000000 1.000000
vn 0.000000 -0.000000 1.000000
vn 0.000000 -0.000000 1.000000
vn 0.000000 -0.000000 1.000000
vn 1.000000 0.000000 -0.000000
vn 1.000000 0.000000 -0.000000
vn 1.000000 0.000000 -0.000000
vn 1.000000 0.000000 -0.000000
vn -0.000000 0.000000 -1.000000
vn -0.000000 0.000000 -1.000000
vn -0.000000 0.000000 -1.000000
vn -0.000000 0.000000 -1.000000
vn -1.000000 0.000000 0.000000
vn -1.000000 0.000000 0.000000
vn -1.000000 0.000000 0.000000
vn -1.000000 0.000000 0.000000
vn 0.000000 1.000000 0.000000
vn 0.000000 1.000000 0.000000
vn 0.000000 1.000000 0.000000
vn 0.000000 1.000000 0.000000
vn 0.000000 1.000000 0.000000
vn 0.000000 1.000000 0.000000
vn 0.000000 1.000000 0.000000
vn 0.000000 1.000000 0.000000
vn 0.000000 1.000000 0.000000
vn 0.000000 1.000000 0.000000
vn 0.000000 1.000000 0.000000
vn 0.000000 1.000000 0.000000
vn 0.000000 1.000000 0.000000
vn 0.000000 1.000000 0.000000
vn 0.000000 1.000000 0.000000
vn 0.000000 1.000000 0.000000
vn 0.000000 1.000000 0.000000
vn 0.000000 1.000000 0.000000
vn 0.000000 1.000000 0.000000
vn 0.000000 1.000000 0.000000
vn 0.000000 1.000000 0.000000
vn 0.000000 1.000000 0.000000
vn 0.000000 1.000000 0.000000
vn 0.000000 1.000000 0.000000
vn 0.000000 1.000000 0.000000
vn 0.000000 1.000000 0.000000
vn 0.000000 1.000000 0.000000
vn 0.000000 1.000000 0.000000
vn 0.000000 1.000000 0.000000
vn 0.000000 1.000000 0.000000
vn 0.000000 1.000000 0.000000
vn 0.000000 1.000000 0.000000
vn 0.000000 1.000000 0.000000
vn 0.000000 1.000000 0.000000
vn 0.000000 1.000000 0.000000
vn 0.000000 1.000000 0.000000
vn -0.000000 -1.000000 -0.000000
vn -0.000000 -1.000000 -0.000000
vn -0.000000 -1.000000 -0.000000
vn -0.000000 -1.000000 -0.000000
vn -0.000000 -1.000000 -0.000000
vn -0.000000 -1.000000 -0.000000
vn -0.000000 -1.000000 -0.000000
vn -0.000000 -1.000000 -0.000000
vn -0.000000 -1.000000 -0.000000
vn -0.000000 -1.000000 -0.000000
vn -0.000000 -1.000000 -0.000000
vn -0.000000 -1.000000 -0.000000
vn -0.000000 -1.000000 -0.000000
vn -0.000000 -1.000000 -0.000000
vn -0.000000 -1.000000 -0.000000
vn -0.000000 -1.000000 -0.000000
vn -0.000000 -1.000000 -0.000000
vn -0.000000 -1.000000 -0.000000
vn -0.000000 -1.000000 -0.000000
vn -0.000000 -1.000000 -0.000000
vn -0.000000 -1.000000 -0.000000
vn -0.000000 -1.000000 -0.000000
vn -0.000000 -1.000000 -0.000000
vn -0.000000 -1.000000 -0.000000
vn -0.000000 -1.000000 -0.000000
vn -0.000000 -1.000000 -0.000000
vn -0.000000 -1.000000 -0.000000
vn -0.000000 -1.000000 -0.000000
vn -0.000000 -1.000000 -0.000000
vn -0.000000 -1.000000 -0.000000
vn -0.000000 -1.000000 -0.000000
vn -0.000000 -1.000000 -0.000000
vn -0.000000 -1.000000 -0.000000
vn -0.000000 -1.000000 -0.000000
vn -0.000000 -1.000000 -0.000000
vn -0.000000 -1.000000 -0.000000
f 257/769/769 258/770/770 260/771/771
f 260/771/771 258/770/770 259/772/772
f 261/773/773 257/774/774 262/775/775
f 262/775/775 257/774/774 260/776/776
f 263/777/777 261/778/778 264/779/779
f 264/779/779 261/778/778 262/780/780
f 265/781/781 263/782/782 266/783/783
f 266/783/783 263/782/782 264/784/784
f 267/785/785 265/786/786 268/787/787
f 268/787/787 265/786/786 266/788/788
f 269/789/789 267/790/790 270/791/791
f 270/791/791 267/790/790 268/792/792
f 271/793/793 269/794/794 272/795/795
f 272/795/795 269/794/794 270/796/796
f 273/797/797 271/798/798 274/799/799
f 274/799/799 271/798/798 272/800/800
f 275/801/801 273/802/802 276/803/803
f 276/803/803 273/802/802 274/804/804
f 277/805/805 275/806/806 278/807/807
f 278/807/807 275/806/806 276/808/808
f 279/809/809 277/810/810 280/811/811
f 280/811/811 277/810/810 278/812/812
f 281/813/813 279/814/814 282/815/815
f 282/815/815 279/814/814 280/816/816
f 283/817/817 281/818/818 284/819/819
f 284/819/819 281/818/818 282/820/820
f 285/821/821 283/822/822 286/823/823
f 286/823/823 283/822/822 284/824/824
f 287/825/825 285/826/826 288/827/827
f 288/827/827 285/826/826 286/828/828
f 289/829/829 287/830/830 290/831/831
f 290/831/831 287/830/830 288/832/832
f 291/833/833 289/834/834 292/835/835
f 292/835/835 289/834/834 290/836/836
f 293/837/837 291/838/838 294/839/839
f 294/839/839 291/838/838 292/840/840
f 295/841/841 293/842/842 296/843/843
f 296/843/843 293/842/842 294/844/844
f 297/845/845 295/846/846 298/847/847
f 298/847/847 295/846/846 296/848/848
f 299/849/849 297/850/850 300/851/851
f 300/851/851 297/850/850 298/852/852
f 301/853/853 299/854/854 302/855/855
f 302/855/855 299/854/854 300/856/856
f 303/857/857 301/858/858 304/859/859
f 304/859/859 301/858/858 302/860/860
f 305/861/861 303/862/862 306/863/863
f 306/863/863 303/862/862 304/864/864
f 307/865/865 305/866/866 308/867/867
f 308/867/867 305/866/866 306/868/868
f 309/869/869 307/870/870 310/871/871
f 310/871/871 307/870/870 308/872/872
f 311/873/873 309/874/874 312/875/875
f 312/875/875 309/874/874 310/876/876
f 313/877/877 311/878/878 314/879/879
f 314/879/879 311/878/878 312/880/880
f 315/881/881 313/882/882 316/883/883
f 316/883/883 313/882/882 314/884/884
f 317/885/885 315/886/886 318/887/887
f 318/887/887 315/886/886 316/888/888
f 319/889/889 317/890/890 320/891/891
f 320/891/891 317/890/890 318/892/892
f 321/893/893 319/894/894 322/895/895
f 322/895/895 319/894/894 320/896/896
f 323/897/897 321/898/898 324/899/899
f 324/899/899 321/898/898 322/900/900
f 325/901/901 323/902/902 326/903/903
f 326/903/903 323/902/902 324/904/904
f 327/905/905 325/906/906 328/907/907
f 328/907/907 325/906/906 326/908/908
f 258/909/909 327/910/910 259/911/911
f 259/911/911 327/910/910 328/912/912
f 260/913/913 259/914/914 264/915/915
f 264/915/915 259/914/914 328/916/916
f 264/915/915 328/916/916 266/917/917
f 266/917/917 328/916/916 274/918/918
f 266/917/917 274/918/918 268/919/919
f 268/919/919 274/918/918 272/920/920
f 268/919/919 272/920/920 270/921/921
f 274/918/918 328/916/916 276/922/922
f 276/922/922 328/916/916 326/923/923
f 276/922/922 326/923/923 324/924/924
f 322/925/925 320/926/926 324/924/924
f 324/924/924 320/926/926 318/927/927
f 324/924/924 318/927/927 278/928/928
f 278/928/928 318/927/927 316/929/929
f 278/928/928 316/929/929 280/930/930
f 280/930/930 316/929/929 314/931/931
f 280/930/930 314/931/931 312/932/932
f 280/930/930 312/932/932 282/933/933
f 282/933/933 312/932/932 310/934/934
f 282/933/933 310/934/934 284/935/935
f 284/935/935 310/934/934 286/936/936
f 286/936/936 310/934/934 308/937/937
f 286/936/936 308/937/937 306/938/938
f 286/936/936 306/938/938 288/939/939
f 288/939/939 306/938/938 304/940/940
f 288/939/939 304/940/940 290/941/941
f 290/941/941 304/940/940 292/942/942
f 292/942/942 304/940/940 302/943/943
f 292/942/942 302/943/943 300/944/944
f 298/945/945 296/946/946 300/944/944
f 300/944/944 296/946/946 294/947/947
f 300/944/944 294/947/947 292/942/942
f 278/928/928 276/922/922 324/924/924
f 264/915/915 262/948/948 260/913/913
f 258/949/949 263/950/950 327/951/951
f 327/951/951 263/950/950 265/952/952
f 327/951/951 265/952/952 273/953/953
f 273/953/953 265/952/952 267/954/954
f 273/953/953 267/954/954 271/955/955
f 271/955/955 267/954/954 269/956/956
f 258/949/949 257/957/957 263/950/950
f 263/950/950 257/957/957 261/958/958
f 273/953/953 275/959/959 327/951/951
f 327/951/951 275/959/959 325/960/960
f 325/960/960 275/959/959 323/961/961
f 323/961/961 275/959/959 277/962/962
f 323/961/961 277/962/962 317/963/963
f 317/963/963 277/962/962 315/964/964
f 315/964/964 277/962/962 279/965/965
f 315/964/964 279/965/965 313/966/966
f 313/966/966 279/965/965 311/967/967
f 311/967/967 279/965/965 281/968/968
f 311/967/967 281/968/968 283/969/969
f 311/967/967 283/969/969 309/970/970
f 309/970/970 283/969/969 285/971/971
f 309/970/970 285/971/971 307/972/972
f 307/972/972 285/971/971 305/973/973
f 305/973/973 285/971/971 287/974/974
f 305/973/973 287/974/974 289/975/975
f 305/973/973 289/975/975 303/976/976
f 303/976/976 289/975/975 291/977/977
f 303/976/976 291/977/977 301/978/978
f 301/978/978 291/977/977 299/979/979
f 299/979/979 291/977/977 293/980/980
f 299/979/979 293/980/980 295/981/981
f 295/981/981 297/982/982 299/979/979
f 317/963/963 319/983/983 323/961/961
f 323/961/961 319/983/983 321/984/984
# 328 vertices
# 984 texture params
# 984 normals
# 648 facets

# 2 groups
