# WaveFront *.obj file (generated by Autodesk ATF)

mtllib Maze (Thick Walls) v2.mtl

g Body1

v 0.160000 -1.040000 0.080000
v 0.160000 -1.040000 -0.000000
v 1.040000 -1.040000 -0.000000
v 1.040000 -1.040000 0.080000
v 0.160000 -0.840000 -0.000000
v -0.040000 -0.840000 -0.000000
v -0.040000 -0.560000 -0.000000
v 0.160000 -0.560000 -0.000000
v 0.160000 -0.160000 -0.000000
v 0.440000 -0.160000 -0.000000
v 0.440000 -0.360000 -0.000000
v 0.640000 -0.360000 -0.000000
v 0.640000 -0.640000 -0.000000
v 0.560000 -0.640000 -0.000000
v 0.560000 -0.440000 -0.000000
v 0.360000 -0.440000 -0.000000
v 0.360000 -0.240000 -0.000000
v 0.240000 -0.240000 -0.000000
v 0.240000 -0.640000 -0.000000
v 0.040000 -0.640000 -0.000000
v 0.040000 -0.760000 -0.000000
v 0.240000 -0.760000 -0.000000
v 0.240000 -0.960000 -0.000000
v 0.360000 -0.960000 -0.000000
v 0.360000 -0.560000 -0.000000
v 0.440000 -0.560000 -0.000000
v 0.440000 -0.960000 -0.000000
v 0.960000 -0.960000 -0.000000
v 0.960000 0.160000 0.000000
v 0.760000 0.160000 0.000000
v 0.760000 0.440000 0.000000
v 0.840000 0.440000 0.000000
v 0.840000 0.240000 0.000000
v 0.960000 0.240000 0.000000
v 0.960000 0.960000 0.000000
v -0.040000 0.960000 0.000000
v -0.040000 1.040000 0.000000
v 1.040000 1.040000 0.000000
v 0.240000 -0.960000 0.080000
v 0.360000 -0.960000 0.080000
v 0.160000 -0.840000 0.080000
v 1.040000 1.040000 0.080000
v -0.040000 1.040000 0.080000
v -0.040000 0.960000 0.080000
v 0.960000 0.960000 0.080000
v 0.960000 0.240000 0.080000
v 0.840000 0.240000 0.080000
v 0.840000 0.440000 0.080000
v 0.760000 0.440000 0.080000
v 0.760000 0.160000 0.080000
v 0.960000 0.160000 0.080000
v 0.960000 -0.960000 0.080000
v 0.440000 -0.960000 0.080000
v 0.440000 -0.560000 0.080000
v 0.360000 -0.560000 0.080000
v 0.240000 -0.760000 0.080000
v 0.040000 -0.760000 0.080000
v 0.040000 -0.640000 0.080000
v 0.240000 -0.640000 0.080000
v 0.240000 -0.240000 0.080000
v 0.360000 -0.240000 0.080000
v 0.360000 -0.440000 0.080000
v 0.560000 -0.440000 0.080000
v 0.560000 -0.640000 0.080000
v 0.640000 -0.640000 0.080000
v 0.640000 -0.360000 0.080000
v 0.440000 -0.360000 0.080000
v 0.440000 -0.160000 0.080000
v 0.160000 -0.160000 0.080000
v 0.160000 -0.560000 0.080000
v -0.040000 -0.560000 0.080000
v -0.040000 -0.840000 0.080000
vt 0.880000 0.080000 0.000000
vt -0.000000 0.080000 0.000000
vt 0.880000 0.000000 0.000000
vt 0.000000 0.000000 0.000000
vt 0.840000 0.320000 0.000000
vt 0.960000 0.240000 0.000000
vt 1.040000 0.320000 0.000000
vt 0.960000 0.120000 0.000000
vt 0.960000 0.040000 0.000000
vt 0.560000 0.120000 0.000000
vt 0.560000 0.040000 0.000000
vt 0.840000 0.520000 0.000000
vt 0.760000 0.440000 0.000000
vt 0.760000 0.240000 0.000000
vt 0.560000 0.520000 0.000000
vt 0.640000 0.440000 0.000000
vt 0.560000 0.320000 0.000000
vt 0.640000 0.240000 0.000000
vt 0.240000 0.240000 0.000000
vt 0.160000 0.320000 0.000000
vt 0.160000 0.040000 0.000000
vt 0.240000 0.120000 0.000000
vt 0.360000 0.040000 0.000000
vt 0.440000 0.120000 0.000000
vt 0.440000 -0.080000 0.000000
vt 0.360000 -0.160000 0.000000
vt 0.640000 -0.160000 0.000000
vt 0.640000 -0.080000 0.000000
vt 1.040000 -0.560000 0.000000
vt 0.960000 -0.480000 0.000000
vt -0.160000 -0.480000 0.000000
vt -0.160000 -0.280000 0.000000
vt -0.240000 -0.360000 0.000000
vt -0.240000 -0.480000 0.000000
vt -1.040000 -0.560000 0.000000
vt -0.960000 -0.480000 0.000000
vt -1.040000 0.520000 0.000000
vt -0.960000 0.520000 0.000000
vt -0.440000 -0.280000 0.000000
vt -0.440000 -0.360000 0.000000
vt -0.120000 -0.000000 0.000000
vt 0.000000 0.000000 0.000000
vt -0.120000 0.080000 0.000000
vt -0.000000 0.080000 0.000000
vt -0.320000 -1.040000 0.000000
vt -0.240000 -0.960000 0.000000
vt -0.320000 -0.840000 0.000000
vt -0.240000 -0.760000 0.000000
vt -0.440000 -0.760000 0.000000
vt 0.560000 -1.040000 0.000000
vt -0.040000 -0.960000 0.000000
vt -0.120000 -0.960000 0.000000
vt 0.560000 1.040000 0.000000
vt 0.480000 0.160000 0.000000
vt 0.480000 -0.960000 0.000000
vt -0.520000 1.040000 0.000000
vt 0.480000 0.960000 0.000000
vt 0.480000 0.240000 0.000000
vt 0.360000 0.240000 0.000000
vt 0.280000 0.160000 0.000000
vt 0.280000 0.440000 0.000000
vt 0.360000 0.440000 0.000000
vt -0.520000 0.960000 0.000000
vt -0.040000 -0.560000 0.000000
vt -0.120000 -0.560000 0.000000
vt -0.520000 -0.840000 0.000000
vt -0.440000 -0.640000 0.000000
vt -0.520000 -0.560000 0.000000
vt -0.320000 -0.560000 0.000000
vt -0.240000 -0.640000 0.000000
vt -0.240000 -0.240000 0.000000
vt -0.320000 -0.160000 0.000000
vt -0.120000 -0.240000 0.000000
vt -0.040000 -0.160000 0.000000
vt -0.040000 -0.360000 0.000000
vt -0.120000 -0.440000 0.000000
vt 0.080000 -0.440000 0.000000
vt 0.080000 -0.640000 0.000000
vt 0.160000 -0.640000 0.000000
vt 0.160000 -0.360000 0.000000
vt -0.720000 -0.000000 0.000000
vt -0.000000 0.000000 0.000000
vt -0.720000 0.080000 0.000000
vt -0.000000 0.080000 0.000000
vt -1.000000 0.000000 0.000000
vt -0.000000 0.000000 0.000000
vt -1.000000 0.080000 0.000000
vt 0.000000 0.080000 0.000000
vt -0.520000 0.000000 0.000000
vt 0.000000 0.000000 0.000000
vt -0.520000 0.080000 0.000000
vt -0.000000 0.080000 0.000000
vt -1.120000 0.000000 0.000000
vt 0.000000 0.000000 0.000000
vt -1.120000 0.080000 0.000000
vt 0.000000 0.080000 0.000000
vt 0.000000 0.000000 0.000000
vt 2.080000 0.000000 0.000000
vt 0.000000 0.080000 0.000000
vt 2.080000 0.080000 0.000000
vt -0.000000 -0.000000 0.000000
vt 1.080000 0.000000 0.000000
vt -0.000000 0.080000 0.000000
vt 1.080000 0.080000 0.000000
vt 0.040000 0.080000 0.000000
vt -0.040000 0.080000 0.000000
vt 0.040000 -0.000000 0.000000
vt -0.040000 0.000000 0.000000
vt 0.000000 0.000000 0.000000
vt 0.200000 -0.000000 0.000000
vt -0.000000 0.080000 0.000000
vt 0.200000 0.080000 0.000000
vt 0.000000 0.000000 0.000000
vt 0.200000 0.000000 0.000000
vt 0.000000 0.080000 0.000000
vt 0.200000 0.080000 0.000000
vt 0.000000 0.000000 0.000000
vt 0.280000 0.000000 0.000000
vt -0.000000 0.080000 0.000000
vt 0.280000 0.080000 0.000000
vt -0.000000 0.000000 0.000000
vt 0.200000 0.000000 0.000000
vt -0.000000 0.080000 0.000000
vt 0.200000 0.080000 0.000000
vt 0.000000 0.000000 0.000000
vt 0.400000 -0.000000 0.000000
vt 0.000000 0.080000 0.000000
vt 0.400000 0.080000 0.000000
vt -0.000000 0.000000 0.000000
vt 0.280000 -0.000000 0.000000
vt -0.000000 0.080000 0.000000
vt 0.280000 0.080000 0.000000
vt 0.000000 0.000000 0.000000
vt 0.200000 0.000000 0.000000
vt 0.000000 0.080000 0.000000
vt 0.200000 0.080000 0.000000
vt -0.000000 0.000000 0.000000
vt 0.200000 -0.000000 0.000000
vt -0.000000 0.080000 0.000000
vt 0.200000 0.080000 0.000000
vt 0.000000 0.000000 0.000000
vt 0.280000 0.000000 0.000000
vt 0.000000 0.080000 0.000000
vt 0.280000 0.080000 0.000000
vt 0.000000 0.000000 0.000000
vt 0.080000 0.000000 0.000000
vt 0.000000 0.080000 0.000000
vt 0.080000 0.080000 0.000000
vt 0.000000 0.000000 0.000000
vt 0.200000 -0.000000 0.000000
vt -0.000000 0.080000 0.000000
vt 0.200000 0.080000 0.000000
vt -0.000000 0.000000 0.000000
vt 0.200000 0.000000 0.000000
vt -0.000000 0.080000 0.000000
vt 0.200000 0.080000 0.000000
vt 0.000000 0.000000 0.000000
vt 0.200000 0.000000 0.000000
vt 0.000000 0.080000 0.000000
vt 0.200000 0.080000 0.000000
vt -0.000000 0.000000 0.000000
vt 0.120000 0.000000 0.000000
vt -0.000000 0.080000 0.000000
vt 0.120000 0.080000 0.000000
vt 0.000000 0.000000 0.000000
vt 0.400000 0.000000 0.000000
vt 0.000000 0.080000 0.000000
vt 0.400000 0.080000 0.000000
vt 0.000000 0.000000 0.000000
vt 0.200000 0.000000 0.000000
vt 0.000000 0.080000 0.000000
vt 0.200000 0.080000 0.000000
vt 0.000000 0.000000 0.000000
vt 0.120000 -0.000000 0.000000
vt 0.000000 0.080000 0.000000
vt 0.120000 0.080000 0.000000
vt -0.000000 0.000000 0.000000
vt 0.200000 0.000000 0.000000
vt -0.000000 0.080000 0.000000
vt 0.200000 0.080000 0.000000
vt -0.040000 -0.000000 0.000000
vt 0.160000 0.000000 0.000000
vt -0.040000 0.080000 0.000000
vt 0.160000 0.080000 0.000000
vt 0.000000 0.000000 0.000000
vt 0.400000 0.000000 0.000000
vt -0.000000 0.080000 0.000000
vt 0.400000 0.080000 0.000000
vt -0.000000 0.000000 0.000000
vt 0.080000 0.000000 0.000000
vt -0.000000 0.080000 0.000000
vt 0.080000 0.080000 0.000000
vt -0.040000 -0.000000 0.000000
vt 0.360000 -0.000000 0.000000
vt -0.040000 0.080000 0.000000
vt 0.360000 0.080000 0.000000
vt -0.000000 0.000000 0.000000
vt 0.200000 0.000000 0.000000
vt -0.000000 0.080000 0.000000
vt 0.200000 0.080000 0.000000
vt 0.000000 0.000000 0.000000
vt 0.280000 0.000000 0.000000
vt -0.000000 0.080000 0.000000
vt 0.280000 0.080000 0.000000
vt -0.000000 0.000000 0.000000
vt 0.080000 -0.000000 0.000000
vt -0.000000 0.080000 0.000000
vt 0.080000 0.080000 0.000000
vt 0.000000 0.000000 0.000000
vt 0.200000 0.000000 0.000000
vt -0.000000 0.080000 0.000000
vt 0.200000 0.080000 0.000000
vt -0.040000 -0.000000 0.000000
vt 0.080000 0.000000 0.000000
vt -0.040000 0.080000 0.000000
vt 0.080000 0.080000 0.000000
vn -0.000000 -1.000000 -0.000000
vn -0.000000 -1.000000 -0.000000
vn -0.000000 -1.000000 -0.000000
vn -0.000000 -1.000000 -0.000000
vn -0.000000 0.000000 -1.000000
vn -0.000000 0.000000 -1.000000
vn -0.000000 0.000000 -1.000000
vn -0.000000 0.000000 -1.000000
vn -0.000000 0.000000 -1.000000
vn -0.000000 0.000000 -1.000000
vn -0.000000 0.000000 -1.000000
vn -0.000000 0.000000 -1.000000
vn -0.000000 0.000000 -1.000000
vn -0.000000 0.000000 -1.000000
vn -0.000000 0.000000 -1.000000
vn -0.000000 0.000000 -1.000000
vn -0.000000 0.000000 -1.000000
vn -0.000000 0.000000 -1.000000
vn -0.000000 0.000000 -1.000000
vn -0.000000 0.000000 -1.000000
vn -0.000000 0.000000 -1.000000
vn -0.000000 0.000000 -1.000000
vn -0.000000 0.000000 -1.000000
vn -0.000000 0.000000 -1.000000
vn -0.000000 0.000000 -1.000000
vn -0.000000 0.000000 -1.000000
vn -0.000000 0.000000 -1.000000
vn -0.000000 0.000000 -1.000000
vn -0.000000 0.000000 -1.000000
vn -0.000000 0.000000 -1.000000
vn -0.000000 0.000000 -1.000000
vn -0.000000 0.000000 -1.000000
vn -0.000000 0.000000 -1.000000
vn -0.000000 0.000000 -1.000000
vn -0.000000 0.000000 -1.000000
vn -0.000000 0.000000 -1.000000
vn -0.000000 0.000000 -1.000000
vn -0.000000 0.000000 -1.000000
vn -0.000000 0.000000 -1.000000
vn -0.000000 0.000000 -1.000000
vn -0.000000 1.000000 0.000000
vn -0.000000 1.000000 0.000000
vn -0.000000 1.000000 0.000000
vn -0.000000 1.000000 0.000000
vn 0.000000 -0.000000 1.000000
vn 0.000000 -0.000000 1.000000
vn 0.000000 -0.000000 1.000000
vn 0.000000 -0.000000 1.000000
vn 0.000000 -0.000000 1.000000
vn 0.000000 -0.000000 1.000000
vn 0.000000 -0.000000 1.000000
vn 0.000000 -0.000000 1.000000
vn 0.000000 -0.000000 1.000000
vn 0.000000 -0.000000 1.000000
vn 0.000000 -0.000000 1.000000
vn 0.000000 -0.000000 1.000000
vn 0.000000 -0.000000 1.000000
vn 0.000000 -0.000000 1.000000
vn 0.000000 -0.000000 1.000000
vn 0.000000 -0.000000 1.000000
vn 0.000000 -0.000000 1.000000
vn 0.000000 -0.000000 1.000000
vn 0.000000 -0.000000 1.000000
vn 0.000000 -0.000000 1.000000
vn 0.000000 -0.000000 1.000000
vn 0.000000 -0.000000 1.000000
vn 0.000000 -0.000000 1.000000
vn 0.000000 -0.000000 1.000000
vn 0.000000 -0.000000 1.000000
vn 0.000000 -0.000000 1.000000
vn 0.000000 -0.000000 1.000000
vn 0.000000 -0.000000 1.000000
vn 0.000000 -0.000000 1.000000
vn 0.000000 -0.000000 1.000000
vn 0.000000 -0.000000 1.000000
vn 0.000000 -0.000000 1.000000
vn 0.000000 -0.000000 1.000000
vn 0.000000 -0.000000 1.000000
vn 0.000000 -0.000000 1.000000
vn 0.000000 -0.000000 1.000000
vn -1.000000 -0.000000 -0.000000
vn -1.000000 -0.000000 -0.000000
vn -1.000000 -0.000000 -0.000000
vn -1.000000 -0.000000 -0.000000
vn 0.000000 -1.000000 -0.000000
vn 0.000000 -1.000000 -0.000000
vn 0.000000 -1.000000 -0.000000
vn 0.000000 -1.000000 -0.000000
vn -0.000000 1.000000 0.000000
vn -0.000000 1.000000 0.000000
vn -0.000000 1.000000 0.000000
vn -0.000000 1.000000 0.000000
vn -1.000000 -0.000000 -0.000000
vn -1.000000 -0.000000 -0.000000
vn -1.000000 -0.000000 -0.000000
vn -1.000000 -0.000000 -0.000000
vn 1.000000 0.000000 0.000000
vn 1.000000 0.000000 0.000000
vn 1.000000 0.000000 0.000000
vn 1.000000 0.000000 0.000000
vn -0.000000 1.000000 0.000000
vn -0.000000 1.000000 0.000000
vn -0.000000 1.000000 0.000000
vn -0.000000 1.000000 0.000000
vn -1.000000 -0.000000 -0.000000
vn -1.000000 -0.000000 -0.000000
vn -1.000000 -0.000000 -0.000000
vn -1.000000 -0.000000 -0.000000
vn -1.000000 -0.000000 -0.000000
vn -1.000000 -0.000000 -0.000000
vn -1.000000 -0.000000 -0.000000
vn -1.000000 -0.000000 -0.000000
vn 0.000000 -1.000000 -0.000000
vn 0.000000 -1.000000 -0.000000
vn 0.000000 -1.000000 -0.000000
vn 0.000000 -1.000000 -0.000000
vn -1.000000 -0.000000 -0.000000
vn -1.000000 -0.000000 -0.000000
vn -1.000000 -0.000000 -0.000000
vn -1.000000 -0.000000 -0.000000
vn -0.000000 1.000000 0.000000
vn -0.000000 1.000000 0.000000
vn -0.000000 1.000000 0.000000
vn -0.000000 1.000000 0.000000
vn -1.000000 -0.000000 -0.000000
vn -1.000000 -0.000000 -0.000000
vn -1.000000 -0.000000 -0.000000
vn -1.000000 -0.000000 -0.000000
vn -0.000000 1.000000 0.000000
vn -0.000000 1.000000 0.000000
vn -0.000000 1.000000 0.000000
vn -0.000000 1.000000 0.000000
vn 1.000000 0.000000 0.000000
vn 1.000000 0.000000 0.000000
vn 1.000000 0.000000 0.000000
vn 1.000000 0.000000 0.000000
vn -0.000000 1.000000 0.000000
vn -0.000000 1.000000 0.000000
vn -0.000000 1.000000 0.000000
vn -0.000000 1.000000 0.000000
vn 1.000000 0.000000 0.000000
vn 1.000000 0.000000 0.000000
vn 1.000000 0.000000 0.000000
vn 1.000000 0.000000 0.000000
vn 0.000000 -1.000000 -0.000000
vn 0.000000 -1.000000 -0.000000
vn 0.000000 -1.000000 -0.000000
vn 0.000000 -1.000000 -0.000000
vn -1.000000 -0.000000 -0.000000
vn -1.000000 -0.000000 -0.000000
vn -1.000000 -0.000000 -0.000000
vn -1.000000 -0.000000 -0.000000
vn 0.000000 -1.000000 -0.000000
vn 0.000000 -1.000000 -0.000000
vn 0.000000 -1.000000 -0.000000
vn 0.000000 -1.000000 -0.000000
vn -1.000000 -0.000000 -0.000000
vn -1.000000 -0.000000 -0.000000
vn -1.000000 -0.000000 -0.000000
vn -1.000000 -0.000000 -0.000000
vn 0.000000 -1.000000 -0.000000
vn 0.000000 -1.000000 -0.000000
vn 0.000000 -1.000000 -0.000000
vn 0.000000 -1.000000 -0.000000
vn 1.000000 0.000000 0.000000
vn 1.000000 0.000000 0.000000
vn 1.000000 0.000000 0.000000
vn 1.000000 0.000000 0.000000
vn 0.000000 -1.000000 -0.000000
vn 0.000000 -1.000000 -0.000000
vn 0.000000 -1.000000 -0.000000
vn 0.000000 -1.000000 -0.000000
vn 1.000000 0.000000 0.000000
vn 1.000000 0.000000 0.000000
vn 1.000000 0.000000 0.000000
vn 1.000000 0.000000 0.000000
vn -0.000000 1.000000 0.000000
vn -0.000000 1.000000 0.000000
vn -0.000000 1.000000 0.000000
vn -0.000000 1.000000 0.000000
vn 1.000000 0.000000 0.000000
vn 1.000000 0.000000 0.000000
vn 1.000000 0.000000 0.000000
vn 1.000000 0.000000 0.000000
vn -1.000000 -0.000000 -0.000000
vn -1.000000 -0.000000 -0.000000
vn -1.000000 -0.000000 -0.000000
vn -1.000000 -0.000000 -0.000000
vn -0.000000 1.000000 0.000000
vn -0.000000 1.000000 0.000000
vn -0.000000 1.000000 0.000000
vn -0.000000 1.000000 0.000000
vn 1.000000 0.000000 0.000000
vn 1.000000 0.000000 0.000000
vn 1.000000 0.000000 0.000000
vn 1.000000 0.000000 0.000000
vn 0.000000 -1.000000 -0.000000
vn 0.000000 -1.000000 -0.000000
vn 0.000000 -1.000000 -0.000000
vn 0.000000 -1.000000 -0.000000
vn -1.000000 -0.000000 -0.000000
vn -1.000000 -0.000000 -0.000000
vn -1.000000 -0.000000 -0.000000
vn -1.000000 -0.000000 -0.000000
vn -0.000000 1.000000 0.000000
vn -0.000000 1.000000 0.000000
vn -0.000000 1.000000 0.000000
vn -0.000000 1.000000 0.000000
vn 1.000000 0.000000 0.000000
vn 1.000000 0.000000 0.000000
vn 1.000000 0.000000 0.000000
vn 1.000000 0.000000 0.000000
vn -0.000000 1.000000 0.000000
vn -0.000000 1.000000 0.000000
vn -0.000000 1.000000 0.000000
vn -0.000000 1.000000 0.000000
usemtl Steel_-_Satin
f 2/1/1 3/2/2 1/3/3
f 1/3/3 3/2/2 4/4/4
f 5/5/5 23/6/6 2/7/7
f 2/7/7 23/6/6 24/8/8
f 2/7/7 24/8/8 27/9/9
f 27/9/9 24/8/8 25/10/10
f 27/9/9 25/10/10 26/11/11
f 6/12/12 21/13/13 5/5/5
f 5/5/5 21/13/13 22/14/14
f 5/5/5 22/14/14 23/6/6
f 6/12/12 7/15/15 21/13/13
f 21/13/13 7/15/15 20/16/16
f 20/16/16 7/15/15 8/17/17
f 20/16/16 8/17/17 19/18/18
f 19/18/18 8/17/17 18/19/19
f 18/19/19 8/17/17 9/20/20
f 18/19/19 9/20/20 10/21/21
f 18/19/19 10/21/21 17/22/22
f 17/22/22 10/21/21 11/23/23
f 17/22/22 11/23/23 16/24/24
f 16/24/24 11/23/23 15/25/25
f 15/25/25 11/23/23 12/26/26
f 15/25/25 12/26/26 13/27/27
f 13/27/27 14/28/28 15/25/25
f 2/7/7 27/9/9 3/29/29
f 3/29/29 27/9/9 28/30/30
f 3/29/29 28/30/30 29/31/31
f 30/32/32 33/33/33 29/31/31
f 29/31/31 33/33/33 34/34/34
f 29/31/31 34/34/34 38/35/35
f 38/35/35 34/34/34 35/36/36
f 38/35/35 35/36/36 37/37/37
f 37/37/37 35/36/36 36/38/38
f 30/32/32 31/39/39 33/33/33
f 33/33/33 31/39/39 32/40/40
f 38/35/35 3/29/29 29/31/31
f 39/41/41 40/42/42 23/43/43
f 23/43/43 40/42/42 24/44/44
f 1/45/45 39/46/46 41/47/47
f 41/47/47 39/46/46 56/48/48
f 41/47/47 56/48/48 57/49/49
f 4/50/50 53/51/51 1/45/45
f 1/45/45 53/51/51 40/52/52
f 1/45/45 40/52/52 39/46/46
f 42/53/53 51/54/54 4/50/50
f 4/50/50 51/54/54 52/55/55
f 4/50/50 52/55/55 53/51/51
f 43/56/56 45/57/57 42/53/53
f 42/53/53 45/57/57 46/58/58
f 42/53/53 46/58/58 51/54/54
f 51/54/54 46/58/58 47/59/59
f 51/54/54 47/59/59 50/60/60
f 50/60/60 47/59/59 49/61/61
f 49/61/61 47/59/59 48/62/62
f 43/56/56 44/63/63 45/57/57
f 54/64/64 55/65/65 53/51/51
f 53/51/51 55/65/65 40/52/52
f 41/47/47 57/49/49 72/66/66
f 72/66/66 57/49/49 58/67/67
f 72/66/66 58/67/67 71/68/68
f 71/68/68 58/67/67 70/69/69
f 70/69/69 58/67/67 59/70/70
f 70/69/69 59/70/70 60/71/71
f 70/69/69 60/71/71 69/72/72
f 69/72/72 60/71/71 61/73/73
f 69/72/72 61/73/73 68/74/74
f 68/74/74 61/73/73 67/75/75
f 67/75/75 61/73/73 62/76/76
f 67/75/75 62/76/76 63/77/77
f 64/78/78 65/79/79 63/77/77
f 63/77/77 65/79/79 66/80/80
f 63/77/77 66/80/80 67/75/75
f 46/81/81 45/82/82 34/83/83
f 34/83/83 45/82/82 35/84/84
f 45/85/85 44/86/86 35/87/87
f 35/87/87 44/86/86 36/88/88
f 53/89/89 52/90/90 27/91/91
f 27/91/91 52/90/90 28/92/92
f 52/93/93 51/94/94 28/95/95
f 28/95/95 51/94/94 29/96/96
f 42/97/97 4/98/98 38/99/99
f 38/99/99 4/98/98 3/100/100
f 43/101/101 42/102/102 37/103/103
f 37/103/103 42/102/102 38/104/104
f 44/105/105 43/106/106 36/107/107
f 36/107/107 43/106/106 37/108/108
f 5/109/109 2/110/110 41/111/111
f 41/111/111 2/110/110 1/112/112
f 6/113/113 5/114/114 72/115/115
f 72/115/115 5/114/114 41/116/116
f 7/117/117 6/118/118 71/119/119
f 71/119/119 6/118/118 72/120/120
f 8/121/121 7/122/122 70/123/123
f 70/123/123 7/122/122 71/124/124
f 9/125/125 8/126/126 69/127/127
f 69/127/127 8/126/126 70/128/128
f 10/129/129 9/130/130 68/131/131
f 68/131/131 9/130/130 69/132/132
f 11/133/133 10/134/134 67/135/135
f 67/135/135 10/134/134 68/136/136
f 12/137/137 11/138/138 66/139/139
f 66/139/139 11/138/138 67/140/140
f 13/141/141 12/142/142 65/143/143
f 65/143/143 12/142/142 66/144/144
f 14/145/145 13/146/146 64/147/147
f 64/147/147 13/146/146 65/148/148
f 15/149/149 14/150/150 63/151/151
f 63/151/151 14/150/150 64/152/152
f 16/153/153 15/154/154 62/155/155
f 62/155/155 15/154/154 63/156/156
f 17/157/157 16/158/158 61/159/159
f 61/159/159 16/158/158 62/160/160
f 18/161/161 17/162/162 60/163/163
f 60/163/163 17/162/162 61/164/164
f 19/165/165 18/166/166 59/167/167
f 59/167/167 18/166/166 60/168/168
f 20/169/169 19/170/170 58/171/171
f 58/171/171 19/170/170 59/172/172
f 21/173/173 20/174/174 57/175/175
f 57/175/175 20/174/174 58/176/176
f 22/177/177 21/178/178 56/179/179
f 56/179/179 21/178/178 57/180/180
f 23/181/181 22/182/182 39/183/183
f 39/183/183 22/182/182 56/184/184
f 25/185/185 24/186/186 55/187/187
f 55/187/187 24/186/186 40/188/188
f 26/189/189 25/190/190 54/191/191
f 54/191/191 25/190/190 55/192/192
f 27/193/193 26/194/194 53/195/195
f 53/195/195 26/194/194 54/196/196
f 30/197/197 29/198/198 50/199/199
f 50/199/199 29/198/198 51/200/200
f 31/201/201 30/202/202 49/203/203
f 49/203/203 30/202/202 50/204/204
f 32/205/205 31/206/206 48/207/207
f 48/207/207 31/206/206 49/208/208
f 33/209/209 32/210/210 47/211/211
f 47/211/211 32/210/210 48/212/212
f 34/213/213 33/214/214 46/215/215
f 46/215/215 33/214/214 47/216/216
g Body2

v -0.360000 -0.040000 -0.000000
v -0.360000 0.040000 0.000000
v -0.360000 0.040000 0.080000
v -0.360000 -0.040000 0.080000
v -0.760000 -0.560000 -0.000000
v -0.840000 -0.560000 -0.000000
v -0.840000 -0.560000 0.080000
v -0.760000 -0.560000 0.080000
v 0.040000 -1.040000 0.080000
v 0.040000 -0.960000 0.080000
v -0.160000 -0.960000 0.080000
v -0.160000 -0.440000 0.080000
v 0.040000 -0.440000 0.080000
v 0.040000 -0.040000 0.080000
v 0.440000 -0.040000 0.080000
v 0.440000 0.040000 0.080000
v 0.040000 0.040000 0.080000
v 0.040000 0.440000 0.080000
v -0.160000 0.440000 0.080000
v -0.160000 0.560000 0.080000
v 0.160000 0.560000 0.080000
v 0.160000 0.160000 0.080000
v 0.240000 0.160000 0.080000
v 0.240000 0.360000 0.080000
v 0.560000 0.360000 0.080000
v 0.560000 0.240000 0.080000
v 0.360000 0.240000 0.080000
v 0.360000 0.160000 0.080000
v 0.560000 0.160000 0.080000
v 0.560000 -0.240000 0.080000
v 0.640000 -0.240000 0.080000
v 0.640000 -0.040000 0.080000
v 0.760000 -0.040000 0.080000
v 0.760000 -0.760000 0.080000
v 0.560000 -0.760000 0.080000
v 0.560000 -0.840000 0.080000
v 0.840000 -0.840000 0.080000
v 0.840000 0.040000 0.080000
v 0.640000 0.040000 0.080000
v 0.640000 0.560000 0.080000
v 0.840000 0.560000 0.080000
v 0.840000 0.840000 0.080000
v 0.560000 0.840000 0.080000
v 0.560000 0.760000 0.080000
v 0.760000 0.760000 0.080000
v 0.760000 0.640000 0.080000
v 0.560000 0.640000 0.080000
v 0.560000 0.440000 0.080000
v 0.240000 0.440000 0.080000
v 0.240000 0.560000 0.080000
v 0.440000 0.560000 0.080000
v 0.440000 0.840000 0.080000
v 0.360000 0.840000 0.080000
v 0.360000 0.640000 0.080000
v 0.040000 0.640000 0.080000
v 0.040000 0.760000 0.080000
v 0.240000 0.760000 0.080000
v 0.240000 0.840000 0.080000
v -0.040000 0.840000 0.080000
v -0.040000 0.640000 0.080000
v -0.360000 0.640000 0.080000
v -0.360000 0.840000 0.080000
v -0.440000 0.840000 0.080000
v -0.440000 0.640000 0.080000
v -0.560000 0.640000 0.080000
v -0.560000 0.840000 0.080000
v -0.840000 0.840000 0.080000
v -0.840000 0.760000 0.080000
v -0.640000 0.760000 0.080000
v -0.640000 0.560000 0.080000
v -0.440000 0.560000 0.080000
v -0.440000 0.440000 0.080000
v -0.840000 0.440000 0.080000
v -0.840000 0.360000 0.080000
v -0.440000 0.360000 0.080000
v -0.440000 0.240000 0.080000
v -0.640000 0.240000 0.080000
v -0.640000 0.160000 0.080000
v -0.240000 0.160000 0.080000
v -0.240000 -0.160000 0.080000
v -0.760000 -0.160000 0.080000
v -0.760000 -0.040000 0.080000
v -0.760000 0.040000 0.080000
v -0.760000 0.240000 0.080000
v -0.840000 0.240000 0.080000
v -0.840000 -0.240000 0.080000
v -0.440000 -0.240000 0.080000
v -0.440000 -0.440000 0.080000
v -0.360000 -0.440000 0.080000
v -0.360000 -0.240000 0.080000
v -0.160000 -0.240000 0.080000
v -0.160000 0.240000 0.080000
v -0.360000 0.240000 0.080000
v -0.360000 0.560000 0.080000
v -0.240000 0.560000 0.080000
v -0.240000 0.360000 0.080000
v -0.040000 0.360000 0.080000
v -0.040000 -0.360000 0.080000
v -0.240000 -0.360000 0.080000
v -0.240000 -0.560000 0.080000
v -0.640000 -0.560000 0.080000
v -0.640000 -0.640000 0.080000
v -0.440000 -0.640000 0.080000
v -0.440000 -0.840000 0.080000
v -0.360000 -0.840000 0.080000
v -0.360000 -0.640000 0.080000
v -0.240000 -0.640000 0.080000
v -0.240000 -0.960000 0.080000
v -0.560000 -0.960000 0.080000
v -0.560000 -0.760000 0.080000
v -0.640000 -0.760000 0.080000
v -0.640000 -0.960000 0.080000
v -0.960000 -0.960000 0.080000
v -0.960000 -0.840000 0.080000
v -0.760000 -0.840000 0.080000
v -0.840000 -0.760000 0.080000
v -0.960000 -0.760000 0.080000
v -0.960000 -0.440000 0.080000
v -0.560000 -0.440000 0.080000
v -0.560000 -0.360000 0.080000
v -0.960000 -0.360000 0.080000
v -0.960000 0.560000 0.080000
v -0.760000 0.560000 0.080000
v -0.760000 0.640000 0.080000
v -0.960000 0.640000 0.080000
v -0.960000 0.960000 0.080000
v -0.240000 0.960000 0.080000
v -0.240000 0.760000 0.080000
v -0.160000 0.760000 0.080000
v -0.160000 1.040000 0.080000
v -1.040000 1.040000 0.080000
v -1.040000 -1.040000 0.080000
v -0.240000 -0.960000 -0.000000
v -0.560000 -0.960000 -0.000000
v -0.240000 0.960000 0.000000
v -0.960000 0.960000 0.000000
v -0.960000 0.640000 0.000000
v -0.960000 -0.360000 -0.000000
v -0.960000 0.560000 0.000000
v 0.040000 -0.960000 -0.000000
v -0.160000 -0.960000 -0.000000
v -0.960000 -0.960000 -0.000000
v -0.960000 -0.840000 -0.000000
v -0.640000 -0.960000 -0.000000
v -0.960000 -0.760000 -0.000000
v -0.960000 -0.440000 -0.000000
v 0.040000 -1.040000 -0.000000
v -1.040000 -1.040000 -0.000000
v -1.040000 1.040000 0.000000
v -0.160000 1.040000 0.000000
v -0.160000 0.760000 0.000000
v -0.240000 0.760000 0.000000
v -0.760000 0.640000 0.000000
v -0.760000 0.560000 0.000000
v -0.560000 -0.360000 -0.000000
v -0.560000 -0.440000 -0.000000
v -0.840000 -0.760000 -0.000000
v -0.760000 -0.840000 -0.000000
v -0.640000 -0.760000 -0.000000
v -0.560000 -0.760000 -0.000000
v -0.240000 -0.640000 -0.000000
v -0.360000 -0.640000 -0.000000
v -0.360000 -0.840000 -0.000000
v -0.440000 -0.840000 -0.000000
v -0.440000 -0.640000 -0.000000
v -0.640000 -0.640000 -0.000000
v -0.640000 -0.560000 -0.000000
v -0.240000 -0.560000 -0.000000
v -0.240000 -0.360000 -0.000000
v -0.040000 -0.360000 -0.000000
v -0.040000 0.360000 0.000000
v -0.240000 0.360000 0.000000
v -0.240000 0.560000 0.000000
v -0.360000 0.560000 0.000000
v -0.360000 0.240000 0.000000
v -0.160000 0.240000 0.000000
v -0.160000 -0.240000 -0.000000
v -0.360000 -0.240000 -0.000000
v -0.360000 -0.440000 -0.000000
v -0.440000 -0.440000 -0.000000
v -0.440000 -0.240000 -0.000000
v -0.840000 -0.240000 -0.000000
v -0.840000 0.240000 0.000000
v -0.760000 0.240000 0.000000
v -0.760000 0.040000 0.000000
v -0.760000 -0.040000 -0.000000
v -0.760000 -0.160000 -0.000000
v -0.240000 -0.160000 -0.000000
v -0.240000 0.160000 0.000000
v -0.640000 0.160000 0.000000
v -0.640000 0.240000 0.000000
v -0.440000 0.240000 0.000000
v -0.440000 0.360000 0.000000
v -0.840000 0.360000 0.000000
v -0.840000 0.440000 0.000000
v -0.440000 0.440000 0.000000
v -0.440000 0.560000 0.000000
v -0.640000 0.560000 0.000000
v -0.640000 0.760000 0.000000
v -0.840000 0.760000 0.000000
v -0.840000 0.840000 0.000000
v -0.560000 0.840000 0.000000
v -0.560000 0.640000 0.000000
v -0.440000 0.640000 0.000000
v -0.440000 0.840000 0.000000
v -0.360000 0.840000 0.000000
v -0.360000 0.640000 0.000000
v -0.040000 0.640000 0.000000
v -0.040000 0.840000 0.000000
v 0.240000 0.840000 0.000000
v 0.240000 0.760000 0.000000
v 0.040000 0.760000 0.000000
v 0.040000 0.640000 0.000000
v 0.360000 0.640000 0.000000
v 0.360000 0.840000 0.000000
v 0.440000 0.840000 0.000000
v 0.440000 0.560000 0.000000
v 0.240000 0.560000 0.000000
v 0.240000 0.440000 0.000000
v 0.560000 0.440000 0.000000
v 0.560000 0.640000 0.000000
v 0.760000 0.640000 0.000000
v 0.760000 0.760000 0.000000
v 0.560000 0.760000 0.000000
v 0.560000 0.840000 0.000000
v 0.840000 0.840000 0.000000
v 0.840000 0.560000 0.000000
v 0.640000 0.560000 0.000000
v 0.640000 0.040000 0.000000
v 0.840000 0.040000 0.000000
v 0.840000 -0.840000 -0.000000
v 0.560000 -0.840000 -0.000000
v 0.560000 -0.760000 -0.000000
v 0.760000 -0.760000 -0.000000
v 0.760000 -0.040000 -0.000000
v 0.640000 -0.040000 -0.000000
v 0.640000 -0.240000 -0.000000
v 0.560000 -0.240000 -0.000000
v 0.560000 0.160000 0.000000
v 0.360000 0.160000 0.000000
v 0.360000 0.240000 0.000000
v 0.560000 0.240000 0.000000
v 0.560000 0.360000 0.000000
v 0.240000 0.360000 0.000000
v 0.240000 0.160000 0.000000
v 0.160000 0.160000 0.000000
v 0.160000 0.560000 0.000000
v -0.160000 0.560000 0.000000
v -0.160000 0.440000 0.000000
v 0.040000 0.440000 0.000000
v 0.040000 0.040000 0.000000
v 0.440000 0.040000 0.000000
v 0.440000 -0.040000 -0.000000
v 0.040000 -0.040000 -0.000000
v 0.040000 -0.440000 -0.000000
v -0.160000 -0.440000 -0.000000
vt 0.000000 0.000000 0.000000
vt 0.080000 0.000000 0.000000
vt -0.000000 0.080000 0.000000
vt 0.080000 0.080000 0.000000
vt -0.000000 0.000000 0.000000
vt 0.080000 0.000000 0.000000
vt -0.000000 0.080000 0.000000
vt 0.080000 0.080000 0.000000
vt 0.120000 -0.960000 0.000000
vt -0.080000 -0.960000 0.000000
vt 0.120000 -1.040000 0.000000
vt -0.160000 -0.960000 0.000000
vt -0.480000 -0.960000 0.000000
vt -0.160000 -0.640000 0.000000
vt -0.080000 -0.440000 0.000000
vt -0.160000 -0.560000 0.000000
vt -0.160000 -0.360000 0.000000
vt 0.040000 -0.360000 0.000000
vt 0.120000 -0.440000 0.000000
vt 0.120000 -0.040000 0.000000
vt 0.120000 0.040000 0.000000
vt 0.520000 -0.040000 0.000000
vt 0.520000 0.040000 0.000000
vt 0.040000 0.360000 0.000000
vt 0.120000 0.440000 0.000000
vt -0.080000 0.440000 0.000000
vt -0.080000 0.560000 0.000000
vt -0.160000 0.560000 0.000000
vt -0.160000 0.360000 0.000000
vt 0.240000 0.560000 0.000000
vt 0.040000 0.640000 0.000000
vt -0.280000 0.640000 0.000000
vt -0.280000 0.560000 0.000000
vt -0.360000 0.640000 0.000000
vt -0.360000 0.560000 0.000000
vt -0.480000 0.640000 0.000000
vt -0.560000 0.560000 0.000000
vt -0.560000 0.760000 0.000000
vt -0.480000 0.840000 0.000000
vt -0.760000 0.840000 0.000000
vt 0.240000 0.160000 0.000000
vt 0.320000 0.360000 0.000000
vt 0.320000 0.440000 0.000000
vt 0.320000 0.560000 0.000000
vt 0.320000 0.160000 0.000000
vt 0.640000 0.360000 0.000000
vt 0.640000 0.440000 0.000000
vt 0.720000 0.560000 0.000000
vt 0.640000 0.640000 0.000000
vt 0.840000 0.640000 0.000000
vt 0.920000 0.560000 0.000000
vt 0.840000 0.760000 0.000000
vt 0.920000 0.840000 0.000000
vt 0.640000 0.840000 0.000000
vt 0.720000 0.040000 0.000000
vt 0.640000 0.240000 0.000000
vt 0.640000 0.160000 0.000000
vt 0.440000 0.240000 0.000000
vt 0.440000 0.160000 0.000000
vt 0.720000 -0.040000 0.000000
vt 0.640000 -0.240000 0.000000
vt 0.720000 -0.240000 0.000000
vt 0.840000 -0.040000 0.000000
vt 0.920000 0.040000 0.000000
vt 0.920000 -0.840000 0.000000
vt 0.840000 -0.760000 0.000000
vt 0.640000 -0.840000 0.000000
vt 0.640000 -0.760000 0.000000
vt 0.640000 0.760000 0.000000
vt 0.520000 0.560000 0.000000
vt 0.440000 0.640000 0.000000
vt 0.120000 0.640000 0.000000
vt 0.520000 0.840000 0.000000
vt 0.440000 0.840000 0.000000
vt 0.120000 0.760000 0.000000
vt 0.040000 0.840000 0.000000
vt 0.320000 0.840000 0.000000
vt 0.320000 0.760000 0.000000
vt -0.280000 0.840000 0.000000
vt -0.360000 0.840000 0.000000
vt -0.760000 0.760000 0.000000
vt -0.360000 0.440000 0.000000
vt -0.280000 0.240000 0.000000
vt -0.360000 0.360000 0.000000
vt -0.360000 0.240000 0.000000
vt -0.760000 0.440000 0.000000
vt -0.760000 0.360000 0.000000
vt -0.560000 0.240000 0.000000
vt -0.560000 0.160000 0.000000
vt -0.160000 0.160000 0.000000
vt -0.080000 0.240000 0.000000
vt -0.080000 -0.240000 0.000000
vt -0.160000 -0.160000 0.000000
vt -0.280000 -0.240000 0.000000
vt -0.360000 -0.240000 0.000000
vt -0.280000 -0.440000 0.000000
vt -0.360000 -0.440000 0.000000
vt -0.680000 -0.160000 0.000000
vt -0.760000 -0.240000 0.000000
vt -0.680000 -0.040000 0.000000
vt -0.680000 0.040000 0.000000
vt -0.280000 -0.040000 0.000000
vt -0.280000 0.040000 0.000000
vt -0.680000 0.240000 0.000000
vt -0.760000 0.240000 0.000000
vt -0.560000 -0.560000 0.000000
vt -0.360000 -0.640000 0.000000
vt -0.280000 -0.640000 0.000000
vt -0.560000 -0.640000 0.000000
vt -0.360000 -0.840000 0.000000
vt -0.280000 -0.840000 0.000000
vt -0.480000 -0.760000 0.000000
vt -0.560000 -0.960000 0.000000
vt -0.960000 -1.040000 0.000000
vt -0.560000 -0.760000 0.000000
vt -0.880000 -0.960000 0.000000
vt -0.880000 -0.840000 0.000000
vt -0.880000 -0.760000 0.000000
vt -0.760000 -0.760000 0.000000
vt -0.680000 -0.840000 0.000000
vt -0.680000 -0.560000 0.000000
vt -0.760000 -0.560000 0.000000
vt -0.880000 -0.440000 0.000000
vt -0.880000 -0.360000 0.000000
vt -0.960000 1.040000 0.000000
vt -0.880000 0.560000 0.000000
vt -0.880000 0.640000 0.000000
vt -0.680000 0.560000 0.000000
vt -0.680000 0.640000 0.000000
vt -0.480000 -0.440000 0.000000
vt -0.480000 -0.360000 0.000000
vt -0.880000 0.960000 0.000000
vt -0.080000 1.040000 0.000000
vt -0.160000 0.960000 0.000000
vt -0.080000 0.760000 0.000000
vt -0.160000 0.760000 0.000000
vt -0.320000 0.000000 0.000000
vt -0.000000 0.000000 0.000000
vt -0.320000 0.080000 0.000000
vt -0.000000 0.080000 0.000000
vt -0.720000 -0.000000 0.000000
vt -0.000000 0.000000 0.000000
vt -0.720000 0.080000 0.000000
vt 0.000000 0.080000 0.000000
vt -0.320000 0.000000 0.000000
vt 0.000000 0.000000 0.000000
vt -0.320000 0.080000 0.000000
vt 0.000000 0.080000 0.000000
vt -0.920000 -0.000000 0.000000
vt 0.000000 0.000000 0.000000
vt -0.920000 0.080000 0.000000
vt 0.000000 0.080000 0.000000
vt -0.200000 0.000000 0.000000
vt 0.000000 0.000000 0.000000
vt -0.200000 0.080000 0.000000
vt -0.000000 0.080000 0.000000
vt -0.120000 -0.000000 0.000000
vt -0.000000 0.000000 0.000000
vt -0.120000 0.080000 0.000000
vt 0.000000 0.080000 0.000000
vt -0.320000 -0.000000 0.000000
vt 0.000000 0.000000 0.000000
vt -0.320000 0.080000 0.000000
vt 0.000000 0.080000 0.000000
vt -0.320000 0.000000 0.000000
vt 0.000000 0.000000 0.000000
vt -0.320000 0.080000 0.000000
vt 0.000000 0.080000 0.000000
vt 0.960000 -0.120000 0.000000
vt 1.040000 -0.120000 0.000000
vt 0.960000 0.080000 0.000000
vt 0.960000 0.160000 0.000000
vt 0.640000 0.160000 0.000000
vt 0.960000 0.480000 0.000000
vt 1.040000 0.960000 0.000000
vt 0.960000 0.560000 0.000000
vt 0.960000 0.880000 0.000000
vt 0.840000 0.880000 0.000000
vt 0.760000 0.880000 0.000000
vt 0.760000 0.760000 0.000000
vt -1.040000 0.960000 0.000000
vt 0.360000 0.880000 0.000000
vt 0.440000 0.880000 0.000000
vt -1.040000 0.080000 0.000000
vt -0.960000 0.880000 0.000000
vt -0.640000 0.880000 0.000000
vt -0.560000 0.880000 0.000000
vt -0.560000 0.680000 0.000000
vt -0.640000 0.680000 0.000000
vt -0.960000 0.160000 0.000000
vt -0.760000 0.080000 0.000000
vt -0.760000 0.160000 0.000000
vt 0.360000 0.480000 0.000000
vt 0.440000 0.480000 0.000000
vt 0.560000 0.760000 0.000000
vt 0.560000 0.680000 0.000000
vt 0.840000 0.680000 0.000000
vt 0.760000 0.560000 0.000000
vt 0.760000 0.480000 0.000000
vt 0.640000 0.280000 0.000000
vt 0.560000 0.160000 0.000000
vt 0.440000 0.080000 0.000000
vt 0.640000 0.360000 0.000000
vt 0.840000 0.280000 0.000000
vt 0.840000 0.360000 0.000000
vt 0.640000 0.560000 0.000000
vt 0.560000 0.560000 0.000000
vt 0.360000 0.160000 0.000000
vt 0.360000 -0.040000 0.000000
vt 0.440000 -0.120000 0.000000
vt 0.040000 -0.120000 0.000000
vt -0.360000 -0.040000 0.000000
vt -0.040000 -0.120000 0.000000
vt -0.440000 -0.120000 0.000000
vt -0.440000 0.080000 0.000000
vt -0.360000 0.160000 0.000000
vt -0.560000 0.160000 0.000000
vt -0.560000 0.280000 0.000000
vt -0.640000 0.280000 0.000000
vt -0.640000 -0.040000 0.000000
vt -0.560000 0.080000 0.000000
vt -0.560000 -0.240000 0.000000
vt -0.640000 -0.120000 0.000000
vt -0.640000 -0.440000 0.000000
vt -0.240000 0.280000 0.000000
vt -0.440000 0.360000 0.000000
vt -0.560000 0.360000 0.000000
vt -0.640000 0.360000 0.000000
vt -0.640000 0.480000 0.000000
vt -0.560000 0.560000 0.000000
vt -0.760000 0.560000 0.000000
vt -0.240000 0.080000 0.000000
vt -0.160000 0.160000 0.000000
vt -0.240000 0.360000 0.000000
vt -0.360000 0.360000 0.000000
vt 0.240000 0.080000 0.000000
vt 0.160000 0.160000 0.000000
vt 0.240000 0.280000 0.000000
vt 0.240000 0.360000 0.000000
vt 0.440000 0.280000 0.000000
vt 0.440000 0.360000 0.000000
vt 0.160000 0.680000 0.000000
vt 0.240000 0.760000 0.000000
vt 0.040000 0.680000 0.000000
vt -0.240000 0.760000 0.000000
vt -0.040000 0.680000 0.000000
vt -0.240000 0.680000 0.000000
vt -0.040000 0.280000 0.000000
vt 0.040000 0.280000 0.000000
vt -0.160000 0.560000 0.000000
vt -0.240000 0.560000 0.000000
vt -0.360000 0.760000 0.000000
vt -0.440000 0.760000 0.000000
vt -0.760000 0.760000 0.000000
vt -0.840000 0.760000 0.000000
vt -0.840000 0.480000 0.000000
vt -0.840000 0.360000 0.000000
vt -0.840000 0.280000 0.000000
vt -0.760000 -0.120000 0.000000
vt -0.840000 -0.040000 0.000000
vt -0.840000 -0.320000 0.000000
vt -0.760000 -0.320000 0.000000
vt -0.840000 -0.440000 0.000000
vt -0.840000 -0.520000 0.000000
vt -0.560000 -0.520000 0.000000
vt -0.560000 -0.320000 0.000000
vt -0.440000 -0.320000 0.000000
vt -0.360000 -0.320000 0.000000
vt -0.360000 -0.640000 0.000000
vt -0.440000 -0.640000 0.000000
vt -0.560000 -0.720000 0.000000
vt -0.640000 -0.640000 0.000000
vt -0.640000 -0.840000 0.000000
vt -0.560000 -0.920000 0.000000
vt -0.760000 -0.840000 0.000000
vt -0.840000 -0.920000 0.000000
vt -0.840000 -0.640000 0.000000
vt -0.760000 -0.640000 0.000000
vt -0.040000 -0.720000 0.000000
vt -0.240000 -0.640000 0.000000
vt -0.160000 -0.640000 0.000000
vt -0.240000 -0.440000 0.000000
vt -0.160000 -0.440000 0.000000
vt -0.040000 -0.920000 0.000000
vt 0.040000 -0.840000 0.000000
vt 0.040000 -0.720000 0.000000
vt 0.240000 -0.640000 0.000000
vt 0.240000 -0.720000 0.000000
vt 0.840000 -0.920000 0.000000
vt 0.760000 -0.840000 0.000000
vt 0.840000 -0.640000 0.000000
vt 0.760000 -0.640000 0.000000
vt -0.160000 -0.320000 0.000000
vt -0.160000 -0.240000 0.000000
vt -0.040000 -0.520000 0.000000
vt 0.040000 -0.520000 0.000000
vt 0.000000 0.000000 0.000000
vt 0.880000 -0.000000 0.000000
vt -0.000000 0.080000 0.000000
vt 0.880000 0.080000 0.000000
vt 0.000000 0.000000 0.000000
vt 2.080000 -0.000000 0.000000
vt -0.000000 0.080000 0.000000
vt 2.080000 0.080000 0.000000
vt 0.040000 0.000000 0.000000
vt 1.120000 -0.000000 0.000000
vt 0.040000 0.080000 0.000000
vt 1.120000 0.080000 0.000000
vt 0.000000 0.000000 0.000000
vt 0.280000 0.000000 0.000000
vt -0.000000 0.080000 0.000000
vt 0.280000 0.080000 0.000000
vt -0.000000 0.000000 0.000000
vt 0.200000 -0.000000 0.000000
vt -0.000000 0.080000 0.000000
vt 0.200000 0.080000 0.000000
vt 0.000000 0.000000 0.000000
vt 0.080000 0.000000 0.000000
vt 0.000000 0.080000 0.000000
vt 0.080000 0.080000 0.000000
vt -0.040000 0.000000 0.000000
vt 0.160000 0.000000 0.000000
vt -0.040000 0.080000 0.000000
vt 0.160000 0.080000 0.000000
vt -0.000000 0.000000 0.000000
vt 0.400000 0.000000 0.000000
vt -0.000000 0.080000 0.000000
vt 0.400000 0.080000 0.000000
vt 0.000000 0.000000 0.000000
vt 0.080000 -0.000000 0.000000
vt 0.000000 0.080000 0.000000
vt 0.080000 0.080000 0.000000
vt -0.040000 0.000000 0.000000
vt 0.360000 0.000000 0.000000
vt -0.040000 0.080000 0.000000
vt 0.360000 0.080000 0.000000
vt 0.000000 0.000000 0.000000
vt 0.120000 0.000000 0.000000
vt 0.000000 0.080000 0.000000
vt 0.120000 0.080000 0.000000
vt -0.080000 0.000000 0.000000
vt 0.120000 0.000000 0.000000
vt -0.080000 0.080000 0.000000
vt 0.120000 0.080000 0.000000
vt 0.000000 0.000000 0.000000
vt 0.280000 -0.000000 0.000000
vt 0.000000 0.080000 0.000000
vt 0.280000 0.080000 0.000000
vt -0.040000 0.000000 0.000000
vt 0.160000 0.000000 0.000000
vt -0.040000 0.080000 0.000000
vt 0.160000 0.080000 0.000000
vt 0.000000 0.000000 0.000000
vt 0.200000 -0.000000 0.000000
vt -0.000000 0.080000 0.000000
vt 0.200000 0.080000 0.000000
vt -0.000000 0.000000 0.000000
vt 0.080000 0.000000 0.000000
vt -0.000000 0.080000 0.000000
vt 0.080000 0.080000 0.000000
vt -0.040000 -0.000000 0.000000
vt 0.160000 0.000000 0.000000
vt -0.040000 0.080000 0.000000
vt 0.160000 0.080000 0.000000
vt 0.000000 0.000000 0.000000
vt 0.320000 0.000000 0.000000
vt -0.000000 0.080000 0.000000
vt 0.320000 0.080000 0.000000
vt 0.000000 0.000000 0.000000
vt 0.120000 0.000000 0.000000
vt 0.000000 0.080000 0.000000
vt 0.120000 0.080000 0.000000
vt 0.000000 0.000000 0.000000
vt 0.200000 -0.000000 0.000000
vt 0.000000 0.080000 0.000000
vt 0.200000 0.080000 0.000000
vt 0.000000 0.000000 0.000000
vt 0.080000 0.000000 0.000000
vt 0.000000 0.080000 0.000000
vt 0.080000 0.080000 0.000000
vt 0.000000 0.000000 0.000000
vt 0.200000 0.000000 0.000000
vt -0.000000 0.080000 0.000000
vt 0.200000 0.080000 0.000000
vt 0.000000 0.000000 0.000000
vt 0.200000 0.000000 0.000000
vt 0.000000 0.080000 0.000000
vt 0.200000 0.080000 0.000000
vt 0.000000 0.000000 0.000000
vt 0.080000 -0.000000 0.000000
vt -0.000000 0.080000 0.000000
vt 0.080000 0.080000 0.000000
vt 0.000000 0.000000 0.000000
vt 0.400000 -0.000000 0.000000
vt 0.000000 0.080000 0.000000
vt 0.400000 0.080000 0.000000
vt 0.000000 0.000000 0.000000
vt 0.200000 0.000000 0.000000
vt -0.000000 0.080000 0.000000
vt 0.200000 0.080000 0.000000
vt -0.000000 0.000000 0.000000
vt 0.200000 -0.000000 0.000000
vt -0.000000 0.080000 0.000000
vt 0.200000 0.080000 0.000000
vt 0.000000 0.000000 0.000000
vt 0.720000 0.000000 0.000000
vt 0.000000 0.080000 0.000000
vt 0.720000 0.080000 0.000000
vt 0.000000 0.000000 0.000000
vt 0.200000 0.000000 0.000000
vt -0.000000 0.080000 0.000000
vt 0.200000 0.080000 0.000000
vt 0.000000 0.000000 0.000000
vt 0.200000 0.000000 0.000000
vt -0.000000 0.080000 0.000000
vt 0.200000 0.080000 0.000000
vt 0.000000 0.000000 0.000000
vt 0.120000 0.000000 0.000000
vt 0.000000 0.080000 0.000000
vt 0.120000 0.080000 0.000000
vt 0.000000 0.000000 0.000000
vt 0.320000 -0.000000 0.000000
vt -0.000000 0.080000 0.000000
vt 0.320000 0.080000 0.000000
vt 0.000000 0.000000 0.000000
vt 0.200000 -0.000000 0.000000
vt 0.000000 0.080000 0.000000
vt 0.200000 0.080000 0.000000
vt 0.000000 0.000000 0.000000
vt 0.480000 0.000000 0.000000
vt -0.000000 0.080000 0.000000
vt 0.480000 0.080000 0.000000
vt 0.000000 0.000000 0.000000
vt 0.200000 0.000000 0.000000
vt -0.000000 0.080000 0.000000
vt 0.200000 0.080000 0.000000
vt 0.000000 0.000000 0.000000
vt 0.200000 0.000000 0.000000
vt 0.000000 0.080000 0.000000
vt 0.200000 0.080000 0.000000
vt 0.000000 0.000000 0.000000
vt 0.080000 0.000000 0.000000
vt 0.000000 0.080000 0.000000
vt 0.080000 0.080000 0.000000
vt 0.000000 0.000000 0.000000
vt 0.200000 0.000000 0.000000
vt 0.000000 0.080000 0.000000
vt 0.200000 0.080000 0.000000
vt 0.000000 0.000000 0.000000
vt 0.400000 0.000000 0.000000
vt -0.000000 0.080000 0.000000
vt 0.400000 0.080000 0.000000
vt -0.000000 0.000000 0.000000
vt 0.480000 0.000000 0.000000
vt -0.000000 0.080000 0.000000
vt 0.480000 0.080000 0.000000
vt -0.000000 0.000000 0.000000
vt 0.080000 -0.000000 0.000000
vt 0.000000 0.080000 0.000000
vt 0.080000 0.080000 0.000000
vt -0.000000 0.000000 0.000000
vt 0.200000 0.000000 0.000000
vt -0.000000 0.080000 0.000000
vt 0.200000 0.080000 0.000000
vt -0.080000 0.000000 0.000000
vt 0.320000 -0.000000 0.000000
vt -0.080000 0.080000 0.000000
vt 0.320000 0.080000 0.000000
vt 0.000000 0.000000 0.000000
vt 0.400000 0.000000 0.000000
vt -0.000000 0.080000 0.000000
vt 0.400000 0.080000 0.000000
vt -0.000000 -0.000000 0.000000
vt 0.120000 0.000000 0.000000
vt -0.000000 0.080000 0.000000
vt 0.120000 0.080000 0.000000
vt 0.000000 0.000000 0.000000
vt 0.520000 -0.000000 0.000000
vt 0.000000 0.080000 0.000000
vt 0.520000 0.080000 0.000000
vt 0.000000 0.000000 0.000000
vt 0.320000 0.000000 0.000000
vt 0.000000 0.080000 0.000000
vt 0.320000 0.080000 0.000000
vt 0.000000 0.000000 0.000000
vt 0.400000 0.000000 0.000000
vt -0.000000 0.080000 0.000000
vt 0.400000 0.080000 0.000000
vt 0.000000 0.000000 0.000000
vt 0.080000 0.000000 0.000000
vt 0.000000 0.080000 0.000000
vt 0.080000 0.080000 0.000000
vt 0.000000 -0.000000 0.000000
vt 0.200000 -0.000000 0.000000
vt 0.000000 0.080000 0.000000
vt 0.200000 0.080000 0.000000
vt 0.000000 0.000000 0.000000
vt 0.120000 -0.000000 0.000000
vt 0.000000 0.080000 0.000000
vt 0.120000 0.080000 0.000000
vt 0.000000 0.000000 0.000000
vt 0.400000 0.000000 0.000000
vt -0.000000 0.080000 0.000000
vt 0.400000 0.080000 0.000000
vt -0.000000 0.000000 0.000000
vt 0.080000 0.000000 0.000000
vt -0.000000 0.080000 0.000000
vt 0.080000 0.080000 0.000000
vt 0.000000 -0.000000 0.000000
vt 0.400000 -0.000000 0.000000
vt 0.000000 0.080000 0.000000
vt 0.400000 0.080000 0.000000
vt 0.000000 0.000000 0.000000
vt 0.120000 -0.000000 0.000000
vt -0.000000 0.080000 0.000000
vt 0.120000 0.080000 0.000000
vt 0.000000 0.000000 0.000000
vt 0.200000 0.000000 0.000000
vt 0.000000 0.080000 0.000000
vt 0.200000 0.080000 0.000000
vt 0.000000 0.000000 0.000000
vt 0.200000 0.000000 0.000000
vt 0.000000 0.080000 0.000000
vt 0.200000 0.080000 0.000000
vt 0.000000 0.000000 0.000000
vt 0.200000 0.000000 0.000000
vt -0.000000 0.080000 0.000000
vt 0.200000 0.080000 0.000000
vt -0.000000 0.000000 0.000000
vt 0.080000 -0.000000 0.000000
vt -0.000000 0.080000 0.000000
vt 0.080000 0.080000 0.000000
vt -0.000000 0.000000 0.000000
vt 0.280000 -0.000000 0.000000
vt -0.000000 0.080000 0.000000
vt 0.280000 0.080000 0.000000
vt 0.000000 0.000000 0.000000
vt 0.200000 -0.000000 0.000000
vt 0.000000 0.080000 0.000000
vt 0.200000 0.080000 0.000000
vt -0.000000 0.000000 0.000000
vt 0.120000 0.000000 0.000000
vt -0.000000 0.080000 0.000000
vt 0.120000 0.080000 0.000000
vt 0.000000 0.000000 0.000000
vt 0.200000 0.000000 0.000000
vt 0.000000 0.080000 0.000000
vt 0.200000 0.080000 0.000000
vt -0.000000 0.000000 0.000000
vt 0.080000 -0.000000 0.000000
vt -0.000000 0.080000 0.000000
vt 0.080000 0.080000 0.000000
vt 0.000000 0.000000 0.000000
vt 0.200000 -0.000000 0.000000
vt 0.000000 0.080000 0.000000
vt 0.200000 0.080000 0.000000
vt -0.000000 0.000000 0.000000
vt 0.320000 -0.000000 0.000000
vt -0.000000 0.080000 0.000000
vt 0.320000 0.080000 0.000000
vt 0.000000 0.000000 0.000000
vt 0.200000 0.000000 0.000000
vt 0.000000 0.080000 0.000000
vt 0.200000 0.080000 0.000000
vt -0.000000 0.000000 0.000000
vt 0.280000 -0.000000 0.000000
vt -0.000000 0.080000 0.000000
vt 0.280000 0.080000 0.000000
vt 0.000000 0.000000 0.000000
vt 0.080000 0.000000 0.000000
vt -0.000000 0.080000 0.000000
vt 0.080000 0.080000 0.000000
vt 0.000000 0.000000 0.000000
vt 0.200000 0.000000 0.000000
vt -0.000000 0.080000 0.000000
vt 0.200000 0.080000 0.000000
vt 0.000000 0.000000 0.000000
vt 0.120000 -0.000000 0.000000
vt 0.000000 0.080000 0.000000
vt 0.120000 0.080000 0.000000
vt -0.000000 0.000000 0.000000
vt 0.320000 -0.000000 0.000000
vt -0.000000 0.080000 0.000000
vt 0.320000 0.080000 0.000000
vt 0.000000 0.000000 0.000000
vt 0.200000 0.000000 0.000000
vt 0.000000 0.080000 0.000000
vt 0.200000 0.080000 0.000000
vt -0.000000 0.000000 0.000000
vt 0.080000 -0.000000 0.000000
vt -0.000000 0.080000 0.000000
vt 0.080000 0.080000 0.000000
vt 0.000000 0.000000 0.000000
vt 0.280000 -0.000000 0.000000
vt 0.000000 0.080000 0.000000
vt 0.280000 0.080000 0.000000
vt -0.000000 0.000000 0.000000
vt 0.200000 0.000000 0.000000
vt 0.000000 0.080000 0.000000
vt 0.200000 0.080000 0.000000
vt 0.000000 0.000000 0.000000
vt 0.120000 0.000000 0.000000
vt 0.000000 0.080000 0.000000
vt 0.120000 0.080000 0.000000
vt 0.000000 -0.000000 0.000000
vt 0.320000 -0.000000 0.000000
vt 0.000000 0.080000 0.000000
vt 0.320000 0.080000 0.000000
vt 0.000000 0.000000 0.000000
vt 0.200000 -0.000000 0.000000
vt 0.000000 0.080000 0.000000
vt 0.200000 0.080000 0.000000
vt -0.000000 0.000000 0.000000
vt 0.200000 0.000000 0.000000
vt -0.000000 0.080000 0.000000
vt 0.200000 0.080000 0.000000
vt 0.000000 0.000000 0.000000
vt 0.120000 0.000000 0.000000
vt 0.000000 0.080000 0.000000
vt 0.120000 0.080000 0.000000
vt 0.000000 0.000000 0.000000
vt 0.200000 0.000000 0.000000
vt -0.000000 0.080000 0.000000
vt 0.200000 0.080000 0.000000
vt 0.000000 0.000000 0.000000
vt 0.080000 -0.000000 0.000000
vt 0.000000 0.080000 0.000000
vt 0.080000 0.080000 0.000000
vt -0.000000 0.000000 0.000000
vt 0.280000 -0.000000 0.000000
vt -0.000000 0.080000 0.000000
vt 0.280000 0.080000 0.000000
vt 0.000000 0.000000 0.000000
vt 0.280000 -0.000000 0.000000
vt 0.000000 0.080000 0.000000
vt 0.280000 0.080000 0.000000
vt 0.000000 0.000000 0.000000
vt 0.200000 0.000000 0.000000
vt 0.000000 0.080000 0.000000
vt 0.200000 0.080000 0.000000
vt 0.000000 0.000000 0.000000
vt 0.520000 0.000000 0.000000
vt -0.000000 0.080000 0.000000
vt 0.520000 0.080000 0.000000
vt -0.000000 0.000000 0.000000
vt 0.200000 -0.000000 0.000000
vt -0.000000 0.080000 0.000000
vt 0.200000 0.080000 0.000000
vt 0.000000 0.000000 0.000000
vt 0.880000 0.000000 0.000000
vt 0.000000 0.080000 0.000000
vt 0.880000 0.080000 0.000000
vt 0.000000 0.000000 0.000000
vt 0.280000 0.000000 0.000000
vt 0.000000 0.080000 0.000000
vt 0.280000 0.080000 0.000000
vt 0.000000 0.000000 0.000000
vt 0.080000 -0.000000 0.000000
vt -0.000000 0.080000 0.000000
vt 0.080000 0.080000 0.000000
vt -0.000000 0.000000 0.000000
vt 0.200000 -0.000000 0.000000
vt -0.000000 0.080000 0.000000
vt 0.200000 0.080000 0.000000
vt 0.000000 0.000000 0.000000
vt 0.720000 0.000000 0.000000
vt 0.000000 0.080000 0.000000
vt 0.720000 0.080000 0.000000
vt 0.000000 0.000000 0.000000
vt 0.120000 0.000000 0.000000
vt -0.000000 0.080000 0.000000
vt 0.120000 0.080000 0.000000
vt 0.000000 0.000000 0.000000
vt 0.200000 0.000000 0.000000
vt -0.000000 0.080000 0.000000
vt 0.200000 0.080000 0.000000
vt 0.000000 0.000000 0.000000
vt 0.080000 0.000000 0.000000
vt -0.000000 0.080000 0.000000
vt 0.080000 0.080000 0.000000
vt 0.000000 0.000000 0.000000
vt 0.400000 0.000000 0.000000
vt 0.000000 0.080000 0.000000
vt 0.400000 0.080000 0.000000
vt -0.000000 0.000000 0.000000
vt 0.200000 0.000000 0.000000
vt -0.000000 0.080000 0.000000
vt 0.200000 0.080000 0.000000
vt 0.000000 0.000000 0.000000
vt 0.080000 0.000000 0.000000
vt 0.000000 0.080000 0.000000
vt 0.080000 0.080000 0.000000
vt 0.000000 -0.000000 0.000000
vt 0.200000 -0.000000 0.000000
vt 0.000000 0.080000 0.000000
vt 0.200000 0.080000 0.000000
vt 0.000000 0.000000 0.000000
vt 0.120000 -0.000000 0.000000
vt 0.000000 0.080000 0.000000
vt 0.120000 0.080000 0.000000
vt -0.000000 0.000000 0.000000
vt 0.320000 0.000000 0.000000
vt -0.000000 0.080000 0.000000
vt 0.320000 0.080000 0.000000
vt 0.000000 0.000000 0.000000
vt 0.200000 0.000000 0.000000
vt -0.000000 0.080000 0.000000
vt 0.200000 0.080000 0.000000
vt -0.000000 0.000000 0.000000
vt 0.080000 0.000000 0.000000
vt -0.000000 0.080000 0.000000
vt 0.080000 0.080000 0.000000
vt 0.000000 0.000000 0.000000
vt 0.400000 0.000000 0.000000
vt -0.000000 0.080000 0.000000
vt 0.400000 0.080000 0.000000
vt 0.000000 0.000000 0.000000
vt 0.320000 0.000000 0.000000
vt 0.000000 0.080000 0.000000
vt 0.320000 0.080000 0.000000
vt 0.000000 0.000000 0.000000
vt 0.120000 0.000000 0.000000
vt 0.000000 0.080000 0.000000
vt 0.120000 0.080000 0.000000
vt -0.000000 0.000000 0.000000
vt 0.200000 -0.000000 0.000000
vt 0.000000 0.080000 0.000000
vt 0.200000 0.080000 0.000000
vt 0.000000 0.000000 0.000000
vt 0.400000 0.000000 0.000000
vt -0.000000 0.080000 0.000000
vt 0.400000 0.080000 0.000000
vt -0.000000 0.000000 0.000000
vt 0.400000 -0.000000 0.000000
vt -0.000000 0.080000 0.000000
vt 0.400000 0.080000 0.000000
vt 0.000000 0.000000 0.000000
vt 0.080000 0.000000 0.000000
vt -0.000000 0.080000 0.000000
vt 0.080000 0.080000 0.000000
vt 0.000000 0.000000 0.000000
vt 0.400000 0.000000 0.000000
vt -0.000000 0.080000 0.000000
vt 0.400000 0.080000 0.000000
vt 0.000000 0.000000 0.000000
vt 0.400000 0.000000 0.000000
vt 0.000000 0.080000 0.000000
vt 0.400000 0.080000 0.000000
vt 0.000000 0.000000 0.000000
vt 0.200000 0.000000 0.000000
vt 0.000000 0.080000 0.000000
vt 0.200000 0.080000 0.000000
vt -0.040000 -0.000000 0.000000
vt 0.480000 0.000000 0.000000
vt -0.040000 0.080000 0.000000
vt 0.480000 0.080000 0.000000
vt 0.040000 0.080000 0.000000
vt -0.040000 0.080000 0.000000
vt 0.040000 0.000000 0.000000
vt -0.040000 -0.000000 0.000000
vt -0.040000 0.000000 0.000000
vt 0.160000 -0.000000 0.000000
vt -0.040000 0.080000 0.000000
vt 0.160000 0.080000 0.000000
vt 0.000000 0.000000 0.000000
vt 0.080000 0.000000 0.000000
vt -0.000000 0.080000 0.000000
vt 0.080000 0.080000 0.000000
vn 1.000000 0.000000 0.000000
vn 1.000000 0.000000 0.000000
vn 1.000000 0.000000 0.000000
vn 1.000000 0.000000 0.000000
vn -0.000000 1.000000 0.000000
vn -0.000000 1.000000 0.000000
vn -0.000000 1.000000 0.000000
vn -0.000000 1.000000 0.000000
vn 0.000000 -0.000000 1.000000
vn 0.000000 -0.000000 1.000000
vn 0.000000 -0.000000 1.000000
vn 0.000000 -0.000000 1.000000
vn 0.000000 -0.000000 1.000000
vn 0.000000 -0.000000 1.000000
vn 0.000000 -0.000000 1.000000
vn 0.000000 -0.000000 1.000000
vn 0.000000 -0.000000 1.000000
vn 0.000000 -0.000000 1.000000
vn 0.000000 -0.000000 1.000000
vn 0.000000 -0.000000 1.000000
vn 0.000000 -0.000000 1.000000
vn 0.000000 -0.000000 1.000000
vn 0.000000 -0.000000 1.000000
vn 0.000000 -0.000000 1.000000
vn 0.000000 -0.000000 1.000000
vn 0.000000 -0.000000 1.000000
vn 0.000000 -0.000000 1.000000
vn 0.000000 -0.000000 1.000000
vn 0.000000 -0.000000 1.000000
vn 0.000000 -0.000000 1.000000
vn 0.000000 -0.000000 1.000000
vn 0.000000 -0.000000 1.000000
vn 0.000000 -0.000000 1.000000
vn 0.000000 -0.000000 1.000000
vn 0.000000 -0.000000 1.000000
vn 0.000000 -0.000000 1.000000
vn 0.000000 -0.000000 1.000000
vn 0.000000 -0.000000 1.000000
vn 0.000000 -0.000000 1.000000
vn 0.000000 -0.000000 1.000000
vn 0.000000 -0.000000 1.000000
vn 0.000000 -0.000000 1.000000
vn 0.000000 -0.000000 1.000000
vn 0.000000 -0.000000 1.000000
vn 0.000000 -0.000000 1.000000
vn 0.000000 -0.000000 1.000000
vn 0.000000 -0.000000 1.000000
vn 0.000000 -0.000000 1.000000
vn 0.000000 -0.000000 1.000000
vn 0.000000 -0.000000 1.000000
vn 0.000000 -0.000000 1.000000
vn 0.000000 -0.000000 1.000000
vn 0.000000 -0.000000 1.000000
vn 0.000000 -0.000000 1.000000
vn 0.000000 -0.000000 1.000000
vn 0.000000 -0.000000 1.000000
vn 0.000000 -0.000000 1.000000
vn 0.000000 -0.000000 1.000000
vn 0.000000 -0.000000 1.000000
vn 0.000000 -0.000000 1.000000
vn 0.000000 -0.000000 1.000000
vn 0.000000 -0.000000 1.000000
vn 0.000000 -0.000000 1.000000
vn 0.000000 -0.000000 1.000000
vn 0.000000 -0.000000 1.000000
vn 0.000000 -0.000000 1.000000
vn 0.000000 -0.000000 1.000000
vn 0.000000 -0.000000 1.000000
vn 0.000000 -0.000000 1.000000
vn 0.000000 -0.000000 1.000000
vn 0.000000 -0.000000 1.000000
vn 0.000000 -0.000000 1.000000
vn 0.000000 -0.000000 1.000000
vn 0.000000 -0.000000 1.000000
vn 0.000000 -0.000000 1.000000
vn 0.000000 -0.000000 1.000000
vn 0.000000 -0.000000 1.000000
vn 0.000000 -0.000000 1.000000
vn 0.000000 -0.000000 1.000000
vn 0.000000 -0.000000 1.000000
vn 0.000000 -0.000000 1.000000
vn 0.000000 -0.000000 1.000000
vn 0.000000 -0.000000 1.000000
vn 0.000000 -0.000000 1.000000
vn 0.000000 -0.000000 1.000000
vn 0.000000 -0.000000 1.000000
vn 0.000000 -0.000000 1.000000
vn 0.000000 -0.000000 1.000000
vn 0.000000 -0.000000 1.000000
vn 0.000000 -0.000000 1.000000
vn 0.000000 -0.000000 1.000000
vn 0.000000 -0.000000 1.000000
vn 0.000000 -0.000000 1.000000
vn 0.000000 -0.000000 1.000000
vn 0.000000 -0.000000 1.000000
vn 0.000000 -0.000000 1.000000
vn 0.000000 -0.000000 1.000000
vn 0.000000 -0.000000 1.000000
vn 0.000000 -0.000000 1.000000
vn 0.000000 -0.000000 1.000000
vn 0.000000 -0.000000 1.000000
vn 0.000000 -0.000000 1.000000
vn 0.000000 -0.000000 1.000000
vn 0.000000 -0.000000 1.000000
vn 0.000000 -0.000000 1.000000
vn 0.000000 -0.000000 1.000000
vn 0.000000 -0.000000 1.000000
vn 0.000000 -0.000000 1.000000
vn 0.000000 -0.000000 1.000000
vn 0.000000 -0.000000 1.000000
vn 0.000000 -0.000000 1.000000
vn 0.000000 -0.000000 1.000000
vn 0.000000 -0.000000 1.000000
vn 0.000000 -0.000000 1.000000
vn 0.000000 -0.000000 1.000000
vn 0.000000 -0.000000 1.000000
vn 0.000000 -0.000000 1.000000
vn 0.000000 -0.000000 1.000000
vn 0.000000 -0.000000 1.000000
vn 0.000000 -0.000000 1.000000
vn 0.000000 -0.000000 1.000000
vn 0.000000 -0.000000 1.000000
vn 0.000000 -0.000000 1.000000
vn 0.000000 -0.000000 1.000000
vn 0.000000 -0.000000 1.000000
vn 0.000000 -0.000000 1.000000
vn 0.000000 -0.000000 1.000000
vn 0.000000 -0.000000 1.000000
vn 0.000000 -0.000000 1.000000
vn 0.000000 -0.000000 1.000000
vn 0.000000 -0.000000 1.000000
vn 0.000000 -0.000000 1.000000
vn 0.000000 -0.000000 1.000000
vn 0.000000 -0.000000 1.000000
vn 0.000000 -0.000000 1.000000
vn 0.000000 -0.000000 1.000000
vn -0.000000 1.000000 0.000000
vn -0.000000 1.000000 0.000000
vn -0.000000 1.000000 0.000000
vn -0.000000 1.000000 0.000000
vn 0.000000 -1.000000 -0.000000
vn 0.000000 -1.000000 -0.000000
vn 0.000000 -1.000000 -0.000000
vn 0.000000 -1.000000 -0.000000
vn 1.000000 0.000000 0.000000
vn 1.000000 0.000000 0.000000
vn 1.000000 0.000000 0.000000
vn 1.000000 0.000000 0.000000
vn 1.000000 0.000000 0.000000
vn 1.000000 0.000000 0.000000
vn 1.000000 0.000000 0.000000
vn 1.000000 0.000000 0.000000
vn -0.000000 1.000000 0.000000
vn -0.000000 1.000000 0.000000
vn -0.000000 1.000000 0.000000
vn -0.000000 1.000000 0.000000
vn 1.000000 0.000000 0.000000
vn 1.000000 0.000000 0.000000
vn 1.000000 0.000000 0.000000
vn 1.000000 0.000000 0.000000
vn -0.000000 1.000000 0.000000
vn -0.000000 1.000000 0.000000
vn -0.000000 1.000000 0.000000
vn -0.000000 1.000000 0.000000
vn 1.000000 0.000000 0.000000
vn 1.000000 0.000000 0.000000
vn 1.000000 0.000000 0.000000
vn 1.000000 0.000000 0.000000
vn -0.000000 0.000000 -1.000000
vn -0.000000 0.000000 -1.000000
vn -0.000000 0.000000 -1.000000
vn -0.000000 0.000000 -1.000000
vn -0.000000 0.000000 -1.000000
vn -0.000000 0.000000 -1.000000
vn -0.000000 0.000000 -1.000000
vn -0.000000 0.000000 -1.000000
vn -0.000000 0.000000 -1.000000
vn -0.000000 0.000000 -1.000000
vn -0.000000 0.000000 -1.000000
vn -0.000000 0.000000 -1.000000
vn -0.000000 0.000000 -1.000000
vn -0.000000 0.000000 -1.000000
vn -0.000000 0.000000 -1.000000
vn -0.000000 0.000000 -1.000000
vn -0.000000 0.000000 -1.000000
vn -0.000000 0.000000 -1.000000
vn -0.000000 0.000000 -1.000000
vn -0.000000 0.000000 -1.000000
vn -0.000000 0.000000 -1.000000
vn -0.000000 0.000000 -1.000000
vn -0.000000 0.000000 -1.000000
vn -0.000000 0.000000 -1.000000
vn -0.000000 0.000000 -1.000000
vn -0.000000 0.000000 -1.000000
vn -0.000000 0.000000 -1.000000
vn -0.000000 0.000000 -1.000000
vn -0.000000 0.000000 -1.000000
vn -0.000000 0.000000 -1.000000
vn -0.000000 0.000000 -1.000000
vn -0.000000 0.000000 -1.000000
vn -0.000000 0.000000 -1.000000
vn -0.000000 0.000000 -1.000000
vn -0.000000 0.000000 -1.000000
vn -0.000000 0.000000 -1.000000
vn -0.000000 0.000000 -1.000000
vn -0.000000 0.000000 -1.000000
vn -0.000000 0.000000 -1.000000
vn -0.000000 0.000000 -1.000000
vn -0.000000 0.000000 -1.000000
vn -0.000000 0.000000 -1.000000
vn -0.000000 0.000000 -1.000000
vn -0.000000 0.000000 -1.000000
vn -0.000000 0.000000 -1.000000
vn -0.000000 0.000000 -1.000000
vn -0.000000 0.000000 -1.000000
vn -0.000000 0.000000 -1.000000
vn -0.000000 0.000000 -1.000000
vn -0.000000 0.000000 -1.000000
vn -0.000000 0.000000 -1.000000
vn -0.000000 0.000000 -1.000000
vn -0.000000 0.000000 -1.000000
vn -0.000000 0.000000 -1.000000
vn -0.000000 0.000000 -1.000000
vn -0.000000 0.000000 -1.000000
vn -0.000000 0.000000 -1.000000
vn -0.000000 0.000000 -1.000000
vn -0.000000 0.000000 -1.000000
vn -0.000000 0.000000 -1.000000
vn -0.000000 0.000000 -1.000000
vn -0.000000 0.000000 -1.000000
vn -0.000000 0.000000 -1.000000
vn -0.000000 0.000000 -1.000000
vn -0.000000 0.000000 -1.000000
vn -0.000000 0.000000 -1.000000
vn -0.000000 0.000000 -1.000000
vn -0.000000 0.000000 -1.000000
vn -0.000000 0.000000 -1.000000
vn -0.000000 0.000000 -1.000000
vn -0.000000 0.000000 -1.000000
vn -0.000000 0.000000 -1.000000
vn -0.000000 0.000000 -1.000000
vn -0.000000 0.000000 -1.000000
vn -0.000000 0.000000 -1.000000
vn -0.000000 0.000000 -1.000000
vn -0.000000 0.000000 -1.000000
vn -0.000000 0.000000 -1.000000
vn -0.000000 0.000000 -1.000000
vn -0.000000 0.000000 -1.000000
vn -0.000000 0.000000 -1.000000
vn -0.000000 0.000000 -1.000000
vn -0.000000 0.000000 -1.000000
vn -0.000000 0.000000 -1.000000
vn -0.000000 0.000000 -1.000000
vn -0.000000 0.000000 -1.000000
vn -0.000000 0.000000 -1.000000
vn -0.000000 0.000000 -1.000000
vn -0.000000 0.000000 -1.000000
vn -0.000000 0.000000 -1.000000
vn -0.000000 0.000000 -1.000000
vn -0.000000 0.000000 -1.000000
vn -0.000000 0.000000 -1.000000
vn -0.000000 0.000000 -1.000000
vn -0.000000 0.000000 -1.000000
vn -0.000000 0.000000 -1.000000
vn -0.000000 0.000000 -1.000000
vn -0.000000 0.000000 -1.000000
vn -0.000000 0.000000 -1.000000
vn -0.000000 0.000000 -1.000000
vn -0.000000 0.000000 -1.000000
vn -0.000000 0.000000 -1.000000
vn -0.000000 0.000000 -1.000000
vn -0.000000 0.000000 -1.000000
vn -0.000000 0.000000 -1.000000
vn -0.000000 0.000000 -1.000000
vn -0.000000 0.000000 -1.000000
vn -0.000000 0.000000 -1.000000
vn -0.000000 0.000000 -1.000000
vn -0.000000 0.000000 -1.000000
vn -0.000000 0.000000 -1.000000
vn -0.000000 0.000000 -1.000000
vn -0.000000 0.000000 -1.000000
vn -0.000000 0.000000 -1.000000
vn -0.000000 0.000000 -1.000000
vn -0.000000 0.000000 -1.000000
vn -0.000000 0.000000 -1.000000
vn -0.000000 0.000000 -1.000000
vn -0.000000 0.000000 -1.000000
vn -0.000000 0.000000 -1.000000
vn -0.000000 0.000000 -1.000000
vn -0.000000 0.000000 -1.000000
vn -0.000000 0.000000 -1.000000
vn -0.000000 0.000000 -1.000000
vn -0.000000 0.000000 -1.000000
vn -0.000000 0.000000 -1.000000
vn -0.000000 0.000000 -1.000000
vn -0.000000 0.000000 -1.000000
vn -0.000000 1.000000 0.000000
vn -0.000000 1.000000 0.000000
vn -0.000000 1.000000 0.000000
vn -0.000000 1.000000 0.000000
vn -1.000000 -0.000000 -0.000000
vn -1.000000 -0.000000 -0.000000
vn -1.000000 -0.000000 -0.000000
vn -1.000000 -0.000000 -0.000000
vn 0.000000 -1.000000 -0.000000
vn 0.000000 -1.000000 -0.000000
vn 0.000000 -1.000000 -0.000000
vn 0.000000 -1.000000 -0.000000
vn 1.000000 0.000000 0.000000
vn 1.000000 0.000000 0.000000
vn 1.000000 0.000000 0.000000
vn 1.000000 0.000000 0.000000
vn -0.000000 1.000000 0.000000
vn -0.000000 1.000000 0.000000
vn -0.000000 1.000000 0.000000
vn -0.000000 1.000000 0.000000
vn 1.000000 0.000000 0.000000
vn 1.000000 0.000000 0.000000
vn 1.000000 0.000000 0.000000
vn 1.000000 0.000000 0.000000
vn 0.000000 -1.000000 -0.000000
vn 0.000000 -1.000000 -0.000000
vn 0.000000 -1.000000 -0.000000
vn 0.000000 -1.000000 -0.000000
vn -0.000000 1.000000 0.000000
vn -0.000000 1.000000 0.000000
vn -0.000000 1.000000 0.000000
vn -0.000000 1.000000 0.000000
vn 1.000000 0.000000 0.000000
vn 1.000000 0.000000 0.000000
vn 1.000000 0.000000 0.000000
vn 1.000000 0.000000 0.000000
vn 0.000000 -1.000000 -0.000000
vn 0.000000 -1.000000 -0.000000
vn 0.000000 -1.000000 -0.000000
vn 0.000000 -1.000000 -0.000000
vn -0.000000 1.000000 0.000000
vn -0.000000 1.000000 0.000000
vn -0.000000 1.000000 0.000000
vn -0.000000 1.000000 0.000000
vn -1.000000 -0.000000 -0.000000
vn -1.000000 -0.000000 -0.000000
vn -1.000000 -0.000000 -0.000000
vn -1.000000 -0.000000 -0.000000
vn 1.000000 0.000000 0.000000
vn 1.000000 0.000000 0.000000
vn 1.000000 0.000000 0.000000
vn 1.000000 0.000000 0.000000
vn 0.000000 -1.000000 -0.000000
vn 0.000000 -1.000000 -0.000000
vn 0.000000 -1.000000 -0.000000
vn 0.000000 -1.000000 -0.000000
vn -1.000000 -0.000000 -0.000000
vn -1.000000 -0.000000 -0.000000
vn -1.000000 -0.000000 -0.000000
vn -1.000000 -0.000000 -0.000000
vn -0.000000 1.000000 0.000000
vn -0.000000 1.000000 0.000000
vn -0.000000 1.000000 0.000000
vn -0.000000 1.000000 0.000000
vn 1.000000 0.000000 0.000000
vn 1.000000 0.000000 0.000000
vn 1.000000 0.000000 0.000000
vn 1.000000 0.000000 0.000000
vn -1.000000 -0.000000 -0.000000
vn -1.000000 -0.000000 -0.000000
vn -1.000000 -0.000000 -0.000000
vn -1.000000 -0.000000 -0.000000
vn 0.000000 -1.000000 -0.000000
vn 0.000000 -1.000000 -0.000000
vn 0.000000 -1.000000 -0.000000
vn 0.000000 -1.000000 -0.000000
vn 1.000000 0.000000 0.000000
vn 1.000000 0.000000 0.000000
vn 1.000000 0.000000 0.000000
vn 1.000000 0.000000 0.000000
vn 0.000000 -1.000000 -0.000000
vn 0.000000 -1.000000 -0.000000
vn 0.000000 -1.000000 -0.000000
vn 0.000000 -1.000000 -0.000000
vn -1.000000 -0.000000 -0.000000
vn -1.000000 -0.000000 -0.000000
vn -1.000000 -0.000000 -0.000000
vn -1.000000 -0.000000 -0.000000
vn 0.000000 -1.000000 -0.000000
vn 0.000000 -1.000000 -0.000000
vn 0.000000 -1.000000 -0.000000
vn 0.000000 -1.000000 -0.000000
vn -1.000000 -0.000000 -0.000000
vn -1.000000 -0.000000 -0.000000
vn -1.000000 -0.000000 -0.000000
vn -1.000000 -0.000000 -0.000000
vn -0.000000 1.000000 0.000000
vn -0.000000 1.000000 0.000000
vn -0.000000 1.000000 0.000000
vn -0.000000 1.000000 0.000000
vn -1.000000 -0.000000 -0.000000
vn -1.000000 -0.000000 -0.000000
vn -1.000000 -0.000000 -0.000000
vn -1.000000 -0.000000 -0.000000
vn -0.000000 1.000000 0.000000
vn -0.000000 1.000000 0.000000
vn -0.000000 1.000000 0.000000
vn -0.000000 1.000000 0.000000
vn -1.000000 -0.000000 -0.000000
vn -1.000000 -0.000000 -0.000000
vn -1.000000 -0.000000 -0.000000
vn -1.000000 -0.000000 -0.000000
vn 0.000000 -1.000000 -0.000000
vn 0.000000 -1.000000 -0.000000
vn 0.000000 -1.000000 -0.000000
vn 0.000000 -1.000000 -0.000000
vn -1.000000 -0.000000 -0.000000
vn -1.000000 -0.000000 -0.000000
vn -1.000000 -0.000000 -0.000000
vn -1.000000 -0.000000 -0.000000
vn 0.000000 -1.000000 -0.000000
vn 0.000000 -1.000000 -0.000000
vn 0.000000 -1.000000 -0.000000
vn 0.000000 -1.000000 -0.000000
vn 1.000000 0.000000 0.000000
vn 1.000000 0.000000 0.000000
vn 1.000000 0.000000 0.000000
vn 1.000000 0.000000 0.000000
vn -0.000000 1.000000 0.000000
vn -0.000000 1.000000 0.000000
vn -0.000000 1.000000 0.000000
vn -0.000000 1.000000 0.000000
vn 1.000000 0.000000 0.000000
vn 1.000000 0.000000 0.000000
vn 1.000000 0.000000 0.000000
vn 1.000000 0.000000 0.000000
vn 0.000000 -1.000000 -0.000000
vn 0.000000 -1.000000 -0.000000
vn 0.000000 -1.000000 -0.000000
vn 0.000000 -1.000000 -0.000000
vn 1.000000 0.000000 0.000000
vn 1.000000 0.000000 0.000000
vn 1.000000 0.000000 0.000000
vn 1.000000 0.000000 0.000000
vn 0.000000 -1.000000 -0.000000
vn 0.000000 -1.000000 -0.000000
vn 0.000000 -1.000000 -0.000000
vn 0.000000 -1.000000 -0.000000
vn -1.000000 -0.000000 -0.000000
vn -1.000000 -0.000000 -0.000000
vn -1.000000 -0.000000 -0.000000
vn -1.000000 -0.000000 -0.000000
vn 0.000000 -1.000000 -0.000000
vn 0.000000 -1.000000 -0.000000
vn 0.000000 -1.000000 -0.000000
vn 0.000000 -1.000000 -0.000000
vn -1.000000 -0.000000 -0.000000
vn -1.000000 -0.000000 -0.000000
vn -1.000000 -0.000000 -0.000000
vn -1.000000 -0.000000 -0.000000
vn -0.000000 1.000000 0.000000
vn -0.000000 1.000000 0.000000
vn -0.000000 1.000000 0.000000
vn -0.000000 1.000000 0.000000
vn 1.000000 0.000000 0.000000
vn 1.000000 0.000000 0.000000
vn 1.000000 0.000000 0.000000
vn 1.000000 0.000000 0.000000
vn -0.000000 1.000000 0.000000
vn -0.000000 1.000000 0.000000
vn -0.000000 1.000000 0.000000
vn -0.000000 1.000000 0.000000
vn 0.000000 -1.000000 -0.000000
vn 0.000000 -1.000000 -0.000000
vn 0.000000 -1.000000 -0.000000
vn 0.000000 -1.000000 -0.000000
vn 1.000000 0.000000 0.000000
vn 1.000000 0.000000 0.000000
vn 1.000000 0.000000 0.000000
vn 1.000000 0.000000 0.000000
vn -0.000000 1.000000 0.000000
vn -0.000000 1.000000 0.000000
vn -0.000000 1.000000 0.000000
vn -0.000000 1.000000 0.000000
vn -1.000000 -0.000000 -0.000000
vn -1.000000 -0.000000 -0.000000
vn -1.000000 -0.000000 -0.000000
vn -1.000000 -0.000000 -0.000000
vn 0.000000 -1.000000 -0.000000
vn 0.000000 -1.000000 -0.000000
vn 0.000000 -1.000000 -0.000000
vn 0.000000 -1.000000 -0.000000
vn -1.000000 -0.000000 -0.000000
vn -1.000000 -0.000000 -0.000000
vn -1.000000 -0.000000 -0.000000
vn -1.000000 -0.000000 -0.000000
vn -0.000000 1.000000 0.000000
vn -0.000000 1.000000 0.000000
vn -0.000000 1.000000 0.000000
vn -0.000000 1.000000 0.000000
vn -1.000000 -0.000000 -0.000000
vn -1.000000 -0.000000 -0.000000
vn -1.000000 -0.000000 -0.000000
vn -1.000000 -0.000000 -0.000000
vn 0.000000 -1.000000 -0.000000
vn 0.000000 -1.000000 -0.000000
vn 0.000000 -1.000000 -0.000000
vn 0.000000 -1.000000 -0.000000
vn -1.000000 -0.000000 -0.000000
vn -1.000000 -0.000000 -0.000000
vn -1.000000 -0.000000 -0.000000
vn -1.000000 -0.000000 -0.000000
vn -0.000000 1.000000 0.000000
vn -0.000000 1.000000 0.000000
vn -0.000000 1.000000 0.000000
vn -0.000000 1.000000 0.000000
vn -1.000000 -0.000000 -0.000000
vn -1.000000 -0.000000 -0.000000
vn -1.000000 -0.000000 -0.000000
vn -1.000000 -0.000000 -0.000000
vn 0.000000 -1.000000 -0.000000
vn 0.000000 -1.000000 -0.000000
vn 0.000000 -1.000000 -0.000000
vn 0.000000 -1.000000 -0.000000
vn -1.000000 -0.000000 -0.000000
vn -1.000000 -0.000000 -0.000000
vn -1.000000 -0.000000 -0.000000
vn -1.000000 -0.000000 -0.000000
vn 0.000000 -1.000000 -0.000000
vn 0.000000 -1.000000 -0.000000
vn 0.000000 -1.000000 -0.000000
vn 0.000000 -1.000000 -0.000000
vn -1.000000 -0.000000 -0.000000
vn -1.000000 -0.000000 -0.000000
vn -1.000000 -0.000000 -0.000000
vn -1.000000 -0.000000 -0.000000
vn -0.000000 1.000000 0.000000
vn -0.000000 1.000000 0.000000
vn -0.000000 1.000000 0.000000
vn -0.000000 1.000000 0.000000
vn 1.000000 0.000000 0.000000
vn 1.000000 0.000000 0.000000
vn 1.000000 0.000000 0.000000
vn 1.000000 0.000000 0.000000
vn -0.000000 1.000000 0.000000
vn -0.000000 1.000000 0.000000
vn -0.000000 1.000000 0.000000
vn -0.000000 1.000000 0.000000
vn -1.000000 -0.000000 -0.000000
vn -1.000000 -0.000000 -0.000000
vn -1.000000 -0.000000 -0.000000
vn -1.000000 -0.000000 -0.000000
vn -0.000000 1.000000 0.000000
vn -0.000000 1.000000 0.000000
vn -0.000000 1.000000 0.000000
vn -0.000000 1.000000 0.000000
vn 1.000000 0.000000 0.000000
vn 1.000000 0.000000 0.000000
vn 1.000000 0.000000 0.000000
vn 1.000000 0.000000 0.000000
vn -0.000000 1.000000 0.000000
vn -0.000000 1.000000 0.000000
vn -0.000000 1.000000 0.000000
vn -0.000000 1.000000 0.000000
vn -1.000000 -0.000000 -0.000000
vn -1.000000 -0.000000 -0.000000
vn -1.000000 -0.000000 -0.000000
vn -1.000000 -0.000000 -0.000000
vn -0.000000 1.000000 0.000000
vn -0.000000 1.000000 0.000000
vn -0.000000 1.000000 0.000000
vn -0.000000 1.000000 0.000000
vn 1.000000 0.000000 0.000000
vn 1.000000 0.000000 0.000000
vn 1.000000 0.000000 0.000000
vn 1.000000 0.000000 0.000000
vn 0.000000 -1.000000 -0.000000
vn 0.000000 -1.000000 -0.000000
vn 0.000000 -1.000000 -0.000000
vn 0.000000 -1.000000 -0.000000
vn 1.000000 0.000000 0.000000
vn 1.000000 0.000000 0.000000
vn 1.000000 0.000000 0.000000
vn 1.000000 0.000000 0.000000
vn -0.000000 1.000000 0.000000
vn -0.000000 1.000000 0.000000
vn -0.000000 1.000000 0.000000
vn -0.000000 1.000000 0.000000
vn -1.000000 -0.000000 -0.000000
vn -1.000000 -0.000000 -0.000000
vn -1.000000 -0.000000 -0.000000
vn -1.000000 -0.000000 -0.000000
vn -0.000000 1.000000 0.000000
vn -0.000000 1.000000 0.000000
vn -0.000000 1.000000 0.000000
vn -0.000000 1.000000 0.000000
vn 1.000000 0.000000 0.000000
vn 1.000000 0.000000 0.000000
vn 1.000000 0.000000 0.000000
vn 1.000000 0.000000 0.000000
vn 0.000000 -1.000000 -0.000000
vn 0.000000 -1.000000 -0.000000
vn 0.000000 -1.000000 -0.000000
vn 0.000000 -1.000000 -0.000000
vn 1.000000 0.000000 0.000000
vn 1.000000 0.000000 0.000000
vn 1.000000 0.000000 0.000000
vn 1.000000 0.000000 0.000000
vn -0.000000 1.000000 0.000000
vn -0.000000 1.000000 0.000000
vn -0.000000 1.000000 0.000000
vn -0.000000 1.000000 0.000000
vn -1.000000 -0.000000 -0.000000
vn -1.000000 -0.000000 -0.000000
vn -1.000000 -0.000000 -0.000000
vn -1.000000 -0.000000 -0.000000
vn -0.000000 1.000000 0.000000
vn -0.000000 1.000000 0.000000
vn -0.000000 1.000000 0.000000
vn -0.000000 1.000000 0.000000
vn -1.000000 -0.000000 -0.000000
vn -1.000000 -0.000000 -0.000000
vn -1.000000 -0.000000 -0.000000
vn -1.000000 -0.000000 -0.000000
vn 0.000000 -1.000000 -0.000000
vn 0.000000 -1.000000 -0.000000
vn 0.000000 -1.000000 -0.000000
vn 0.000000 -1.000000 -0.000000
vn -1.000000 -0.000000 -0.000000
vn -1.000000 -0.000000 -0.000000
vn -1.000000 -0.000000 -0.000000
vn -1.000000 -0.000000 -0.000000
vn -0.000000 1.000000 0.000000
vn -0.000000 1.000000 0.000000
vn -0.000000 1.000000 0.000000
vn -0.000000 1.000000 0.000000
vn 1.000000 0.000000 0.000000
vn 1.000000 0.000000 0.000000
vn 1.000000 0.000000 0.000000
vn 1.000000 0.000000 0.000000
vn 0.000000 -1.000000 -0.000000
vn 0.000000 -1.000000 -0.000000
vn 0.000000 -1.000000 -0.000000
vn 0.000000 -1.000000 -0.000000
vn 1.000000 0.000000 0.000000
vn 1.000000 0.000000 0.000000
vn 1.000000 0.000000 0.000000
vn 1.000000 0.000000 0.000000
vn -0.000000 1.000000 0.000000
vn -0.000000 1.000000 0.000000
vn -0.000000 1.000000 0.000000
vn -0.000000 1.000000 0.000000
vn 1.000000 0.000000 0.000000
vn 1.000000 0.000000 0.000000
vn 1.000000 0.000000 0.000000
vn 1.000000 0.000000 0.000000
vn 0.000000 -1.000000 -0.000000
vn 0.000000 -1.000000 -0.000000
vn 0.000000 -1.000000 -0.000000
vn 0.000000 -1.000000 -0.000000
vn -1.000000 -0.000000 -0.000000
vn -1.000000 -0.000000 -0.000000
vn -1.000000 -0.000000 -0.000000
vn -1.000000 -0.000000 -0.000000
vn -0.000000 1.000000 0.000000
vn -0.000000 1.000000 0.000000
vn -0.000000 1.000000 0.000000
vn -0.000000 1.000000 0.000000
vn -1.000000 -0.000000 -0.000000
vn -1.000000 -0.000000 -0.000000
vn -1.000000 -0.000000 -0.000000
vn -1.000000 -0.000000 -0.000000
vn 0.000000 -1.000000 -0.000000
vn 0.000000 -1.000000 -0.000000
vn 0.000000 -1.000000 -0.000000
vn 0.000000 -1.000000 -0.000000
vn 1.000000 0.000000 0.000000
vn 1.000000 0.000000 0.000000
vn 1.000000 0.000000 0.000000
vn 1.000000 0.000000 0.000000
vn 0.000000 -1.000000 -0.000000
vn 0.000000 -1.000000 -0.000000
vn 0.000000 -1.000000 -0.000000
vn 0.000000 -1.000000 -0.000000
vn -1.000000 -0.000000 -0.000000
vn -1.000000 -0.000000 -0.000000
vn -1.000000 -0.000000 -0.000000
vn -1.000000 -0.000000 -0.000000
vn 0.000000 -1.000000 -0.000000
vn 0.000000 -1.000000 -0.000000
vn 0.000000 -1.000000 -0.000000
vn 0.000000 -1.000000 -0.000000
vn -1.000000 -0.000000 -0.000000
vn -1.000000 -0.000000 -0.000000
vn -1.000000 -0.000000 -0.000000
vn -1.000000 -0.000000 -0.000000
vn -0.000000 1.000000 0.000000
vn -0.000000 1.000000 0.000000
vn -0.000000 1.000000 0.000000
vn -0.000000 1.000000 0.000000
vn -1.000000 -0.000000 -0.000000
vn -1.000000 -0.000000 -0.000000
vn -1.000000 -0.000000 -0.000000
vn -1.000000 -0.000000 -0.000000
vn 0.000000 -1.000000 -0.000000
vn 0.000000 -1.000000 -0.000000
vn 0.000000 -1.000000 -0.000000
vn 0.000000 -1.000000 -0.000000
vn 1.000000 0.000000 0.000000
vn 1.000000 0.000000 0.000000
vn 1.000000 0.000000 0.000000
vn 1.000000 0.000000 0.000000
vn 0.000000 -1.000000 -0.000000
vn 0.000000 -1.000000 -0.000000
vn 0.000000 -1.000000 -0.000000
vn 0.000000 -1.000000 -0.000000
vn -1.000000 -0.000000 -0.000000
vn -1.000000 -0.000000 -0.000000
vn -1.000000 -0.000000 -0.000000
vn -1.000000 -0.000000 -0.000000
vn 0.000000 -1.000000 -0.000000
vn 0.000000 -1.000000 -0.000000
vn 0.000000 -1.000000 -0.000000
vn 0.000000 -1.000000 -0.000000
vn 1.000000 0.000000 0.000000
vn 1.000000 0.000000 0.000000
vn 1.000000 0.000000 0.000000
vn 1.000000 0.000000 0.000000
vn -0.000000 1.000000 0.000000
vn -0.000000 1.000000 0.000000
vn -0.000000 1.000000 0.000000
vn -0.000000 1.000000 0.000000
vn 1.000000 0.000000 0.000000
vn 1.000000 0.000000 0.000000
vn 1.000000 0.000000 0.000000
vn 1.000000 0.000000 0.000000
vn -0.000000 1.000000 0.000000
vn -0.000000 1.000000 0.000000
vn -0.000000 1.000000 0.000000
vn -0.000000 1.000000 0.000000
vn 1.000000 0.000000 0.000000
vn 1.000000 0.000000 0.000000
vn 1.000000 0.000000 0.000000
vn 1.000000 0.000000 0.000000
vn 0.000000 -1.000000 -0.000000
vn 0.000000 -1.000000 -0.000000
vn 0.000000 -1.000000 -0.000000
vn 0.000000 -1.000000 -0.000000
vn 1.000000 0.000000 0.000000
vn 1.000000 0.000000 0.000000
vn 1.000000 0.000000 0.000000
vn 1.000000 0.000000 0.000000
vn 0.000000 -1.000000 -0.000000
vn 0.000000 -1.000000 -0.000000
vn 0.000000 -1.000000 -0.000000
vn 0.000000 -1.000000 -0.000000
vn 1.000000 0.000000 0.000000
vn 1.000000 0.000000 0.000000
vn 1.000000 0.000000 0.000000
vn 1.000000 0.000000 0.000000
vn 1.000000 0.000000 0.000000
vn 1.000000 0.000000 0.000000
vn 1.000000 0.000000 0.000000
vn 1.000000 0.000000 0.000000
vn -1.000000 -0.000000 -0.000000
vn -1.000000 -0.000000 -0.000000
vn -1.000000 -0.000000 -0.000000
vn -1.000000 -0.000000 -0.000000
vn 0.000000 -1.000000 -0.000000
vn 0.000000 -1.000000 -0.000000
vn 0.000000 -1.000000 -0.000000
vn 0.000000 -1.000000 -0.000000
f 73/217/217 74/218/218 76/219/219
f 76/219/219 74/218/218 75/220/220
f 77/221/221 78/222/222 80/223/223
f 80/223/223 78/222/222 79/224/224
f 82/225/225 83/226/226 81/227/227
f 81/227/227 83/226/226 180/228/228
f 81/227/227 180/228/228 181/229/229
f 180/228/228 83/226/226 179/230/230
f 179/230/230 83/226/226 84/231/231
f 179/230/230 84/231/231 172/232/232
f 172/232/232 84/231/231 171/233/233
f 171/233/233 84/231/231 170/234/234
f 170/234/234 84/231/231 85/235/235
f 170/234/234 85/235/235 86/236/236
f 170/234/234 86/236/236 89/237/237
f 89/237/237 86/236/236 87/238/238
f 89/237/237 87/238/238 88/239/239
f 170/234/234 89/237/237 169/240/240
f 169/240/240 89/237/237 90/241/241
f 169/240/240 90/241/241 91/242/242
f 92/243/243 167/244/244 91/242/242
f 91/242/242 167/244/244 168/245/245
f 91/242/242 168/245/245 169/240/240
f 93/246/246 132/247/247 92/243/243
f 92/243/243 132/247/247 133/248/248
f 92/243/243 133/248/248 167/244/244
f 167/244/244 133/248/248 166/249/249
f 166/249/249 133/248/248 136/250/250
f 166/249/249 136/250/250 143/251/251
f 143/251/251 136/250/250 137/252/252
f 143/251/251 137/252/252 142/253/253
f 142/253/253 137/252/252 141/254/254
f 141/254/254 137/252/252 138/255/255
f 141/254/254 138/255/255 139/256/256
f 94/257/257 96/258/258 93/246/246
f 93/246/246 96/258/258 121/259/259
f 93/246/246 121/259/259 122/260/260
f 94/257/257 95/261/261 96/258/258
f 96/258/258 97/262/262 121/259/259
f 121/259/259 97/262/262 120/263/263
f 120/263/263 97/262/262 112/264/264
f 120/263/263 112/264/264 119/265/265
f 119/265/265 112/264/264 118/266/266
f 118/266/266 112/264/264 113/267/267
f 118/266/266 113/267/267 117/268/268
f 117/268/268 113/267/267 114/269/269
f 117/268/268 114/269/269 115/270/270
f 112/264/264 97/262/262 111/271/271
f 111/271/271 97/262/262 98/272/272
f 111/271/271 98/272/272 101/273/273
f 101/273/273 98/272/272 99/274/274
f 101/273/273 99/274/274 100/275/275
f 111/271/271 101/273/273 104/276/276
f 104/276/276 101/273/273 102/277/277
f 104/276/276 102/277/277 103/278/278
f 104/276/276 105/279/279 111/271/271
f 111/271/271 105/279/279 110/280/280
f 110/280/280 105/279/279 109/281/281
f 109/281/281 105/279/279 106/282/282
f 109/281/281 106/282/282 108/283/283
f 108/283/283 106/282/282 107/284/284
f 115/270/270 116/285/285 117/268/268
f 123/286/286 126/287/287 122/260/260
f 122/260/260 126/287/287 127/288/288
f 122/260/260 127/288/288 93/246/246
f 93/246/246 127/288/288 132/247/247
f 123/286/286 124/289/289 126/287/287
f 126/287/287 124/289/289 125/290/290
f 127/288/288 128/291/291 132/247/247
f 132/247/247 128/291/291 131/292/292
f 131/292/292 128/291/291 130/293/293
f 130/293/293 128/291/291 129/294/294
f 134/295/295 135/296/296 133/248/248
f 133/248/248 135/296/296 136/250/250
f 139/256/256 140/297/297 141/254/254
f 143/251/251 144/298/298 166/249/249
f 166/249/249 144/298/298 165/299/299
f 165/299/299 144/298/298 147/300/300
f 165/299/299 147/300/300 148/301/301
f 144/298/298 145/302/302 147/300/300
f 147/300/300 145/302/302 146/303/303
f 149/304/304 150/305/305 148/301/301
f 148/301/301 150/305/305 151/306/306
f 148/301/301 151/306/306 165/299/299
f 165/299/299 151/306/306 164/307/307
f 164/307/307 151/306/306 163/308/308
f 163/308/308 151/306/306 152/309/309
f 163/308/308 152/309/309 162/310/310
f 162/310/310 152/309/309 159/311/311
f 162/310/310 159/311/311 161/312/312
f 161/312/312 159/311/311 160/313/313
f 152/309/309 153/314/314 159/311/311
f 159/311/311 153/314/314 158/315/315
f 158/315/315 153/314/314 154/316/316
f 158/315/315 154/316/316 155/317/317
f 155/317/317 154/316/316 76/318/318
f 155/317/317 76/318/318 75/319/319
f 156/320/320 157/321/321 155/317/317
f 155/317/317 157/321/321 158/315/315
f 173/322/322 175/323/323 172/232/232
f 172/232/232 175/323/323 178/324/324
f 172/232/232 178/324/324 179/230/230
f 173/322/322 174/325/325 175/323/323
f 176/326/326 177/327/327 175/323/323
f 175/323/323 177/327/327 178/324/324
f 182/328/328 184/329/329 181/229/229
f 181/229/229 184/329/329 204/330/330
f 181/229/229 204/330/330 81/227/227
f 182/328/328 183/331/331 184/329/329
f 184/329/329 185/332/332 204/330/330
f 204/330/330 185/332/332 186/333/333
f 204/330/330 186/333/333 189/334/334
f 189/334/334 186/333/333 188/335/335
f 188/335/335 186/333/333 187/336/336
f 188/335/335 187/336/336 80/337/337
f 80/337/337 79/338/338 188/335/335
f 189/334/334 190/339/339 204/330/330
f 204/330/330 190/339/339 193/340/340
f 204/330/330 193/340/340 203/341/341
f 203/341/341 193/340/340 194/342/342
f 203/341/341 194/342/342 197/343/343
f 197/343/343 194/342/342 195/344/344
f 197/343/343 195/344/344 196/345/345
f 191/346/346 192/347/347 190/339/339
f 190/339/339 192/347/347 193/340/340
f 197/343/343 198/348/348 203/341/341
f 203/341/341 198/348/348 202/349/349
f 202/349/349 198/348/348 199/350/350
f 202/349/349 199/350/350 201/351/351
f 201/351/351 199/350/350 200/352/352
f 181/353/353 180/354/354 206/355/355
f 206/355/355 180/354/354 205/356/356
f 199/357/357 198/358/358 207/359/359
f 207/359/359 198/358/358 208/360/360
f 198/361/361 197/362/362 208/363/363
f 208/363/363 197/362/362 209/364/364
f 194/365/365 193/366/366 211/367/367
f 211/367/367 193/366/366 210/368/368
f 83/369/369 82/370/370 213/371/371
f 213/371/371 82/370/370 212/372/372
f 186/373/373 185/374/374 215/375/375
f 215/375/375 185/374/374 214/376/376
f 185/377/377 184/378/378 214/379/379
f 214/379/379 184/378/378 216/380/380
f 190/381/381 189/382/382 218/383/383
f 218/383/383 189/382/382 217/384/384
f 212/385/385 219/386/386 213/387/387
f 213/387/387 219/386/386 205/388/388
f 213/387/387 205/388/388 233/389/389
f 205/388/388 219/386/386 206/390/390
f 206/390/390 219/386/386 220/391/391
f 206/390/390 220/391/391 216/392/392
f 216/392/392 220/391/391 214/393/393
f 214/393/393 220/391/391 215/394/394
f 215/394/394 220/391/391 217/395/395
f 215/394/394 217/395/395 229/396/396
f 221/397/397 210/398/398 220/391/391
f 220/391/391 210/398/398 218/399/399
f 220/391/391 218/399/399 217/395/395
f 222/400/400 208/401/401 221/397/397
f 221/397/397 208/401/401 209/402/402
f 221/397/397 209/402/402 211/403/403
f 211/403/403 209/402/402 226/404/404
f 226/404/404 209/402/402 225/405/405
f 208/401/401 222/400/400 207/406/406
f 207/406/406 222/400/400 223/407/407
f 207/406/406 223/407/407 224/408/408
f 211/403/403 210/398/398 221/397/397
f 210/398/398 227/409/409 218/399/399
f 218/399/399 227/409/409 228/410/410
f 78/411/411 77/412/412 229/396/396
f 229/396/396 77/412/412 230/413/413
f 229/396/396 230/413/413 215/394/394
f 231/414/414 232/415/415 216/392/392
f 216/392/392 232/415/415 206/390/390
f 234/416/416 240/417/417 233/389/389
f 233/389/389 240/417/417 328/418/418
f 233/389/389 328/418/418 213/387/387
f 240/417/417 234/416/416 237/419/419
f 237/419/419 234/416/416 235/420/420
f 237/419/419 235/420/420 236/421/421
f 238/422/422 239/423/423 237/419/419
f 237/419/419 239/423/423 240/417/417
f 240/417/417 241/424/424 328/418/418
f 328/418/418 241/424/424 242/425/425
f 328/418/418 242/425/425 327/426/426
f 327/426/426 242/425/425 326/427/427
f 326/427/427 242/425/425 243/428/428
f 326/427/427 243/428/428 323/429/429
f 323/429/429 243/428/428 322/430/430
f 322/430/430 243/428/428 321/431/431
f 321/431/431 243/428/428 244/432/432
f 321/431/431 244/432/432 245/433/433
f 246/434/434 279/435/435 245/433/433
f 245/433/433 279/435/435 280/436/436
f 245/433/433 280/436/436 320/437/437
f 320/437/437 280/436/436 319/438/438
f 319/438/438 280/436/436 285/439/439
f 319/438/438 285/439/439 286/440/440
f 247/441/441 268/442/442 246/434/434
f 246/434/434 268/442/442 269/443/443
f 246/434/434 269/443/443 276/444/444
f 276/444/444 269/443/443 275/445/445
f 275/445/445 269/443/443 270/446/446
f 275/445/445 270/446/446 271/447/447
f 248/448/448 261/449/449 247/441/441
f 247/441/441 261/449/449 264/450/450
f 247/441/441 264/450/450 265/451/451
f 248/448/448 249/452/452 261/449/449
f 261/449/449 249/452/452 260/453/453
f 260/453/453 249/452/452 250/454/454
f 260/453/453 250/454/454 253/455/455
f 253/455/455 250/454/454 251/456/456
f 253/455/455 251/456/456 252/457/457
f 260/453/453 253/455/455 259/458/458
f 259/458/458 253/455/455 254/459/459
f 259/458/458 254/459/459 258/460/460
f 258/460/460 254/459/459 255/461/461
f 258/460/460 255/461/461 257/462/462
f 257/462/462 255/461/461 256/463/463
f 74/464/464 73/465/465 257/462/462
f 257/462/462 73/465/465 258/460/460
f 261/449/449 262/466/466 264/450/450
f 264/450/450 262/466/466 263/467/467
f 266/468/468 267/469/469 265/451/451
f 265/451/451 267/469/469 268/442/442
f 265/451/451 268/442/442 247/441/441
f 272/470/470 273/471/471 271/447/447
f 271/447/447 273/471/471 274/472/472
f 271/447/447 274/472/472 275/445/445
f 246/434/434 276/444/444 279/435/435
f 279/435/435 276/444/444 277/473/473
f 279/435/435 277/473/473 278/474/474
f 285/439/439 280/436/436 284/475/475
f 284/475/475 280/436/436 281/476/476
f 284/475/475 281/476/476 282/477/477
f 282/477/477 283/478/478 284/475/475
f 287/479/479 288/480/480 286/440/440
f 286/440/440 288/480/480 289/481/481
f 286/440/440 289/481/481 290/482/482
f 286/440/440 290/482/482 319/438/438
f 319/438/438 290/482/482 291/483/483
f 319/438/438 291/483/483 316/484/484
f 316/484/484 291/483/483 315/485/485
f 315/485/485 291/483/483 292/486/486
f 315/485/485 292/486/486 300/487/487
f 300/487/487 292/486/486 293/488/488
f 300/487/487 293/488/488 294/489/489
f 300/487/487 294/489/489 299/490/490
f 299/490/490 294/489/489 295/491/491
f 299/490/490 295/491/491 298/492/492
f 298/492/492 295/491/491 297/493/493
f 297/493/493 295/491/491 296/494/494
f 300/487/487 301/495/495 315/485/485
f 315/485/485 301/495/495 314/496/496
f 314/496/496 301/495/495 311/497/497
f 314/496/496 311/497/497 313/498/498
f 313/498/498 311/497/497 312/499/499
f 302/500/500 307/501/501 301/495/495
f 301/495/495 307/501/501 308/502/502
f 301/495/495 308/502/502 311/497/497
f 311/497/497 308/502/502 310/503/503
f 310/503/503 308/502/502 309/504/504
f 302/500/500 303/505/505 307/501/501
f 307/501/501 303/505/505 306/506/506
f 306/506/506 303/505/505 304/507/507
f 306/506/506 304/507/507 305/508/508
f 317/509/509 318/510/510 316/484/484
f 316/484/484 318/510/510 319/438/438
f 320/437/437 321/431/431 245/433/433
f 324/511/511 325/512/512 323/429/429
f 323/429/429 325/512/512 326/427/427
f 203/513/513 202/514/514 221/515/515
f 221/515/515 202/514/514 222/516/516
f 204/517/517 203/518/518 220/519/519
f 220/519/519 203/518/518 221/520/520
f 81/521/521 204/522/522 219/523/523
f 219/523/523 204/522/522 220/524/524
f 223/525/525 222/526/526 201/527/527
f 201/527/527 222/526/526 202/528/528
f 225/529/529 209/530/530 196/531/531
f 196/531/531 209/530/530 197/532/532
f 226/533/533 225/534/534 195/535/535
f 195/535/535 225/534/534 196/536/536
f 211/537/537 226/538/538 194/539/539
f 194/539/539 226/538/538 195/540/540
f 227/541/541 210/542/542 192/543/543
f 192/543/543 210/542/542 193/544/544
f 228/545/545 227/546/546 191/547/547
f 191/547/547 227/546/546 192/548/548
f 218/549/549 228/550/550 190/551/551
f 190/551/551 228/550/550 191/552/552
f 229/553/553 217/554/554 188/555/555
f 188/555/555 217/554/554 189/556/556
f 78/557/557 229/558/558 79/559/559
f 79/559/559 229/558/558 188/560/560
f 230/561/561 77/562/562 187/563/563
f 187/563/563 77/562/562 80/564/564
f 215/565/565 230/566/566 186/567/567
f 186/567/567 230/566/566 187/568/568
f 231/569/569 216/570/570 183/571/571
f 183/571/571 216/570/570 184/572/572
f 232/573/573 231/574/574 182/575/575
f 182/575/575 231/574/574 183/576/576
f 206/577/577 232/578/578 181/579/579
f 181/579/579 232/578/578 182/580/580
f 233/581/581 205/582/582 179/583/583
f 179/583/583 205/582/582 180/584/584
f 234/585/585 233/586/586 178/587/587
f 178/587/587 233/586/586 179/588/588
f 235/589/589 234/590/590 177/591/591
f 177/591/591 234/590/590 178/592/592
f 236/593/593 235/594/594 176/595/595
f 176/595/595 235/594/594 177/596/596
f 237/597/597 236/598/598 175/599/599
f 175/599/599 236/598/598 176/600/600
f 238/601/601 237/602/602 174/603/603
f 174/603/603 237/602/602 175/604/604
f 239/605/605 238/606/606 173/607/607
f 173/607/607 238/606/606 174/608/608
f 240/609/609 239/610/610 172/611/611
f 172/611/611 239/610/610 173/612/612
f 241/613/613 240/614/614 171/615/615
f 171/615/615 240/614/614 172/616/616
f 242/617/617 241/618/618 170/619/619
f 170/619/619 241/618/618 171/620/620
f 243/621/621 242/622/622 169/623/623
f 169/623/623 242/622/622 170/624/624
f 244/625/625 243/626/626 168/627/627
f 168/627/627 243/626/626 169/628/628
f 245/629/629 244/630/630 167/631/631
f 167/631/631 244/630/630 168/632/632
f 246/633/633 245/634/634 166/635/635
f 166/635/635 245/634/634 167/636/636
f 247/637/637 246/638/638 165/639/639
f 165/639/639 246/638/638 166/640/640
f 248/641/641 247/642/642 164/643/643
f 164/643/643 247/642/642 165/644/644
f 249/645/645 248/646/646 163/647/647
f 163/647/647 248/646/646 164/648/648
f 250/649/649 249/650/650 162/651/651
f 162/651/651 249/650/650 163/652/652
f 251/653/653 250/654/654 161/655/655
f 161/655/655 250/654/654 162/656/656
f 252/657/657 251/658/658 160/659/659
f 160/659/659 251/658/658 161/660/660
f 253/661/661 252/662/662 159/663/663
f 159/663/663 252/662/662 160/664/664
f 254/665/665 253/666/666 158/667/667
f 158/667/667 253/666/666 159/668/668
f 255/669/669 254/670/670 157/671/671
f 157/671/671 254/670/670 158/672/672
f 256/673/673 255/674/674 156/675/675
f 156/675/675 255/674/674 157/676/676
f 257/677/677 256/678/678 155/679/679
f 155/679/679 256/678/678 156/680/680
f 74/681/681 257/682/682 75/683/683
f 75/683/683 257/682/682 155/684/684
f 258/685/685 73/686/686 154/687/687
f 154/687/687 73/686/686 76/688/688
f 259/689/689 258/690/690 153/691/691
f 153/691/691 258/690/690 154/692/692
f 260/693/693 259/694/694 152/695/695
f 152/695/695 259/694/694 153/696/696
f 261/697/697 260/698/698 151/699/699
f 151/699/699 260/698/698 152/700/700
f 262/701/701 261/702/702 150/703/703
f 150/703/703 261/702/702 151/704/704
f 263/705/705 262/706/706 149/707/707
f 149/707/707 262/706/706 150/708/708
f 264/709/709 263/710/710 148/711/711
f 148/711/711 263/710/710 149/712/712
f 265/713/713 264/714/714 147/715/715
f 147/715/715 264/714/714 148/716/716
f 266/717/717 265/718/718 146/719/719
f 146/719/719 265/718/718 147/720/720
f 267/721/721 266/722/722 145/723/723
f 145/723/723 266/722/722 146/724/724
f 268/725/725 267/726/726 144/727/727
f 144/727/727 267/726/726 145/728/728
f 269/729/729 268/730/730 143/731/731
f 143/731/731 268/730/730 144/732/732
f 270/733/733 269/734/734 142/735/735
f 142/735/735 269/734/734 143/736/736
f 271/737/737 270/738/738 141/739/739
f 141/739/739 270/738/738 142/740/740
f 272/741/741 271/742/742 140/743/743
f 140/743/743 271/742/742 141/744/744
f 273/745/745 272/746/746 139/747/747
f 139/747/747 272/746/746 140/748/748
f 274/749/749 273/750/750 138/751/751
f 138/751/751 273/750/750 139/752/752
f 275/753/753 274/754/754 137/755/755
f 137/755/755 274/754/754 138/756/756
f 276/757/757 275/758/758 136/759/759
f 136/759/759 275/758/758 137/760/760
f 277/761/761 276/762/762 135/763/763
f 135/763/763 276/762/762 136/764/764
f 278/765/765 277/766/766 134/767/767
f 134/767/767 277/766/766 135/768/768
f 279/769/769 278/770/770 133/771/771
f 133/771/771 278/770/770 134/772/772
f 280/773/773 279/774/774 132/775/775
f 132/775/775 279/774/774 133/776/776
f 281/777/777 280/778/778 131/779/779
f 131/779/779 280/778/778 132/780/780
f 282/781/781 281/782/782 130/783/783
f 130/783/783 281/782/782 131/784/784
f 283/785/785 282/786/786 129/787/787
f 129/787/787 282/786/786 130/788/788
f 284/789/789 283/790/790 128/791/791
f 128/791/791 283/790/790 129/792/792
f 285/793/793 284/794/794 127/795/795
f 127/795/795 284/794/794 128/796/796
f 286/797/797 285/798/798 126/799/799
f 126/799/799 285/798/798 127/800/800
f 287/801/801 286/802/802 125/803/803
f 125/803/803 286/802/802 126/804/804
f 288/805/805 287/806/806 124/807/807
f 124/807/807 287/806/806 125/808/808
f 289/809/809 288/810/810 123/811/811
f 123/811/811 288/810/810 124/812/812
f 290/813/813 289/814/814 122/815/815
f 122/815/815 289/814/814 123/816/816
f 291/817/817 290/818/818 121/819/819
f 121/819/819 290/818/818 122/820/820
f 292/821/821 291/822/822 120/823/823
f 120/823/823 291/822/822 121/824/824
f 293/825/825 292/826/826 119/827/827
f 119/827/827 292/826/826 120/828/828
f 294/829/829 293/830/830 118/831/831
f 118/831/831 293/830/830 119/832/832
f 295/833/833 294/834/834 117/835/835
f 117/835/835 294/834/834 118/836/836
f 296/837/837 295/838/838 116/839/839
f 116/839/839 295/838/838 117/840/840
f 297/841/841 296/842/842 115/843/843
f 115/843/843 296/842/842 116/844/844
f 298/845/845 297/846/846 114/847/847
f 114/847/847 297/846/846 115/848/848
f 299/849/849 298/850/850 113/851/851
f 113/851/851 298/850/850 114/852/852
f 300/853/853 299/854/854 112/855/855
f 112/855/855 299/854/854 113/856/856
f 301/857/857 300/858/858 111/859/859
f 111/859/859 300/858/858 112/860/860
f 302/861/861 301/862/862 110/863/863
f 110/863/863 301/862/862 111/864/864
f 303/865/865 302/866/866 109/867/867
f 109/867/867 302/866/866 110/868/868
f 304/869/869 303/870/870 108/871/871
f 108/871/871 303/870/870 109/872/872
f 305/873/873 304/874/874 107/875/875
f 107/875/875 304/874/874 108/876/876
f 306/877/877 305/878/878 106/879/879
f 106/879/879 305/878/878 107/880/880
f 307/881/881 306/882/882 105/883/883
f 105/883/883 306/882/882 106/884/884
f 308/885/885 307/886/886 104/887/887
f 104/887/887 307/886/886 105/888/888
f 309/889/889 308/890/890 103/891/891
f 103/891/891 308/890/890 104/892/892
f 310/893/893 309/894/894 102/895/895
f 102/895/895 309/894/894 103/896/896
f 311/897/897 310/898/898 101/899/899
f 101/899/899 310/898/898 102/900/900
f 312/901/901 311/902/902 100/903/903
f 100/903/903 311/902/902 101/904/904
f 313/905/905 312/906/906 99/907/907
f 99/907/907 312/906/906 100/908/908
f 314/909/909 313/910/910 98/911/911
f 98/911/911 313/910/910 99/912/912
f 315/913/913 314/914/914 97/915/915
f 97/915/915 314/914/914 98/916/916
f 316/917/917 315/918/918 96/919/919
f 96/919/919 315/918/918 97/920/920
f 317/921/921 316/922/922 95/923/923
f 95/923/923 316/922/922 96/924/924
f 318/925/925 317/926/926 94/927/927
f 94/927/927 317/926/926 95/928/928
f 319/929/929 318/930/930 93/931/931
f 93/931/931 318/930/930 94/932/932
f 320/933/933 319/934/934 92/935/935
f 92/935/935 319/934/934 93/936/936
f 321/937/937 320/938/938 91/939/939
f 91/939/939 320/938/938 92/940/940
f 322/941/941 321/942/942 90/943/943
f 90/943/943 321/942/942 91/944/944
f 323/945/945 322/946/946 89/947/947
f 89/947/947 322/946/946 90/948/948
f 324/949/949 323/950/950 88/951/951
f 88/951/951 323/950/950 89/952/952
f 325/953/953 324/954/954 87/955/955
f 87/955/955 324/954/954 88/956/956
f 326/957/957 325/958/958 86/959/959
f 86/959/959 325/958/958 87/960/960
f 327/961/961 326/962/962 85/963/963
f 85/963/963 326/962/962 86/964/964
f 328/965/965 327/966/966 84/967/967
f 84/967/967 327/966/966 85/968/968
f 213/969/969 328/970/970 83/971/971
f 83/971/971 328/970/970 84/972/972
f 82/973/973 81/974/974 212/975/975
f 212/975/975 81/974/974 219/976/976
f 207/977/977 224/978/978 199/979/979
f 199/979/979 224/978/978 200/980/980
f 224/981/981 223/982/982 200/983/983
f 200/983/983 223/982/982 201/984/984
# 328 vertices
# 984 texture params
# 984 normals
# 648 facets

# 2 groups
