# WaveFront *.obj file (generated by Autodesk ATF)

mtllib Maze v12 (Medium Wall Thickness).mtl

g Body11

v 0.610500 -0.826500 -0.000000
v 0.610500 -0.901500 -0.000000
v 0.610500 -0.901500 0.075000
v 0.610500 -0.826500 0.075000
v 0.826500 -0.826500 -0.000000
v 0.826500 -0.826500 0.075000
v 0.826500 -0.037500 -0.000000
v 0.826500 -0.037500 0.075000
v 0.685500 -0.037500 -0.000000
v 0.685500 -0.037500 0.075000
v 0.685500 -0.253500 -0.000000
v 0.685500 -0.253500 0.075000
v 0.610500 -0.253500 -0.000000
v 0.610500 -0.253500 0.075000
v 0.610500 0.394500 0.000000
v 0.610500 0.394500 0.075000
v 0.253500 0.394500 0.000000
v 0.253500 0.394500 0.075000
v 0.253500 0.178500 0.000000
v 0.253500 0.178500 0.075000
v 0.178500 0.178500 0.000000
v 0.178500 0.178500 0.075000
v 0.178500 0.610500 0.000000
v 0.178500 0.610500 0.075000
v -0.178500 0.610500 0.000000
v -0.178500 0.610500 0.075000
v -0.178500 0.469500 0.000000
v -0.178500 0.469500 0.075000
v 0.037500 0.469500 0.000000
v 0.037500 0.469500 0.075000
v 0.037500 0.037500 0.000000
v 0.037500 0.037500 0.075000
v 0.469500 0.037500 0.000000
v 0.469500 0.037500 0.075000
v 0.469500 -0.037500 -0.000000
v 0.469500 -0.037500 0.075000
v 0.037500 -0.037500 -0.000000
v 0.037500 -0.037500 0.075000
v 0.037500 -0.469500 -0.000000
v 0.037500 -0.469500 0.075000
v -0.178500 -0.469500 -0.000000
v -0.178500 -0.469500 0.075000
v -0.178500 -1.005000 -0.000000
v -0.178500 -1.005000 0.075000
v 0.037500 -1.005000 -0.000000
v 0.037500 -1.005000 0.075000
v 0.037500 -1.080000 -0.000000
v 0.037500 -1.080000 0.075000
v -1.080000 -1.080000 -0.000000
v -1.080000 -1.080000 0.075000
v -1.080000 1.080000 0.000000
v -1.080000 1.080000 0.075000
v -0.178500 1.080000 0.000000
v -0.178500 1.080000 0.075000
v -0.178500 0.826500 0.000000
v -0.178500 0.826500 0.075000
v -0.253500 0.826500 0.000000
v -0.253500 0.826500 0.075000
v -0.253500 1.005000 0.000000
v -0.253500 1.005000 0.075000
v -1.005000 1.005000 0.000000
v -1.005000 1.005000 0.075000
v -1.005000 0.685500 0.000000
v -1.005000 0.685500 0.075000
v -0.826500 0.685500 0.000000
v -0.826500 0.685500 0.075000
v -0.826500 0.610500 0.000000
v -0.826500 0.610500 0.075000
v -1.005000 0.610500 0.000000
v -1.005000 0.610500 0.075000
v -1.005000 -0.394500 -0.000000
v -1.005000 -0.394500 0.075000
v -0.610500 -0.394500 -0.000000
v -0.610500 -0.394500 0.075000
v -0.610500 -0.469500 -0.000000
v -0.610500 -0.469500 0.075000
v -1.005000 -0.469500 -0.000000
v -1.005000 -0.469500 0.075000
v -1.005000 -0.826500 -0.000000
v -1.005000 -0.826500 0.075000
v -0.901500 -0.826500 -0.000000
v -0.901500 -0.826500 0.075000
v -0.901500 -0.610500 -0.000000
v -0.901500 -0.610500 0.075000
v -0.826500 -0.610500 -0.000000
v -0.826500 -0.610500 0.075000
v -0.826500 -0.901500 -0.000000
v -0.826500 -0.901500 0.075000
v -1.005000 -0.901500 -0.000000
v -1.005000 -0.901500 0.075000
v -1.005000 -1.005000 -0.000000
v -1.005000 -1.005000 0.075000
v -0.685500 -1.005000 -0.000000
v -0.685500 -1.005000 0.075000
v -0.685500 -0.826500 -0.000000
v -0.685500 -0.826500 0.075000
v -0.610500 -0.826500 -0.000000
v -0.610500 -0.826500 0.075000
v -0.610500 -1.005000 -0.000000
v -0.610500 -1.005000 0.075000
v -0.253500 -1.005000 -0.000000
v -0.253500 -1.005000 0.075000
v -0.253500 -0.685500 -0.000000
v -0.253500 -0.685500 0.075000
v -0.394500 -0.685500 -0.000000
v -0.394500 -0.685500 0.075000
v -0.394500 -0.901500 -0.000000
v -0.394500 -0.901500 0.075000
v -0.469500 -0.901500 -0.000000
v -0.469500 -0.901500 0.075000
v -0.469500 -0.685500 -0.000000
v -0.469500 -0.685500 0.075000
v -0.685500 -0.685500 -0.000000
v -0.685500 -0.685500 0.075000
v -0.685500 -0.610500 -0.000000
v -0.685500 -0.610500 0.075000
v -0.253500 -0.610500 -0.000000
v -0.253500 -0.610500 0.075000
v -0.253500 -0.394500 -0.000000
v -0.253500 -0.394500 0.075000
v -0.037500 -0.394500 -0.000000
v -0.037500 -0.394500 0.075000
v -0.037500 0.394500 0.000000
v -0.037500 0.394500 0.075000
v -0.253500 0.394500 0.000000
v -0.253500 0.394500 0.075000
v -0.253500 0.610500 0.000000
v -0.253500 0.610500 0.075000
v -0.394500 0.610500 0.000000
v -0.394500 0.610500 0.075000
v -0.394500 0.253500 0.000000
v -0.394500 0.253500 0.075000
v -0.178500 0.253500 0.000000
v -0.178500 0.253500 0.075000
v -0.178500 -0.253500 -0.000000
v -0.178500 -0.253500 0.075000
v -0.394500 -0.253500 -0.000000
v -0.394500 -0.253500 0.075000
v -0.394500 -0.469500 -0.000000
v -0.394500 -0.469500 0.075000
v -0.469500 -0.469500 -0.000000
v -0.469500 -0.469500 0.075000
v -0.469500 -0.253500 -0.000000
v -0.469500 -0.253500 0.075000
v -0.901500 -0.253500 -0.000000
v -0.901500 -0.253500 0.075000
v -0.901500 0.253500 0.000000
v -0.901500 0.253500 0.075000
v -0.826500 0.253500 0.000000
v -0.826500 0.253500 0.075000
v -0.826500 0.037500 0.000000
v -0.826500 0.037500 0.075000
v -0.394500 0.037500 0.000000
v -0.394500 0.037500 0.075000
v -0.394500 -0.037500 -0.000000
v -0.394500 -0.037500 0.075000
v -0.826500 -0.037500 -0.000000
v -0.826500 -0.037500 0.075000
v -0.826500 -0.178500 -0.000000
v -0.826500 -0.178500 0.075000
v -0.253500 -0.178500 -0.000000
v -0.253500 -0.178500 0.075000
v -0.253500 0.178500 0.000000
v -0.253500 0.178500 0.075000
v -0.685500 0.178500 0.000000
v -0.685500 0.178500 0.075000
v -0.685500 0.253500 0.000000
v -0.685500 0.253500 0.075000
v -0.469500 0.253500 0.000000
v -0.469500 0.253500 0.075000
v -0.469500 0.394500 0.000000
v -0.469500 0.394500 0.075000
v -0.901500 0.394500 0.000000
v -0.901500 0.394500 0.075000
v -0.901500 0.469500 0.000000
v -0.901500 0.469500 0.075000
v -0.469500 0.469500 0.000000
v -0.469500 0.469500 0.075000
v -0.469500 0.610500 0.000000
v -0.469500 0.610500 0.075000
v -0.685500 0.610500 0.000000
v -0.685500 0.610500 0.075000
v -0.685500 0.826500 0.000000
v -0.685500 0.826500 0.075000
v -0.901500 0.826500 0.000000
v -0.901500 0.826500 0.075000
v -0.901500 0.901500 0.000000
v -0.901500 0.901500 0.075000
v -0.610500 0.901500 0.000000
v -0.610500 0.901500 0.075000
v -0.610500 0.685500 0.000000
v -0.610500 0.685500 0.075000
v -0.469500 0.685500 0.000000
v -0.469500 0.685500 0.075000
v -0.469500 0.901500 0.000000
v -0.469500 0.901500 0.075000
v -0.394500 0.901500 0.000000
v -0.394500 0.901500 0.075000
v -0.394500 0.685500 0.000000
v -0.394500 0.685500 0.075000
v -0.037500 0.685500 0.000000
v -0.037500 0.685500 0.075000
v -0.037500 0.901500 0.000000
v -0.037500 0.901500 0.075000
v 0.253500 0.901500 0.000000
v 0.253500 0.901500 0.075000
v 0.253500 0.826500 0.000000
v 0.253500 0.826500 0.075000
v 0.037500 0.826500 0.000000
v 0.037500 0.826500 0.075000
v 0.037500 0.685500 0.000000
v 0.037500 0.685500 0.075000
v 0.394500 0.685500 0.000000
v 0.394500 0.685500 0.075000
v 0.394500 0.901500 0.000000
v 0.394500 0.901500 0.075000
v 0.469500 0.901500 0.000000
v 0.469500 0.901500 0.075000
v 0.469500 0.610500 0.000000
v 0.469500 0.610500 0.075000
v 0.253500 0.610500 0.000000
v 0.253500 0.610500 0.075000
v 0.253500 0.469500 0.000000
v 0.253500 0.469500 0.075000
v 0.610500 0.469500 0.000000
v 0.610500 0.469500 0.075000
v 0.610500 0.685500 0.000000
v 0.610500 0.685500 0.075000
v 0.826500 0.685500 0.000000
v 0.826500 0.685500 0.075000
v 0.826500 0.826500 0.000000
v 0.826500 0.826500 0.075000
v 0.610500 0.826500 0.000000
v 0.610500 0.826500 0.075000
v 0.610500 0.901500 0.000000
v 0.610500 0.901500 0.075000
v 0.901500 0.901500 0.000000
v 0.901500 0.901500 0.075000
v 0.901500 0.610500 0.000000
v 0.901500 0.610500 0.075000
v 0.685500 0.610500 0.000000
v 0.685500 0.610500 0.075000
v 0.685500 0.037500 0.000000
v 0.685500 0.037500 0.075000
v 0.901500 0.037500 0.000000
v 0.901500 0.037500 0.075000
v 0.901500 -0.901500 -0.000000
v 0.901500 -0.901500 0.075000
vt 0.000000 0.000000 0.000000
vt 0.075000 -0.000000 0.000000
vt -0.000000 0.075000 0.000000
vt 0.075000 0.075000 0.000000
vt 0.000000 0.000000 0.000000
vt 0.216000 -0.000000 0.000000
vt 0.000000 0.075000 0.000000
vt 0.216000 0.075000 0.000000
vt 0.000000 0.000000 0.000000
vt 0.789000 0.000000 0.000000
vt -0.000000 0.075000 0.000000
vt 0.789000 0.075000 0.000000
vt -0.000000 -0.000000 0.000000
vt 0.141000 -0.000000 0.000000
vt -0.000000 0.075000 0.000000
vt 0.141000 0.075000 0.000000
vt 0.000000 0.000000 0.000000
vt 0.216000 0.000000 0.000000
vt 0.000000 0.075000 0.000000
vt 0.216000 0.075000 0.000000
vt -0.000000 -0.000000 0.000000
vt 0.075000 0.000000 0.000000
vt -0.000000 0.075000 0.000000
vt 0.075000 0.075000 0.000000
vt 0.000000 0.000000 0.000000
vt 0.648000 0.000000 0.000000
vt -0.000000 0.075000 0.000000
vt 0.648000 0.075000 0.000000
vt -0.000000 0.000000 0.000000
vt 0.357000 0.000000 0.000000
vt -0.000000 0.075000 0.000000
vt 0.357000 0.075000 0.000000
vt 0.000000 0.000000 0.000000
vt 0.216000 -0.000000 0.000000
vt 0.000000 0.075000 0.000000
vt 0.216000 0.075000 0.000000
vt -0.000000 -0.000000 0.000000
vt 0.075000 0.000000 0.000000
vt 0.000000 0.075000 0.000000
vt 0.075000 0.075000 0.000000
vt 0.000000 0.000000 0.000000
vt 0.432000 0.000000 0.000000
vt 0.000000 0.075000 0.000000
vt 0.432000 0.075000 0.000000
vt -0.000000 0.000000 0.000000
vt 0.357000 0.000000 0.000000
vt -0.000000 0.075000 0.000000
vt 0.357000 0.075000 0.000000
vt 0.000000 0.000000 0.000000
vt 0.141000 0.000000 0.000000
vt -0.000000 0.075000 0.000000
vt 0.141000 0.075000 0.000000
vt 0.000000 0.000000 0.000000
vt 0.216000 -0.000000 0.000000
vt 0.000000 0.075000 0.000000
vt 0.216000 0.075000 0.000000
vt 0.000000 0.000000 0.000000
vt 0.432000 0.000000 0.000000
vt 0.000000 0.075000 0.000000
vt 0.432000 0.075000 0.000000
vt -0.000000 -0.000000 0.000000
vt 0.432000 -0.000000 0.000000
vt -0.000000 0.075000 0.000000
vt 0.432000 0.075000 0.000000
vt 0.000000 0.000000 0.000000
vt 0.075000 0.000000 0.000000
vt 0.000000 0.075000 0.000000
vt 0.075000 0.075000 0.000000
vt -0.000000 -0.000000 0.000000
vt 0.432000 0.000000 0.000000
vt -0.000000 0.075000 0.000000
vt 0.432000 0.075000 0.000000
vt 0.000000 0.000000 0.000000
vt 0.432000 0.000000 0.000000
vt 0.000000 0.075000 0.000000
vt 0.432000 0.075000 0.000000
vt 0.000000 0.000000 0.000000
vt 0.216000 0.000000 0.000000
vt 0.000000 0.075000 0.000000
vt 0.216000 0.075000 0.000000
vt 0.000000 0.000000 0.000000
vt 0.535500 0.000000 0.000000
vt 0.000000 0.075000 0.000000
vt 0.535500 0.075000 0.000000
vt 0.000000 0.000000 0.000000
vt 0.216000 -0.000000 0.000000
vt -0.000000 0.075000 0.000000
vt 0.216000 0.075000 0.000000
vt 0.000000 0.000000 0.000000
vt 0.075000 0.000000 0.000000
vt 0.000000 0.075000 0.000000
vt 0.075000 0.075000 0.000000
vt 0.000000 0.000000 0.000000
vt 1.117500 0.000000 0.000000
vt 0.000000 0.075000 0.000000
vt 1.117500 0.075000 0.000000
vt 0.000000 0.000000 0.000000
vt 2.160000 0.000000 0.000000
vt -0.000000 0.075000 0.000000
vt 2.160000 0.075000 0.000000
vt -0.000000 0.000000 0.000000
vt 0.901500 -0.000000 0.000000
vt -0.000000 0.075000 0.000000
vt 0.901500 0.075000 0.000000
vt 0.000000 0.000000 0.000000
vt 0.253500 0.000000 0.000000
vt 0.000000 0.075000 0.000000
vt 0.253500 0.075000 0.000000
vt 0.000000 0.000000 0.000000
vt 0.075000 0.000000 0.000000
vt 0.000000 0.075000 0.000000
vt 0.075000 0.075000 0.000000
vt 0.000000 0.000000 0.000000
vt 0.178500 -0.000000 0.000000
vt -0.000000 0.075000 0.000000
vt 0.178500 0.075000 0.000000
vt 0.000000 0.000000 0.000000
vt 0.751500 0.000000 0.000000
vt -0.000000 0.075000 0.000000
vt 0.751500 0.075000 0.000000
vt 0.000000 0.000000 0.000000
vt 0.319500 -0.000000 0.000000
vt 0.000000 0.075000 0.000000
vt 0.319500 0.075000 0.000000
vt -0.000000 0.000000 0.000000
vt 0.178500 0.000000 0.000000
vt -0.000000 0.075000 0.000000
vt 0.178500 0.075000 0.000000
vt 0.000000 0.000000 0.000000
vt 0.075000 0.000000 0.000000
vt 0.000000 0.075000 0.000000
vt 0.075000 0.075000 0.000000
vt 0.000000 0.000000 0.000000
vt 0.178500 -0.000000 0.000000
vt -0.000000 0.075000 0.000000
vt 0.178500 0.075000 0.000000
vt 0.000000 0.000000 0.000000
vt 1.005000 -0.000000 0.000000
vt 0.000000 0.075000 0.000000
vt 1.005000 0.075000 0.000000
vt 0.000000 -0.000000 0.000000
vt 0.394500 -0.000000 0.000000
vt 0.000000 0.075000 0.000000
vt 0.394500 0.075000 0.000000
vt 0.000000 0.000000 0.000000
vt 0.075000 0.000000 0.000000
vt 0.000000 0.075000 0.000000
vt 0.075000 0.075000 0.000000
vt 0.000000 0.000000 0.000000
vt 0.394500 0.000000 0.000000
vt 0.000000 0.075000 0.000000
vt 0.394500 0.075000 0.000000
vt 0.000000 0.000000 0.000000
vt 0.357000 -0.000000 0.000000
vt 0.000000 0.075000 0.000000
vt 0.357000 0.075000 0.000000
vt -0.000000 0.000000 0.000000
vt 0.103500 0.000000 0.000000
vt -0.000000 0.075000 0.000000
vt 0.103500 0.075000 0.000000
vt 0.000000 0.000000 0.000000
vt 0.216000 0.000000 0.000000
vt -0.000000 0.075000 0.000000
vt 0.216000 0.075000 0.000000
vt -0.000000 0.000000 0.000000
vt 0.075000 0.000000 0.000000
vt -0.000000 0.075000 0.000000
vt 0.075000 0.075000 0.000000
vt 0.000000 0.000000 0.000000
vt 0.291000 -0.000000 0.000000
vt 0.000000 0.075000 0.000000
vt 0.291000 0.075000 0.000000
vt 0.000000 0.000000 0.000000
vt 0.178500 0.000000 0.000000
vt -0.000000 0.075000 0.000000
vt 0.178500 0.075000 0.000000
vt 0.000000 0.000000 0.000000
vt 0.103500 0.000000 0.000000
vt 0.000000 0.075000 0.000000
vt 0.103500 0.075000 0.000000
vt -0.000000 0.000000 0.000000
vt 0.319500 0.000000 0.000000
vt 0.000000 0.075000 0.000000
vt 0.319500 0.075000 0.000000
vt 0.000000 0.000000 0.000000
vt 0.178500 -0.000000 0.000000
vt -0.000000 0.075000 0.000000
vt 0.178500 0.075000 0.000000
vt -0.000000 0.000000 0.000000
vt 0.075000 0.000000 0.000000
vt -0.000000 0.075000 0.000000
vt 0.075000 0.075000 0.000000
vt 0.000000 0.000000 0.000000
vt 0.178500 0.000000 0.000000
vt 0.000000 0.075000 0.000000
vt 0.178500 0.075000 0.000000
vt -0.000000 0.000000 0.000000
vt 0.357000 -0.000000 0.000000
vt -0.000000 0.075000 0.000000
vt 0.357000 0.075000 0.000000
vt 0.000000 0.000000 0.000000
vt 0.319500 0.000000 0.000000
vt -0.000000 0.075000 0.000000
vt 0.319500 0.075000 0.000000
vt -0.000000 0.000000 0.000000
vt 0.141000 0.000000 0.000000
vt -0.000000 0.075000 0.000000
vt 0.141000 0.075000 0.000000
vt 0.000000 0.000000 0.000000
vt 0.216000 -0.000000 0.000000
vt 0.000000 0.075000 0.000000
vt 0.216000 0.075000 0.000000
vt 0.000000 0.000000 0.000000
vt 0.075000 0.000000 0.000000
vt 0.000000 0.075000 0.000000
vt 0.075000 0.075000 0.000000
vt 0.000000 0.000000 0.000000
vt 0.216000 0.000000 0.000000
vt -0.000000 0.075000 0.000000
vt 0.216000 0.075000 0.000000
vt 0.000000 0.000000 0.000000
vt 0.216000 0.000000 0.000000
vt -0.000000 0.075000 0.000000
vt 0.216000 0.075000 0.000000
vt 0.000000 0.000000 0.000000
vt 0.075000 -0.000000 0.000000
vt -0.000000 0.075000 0.000000
vt 0.075000 0.075000 0.000000
vt -0.000000 0.000000 0.000000
vt 0.432000 -0.000000 0.000000
vt -0.000000 0.075000 0.000000
vt 0.432000 0.075000 0.000000
vt 0.000000 0.000000 0.000000
vt 0.216000 -0.000000 0.000000
vt -0.000000 0.075000 0.000000
vt 0.216000 0.075000 0.000000
vt -0.000000 0.000000 0.000000
vt 0.216000 -0.000000 0.000000
vt -0.000000 0.075000 0.000000
vt 0.216000 0.075000 0.000000
vt 0.000000 0.000000 0.000000
vt 0.789000 0.000000 0.000000
vt -0.000000 0.075000 0.000000
vt 0.789000 0.075000 0.000000
vt -0.000000 0.000000 0.000000
vt 0.216000 0.000000 0.000000
vt -0.000000 0.075000 0.000000
vt 0.216000 0.075000 0.000000
vt 0.000000 0.000000 0.000000
vt 0.216000 -0.000000 0.000000
vt 0.000000 0.075000 0.000000
vt 0.216000 0.075000 0.000000
vt 0.000000 0.000000 0.000000
vt 0.141000 0.000000 0.000000
vt 0.000000 0.075000 0.000000
vt 0.141000 0.075000 0.000000
vt 0.000000 0.000000 0.000000
vt 0.357000 0.000000 0.000000
vt -0.000000 0.075000 0.000000
vt 0.357000 0.075000 0.000000
vt 0.000000 0.000000 0.000000
vt 0.216000 -0.000000 0.000000
vt 0.000000 0.075000 0.000000
vt 0.216000 0.075000 0.000000
vt 0.000000 0.000000 0.000000
vt 0.507000 0.000000 0.000000
vt 0.000000 0.075000 0.000000
vt 0.507000 0.075000 0.000000
vt 0.000000 0.000000 0.000000
vt 0.216000 0.000000 0.000000
vt 0.000000 0.075000 0.000000
vt 0.216000 0.075000 0.000000
vt 0.000000 0.000000 0.000000
vt 0.216000 0.000000 0.000000
vt 0.000000 0.075000 0.000000
vt 0.216000 0.075000 0.000000
vt -0.000000 -0.000000 0.000000
vt 0.075000 -0.000000 0.000000
vt -0.000000 0.075000 0.000000
vt 0.075000 0.075000 0.000000
vt 0.000000 0.000000 0.000000
vt 0.216000 0.000000 0.000000
vt -0.000000 0.075000 0.000000
vt 0.216000 0.075000 0.000000
vt 0.000000 0.000000 0.000000
vt 0.432000 0.000000 0.000000
vt -0.000000 0.075000 0.000000
vt 0.432000 0.075000 0.000000
vt 0.000000 0.000000 0.000000
vt 0.507000 0.000000 0.000000
vt -0.000000 0.075000 0.000000
vt 0.507000 0.075000 0.000000
vt 0.000000 -0.000000 0.000000
vt 0.075000 -0.000000 0.000000
vt -0.000000 0.075000 0.000000
vt 0.075000 0.075000 0.000000
vt 0.000000 0.000000 0.000000
vt 0.216000 0.000000 0.000000
vt 0.000000 0.075000 0.000000
vt 0.216000 0.075000 0.000000
vt -0.000000 0.000000 0.000000
vt 0.432000 -0.000000 0.000000
vt -0.000000 0.075000 0.000000
vt 0.432000 0.075000 0.000000
vt 0.000000 0.000000 0.000000
vt 0.075000 0.000000 0.000000
vt 0.000000 0.075000 0.000000
vt 0.075000 0.075000 0.000000
vt 0.000000 0.000000 0.000000
vt 0.432000 0.000000 0.000000
vt 0.000000 0.075000 0.000000
vt 0.432000 0.075000 0.000000
vt 0.000000 0.000000 0.000000
vt 0.141000 0.000000 0.000000
vt -0.000000 0.075000 0.000000
vt 0.141000 0.075000 0.000000
vt -0.000000 0.000000 0.000000
vt 0.573000 -0.000000 0.000000
vt -0.000000 0.075000 0.000000
vt 0.573000 0.075000 0.000000
vt 0.000000 0.000000 0.000000
vt 0.357000 0.000000 0.000000
vt -0.000000 0.075000 0.000000
vt 0.357000 0.075000 0.000000
vt 0.000000 0.000000 0.000000
vt 0.432000 0.000000 0.000000
vt 0.000000 0.075000 0.000000
vt 0.432000 0.075000 0.000000
vt 0.000000 0.000000 0.000000
vt 0.075000 0.000000 0.000000
vt 0.000000 0.075000 0.000000
vt 0.075000 0.075000 0.000000
vt -0.000000 0.000000 0.000000
vt 0.216000 0.000000 0.000000
vt 0.000000 0.075000 0.000000
vt 0.216000 0.075000 0.000000
vt 0.000000 0.000000 0.000000
vt 0.141000 0.000000 0.000000
vt -0.000000 0.075000 0.000000
vt 0.141000 0.075000 0.000000
vt 0.000000 0.000000 0.000000
vt 0.432000 0.000000 0.000000
vt -0.000000 0.075000 0.000000
vt 0.432000 0.075000 0.000000
vt 0.000000 0.000000 0.000000
vt 0.075000 -0.000000 0.000000
vt -0.000000 0.075000 0.000000
vt 0.075000 0.075000 0.000000
vt -0.000000 0.000000 0.000000
vt 0.432000 -0.000000 0.000000
vt -0.000000 0.075000 0.000000
vt 0.432000 0.075000 0.000000
vt 0.000000 0.000000 0.000000
vt 0.141000 -0.000000 0.000000
vt 0.000000 0.075000 0.000000
vt 0.141000 0.075000 0.000000
vt -0.000000 -0.000000 0.000000
vt 0.216000 0.000000 0.000000
vt 0.000000 0.075000 0.000000
vt 0.216000 0.075000 0.000000
vt 0.000000 0.000000 0.000000
vt 0.216000 0.000000 0.000000
vt -0.000000 0.075000 0.000000
vt 0.216000 0.075000 0.000000
vt 0.000000 0.000000 0.000000
vt 0.216000 0.000000 0.000000
vt 0.000000 0.075000 0.000000
vt 0.216000 0.075000 0.000000
vt 0.000000 0.000000 0.000000
vt 0.075000 -0.000000 0.000000
vt -0.000000 0.075000 0.000000
vt 0.075000 0.075000 0.000000
vt 0.000000 -0.000000 0.000000
vt 0.291000 -0.000000 0.000000
vt 0.000000 0.075000 0.000000
vt 0.291000 0.075000 0.000000
vt 0.000000 0.000000 0.000000
vt 0.216000 -0.000000 0.000000
vt 0.000000 0.075000 0.000000
vt 0.216000 0.075000 0.000000
vt -0.000000 0.000000 0.000000
vt 0.141000 0.000000 0.000000
vt -0.000000 0.075000 0.000000
vt 0.141000 0.075000 0.000000
vt 0.000000 0.000000 0.000000
vt 0.216000 0.000000 0.000000
vt 0.000000 0.075000 0.000000
vt 0.216000 0.075000 0.000000
vt -0.000000 0.000000 0.000000
vt 0.075000 0.000000 0.000000
vt -0.000000 0.075000 0.000000
vt 0.075000 0.075000 0.000000
vt 0.000000 0.000000 0.000000
vt 0.216000 -0.000000 0.000000
vt 0.000000 0.075000 0.000000
vt 0.216000 0.075000 0.000000
vt -0.000000 0.000000 0.000000
vt 0.357000 -0.000000 0.000000
vt -0.000000 0.075000 0.000000
vt 0.357000 0.075000 0.000000
vt 0.000000 0.000000 0.000000
vt 0.216000 0.000000 0.000000
vt 0.000000 0.075000 0.000000
vt 0.216000 0.075000 0.000000
vt -0.000000 0.000000 0.000000
vt 0.291000 -0.000000 0.000000
vt -0.000000 0.075000 0.000000
vt 0.291000 0.075000 0.000000
vt 0.000000 0.000000 0.000000
vt 0.075000 0.000000 0.000000
vt 0.000000 0.075000 0.000000
vt 0.075000 0.075000 0.000000
vt -0.000000 0.000000 0.000000
vt 0.216000 0.000000 0.000000
vt -0.000000 0.075000 0.000000
vt 0.216000 0.075000 0.000000
vt 0.000000 0.000000 0.000000
vt 0.141000 -0.000000 0.000000
vt 0.000000 0.075000 0.000000
vt 0.141000 0.075000 0.000000
vt 0.000000 0.000000 0.000000
vt 0.357000 -0.000000 0.000000
vt 0.000000 0.075000 0.000000
vt 0.357000 0.075000 0.000000
vt 0.000000 0.000000 0.000000
vt 0.216000 0.000000 0.000000
vt 0.000000 0.075000 0.000000
vt 0.216000 0.075000 0.000000
vt -0.000000 0.000000 0.000000
vt 0.075000 0.000000 0.000000
vt -0.000000 0.075000 0.000000
vt 0.075000 0.075000 0.000000
vt 0.000000 0.000000 0.000000
vt 0.291000 -0.000000 0.000000
vt -0.000000 0.075000 0.000000
vt 0.291000 0.075000 0.000000
vt -0.000000 0.000000 0.000000
vt 0.216000 0.000000 0.000000
vt -0.000000 0.075000 0.000000
vt 0.216000 0.075000 0.000000
vt 0.000000 0.000000 0.000000
vt 0.141000 0.000000 0.000000
vt -0.000000 0.075000 0.000000
vt 0.141000 0.075000 0.000000
vt -0.000000 -0.000000 0.000000
vt 0.357000 -0.000000 0.000000
vt -0.000000 0.075000 0.000000
vt 0.357000 0.075000 0.000000
vt 0.000000 0.000000 0.000000
vt 0.216000 -0.000000 0.000000
vt -0.000000 0.075000 0.000000
vt 0.216000 0.075000 0.000000
vt -0.000000 -0.000000 0.000000
vt 0.216000 -0.000000 0.000000
vt -0.000000 0.075000 0.000000
vt 0.216000 0.075000 0.000000
vt 0.000000 0.000000 0.000000
vt 0.141000 0.000000 0.000000
vt -0.000000 0.075000 0.000000
vt 0.141000 0.075000 0.000000
vt -0.000000 -0.000000 0.000000
vt 0.216000 0.000000 0.000000
vt -0.000000 0.075000 0.000000
vt 0.216000 0.075000 0.000000
vt 0.000000 0.000000 0.000000
vt 0.075000 -0.000000 0.000000
vt -0.000000 0.075000 0.000000
vt 0.075000 0.075000 0.000000
vt -0.000000 0.000000 0.000000
vt 0.291000 0.000000 0.000000
vt -0.000000 0.075000 0.000000
vt 0.291000 0.075000 0.000000
vt 0.000000 0.000000 0.000000
vt 0.291000 -0.000000 0.000000
vt 0.000000 0.075000 0.000000
vt 0.291000 0.075000 0.000000
vt -0.000000 0.000000 0.000000
vt 0.216000 0.000000 0.000000
vt -0.000000 0.075000 0.000000
vt 0.216000 0.075000 0.000000
vt 0.000000 0.000000 0.000000
vt 0.573000 0.000000 0.000000
vt 0.000000 0.075000 0.000000
vt 0.573000 0.075000 0.000000
vt -0.000000 -0.000000 0.000000
vt 0.216000 -0.000000 0.000000
vt -0.000000 0.075000 0.000000
vt 0.216000 0.075000 0.000000
vt 0.000000 0.000000 0.000000
vt 0.939000 0.000000 0.000000
vt 0.000000 0.075000 0.000000
vt 0.939000 0.075000 0.000000
vt 0.000000 0.000000 0.000000
vt 0.291000 0.000000 0.000000
vt 0.000000 0.075000 0.000000
vt 0.291000 0.075000 0.000000
vt 0.699750 -0.826500 0.000000
vt 0.699750 -0.901500 0.000000
vt 0.915750 -0.826500 0.000000
vt 0.990750 -0.901500 0.000000
vt 0.915750 -0.037500 0.000000
vt 0.990750 0.037500 0.000000
vt 0.774750 0.037500 0.000000
vt 0.774750 0.610500 0.000000
vt 0.699750 0.394500 0.000000
vt 0.699750 -0.253500 0.000000
vt 0.774750 -0.037500 0.000000
vt 0.774750 -0.253500 0.000000
vt 0.990750 0.610500 0.000000
vt 0.915750 0.685500 0.000000
vt 0.699750 0.685500 0.000000
vt 0.699750 0.469500 0.000000
vt 0.915750 0.826500 0.000000
vt 0.990750 0.901500 0.000000
vt 0.699750 0.901500 0.000000
vt 0.699750 0.826500 0.000000
vt 0.342750 0.469500 0.000000
vt 0.342750 0.394500 0.000000
vt 0.267750 0.610500 0.000000
vt 0.267750 0.178500 0.000000
vt 0.342750 0.610500 0.000000
vt 0.126750 0.685500 0.000000
vt 0.051750 0.685500 0.000000
vt 0.126750 0.826500 0.000000
vt 0.051750 0.901500 0.000000
vt 0.342750 0.901500 0.000000
vt 0.342750 0.826500 0.000000
vt 0.483750 0.685500 0.000000
vt 0.558750 0.610500 0.000000
vt 0.558750 0.901500 0.000000
vt 0.483750 0.901500 0.000000
vt -0.089250 0.610500 0.000000
vt -0.305250 0.685500 0.000000
vt -0.164250 0.610500 0.000000
vt -0.305250 0.610500 0.000000
vt -0.380250 0.685500 0.000000
vt -0.380250 0.610500 0.000000
vt -0.521250 0.685500 0.000000
vt -0.596250 0.610500 0.000000
vt -0.596250 0.826500 0.000000
vt -0.521250 0.901500 0.000000
vt -0.812250 0.901500 0.000000
vt -0.305250 0.901500 0.000000
vt -0.380250 0.901500 0.000000
vt -0.812250 0.826500 0.000000
vt -0.380250 0.469500 0.000000
vt -0.305250 0.253500 0.000000
vt -0.380250 0.394500 0.000000
vt -0.380250 0.253500 0.000000
vt -0.812250 0.469500 0.000000
vt -0.812250 0.394500 0.000000
vt -0.596250 0.253500 0.000000
vt -0.596250 0.178500 0.000000
vt -0.164250 0.178500 0.000000
vt -0.089250 0.253500 0.000000
vt -0.089250 -0.253500 0.000000
vt -0.164250 -0.178500 0.000000
vt -0.305250 -0.253500 0.000000
vt -0.380250 -0.253500 0.000000
vt -0.305250 -0.469500 0.000000
vt -0.380250 -0.469500 0.000000
vt -0.737250 -0.178500 0.000000
vt -0.812250 -0.253500 0.000000
vt -0.737250 -0.037500 0.000000
vt -0.737250 0.037500 0.000000
vt -0.305250 -0.037500 0.000000
vt -0.305250 0.037500 0.000000
vt -0.737250 0.253500 0.000000
vt -0.812250 0.253500 0.000000
vt -0.089250 0.469500 0.000000
vt -0.164250 0.394500 0.000000
vt 0.051750 0.394500 0.000000
vt 0.051750 -0.394500 0.000000
vt 0.126750 0.037500 0.000000
vt 0.126750 0.469500 0.000000
vt -0.164250 -0.394500 0.000000
vt -0.089250 -0.469500 0.000000
vt 0.126750 -0.469500 0.000000
vt 0.126750 -0.037500 0.000000
vt -0.164250 -0.610500 0.000000
vt -0.164250 -0.685500 0.000000
vt -0.089250 -1.005000 0.000000
vt -0.164250 -1.005000 0.000000
vt 0.126750 -1.080000 0.000000
vt -0.521250 -1.005000 0.000000
vt -0.990750 -1.080000 0.000000
vt -0.596250 -1.005000 0.000000
vt -0.915750 -1.005000 0.000000
vt -0.596250 -0.610500 0.000000
vt -0.380250 -0.685500 0.000000
vt -0.305250 -0.685500 0.000000
vt -0.596250 -0.685500 0.000000
vt -0.380250 -0.901500 0.000000
vt -0.305250 -0.901500 0.000000
vt -0.521250 -0.826500 0.000000
vt -0.596250 -0.826500 0.000000
vt -0.915750 -0.901500 0.000000
vt -0.915750 -0.826500 0.000000
vt -0.915750 -0.469500 0.000000
vt -0.812250 -0.826500 0.000000
vt -0.737250 -0.901500 0.000000
vt -0.737250 -0.610500 0.000000
vt -0.812250 -0.610500 0.000000
vt -0.915750 -0.394500 0.000000
vt -0.521250 -0.469500 0.000000
vt -0.521250 -0.394500 0.000000
vt -0.990750 1.080000 0.000000
vt -0.915750 0.610500 0.000000
vt -0.915750 0.685500 0.000000
vt -0.737250 0.610500 0.000000
vt -0.737250 0.685500 0.000000
vt -0.915750 1.005000 0.000000
vt -0.164250 1.005000 0.000000
vt -0.089250 1.080000 0.000000
vt -0.089250 0.826500 0.000000
vt -0.164250 0.826500 0.000000
vt 0.126750 -1.005000 0.000000
vt 0.558750 -0.037500 0.000000
vt 0.558750 0.037500 0.000000
vt 0.342750 0.178500 0.000000
vt 0.901500 -0.699750 0.000000
vt 0.826500 -0.915750 0.000000
vt 0.901500 -0.990750 0.000000
vt 0.037500 -0.915750 0.000000
vt -0.037500 -0.990750 0.000000
vt -0.037500 -0.774750 0.000000
vt 0.037500 -0.774750 0.000000
vt 0.253500 -0.699750 0.000000
vt 0.253500 -0.774750 0.000000
vt 0.826500 -0.699750 0.000000
vt -0.394500 -0.699750 0.000000
vt -0.610500 -0.774750 0.000000
vt -0.469500 -0.699750 0.000000
vt -0.685500 -0.699750 0.000000
vt -0.469500 -0.342750 0.000000
vt -0.394500 -0.342750 0.000000
vt -0.610500 -0.267750 0.000000
vt -0.178500 -0.267750 0.000000
vt -0.178500 -0.342750 0.000000
vt -0.610500 0.089250 0.000000
vt -0.685500 -0.051750 0.000000
vt -0.685500 -0.126750 0.000000
vt -0.685500 -0.483750 0.000000
vt -0.610500 0.164250 0.000000
vt -0.469500 0.089250 0.000000
vt -0.394500 0.164250 0.000000
vt -0.394500 -0.051750 0.000000
vt -0.469500 -0.126750 0.000000
vt -0.037500 -0.126750 0.000000
vt -0.037500 -0.558750 0.000000
vt 0.037500 -0.558750 0.000000
vt 0.037500 -0.126750 0.000000
vt 0.394500 -0.051750 0.000000
vt 0.469500 -0.126750 0.000000
vt 0.469500 0.089250 0.000000
vt 1.005000 0.089250 0.000000
vt 0.685500 0.164250 0.000000
vt 0.610500 0.164250 0.000000
vt 0.394500 0.164250 0.000000
vt 1.005000 -0.126750 0.000000
vt 1.080000 -0.126750 0.000000
vt 1.005000 0.164250 0.000000
vt 1.005000 0.521250 0.000000
vt 1.080000 0.990750 0.000000
vt 1.005000 0.596250 0.000000
vt 1.005000 0.915750 0.000000
vt 0.901500 0.915750 0.000000
vt 0.826500 0.915750 0.000000
vt 0.826500 0.812250 0.000000
vt -1.080000 0.990750 0.000000
vt 0.394500 0.915750 0.000000
vt 0.469500 0.915750 0.000000
vt -1.080000 0.089250 0.000000
vt -1.005000 0.915750 0.000000
vt -0.685500 0.915750 0.000000
vt -0.610500 0.915750 0.000000
vt -0.610500 0.737250 0.000000
vt -0.685500 0.737250 0.000000
vt -1.005000 0.164250 0.000000
vt -0.826500 0.089250 0.000000
vt -0.826500 0.164250 0.000000
vt 0.394500 0.521250 0.000000
vt 0.469500 0.521250 0.000000
vt 0.610500 0.812250 0.000000
vt 0.610500 0.737250 0.000000
vt 0.901500 0.737250 0.000000
vt 0.826500 0.596250 0.000000
vt 0.826500 0.521250 0.000000
vt 0.685500 0.305250 0.000000
vt 0.685500 0.380250 0.000000
vt 0.610500 0.596250 0.000000
vt 0.685500 0.596250 0.000000
vt 0.901500 0.305250 0.000000
vt 0.901500 0.380250 0.000000
vt -0.685500 0.305250 0.000000
vt -0.610500 0.305250 0.000000
vt -0.685500 0.380250 0.000000
vt -0.610500 0.380250 0.000000
vt -0.685500 0.521250 0.000000
vt -0.610500 0.596250 0.000000
vt -0.826500 0.596250 0.000000
vt -0.469500 0.380250 0.000000
vt -0.253500 0.305250 0.000000
vt -0.394500 0.380250 0.000000
vt -0.253500 0.380250 0.000000
vt -0.178500 0.164250 0.000000
vt -0.178500 0.596250 0.000000
vt -0.253500 0.089250 0.000000
vt 0.253500 0.089250 0.000000
vt 0.178500 0.164250 0.000000
vt 0.253500 0.305250 0.000000
vt 0.253500 0.380250 0.000000
vt 0.469500 0.305250 0.000000
vt 0.469500 0.380250 0.000000
vt 0.178500 0.737250 0.000000
vt 0.253500 0.812250 0.000000
vt 0.037500 0.737250 0.000000
vt -0.253500 0.812250 0.000000
vt -0.037500 0.737250 0.000000
vt -0.253500 0.737250 0.000000
vt -0.037500 0.305250 0.000000
vt 0.037500 0.305250 0.000000
vt -0.253500 0.596250 0.000000
vt -0.394500 0.812250 0.000000
vt -0.469500 0.812250 0.000000
vt -0.826500 0.812250 0.000000
vt -0.901500 0.812250 0.000000
vt -0.901500 0.521250 0.000000
vt -0.901500 0.380250 0.000000
vt -0.901500 0.305250 0.000000
vt -0.826500 -0.126750 0.000000
vt -0.901500 -0.051750 0.000000
vt -0.901500 -0.342750 0.000000
vt -0.826500 -0.342750 0.000000
vt -0.901500 -0.483750 0.000000
vt -0.901500 -0.558750 0.000000
vt -0.610500 -0.558750 0.000000
vt -0.610500 -0.342750 0.000000
vt -0.685500 -0.915750 0.000000
vt -0.610500 -0.990750 0.000000
vt -0.826500 -0.915750 0.000000
vt -0.901500 -0.990750 0.000000
vt -0.901500 -0.699750 0.000000
vt -0.826500 -0.699750 0.000000
vn -1.000000 -0.000000 -0.000000
vn -1.000000 -0.000000 -0.000000
vn -1.000000 -0.000000 -0.000000
vn -1.000000 -0.000000 -0.000000
vn -0.000000 1.000000 0.000000
vn -0.000000 1.000000 0.000000
vn -0.000000 1.000000 0.000000
vn -0.000000 1.000000 0.000000
vn -1.000000 -0.000000 -0.000000
vn -1.000000 -0.000000 -0.000000
vn -1.000000 -0.000000 -0.000000
vn -1.000000 -0.000000 -0.000000
vn 0.000000 -1.000000 -0.000000
vn 0.000000 -1.000000 -0.000000
vn 0.000000 -1.000000 -0.000000
vn 0.000000 -1.000000 -0.000000
vn 1.000000 0.000000 0.000000
vn 1.000000 0.000000 0.000000
vn 1.000000 0.000000 0.000000
vn 1.000000 0.000000 0.000000
vn 0.000000 -1.000000 -0.000000
vn 0.000000 -1.000000 -0.000000
vn 0.000000 -1.000000 -0.000000
vn 0.000000 -1.000000 -0.000000
vn -1.000000 -0.000000 -0.000000
vn -1.000000 -0.000000 -0.000000
vn -1.000000 -0.000000 -0.000000
vn -1.000000 -0.000000 -0.000000
vn 0.000000 -1.000000 -0.000000
vn 0.000000 -1.000000 -0.000000
vn 0.000000 -1.000000 -0.000000
vn 0.000000 -1.000000 -0.000000
vn 1.000000 0.000000 0.000000
vn 1.000000 0.000000 0.000000
vn 1.000000 0.000000 0.000000
vn 1.000000 0.000000 0.000000
vn 0.000000 -1.000000 -0.000000
vn 0.000000 -1.000000 -0.000000
vn 0.000000 -1.000000 -0.000000
vn 0.000000 -1.000000 -0.000000
vn -1.000000 -0.000000 -0.000000
vn -1.000000 -0.000000 -0.000000
vn -1.000000 -0.000000 -0.000000
vn -1.000000 -0.000000 -0.000000
vn 0.000000 -1.000000 -0.000000
vn 0.000000 -1.000000 -0.000000
vn 0.000000 -1.000000 -0.000000
vn 0.000000 -1.000000 -0.000000
vn 1.000000 0.000000 0.000000
vn 1.000000 0.000000 0.000000
vn 1.000000 0.000000 0.000000
vn 1.000000 0.000000 0.000000
vn -0.000000 1.000000 0.000000
vn -0.000000 1.000000 0.000000
vn -0.000000 1.000000 0.000000
vn -0.000000 1.000000 0.000000
vn 1.000000 0.000000 0.000000
vn 1.000000 0.000000 0.000000
vn 1.000000 0.000000 0.000000
vn 1.000000 0.000000 0.000000
vn -0.000000 1.000000 0.000000
vn -0.000000 1.000000 0.000000
vn -0.000000 1.000000 0.000000
vn -0.000000 1.000000 0.000000
vn 1.000000 0.000000 0.000000
vn 1.000000 0.000000 0.000000
vn 1.000000 0.000000 0.000000
vn 1.000000 0.000000 0.000000
vn 0.000000 -1.000000 -0.000000
vn 0.000000 -1.000000 -0.000000
vn 0.000000 -1.000000 -0.000000
vn 0.000000 -1.000000 -0.000000
vn 1.000000 0.000000 0.000000
vn 1.000000 0.000000 0.000000
vn 1.000000 0.000000 0.000000
vn 1.000000 0.000000 0.000000
vn 0.000000 -1.000000 -0.000000
vn 0.000000 -1.000000 -0.000000
vn 0.000000 -1.000000 -0.000000
vn 0.000000 -1.000000 -0.000000
vn 1.000000 0.000000 0.000000
vn 1.000000 0.000000 0.000000
vn 1.000000 0.000000 0.000000
vn 1.000000 0.000000 0.000000
vn -0.000000 1.000000 0.000000
vn -0.000000 1.000000 0.000000
vn -0.000000 1.000000 0.000000
vn -0.000000 1.000000 0.000000
vn 1.000000 0.000000 0.000000
vn 1.000000 0.000000 0.000000
vn 1.000000 0.000000 0.000000
vn 1.000000 0.000000 0.000000
vn 0.000000 -1.000000 -0.000000
vn 0.000000 -1.000000 -0.000000
vn 0.000000 -1.000000 -0.000000
vn 0.000000 -1.000000 -0.000000
vn -1.000000 -0.000000 -0.000000
vn -1.000000 -0.000000 -0.000000
vn -1.000000 -0.000000 -0.000000
vn -1.000000 -0.000000 -0.000000
vn -0.000000 1.000000 0.000000
vn -0.000000 1.000000 0.000000
vn -0.000000 1.000000 0.000000
vn -0.000000 1.000000 0.000000
vn 1.000000 0.000000 0.000000
vn 1.000000 0.000000 0.000000
vn 1.000000 0.000000 0.000000
vn 1.000000 0.000000 0.000000
vn 0.000000 -1.000000 -0.000000
vn 0.000000 -1.000000 -0.000000
vn 0.000000 -1.000000 -0.000000
vn 0.000000 -1.000000 -0.000000
vn -1.000000 -0.000000 -0.000000
vn -1.000000 -0.000000 -0.000000
vn -1.000000 -0.000000 -0.000000
vn -1.000000 -0.000000 -0.000000
vn 0.000000 -1.000000 -0.000000
vn 0.000000 -1.000000 -0.000000
vn 0.000000 -1.000000 -0.000000
vn 0.000000 -1.000000 -0.000000
vn 1.000000 0.000000 0.000000
vn 1.000000 0.000000 0.000000
vn 1.000000 0.000000 0.000000
vn 1.000000 0.000000 0.000000
vn -0.000000 1.000000 0.000000
vn -0.000000 1.000000 0.000000
vn -0.000000 1.000000 0.000000
vn -0.000000 1.000000 0.000000
vn 1.000000 0.000000 0.000000
vn 1.000000 0.000000 0.000000
vn 1.000000 0.000000 0.000000
vn 1.000000 0.000000 0.000000
vn 0.000000 -1.000000 -0.000000
vn 0.000000 -1.000000 -0.000000
vn 0.000000 -1.000000 -0.000000
vn 0.000000 -1.000000 -0.000000
vn 1.000000 0.000000 0.000000
vn 1.000000 0.000000 0.000000
vn 1.000000 0.000000 0.000000
vn 1.000000 0.000000 0.000000
vn -0.000000 1.000000 0.000000
vn -0.000000 1.000000 0.000000
vn -0.000000 1.000000 0.000000
vn -0.000000 1.000000 0.000000
vn 1.000000 0.000000 0.000000
vn 1.000000 0.000000 0.000000
vn 1.000000 0.000000 0.000000
vn 1.000000 0.000000 0.000000
vn 0.000000 -1.000000 -0.000000
vn 0.000000 -1.000000 -0.000000
vn 0.000000 -1.000000 -0.000000
vn 0.000000 -1.000000 -0.000000
vn 1.000000 0.000000 0.000000
vn 1.000000 0.000000 0.000000
vn 1.000000 0.000000 0.000000
vn 1.000000 0.000000 0.000000
vn -0.000000 1.000000 0.000000
vn -0.000000 1.000000 0.000000
vn -0.000000 1.000000 0.000000
vn -0.000000 1.000000 0.000000
vn -1.000000 -0.000000 -0.000000
vn -1.000000 -0.000000 -0.000000
vn -1.000000 -0.000000 -0.000000
vn -1.000000 -0.000000 -0.000000
vn -0.000000 1.000000 0.000000
vn -0.000000 1.000000 0.000000
vn -0.000000 1.000000 0.000000
vn -0.000000 1.000000 0.000000
vn 1.000000 0.000000 0.000000
vn 1.000000 0.000000 0.000000
vn 1.000000 0.000000 0.000000
vn 1.000000 0.000000 0.000000
vn 0.000000 -1.000000 -0.000000
vn 0.000000 -1.000000 -0.000000
vn 0.000000 -1.000000 -0.000000
vn 0.000000 -1.000000 -0.000000
vn 1.000000 0.000000 0.000000
vn 1.000000 0.000000 0.000000
vn 1.000000 0.000000 0.000000
vn 1.000000 0.000000 0.000000
vn -0.000000 1.000000 0.000000
vn -0.000000 1.000000 0.000000
vn -0.000000 1.000000 0.000000
vn -0.000000 1.000000 0.000000
vn -1.000000 -0.000000 -0.000000
vn -1.000000 -0.000000 -0.000000
vn -1.000000 -0.000000 -0.000000
vn -1.000000 -0.000000 -0.000000
vn -0.000000 1.000000 0.000000
vn -0.000000 1.000000 0.000000
vn -0.000000 1.000000 0.000000
vn -0.000000 1.000000 0.000000
vn 1.000000 0.000000 0.000000
vn 1.000000 0.000000 0.000000
vn 1.000000 0.000000 0.000000
vn 1.000000 0.000000 0.000000
vn -0.000000 1.000000 0.000000
vn -0.000000 1.000000 0.000000
vn -0.000000 1.000000 0.000000
vn -0.000000 1.000000 0.000000
vn -1.000000 -0.000000 -0.000000
vn -1.000000 -0.000000 -0.000000
vn -1.000000 -0.000000 -0.000000
vn -1.000000 -0.000000 -0.000000
vn 0.000000 -1.000000 -0.000000
vn 0.000000 -1.000000 -0.000000
vn 0.000000 -1.000000 -0.000000
vn 0.000000 -1.000000 -0.000000
vn 1.000000 0.000000 0.000000
vn 1.000000 0.000000 0.000000
vn 1.000000 0.000000 0.000000
vn 1.000000 0.000000 0.000000
vn 0.000000 -1.000000 -0.000000
vn 0.000000 -1.000000 -0.000000
vn 0.000000 -1.000000 -0.000000
vn 0.000000 -1.000000 -0.000000
vn -1.000000 -0.000000 -0.000000
vn -1.000000 -0.000000 -0.000000
vn -1.000000 -0.000000 -0.000000
vn -1.000000 -0.000000 -0.000000
vn 0.000000 -1.000000 -0.000000
vn 0.000000 -1.000000 -0.000000
vn 0.000000 -1.000000 -0.000000
vn 0.000000 -1.000000 -0.000000
vn -1.000000 -0.000000 -0.000000
vn -1.000000 -0.000000 -0.000000
vn -1.000000 -0.000000 -0.000000
vn -1.000000 -0.000000 -0.000000
vn -0.000000 1.000000 0.000000
vn -0.000000 1.000000 0.000000
vn -0.000000 1.000000 0.000000
vn -0.000000 1.000000 0.000000
vn -1.000000 -0.000000 -0.000000
vn -1.000000 -0.000000 -0.000000
vn -1.000000 -0.000000 -0.000000
vn -1.000000 -0.000000 -0.000000
vn -0.000000 1.000000 0.000000
vn -0.000000 1.000000 0.000000
vn -0.000000 1.000000 0.000000
vn -0.000000 1.000000 0.000000
vn -1.000000 -0.000000 -0.000000
vn -1.000000 -0.000000 -0.000000
vn -1.000000 -0.000000 -0.000000
vn -1.000000 -0.000000 -0.000000
vn 0.000000 -1.000000 -0.000000
vn 0.000000 -1.000000 -0.000000
vn 0.000000 -1.000000 -0.000000
vn 0.000000 -1.000000 -0.000000
vn -1.000000 -0.000000 -0.000000
vn -1.000000 -0.000000 -0.000000
vn -1.000000 -0.000000 -0.000000
vn -1.000000 -0.000000 -0.000000
vn 0.000000 -1.000000 -0.000000
vn 0.000000 -1.000000 -0.000000
vn 0.000000 -1.000000 -0.000000
vn 0.000000 -1.000000 -0.000000
vn 1.000000 0.000000 0.000000
vn 1.000000 0.000000 0.000000
vn 1.000000 0.000000 0.000000
vn 1.000000 0.000000 0.000000
vn -0.000000 1.000000 0.000000
vn -0.000000 1.000000 0.000000
vn -0.000000 1.000000 0.000000
vn -0.000000 1.000000 0.000000
vn 1.000000 0.000000 0.000000
vn 1.000000 0.000000 0.000000
vn 1.000000 0.000000 0.000000
vn 1.000000 0.000000 0.000000
vn 0.000000 -1.000000 -0.000000
vn 0.000000 -1.000000 -0.000000
vn 0.000000 -1.000000 -0.000000
vn 0.000000 -1.000000 -0.000000
vn 1.000000 0.000000 0.000000
vn 1.000000 0.000000 0.000000
vn 1.000000 0.000000 0.000000
vn 1.000000 0.000000 0.000000
vn 0.000000 -1.000000 -0.000000
vn 0.000000 -1.000000 -0.000000
vn 0.000000 -1.000000 -0.000000
vn 0.000000 -1.000000 -0.000000
vn -1.000000 -0.000000 -0.000000
vn -1.000000 -0.000000 -0.000000
vn -1.000000 -0.000000 -0.000000
vn -1.000000 -0.000000 -0.000000
vn 0.000000 -1.000000 -0.000000
vn 0.000000 -1.000000 -0.000000
vn 0.000000 -1.000000 -0.000000
vn 0.000000 -1.000000 -0.000000
vn -1.000000 -0.000000 -0.000000
vn -1.000000 -0.000000 -0.000000
vn -1.000000 -0.000000 -0.000000
vn -1.000000 -0.000000 -0.000000
vn -0.000000 1.000000 0.000000
vn -0.000000 1.000000 0.000000
vn -0.000000 1.000000 0.000000
vn -0.000000 1.000000 0.000000
vn 1.000000 0.000000 0.000000
vn 1.000000 0.000000 0.000000
vn 1.000000 0.000000 0.000000
vn 1.000000 0.000000 0.000000
vn -0.000000 1.000000 0.000000
vn -0.000000 1.000000 0.000000
vn -0.000000 1.000000 0.000000
vn -0.000000 1.000000 0.000000
vn 1.000000 0.000000 0.000000
vn 1.000000 0.000000 0.000000
vn 1.000000 0.000000 0.000000
vn 1.000000 0.000000 0.000000
vn 0.000000 -1.000000 -0.000000
vn 0.000000 -1.000000 -0.000000
vn 0.000000 -1.000000 -0.000000
vn 0.000000 -1.000000 -0.000000
vn 1.000000 0.000000 0.000000
vn 1.000000 0.000000 0.000000
vn 1.000000 0.000000 0.000000
vn 1.000000 0.000000 0.000000
vn -0.000000 1.000000 0.000000
vn -0.000000 1.000000 0.000000
vn -0.000000 1.000000 0.000000
vn -0.000000 1.000000 0.000000
vn -1.000000 -0.000000 -0.000000
vn -1.000000 -0.000000 -0.000000
vn -1.000000 -0.000000 -0.000000
vn -1.000000 -0.000000 -0.000000
vn 0.000000 -1.000000 -0.000000
vn 0.000000 -1.000000 -0.000000
vn 0.000000 -1.000000 -0.000000
vn 0.000000 -1.000000 -0.000000
vn -1.000000 -0.000000 -0.000000
vn -1.000000 -0.000000 -0.000000
vn -1.000000 -0.000000 -0.000000
vn -1.000000 -0.000000 -0.000000
vn -0.000000 1.000000 0.000000
vn -0.000000 1.000000 0.000000
vn -0.000000 1.000000 0.000000
vn -0.000000 1.000000 0.000000
vn -1.000000 -0.000000 -0.000000
vn -1.000000 -0.000000 -0.000000
vn -1.000000 -0.000000 -0.000000
vn -1.000000 -0.000000 -0.000000
vn 0.000000 -1.000000 -0.000000
vn 0.000000 -1.000000 -0.000000
vn 0.000000 -1.000000 -0.000000
vn 0.000000 -1.000000 -0.000000
vn -1.000000 -0.000000 -0.000000
vn -1.000000 -0.000000 -0.000000
vn -1.000000 -0.000000 -0.000000
vn -1.000000 -0.000000 -0.000000
vn -0.000000 1.000000 0.000000
vn -0.000000 1.000000 0.000000
vn -0.000000 1.000000 0.000000
vn -0.000000 1.000000 0.000000
vn -1.000000 -0.000000 -0.000000
vn -1.000000 -0.000000 -0.000000
vn -1.000000 -0.000000 -0.000000
vn -1.000000 -0.000000 -0.000000
vn 0.000000 -1.000000 -0.000000
vn 0.000000 -1.000000 -0.000000
vn 0.000000 -1.000000 -0.000000
vn 0.000000 -1.000000 -0.000000
vn -1.000000 -0.000000 -0.000000
vn -1.000000 -0.000000 -0.000000
vn -1.000000 -0.000000 -0.000000
vn -1.000000 -0.000000 -0.000000
vn 0.000000 -1.000000 -0.000000
vn 0.000000 -1.000000 -0.000000
vn 0.000000 -1.000000 -0.000000
vn 0.000000 -1.000000 -0.000000
vn -1.000000 -0.000000 -0.000000
vn -1.000000 -0.000000 -0.000000
vn -1.000000 -0.000000 -0.000000
vn -1.000000 -0.000000 -0.000000
vn -0.000000 1.000000 0.000000
vn -0.000000 1.000000 0.000000
vn -0.000000 1.000000 0.000000
vn -0.000000 1.000000 0.000000
vn 1.000000 0.000000 0.000000
vn 1.000000 0.000000 0.000000
vn 1.000000 0.000000 0.000000
vn 1.000000 0.000000 0.000000
vn -0.000000 1.000000 0.000000
vn -0.000000 1.000000 0.000000
vn -0.000000 1.000000 0.000000
vn -0.000000 1.000000 0.000000
vn -1.000000 -0.000000 -0.000000
vn -1.000000 -0.000000 -0.000000
vn -1.000000 -0.000000 -0.000000
vn -1.000000 -0.000000 -0.000000
vn -0.000000 1.000000 0.000000
vn -0.000000 1.000000 0.000000
vn -0.000000 1.000000 0.000000
vn -0.000000 1.000000 0.000000
vn 1.000000 0.000000 0.000000
vn 1.000000 0.000000 0.000000
vn 1.000000 0.000000 0.000000
vn 1.000000 0.000000 0.000000
vn -0.000000 1.000000 0.000000
vn -0.000000 1.000000 0.000000
vn -0.000000 1.000000 0.000000
vn -0.000000 1.000000 0.000000
vn -1.000000 -0.000000 -0.000000
vn -1.000000 -0.000000 -0.000000
vn -1.000000 -0.000000 -0.000000
vn -1.000000 -0.000000 -0.000000
vn -0.000000 1.000000 0.000000
vn -0.000000 1.000000 0.000000
vn -0.000000 1.000000 0.000000
vn -0.000000 1.000000 0.000000
vn 1.000000 0.000000 0.000000
vn 1.000000 0.000000 0.000000
vn 1.000000 0.000000 0.000000
vn 1.000000 0.000000 0.000000
vn 0.000000 -1.000000 -0.000000
vn 0.000000 -1.000000 -0.000000
vn 0.000000 -1.000000 -0.000000
vn 0.000000 -1.000000 -0.000000
vn 1.000000 0.000000 0.000000
vn 1.000000 0.000000 0.000000
vn 1.000000 0.000000 0.000000
vn 1.000000 0.000000 0.000000
vn -0.000000 1.000000 0.000000
vn -0.000000 1.000000 0.000000
vn -0.000000 1.000000 0.000000
vn -0.000000 1.000000 0.000000
vn -1.000000 -0.000000 -0.000000
vn -1.000000 -0.000000 -0.000000
vn -1.000000 -0.000000 -0.000000
vn -1.000000 -0.000000 -0.000000
vn -0.000000 1.000000 0.000000
vn -0.000000 1.000000 0.000000
vn -0.000000 1.000000 0.000000
vn -0.000000 1.000000 0.000000
vn 1.000000 0.000000 0.000000
vn 1.000000 0.000000 0.000000
vn 1.000000 0.000000 0.000000
vn 1.000000 0.000000 0.000000
vn 0.000000 -1.000000 -0.000000
vn 0.000000 -1.000000 -0.000000
vn 0.000000 -1.000000 -0.000000
vn 0.000000 -1.000000 -0.000000
vn 1.000000 0.000000 0.000000
vn 1.000000 0.000000 0.000000
vn 1.000000 0.000000 0.000000
vn 1.000000 0.000000 0.000000
vn -0.000000 1.000000 0.000000
vn -0.000000 1.000000 0.000000
vn -0.000000 1.000000 0.000000
vn -0.000000 1.000000 0.000000
vn -1.000000 -0.000000 -0.000000
vn -1.000000 -0.000000 -0.000000
vn -1.000000 -0.000000 -0.000000
vn -1.000000 -0.000000 -0.000000
vn -0.000000 1.000000 0.000000
vn -0.000000 1.000000 0.000000
vn -0.000000 1.000000 0.000000
vn -0.000000 1.000000 0.000000
vn -1.000000 -0.000000 -0.000000
vn -1.000000 -0.000000 -0.000000
vn -1.000000 -0.000000 -0.000000
vn -1.000000 -0.000000 -0.000000
vn 0.000000 -1.000000 -0.000000
vn 0.000000 -1.000000 -0.000000
vn 0.000000 -1.000000 -0.000000
vn 0.000000 -1.000000 -0.000000
vn -1.000000 -0.000000 -0.000000
vn -1.000000 -0.000000 -0.000000
vn -1.000000 -0.000000 -0.000000
vn -1.000000 -0.000000 -0.000000
vn -0.000000 1.000000 0.000000
vn -0.000000 1.000000 0.000000
vn -0.000000 1.000000 0.000000
vn -0.000000 1.000000 0.000000
vn 1.000000 0.000000 0.000000
vn 1.000000 0.000000 0.000000
vn 1.000000 0.000000 0.000000
vn 1.000000 0.000000 0.000000
vn 0.000000 -1.000000 -0.000000
vn 0.000000 -1.000000 -0.000000
vn 0.000000 -1.000000 -0.000000
vn 0.000000 -1.000000 -0.000000
vn 1.000000 0.000000 0.000000
vn 1.000000 0.000000 0.000000
vn 1.000000 0.000000 0.000000
vn 1.000000 0.000000 0.000000
vn -0.000000 1.000000 0.000000
vn -0.000000 1.000000 0.000000
vn -0.000000 1.000000 0.000000
vn -0.000000 1.000000 0.000000
vn 1.000000 0.000000 0.000000
vn 1.000000 0.000000 0.000000
vn 1.000000 0.000000 0.000000
vn 1.000000 0.000000 0.000000
vn 0.000000 -1.000000 -0.000000
vn 0.000000 -1.000000 -0.000000
vn 0.000000 -1.000000 -0.000000
vn 0.000000 -1.000000 -0.000000
vn 0.000000 -0.000000 1.000000
vn 0.000000 -0.000000 1.000000
vn 0.000000 -0.000000 1.000000
vn 0.000000 -0.000000 1.000000
vn 0.000000 -0.000000 1.000000
vn 0.000000 -0.000000 1.000000
vn 0.000000 -0.000000 1.000000
vn 0.000000 -0.000000 1.000000
vn 0.000000 -0.000000 1.000000
vn 0.000000 -0.000000 1.000000
vn 0.000000 -0.000000 1.000000
vn 0.000000 -0.000000 1.000000
vn 0.000000 -0.000000 1.000000
vn 0.000000 -0.000000 1.000000
vn 0.000000 -0.000000 1.000000
vn 0.000000 -0.000000 1.000000
vn 0.000000 -0.000000 1.000000
vn 0.000000 -0.000000 1.000000
vn 0.000000 -0.000000 1.000000
vn 0.000000 -0.000000 1.000000
vn 0.000000 -0.000000 1.000000
vn 0.000000 -0.000000 1.000000
vn 0.000000 -0.000000 1.000000
vn 0.000000 -0.000000 1.000000
vn 0.000000 -0.000000 1.000000
vn 0.000000 -0.000000 1.000000
vn 0.000000 -0.000000 1.000000
vn 0.000000 -0.000000 1.000000
vn 0.000000 -0.000000 1.000000
vn 0.000000 -0.000000 1.000000
vn 0.000000 -0.000000 1.000000
vn 0.000000 -0.000000 1.000000
vn 0.000000 -0.000000 1.000000
vn 0.000000 -0.000000 1.000000
vn 0.000000 -0.000000 1.000000
vn 0.000000 -0.000000 1.000000
vn 0.000000 -0.000000 1.000000
vn 0.000000 -0.000000 1.000000
vn 0.000000 -0.000000 1.000000
vn 0.000000 -0.000000 1.000000
vn 0.000000 -0.000000 1.000000
vn 0.000000 -0.000000 1.000000
vn 0.000000 -0.000000 1.000000
vn 0.000000 -0.000000 1.000000
vn 0.000000 -0.000000 1.000000
vn 0.000000 -0.000000 1.000000
vn 0.000000 -0.000000 1.000000
vn 0.000000 -0.000000 1.000000
vn 0.000000 -0.000000 1.000000
vn 0.000000 -0.000000 1.000000
vn 0.000000 -0.000000 1.000000
vn 0.000000 -0.000000 1.000000
vn 0.000000 -0.000000 1.000000
vn 0.000000 -0.000000 1.000000
vn 0.000000 -0.000000 1.000000
vn 0.000000 -0.000000 1.000000
vn 0.000000 -0.000000 1.000000
vn 0.000000 -0.000000 1.000000
vn 0.000000 -0.000000 1.000000
vn 0.000000 -0.000000 1.000000
vn 0.000000 -0.000000 1.000000
vn 0.000000 -0.000000 1.000000
vn 0.000000 -0.000000 1.000000
vn 0.000000 -0.000000 1.000000
vn 0.000000 -0.000000 1.000000
vn 0.000000 -0.000000 1.000000
vn 0.000000 -0.000000 1.000000
vn 0.000000 -0.000000 1.000000
vn 0.000000 -0.000000 1.000000
vn 0.000000 -0.000000 1.000000
vn 0.000000 -0.000000 1.000000
vn 0.000000 -0.000000 1.000000
vn 0.000000 -0.000000 1.000000
vn 0.000000 -0.000000 1.000000
vn 0.000000 -0.000000 1.000000
vn 0.000000 -0.000000 1.000000
vn 0.000000 -0.000000 1.000000
vn 0.000000 -0.000000 1.000000
vn 0.000000 -0.000000 1.000000
vn 0.000000 -0.000000 1.000000
vn 0.000000 -0.000000 1.000000
vn 0.000000 -0.000000 1.000000
vn 0.000000 -0.000000 1.000000
vn 0.000000 -0.000000 1.000000
vn 0.000000 -0.000000 1.000000
vn 0.000000 -0.000000 1.000000
vn 0.000000 -0.000000 1.000000
vn 0.000000 -0.000000 1.000000
vn 0.000000 -0.000000 1.000000
vn 0.000000 -0.000000 1.000000
vn 0.000000 -0.000000 1.000000
vn 0.000000 -0.000000 1.000000
vn 0.000000 -0.000000 1.000000
vn 0.000000 -0.000000 1.000000
vn 0.000000 -0.000000 1.000000
vn 0.000000 -0.000000 1.000000
vn 0.000000 -0.000000 1.000000
vn 0.000000 -0.000000 1.000000
vn 0.000000 -0.000000 1.000000
vn 0.000000 -0.000000 1.000000
vn 0.000000 -0.000000 1.000000
vn 0.000000 -0.000000 1.000000
vn 0.000000 -0.000000 1.000000
vn 0.000000 -0.000000 1.000000
vn 0.000000 -0.000000 1.000000
vn 0.000000 -0.000000 1.000000
vn 0.000000 -0.000000 1.000000
vn 0.000000 -0.000000 1.000000
vn 0.000000 -0.000000 1.000000
vn 0.000000 -0.000000 1.000000
vn 0.000000 -0.000000 1.000000
vn 0.000000 -0.000000 1.000000
vn 0.000000 -0.000000 1.000000
vn 0.000000 -0.000000 1.000000
vn 0.000000 -0.000000 1.000000
vn 0.000000 -0.000000 1.000000
vn 0.000000 -0.000000 1.000000
vn 0.000000 -0.000000 1.000000
vn 0.000000 -0.000000 1.000000
vn 0.000000 -0.000000 1.000000
vn 0.000000 -0.000000 1.000000
vn 0.000000 -0.000000 1.000000
vn 0.000000 -0.000000 1.000000
vn 0.000000 -0.000000 1.000000
vn -0.000000 0.000000 -1.000000
vn -0.000000 0.000000 -1.000000
vn -0.000000 0.000000 -1.000000
vn -0.000000 0.000000 -1.000000
vn -0.000000 0.000000 -1.000000
vn -0.000000 0.000000 -1.000000
vn -0.000000 0.000000 -1.000000
vn -0.000000 0.000000 -1.000000
vn -0.000000 0.000000 -1.000000
vn -0.000000 0.000000 -1.000000
vn -0.000000 0.000000 -1.000000
vn -0.000000 0.000000 -1.000000
vn -0.000000 0.000000 -1.000000
vn -0.000000 0.000000 -1.000000
vn -0.000000 0.000000 -1.000000
vn -0.000000 0.000000 -1.000000
vn -0.000000 0.000000 -1.000000
vn -0.000000 0.000000 -1.000000
vn -0.000000 0.000000 -1.000000
vn -0.000000 0.000000 -1.000000
vn -0.000000 0.000000 -1.000000
vn -0.000000 0.000000 -1.000000
vn -0.000000 0.000000 -1.000000
vn -0.000000 0.000000 -1.000000
vn -0.000000 0.000000 -1.000000
vn -0.000000 0.000000 -1.000000
vn -0.000000 0.000000 -1.000000
vn -0.000000 0.000000 -1.000000
vn -0.000000 0.000000 -1.000000
vn -0.000000 0.000000 -1.000000
vn -0.000000 0.000000 -1.000000
vn -0.000000 0.000000 -1.000000
vn -0.000000 0.000000 -1.000000
vn -0.000000 0.000000 -1.000000
vn -0.000000 0.000000 -1.000000
vn -0.000000 0.000000 -1.000000
vn -0.000000 0.000000 -1.000000
vn -0.000000 0.000000 -1.000000
vn -0.000000 0.000000 -1.000000
vn -0.000000 0.000000 -1.000000
vn -0.000000 0.000000 -1.000000
vn -0.000000 0.000000 -1.000000
vn -0.000000 0.000000 -1.000000
vn -0.000000 0.000000 -1.000000
vn -0.000000 0.000000 -1.000000
vn -0.000000 0.000000 -1.000000
vn -0.000000 0.000000 -1.000000
vn -0.000000 0.000000 -1.000000
vn -0.000000 0.000000 -1.000000
vn -0.000000 0.000000 -1.000000
vn -0.000000 0.000000 -1.000000
vn -0.000000 0.000000 -1.000000
vn -0.000000 0.000000 -1.000000
vn -0.000000 0.000000 -1.000000
vn -0.000000 0.000000 -1.000000
vn -0.000000 0.000000 -1.000000
vn -0.000000 0.000000 -1.000000
vn -0.000000 0.000000 -1.000000
vn -0.000000 0.000000 -1.000000
vn -0.000000 0.000000 -1.000000
vn -0.000000 0.000000 -1.000000
vn -0.000000 0.000000 -1.000000
vn -0.000000 0.000000 -1.000000
vn -0.000000 0.000000 -1.000000
vn -0.000000 0.000000 -1.000000
vn -0.000000 0.000000 -1.000000
vn -0.000000 0.000000 -1.000000
vn -0.000000 0.000000 -1.000000
vn -0.000000 0.000000 -1.000000
vn -0.000000 0.000000 -1.000000
vn -0.000000 0.000000 -1.000000
vn -0.000000 0.000000 -1.000000
vn -0.000000 0.000000 -1.000000
vn -0.000000 0.000000 -1.000000
vn -0.000000 0.000000 -1.000000
vn -0.000000 0.000000 -1.000000
vn -0.000000 0.000000 -1.000000
vn -0.000000 0.000000 -1.000000
vn -0.000000 0.000000 -1.000000
vn -0.000000 0.000000 -1.000000
vn -0.000000 0.000000 -1.000000
vn -0.000000 0.000000 -1.000000
vn -0.000000 0.000000 -1.000000
vn -0.000000 0.000000 -1.000000
vn -0.000000 0.000000 -1.000000
vn -0.000000 0.000000 -1.000000
vn -0.000000 0.000000 -1.000000
vn -0.000000 0.000000 -1.000000
vn -0.000000 0.000000 -1.000000
vn -0.000000 0.000000 -1.000000
vn -0.000000 0.000000 -1.000000
vn -0.000000 0.000000 -1.000000
vn -0.000000 0.000000 -1.000000
vn -0.000000 0.000000 -1.000000
vn -0.000000 0.000000 -1.000000
vn -0.000000 0.000000 -1.000000
vn -0.000000 0.000000 -1.000000
vn -0.000000 0.000000 -1.000000
vn -0.000000 0.000000 -1.000000
vn -0.000000 0.000000 -1.000000
vn -0.000000 0.000000 -1.000000
vn -0.000000 0.000000 -1.000000
vn -0.000000 0.000000 -1.000000
vn -0.000000 0.000000 -1.000000
vn -0.000000 0.000000 -1.000000
vn -0.000000 0.000000 -1.000000
vn -0.000000 0.000000 -1.000000
vn -0.000000 0.000000 -1.000000
vn -0.000000 0.000000 -1.000000
vn -0.000000 0.000000 -1.000000
vn -0.000000 0.000000 -1.000000
vn -0.000000 0.000000 -1.000000
vn -0.000000 0.000000 -1.000000
vn -0.000000 0.000000 -1.000000
vn -0.000000 0.000000 -1.000000
vn -0.000000 0.000000 -1.000000
vn -0.000000 0.000000 -1.000000
vn -0.000000 0.000000 -1.000000
vn -0.000000 0.000000 -1.000000
vn -0.000000 0.000000 -1.000000
vn -0.000000 0.000000 -1.000000
vn -0.000000 0.000000 -1.000000
vn -0.000000 0.000000 -1.000000
vn -0.000000 0.000000 -1.000000
usemtl Steel_-_Satin
f 1/1/1 2/2/2 4/3/3
f 4/3/3 2/2/2 3/4/4
f 5/5/5 1/6/6 6/7/7
f 6/7/7 1/6/6 4/8/8
f 7/9/9 5/10/10 8/11/11
f 8/11/11 5/10/10 6/12/12
f 9/13/13 7/14/14 10/15/15
f 10/15/15 7/14/14 8/16/16
f 11/17/17 9/18/18 12/19/19
f 12/19/19 9/18/18 10/20/20
f 13/21/21 11/22/22 14/23/23
f 14/23/23 11/22/22 12/24/24
f 15/25/25 13/26/26 16/27/27
f 16/27/27 13/26/26 14/28/28
f 17/29/29 15/30/30 18/31/31
f 18/31/31 15/30/30 16/32/32
f 19/33/33 17/34/34 20/35/35
f 20/35/35 17/34/34 18/36/36
f 21/37/37 19/38/38 22/39/39
f 22/39/39 19/38/38 20/40/40
f 23/41/41 21/42/42 24/43/43
f 24/43/43 21/42/42 22/44/44
f 25/45/45 23/46/46 26/47/47
f 26/47/47 23/46/46 24/48/48
f 27/49/49 25/50/50 28/51/51
f 28/51/51 25/50/50 26/52/52
f 29/53/53 27/54/54 30/55/55
f 30/55/55 27/54/54 28/56/56
f 31/57/57 29/58/58 32/59/59
f 32/59/59 29/58/58 30/60/60
f 33/61/61 31/62/62 34/63/63
f 34/63/63 31/62/62 32/64/64
f 35/65/65 33/66/66 36/67/67
f 36/67/67 33/66/66 34/68/68
f 37/69/69 35/70/70 38/71/71
f 38/71/71 35/70/70 36/72/72
f 39/73/73 37/74/74 40/75/75
f 40/75/75 37/74/74 38/76/76
f 41/77/77 39/78/78 42/79/79
f 42/79/79 39/78/78 40/80/80
f 43/81/81 41/82/82 44/83/83
f 44/83/83 41/82/82 42/84/84
f 45/85/85 43/86/86 46/87/87
f 46/87/87 43/86/86 44/88/88
f 47/89/89 45/90/90 48/91/91
f 48/91/91 45/90/90 46/92/92
f 49/93/93 47/94/94 50/95/95
f 50/95/95 47/94/94 48/96/96
f 51/97/97 49/98/98 52/99/99
f 52/99/99 49/98/98 50/100/100
f 53/101/101 51/102/102 54/103/103
f 54/103/103 51/102/102 52/104/104
f 55/105/105 53/106/106 56/107/107
f 56/107/107 53/106/106 54/108/108
f 57/109/109 55/110/110 58/111/111
f 58/111/111 55/110/110 56/112/112
f 59/113/113 57/114/114 60/115/115
f 60/115/115 57/114/114 58/116/116
f 61/117/117 59/118/118 62/119/119
f 62/119/119 59/118/118 60/120/120
f 63/121/121 61/122/122 64/123/123
f 64/123/123 61/122/122 62/124/124
f 65/125/125 63/126/126 66/127/127
f 66/127/127 63/126/126 64/128/128
f 67/129/129 65/130/130 68/131/131
f 68/131/131 65/130/130 66/132/132
f 69/133/133 67/134/134 70/135/135
f 70/135/135 67/134/134 68/136/136
f 71/137/137 69/138/138 72/139/139
f 72/139/139 69/138/138 70/140/140
f 73/141/141 71/142/142 74/143/143
f 74/143/143 71/142/142 72/144/144
f 75/145/145 73/146/146 76/147/147
f 76/147/147 73/146/146 74/148/148
f 77/149/149 75/150/150 78/151/151
f 78/151/151 75/150/150 76/152/152
f 79/153/153 77/154/154 80/155/155
f 80/155/155 77/154/154 78/156/156
f 81/157/157 79/158/158 82/159/159
f 82/159/159 79/158/158 80/160/160
f 83/161/161 81/162/162 84/163/163
f 84/163/163 81/162/162 82/164/164
f 85/165/165 83/166/166 86/167/167
f 86/167/167 83/166/166 84/168/168
f 87/169/169 85/170/170 88/171/171
f 88/171/171 85/170/170 86/172/172
f 89/173/173 87/174/174 90/175/175
f 90/175/175 87/174/174 88/176/176
f 91/177/177 89/178/178 92/179/179
f 92/179/179 89/178/178 90/180/180
f 93/181/181 91/182/182 94/183/183
f 94/183/183 91/182/182 92/184/184
f 95/185/185 93/186/186 96/187/187
f 96/187/187 93/186/186 94/188/188
f 97/189/189 95/190/190 98/191/191
f 98/191/191 95/190/190 96/192/192
f 99/193/193 97/194/194 100/195/195
f 100/195/195 97/194/194 98/196/196
f 101/197/197 99/198/198 102/199/199
f 102/199/199 99/198/198 100/200/200
f 103/201/201 101/202/202 104/203/203
f 104/203/203 101/202/202 102/204/204
f 105/205/205 103/206/206 106/207/207
f 106/207/207 103/206/206 104/208/208
f 107/209/209 105/210/210 108/211/211
f 108/211/211 105/210/210 106/212/212
f 109/213/213 107/214/214 110/215/215
f 110/215/215 107/214/214 108/216/216
f 111/217/217 109/218/218 112/219/219
f 112/219/219 109/218/218 110/220/220
f 113/221/221 111/222/222 114/223/223
f 114/223/223 111/222/222 112/224/224
f 115/225/225 113/226/226 116/227/227
f 116/227/227 113/226/226 114/228/228
f 117/229/229 115/230/230 118/231/231
f 118/231/231 115/230/230 116/232/232
f 119/233/233 117/234/234 120/235/235
f 120/235/235 117/234/234 118/236/236
f 121/237/237 119/238/238 122/239/239
f 122/239/239 119/238/238 120/240/240
f 123/241/241 121/242/242 124/243/243
f 124/243/243 121/242/242 122/244/244
f 125/245/245 123/246/246 126/247/247
f 126/247/247 123/246/246 124/248/248
f 127/249/249 125/250/250 128/251/251
f 128/251/251 125/250/250 126/252/252
f 129/253/253 127/254/254 130/255/255
f 130/255/255 127/254/254 128/256/256
f 131/257/257 129/258/258 132/259/259
f 132/259/259 129/258/258 130/260/260
f 133/261/261 131/262/262 134/263/263
f 134/263/263 131/262/262 132/264/264
f 135/265/265 133/266/266 136/267/267
f 136/267/267 133/266/266 134/268/268
f 137/269/269 135/270/270 138/271/271
f 138/271/271 135/270/270 136/272/272
f 139/273/273 137/274/274 140/275/275
f 140/275/275 137/274/274 138/276/276
f 141/277/277 139/278/278 142/279/279
f 142/279/279 139/278/278 140/280/280
f 143/281/281 141/282/282 144/283/283
f 144/283/283 141/282/282 142/284/284
f 145/285/285 143/286/286 146/287/287
f 146/287/287 143/286/286 144/288/288
f 147/289/289 145/290/290 148/291/291
f 148/291/291 145/290/290 146/292/292
f 149/293/293 147/294/294 150/295/295
f 150/295/295 147/294/294 148/296/296
f 151/297/297 149/298/298 152/299/299
f 152/299/299 149/298/298 150/300/300
f 153/301/301 151/302/302 154/303/303
f 154/303/303 151/302/302 152/304/304
f 155/305/305 153/306/306 156/307/307
f 156/307/307 153/306/306 154/308/308
f 157/309/309 155/310/310 158/311/311
f 158/311/311 155/310/310 156/312/312
f 159/313/313 157/314/314 160/315/315
f 160/315/315 157/314/314 158/316/316
f 161/317/317 159/318/318 162/319/319
f 162/319/319 159/318/318 160/320/320
f 163/321/321 161/322/322 164/323/323
f 164/323/323 161/322/322 162/324/324
f 165/325/325 163/326/326 166/327/327
f 166/327/327 163/326/326 164/328/328
f 167/329/329 165/330/330 168/331/331
f 168/331/331 165/330/330 166/332/332
f 169/333/333 167/334/334 170/335/335
f 170/335/335 167/334/334 168/336/336
f 171/337/337 169/338/338 172/339/339
f 172/339/339 169/338/338 170/340/340
f 173/341/341 171/342/342 174/343/343
f 174/343/343 171/342/342 172/344/344
f 175/345/345 173/346/346 176/347/347
f 176/347/347 173/346/346 174/348/348
f 177/349/349 175/350/350 178/351/351
f 178/351/351 175/350/350 176/352/352
f 179/353/353 177/354/354 180/355/355
f 180/355/355 177/354/354 178/356/356
f 181/357/357 179/358/358 182/359/359
f 182/359/359 179/358/358 180/360/360
f 183/361/361 181/362/362 184/363/363
f 184/363/363 181/362/362 182/364/364
f 185/365/365 183/366/366 186/367/367
f 186/367/367 183/366/366 184/368/368
f 187/369/369 185/370/370 188/371/371
f 188/371/371 185/370/370 186/372/372
f 189/373/373 187/374/374 190/375/375
f 190/375/375 187/374/374 188/376/376
f 191/377/377 189/378/378 192/379/379
f 192/379/379 189/378/378 190/380/380
f 193/381/381 191/382/382 194/383/383
f 194/383/383 191/382/382 192/384/384
f 195/385/385 193/386/386 196/387/387
f 196/387/387 193/386/386 194/388/388
f 197/389/389 195/390/390 198/391/391
f 198/391/391 195/390/390 196/392/392
f 199/393/393 197/394/394 200/395/395
f 200/395/395 197/394/394 198/396/396
f 201/397/397 199/398/398 202/399/399
f 202/399/399 199/398/398 200/400/400
f 203/401/401 201/402/402 204/403/403
f 204/403/403 201/402/402 202/404/404
f 205/405/405 203/406/406 206/407/407
f 206/407/407 203/406/406 204/408/408
f 207/409/409 205/410/410 208/411/411
f 208/411/411 205/410/410 206/412/412
f 209/413/413 207/414/414 210/415/415
f 210/415/415 207/414/414 208/416/416
f 211/417/417 209/418/418 212/419/419
f 212/419/419 209/418/418 210/420/420
f 213/421/421 211/422/422 214/423/423
f 214/423/423 211/422/422 212/424/424
f 215/425/425 213/426/426 216/427/427
f 216/427/427 213/426/426 214/428/428
f 217/429/429 215/430/430 218/431/431
f 218/431/431 215/430/430 216/432/432
f 219/433/433 217/434/434 220/435/435
f 220/435/435 217/434/434 218/436/436
f 221/437/437 219/438/438 222/439/439
f 222/439/439 219/438/438 220/440/440
f 223/441/441 221/442/442 224/443/443
f 224/443/443 221/442/442 222/444/444
f 225/445/445 223/446/446 226/447/447
f 226/447/447 223/446/446 224/448/448
f 227/449/449 225/450/450 228/451/451
f 228/451/451 225/450/450 226/452/452
f 229/453/453 227/454/454 230/455/455
f 230/455/455 227/454/454 228/456/456
f 231/457/457 229/458/458 232/459/459
f 232/459/459 229/458/458 230/460/460
f 233/461/461 231/462/462 234/463/463
f 234/463/463 231/462/462 232/464/464
f 235/465/465 233/466/466 236/467/467
f 236/467/467 233/466/466 234/468/468
f 237/469/469 235/470/470 238/471/471
f 238/471/471 235/470/470 236/472/472
f 239/473/473 237/474/474 240/475/475
f 240/475/475 237/474/474 238/476/476
f 241/477/477 239/478/478 242/479/479
f 242/479/479 239/478/478 240/480/480
f 243/481/481 241/482/482 244/483/483
f 244/483/483 241/482/482 242/484/484
f 245/485/485 243/486/486 246/487/487
f 246/487/487 243/486/486 244/488/488
f 247/489/489 245/490/490 248/491/491
f 248/491/491 245/490/490 246/492/492
f 2/493/493 247/494/494 3/495/495
f 3/495/495 247/494/494 248/496/496
f 4/497/497 3/498/498 6/499/499
f 6/499/499 3/498/498 248/500/500
f 6/499/499 248/500/500 8/501/501
f 8/501/501 248/500/500 246/502/502
f 8/501/501 246/502/502 244/503/503
f 242/504/504 16/505/505 244/503/503
f 244/503/503 16/505/505 14/506/506
f 244/503/503 14/506/506 10/507/507
f 10/507/507 14/506/506 12/508/508
f 240/509/509 230/510/510 242/504/504
f 242/504/504 230/510/510 228/511/511
f 242/504/504 228/511/511 226/512/512
f 230/510/510 240/509/509 232/513/513
f 232/513/513 240/509/509 238/514/514
f 232/513/513 238/514/514 236/515/515
f 236/515/515 234/516/516 232/513/513
f 242/504/504 226/512/512 16/505/505
f 16/505/505 226/512/512 224/517/517
f 16/505/505 224/517/517 18/518/518
f 18/518/518 224/517/517 24/519/519
f 18/518/518 24/519/519 22/520/520
f 224/517/517 222/521/521 24/519/519
f 24/519/519 222/521/521 212/522/522
f 24/519/519 212/522/522 202/523/523
f 202/523/523 212/522/522 210/524/524
f 202/523/523 210/524/524 204/525/525
f 204/525/525 210/524/524 206/526/526
f 206/526/526 210/524/524 208/527/527
f 212/522/522 222/521/521 214/528/528
f 214/528/528 222/521/521 220/529/529
f 214/528/528 220/529/529 218/530/530
f 218/530/530 216/531/531 214/528/528
f 24/519/519 202/523/523 26/532/532
f 26/532/532 202/523/523 200/533/533
f 26/532/532 200/533/533 128/534/534
f 128/534/534 200/533/533 130/535/535
f 130/535/535 200/533/533 194/536/536
f 130/535/535 194/536/536 180/537/537
f 180/537/537 194/536/536 192/538/538
f 180/537/537 192/538/538 182/539/539
f 182/539/539 192/538/538 184/540/540
f 184/540/540 192/538/538 190/541/541
f 184/540/540 190/541/541 188/542/542
f 198/543/543 196/544/544 200/533/533
f 200/533/533 196/544/544 194/536/536
f 188/542/542 186/545/545 184/540/540
f 180/537/537 178/546/546 130/535/535
f 130/535/535 178/546/546 132/547/547
f 132/547/547 178/546/546 172/548/548
f 132/547/547 172/548/548 170/549/549
f 178/546/546 176/550/550 172/548/548
f 172/548/548 176/550/550 174/551/551
f 168/552/552 166/553/553 170/549/549
f 170/549/549 166/553/553 164/554/554
f 170/549/549 164/554/554 132/547/547
f 132/547/547 164/554/554 134/555/555
f 134/555/555 164/554/554 136/556/556
f 136/556/556 164/554/554 162/557/557
f 136/556/556 162/557/557 138/558/558
f 138/558/558 162/557/557 144/559/559
f 138/558/558 144/559/559 140/560/560
f 140/560/560 144/559/559 142/561/561
f 162/557/557 160/562/562 144/559/559
f 144/559/559 160/562/562 146/563/563
f 146/563/563 160/562/562 158/564/564
f 146/563/563 158/564/564 152/565/565
f 152/565/565 158/564/564 156/566/566
f 152/565/565 156/566/566 154/567/567
f 150/568/568 148/569/569 152/565/565
f 152/565/565 148/569/569 146/563/563
f 26/532/532 128/534/534 28/570/570
f 28/570/570 128/534/534 126/571/571
f 28/570/570 126/571/571 124/572/572
f 122/573/573 32/574/574 124/572/572
f 124/572/572 32/574/574 30/575/575
f 124/572/572 30/575/575 28/570/570
f 120/576/576 42/577/577 122/573/573
f 122/573/573 42/577/577 40/578/578
f 122/573/573 40/578/578 38/579/579
f 120/576/576 118/580/580 42/577/577
f 42/577/577 118/580/580 104/581/581
f 42/577/577 104/581/581 44/582/582
f 44/582/582 104/581/581 102/583/583
f 44/582/582 102/583/583 48/584/584
f 48/584/584 102/583/583 100/585/585
f 48/584/584 100/585/585 50/586/586
f 50/586/586 100/585/585 94/587/587
f 50/586/586 94/587/587 92/588/588
f 116/589/589 112/590/590 118/580/580
f 118/580/580 112/590/590 106/591/591
f 118/580/580 106/591/591 104/581/581
f 116/589/589 114/592/592 112/590/590
f 110/593/593 108/594/594 112/590/590
f 112/590/590 108/594/594 106/591/591
f 98/595/595 96/596/596 100/585/585
f 100/585/585 96/596/596 94/587/587
f 92/588/588 90/597/597 50/586/586
f 50/586/586 90/597/597 80/598/598
f 50/586/586 80/598/598 78/599/599
f 80/598/598 90/597/597 82/600/600
f 82/600/600 90/597/597 88/601/601
f 82/600/600 88/601/601 86/602/602
f 86/602/602 84/603/603 82/600/600
f 50/586/586 78/599/599 72/604/604
f 72/604/604 78/599/599 76/605/605
f 72/604/604 76/605/605 74/606/606
f 50/586/586 72/604/604 52/607/607
f 52/607/607 72/604/604 70/608/608
f 52/607/607 70/608/608 64/609/609
f 64/609/609 70/608/608 68/610/610
f 64/609/609 68/610/610 66/611/611
f 64/609/609 62/612/612 52/607/607
f 52/607/607 62/612/612 60/613/613
f 52/607/607 60/613/613 54/614/614
f 54/614/614 60/613/613 56/615/615
f 56/615/615 60/613/613 58/616/616
f 48/584/584 46/617/617 44/582/582
f 122/573/573 38/579/579 32/574/574
f 32/574/574 38/579/579 36/618/618
f 32/574/574 36/618/618 34/619/619
f 22/520/520 20/620/620 18/518/518
f 10/507/507 8/501/501 244/503/503
f 2/621/621 5/622/622 247/623/623
f 247/623/623 5/622/622 7/624/624
f 247/623/623 7/624/624 245/625/625
f 245/625/625 7/624/624 243/626/626
f 243/626/626 7/624/624 9/627/627
f 243/626/626 9/627/627 13/628/628
f 13/628/628 9/627/627 11/629/629
f 2/621/621 1/630/630 5/622/622
f 13/628/628 15/631/631 243/626/626
f 243/626/626 15/631/631 241/632/632
f 241/632/632 15/631/631 225/633/633
f 241/632/632 225/633/633 227/634/634
f 225/633/633 15/631/631 223/635/635
f 223/635/635 15/631/631 17/636/636
f 223/635/635 17/636/636 23/637/637
f 23/637/637 17/636/636 21/638/638
f 21/638/638 17/636/636 19/639/639
f 25/640/640 201/641/641 23/637/637
f 23/637/637 201/641/641 211/642/642
f 23/637/637 211/642/642 213/643/643
f 201/641/641 25/640/640 127/644/644
f 127/644/644 25/640/640 27/645/645
f 127/644/644 27/645/645 125/646/646
f 125/646/646 27/645/645 123/647/647
f 123/647/647 27/645/645 29/648/648
f 123/647/647 29/648/648 31/649/649
f 33/650/650 35/651/651 31/649/649
f 31/649/649 35/651/651 37/652/652
f 31/649/649 37/652/652 123/647/647
f 123/647/647 37/652/652 121/653/653
f 121/653/653 37/652/652 39/654/654
f 121/653/653 39/654/654 41/655/655
f 43/656/656 103/657/657 41/655/655
f 41/655/655 103/657/657 117/658/658
f 41/655/655 117/658/658 119/659/659
f 45/660/660 47/661/661 43/656/656
f 43/656/656 47/661/661 101/662/662
f 43/656/656 101/662/662 103/657/657
f 101/662/662 47/661/661 99/663/663
f 99/663/663 47/661/661 49/664/664
f 99/663/663 49/664/664 93/665/665
f 93/665/665 49/664/664 91/666/666
f 91/666/666 49/664/664 89/667/667
f 89/667/667 49/664/664 79/668/668
f 89/667/667 79/668/668 81/669/669
f 51/670/670 71/671/671 49/664/664
f 49/664/664 71/671/671 77/672/672
f 49/664/664 77/672/672 79/668/668
f 53/673/673 61/674/674 51/670/670
f 51/670/670 61/674/674 63/675/675
f 51/670/670 63/675/675 69/676/676
f 69/676/676 63/675/675 67/677/677
f 67/677/677 63/675/675 65/678/678
f 61/674/674 53/673/673 59/679/679
f 59/679/679 53/673/673 55/680/680
f 59/679/679 55/680/680 57/681/681
f 69/676/676 71/671/671 51/670/670
f 73/682/682 75/683/683 71/671/671
f 71/671/671 75/683/683 77/672/672
f 83/684/684 85/685/685 81/669/669
f 81/669/669 85/685/685 87/686/686
f 81/669/669 87/686/686 89/667/667
f 93/665/665 95/687/687 99/663/663
f 99/663/663 95/687/687 97/688/688
f 103/657/657 105/689/689 117/658/658
f 117/658/658 105/689/689 111/690/690
f 117/658/658 111/690/690 115/691/691
f 115/691/691 111/690/690 113/692/692
f 105/689/689 107/693/693 111/690/690
f 111/690/690 107/693/693 109/694/694
f 119/659/659 121/653/653 41/655/655
f 201/641/641 127/644/644 199/695/695
f 199/695/695 127/644/644 129/696/696
f 199/695/695 129/696/696 193/697/697
f 193/697/697 129/696/696 179/698/698
f 193/697/697 179/698/698 191/699/699
f 191/699/699 179/698/698 181/700/700
f 191/699/699 181/700/700 183/701/701
f 179/698/698 129/696/696 177/702/702
f 177/702/702 129/696/696 131/703/703
f 177/702/702 131/703/703 171/704/704
f 171/704/704 131/703/703 169/705/705
f 169/705/705 131/703/703 163/706/706
f 169/705/705 163/706/706 165/707/707
f 131/703/703 133/708/708 163/706/706
f 163/706/706 133/708/708 135/709/709
f 163/706/706 135/709/709 161/710/710
f 161/710/710 135/709/709 137/711/711
f 161/710/710 137/711/711 143/712/712
f 143/712/712 137/711/711 139/713/713
f 143/712/712 139/713/713 141/714/714
f 161/710/710 143/712/712 159/715/715
f 159/715/715 143/712/712 145/716/716
f 159/715/715 145/716/716 157/717/717
f 157/717/717 145/716/716 147/718/718
f 157/717/717 147/718/718 151/719/719
f 151/719/719 147/718/718 149/720/720
f 153/721/721 155/722/722 151/719/719
f 151/719/719 155/722/722 157/717/717
f 165/707/707 167/723/723 169/705/705
f 173/724/724 175/725/725 171/704/704
f 171/704/704 175/725/725 177/702/702
f 185/726/726 187/727/727 183/701/701
f 183/701/701 187/727/727 189/728/728
f 183/701/701 189/728/728 191/699/699
f 193/697/697 195/729/729 199/695/695
f 199/695/695 195/729/729 197/730/730
f 211/642/642 201/641/641 209/731/731
f 209/731/731 201/641/641 203/732/732
f 209/731/731 203/732/732 205/733/733
f 205/733/733 207/734/734 209/731/731
f 215/735/735 217/736/736 213/643/643
f 213/643/643 217/736/736 219/737/737
f 213/643/643 219/737/737 221/738/738
f 213/643/643 221/738/738 23/637/637
f 23/637/637 221/738/738 223/635/635
f 227/634/634 229/739/739 241/632/632
f 241/632/632 229/739/739 239/740/740
f 239/740/740 229/739/739 231/741/741
f 239/740/740 231/741/741 237/742/742
f 237/742/742 231/741/741 235/743/743
f 235/743/743 231/741/741 233/744/744
g Body12

v 0.826500 0.469500 0.000000
v 0.826500 0.178500 0.000000
v 0.826500 0.178500 0.075000
v 0.826500 0.469500 0.075000
v 0.901500 0.469500 0.000000
v 0.901500 0.469500 0.075000
v 0.901500 0.253500 0.000000
v 0.901500 0.253500 0.075000
v 1.005000 0.253500 0.000000
v 1.005000 0.253500 0.075000
v 1.005000 1.005000 0.000000
v 1.005000 1.005000 0.075000
v -0.037500 1.005000 0.000000
v -0.037500 1.005000 0.075000
v -0.037500 1.080000 0.000000
v -0.037500 1.080000 0.075000
v 1.080000 1.080000 0.000000
v 1.080000 1.080000 0.075000
v 1.080000 -1.080000 -0.000000
v 1.080000 -1.080000 0.075000
v 0.178500 -1.080000 -0.000000
v 0.178500 -1.080000 0.075000
v 0.178500 -0.901500 -0.000000
v 0.178500 -0.901500 0.075000
v -0.037500 -0.901500 -0.000000
v -0.037500 -0.901500 0.075000
v -0.037500 -0.610500 -0.000000
v -0.037500 -0.610500 0.075000
v 0.178500 -0.610500 -0.000000
v 0.178500 -0.610500 0.075000
v 0.178500 -0.178500 -0.000000
v 0.178500 -0.178500 0.075000
v 0.469500 -0.178500 -0.000000
v 0.469500 -0.178500 0.075000
v 0.469500 -0.394500 -0.000000
v 0.469500 -0.394500 0.075000
v 0.685500 -0.394500 -0.000000
v 0.685500 -0.394500 0.075000
v 0.685500 -0.685500 -0.000000
v 0.685500 -0.685500 0.075000
v 0.610500 -0.685500 -0.000000
v 0.610500 -0.685500 0.075000
v 0.610500 -0.469500 -0.000000
v 0.610500 -0.469500 0.075000
v 0.394500 -0.469500 -0.000000
v 0.394500 -0.469500 0.075000
v 0.394500 -0.253500 -0.000000
v 0.394500 -0.253500 0.075000
v 0.253500 -0.253500 -0.000000
v 0.253500 -0.253500 0.075000
v 0.253500 -0.685500 -0.000000
v 0.253500 -0.685500 0.075000
v 0.037500 -0.685500 -0.000000
v 0.037500 -0.685500 0.075000
v 0.037500 -0.826500 -0.000000
v 0.037500 -0.826500 0.075000
v 0.253500 -0.826500 -0.000000
v 0.253500 -0.826500 0.075000
v 0.253500 -1.005000 -0.000000
v 0.253500 -1.005000 0.075000
v 0.394500 -1.005000 -0.000000
v 0.394500 -1.005000 0.075000
v 0.394500 -0.610500 -0.000000
v 0.394500 -0.610500 0.075000
v 0.469500 -0.610500 -0.000000
v 0.469500 -0.610500 0.075000
v 0.469500 -1.005000 -0.000000
v 0.469500 -1.005000 0.075000
v 1.005000 -1.005000 -0.000000
v 1.005000 -1.005000 0.075000
v 1.005000 0.178500 0.000000
v 1.005000 0.178500 0.075000
vt 0.000000 0.000000 0.000000
vt 0.291000 0.000000 0.000000
vt -0.000000 0.075000 0.000000
vt 0.291000 0.075000 0.000000
vt -0.000000 0.000000 0.000000
vt 0.075000 0.000000 0.000000
vt -0.000000 0.075000 0.000000
vt 0.075000 0.075000 0.000000
vt 0.000000 0.000000 0.000000
vt 0.216000 0.000000 0.000000
vt 0.000000 0.075000 0.000000
vt 0.216000 0.075000 0.000000
vt -0.000000 0.000000 0.000000
vt 0.103500 0.000000 0.000000
vt -0.000000 0.075000 0.000000
vt 0.103500 0.075000 0.000000
vt -0.000000 0.000000 0.000000
vt 0.751500 -0.000000 0.000000
vt -0.000000 0.075000 0.000000
vt 0.751500 0.075000 0.000000
vt 0.000000 0.000000 0.000000
vt 1.042500 0.000000 0.000000
vt 0.000000 0.075000 0.000000
vt 1.042500 0.075000 0.000000
vt 0.000000 0.000000 0.000000
vt 0.075000 -0.000000 0.000000
vt -0.000000 0.075000 0.000000
vt 0.075000 0.075000 0.000000
vt 0.000000 0.000000 0.000000
vt 1.117500 0.000000 0.000000
vt 0.000000 0.075000 0.000000
vt 1.117500 0.075000 0.000000
vt 0.000000 0.000000 0.000000
vt 2.160000 0.000000 0.000000
vt 0.000000 0.075000 0.000000
vt 2.160000 0.075000 0.000000
vt 0.000000 0.000000 0.000000
vt 0.901500 0.000000 0.000000
vt 0.000000 0.075000 0.000000
vt 0.901500 0.075000 0.000000
vt 0.000000 0.000000 0.000000
vt 0.178500 -0.000000 0.000000
vt -0.000000 0.075000 0.000000
vt 0.178500 0.075000 0.000000
vt 0.000000 0.000000 0.000000
vt 0.216000 0.000000 0.000000
vt 0.000000 0.075000 0.000000
vt 0.216000 0.075000 0.000000
vt 0.000000 0.000000 0.000000
vt 0.291000 0.000000 0.000000
vt -0.000000 0.075000 0.000000
vt 0.291000 0.075000 0.000000
vt -0.000000 0.000000 0.000000
vt 0.216000 0.000000 0.000000
vt -0.000000 0.075000 0.000000
vt 0.216000 0.075000 0.000000
vt 0.000000 0.000000 0.000000
vt 0.432000 -0.000000 0.000000
vt 0.000000 0.075000 0.000000
vt 0.432000 0.075000 0.000000
vt 0.000000 -0.000000 0.000000
vt 0.291000 -0.000000 0.000000
vt 0.000000 0.075000 0.000000
vt 0.291000 0.075000 0.000000
vt 0.000000 0.000000 0.000000
vt 0.216000 -0.000000 0.000000
vt 0.000000 0.075000 0.000000
vt 0.216000 0.075000 0.000000
vt -0.000000 0.000000 0.000000
vt 0.216000 0.000000 0.000000
vt -0.000000 0.075000 0.000000
vt 0.216000 0.075000 0.000000
vt 0.000000 0.000000 0.000000
vt 0.291000 0.000000 0.000000
vt 0.000000 0.075000 0.000000
vt 0.291000 0.075000 0.000000
vt 0.000000 0.000000 0.000000
vt 0.075000 0.000000 0.000000
vt 0.000000 0.075000 0.000000
vt 0.075000 0.075000 0.000000
vt 0.000000 0.000000 0.000000
vt 0.216000 -0.000000 0.000000
vt -0.000000 0.075000 0.000000
vt 0.216000 0.075000 0.000000
vt -0.000000 0.000000 0.000000
vt 0.216000 0.000000 0.000000
vt -0.000000 0.075000 0.000000
vt 0.216000 0.075000 0.000000
vt 0.000000 0.000000 0.000000
vt 0.216000 0.000000 0.000000
vt -0.000000 0.075000 0.000000
vt 0.216000 0.075000 0.000000
vt 0.000000 0.000000 0.000000
vt 0.141000 0.000000 0.000000
vt 0.000000 0.075000 0.000000
vt 0.141000 0.075000 0.000000
vt 0.000000 0.000000 0.000000
vt 0.432000 0.000000 0.000000
vt 0.000000 0.075000 0.000000
vt 0.432000 0.075000 0.000000
vt -0.000000 0.000000 0.000000
vt 0.216000 0.000000 0.000000
vt -0.000000 0.075000 0.000000
vt 0.216000 0.075000 0.000000
vt 0.000000 0.000000 0.000000
vt 0.141000 -0.000000 0.000000
vt 0.000000 0.075000 0.000000
vt 0.141000 0.075000 0.000000
vt -0.000000 0.000000 0.000000
vt 0.216000 -0.000000 0.000000
vt -0.000000 0.075000 0.000000
vt 0.216000 0.075000 0.000000
vt 0.000000 0.000000 0.000000
vt 0.178500 0.000000 0.000000
vt 0.000000 0.075000 0.000000
vt 0.178500 0.075000 0.000000
vt -0.000000 0.000000 0.000000
vt 0.141000 0.000000 0.000000
vt -0.000000 0.075000 0.000000
vt 0.141000 0.075000 0.000000
vt 0.000000 0.000000 0.000000
vt 0.394500 0.000000 0.000000
vt -0.000000 0.075000 0.000000
vt 0.394500 0.075000 0.000000
vt -0.000000 0.000000 0.000000
vt 0.075000 0.000000 0.000000
vt -0.000000 0.075000 0.000000
vt 0.075000 0.075000 0.000000
vt 0.000000 0.000000 0.000000
vt 0.394500 0.000000 0.000000
vt 0.000000 0.075000 0.000000
vt 0.394500 0.075000 0.000000
vt -0.000000 0.000000 0.000000
vt 0.535500 -0.000000 0.000000
vt -0.000000 0.075000 0.000000
vt 0.535500 0.075000 0.000000
vt 0.000000 0.000000 0.000000
vt 1.183500 0.000000 0.000000
vt 0.000000 0.075000 0.000000
vt 1.183500 0.075000 0.000000
vt -0.000000 -0.000000 0.000000
vt 0.178500 0.000000 0.000000
vt -0.000000 0.075000 0.000000
vt 0.178500 0.075000 0.000000
vt 0.305250 0.469500 0.000000
vt 0.305250 0.178500 0.000000
vt 0.380250 0.253500 0.000000
vt 0.483750 0.178500 0.000000
vt 0.483750 0.253500 0.000000
vt 0.558750 1.080000 0.000000
vt 0.483750 1.005000 0.000000
vt -0.558750 1.080000 0.000000
vt -0.558750 1.005000 0.000000
vt 0.558750 -1.080000 0.000000
vt 0.483750 -1.005000 0.000000
vt -0.051750 -1.005000 0.000000
vt -0.051750 -0.610500 0.000000
vt -0.126750 -0.610500 0.000000
vt -0.126750 -1.005000 0.000000
vt -0.342750 -1.080000 0.000000
vt -0.267750 -1.005000 0.000000
vt -0.342750 -0.901500 0.000000
vt -0.267750 -0.826500 0.000000
vt -0.483750 -0.826500 0.000000
vt -0.558750 -0.901500 0.000000
vt -0.483750 -0.685500 0.000000
vt -0.558750 -0.610500 0.000000
vt -0.342750 -0.610500 0.000000
vt -0.267750 -0.685500 0.000000
vt -0.267750 -0.253500 0.000000
vt -0.342750 -0.178500 0.000000
vt -0.126750 -0.253500 0.000000
vt -0.051750 -0.178500 0.000000
vt -0.051750 -0.394500 0.000000
vt -0.126750 -0.469500 0.000000
vt 0.089250 -0.469500 0.000000
vt 0.089250 -0.685500 0.000000
vt 0.164250 -0.685500 0.000000
vt 0.164250 -0.394500 0.000000
vt 0.380250 0.469500 0.000000
vt -0.178500 -0.305250 0.000000
vt -0.253500 -0.380250 0.000000
vt -0.178500 -0.483750 0.000000
vt -0.253500 -0.483750 0.000000
vt -1.080000 -0.558750 0.000000
vt -1.005000 -0.483750 0.000000
vt -1.080000 0.558750 0.000000
vt -1.005000 0.558750 0.000000
vt -0.469500 -0.305250 0.000000
vt -0.469500 -0.380250 0.000000
vt 1.080000 -0.558750 0.000000
vt 1.005000 -0.483750 0.000000
vt 1.005000 0.051750 0.000000
vt 1.080000 0.342750 0.000000
vt 1.005000 0.126750 0.000000
vt 1.005000 0.267750 0.000000
vt 0.901500 0.342750 0.000000
vt 0.826500 0.267750 0.000000
vt 0.826500 0.483750 0.000000
vt 0.901500 0.558750 0.000000
vt 0.610500 0.558750 0.000000
vt 0.685500 0.483750 0.000000
vt 0.610500 0.342750 0.000000
vt 0.685500 0.267750 0.000000
vt 0.253500 0.267750 0.000000
vt 0.178500 0.342750 0.000000
vt 0.178500 0.051750 0.000000
vt 0.253500 0.126750 0.000000
vt 0.394500 0.051750 0.000000
vt 0.469500 0.126750 0.000000
vt 0.469500 -0.089250 0.000000
vt 0.394500 -0.164250 0.000000
vt 0.685500 -0.164250 0.000000
vt 0.685500 -0.089250 0.000000
vt 0.610500 0.126750 0.000000
vt 0.610500 0.051750 0.000000
vn -1.000000 -0.000000 -0.000000
vn -1.000000 -0.000000 -0.000000
vn -1.000000 -0.000000 -0.000000
vn -1.000000 -0.000000 -0.000000
vn -0.000000 1.000000 0.000000
vn -0.000000 1.000000 0.000000
vn -0.000000 1.000000 0.000000
vn -0.000000 1.000000 0.000000
vn 1.000000 0.000000 0.000000
vn 1.000000 0.000000 0.000000
vn 1.000000 0.000000 0.000000
vn 1.000000 0.000000 0.000000
vn -0.000000 1.000000 0.000000
vn -0.000000 1.000000 0.000000
vn -0.000000 1.000000 0.000000
vn -0.000000 1.000000 0.000000
vn -1.000000 -0.000000 -0.000000
vn -1.000000 -0.000000 -0.000000
vn -1.000000 -0.000000 -0.000000
vn -1.000000 -0.000000 -0.000000
vn 0.000000 -1.000000 -0.000000
vn 0.000000 -1.000000 -0.000000
vn 0.000000 -1.000000 -0.000000
vn 0.000000 -1.000000 -0.000000
vn -1.000000 -0.000000 -0.000000
vn -1.000000 -0.000000 -0.000000
vn -1.000000 -0.000000 -0.000000
vn -1.000000 -0.000000 -0.000000
vn -0.000000 1.000000 0.000000
vn -0.000000 1.000000 0.000000
vn -0.000000 1.000000 0.000000
vn -0.000000 1.000000 0.000000
vn 1.000000 0.000000 0.000000
vn 1.000000 0.000000 0.000000
vn 1.000000 0.000000 0.000000
vn 1.000000 0.000000 0.000000
vn 0.000000 -1.000000 -0.000000
vn 0.000000 -1.000000 -0.000000
vn 0.000000 -1.000000 -0.000000
vn 0.000000 -1.000000 -0.000000
vn -1.000000 -0.000000 -0.000000
vn -1.000000 -0.000000 -0.000000
vn -1.000000 -0.000000 -0.000000
vn -1.000000 -0.000000 -0.000000
vn 0.000000 -1.000000 -0.000000
vn 0.000000 -1.000000 -0.000000
vn 0.000000 -1.000000 -0.000000
vn 0.000000 -1.000000 -0.000000
vn -1.000000 -0.000000 -0.000000
vn -1.000000 -0.000000 -0.000000
vn -1.000000 -0.000000 -0.000000
vn -1.000000 -0.000000 -0.000000
vn -0.000000 1.000000 0.000000
vn -0.000000 1.000000 0.000000
vn -0.000000 1.000000 0.000000
vn -0.000000 1.000000 0.000000
vn -1.000000 -0.000000 -0.000000
vn -1.000000 -0.000000 -0.000000
vn -1.000000 -0.000000 -0.000000
vn -1.000000 -0.000000 -0.000000
vn -0.000000 1.000000 0.000000
vn -0.000000 1.000000 0.000000
vn -0.000000 1.000000 0.000000
vn -0.000000 1.000000 0.000000
vn 1.000000 0.000000 0.000000
vn 1.000000 0.000000 0.000000
vn 1.000000 0.000000 0.000000
vn 1.000000 0.000000 0.000000
vn -0.000000 1.000000 0.000000
vn -0.000000 1.000000 0.000000
vn -0.000000 1.000000 0.000000
vn -0.000000 1.000000 0.000000
vn 1.000000 0.000000 0.000000
vn 1.000000 0.000000 0.000000
vn 1.000000 0.000000 0.000000
vn 1.000000 0.000000 0.000000
vn 0.000000 -1.000000 -0.000000
vn 0.000000 -1.000000 -0.000000
vn 0.000000 -1.000000 -0.000000
vn 0.000000 -1.000000 -0.000000
vn -1.000000 -0.000000 -0.000000
vn -1.000000 -0.000000 -0.000000
vn -1.000000 -0.000000 -0.000000
vn -1.000000 -0.000000 -0.000000
vn 0.000000 -1.000000 -0.000000
vn 0.000000 -1.000000 -0.000000
vn 0.000000 -1.000000 -0.000000
vn 0.000000 -1.000000 -0.000000
vn -1.000000 -0.000000 -0.000000
vn -1.000000 -0.000000 -0.000000
vn -1.000000 -0.000000 -0.000000
vn -1.000000 -0.000000 -0.000000
vn 0.000000 -1.000000 -0.000000
vn 0.000000 -1.000000 -0.000000
vn 0.000000 -1.000000 -0.000000
vn 0.000000 -1.000000 -0.000000
vn 1.000000 0.000000 0.000000
vn 1.000000 0.000000 0.000000
vn 1.000000 0.000000 0.000000
vn 1.000000 0.000000 0.000000
vn 0.000000 -1.000000 -0.000000
vn 0.000000 -1.000000 -0.000000
vn 0.000000 -1.000000 -0.000000
vn 0.000000 -1.000000 -0.000000
vn 1.000000 0.000000 0.000000
vn 1.000000 0.000000 0.000000
vn 1.000000 0.000000 0.000000
vn 1.000000 0.000000 0.000000
vn -0.000000 1.000000 0.000000
vn -0.000000 1.000000 0.000000
vn -0.000000 1.000000 0.000000
vn -0.000000 1.000000 0.000000
vn 1.000000 0.000000 0.000000
vn 1.000000 0.000000 0.000000
vn 1.000000 0.000000 0.000000
vn 1.000000 0.000000 0.000000
vn -0.000000 1.000000 0.000000
vn -0.000000 1.000000 0.000000
vn -0.000000 1.000000 0.000000
vn -0.000000 1.000000 0.000000
vn -1.000000 -0.000000 -0.000000
vn -1.000000 -0.000000 -0.000000
vn -1.000000 -0.000000 -0.000000
vn -1.000000 -0.000000 -0.000000
vn -0.000000 1.000000 0.000000
vn -0.000000 1.000000 0.000000
vn -0.000000 1.000000 0.000000
vn -0.000000 1.000000 0.000000
vn 1.000000 0.000000 0.000000
vn 1.000000 0.000000 0.000000
vn 1.000000 0.000000 0.000000
vn 1.000000 0.000000 0.000000
vn -0.000000 1.000000 0.000000
vn -0.000000 1.000000 0.000000
vn -0.000000 1.000000 0.000000
vn -0.000000 1.000000 0.000000
vn -1.000000 -0.000000 -0.000000
vn -1.000000 -0.000000 -0.000000
vn -1.000000 -0.000000 -0.000000
vn -1.000000 -0.000000 -0.000000
vn 0.000000 -1.000000 -0.000000
vn 0.000000 -1.000000 -0.000000
vn 0.000000 -1.000000 -0.000000
vn 0.000000 -1.000000 -0.000000
vn 0.000000 -0.000000 1.000000
vn 0.000000 -0.000000 1.000000
vn 0.000000 -0.000000 1.000000
vn 0.000000 -0.000000 1.000000
vn 0.000000 -0.000000 1.000000
vn 0.000000 -0.000000 1.000000
vn 0.000000 -0.000000 1.000000
vn 0.000000 -0.000000 1.000000
vn 0.000000 -0.000000 1.000000
vn 0.000000 -0.000000 1.000000
vn 0.000000 -0.000000 1.000000
vn 0.000000 -0.000000 1.000000
vn 0.000000 -0.000000 1.000000
vn 0.000000 -0.000000 1.000000
vn 0.000000 -0.000000 1.000000
vn 0.000000 -0.000000 1.000000
vn 0.000000 -0.000000 1.000000
vn 0.000000 -0.000000 1.000000
vn 0.000000 -0.000000 1.000000
vn 0.000000 -0.000000 1.000000
vn 0.000000 -0.000000 1.000000
vn 0.000000 -0.000000 1.000000
vn 0.000000 -0.000000 1.000000
vn 0.000000 -0.000000 1.000000
vn 0.000000 -0.000000 1.000000
vn 0.000000 -0.000000 1.000000
vn 0.000000 -0.000000 1.000000
vn 0.000000 -0.000000 1.000000
vn 0.000000 -0.000000 1.000000
vn 0.000000 -0.000000 1.000000
vn 0.000000 -0.000000 1.000000
vn 0.000000 -0.000000 1.000000
vn 0.000000 -0.000000 1.000000
vn 0.000000 -0.000000 1.000000
vn 0.000000 -0.000000 1.000000
vn 0.000000 -0.000000 1.000000
vn -0.000000 0.000000 -1.000000
vn -0.000000 0.000000 -1.000000
vn -0.000000 0.000000 -1.000000
vn -0.000000 0.000000 -1.000000
vn -0.000000 0.000000 -1.000000
vn -0.000000 0.000000 -1.000000
vn -0.000000 0.000000 -1.000000
vn -0.000000 0.000000 -1.000000
vn -0.000000 0.000000 -1.000000
vn -0.000000 0.000000 -1.000000
vn -0.000000 0.000000 -1.000000
vn -0.000000 0.000000 -1.000000
vn -0.000000 0.000000 -1.000000
vn -0.000000 0.000000 -1.000000
vn -0.000000 0.000000 -1.000000
vn -0.000000 0.000000 -1.000000
vn -0.000000 0.000000 -1.000000
vn -0.000000 0.000000 -1.000000
vn -0.000000 0.000000 -1.000000
vn -0.000000 0.000000 -1.000000
vn -0.000000 0.000000 -1.000000
vn -0.000000 0.000000 -1.000000
vn -0.000000 0.000000 -1.000000
vn -0.000000 0.000000 -1.000000
vn -0.000000 0.000000 -1.000000
vn -0.000000 0.000000 -1.000000
vn -0.000000 0.000000 -1.000000
vn -0.000000 0.000000 -1.000000
vn -0.000000 0.000000 -1.000000
vn -0.000000 0.000000 -1.000000
vn -0.000000 0.000000 -1.000000
vn -0.000000 0.000000 -1.000000
vn -0.000000 0.000000 -1.000000
vn -0.000000 0.000000 -1.000000
vn -0.000000 0.000000 -1.000000
vn -0.000000 0.000000 -1.000000
f 249/745/745 250/746/746 252/747/747
f 252/747/747 250/746/746 251/748/748
f 253/749/749 249/750/750 254/751/751
f 254/751/751 249/750/750 252/752/752
f 255/753/753 253/754/754 256/755/755
f 256/755/755 253/754/754 254/756/756
f 257/757/757 255/758/758 258/759/759
f 258/759/759 255/758/758 256/760/760
f 259/761/761 257/762/762 260/763/763
f 260/763/763 257/762/762 258/764/764
f 261/765/765 259/766/766 262/767/767
f 262/767/767 259/766/766 260/768/768
f 263/769/769 261/770/770 264/771/771
f 264/771/771 261/770/770 262/772/772
f 265/773/773 263/774/774 266/775/775
f 266/775/775 263/774/774 264/776/776
f 267/777/777 265/778/778 268/779/779
f 268/779/779 265/778/778 266/780/780
f 269/781/781 267/782/782 270/783/783
f 270/783/783 267/782/782 268/784/784
f 271/785/785 269/786/786 272/787/787
f 272/787/787 269/786/786 270/788/788
f 273/789/789 271/790/790 274/791/791
f 274/791/791 271/790/790 272/792/792
f 275/793/793 273/794/794 276/795/795
f 276/795/795 273/794/794 274/796/796
f 277/797/797 275/798/798 278/799/799
f 278/799/799 275/798/798 276/800/800
f 279/801/801 277/802/802 280/803/803
f 280/803/803 277/802/802 278/804/804
f 281/805/805 279/806/806 282/807/807
f 282/807/807 279/806/806 280/808/808
f 283/809/809 281/810/810 284/811/811
f 284/811/811 281/810/810 282/812/812
f 285/813/813 283/814/814 286/815/815
f 286/815/815 283/814/814 284/816/816
f 287/817/817 285/818/818 288/819/819
f 288/819/819 285/818/818 286/820/820
f 289/821/821 287/822/822 290/823/823
f 290/823/823 287/822/822 288/824/824
f 291/825/825 289/826/826 292/827/827
f 292/827/827 289/826/826 290/828/828
f 293/829/829 291/830/830 294/831/831
f 294/831/831 291/830/830 292/832/832
f 295/833/833 293/834/834 296/835/835
f 296/835/835 293/834/834 294/836/836
f 297/837/837 295/838/838 298/839/839
f 298/839/839 295/838/838 296/840/840
f 299/841/841 297/842/842 300/843/843
f 300/843/843 297/842/842 298/844/844
f 301/845/845 299/846/846 302/847/847
f 302/847/847 299/846/846 300/848/848
f 303/849/849 301/850/850 304/851/851
f 304/851/851 301/850/850 302/852/852
f 305/853/853 303/854/854 306/855/855
f 306/855/855 303/854/854 304/856/856
f 307/857/857 305/858/858 308/859/859
f 308/859/859 305/858/858 306/860/860
f 309/861/861 307/862/862 310/863/863
f 310/863/863 307/862/862 308/864/864
f 311/865/865 309/866/866 312/867/867
f 312/867/867 309/866/866 310/868/868
f 313/869/869 311/870/870 314/871/871
f 314/871/871 311/870/870 312/872/872
f 315/873/873 313/874/874 316/875/875
f 316/875/875 313/874/874 314/876/876
f 317/877/877 315/878/878 318/879/879
f 318/879/879 315/878/878 316/880/880
f 319/881/881 317/882/882 320/883/883
f 320/883/883 317/882/882 318/884/884
f 250/885/885 319/886/886 251/887/887
f 251/887/887 319/886/886 320/888/888
f 252/889/889 251/890/890 256/891/891
f 256/891/891 251/890/890 320/892/892
f 256/891/891 320/892/892 258/893/893
f 258/893/893 320/892/892 266/894/894
f 258/893/893 266/894/894 260/895/895
f 260/895/895 266/894/894 264/896/896
f 260/895/895 264/896/896 262/897/897
f 266/894/894 320/892/892 268/898/898
f 268/898/898 320/892/892 318/899/899
f 268/898/898 318/899/899 316/900/900
f 314/901/901 312/902/902 316/900/900
f 316/900/900 312/902/902 310/903/903
f 316/900/900 310/903/903 270/904/904
f 270/904/904 310/903/903 308/905/905
f 270/904/904 308/905/905 272/906/906
f 272/906/906 308/905/905 306/907/907
f 272/906/906 306/907/907 304/908/908
f 272/906/906 304/908/908 274/909/909
f 274/909/909 304/908/908 302/910/910
f 274/909/909 302/910/910 276/911/911
f 276/911/911 302/910/910 278/912/912
f 278/912/912 302/910/910 300/913/913
f 278/912/912 300/913/913 298/914/914
f 278/912/912 298/914/914 280/915/915
f 280/915/915 298/914/914 296/916/916
f 280/915/915 296/916/916 282/917/917
f 282/917/917 296/916/916 284/918/918
f 284/918/918 296/916/916 294/919/919
f 284/918/918 294/919/919 292/920/920
f 290/921/921 288/922/922 292/920/920
f 292/920/920 288/922/922 286/923/923
f 292/920/920 286/923/923 284/918/918
f 270/904/904 268/898/898 316/900/900
f 256/891/891 254/924/924 252/889/889
f 250/925/925 255/926/926 319/927/927
f 319/927/927 255/926/926 257/928/928
f 319/927/927 257/928/928 265/929/929
f 265/929/929 257/928/928 259/930/930
f 265/929/929 259/930/930 263/931/931
f 263/931/931 259/930/930 261/932/932
f 250/925/925 249/933/933 255/926/926
f 255/926/926 249/933/933 253/934/934
f 265/929/929 267/935/935 319/927/927
f 319/927/927 267/935/935 317/936/936
f 317/936/936 267/935/935 315/937/937
f 315/937/937 267/935/935 269/938/938
f 315/937/937 269/938/938 309/939/939
f 309/939/939 269/938/938 307/940/940
f 307/940/940 269/938/938 271/941/941
f 307/940/940 271/941/941 305/942/942
f 305/942/942 271/941/941 303/943/943
f 303/943/943 271/941/941 273/944/944
f 303/943/943 273/944/944 275/945/945
f 303/943/943 275/945/945 301/946/946
f 301/946/946 275/945/945 277/947/947
f 301/946/946 277/947/947 299/948/948
f 299/948/948 277/947/947 297/949/949
f 297/949/949 277/947/947 279/950/950
f 297/949/949 279/950/950 281/951/951
f 297/949/949 281/951/951 295/952/952
f 295/952/952 281/951/951 283/953/953
f 295/952/952 283/953/953 293/954/954
f 293/954/954 283/953/953 291/955/955
f 291/955/955 283/953/953 285/956/956
f 291/955/955 285/956/956 287/957/957
f 287/957/957 289/958/958 291/955/955
f 309/939/939 311/959/959 315/937/937
f 315/937/937 311/959/959 313/960/960
# 320 vertices
# 960 texture params
# 960 normals
# 632 facets

# 2 groups
