# WaveFront *.obj file (generated by Autodesk ATF)

mtllib Maze v13 (Thick Walls).mtl

g Body8

v -0.360000 -0.040000 -0.000000
v -0.360000 0.040000 0.000000
v -0.360000 0.040000 0.080000
v -0.360000 -0.040000 0.080000
v -0.760000 -0.560000 -0.000000
v -0.840000 -0.560000 -0.000000
v -0.840000 -0.560000 0.080000
v -0.760000 -0.560000 0.080000
v 0.040000 -1.040000 0.080000
v 0.040000 -0.960000 0.080000
v -0.160000 -0.960000 0.080000
v -0.160000 -0.440000 0.080000
v 0.040000 -0.440000 0.080000
v 0.040000 -0.040000 0.080000
v 0.440000 -0.040000 0.080000
v 0.440000 0.040000 0.080000
v 0.040000 0.040000 0.080000
v 0.040000 0.440000 0.080000
v -0.160000 0.440000 0.080000
v -0.160000 0.560000 0.080000
v 0.160000 0.560000 0.080000
v 0.160000 0.160000 0.080000
v 0.240000 0.160000 0.080000
v 0.240000 0.360000 0.080000
v 0.560000 0.360000 0.080000
v 0.560000 0.240000 0.080000
v 0.360000 0.240000 0.080000
v 0.360000 0.160000 0.080000
v 0.560000 0.160000 0.080000
v 0.560000 -0.240000 0.080000
v 0.640000 -0.240000 0.080000
v 0.640000 -0.040000 0.080000
v 0.760000 -0.040000 0.080000
v 0.760000 -0.760000 0.080000
v 0.560000 -0.760000 0.080000
v 0.560000 -0.840000 0.080000
v 0.840000 -0.840000 0.080000
v 0.840000 0.040000 0.080000
v 0.640000 0.040000 0.080000
v 0.640000 0.560000 0.080000
v 0.840000 0.560000 0.080000
v 0.840000 0.840000 0.080000
v 0.560000 0.840000 0.080000
v 0.560000 0.760000 0.080000
v 0.760000 0.760000 0.080000
v 0.760000 0.640000 0.080000
v 0.560000 0.640000 0.080000
v 0.560000 0.440000 0.080000
v 0.240000 0.440000 0.080000
v 0.240000 0.560000 0.080000
v 0.440000 0.560000 0.080000
v 0.440000 0.840000 0.080000
v 0.360000 0.840000 0.080000
v 0.360000 0.640000 0.080000
v 0.040000 0.640000 0.080000
v 0.040000 0.760000 0.080000
v 0.240000 0.760000 0.080000
v 0.240000 0.840000 0.080000
v -0.040000 0.840000 0.080000
v -0.040000 0.640000 0.080000
v -0.360000 0.640000 0.080000
v -0.360000 0.840000 0.080000
v -0.440000 0.840000 0.080000
v -0.440000 0.640000 0.080000
v -0.560000 0.640000 0.080000
v -0.560000 0.840000 0.080000
v -0.840000 0.840000 0.080000
v -0.840000 0.760000 0.080000
v -0.640000 0.760000 0.080000
v -0.640000 0.560000 0.080000
v -0.440000 0.560000 0.080000
v -0.440000 0.440000 0.080000
v -0.840000 0.440000 0.080000
v -0.840000 0.360000 0.080000
v -0.440000 0.360000 0.080000
v -0.440000 0.240000 0.080000
v -0.640000 0.240000 0.080000
v -0.640000 0.160000 0.080000
v -0.240000 0.160000 0.080000
v -0.240000 -0.160000 0.080000
v -0.760000 -0.160000 0.080000
v -0.760000 -0.040000 0.080000
v -0.760000 0.040000 0.080000
v -0.760000 0.240000 0.080000
v -0.840000 0.240000 0.080000
v -0.840000 -0.240000 0.080000
v -0.440000 -0.240000 0.080000
v -0.440000 -0.440000 0.080000
v -0.360000 -0.440000 0.080000
v -0.360000 -0.240000 0.080000
v -0.160000 -0.240000 0.080000
v -0.160000 0.240000 0.080000
v -0.360000 0.240000 0.080000
v -0.360000 0.560000 0.080000
v -0.240000 0.560000 0.080000
v -0.240000 0.360000 0.080000
v -0.040000 0.360000 0.080000
v -0.040000 -0.360000 0.080000
v -0.240000 -0.360000 0.080000
v -0.240000 -0.560000 0.080000
v -0.640000 -0.560000 0.080000
v -0.640000 -0.640000 0.080000
v -0.440000 -0.640000 0.080000
v -0.440000 -0.840000 0.080000
v -0.360000 -0.840000 0.080000
v -0.360000 -0.640000 0.080000
v -0.240000 -0.640000 0.080000
v -0.240000 -0.960000 0.080000
v -0.560000 -0.960000 0.080000
v -0.560000 -0.760000 0.080000
v -0.640000 -0.760000 0.080000
v -0.640000 -0.960000 0.080000
v -0.960000 -0.960000 0.080000
v -0.960000 -0.840000 0.080000
v -0.760000 -0.840000 0.080000
v -0.840000 -0.760000 0.080000
v -0.960000 -0.760000 0.080000
v -0.960000 -0.440000 0.080000
v -0.560000 -0.440000 0.080000
v -0.560000 -0.360000 0.080000
v -0.960000 -0.360000 0.080000
v -0.960000 0.560000 0.080000
v -0.760000 0.560000 0.080000
v -0.760000 0.640000 0.080000
v -0.960000 0.640000 0.080000
v -0.960000 0.960000 0.080000
v -0.240000 0.960000 0.080000
v -0.240000 0.760000 0.080000
v -0.160000 0.760000 0.080000
v -0.160000 1.040000 0.080000
v -1.040000 1.040000 0.080000
v -1.040000 -1.040000 0.080000
v -0.240000 -0.960000 -0.000000
v -0.560000 -0.960000 -0.000000
v -0.240000 0.960000 0.000000
v -0.960000 0.960000 0.000000
v -0.960000 0.640000 0.000000
v -0.960000 -0.360000 -0.000000
v -0.960000 0.560000 0.000000
v 0.040000 -0.960000 -0.000000
v -0.160000 -0.960000 -0.000000
v -0.960000 -0.960000 -0.000000
v -0.960000 -0.840000 -0.000000
v -0.640000 -0.960000 -0.000000
v -0.960000 -0.760000 -0.000000
v -0.960000 -0.440000 -0.000000
v 0.040000 -1.040000 -0.000000
v -1.040000 -1.040000 -0.000000
v -1.040000 1.040000 0.000000
v -0.160000 1.040000 0.000000
v -0.160000 0.760000 0.000000
v -0.240000 0.760000 0.000000
v -0.760000 0.640000 0.000000
v -0.760000 0.560000 0.000000
v -0.560000 -0.360000 -0.000000
v -0.560000 -0.440000 -0.000000
v -0.840000 -0.760000 -0.000000
v -0.760000 -0.840000 -0.000000
v -0.640000 -0.760000 -0.000000
v -0.560000 -0.760000 -0.000000
v -0.240000 -0.640000 -0.000000
v -0.360000 -0.640000 -0.000000
v -0.360000 -0.840000 -0.000000
v -0.440000 -0.840000 -0.000000
v -0.440000 -0.640000 -0.000000
v -0.640000 -0.640000 -0.000000
v -0.640000 -0.560000 -0.000000
v -0.240000 -0.560000 -0.000000
v -0.240000 -0.360000 -0.000000
v -0.040000 -0.360000 -0.000000
v -0.040000 0.360000 0.000000
v -0.240000 0.360000 0.000000
v -0.240000 0.560000 0.000000
v -0.360000 0.560000 0.000000
v -0.360000 0.240000 0.000000
v -0.160000 0.240000 0.000000
v -0.160000 -0.240000 -0.000000
v -0.360000 -0.240000 -0.000000
v -0.360000 -0.440000 -0.000000
v -0.440000 -0.440000 -0.000000
v -0.440000 -0.240000 -0.000000
v -0.840000 -0.240000 -0.000000
v -0.840000 0.240000 0.000000
v -0.760000 0.240000 0.000000
v -0.760000 0.040000 0.000000
v -0.760000 -0.040000 -0.000000
v -0.760000 -0.160000 -0.000000
v -0.240000 -0.160000 -0.000000
v -0.240000 0.160000 0.000000
v -0.640000 0.160000 0.000000
v -0.640000 0.240000 0.000000
v -0.440000 0.240000 0.000000
v -0.440000 0.360000 0.000000
v -0.840000 0.360000 0.000000
v -0.840000 0.440000 0.000000
v -0.440000 0.440000 0.000000
v -0.440000 0.560000 0.000000
v -0.640000 0.560000 0.000000
v -0.640000 0.760000 0.000000
v -0.840000 0.760000 0.000000
v -0.840000 0.840000 0.000000
v -0.560000 0.840000 0.000000
v -0.560000 0.640000 0.000000
v -0.440000 0.640000 0.000000
v -0.440000 0.840000 0.000000
v -0.360000 0.840000 0.000000
v -0.360000 0.640000 0.000000
v -0.040000 0.640000 0.000000
v -0.040000 0.840000 0.000000
v 0.240000 0.840000 0.000000
v 0.240000 0.760000 0.000000
v 0.040000 0.760000 0.000000
v 0.040000 0.640000 0.000000
v 0.360000 0.640000 0.000000
v 0.360000 0.840000 0.000000
v 0.440000 0.840000 0.000000
v 0.440000 0.560000 0.000000
v 0.240000 0.560000 0.000000
v 0.240000 0.440000 0.000000
v 0.560000 0.440000 0.000000
v 0.560000 0.640000 0.000000
v 0.760000 0.640000 0.000000
v 0.760000 0.760000 0.000000
v 0.560000 0.760000 0.000000
v 0.560000 0.840000 0.000000
v 0.840000 0.840000 0.000000
v 0.840000 0.560000 0.000000
v 0.640000 0.560000 0.000000
v 0.640000 0.040000 0.000000
v 0.840000 0.040000 0.000000
v 0.840000 -0.840000 -0.000000
v 0.560000 -0.840000 -0.000000
v 0.560000 -0.760000 -0.000000
v 0.760000 -0.760000 -0.000000
v 0.760000 -0.040000 -0.000000
v 0.640000 -0.040000 -0.000000
v 0.640000 -0.240000 -0.000000
v 0.560000 -0.240000 -0.000000
v 0.560000 0.160000 0.000000
v 0.360000 0.160000 0.000000
v 0.360000 0.240000 0.000000
v 0.560000 0.240000 0.000000
v 0.560000 0.360000 0.000000
v 0.240000 0.360000 0.000000
v 0.240000 0.160000 0.000000
v 0.160000 0.160000 0.000000
v 0.160000 0.560000 0.000000
v -0.160000 0.560000 0.000000
v -0.160000 0.440000 0.000000
v 0.040000 0.440000 0.000000
v 0.040000 0.040000 0.000000
v 0.440000 0.040000 0.000000
v 0.440000 -0.040000 -0.000000
v 0.040000 -0.040000 -0.000000
v 0.040000 -0.440000 -0.000000
v -0.160000 -0.440000 -0.000000
vt 0.000000 0.000000 0.000000
vt 0.080000 0.000000 0.000000
vt -0.000000 0.080000 0.000000
vt 0.080000 0.080000 0.000000
vt -0.000000 0.000000 0.000000
vt 0.080000 0.000000 0.000000
vt -0.000000 0.080000 0.000000
vt 0.080000 0.080000 0.000000
vt 0.120000 -0.960000 0.000000
vt -0.080000 -0.960000 0.000000
vt 0.120000 -1.040000 0.000000
vt -0.160000 -0.960000 0.000000
vt -0.480000 -0.960000 0.000000
vt -0.160000 -0.640000 0.000000
vt -0.080000 -0.440000 0.000000
vt -0.160000 -0.560000 0.000000
vt -0.160000 -0.360000 0.000000
vt 0.040000 -0.360000 0.000000
vt 0.120000 -0.440000 0.000000
vt 0.120000 -0.040000 0.000000
vt 0.120000 0.040000 0.000000
vt 0.520000 -0.040000 0.000000
vt 0.520000 0.040000 0.000000
vt 0.040000 0.360000 0.000000
vt 0.120000 0.440000 0.000000
vt -0.080000 0.440000 0.000000
vt -0.080000 0.560000 0.000000
vt -0.160000 0.560000 0.000000
vt -0.160000 0.360000 0.000000
vt 0.240000 0.560000 0.000000
vt 0.040000 0.640000 0.000000
vt -0.280000 0.640000 0.000000
vt -0.280000 0.560000 0.000000
vt -0.360000 0.640000 0.000000
vt -0.360000 0.560000 0.000000
vt -0.480000 0.640000 0.000000
vt -0.560000 0.560000 0.000000
vt -0.560000 0.760000 0.000000
vt -0.480000 0.840000 0.000000
vt -0.760000 0.840000 0.000000
vt 0.240000 0.160000 0.000000
vt 0.320000 0.360000 0.000000
vt 0.320000 0.440000 0.000000
vt 0.320000 0.560000 0.000000
vt 0.320000 0.160000 0.000000
vt 0.640000 0.360000 0.000000
vt 0.640000 0.440000 0.000000
vt 0.720000 0.560000 0.000000
vt 0.640000 0.640000 0.000000
vt 0.840000 0.640000 0.000000
vt 0.920000 0.560000 0.000000
vt 0.840000 0.760000 0.000000
vt 0.920000 0.840000 0.000000
vt 0.640000 0.840000 0.000000
vt 0.720000 0.040000 0.000000
vt 0.640000 0.240000 0.000000
vt 0.640000 0.160000 0.000000
vt 0.440000 0.240000 0.000000
vt 0.440000 0.160000 0.000000
vt 0.720000 -0.040000 0.000000
vt 0.640000 -0.240000 0.000000
vt 0.720000 -0.240000 0.000000
vt 0.840000 -0.040000 0.000000
vt 0.920000 0.040000 0.000000
vt 0.920000 -0.840000 0.000000
vt 0.840000 -0.760000 0.000000
vt 0.640000 -0.840000 0.000000
vt 0.640000 -0.760000 0.000000
vt 0.640000 0.760000 0.000000
vt 0.520000 0.560000 0.000000
vt 0.440000 0.640000 0.000000
vt 0.120000 0.640000 0.000000
vt 0.520000 0.840000 0.000000
vt 0.440000 0.840000 0.000000
vt 0.120000 0.760000 0.000000
vt 0.040000 0.840000 0.000000
vt 0.320000 0.840000 0.000000
vt 0.320000 0.760000 0.000000
vt -0.280000 0.840000 0.000000
vt -0.360000 0.840000 0.000000
vt -0.760000 0.760000 0.000000
vt -0.360000 0.440000 0.000000
vt -0.280000 0.240000 0.000000
vt -0.360000 0.360000 0.000000
vt -0.360000 0.240000 0.000000
vt -0.760000 0.440000 0.000000
vt -0.760000 0.360000 0.000000
vt -0.560000 0.240000 0.000000
vt -0.560000 0.160000 0.000000
vt -0.160000 0.160000 0.000000
vt -0.080000 0.240000 0.000000
vt -0.080000 -0.240000 0.000000
vt -0.160000 -0.160000 0.000000
vt -0.280000 -0.240000 0.000000
vt -0.360000 -0.240000 0.000000
vt -0.280000 -0.440000 0.000000
vt -0.360000 -0.440000 0.000000
vt -0.680000 -0.160000 0.000000
vt -0.760000 -0.240000 0.000000
vt -0.680000 -0.040000 0.000000
vt -0.680000 0.040000 0.000000
vt -0.280000 -0.040000 0.000000
vt -0.280000 0.040000 0.000000
vt -0.680000 0.240000 0.000000
vt -0.760000 0.240000 0.000000
vt -0.560000 -0.560000 0.000000
vt -0.360000 -0.640000 0.000000
vt -0.280000 -0.640000 0.000000
vt -0.560000 -0.640000 0.000000
vt -0.360000 -0.840000 0.000000
vt -0.280000 -0.840000 0.000000
vt -0.480000 -0.760000 0.000000
vt -0.560000 -0.960000 0.000000
vt -0.960000 -1.040000 0.000000
vt -0.560000 -0.760000 0.000000
vt -0.880000 -0.960000 0.000000
vt -0.880000 -0.840000 0.000000
vt -0.880000 -0.760000 0.000000
vt -0.760000 -0.760000 0.000000
vt -0.680000 -0.840000 0.000000
vt -0.680000 -0.560000 0.000000
vt -0.760000 -0.560000 0.000000
vt -0.880000 -0.440000 0.000000
vt -0.880000 -0.360000 0.000000
vt -0.960000 1.040000 0.000000
vt -0.880000 0.560000 0.000000
vt -0.880000 0.640000 0.000000
vt -0.680000 0.560000 0.000000
vt -0.680000 0.640000 0.000000
vt -0.480000 -0.440000 0.000000
vt -0.480000 -0.360000 0.000000
vt -0.880000 0.960000 0.000000
vt -0.080000 1.040000 0.000000
vt -0.160000 0.960000 0.000000
vt -0.080000 0.760000 0.000000
vt -0.160000 0.760000 0.000000
vt -0.320000 0.000000 0.000000
vt -0.000000 0.000000 0.000000
vt -0.320000 0.080000 0.000000
vt -0.000000 0.080000 0.000000
vt -0.720000 -0.000000 0.000000
vt -0.000000 0.000000 0.000000
vt -0.720000 0.080000 0.000000
vt 0.000000 0.080000 0.000000
vt -0.320000 0.000000 0.000000
vt 0.000000 0.000000 0.000000
vt -0.320000 0.080000 0.000000
vt 0.000000 0.080000 0.000000
vt -0.920000 -0.000000 0.000000
vt 0.000000 0.000000 0.000000
vt -0.920000 0.080000 0.000000
vt 0.000000 0.080000 0.000000
vt -0.200000 0.000000 0.000000
vt 0.000000 0.000000 0.000000
vt -0.200000 0.080000 0.000000
vt -0.000000 0.080000 0.000000
vt -0.120000 -0.000000 0.000000
vt -0.000000 0.000000 0.000000
vt -0.120000 0.080000 0.000000
vt 0.000000 0.080000 0.000000
vt -0.320000 -0.000000 0.000000
vt 0.000000 0.000000 0.000000
vt -0.320000 0.080000 0.000000
vt 0.000000 0.080000 0.000000
vt -0.320000 0.000000 0.000000
vt 0.000000 0.000000 0.000000
vt -0.320000 0.080000 0.000000
vt 0.000000 0.080000 0.000000
vt 0.960000 -0.120000 0.000000
vt 1.040000 -0.120000 0.000000
vt 0.960000 0.080000 0.000000
vt 0.960000 0.160000 0.000000
vt 0.640000 0.160000 0.000000
vt 0.960000 0.480000 0.000000
vt 1.040000 0.960000 0.000000
vt 0.960000 0.560000 0.000000
vt 0.960000 0.880000 0.000000
vt 0.840000 0.880000 0.000000
vt 0.760000 0.880000 0.000000
vt 0.760000 0.760000 0.000000
vt -1.040000 0.960000 0.000000
vt 0.360000 0.880000 0.000000
vt 0.440000 0.880000 0.000000
vt -1.040000 0.080000 0.000000
vt -0.960000 0.880000 0.000000
vt -0.640000 0.880000 0.000000
vt -0.560000 0.880000 0.000000
vt -0.560000 0.680000 0.000000
vt -0.640000 0.680000 0.000000
vt -0.960000 0.160000 0.000000
vt -0.760000 0.080000 0.000000
vt -0.760000 0.160000 0.000000
vt 0.360000 0.480000 0.000000
vt 0.440000 0.480000 0.000000
vt 0.560000 0.760000 0.000000
vt 0.560000 0.680000 0.000000
vt 0.840000 0.680000 0.000000
vt 0.760000 0.560000 0.000000
vt 0.760000 0.480000 0.000000
vt 0.640000 0.280000 0.000000
vt 0.560000 0.160000 0.000000
vt 0.440000 0.080000 0.000000
vt 0.640000 0.360000 0.000000
vt 0.840000 0.280000 0.000000
vt 0.840000 0.360000 0.000000
vt 0.640000 0.560000 0.000000
vt 0.560000 0.560000 0.000000
vt 0.360000 0.160000 0.000000
vt 0.360000 -0.040000 0.000000
vt 0.440000 -0.120000 0.000000
vt 0.040000 -0.120000 0.000000
vt -0.360000 -0.040000 0.000000
vt -0.040000 -0.120000 0.000000
vt -0.440000 -0.120000 0.000000
vt -0.440000 0.080000 0.000000
vt -0.360000 0.160000 0.000000
vt -0.560000 0.160000 0.000000
vt -0.560000 0.280000 0.000000
vt -0.640000 0.280000 0.000000
vt -0.640000 -0.040000 0.000000
vt -0.560000 0.080000 0.000000
vt -0.560000 -0.240000 0.000000
vt -0.640000 -0.120000 0.000000
vt -0.640000 -0.440000 0.000000
vt -0.240000 0.280000 0.000000
vt -0.440000 0.360000 0.000000
vt -0.560000 0.360000 0.000000
vt -0.640000 0.360000 0.000000
vt -0.640000 0.480000 0.000000
vt -0.560000 0.560000 0.000000
vt -0.760000 0.560000 0.000000
vt -0.240000 0.080000 0.000000
vt -0.160000 0.160000 0.000000
vt -0.240000 0.360000 0.000000
vt -0.360000 0.360000 0.000000
vt 0.240000 0.080000 0.000000
vt 0.160000 0.160000 0.000000
vt 0.240000 0.280000 0.000000
vt 0.240000 0.360000 0.000000
vt 0.440000 0.280000 0.000000
vt 0.440000 0.360000 0.000000
vt 0.160000 0.680000 0.000000
vt 0.240000 0.760000 0.000000
vt 0.040000 0.680000 0.000000
vt -0.240000 0.760000 0.000000
vt -0.040000 0.680000 0.000000
vt -0.240000 0.680000 0.000000
vt -0.040000 0.280000 0.000000
vt 0.040000 0.280000 0.000000
vt -0.160000 0.560000 0.000000
vt -0.240000 0.560000 0.000000
vt -0.360000 0.760000 0.000000
vt -0.440000 0.760000 0.000000
vt -0.760000 0.760000 0.000000
vt -0.840000 0.760000 0.000000
vt -0.840000 0.480000 0.000000
vt -0.840000 0.360000 0.000000
vt -0.840000 0.280000 0.000000
vt -0.760000 -0.120000 0.000000
vt -0.840000 -0.040000 0.000000
vt -0.840000 -0.320000 0.000000
vt -0.760000 -0.320000 0.000000
vt -0.840000 -0.440000 0.000000
vt -0.840000 -0.520000 0.000000
vt -0.560000 -0.520000 0.000000
vt -0.560000 -0.320000 0.000000
vt -0.440000 -0.320000 0.000000
vt -0.360000 -0.320000 0.000000
vt -0.360000 -0.640000 0.000000
vt -0.440000 -0.640000 0.000000
vt -0.560000 -0.720000 0.000000
vt -0.640000 -0.640000 0.000000
vt -0.640000 -0.840000 0.000000
vt -0.560000 -0.920000 0.000000
vt -0.760000 -0.840000 0.000000
vt -0.840000 -0.920000 0.000000
vt -0.840000 -0.640000 0.000000
vt -0.760000 -0.640000 0.000000
vt -0.040000 -0.720000 0.000000
vt -0.240000 -0.640000 0.000000
vt -0.160000 -0.640000 0.000000
vt -0.240000 -0.440000 0.000000
vt -0.160000 -0.440000 0.000000
vt -0.040000 -0.920000 0.000000
vt 0.040000 -0.840000 0.000000
vt 0.040000 -0.720000 0.000000
vt 0.240000 -0.640000 0.000000
vt 0.240000 -0.720000 0.000000
vt 0.840000 -0.920000 0.000000
vt 0.760000 -0.840000 0.000000
vt 0.840000 -0.640000 0.000000
vt 0.760000 -0.640000 0.000000
vt -0.160000 -0.320000 0.000000
vt -0.160000 -0.240000 0.000000
vt -0.040000 -0.520000 0.000000
vt 0.040000 -0.520000 0.000000
vt 0.000000 0.000000 0.000000
vt 0.880000 -0.000000 0.000000
vt -0.000000 0.080000 0.000000
vt 0.880000 0.080000 0.000000
vt 0.000000 0.000000 0.000000
vt 2.080000 -0.000000 0.000000
vt -0.000000 0.080000 0.000000
vt 2.080000 0.080000 0.000000
vt 0.040000 0.000000 0.000000
vt 1.120000 -0.000000 0.000000
vt 0.040000 0.080000 0.000000
vt 1.120000 0.080000 0.000000
vt 0.000000 0.000000 0.000000
vt 0.280000 0.000000 0.000000
vt -0.000000 0.080000 0.000000
vt 0.280000 0.080000 0.000000
vt -0.000000 0.000000 0.000000
vt 0.200000 -0.000000 0.000000
vt -0.000000 0.080000 0.000000
vt 0.200000 0.080000 0.000000
vt 0.000000 0.000000 0.000000
vt 0.080000 0.000000 0.000000
vt 0.000000 0.080000 0.000000
vt 0.080000 0.080000 0.000000
vt -0.040000 0.000000 0.000000
vt 0.160000 0.000000 0.000000
vt -0.040000 0.080000 0.000000
vt 0.160000 0.080000 0.000000
vt -0.000000 0.000000 0.000000
vt 0.400000 0.000000 0.000000
vt -0.000000 0.080000 0.000000
vt 0.400000 0.080000 0.000000
vt 0.000000 0.000000 0.000000
vt 0.080000 -0.000000 0.000000
vt 0.000000 0.080000 0.000000
vt 0.080000 0.080000 0.000000
vt -0.040000 0.000000 0.000000
vt 0.360000 0.000000 0.000000
vt -0.040000 0.080000 0.000000
vt 0.360000 0.080000 0.000000
vt 0.000000 0.000000 0.000000
vt 0.120000 0.000000 0.000000
vt 0.000000 0.080000 0.000000
vt 0.120000 0.080000 0.000000
vt -0.080000 0.000000 0.000000
vt 0.120000 0.000000 0.000000
vt -0.080000 0.080000 0.000000
vt 0.120000 0.080000 0.000000
vt 0.000000 0.000000 0.000000
vt 0.280000 -0.000000 0.000000
vt 0.000000 0.080000 0.000000
vt 0.280000 0.080000 0.000000
vt -0.040000 0.000000 0.000000
vt 0.160000 0.000000 0.000000
vt -0.040000 0.080000 0.000000
vt 0.160000 0.080000 0.000000
vt 0.000000 0.000000 0.000000
vt 0.200000 -0.000000 0.000000
vt -0.000000 0.080000 0.000000
vt 0.200000 0.080000 0.000000
vt -0.000000 0.000000 0.000000
vt 0.080000 0.000000 0.000000
vt -0.000000 0.080000 0.000000
vt 0.080000 0.080000 0.000000
vt -0.040000 -0.000000 0.000000
vt 0.160000 0.000000 0.000000
vt -0.040000 0.080000 0.000000
vt 0.160000 0.080000 0.000000
vt 0.000000 0.000000 0.000000
vt 0.320000 0.000000 0.000000
vt -0.000000 0.080000 0.000000
vt 0.320000 0.080000 0.000000
vt 0.000000 0.000000 0.000000
vt 0.120000 0.000000 0.000000
vt 0.000000 0.080000 0.000000
vt 0.120000 0.080000 0.000000
vt 0.000000 0.000000 0.000000
vt 0.200000 -0.000000 0.000000
vt 0.000000 0.080000 0.000000
vt 0.200000 0.080000 0.000000
vt 0.000000 0.000000 0.000000
vt 0.080000 0.000000 0.000000
vt 0.000000 0.080000 0.000000
vt 0.080000 0.080000 0.000000
vt 0.000000 0.000000 0.000000
vt 0.200000 0.000000 0.000000
vt -0.000000 0.080000 0.000000
vt 0.200000 0.080000 0.000000
vt 0.000000 0.000000 0.000000
vt 0.200000 0.000000 0.000000
vt 0.000000 0.080000 0.000000
vt 0.200000 0.080000 0.000000
vt 0.000000 0.000000 0.000000
vt 0.080000 -0.000000 0.000000
vt -0.000000 0.080000 0.000000
vt 0.080000 0.080000 0.000000
vt 0.000000 0.000000 0.000000
vt 0.400000 -0.000000 0.000000
vt 0.000000 0.080000 0.000000
vt 0.400000 0.080000 0.000000
vt 0.000000 0.000000 0.000000
vt 0.200000 0.000000 0.000000
vt -0.000000 0.080000 0.000000
vt 0.200000 0.080000 0.000000
vt -0.000000 0.000000 0.000000
vt 0.200000 -0.000000 0.000000
vt -0.000000 0.080000 0.000000
vt 0.200000 0.080000 0.000000
vt 0.000000 0.000000 0.000000
vt 0.720000 0.000000 0.000000
vt 0.000000 0.080000 0.000000
vt 0.720000 0.080000 0.000000
vt 0.000000 0.000000 0.000000
vt 0.200000 0.000000 0.000000
vt -0.000000 0.080000 0.000000
vt 0.200000 0.080000 0.000000
vt 0.000000 0.000000 0.000000
vt 0.200000 0.000000 0.000000
vt -0.000000 0.080000 0.000000
vt 0.200000 0.080000 0.000000
vt 0.000000 0.000000 0.000000
vt 0.120000 0.000000 0.000000
vt 0.000000 0.080000 0.000000
vt 0.120000 0.080000 0.000000
vt 0.000000 0.000000 0.000000
vt 0.320000 -0.000000 0.000000
vt -0.000000 0.080000 0.000000
vt 0.320000 0.080000 0.000000
vt 0.000000 0.000000 0.000000
vt 0.200000 -0.000000 0.000000
vt 0.000000 0.080000 0.000000
vt 0.200000 0.080000 0.000000
vt 0.000000 0.000000 0.000000
vt 0.480000 0.000000 0.000000
vt -0.000000 0.080000 0.000000
vt 0.480000 0.080000 0.000000
vt 0.000000 0.000000 0.000000
vt 0.200000 0.000000 0.000000
vt -0.000000 0.080000 0.000000
vt 0.200000 0.080000 0.000000
vt 0.000000 0.000000 0.000000
vt 0.200000 0.000000 0.000000
vt 0.000000 0.080000 0.000000
vt 0.200000 0.080000 0.000000
vt 0.000000 0.000000 0.000000
vt 0.080000 0.000000 0.000000
vt 0.000000 0.080000 0.000000
vt 0.080000 0.080000 0.000000
vt 0.000000 0.000000 0.000000
vt 0.200000 0.000000 0.000000
vt 0.000000 0.080000 0.000000
vt 0.200000 0.080000 0.000000
vt 0.000000 0.000000 0.000000
vt 0.400000 0.000000 0.000000
vt -0.000000 0.080000 0.000000
vt 0.400000 0.080000 0.000000
vt -0.000000 0.000000 0.000000
vt 0.480000 0.000000 0.000000
vt -0.000000 0.080000 0.000000
vt 0.480000 0.080000 0.000000
vt -0.000000 0.000000 0.000000
vt 0.080000 -0.000000 0.000000
vt 0.000000 0.080000 0.000000
vt 0.080000 0.080000 0.000000
vt -0.000000 0.000000 0.000000
vt 0.200000 0.000000 0.000000
vt -0.000000 0.080000 0.000000
vt 0.200000 0.080000 0.000000
vt -0.080000 0.000000 0.000000
vt 0.320000 -0.000000 0.000000
vt -0.080000 0.080000 0.000000
vt 0.320000 0.080000 0.000000
vt 0.000000 0.000000 0.000000
vt 0.400000 0.000000 0.000000
vt -0.000000 0.080000 0.000000
vt 0.400000 0.080000 0.000000
vt -0.000000 -0.000000 0.000000
vt 0.120000 0.000000 0.000000
vt -0.000000 0.080000 0.000000
vt 0.120000 0.080000 0.000000
vt 0.000000 0.000000 0.000000
vt 0.520000 -0.000000 0.000000
vt 0.000000 0.080000 0.000000
vt 0.520000 0.080000 0.000000
vt 0.000000 0.000000 0.000000
vt 0.320000 0.000000 0.000000
vt 0.000000 0.080000 0.000000
vt 0.320000 0.080000 0.000000
vt 0.000000 0.000000 0.000000
vt 0.400000 0.000000 0.000000
vt -0.000000 0.080000 0.000000
vt 0.400000 0.080000 0.000000
vt 0.000000 0.000000 0.000000
vt 0.080000 0.000000 0.000000
vt 0.000000 0.080000 0.000000
vt 0.080000 0.080000 0.000000
vt 0.000000 -0.000000 0.000000
vt 0.200000 -0.000000 0.000000
vt 0.000000 0.080000 0.000000
vt 0.200000 0.080000 0.000000
vt 0.000000 0.000000 0.000000
vt 0.120000 -0.000000 0.000000
vt 0.000000 0.080000 0.000000
vt 0.120000 0.080000 0.000000
vt 0.000000 0.000000 0.000000
vt 0.400000 0.000000 0.000000
vt -0.000000 0.080000 0.000000
vt 0.400000 0.080000 0.000000
vt -0.000000 0.000000 0.000000
vt 0.080000 0.000000 0.000000
vt -0.000000 0.080000 0.000000
vt 0.080000 0.080000 0.000000
vt 0.000000 -0.000000 0.000000
vt 0.400000 -0.000000 0.000000
vt 0.000000 0.080000 0.000000
vt 0.400000 0.080000 0.000000
vt 0.000000 0.000000 0.000000
vt 0.120000 -0.000000 0.000000
vt -0.000000 0.080000 0.000000
vt 0.120000 0.080000 0.000000
vt 0.000000 0.000000 0.000000
vt 0.200000 0.000000 0.000000
vt 0.000000 0.080000 0.000000
vt 0.200000 0.080000 0.000000
vt 0.000000 0.000000 0.000000
vt 0.200000 0.000000 0.000000
vt 0.000000 0.080000 0.000000
vt 0.200000 0.080000 0.000000
vt 0.000000 0.000000 0.000000
vt 0.200000 0.000000 0.000000
vt -0.000000 0.080000 0.000000
vt 0.200000 0.080000 0.000000
vt -0.000000 0.000000 0.000000
vt 0.080000 -0.000000 0.000000
vt -0.000000 0.080000 0.000000
vt 0.080000 0.080000 0.000000
vt -0.000000 0.000000 0.000000
vt 0.280000 -0.000000 0.000000
vt -0.000000 0.080000 0.000000
vt 0.280000 0.080000 0.000000
vt 0.000000 0.000000 0.000000
vt 0.200000 -0.000000 0.000000
vt 0.000000 0.080000 0.000000
vt 0.200000 0.080000 0.000000
vt -0.000000 0.000000 0.000000
vt 0.120000 0.000000 0.000000
vt -0.000000 0.080000 0.000000
vt 0.120000 0.080000 0.000000
vt 0.000000 0.000000 0.000000
vt 0.200000 0.000000 0.000000
vt 0.000000 0.080000 0.000000
vt 0.200000 0.080000 0.000000
vt -0.000000 0.000000 0.000000
vt 0.080000 -0.000000 0.000000
vt -0.000000 0.080000 0.000000
vt 0.080000 0.080000 0.000000
vt 0.000000 0.000000 0.000000
vt 0.200000 -0.000000 0.000000
vt 0.000000 0.080000 0.000000
vt 0.200000 0.080000 0.000000
vt -0.000000 0.000000 0.000000
vt 0.320000 -0.000000 0.000000
vt -0.000000 0.080000 0.000000
vt 0.320000 0.080000 0.000000
vt 0.000000 0.000000 0.000000
vt 0.200000 0.000000 0.000000
vt 0.000000 0.080000 0.000000
vt 0.200000 0.080000 0.000000
vt -0.000000 0.000000 0.000000
vt 0.280000 -0.000000 0.000000
vt -0.000000 0.080000 0.000000
vt 0.280000 0.080000 0.000000
vt 0.000000 0.000000 0.000000
vt 0.080000 0.000000 0.000000
vt -0.000000 0.080000 0.000000
vt 0.080000 0.080000 0.000000
vt 0.000000 0.000000 0.000000
vt 0.200000 0.000000 0.000000
vt -0.000000 0.080000 0.000000
vt 0.200000 0.080000 0.000000
vt 0.000000 0.000000 0.000000
vt 0.120000 -0.000000 0.000000
vt 0.000000 0.080000 0.000000
vt 0.120000 0.080000 0.000000
vt -0.000000 0.000000 0.000000
vt 0.320000 -0.000000 0.000000
vt -0.000000 0.080000 0.000000
vt 0.320000 0.080000 0.000000
vt 0.000000 0.000000 0.000000
vt 0.200000 0.000000 0.000000
vt 0.000000 0.080000 0.000000
vt 0.200000 0.080000 0.000000
vt -0.000000 0.000000 0.000000
vt 0.080000 -0.000000 0.000000
vt -0.000000 0.080000 0.000000
vt 0.080000 0.080000 0.000000
vt 0.000000 0.000000 0.000000
vt 0.280000 -0.000000 0.000000
vt 0.000000 0.080000 0.000000
vt 0.280000 0.080000 0.000000
vt -0.000000 0.000000 0.000000
vt 0.200000 0.000000 0.000000
vt 0.000000 0.080000 0.000000
vt 0.200000 0.080000 0.000000
vt 0.000000 0.000000 0.000000
vt 0.120000 0.000000 0.000000
vt 0.000000 0.080000 0.000000
vt 0.120000 0.080000 0.000000
vt 0.000000 -0.000000 0.000000
vt 0.320000 -0.000000 0.000000
vt 0.000000 0.080000 0.000000
vt 0.320000 0.080000 0.000000
vt 0.000000 0.000000 0.000000
vt 0.200000 -0.000000 0.000000
vt 0.000000 0.080000 0.000000
vt 0.200000 0.080000 0.000000
vt -0.000000 0.000000 0.000000
vt 0.200000 0.000000 0.000000
vt -0.000000 0.080000 0.000000
vt 0.200000 0.080000 0.000000
vt 0.000000 0.000000 0.000000
vt 0.120000 0.000000 0.000000
vt 0.000000 0.080000 0.000000
vt 0.120000 0.080000 0.000000
vt 0.000000 0.000000 0.000000
vt 0.200000 0.000000 0.000000
vt -0.000000 0.080000 0.000000
vt 0.200000 0.080000 0.000000
vt 0.000000 0.000000 0.000000
vt 0.080000 -0.000000 0.000000
vt 0.000000 0.080000 0.000000
vt 0.080000 0.080000 0.000000
vt -0.000000 0.000000 0.000000
vt 0.280000 -0.000000 0.000000
vt -0.000000 0.080000 0.000000
vt 0.280000 0.080000 0.000000
vt 0.000000 0.000000 0.000000
vt 0.280000 -0.000000 0.000000
vt 0.000000 0.080000 0.000000
vt 0.280000 0.080000 0.000000
vt 0.000000 0.000000 0.000000
vt 0.200000 0.000000 0.000000
vt 0.000000 0.080000 0.000000
vt 0.200000 0.080000 0.000000
vt 0.000000 0.000000 0.000000
vt 0.520000 0.000000 0.000000
vt -0.000000 0.080000 0.000000
vt 0.520000 0.080000 0.000000
vt -0.000000 0.000000 0.000000
vt 0.200000 -0.000000 0.000000
vt -0.000000 0.080000 0.000000
vt 0.200000 0.080000 0.000000
vt 0.000000 0.000000 0.000000
vt 0.880000 0.000000 0.000000
vt 0.000000 0.080000 0.000000
vt 0.880000 0.080000 0.000000
vt 0.000000 0.000000 0.000000
vt 0.280000 0.000000 0.000000
vt 0.000000 0.080000 0.000000
vt 0.280000 0.080000 0.000000
vt 0.000000 0.000000 0.000000
vt 0.080000 -0.000000 0.000000
vt -0.000000 0.080000 0.000000
vt 0.080000 0.080000 0.000000
vt -0.000000 0.000000 0.000000
vt 0.200000 -0.000000 0.000000
vt -0.000000 0.080000 0.000000
vt 0.200000 0.080000 0.000000
vt 0.000000 0.000000 0.000000
vt 0.720000 0.000000 0.000000
vt 0.000000 0.080000 0.000000
vt 0.720000 0.080000 0.000000
vt 0.000000 0.000000 0.000000
vt 0.120000 0.000000 0.000000
vt -0.000000 0.080000 0.000000
vt 0.120000 0.080000 0.000000
vt 0.000000 0.000000 0.000000
vt 0.200000 0.000000 0.000000
vt -0.000000 0.080000 0.000000
vt 0.200000 0.080000 0.000000
vt 0.000000 0.000000 0.000000
vt 0.080000 0.000000 0.000000
vt -0.000000 0.080000 0.000000
vt 0.080000 0.080000 0.000000
vt 0.000000 0.000000 0.000000
vt 0.400000 0.000000 0.000000
vt 0.000000 0.080000 0.000000
vt 0.400000 0.080000 0.000000
vt -0.000000 0.000000 0.000000
vt 0.200000 0.000000 0.000000
vt -0.000000 0.080000 0.000000
vt 0.200000 0.080000 0.000000
vt 0.000000 0.000000 0.000000
vt 0.080000 0.000000 0.000000
vt 0.000000 0.080000 0.000000
vt 0.080000 0.080000 0.000000
vt 0.000000 -0.000000 0.000000
vt 0.200000 -0.000000 0.000000
vt 0.000000 0.080000 0.000000
vt 0.200000 0.080000 0.000000
vt 0.000000 0.000000 0.000000
vt 0.120000 -0.000000 0.000000
vt 0.000000 0.080000 0.000000
vt 0.120000 0.080000 0.000000
vt -0.000000 0.000000 0.000000
vt 0.320000 0.000000 0.000000
vt -0.000000 0.080000 0.000000
vt 0.320000 0.080000 0.000000
vt 0.000000 0.000000 0.000000
vt 0.200000 0.000000 0.000000
vt -0.000000 0.080000 0.000000
vt 0.200000 0.080000 0.000000
vt -0.000000 0.000000 0.000000
vt 0.080000 0.000000 0.000000
vt -0.000000 0.080000 0.000000
vt 0.080000 0.080000 0.000000
vt 0.000000 0.000000 0.000000
vt 0.400000 0.000000 0.000000
vt -0.000000 0.080000 0.000000
vt 0.400000 0.080000 0.000000
vt 0.000000 0.000000 0.000000
vt 0.320000 0.000000 0.000000
vt 0.000000 0.080000 0.000000
vt 0.320000 0.080000 0.000000
vt 0.000000 0.000000 0.000000
vt 0.120000 0.000000 0.000000
vt 0.000000 0.080000 0.000000
vt 0.120000 0.080000 0.000000
vt -0.000000 0.000000 0.000000
vt 0.200000 -0.000000 0.000000
vt 0.000000 0.080000 0.000000
vt 0.200000 0.080000 0.000000
vt 0.000000 0.000000 0.000000
vt 0.400000 0.000000 0.000000
vt -0.000000 0.080000 0.000000
vt 0.400000 0.080000 0.000000
vt -0.000000 0.000000 0.000000
vt 0.400000 -0.000000 0.000000
vt -0.000000 0.080000 0.000000
vt 0.400000 0.080000 0.000000
vt 0.000000 0.000000 0.000000
vt 0.080000 0.000000 0.000000
vt -0.000000 0.080000 0.000000
vt 0.080000 0.080000 0.000000
vt 0.000000 0.000000 0.000000
vt 0.400000 0.000000 0.000000
vt -0.000000 0.080000 0.000000
vt 0.400000 0.080000 0.000000
vt 0.000000 0.000000 0.000000
vt 0.400000 0.000000 0.000000
vt 0.000000 0.080000 0.000000
vt 0.400000 0.080000 0.000000
vt 0.000000 0.000000 0.000000
vt 0.200000 0.000000 0.000000
vt 0.000000 0.080000 0.000000
vt 0.200000 0.080000 0.000000
vt -0.040000 -0.000000 0.000000
vt 0.480000 0.000000 0.000000
vt -0.040000 0.080000 0.000000
vt 0.480000 0.080000 0.000000
vt 0.040000 0.080000 0.000000
vt -0.040000 0.080000 0.000000
vt 0.040000 0.000000 0.000000
vt -0.040000 -0.000000 0.000000
vt -0.040000 0.000000 0.000000
vt 0.160000 -0.000000 0.000000
vt -0.040000 0.080000 0.000000
vt 0.160000 0.080000 0.000000
vt 0.000000 0.000000 0.000000
vt 0.080000 0.000000 0.000000
vt -0.000000 0.080000 0.000000
vt 0.080000 0.080000 0.000000
vn 1.000000 0.000000 0.000000
vn 1.000000 0.000000 0.000000
vn 1.000000 0.000000 0.000000
vn 1.000000 0.000000 0.000000
vn -0.000000 1.000000 0.000000
vn -0.000000 1.000000 0.000000
vn -0.000000 1.000000 0.000000
vn -0.000000 1.000000 0.000000
vn 0.000000 -0.000000 1.000000
vn 0.000000 -0.000000 1.000000
vn 0.000000 -0.000000 1.000000
vn 0.000000 -0.000000 1.000000
vn 0.000000 -0.000000 1.000000
vn 0.000000 -0.000000 1.000000
vn 0.000000 -0.000000 1.000000
vn 0.000000 -0.000000 1.000000
vn 0.000000 -0.000000 1.000000
vn 0.000000 -0.000000 1.000000
vn 0.000000 -0.000000 1.000000
vn 0.000000 -0.000000 1.000000
vn 0.000000 -0.000000 1.000000
vn 0.000000 -0.000000 1.000000
vn 0.000000 -0.000000 1.000000
vn 0.000000 -0.000000 1.000000
vn 0.000000 -0.000000 1.000000
vn 0.000000 -0.000000 1.000000
vn 0.000000 -0.000000 1.000000
vn 0.000000 -0.000000 1.000000
vn 0.000000 -0.000000 1.000000
vn 0.000000 -0.000000 1.000000
vn 0.000000 -0.000000 1.000000
vn 0.000000 -0.000000 1.000000
vn 0.000000 -0.000000 1.000000
vn 0.000000 -0.000000 1.000000
vn 0.000000 -0.000000 1.000000
vn 0.000000 -0.000000 1.000000
vn 0.000000 -0.000000 1.000000
vn 0.000000 -0.000000 1.000000
vn 0.000000 -0.000000 1.000000
vn 0.000000 -0.000000 1.000000
vn 0.000000 -0.000000 1.000000
vn 0.000000 -0.000000 1.000000
vn 0.000000 -0.000000 1.000000
vn 0.000000 -0.000000 1.000000
vn 0.000000 -0.000000 1.000000
vn 0.000000 -0.000000 1.000000
vn 0.000000 -0.000000 1.000000
vn 0.000000 -0.000000 1.000000
vn 0.000000 -0.000000 1.000000
vn 0.000000 -0.000000 1.000000
vn 0.000000 -0.000000 1.000000
vn 0.000000 -0.000000 1.000000
vn 0.000000 -0.000000 1.000000
vn 0.000000 -0.000000 1.000000
vn 0.000000 -0.000000 1.000000
vn 0.000000 -0.000000 1.000000
vn 0.000000 -0.000000 1.000000
vn 0.000000 -0.000000 1.000000
vn 0.000000 -0.000000 1.000000
vn 0.000000 -0.000000 1.000000
vn 0.000000 -0.000000 1.000000
vn 0.000000 -0.000000 1.000000
vn 0.000000 -0.000000 1.000000
vn 0.000000 -0.000000 1.000000
vn 0.000000 -0.000000 1.000000
vn 0.000000 -0.000000 1.000000
vn 0.000000 -0.000000 1.000000
vn 0.000000 -0.000000 1.000000
vn 0.000000 -0.000000 1.000000
vn 0.000000 -0.000000 1.000000
vn 0.000000 -0.000000 1.000000
vn 0.000000 -0.000000 1.000000
vn 0.000000 -0.000000 1.000000
vn 0.000000 -0.000000 1.000000
vn 0.000000 -0.000000 1.000000
vn 0.000000 -0.000000 1.000000
vn 0.000000 -0.000000 1.000000
vn 0.000000 -0.000000 1.000000
vn 0.000000 -0.000000 1.000000
vn 0.000000 -0.000000 1.000000
vn 0.000000 -0.000000 1.000000
vn 0.000000 -0.000000 1.000000
vn 0.000000 -0.000000 1.000000
vn 0.000000 -0.000000 1.000000
vn 0.000000 -0.000000 1.000000
vn 0.000000 -0.000000 1.000000
vn 0.000000 -0.000000 1.000000
vn 0.000000 -0.000000 1.000000
vn 0.000000 -0.000000 1.000000
vn 0.000000 -0.000000 1.000000
vn 0.000000 -0.000000 1.000000
vn 0.000000 -0.000000 1.000000
vn 0.000000 -0.000000 1.000000
vn 0.000000 -0.000000 1.000000
vn 0.000000 -0.000000 1.000000
vn 0.000000 -0.000000 1.000000
vn 0.000000 -0.000000 1.000000
vn 0.000000 -0.000000 1.000000
vn 0.000000 -0.000000 1.000000
vn 0.000000 -0.000000 1.000000
vn 0.000000 -0.000000 1.000000
vn 0.000000 -0.000000 1.000000
vn 0.000000 -0.000000 1.000000
vn 0.000000 -0.000000 1.000000
vn 0.000000 -0.000000 1.000000
vn 0.000000 -0.000000 1.000000
vn 0.000000 -0.000000 1.000000
vn 0.000000 -0.000000 1.000000
vn 0.000000 -0.000000 1.000000
vn 0.000000 -0.000000 1.000000
vn 0.000000 -0.000000 1.000000
vn 0.000000 -0.000000 1.000000
vn 0.000000 -0.000000 1.000000
vn 0.000000 -0.000000 1.000000
vn 0.000000 -0.000000 1.000000
vn 0.000000 -0.000000 1.000000
vn 0.000000 -0.000000 1.000000
vn 0.000000 -0.000000 1.000000
vn 0.000000 -0.000000 1.000000
vn 0.000000 -0.000000 1.000000
vn 0.000000 -0.000000 1.000000
vn 0.000000 -0.000000 1.000000
vn 0.000000 -0.000000 1.000000
vn 0.000000 -0.000000 1.000000
vn 0.000000 -0.000000 1.000000
vn 0.000000 -0.000000 1.000000
vn 0.000000 -0.000000 1.000000
vn 0.000000 -0.000000 1.000000
vn 0.000000 -0.000000 1.000000
vn 0.000000 -0.000000 1.000000
vn 0.000000 -0.000000 1.000000
vn 0.000000 -0.000000 1.000000
vn 0.000000 -0.000000 1.000000
vn 0.000000 -0.000000 1.000000
vn 0.000000 -0.000000 1.000000
vn 0.000000 -0.000000 1.000000
vn -0.000000 1.000000 0.000000
vn -0.000000 1.000000 0.000000
vn -0.000000 1.000000 0.000000
vn -0.000000 1.000000 0.000000
vn 0.000000 -1.000000 -0.000000
vn 0.000000 -1.000000 -0.000000
vn 0.000000 -1.000000 -0.000000
vn 0.000000 -1.000000 -0.000000
vn 1.000000 0.000000 0.000000
vn 1.000000 0.000000 0.000000
vn 1.000000 0.000000 0.000000
vn 1.000000 0.000000 0.000000
vn 1.000000 0.000000 0.000000
vn 1.000000 0.000000 0.000000
vn 1.000000 0.000000 0.000000
vn 1.000000 0.000000 0.000000
vn -0.000000 1.000000 0.000000
vn -0.000000 1.000000 0.000000
vn -0.000000 1.000000 0.000000
vn -0.000000 1.000000 0.000000
vn 1.000000 0.000000 0.000000
vn 1.000000 0.000000 0.000000
vn 1.000000 0.000000 0.000000
vn 1.000000 0.000000 0.000000
vn -0.000000 1.000000 0.000000
vn -0.000000 1.000000 0.000000
vn -0.000000 1.000000 0.000000
vn -0.000000 1.000000 0.000000
vn 1.000000 0.000000 0.000000
vn 1.000000 0.000000 0.000000
vn 1.000000 0.000000 0.000000
vn 1.000000 0.000000 0.000000
vn -0.000000 0.000000 -1.000000
vn -0.000000 0.000000 -1.000000
vn -0.000000 0.000000 -1.000000
vn -0.000000 0.000000 -1.000000
vn -0.000000 0.000000 -1.000000
vn -0.000000 0.000000 -1.000000
vn -0.000000 0.000000 -1.000000
vn -0.000000 0.000000 -1.000000
vn -0.000000 0.000000 -1.000000
vn -0.000000 0.000000 -1.000000
vn -0.000000 0.000000 -1.000000
vn -0.000000 0.000000 -1.000000
vn -0.000000 0.000000 -1.000000
vn -0.000000 0.000000 -1.000000
vn -0.000000 0.000000 -1.000000
vn -0.000000 0.000000 -1.000000
vn -0.000000 0.000000 -1.000000
vn -0.000000 0.000000 -1.000000
vn -0.000000 0.000000 -1.000000
vn -0.000000 0.000000 -1.000000
vn -0.000000 0.000000 -1.000000
vn -0.000000 0.000000 -1.000000
vn -0.000000 0.000000 -1.000000
vn -0.000000 0.000000 -1.000000
vn -0.000000 0.000000 -1.000000
vn -0.000000 0.000000 -1.000000
vn -0.000000 0.000000 -1.000000
vn -0.000000 0.000000 -1.000000
vn -0.000000 0.000000 -1.000000
vn -0.000000 0.000000 -1.000000
vn -0.000000 0.000000 -1.000000
vn -0.000000 0.000000 -1.000000
vn -0.000000 0.000000 -1.000000
vn -0.000000 0.000000 -1.000000
vn -0.000000 0.000000 -1.000000
vn -0.000000 0.000000 -1.000000
vn -0.000000 0.000000 -1.000000
vn -0.000000 0.000000 -1.000000
vn -0.000000 0.000000 -1.000000
vn -0.000000 0.000000 -1.000000
vn -0.000000 0.000000 -1.000000
vn -0.000000 0.000000 -1.000000
vn -0.000000 0.000000 -1.000000
vn -0.000000 0.000000 -1.000000
vn -0.000000 0.000000 -1.000000
vn -0.000000 0.000000 -1.000000
vn -0.000000 0.000000 -1.000000
vn -0.000000 0.000000 -1.000000
vn -0.000000 0.000000 -1.000000
vn -0.000000 0.000000 -1.000000
vn -0.000000 0.000000 -1.000000
vn -0.000000 0.000000 -1.000000
vn -0.000000 0.000000 -1.000000
vn -0.000000 0.000000 -1.000000
vn -0.000000 0.000000 -1.000000
vn -0.000000 0.000000 -1.000000
vn -0.000000 0.000000 -1.000000
vn -0.000000 0.000000 -1.000000
vn -0.000000 0.000000 -1.000000
vn -0.000000 0.000000 -1.000000
vn -0.000000 0.000000 -1.000000
vn -0.000000 0.000000 -1.000000
vn -0.000000 0.000000 -1.000000
vn -0.000000 0.000000 -1.000000
vn -0.000000 0.000000 -1.000000
vn -0.000000 0.000000 -1.000000
vn -0.000000 0.000000 -1.000000
vn -0.000000 0.000000 -1.000000
vn -0.000000 0.000000 -1.000000
vn -0.000000 0.000000 -1.000000
vn -0.000000 0.000000 -1.000000
vn -0.000000 0.000000 -1.000000
vn -0.000000 0.000000 -1.000000
vn -0.000000 0.000000 -1.000000
vn -0.000000 0.000000 -1.000000
vn -0.000000 0.000000 -1.000000
vn -0.000000 0.000000 -1.000000
vn -0.000000 0.000000 -1.000000
vn -0.000000 0.000000 -1.000000
vn -0.000000 0.000000 -1.000000
vn -0.000000 0.000000 -1.000000
vn -0.000000 0.000000 -1.000000
vn -0.000000 0.000000 -1.000000
vn -0.000000 0.000000 -1.000000
vn -0.000000 0.000000 -1.000000
vn -0.000000 0.000000 -1.000000
vn -0.000000 0.000000 -1.000000
vn -0.000000 0.000000 -1.000000
vn -0.000000 0.000000 -1.000000
vn -0.000000 0.000000 -1.000000
vn -0.000000 0.000000 -1.000000
vn -0.000000 0.000000 -1.000000
vn -0.000000 0.000000 -1.000000
vn -0.000000 0.000000 -1.000000
vn -0.000000 0.000000 -1.000000
vn -0.000000 0.000000 -1.000000
vn -0.000000 0.000000 -1.000000
vn -0.000000 0.000000 -1.000000
vn -0.000000 0.000000 -1.000000
vn -0.000000 0.000000 -1.000000
vn -0.000000 0.000000 -1.000000
vn -0.000000 0.000000 -1.000000
vn -0.000000 0.000000 -1.000000
vn -0.000000 0.000000 -1.000000
vn -0.000000 0.000000 -1.000000
vn -0.000000 0.000000 -1.000000
vn -0.000000 0.000000 -1.000000
vn -0.000000 0.000000 -1.000000
vn -0.000000 0.000000 -1.000000
vn -0.000000 0.000000 -1.000000
vn -0.000000 0.000000 -1.000000
vn -0.000000 0.000000 -1.000000
vn -0.000000 0.000000 -1.000000
vn -0.000000 0.000000 -1.000000
vn -0.000000 0.000000 -1.000000
vn -0.000000 0.000000 -1.000000
vn -0.000000 0.000000 -1.000000
vn -0.000000 0.000000 -1.000000
vn -0.000000 0.000000 -1.000000
vn -0.000000 0.000000 -1.000000
vn -0.000000 0.000000 -1.000000
vn -0.000000 0.000000 -1.000000
vn -0.000000 0.000000 -1.000000
vn -0.000000 0.000000 -1.000000
vn -0.000000 0.000000 -1.000000
vn -0.000000 0.000000 -1.000000
vn -0.000000 0.000000 -1.000000
vn -0.000000 0.000000 -1.000000
vn -0.000000 1.000000 0.000000
vn -0.000000 1.000000 0.000000
vn -0.000000 1.000000 0.000000
vn -0.000000 1.000000 0.000000
vn -1.000000 -0.000000 -0.000000
vn -1.000000 -0.000000 -0.000000
vn -1.000000 -0.000000 -0.000000
vn -1.000000 -0.000000 -0.000000
vn 0.000000 -1.000000 -0.000000
vn 0.000000 -1.000000 -0.000000
vn 0.000000 -1.000000 -0.000000
vn 0.000000 -1.000000 -0.000000
vn 1.000000 0.000000 0.000000
vn 1.000000 0.000000 0.000000
vn 1.000000 0.000000 0.000000
vn 1.000000 0.000000 0.000000
vn -0.000000 1.000000 0.000000
vn -0.000000 1.000000 0.000000
vn -0.000000 1.000000 0.000000
vn -0.000000 1.000000 0.000000
vn 1.000000 0.000000 0.000000
vn 1.000000 0.000000 0.000000
vn 1.000000 0.000000 0.000000
vn 1.000000 0.000000 0.000000
vn 0.000000 -1.000000 -0.000000
vn 0.000000 -1.000000 -0.000000
vn 0.000000 -1.000000 -0.000000
vn 0.000000 -1.000000 -0.000000
vn -0.000000 1.000000 0.000000
vn -0.000000 1.000000 0.000000
vn -0.000000 1.000000 0.000000
vn -0.000000 1.000000 0.000000
vn 1.000000 0.000000 0.000000
vn 1.000000 0.000000 0.000000
vn 1.000000 0.000000 0.000000
vn 1.000000 0.000000 0.000000
vn 0.000000 -1.000000 -0.000000
vn 0.000000 -1.000000 -0.000000
vn 0.000000 -1.000000 -0.000000
vn 0.000000 -1.000000 -0.000000
vn -0.000000 1.000000 0.000000
vn -0.000000 1.000000 0.000000
vn -0.000000 1.000000 0.000000
vn -0.000000 1.000000 0.000000
vn -1.000000 -0.000000 -0.000000
vn -1.000000 -0.000000 -0.000000
vn -1.000000 -0.000000 -0.000000
vn -1.000000 -0.000000 -0.000000
vn 1.000000 0.000000 0.000000
vn 1.000000 0.000000 0.000000
vn 1.000000 0.000000 0.000000
vn 1.000000 0.000000 0.000000
vn 0.000000 -1.000000 -0.000000
vn 0.000000 -1.000000 -0.000000
vn 0.000000 -1.000000 -0.000000
vn 0.000000 -1.000000 -0.000000
vn -1.000000 -0.000000 -0.000000
vn -1.000000 -0.000000 -0.000000
vn -1.000000 -0.000000 -0.000000
vn -1.000000 -0.000000 -0.000000
vn -0.000000 1.000000 0.000000
vn -0.000000 1.000000 0.000000
vn -0.000000 1.000000 0.000000
vn -0.000000 1.000000 0.000000
vn 1.000000 0.000000 0.000000
vn 1.000000 0.000000 0.000000
vn 1.000000 0.000000 0.000000
vn 1.000000 0.000000 0.000000
vn -1.000000 -0.000000 -0.000000
vn -1.000000 -0.000000 -0.000000
vn -1.000000 -0.000000 -0.000000
vn -1.000000 -0.000000 -0.000000
vn 0.000000 -1.000000 -0.000000
vn 0.000000 -1.000000 -0.000000
vn 0.000000 -1.000000 -0.000000
vn 0.000000 -1.000000 -0.000000
vn 1.000000 0.000000 0.000000
vn 1.000000 0.000000 0.000000
vn 1.000000 0.000000 0.000000
vn 1.000000 0.000000 0.000000
vn 0.000000 -1.000000 -0.000000
vn 0.000000 -1.000000 -0.000000
vn 0.000000 -1.000000 -0.000000
vn 0.000000 -1.000000 -0.000000
vn -1.000000 -0.000000 -0.000000
vn -1.000000 -0.000000 -0.000000
vn -1.000000 -0.000000 -0.000000
vn -1.000000 -0.000000 -0.000000
vn 0.000000 -1.000000 -0.000000
vn 0.000000 -1.000000 -0.000000
vn 0.000000 -1.000000 -0.000000
vn 0.000000 -1.000000 -0.000000
vn -1.000000 -0.000000 -0.000000
vn -1.000000 -0.000000 -0.000000
vn -1.000000 -0.000000 -0.000000
vn -1.000000 -0.000000 -0.000000
vn -0.000000 1.000000 0.000000
vn -0.000000 1.000000 0.000000
vn -0.000000 1.000000 0.000000
vn -0.000000 1.000000 0.000000
vn -1.000000 -0.000000 -0.000000
vn -1.000000 -0.000000 -0.000000
vn -1.000000 -0.000000 -0.000000
vn -1.000000 -0.000000 -0.000000
vn -0.000000 1.000000 0.000000
vn -0.000000 1.000000 0.000000
vn -0.000000 1.000000 0.000000
vn -0.000000 1.000000 0.000000
vn -1.000000 -0.000000 -0.000000
vn -1.000000 -0.000000 -0.000000
vn -1.000000 -0.000000 -0.000000
vn -1.000000 -0.000000 -0.000000
vn 0.000000 -1.000000 -0.000000
vn 0.000000 -1.000000 -0.000000
vn 0.000000 -1.000000 -0.000000
vn 0.000000 -1.000000 -0.000000
vn -1.000000 -0.000000 -0.000000
vn -1.000000 -0.000000 -0.000000
vn -1.000000 -0.000000 -0.000000
vn -1.000000 -0.000000 -0.000000
vn 0.000000 -1.000000 -0.000000
vn 0.000000 -1.000000 -0.000000
vn 0.000000 -1.000000 -0.000000
vn 0.000000 -1.000000 -0.000000
vn 1.000000 0.000000 0.000000
vn 1.000000 0.000000 0.000000
vn 1.000000 0.000000 0.000000
vn 1.000000 0.000000 0.000000
vn -0.000000 1.000000 0.000000
vn -0.000000 1.000000 0.000000
vn -0.000000 1.000000 0.000000
vn -0.000000 1.000000 0.000000
vn 1.000000 0.000000 0.000000
vn 1.000000 0.000000 0.000000
vn 1.000000 0.000000 0.000000
vn 1.000000 0.000000 0.000000
vn 0.000000 -1.000000 -0.000000
vn 0.000000 -1.000000 -0.000000
vn 0.000000 -1.000000 -0.000000
vn 0.000000 -1.000000 -0.000000
vn 1.000000 0.000000 0.000000
vn 1.000000 0.000000 0.000000
vn 1.000000 0.000000 0.000000
vn 1.000000 0.000000 0.000000
vn 0.000000 -1.000000 -0.000000
vn 0.000000 -1.000000 -0.000000
vn 0.000000 -1.000000 -0.000000
vn 0.000000 -1.000000 -0.000000
vn -1.000000 -0.000000 -0.000000
vn -1.000000 -0.000000 -0.000000
vn -1.000000 -0.000000 -0.000000
vn -1.000000 -0.000000 -0.000000
vn 0.000000 -1.000000 -0.000000
vn 0.000000 -1.000000 -0.000000
vn 0.000000 -1.000000 -0.000000
vn 0.000000 -1.000000 -0.000000
vn -1.000000 -0.000000 -0.000000
vn -1.000000 -0.000000 -0.000000
vn -1.000000 -0.000000 -0.000000
vn -1.000000 -0.000000 -0.000000
vn -0.000000 1.000000 0.000000
vn -0.000000 1.000000 0.000000
vn -0.000000 1.000000 0.000000
vn -0.000000 1.000000 0.000000
vn 1.000000 0.000000 0.000000
vn 1.000000 0.000000 0.000000
vn 1.000000 0.000000 0.000000
vn 1.000000 0.000000 0.000000
vn -0.000000 1.000000 0.000000
vn -0.000000 1.000000 0.000000
vn -0.000000 1.000000 0.000000
vn -0.000000 1.000000 0.000000
vn 0.000000 -1.000000 -0.000000
vn 0.000000 -1.000000 -0.000000
vn 0.000000 -1.000000 -0.000000
vn 0.000000 -1.000000 -0.000000
vn 1.000000 0.000000 0.000000
vn 1.000000 0.000000 0.000000
vn 1.000000 0.000000 0.000000
vn 1.000000 0.000000 0.000000
vn -0.000000 1.000000 0.000000
vn -0.000000 1.000000 0.000000
vn -0.000000 1.000000 0.000000
vn -0.000000 1.000000 0.000000
vn -1.000000 -0.000000 -0.000000
vn -1.000000 -0.000000 -0.000000
vn -1.000000 -0.000000 -0.000000
vn -1.000000 -0.000000 -0.000000
vn 0.000000 -1.000000 -0.000000
vn 0.000000 -1.000000 -0.000000
vn 0.000000 -1.000000 -0.000000
vn 0.000000 -1.000000 -0.000000
vn -1.000000 -0.000000 -0.000000
vn -1.000000 -0.000000 -0.000000
vn -1.000000 -0.000000 -0.000000
vn -1.000000 -0.000000 -0.000000
vn -0.000000 1.000000 0.000000
vn -0.000000 1.000000 0.000000
vn -0.000000 1.000000 0.000000
vn -0.000000 1.000000 0.000000
vn -1.000000 -0.000000 -0.000000
vn -1.000000 -0.000000 -0.000000
vn -1.000000 -0.000000 -0.000000
vn -1.000000 -0.000000 -0.000000
vn 0.000000 -1.000000 -0.000000
vn 0.000000 -1.000000 -0.000000
vn 0.000000 -1.000000 -0.000000
vn 0.000000 -1.000000 -0.000000
vn -1.000000 -0.000000 -0.000000
vn -1.000000 -0.000000 -0.000000
vn -1.000000 -0.000000 -0.000000
vn -1.000000 -0.000000 -0.000000
vn -0.000000 1.000000 0.000000
vn -0.000000 1.000000 0.000000
vn -0.000000 1.000000 0.000000
vn -0.000000 1.000000 0.000000
vn -1.000000 -0.000000 -0.000000
vn -1.000000 -0.000000 -0.000000
vn -1.000000 -0.000000 -0.000000
vn -1.000000 -0.000000 -0.000000
vn 0.000000 -1.000000 -0.000000
vn 0.000000 -1.000000 -0.000000
vn 0.000000 -1.000000 -0.000000
vn 0.000000 -1.000000 -0.000000
vn -1.000000 -0.000000 -0.000000
vn -1.000000 -0.000000 -0.000000
vn -1.000000 -0.000000 -0.000000
vn -1.000000 -0.000000 -0.000000
vn 0.000000 -1.000000 -0.000000
vn 0.000000 -1.000000 -0.000000
vn 0.000000 -1.000000 -0.000000
vn 0.000000 -1.000000 -0.000000
vn -1.000000 -0.000000 -0.000000
vn -1.000000 -0.000000 -0.000000
vn -1.000000 -0.000000 -0.000000
vn -1.000000 -0.000000 -0.000000
vn -0.000000 1.000000 0.000000
vn -0.000000 1.000000 0.000000
vn -0.000000 1.000000 0.000000
vn -0.000000 1.000000 0.000000
vn 1.000000 0.000000 0.000000
vn 1.000000 0.000000 0.000000
vn 1.000000 0.000000 0.000000
vn 1.000000 0.000000 0.000000
vn -0.000000 1.000000 0.000000
vn -0.000000 1.000000 0.000000
vn -0.000000 1.000000 0.000000
vn -0.000000 1.000000 0.000000
vn -1.000000 -0.000000 -0.000000
vn -1.000000 -0.000000 -0.000000
vn -1.000000 -0.000000 -0.000000
vn -1.000000 -0.000000 -0.000000
vn -0.000000 1.000000 0.000000
vn -0.000000 1.000000 0.000000
vn -0.000000 1.000000 0.000000
vn -0.000000 1.000000 0.000000
vn 1.000000 0.000000 0.000000
vn 1.000000 0.000000 0.000000
vn 1.000000 0.000000 0.000000
vn 1.000000 0.000000 0.000000
vn -0.000000 1.000000 0.000000
vn -0.000000 1.000000 0.000000
vn -0.000000 1.000000 0.000000
vn -0.000000 1.000000 0.000000
vn -1.000000 -0.000000 -0.000000
vn -1.000000 -0.000000 -0.000000
vn -1.000000 -0.000000 -0.000000
vn -1.000000 -0.000000 -0.000000
vn -0.000000 1.000000 0.000000
vn -0.000000 1.000000 0.000000
vn -0.000000 1.000000 0.000000
vn -0.000000 1.000000 0.000000
vn 1.000000 0.000000 0.000000
vn 1.000000 0.000000 0.000000
vn 1.000000 0.000000 0.000000
vn 1.000000 0.000000 0.000000
vn 0.000000 -1.000000 -0.000000
vn 0.000000 -1.000000 -0.000000
vn 0.000000 -1.000000 -0.000000
vn 0.000000 -1.000000 -0.000000
vn 1.000000 0.000000 0.000000
vn 1.000000 0.000000 0.000000
vn 1.000000 0.000000 0.000000
vn 1.000000 0.000000 0.000000
vn -0.000000 1.000000 0.000000
vn -0.000000 1.000000 0.000000
vn -0.000000 1.000000 0.000000
vn -0.000000 1.000000 0.000000
vn -1.000000 -0.000000 -0.000000
vn -1.000000 -0.000000 -0.000000
vn -1.000000 -0.000000 -0.000000
vn -1.000000 -0.000000 -0.000000
vn -0.000000 1.000000 0.000000
vn -0.000000 1.000000 0.000000
vn -0.000000 1.000000 0.000000
vn -0.000000 1.000000 0.000000
vn 1.000000 0.000000 0.000000
vn 1.000000 0.000000 0.000000
vn 1.000000 0.000000 0.000000
vn 1.000000 0.000000 0.000000
vn 0.000000 -1.000000 -0.000000
vn 0.000000 -1.000000 -0.000000
vn 0.000000 -1.000000 -0.000000
vn 0.000000 -1.000000 -0.000000
vn 1.000000 0.000000 0.000000
vn 1.000000 0.000000 0.000000
vn 1.000000 0.000000 0.000000
vn 1.000000 0.000000 0.000000
vn -0.000000 1.000000 0.000000
vn -0.000000 1.000000 0.000000
vn -0.000000 1.000000 0.000000
vn -0.000000 1.000000 0.000000
vn -1.000000 -0.000000 -0.000000
vn -1.000000 -0.000000 -0.000000
vn -1.000000 -0.000000 -0.000000
vn -1.000000 -0.000000 -0.000000
vn -0.000000 1.000000 0.000000
vn -0.000000 1.000000 0.000000
vn -0.000000 1.000000 0.000000
vn -0.000000 1.000000 0.000000
vn -1.000000 -0.000000 -0.000000
vn -1.000000 -0.000000 -0.000000
vn -1.000000 -0.000000 -0.000000
vn -1.000000 -0.000000 -0.000000
vn 0.000000 -1.000000 -0.000000
vn 0.000000 -1.000000 -0.000000
vn 0.000000 -1.000000 -0.000000
vn 0.000000 -1.000000 -0.000000
vn -1.000000 -0.000000 -0.000000
vn -1.000000 -0.000000 -0.000000
vn -1.000000 -0.000000 -0.000000
vn -1.000000 -0.000000 -0.000000
vn -0.000000 1.000000 0.000000
vn -0.000000 1.000000 0.000000
vn -0.000000 1.000000 0.000000
vn -0.000000 1.000000 0.000000
vn 1.000000 0.000000 0.000000
vn 1.000000 0.000000 0.000000
vn 1.000000 0.000000 0.000000
vn 1.000000 0.000000 0.000000
vn 0.000000 -1.000000 -0.000000
vn 0.000000 -1.000000 -0.000000
vn 0.000000 -1.000000 -0.000000
vn 0.000000 -1.000000 -0.000000
vn 1.000000 0.000000 0.000000
vn 1.000000 0.000000 0.000000
vn 1.000000 0.000000 0.000000
vn 1.000000 0.000000 0.000000
vn -0.000000 1.000000 0.000000
vn -0.000000 1.000000 0.000000
vn -0.000000 1.000000 0.000000
vn -0.000000 1.000000 0.000000
vn 1.000000 0.000000 0.000000
vn 1.000000 0.000000 0.000000
vn 1.000000 0.000000 0.000000
vn 1.000000 0.000000 0.000000
vn 0.000000 -1.000000 -0.000000
vn 0.000000 -1.000000 -0.000000
vn 0.000000 -1.000000 -0.000000
vn 0.000000 -1.000000 -0.000000
vn -1.000000 -0.000000 -0.000000
vn -1.000000 -0.000000 -0.000000
vn -1.000000 -0.000000 -0.000000
vn -1.000000 -0.000000 -0.000000
vn -0.000000 1.000000 0.000000
vn -0.000000 1.000000 0.000000
vn -0.000000 1.000000 0.000000
vn -0.000000 1.000000 0.000000
vn -1.000000 -0.000000 -0.000000
vn -1.000000 -0.000000 -0.000000
vn -1.000000 -0.000000 -0.000000
vn -1.000000 -0.000000 -0.000000
vn 0.000000 -1.000000 -0.000000
vn 0.000000 -1.000000 -0.000000
vn 0.000000 -1.000000 -0.000000
vn 0.000000 -1.000000 -0.000000
vn 1.000000 0.000000 0.000000
vn 1.000000 0.000000 0.000000
vn 1.000000 0.000000 0.000000
vn 1.000000 0.000000 0.000000
vn 0.000000 -1.000000 -0.000000
vn 0.000000 -1.000000 -0.000000
vn 0.000000 -1.000000 -0.000000
vn 0.000000 -1.000000 -0.000000
vn -1.000000 -0.000000 -0.000000
vn -1.000000 -0.000000 -0.000000
vn -1.000000 -0.000000 -0.000000
vn -1.000000 -0.000000 -0.000000
vn 0.000000 -1.000000 -0.000000
vn 0.000000 -1.000000 -0.000000
vn 0.000000 -1.000000 -0.000000
vn 0.000000 -1.000000 -0.000000
vn -1.000000 -0.000000 -0.000000
vn -1.000000 -0.000000 -0.000000
vn -1.000000 -0.000000 -0.000000
vn -1.000000 -0.000000 -0.000000
vn -0.000000 1.000000 0.000000
vn -0.000000 1.000000 0.000000
vn -0.000000 1.000000 0.000000
vn -0.000000 1.000000 0.000000
vn -1.000000 -0.000000 -0.000000
vn -1.000000 -0.000000 -0.000000
vn -1.000000 -0.000000 -0.000000
vn -1.000000 -0.000000 -0.000000
vn 0.000000 -1.000000 -0.000000
vn 0.000000 -1.000000 -0.000000
vn 0.000000 -1.000000 -0.000000
vn 0.000000 -1.000000 -0.000000
vn 1.000000 0.000000 0.000000
vn 1.000000 0.000000 0.000000
vn 1.000000 0.000000 0.000000
vn 1.000000 0.000000 0.000000
vn 0.000000 -1.000000 -0.000000
vn 0.000000 -1.000000 -0.000000
vn 0.000000 -1.000000 -0.000000
vn 0.000000 -1.000000 -0.000000
vn -1.000000 -0.000000 -0.000000
vn -1.000000 -0.000000 -0.000000
vn -1.000000 -0.000000 -0.000000
vn -1.000000 -0.000000 -0.000000
vn 0.000000 -1.000000 -0.000000
vn 0.000000 -1.000000 -0.000000
vn 0.000000 -1.000000 -0.000000
vn 0.000000 -1.000000 -0.000000
vn 1.000000 0.000000 0.000000
vn 1.000000 0.000000 0.000000
vn 1.000000 0.000000 0.000000
vn 1.000000 0.000000 0.000000
vn -0.000000 1.000000 0.000000
vn -0.000000 1.000000 0.000000
vn -0.000000 1.000000 0.000000
vn -0.000000 1.000000 0.000000
vn 1.000000 0.000000 0.000000
vn 1.000000 0.000000 0.000000
vn 1.000000 0.000000 0.000000
vn 1.000000 0.000000 0.000000
vn -0.000000 1.000000 0.000000
vn -0.000000 1.000000 0.000000
vn -0.000000 1.000000 0.000000
vn -0.000000 1.000000 0.000000
vn 1.000000 0.000000 0.000000
vn 1.000000 0.000000 0.000000
vn 1.000000 0.000000 0.000000
vn 1.000000 0.000000 0.000000
vn 0.000000 -1.000000 -0.000000
vn 0.000000 -1.000000 -0.000000
vn 0.000000 -1.000000 -0.000000
vn 0.000000 -1.000000 -0.000000
vn 1.000000 0.000000 0.000000
vn 1.000000 0.000000 0.000000
vn 1.000000 0.000000 0.000000
vn 1.000000 0.000000 0.000000
vn 0.000000 -1.000000 -0.000000
vn 0.000000 -1.000000 -0.000000
vn 0.000000 -1.000000 -0.000000
vn 0.000000 -1.000000 -0.000000
vn 1.000000 0.000000 0.000000
vn 1.000000 0.000000 0.000000
vn 1.000000 0.000000 0.000000
vn 1.000000 0.000000 0.000000
vn 1.000000 0.000000 0.000000
vn 1.000000 0.000000 0.000000
vn 1.000000 0.000000 0.000000
vn 1.000000 0.000000 0.000000
vn -1.000000 -0.000000 -0.000000
vn -1.000000 -0.000000 -0.000000
vn -1.000000 -0.000000 -0.000000
vn -1.000000 -0.000000 -0.000000
vn 0.000000 -1.000000 -0.000000
vn 0.000000 -1.000000 -0.000000
vn 0.000000 -1.000000 -0.000000
vn 0.000000 -1.000000 -0.000000
usemtl Steel_-_Satin
f 1/1/1 2/2/2 4/3/3
f 4/3/3 2/2/2 3/4/4
f 5/5/5 6/6/6 8/7/7
f 8/7/7 6/6/6 7/8/8
f 10/9/9 11/10/10 9/11/11
f 9/11/11 11/10/10 108/12/12
f 9/11/11 108/12/12 109/13/13
f 108/12/12 11/10/10 107/14/14
f 107/14/14 11/10/10 12/15/15
f 107/14/14 12/15/15 100/16/16
f 100/16/16 12/15/15 99/17/17
f 99/17/17 12/15/15 98/18/18
f 98/18/18 12/15/15 13/19/19
f 98/18/18 13/19/19 14/20/20
f 98/18/18 14/20/20 17/21/21
f 17/21/21 14/20/20 15/22/22
f 17/21/21 15/22/22 16/23/23
f 98/18/18 17/21/21 97/24/24
f 97/24/24 17/21/21 18/25/25
f 97/24/24 18/25/25 19/26/26
f 20/27/27 95/28/28 19/26/26
f 19/26/26 95/28/28 96/29/29
f 19/26/26 96/29/29 97/24/24
f 21/30/30 60/31/31 20/27/27
f 20/27/27 60/31/31 61/32/32
f 20/27/27 61/32/32 95/28/28
f 95/28/28 61/32/32 94/33/33
f 94/33/33 61/32/32 64/34/34
f 94/33/33 64/34/34 71/35/35
f 71/35/35 64/34/34 65/36/36
f 71/35/35 65/36/36 70/37/37
f 70/37/37 65/36/36 69/38/38
f 69/38/38 65/36/36 66/39/39
f 69/38/38 66/39/39 67/40/40
f 22/41/41 24/42/42 21/30/30
f 21/30/30 24/42/42 49/43/43
f 21/30/30 49/43/43 50/44/44
f 22/41/41 23/45/45 24/42/42
f 24/42/42 25/46/46 49/43/43
f 49/43/43 25/46/46 48/47/47
f 48/47/47 25/46/46 40/48/48
f 48/47/47 40/48/48 47/49/49
f 47/49/49 40/48/48 46/50/50
f 46/50/50 40/48/48 41/51/51
f 46/50/50 41/51/51 45/52/52
f 45/52/52 41/51/51 42/53/53
f 45/52/52 42/53/53 43/54/54
f 40/48/48 25/46/46 39/55/55
f 39/55/55 25/46/46 26/56/56
f 39/55/55 26/56/56 29/57/57
f 29/57/57 26/56/56 27/58/58
f 29/57/57 27/58/58 28/59/59
f 39/55/55 29/57/57 32/60/60
f 32/60/60 29/57/57 30/61/61
f 32/60/60 30/61/61 31/62/62
f 32/60/60 33/63/63 39/55/55
f 39/55/55 33/63/63 38/64/64
f 38/64/64 33/63/63 37/65/65
f 37/65/65 33/63/63 34/66/66
f 37/65/65 34/66/66 36/67/67
f 36/67/67 34/66/66 35/68/68
f 43/54/54 44/69/69 45/52/52
f 51/70/70 54/71/71 50/44/44
f 50/44/44 54/71/71 55/72/72
f 50/44/44 55/72/72 21/30/30
f 21/30/30 55/72/72 60/31/31
f 51/70/70 52/73/73 54/71/71
f 54/71/71 52/73/73 53/74/74
f 55/72/72 56/75/75 60/31/31
f 60/31/31 56/75/75 59/76/76
f 59/76/76 56/75/75 58/77/77
f 58/77/77 56/75/75 57/78/78
f 62/79/79 63/80/80 61/32/32
f 61/32/32 63/80/80 64/34/34
f 67/40/40 68/81/81 69/38/38
f 71/35/35 72/82/82 94/33/33
f 94/33/33 72/82/82 93/83/83
f 93/83/83 72/82/82 75/84/84
f 93/83/83 75/84/84 76/85/85
f 72/82/82 73/86/86 75/84/84
f 75/84/84 73/86/86 74/87/87
f 77/88/88 78/89/89 76/85/85
f 76/85/85 78/89/89 79/90/90
f 76/85/85 79/90/90 93/83/83
f 93/83/83 79/90/90 92/91/91
f 92/91/91 79/90/90 91/92/92
f 91/92/92 79/90/90 80/93/93
f 91/92/92 80/93/93 90/94/94
f 90/94/94 80/93/93 87/95/95
f 90/94/94 87/95/95 89/96/96
f 89/96/96 87/95/95 88/97/97
f 80/93/93 81/98/98 87/95/95
f 87/95/95 81/98/98 86/99/99
f 86/99/99 81/98/98 82/100/100
f 86/99/99 82/100/100 83/101/101
f 83/101/101 82/100/100 4/102/102
f 83/101/101 4/102/102 3/103/103
f 84/104/104 85/105/105 83/101/101
f 83/101/101 85/105/105 86/99/99
f 101/106/106 103/107/107 100/16/16
f 100/16/16 103/107/107 106/108/108
f 100/16/16 106/108/108 107/14/14
f 101/106/106 102/109/109 103/107/107
f 104/110/110 105/111/111 103/107/107
f 103/107/107 105/111/111 106/108/108
f 110/112/112 112/113/113 109/13/13
f 109/13/13 112/113/113 132/114/114
f 109/13/13 132/114/114 9/11/11
f 110/112/112 111/115/115 112/113/113
f 112/113/113 113/116/116 132/114/114
f 132/114/114 113/116/116 114/117/117
f 132/114/114 114/117/117 117/118/118
f 117/118/118 114/117/117 116/119/119
f 116/119/119 114/117/117 115/120/120
f 116/119/119 115/120/120 8/121/121
f 8/121/121 7/122/122 116/119/119
f 117/118/118 118/123/123 132/114/114
f 132/114/114 118/123/123 121/124/124
f 132/114/114 121/124/124 131/125/125
f 131/125/125 121/124/124 122/126/126
f 131/125/125 122/126/126 125/127/127
f 125/127/127 122/126/126 123/128/128
f 125/127/127 123/128/128 124/129/129
f 119/130/130 120/131/131 118/123/123
f 118/123/123 120/131/131 121/124/124
f 125/127/127 126/132/132 131/125/125
f 131/125/125 126/132/132 130/133/133
f 130/133/133 126/132/132 127/134/134
f 130/133/133 127/134/134 129/135/135
f 129/135/135 127/134/134 128/136/136
f 109/137/137 108/138/138 134/139/139
f 134/139/139 108/138/138 133/140/140
f 127/141/141 126/142/142 135/143/143
f 135/143/143 126/142/142 136/144/144
f 126/145/145 125/146/146 136/147/147
f 136/147/147 125/146/146 137/148/148
f 122/149/149 121/150/150 139/151/151
f 139/151/151 121/150/150 138/152/152
f 11/153/153 10/154/154 141/155/155
f 141/155/155 10/154/154 140/156/156
f 114/157/157 113/158/158 143/159/159
f 143/159/159 113/158/158 142/160/160
f 113/161/161 112/162/162 142/163/163
f 142/163/163 112/162/162 144/164/164
f 118/165/165 117/166/166 146/167/167
f 146/167/167 117/166/166 145/168/168
f 140/169/169 147/170/170 141/171/171
f 141/171/171 147/170/170 133/172/172
f 141/171/171 133/172/172 161/173/173
f 133/172/172 147/170/170 134/174/174
f 134/174/174 147/170/170 148/175/175
f 134/174/174 148/175/175 144/176/176
f 144/176/176 148/175/175 142/177/177
f 142/177/177 148/175/175 143/178/178
f 143/178/178 148/175/175 145/179/179
f 143/178/178 145/179/179 157/180/180
f 149/181/181 138/182/182 148/175/175
f 148/175/175 138/182/182 146/183/183
f 148/175/175 146/183/183 145/179/179
f 150/184/184 136/185/185 149/181/181
f 149/181/181 136/185/185 137/186/186
f 149/181/181 137/186/186 139/187/187
f 139/187/187 137/186/186 154/188/188
f 154/188/188 137/186/186 153/189/189
f 136/185/185 150/184/184 135/190/190
f 135/190/190 150/184/184 151/191/191
f 135/190/190 151/191/191 152/192/192
f 139/187/187 138/182/182 149/181/181
f 138/182/182 155/193/193 146/183/183
f 146/183/183 155/193/193 156/194/194
f 6/195/195 5/196/196 157/180/180
f 157/180/180 5/196/196 158/197/197
f 157/180/180 158/197/197 143/178/178
f 159/198/198 160/199/199 144/176/176
f 144/176/176 160/199/199 134/174/174
f 162/200/200 168/201/201 161/173/173
f 161/173/173 168/201/201 256/202/202
f 161/173/173 256/202/202 141/171/171
f 168/201/201 162/200/200 165/203/203
f 165/203/203 162/200/200 163/204/204
f 165/203/203 163/204/204 164/205/205
f 166/206/206 167/207/207 165/203/203
f 165/203/203 167/207/207 168/201/201
f 168/201/201 169/208/208 256/202/202
f 256/202/202 169/208/208 170/209/209
f 256/202/202 170/209/209 255/210/210
f 255/210/210 170/209/209 254/211/211
f 254/211/211 170/209/209 171/212/212
f 254/211/211 171/212/212 251/213/213
f 251/213/213 171/212/212 250/214/214
f 250/214/214 171/212/212 249/215/215
f 249/215/215 171/212/212 172/216/216
f 249/215/215 172/216/216 173/217/217
f 174/218/218 207/219/219 173/217/217
f 173/217/217 207/219/219 208/220/220
f 173/217/217 208/220/220 248/221/221
f 248/221/221 208/220/220 247/222/222
f 247/222/222 208/220/220 213/223/223
f 247/222/222 213/223/223 214/224/224
f 175/225/225 196/226/226 174/218/218
f 174/218/218 196/226/226 197/227/227
f 174/218/218 197/227/227 204/228/228
f 204/228/228 197/227/227 203/229/229
f 203/229/229 197/227/227 198/230/230
f 203/229/229 198/230/230 199/231/231
f 176/232/232 189/233/233 175/225/225
f 175/225/225 189/233/233 192/234/234
f 175/225/225 192/234/234 193/235/235
f 176/232/232 177/236/236 189/233/233
f 189/233/233 177/236/236 188/237/237
f 188/237/237 177/236/236 178/238/238
f 188/237/237 178/238/238 181/239/239
f 181/239/239 178/238/238 179/240/240
f 181/239/239 179/240/240 180/241/241
f 188/237/237 181/239/239 187/242/242
f 187/242/242 181/239/239 182/243/243
f 187/242/242 182/243/243 186/244/244
f 186/244/244 182/243/243 183/245/245
f 186/244/244 183/245/245 185/246/246
f 185/246/246 183/245/245 184/247/247
f 2/248/248 1/249/249 185/246/246
f 185/246/246 1/249/249 186/244/244
f 189/233/233 190/250/250 192/234/234
f 192/234/234 190/250/250 191/251/251
f 194/252/252 195/253/253 193/235/235
f 193/235/235 195/253/253 196/226/226
f 193/235/235 196/226/226 175/225/225
f 200/254/254 201/255/255 199/231/231
f 199/231/231 201/255/255 202/256/256
f 199/231/231 202/256/256 203/229/229
f 174/218/218 204/228/228 207/219/219
f 207/219/219 204/228/228 205/257/257
f 207/219/219 205/257/257 206/258/258
f 213/223/223 208/220/220 212/259/259
f 212/259/259 208/220/220 209/260/260
f 212/259/259 209/260/260 210/261/261
f 210/261/261 211/262/262 212/259/259
f 215/263/263 216/264/264 214/224/224
f 214/224/224 216/264/264 217/265/265
f 214/224/224 217/265/265 218/266/266
f 214/224/224 218/266/266 247/222/222
f 247/222/222 218/266/266 219/267/267
f 247/222/222 219/267/267 244/268/268
f 244/268/268 219/267/267 243/269/269
f 243/269/269 219/267/267 220/270/270
f 243/269/269 220/270/270 228/271/271
f 228/271/271 220/270/270 221/272/272
f 228/271/271 221/272/272 222/273/273
f 228/271/271 222/273/273 227/274/274
f 227/274/274 222/273/273 223/275/275
f 227/274/274 223/275/275 226/276/276
f 226/276/276 223/275/275 225/277/277
f 225/277/277 223/275/275 224/278/278
f 228/271/271 229/279/279 243/269/269
f 243/269/269 229/279/279 242/280/280
f 242/280/280 229/279/279 239/281/281
f 242/280/280 239/281/281 241/282/282
f 241/282/282 239/281/281 240/283/283
f 230/284/284 235/285/285 229/279/279
f 229/279/279 235/285/285 236/286/286
f 229/279/279 236/286/286 239/281/281
f 239/281/281 236/286/286 238/287/287
f 238/287/287 236/286/286 237/288/288
f 230/284/284 231/289/289 235/285/285
f 235/285/285 231/289/289 234/290/290
f 234/290/290 231/289/289 232/291/291
f 234/290/290 232/291/291 233/292/292
f 245/293/293 246/294/294 244/268/268
f 244/268/268 246/294/294 247/222/222
f 248/221/221 249/215/215 173/217/217
f 252/295/295 253/296/296 251/213/213
f 251/213/213 253/296/296 254/211/211
f 131/297/297 130/298/298 149/299/299
f 149/299/299 130/298/298 150/300/300
f 132/301/301 131/302/302 148/303/303
f 148/303/303 131/302/302 149/304/304
f 9/305/305 132/306/306 147/307/307
f 147/307/307 132/306/306 148/308/308
f 151/309/309 150/310/310 129/311/311
f 129/311/311 150/310/310 130/312/312
f 153/313/313 137/314/314 124/315/315
f 124/315/315 137/314/314 125/316/316
f 154/317/317 153/318/318 123/319/319
f 123/319/319 153/318/318 124/320/320
f 139/321/321 154/322/322 122/323/323
f 122/323/323 154/322/322 123/324/324
f 155/325/325 138/326/326 120/327/327
f 120/327/327 138/326/326 121/328/328
f 156/329/329 155/330/330 119/331/331
f 119/331/331 155/330/330 120/332/332
f 146/333/333 156/334/334 118/335/335
f 118/335/335 156/334/334 119/336/336
f 157/337/337 145/338/338 116/339/339
f 116/339/339 145/338/338 117/340/340
f 6/341/341 157/342/342 7/343/343
f 7/343/343 157/342/342 116/344/344
f 158/345/345 5/346/346 115/347/347
f 115/347/347 5/346/346 8/348/348
f 143/349/349 158/350/350 114/351/351
f 114/351/351 158/350/350 115/352/352
f 159/353/353 144/354/354 111/355/355
f 111/355/355 144/354/354 112/356/356
f 160/357/357 159/358/358 110/359/359
f 110/359/359 159/358/358 111/360/360
f 134/361/361 160/362/362 109/363/363
f 109/363/363 160/362/362 110/364/364
f 161/365/365 133/366/366 107/367/367
f 107/367/367 133/366/366 108/368/368
f 162/369/369 161/370/370 106/371/371
f 106/371/371 161/370/370 107/372/372
f 163/373/373 162/374/374 105/375/375
f 105/375/375 162/374/374 106/376/376
f 164/377/377 163/378/378 104/379/379
f 104/379/379 163/378/378 105/380/380
f 165/381/381 164/382/382 103/383/383
f 103/383/383 164/382/382 104/384/384
f 166/385/385 165/386/386 102/387/387
f 102/387/387 165/386/386 103/388/388
f 167/389/389 166/390/390 101/391/391
f 101/391/391 166/390/390 102/392/392
f 168/393/393 167/394/394 100/395/395
f 100/395/395 167/394/394 101/396/396
f 169/397/397 168/398/398 99/399/399
f 99/399/399 168/398/398 100/400/400
f 170/401/401 169/402/402 98/403/403
f 98/403/403 169/402/402 99/404/404
f 171/405/405 170/406/406 97/407/407
f 97/407/407 170/406/406 98/408/408
f 172/409/409 171/410/410 96/411/411
f 96/411/411 171/410/410 97/412/412
f 173/413/413 172/414/414 95/415/415
f 95/415/415 172/414/414 96/416/416
f 174/417/417 173/418/418 94/419/419
f 94/419/419 173/418/418 95/420/420
f 175/421/421 174/422/422 93/423/423
f 93/423/423 174/422/422 94/424/424
f 176/425/425 175/426/426 92/427/427
f 92/427/427 175/426/426 93/428/428
f 177/429/429 176/430/430 91/431/431
f 91/431/431 176/430/430 92/432/432
f 178/433/433 177/434/434 90/435/435
f 90/435/435 177/434/434 91/436/436
f 179/437/437 178/438/438 89/439/439
f 89/439/439 178/438/438 90/440/440
f 180/441/441 179/442/442 88/443/443
f 88/443/443 179/442/442 89/444/444
f 181/445/445 180/446/446 87/447/447
f 87/447/447 180/446/446 88/448/448
f 182/449/449 181/450/450 86/451/451
f 86/451/451 181/450/450 87/452/452
f 183/453/453 182/454/454 85/455/455
f 85/455/455 182/454/454 86/456/456
f 184/457/457 183/458/458 84/459/459
f 84/459/459 183/458/458 85/460/460
f 185/461/461 184/462/462 83/463/463
f 83/463/463 184/462/462 84/464/464
f 2/465/465 185/466/466 3/467/467
f 3/467/467 185/466/466 83/468/468
f 186/469/469 1/470/470 82/471/471
f 82/471/471 1/470/470 4/472/472
f 187/473/473 186/474/474 81/475/475
f 81/475/475 186/474/474 82/476/476
f 188/477/477 187/478/478 80/479/479
f 80/479/479 187/478/478 81/480/480
f 189/481/481 188/482/482 79/483/483
f 79/483/483 188/482/482 80/484/484
f 190/485/485 189/486/486 78/487/487
f 78/487/487 189/486/486 79/488/488
f 191/489/489 190/490/490 77/491/491
f 77/491/491 190/490/490 78/492/492
f 192/493/493 191/494/494 76/495/495
f 76/495/495 191/494/494 77/496/496
f 193/497/497 192/498/498 75/499/499
f 75/499/499 192/498/498 76/500/500
f 194/501/501 193/502/502 74/503/503
f 74/503/503 193/502/502 75/504/504
f 195/505/505 194/506/506 73/507/507
f 73/507/507 194/506/506 74/508/508
f 196/509/509 195/510/510 72/511/511
f 72/511/511 195/510/510 73/512/512
f 197/513/513 196/514/514 71/515/515
f 71/515/515 196/514/514 72/516/516
f 198/517/517 197/518/518 70/519/519
f 70/519/519 197/518/518 71/520/520
f 199/521/521 198/522/522 69/523/523
f 69/523/523 198/522/522 70/524/524
f 200/525/525 199/526/526 68/527/527
f 68/527/527 199/526/526 69/528/528
f 201/529/529 200/530/530 67/531/531
f 67/531/531 200/530/530 68/532/532
f 202/533/533 201/534/534 66/535/535
f 66/535/535 201/534/534 67/536/536
f 203/537/537 202/538/538 65/539/539
f 65/539/539 202/538/538 66/540/540
f 204/541/541 203/542/542 64/543/543
f 64/543/543 203/542/542 65/544/544
f 205/545/545 204/546/546 63/547/547
f 63/547/547 204/546/546 64/548/548
f 206/549/549 205/550/550 62/551/551
f 62/551/551 205/550/550 63/552/552
f 207/553/553 206/554/554 61/555/555
f 61/555/555 206/554/554 62/556/556
f 208/557/557 207/558/558 60/559/559
f 60/559/559 207/558/558 61/560/560
f 209/561/561 208/562/562 59/563/563
f 59/563/563 208/562/562 60/564/564
f 210/565/565 209/566/566 58/567/567
f 58/567/567 209/566/566 59/568/568
f 211/569/569 210/570/570 57/571/571
f 57/571/571 210/570/570 58/572/572
f 212/573/573 211/574/574 56/575/575
f 56/575/575 211/574/574 57/576/576
f 213/577/577 212/578/578 55/579/579
f 55/579/579 212/578/578 56/580/580
f 214/581/581 213/582/582 54/583/583
f 54/583/583 213/582/582 55/584/584
f 215/585/585 214/586/586 53/587/587
f 53/587/587 214/586/586 54/588/588
f 216/589/589 215/590/590 52/591/591
f 52/591/591 215/590/590 53/592/592
f 217/593/593 216/594/594 51/595/595
f 51/595/595 216/594/594 52/596/596
f 218/597/597 217/598/598 50/599/599
f 50/599/599 217/598/598 51/600/600
f 219/601/601 218/602/602 49/603/603
f 49/603/603 218/602/602 50/604/604
f 220/605/605 219/606/606 48/607/607
f 48/607/607 219/606/606 49/608/608
f 221/609/609 220/610/610 47/611/611
f 47/611/611 220/610/610 48/612/612
f 222/613/613 221/614/614 46/615/615
f 46/615/615 221/614/614 47/616/616
f 223/617/617 222/618/618 45/619/619
f 45/619/619 222/618/618 46/620/620
f 224/621/621 223/622/622 44/623/623
f 44/623/623 223/622/622 45/624/624
f 225/625/625 224/626/626 43/627/627
f 43/627/627 224/626/626 44/628/628
f 226/629/629 225/630/630 42/631/631
f 42/631/631 225/630/630 43/632/632
f 227/633/633 226/634/634 41/635/635
f 41/635/635 226/634/634 42/636/636
f 228/637/637 227/638/638 40/639/639
f 40/639/639 227/638/638 41/640/640
f 229/641/641 228/642/642 39/643/643
f 39/643/643 228/642/642 40/644/644
f 230/645/645 229/646/646 38/647/647
f 38/647/647 229/646/646 39/648/648
f 231/649/649 230/650/650 37/651/651
f 37/651/651 230/650/650 38/652/652
f 232/653/653 231/654/654 36/655/655
f 36/655/655 231/654/654 37/656/656
f 233/657/657 232/658/658 35/659/659
f 35/659/659 232/658/658 36/660/660
f 234/661/661 233/662/662 34/663/663
f 34/663/663 233/662/662 35/664/664
f 235/665/665 234/666/666 33/667/667
f 33/667/667 234/666/666 34/668/668
f 236/669/669 235/670/670 32/671/671
f 32/671/671 235/670/670 33/672/672
f 237/673/673 236/674/674 31/675/675
f 31/675/675 236/674/674 32/676/676
f 238/677/677 237/678/678 30/679/679
f 30/679/679 237/678/678 31/680/680
f 239/681/681 238/682/682 29/683/683
f 29/683/683 238/682/682 30/684/684
f 240/685/685 239/686/686 28/687/687
f 28/687/687 239/686/686 29/688/688
f 241/689/689 240/690/690 27/691/691
f 27/691/691 240/690/690 28/692/692
f 242/693/693 241/694/694 26/695/695
f 26/695/695 241/694/694 27/696/696
f 243/697/697 242/698/698 25/699/699
f 25/699/699 242/698/698 26/700/700
f 244/701/701 243/702/702 24/703/703
f 24/703/703 243/702/702 25/704/704
f 245/705/705 244/706/706 23/707/707
f 23/707/707 244/706/706 24/708/708
f 246/709/709 245/710/710 22/711/711
f 22/711/711 245/710/710 23/712/712
f 247/713/713 246/714/714 21/715/715
f 21/715/715 246/714/714 22/716/716
f 248/717/717 247/718/718 20/719/719
f 20/719/719 247/718/718 21/720/720
f 249/721/721 248/722/722 19/723/723
f 19/723/723 248/722/722 20/724/724
f 250/725/725 249/726/726 18/727/727
f 18/727/727 249/726/726 19/728/728
f 251/729/729 250/730/730 17/731/731
f 17/731/731 250/730/730 18/732/732
f 252/733/733 251/734/734 16/735/735
f 16/735/735 251/734/734 17/736/736
f 253/737/737 252/738/738 15/739/739
f 15/739/739 252/738/738 16/740/740
f 254/741/741 253/742/742 14/743/743
f 14/743/743 253/742/742 15/744/744
f 255/745/745 254/746/746 13/747/747
f 13/747/747 254/746/746 14/748/748
f 256/749/749 255/750/750 12/751/751
f 12/751/751 255/750/750 13/752/752
f 141/753/753 256/754/754 11/755/755
f 11/755/755 256/754/754 12/756/756
f 10/757/757 9/758/758 140/759/759
f 140/759/759 9/758/758 147/760/760
f 135/761/761 152/762/762 127/763/763
f 127/763/763 152/762/762 128/764/764
f 152/765/765 151/766/766 128/767/767
f 128/767/767 151/766/766 129/768/768
g Body9

v 0.160000 -1.040000 0.080000
v 0.160000 -1.040000 -0.000000
v 1.040000 -1.040000 -0.000000
v 1.040000 -1.040000 0.080000
v 0.160000 -0.840000 -0.000000
v -0.040000 -0.840000 -0.000000
v -0.040000 -0.560000 -0.000000
v 0.160000 -0.560000 -0.000000
v 0.160000 -0.160000 -0.000000
v 0.440000 -0.160000 -0.000000
v 0.440000 -0.360000 -0.000000
v 0.640000 -0.360000 -0.000000
v 0.640000 -0.640000 -0.000000
v 0.560000 -0.640000 -0.000000
v 0.560000 -0.440000 -0.000000
v 0.360000 -0.440000 -0.000000
v 0.360000 -0.240000 -0.000000
v 0.240000 -0.240000 -0.000000
v 0.240000 -0.640000 -0.000000
v 0.040000 -0.640000 -0.000000
v 0.040000 -0.760000 -0.000000
v 0.240000 -0.760000 -0.000000
v 0.240000 -0.960000 -0.000000
v 0.360000 -0.960000 -0.000000
v 0.360000 -0.560000 -0.000000
v 0.440000 -0.560000 -0.000000
v 0.440000 -0.960000 -0.000000
v 0.960000 -0.960000 -0.000000
v 0.960000 0.160000 0.000000
v 0.760000 0.160000 0.000000
v 0.760000 0.440000 0.000000
v 0.840000 0.440000 0.000000
v 0.840000 0.240000 0.000000
v 0.960000 0.240000 0.000000
v 0.960000 0.960000 0.000000
v -0.040000 0.960000 0.000000
v -0.040000 1.040000 0.000000
v 1.040000 1.040000 0.000000
v 0.240000 -0.960000 0.080000
v 0.360000 -0.960000 0.080000
v 0.160000 -0.840000 0.080000
v 1.040000 1.040000 0.080000
v -0.040000 1.040000 0.080000
v -0.040000 0.960000 0.080000
v 0.960000 0.960000 0.080000
v 0.960000 0.240000 0.080000
v 0.840000 0.240000 0.080000
v 0.840000 0.440000 0.080000
v 0.760000 0.440000 0.080000
v 0.760000 0.160000 0.080000
v 0.960000 0.160000 0.080000
v 0.960000 -0.960000 0.080000
v 0.440000 -0.960000 0.080000
v 0.440000 -0.560000 0.080000
v 0.360000 -0.560000 0.080000
v 0.240000 -0.760000 0.080000
v 0.040000 -0.760000 0.080000
v 0.040000 -0.640000 0.080000
v 0.240000 -0.640000 0.080000
v 0.240000 -0.240000 0.080000
v 0.360000 -0.240000 0.080000
v 0.360000 -0.440000 0.080000
v 0.560000 -0.440000 0.080000
v 0.560000 -0.640000 0.080000
v 0.640000 -0.640000 0.080000
v 0.640000 -0.360000 0.080000
v 0.440000 -0.360000 0.080000
v 0.440000 -0.160000 0.080000
v 0.160000 -0.160000 0.080000
v 0.160000 -0.560000 0.080000
v -0.040000 -0.560000 0.080000
v -0.040000 -0.840000 0.080000
vt 0.880000 0.080000 0.000000
vt -0.000000 0.080000 0.000000
vt 0.880000 0.000000 0.000000
vt 0.000000 0.000000 0.000000
vt 0.840000 0.320000 0.000000
vt 0.960000 0.240000 0.000000
vt 1.040000 0.320000 0.000000
vt 0.960000 0.120000 0.000000
vt 0.960000 0.040000 0.000000
vt 0.560000 0.120000 0.000000
vt 0.560000 0.040000 0.000000
vt 0.840000 0.520000 0.000000
vt 0.760000 0.440000 0.000000
vt 0.760000 0.240000 0.000000
vt 0.560000 0.520000 0.000000
vt 0.640000 0.440000 0.000000
vt 0.560000 0.320000 0.000000
vt 0.640000 0.240000 0.000000
vt 0.240000 0.240000 0.000000
vt 0.160000 0.320000 0.000000
vt 0.160000 0.040000 0.000000
vt 0.240000 0.120000 0.000000
vt 0.360000 0.040000 0.000000
vt 0.440000 0.120000 0.000000
vt 0.440000 -0.080000 0.000000
vt 0.360000 -0.160000 0.000000
vt 0.640000 -0.160000 0.000000
vt 0.640000 -0.080000 0.000000
vt 1.040000 -0.560000 0.000000
vt 0.960000 -0.480000 0.000000
vt -0.160000 -0.480000 0.000000
vt -0.160000 -0.280000 0.000000
vt -0.240000 -0.360000 0.000000
vt -0.240000 -0.480000 0.000000
vt -1.040000 -0.560000 0.000000
vt -0.960000 -0.480000 0.000000
vt -1.040000 0.520000 0.000000
vt -0.960000 0.520000 0.000000
vt -0.440000 -0.280000 0.000000
vt -0.440000 -0.360000 0.000000
vt -0.120000 -0.000000 0.000000
vt 0.000000 0.000000 0.000000
vt -0.120000 0.080000 0.000000
vt -0.000000 0.080000 0.000000
vt -0.320000 -1.040000 0.000000
vt -0.240000 -0.960000 0.000000
vt -0.320000 -0.840000 0.000000
vt -0.240000 -0.760000 0.000000
vt -0.440000 -0.760000 0.000000
vt 0.560000 -1.040000 0.000000
vt -0.040000 -0.960000 0.000000
vt -0.120000 -0.960000 0.000000
vt 0.560000 1.040000 0.000000
vt 0.480000 0.160000 0.000000
vt 0.480000 -0.960000 0.000000
vt -0.520000 1.040000 0.000000
vt 0.480000 0.960000 0.000000
vt 0.480000 0.240000 0.000000
vt 0.360000 0.240000 0.000000
vt 0.280000 0.160000 0.000000
vt 0.280000 0.440000 0.000000
vt 0.360000 0.440000 0.000000
vt -0.520000 0.960000 0.000000
vt -0.040000 -0.560000 0.000000
vt -0.120000 -0.560000 0.000000
vt -0.520000 -0.840000 0.000000
vt -0.440000 -0.640000 0.000000
vt -0.520000 -0.560000 0.000000
vt -0.320000 -0.560000 0.000000
vt -0.240000 -0.640000 0.000000
vt -0.240000 -0.240000 0.000000
vt -0.320000 -0.160000 0.000000
vt -0.120000 -0.240000 0.000000
vt -0.040000 -0.160000 0.000000
vt -0.040000 -0.360000 0.000000
vt -0.120000 -0.440000 0.000000
vt 0.080000 -0.440000 0.000000
vt 0.080000 -0.640000 0.000000
vt 0.160000 -0.640000 0.000000
vt 0.160000 -0.360000 0.000000
vt -0.720000 -0.000000 0.000000
vt -0.000000 0.000000 0.000000
vt -0.720000 0.080000 0.000000
vt -0.000000 0.080000 0.000000
vt -1.000000 0.000000 0.000000
vt -0.000000 0.000000 0.000000
vt -1.000000 0.080000 0.000000
vt 0.000000 0.080000 0.000000
vt -0.520000 0.000000 0.000000
vt 0.000000 0.000000 0.000000
vt -0.520000 0.080000 0.000000
vt -0.000000 0.080000 0.000000
vt -1.120000 0.000000 0.000000
vt 0.000000 0.000000 0.000000
vt -1.120000 0.080000 0.000000
vt 0.000000 0.080000 0.000000
vt 0.000000 0.000000 0.000000
vt 2.080000 0.000000 0.000000
vt 0.000000 0.080000 0.000000
vt 2.080000 0.080000 0.000000
vt -0.000000 -0.000000 0.000000
vt 1.080000 0.000000 0.000000
vt -0.000000 0.080000 0.000000
vt 1.080000 0.080000 0.000000
vt 0.040000 0.080000 0.000000
vt -0.040000 0.080000 0.000000
vt 0.040000 -0.000000 0.000000
vt -0.040000 0.000000 0.000000
vt 0.000000 0.000000 0.000000
vt 0.200000 -0.000000 0.000000
vt -0.000000 0.080000 0.000000
vt 0.200000 0.080000 0.000000
vt 0.000000 0.000000 0.000000
vt 0.200000 0.000000 0.000000
vt 0.000000 0.080000 0.000000
vt 0.200000 0.080000 0.000000
vt 0.000000 0.000000 0.000000
vt 0.280000 0.000000 0.000000
vt -0.000000 0.080000 0.000000
vt 0.280000 0.080000 0.000000
vt -0.000000 0.000000 0.000000
vt 0.200000 0.000000 0.000000
vt -0.000000 0.080000 0.000000
vt 0.200000 0.080000 0.000000
vt 0.000000 0.000000 0.000000
vt 0.400000 -0.000000 0.000000
vt 0.000000 0.080000 0.000000
vt 0.400000 0.080000 0.000000
vt -0.000000 0.000000 0.000000
vt 0.280000 -0.000000 0.000000
vt -0.000000 0.080000 0.000000
vt 0.280000 0.080000 0.000000
vt 0.000000 0.000000 0.000000
vt 0.200000 0.000000 0.000000
vt 0.000000 0.080000 0.000000
vt 0.200000 0.080000 0.000000
vt -0.000000 0.000000 0.000000
vt 0.200000 -0.000000 0.000000
vt -0.000000 0.080000 0.000000
vt 0.200000 0.080000 0.000000
vt 0.000000 0.000000 0.000000
vt 0.280000 0.000000 0.000000
vt 0.000000 0.080000 0.000000
vt 0.280000 0.080000 0.000000
vt 0.000000 0.000000 0.000000
vt 0.080000 0.000000 0.000000
vt 0.000000 0.080000 0.000000
vt 0.080000 0.080000 0.000000
vt 0.000000 0.000000 0.000000
vt 0.200000 -0.000000 0.000000
vt -0.000000 0.080000 0.000000
vt 0.200000 0.080000 0.000000
vt -0.000000 0.000000 0.000000
vt 0.200000 0.000000 0.000000
vt -0.000000 0.080000 0.000000
vt 0.200000 0.080000 0.000000
vt 0.000000 0.000000 0.000000
vt 0.200000 0.000000 0.000000
vt 0.000000 0.080000 0.000000
vt 0.200000 0.080000 0.000000
vt -0.000000 0.000000 0.000000
vt 0.120000 0.000000 0.000000
vt -0.000000 0.080000 0.000000
vt 0.120000 0.080000 0.000000
vt 0.000000 0.000000 0.000000
vt 0.400000 0.000000 0.000000
vt 0.000000 0.080000 0.000000
vt 0.400000 0.080000 0.000000
vt 0.000000 0.000000 0.000000
vt 0.200000 0.000000 0.000000
vt 0.000000 0.080000 0.000000
vt 0.200000 0.080000 0.000000
vt 0.000000 0.000000 0.000000
vt 0.120000 -0.000000 0.000000
vt 0.000000 0.080000 0.000000
vt 0.120000 0.080000 0.000000
vt -0.000000 0.000000 0.000000
vt 0.200000 0.000000 0.000000
vt -0.000000 0.080000 0.000000
vt 0.200000 0.080000 0.000000
vt -0.040000 -0.000000 0.000000
vt 0.160000 0.000000 0.000000
vt -0.040000 0.080000 0.000000
vt 0.160000 0.080000 0.000000
vt 0.000000 0.000000 0.000000
vt 0.400000 0.000000 0.000000
vt -0.000000 0.080000 0.000000
vt 0.400000 0.080000 0.000000
vt -0.000000 0.000000 0.000000
vt 0.080000 0.000000 0.000000
vt -0.000000 0.080000 0.000000
vt 0.080000 0.080000 0.000000
vt -0.040000 -0.000000 0.000000
vt 0.360000 -0.000000 0.000000
vt -0.040000 0.080000 0.000000
vt 0.360000 0.080000 0.000000
vt -0.000000 0.000000 0.000000
vt 0.200000 0.000000 0.000000
vt -0.000000 0.080000 0.000000
vt 0.200000 0.080000 0.000000
vt 0.000000 0.000000 0.000000
vt 0.280000 0.000000 0.000000
vt -0.000000 0.080000 0.000000
vt 0.280000 0.080000 0.000000
vt -0.000000 0.000000 0.000000
vt 0.080000 -0.000000 0.000000
vt -0.000000 0.080000 0.000000
vt 0.080000 0.080000 0.000000
vt 0.000000 0.000000 0.000000
vt 0.200000 0.000000 0.000000
vt -0.000000 0.080000 0.000000
vt 0.200000 0.080000 0.000000
vt -0.040000 -0.000000 0.000000
vt 0.080000 0.000000 0.000000
vt -0.040000 0.080000 0.000000
vt 0.080000 0.080000 0.000000
vn -0.000000 -1.000000 -0.000000
vn -0.000000 -1.000000 -0.000000
vn -0.000000 -1.000000 -0.000000
vn -0.000000 -1.000000 -0.000000
vn -0.000000 0.000000 -1.000000
vn -0.000000 0.000000 -1.000000
vn -0.000000 0.000000 -1.000000
vn -0.000000 0.000000 -1.000000
vn -0.000000 0.000000 -1.000000
vn -0.000000 0.000000 -1.000000
vn -0.000000 0.000000 -1.000000
vn -0.000000 0.000000 -1.000000
vn -0.000000 0.000000 -1.000000
vn -0.000000 0.000000 -1.000000
vn -0.000000 0.000000 -1.000000
vn -0.000000 0.000000 -1.000000
vn -0.000000 0.000000 -1.000000
vn -0.000000 0.000000 -1.000000
vn -0.000000 0.000000 -1.000000
vn -0.000000 0.000000 -1.000000
vn -0.000000 0.000000 -1.000000
vn -0.000000 0.000000 -1.000000
vn -0.000000 0.000000 -1.000000
vn -0.000000 0.000000 -1.000000
vn -0.000000 0.000000 -1.000000
vn -0.000000 0.000000 -1.000000
vn -0.000000 0.000000 -1.000000
vn -0.000000 0.000000 -1.000000
vn -0.000000 0.000000 -1.000000
vn -0.000000 0.000000 -1.000000
vn -0.000000 0.000000 -1.000000
vn -0.000000 0.000000 -1.000000
vn -0.000000 0.000000 -1.000000
vn -0.000000 0.000000 -1.000000
vn -0.000000 0.000000 -1.000000
vn -0.000000 0.000000 -1.000000
vn -0.000000 0.000000 -1.000000
vn -0.000000 0.000000 -1.000000
vn -0.000000 0.000000 -1.000000
vn -0.000000 0.000000 -1.000000
vn -0.000000 1.000000 0.000000
vn -0.000000 1.000000 0.000000
vn -0.000000 1.000000 0.000000
vn -0.000000 1.000000 0.000000
vn 0.000000 -0.000000 1.000000
vn 0.000000 -0.000000 1.000000
vn 0.000000 -0.000000 1.000000
vn 0.000000 -0.000000 1.000000
vn 0.000000 -0.000000 1.000000
vn 0.000000 -0.000000 1.000000
vn 0.000000 -0.000000 1.000000
vn 0.000000 -0.000000 1.000000
vn 0.000000 -0.000000 1.000000
vn 0.000000 -0.000000 1.000000
vn 0.000000 -0.000000 1.000000
vn 0.000000 -0.000000 1.000000
vn 0.000000 -0.000000 1.000000
vn 0.000000 -0.000000 1.000000
vn 0.000000 -0.000000 1.000000
vn 0.000000 -0.000000 1.000000
vn 0.000000 -0.000000 1.000000
vn 0.000000 -0.000000 1.000000
vn 0.000000 -0.000000 1.000000
vn 0.000000 -0.000000 1.000000
vn 0.000000 -0.000000 1.000000
vn 0.000000 -0.000000 1.000000
vn 0.000000 -0.000000 1.000000
vn 0.000000 -0.000000 1.000000
vn 0.000000 -0.000000 1.000000
vn 0.000000 -0.000000 1.000000
vn 0.000000 -0.000000 1.000000
vn 0.000000 -0.000000 1.000000
vn 0.000000 -0.000000 1.000000
vn 0.000000 -0.000000 1.000000
vn 0.000000 -0.000000 1.000000
vn 0.000000 -0.000000 1.000000
vn 0.000000 -0.000000 1.000000
vn 0.000000 -0.000000 1.000000
vn 0.000000 -0.000000 1.000000
vn 0.000000 -0.000000 1.000000
vn -1.000000 -0.000000 -0.000000
vn -1.000000 -0.000000 -0.000000
vn -1.000000 -0.000000 -0.000000
vn -1.000000 -0.000000 -0.000000
vn 0.000000 -1.000000 -0.000000
vn 0.000000 -1.000000 -0.000000
vn 0.000000 -1.000000 -0.000000
vn 0.000000 -1.000000 -0.000000
vn -0.000000 1.000000 0.000000
vn -0.000000 1.000000 0.000000
vn -0.000000 1.000000 0.000000
vn -0.000000 1.000000 0.000000
vn -1.000000 -0.000000 -0.000000
vn -1.000000 -0.000000 -0.000000
vn -1.000000 -0.000000 -0.000000
vn -1.000000 -0.000000 -0.000000
vn 1.000000 0.000000 0.000000
vn 1.000000 0.000000 0.000000
vn 1.000000 0.000000 0.000000
vn 1.000000 0.000000 0.000000
vn -0.000000 1.000000 0.000000
vn -0.000000 1.000000 0.000000
vn -0.000000 1.000000 0.000000
vn -0.000000 1.000000 0.000000
vn -1.000000 -0.000000 -0.000000
vn -1.000000 -0.000000 -0.000000
vn -1.000000 -0.000000 -0.000000
vn -1.000000 -0.000000 -0.000000
vn -1.000000 -0.000000 -0.000000
vn -1.000000 -0.000000 -0.000000
vn -1.000000 -0.000000 -0.000000
vn -1.000000 -0.000000 -0.000000
vn 0.000000 -1.000000 -0.000000
vn 0.000000 -1.000000 -0.000000
vn 0.000000 -1.000000 -0.000000
vn 0.000000 -1.000000 -0.000000
vn -1.000000 -0.000000 -0.000000
vn -1.000000 -0.000000 -0.000000
vn -1.000000 -0.000000 -0.000000
vn -1.000000 -0.000000 -0.000000
vn -0.000000 1.000000 0.000000
vn -0.000000 1.000000 0.000000
vn -0.000000 1.000000 0.000000
vn -0.000000 1.000000 0.000000
vn -1.000000 -0.000000 -0.000000
vn -1.000000 -0.000000 -0.000000
vn -1.000000 -0.000000 -0.000000
vn -1.000000 -0.000000 -0.000000
vn -0.000000 1.000000 0.000000
vn -0.000000 1.000000 0.000000
vn -0.000000 1.000000 0.000000
vn -0.000000 1.000000 0.000000
vn 1.000000 0.000000 0.000000
vn 1.000000 0.000000 0.000000
vn 1.000000 0.000000 0.000000
vn 1.000000 0.000000 0.000000
vn -0.000000 1.000000 0.000000
vn -0.000000 1.000000 0.000000
vn -0.000000 1.000000 0.000000
vn -0.000000 1.000000 0.000000
vn 1.000000 0.000000 0.000000
vn 1.000000 0.000000 0.000000
vn 1.000000 0.000000 0.000000
vn 1.000000 0.000000 0.000000
vn 0.000000 -1.000000 -0.000000
vn 0.000000 -1.000000 -0.000000
vn 0.000000 -1.000000 -0.000000
vn 0.000000 -1.000000 -0.000000
vn -1.000000 -0.000000 -0.000000
vn -1.000000 -0.000000 -0.000000
vn -1.000000 -0.000000 -0.000000
vn -1.000000 -0.000000 -0.000000
vn 0.000000 -1.000000 -0.000000
vn 0.000000 -1.000000 -0.000000
vn 0.000000 -1.000000 -0.000000
vn 0.000000 -1.000000 -0.000000
vn -1.000000 -0.000000 -0.000000
vn -1.000000 -0.000000 -0.000000
vn -1.000000 -0.000000 -0.000000
vn -1.000000 -0.000000 -0.000000
vn 0.000000 -1.000000 -0.000000
vn 0.000000 -1.000000 -0.000000
vn 0.000000 -1.000000 -0.000000
vn 0.000000 -1.000000 -0.000000
vn 1.000000 0.000000 0.000000
vn 1.000000 0.000000 0.000000
vn 1.000000 0.000000 0.000000
vn 1.000000 0.000000 0.000000
vn 0.000000 -1.000000 -0.000000
vn 0.000000 -1.000000 -0.000000
vn 0.000000 -1.000000 -0.000000
vn 0.000000 -1.000000 -0.000000
vn 1.000000 0.000000 0.000000
vn 1.000000 0.000000 0.000000
vn 1.000000 0.000000 0.000000
vn 1.000000 0.000000 0.000000
vn -0.000000 1.000000 0.000000
vn -0.000000 1.000000 0.000000
vn -0.000000 1.000000 0.000000
vn -0.000000 1.000000 0.000000
vn 1.000000 0.000000 0.000000
vn 1.000000 0.000000 0.000000
vn 1.000000 0.000000 0.000000
vn 1.000000 0.000000 0.000000
vn -1.000000 -0.000000 -0.000000
vn -1.000000 -0.000000 -0.000000
vn -1.000000 -0.000000 -0.000000
vn -1.000000 -0.000000 -0.000000
vn -0.000000 1.000000 0.000000
vn -0.000000 1.000000 0.000000
vn -0.000000 1.000000 0.000000
vn -0.000000 1.000000 0.000000
vn 1.000000 0.000000 0.000000
vn 1.000000 0.000000 0.000000
vn 1.000000 0.000000 0.000000
vn 1.000000 0.000000 0.000000
vn 0.000000 -1.000000 -0.000000
vn 0.000000 -1.000000 -0.000000
vn 0.000000 -1.000000 -0.000000
vn 0.000000 -1.000000 -0.000000
vn -1.000000 -0.000000 -0.000000
vn -1.000000 -0.000000 -0.000000
vn -1.000000 -0.000000 -0.000000
vn -1.000000 -0.000000 -0.000000
vn -0.000000 1.000000 0.000000
vn -0.000000 1.000000 0.000000
vn -0.000000 1.000000 0.000000
vn -0.000000 1.000000 0.000000
vn 1.000000 0.000000 0.000000
vn 1.000000 0.000000 0.000000
vn 1.000000 0.000000 0.000000
vn 1.000000 0.000000 0.000000
vn -0.000000 1.000000 0.000000
vn -0.000000 1.000000 0.000000
vn -0.000000 1.000000 0.000000
vn -0.000000 1.000000 0.000000
f 258/769/769 259/770/770 257/771/771
f 257/771/771 259/770/770 260/772/772
f 261/773/773 279/774/774 258/775/775
f 258/775/775 279/774/774 280/776/776
f 258/775/775 280/776/776 283/777/777
f 283/777/777 280/776/776 281/778/778
f 283/777/777 281/778/778 282/779/779
f 262/780/780 277/781/781 261/773/773
f 261/773/773 277/781/781 278/782/782
f 261/773/773 278/782/782 279/774/774
f 262/780/780 263/783/783 277/781/781
f 277/781/781 263/783/783 276/784/784
f 276/784/784 263/783/783 264/785/785
f 276/784/784 264/785/785 275/786/786
f 275/786/786 264/785/785 274/787/787
f 274/787/787 264/785/785 265/788/788
f 274/787/787 265/788/788 266/789/789
f 274/787/787 266/789/789 273/790/790
f 273/790/790 266/789/789 267/791/791
f 273/790/790 267/791/791 272/792/792
f 272/792/792 267/791/791 271/793/793
f 271/793/793 267/791/791 268/794/794
f 271/793/793 268/794/794 269/795/795
f 269/795/795 270/796/796 271/793/793
f 258/775/775 283/777/777 259/797/797
f 259/797/797 283/777/777 284/798/798
f 259/797/797 284/798/798 285/799/799
f 286/800/800 289/801/801 285/799/799
f 285/799/799 289/801/801 290/802/802
f 285/799/799 290/802/802 294/803/803
f 294/803/803 290/802/802 291/804/804
f 294/803/803 291/804/804 293/805/805
f 293/805/805 291/804/804 292/806/806
f 286/800/800 287/807/807 289/801/801
f 289/801/801 287/807/807 288/808/808
f 294/803/803 259/797/797 285/799/799
f 295/809/809 296/810/810 279/811/811
f 279/811/811 296/810/810 280/812/812
f 257/813/813 295/814/814 297/815/815
f 297/815/815 295/814/814 312/816/816
f 297/815/815 312/816/816 313/817/817
f 260/818/818 309/819/819 257/813/813
f 257/813/813 309/819/819 296/820/820
f 257/813/813 296/820/820 295/814/814
f 298/821/821 307/822/822 260/818/818
f 260/818/818 307/822/822 308/823/823
f 260/818/818 308/823/823 309/819/819
f 299/824/824 301/825/825 298/821/821
f 298/821/821 301/825/825 302/826/826
f 298/821/821 302/826/826 307/822/822
f 307/822/822 302/826/826 303/827/827
f 307/822/822 303/827/827 306/828/828
f 306/828/828 303/827/827 305/829/829
f 305/829/829 303/827/827 304/830/830
f 299/824/824 300/831/831 301/825/825
f 310/832/832 311/833/833 309/819/819
f 309/819/819 311/833/833 296/820/820
f 297/815/815 313/817/817 328/834/834
f 328/834/834 313/817/817 314/835/835
f 328/834/834 314/835/835 327/836/836
f 327/836/836 314/835/835 326/837/837
f 326/837/837 314/835/835 315/838/838
f 326/837/837 315/838/838 316/839/839
f 326/837/837 316/839/839 325/840/840
f 325/840/840 316/839/839 317/841/841
f 325/840/840 317/841/841 324/842/842
f 324/842/842 317/841/841 323/843/843
f 323/843/843 317/841/841 318/844/844
f 323/843/843 318/844/844 319/845/845
f 320/846/846 321/847/847 319/845/845
f 319/845/845 321/847/847 322/848/848
f 319/845/845 322/848/848 323/843/843
f 302/849/849 301/850/850 290/851/851
f 290/851/851 301/850/850 291/852/852
f 301/853/853 300/854/854 291/855/855
f 291/855/855 300/854/854 292/856/856
f 309/857/857 308/858/858 283/859/859
f 283/859/859 308/858/858 284/860/860
f 308/861/861 307/862/862 284/863/863
f 284/863/863 307/862/862 285/864/864
f 298/865/865 260/866/866 294/867/867
f 294/867/867 260/866/866 259/868/868
f 299/869/869 298/870/870 293/871/871
f 293/871/871 298/870/870 294/872/872
f 300/873/873 299/874/874 292/875/875
f 292/875/875 299/874/874 293/876/876
f 261/877/877 258/878/878 297/879/879
f 297/879/879 258/878/878 257/880/880
f 262/881/881 261/882/882 328/883/883
f 328/883/883 261/882/882 297/884/884
f 263/885/885 262/886/886 327/887/887
f 327/887/887 262/886/886 328/888/888
f 264/889/889 263/890/890 326/891/891
f 326/891/891 263/890/890 327/892/892
f 265/893/893 264/894/894 325/895/895
f 325/895/895 264/894/894 326/896/896
f 266/897/897 265/898/898 324/899/899
f 324/899/899 265/898/898 325/900/900
f 267/901/901 266/902/902 323/903/903
f 323/903/903 266/902/902 324/904/904
f 268/905/905 267/906/906 322/907/907
f 322/907/907 267/906/906 323/908/908
f 269/909/909 268/910/910 321/911/911
f 321/911/911 268/910/910 322/912/912
f 270/913/913 269/914/914 320/915/915
f 320/915/915 269/914/914 321/916/916
f 271/917/917 270/918/918 319/919/919
f 319/919/919 270/918/918 320/920/920
f 272/921/921 271/922/922 318/923/923
f 318/923/923 271/922/922 319/924/924
f 273/925/925 272/926/926 317/927/927
f 317/927/927 272/926/926 318/928/928
f 274/929/929 273/930/930 316/931/931
f 316/931/931 273/930/930 317/932/932
f 275/933/933 274/934/934 315/935/935
f 315/935/935 274/934/934 316/936/936
f 276/937/937 275/938/938 314/939/939
f 314/939/939 275/938/938 315/940/940
f 277/941/941 276/942/942 313/943/943
f 313/943/943 276/942/942 314/944/944
f 278/945/945 277/946/946 312/947/947
f 312/947/947 277/946/946 313/948/948
f 279/949/949 278/950/950 295/951/951
f 295/951/951 278/950/950 312/952/952
f 281/953/953 280/954/954 311/955/955
f 311/955/955 280/954/954 296/956/956
f 282/957/957 281/958/958 310/959/959
f 310/959/959 281/958/958 311/960/960
f 283/961/961 282/962/962 309/963/963
f 309/963/963 282/962/962 310/964/964
f 286/965/965 285/966/966 306/967/967
f 306/967/967 285/966/966 307/968/968
f 287/969/969 286/970/970 305/971/971
f 305/971/971 286/970/970 306/972/972
f 288/973/973 287/974/974 304/975/975
f 304/975/975 287/974/974 305/976/976
f 289/977/977 288/978/978 303/979/979
f 303/979/979 288/978/978 304/980/980
f 290/981/981 289/982/982 302/983/983
f 302/983/983 289/982/982 303/984/984
# 328 vertices
# 984 texture params
# 984 normals
# 648 facets

# 2 groups
