# WaveFront *.obj file (generated by Autodesk ATF)

mtllib Medium Maze Map 3 (Fig 15. From Paper) v2.mtl

g Body1

v 0.085536 -0.356628 0.000000
v 0.085536 0.180046 0.000000
v 0.085536 0.180046 0.075000
v 0.085536 -0.356628 0.075000
v 0.158227 -0.356628 0.000000
v 0.158227 -0.356628 0.075000
v 0.158227 -0.283875 0.000000
v 0.158227 -0.283875 0.075000
v 0.224963 -0.283875 0.000000
v 0.224963 -0.283875 0.075000
v 0.224963 0.180046 0.000000
v 0.224963 0.180046 0.075000
v 0.689197 0.321453 0.000000
v 0.689197 -0.826000 0.000000
v 0.689197 -0.826000 0.075000
v 0.689197 0.321453 0.075000
v 0.639590 0.321453 0.000000
v 0.639590 0.321453 0.075000
v 0.639590 0.336453 0.000000
v 0.639590 0.336453 0.075000
v 0.689197 0.336453 0.000000
v 0.689197 0.336453 0.075000
v 0.689197 0.710318 0.000000
v 0.689197 0.710318 0.075000
v 0.085536 0.710318 0.000000
v 0.085536 0.710318 0.075000
v 0.085536 0.195046 0.000000
v 0.085536 0.195046 0.075000
v 0.224963 0.195046 0.000000
v 0.224963 0.195046 0.075000
v 0.224963 0.336453 0.000000
v 0.224963 0.336453 0.075000
v 0.338335 0.336453 0.000000
v 0.338335 0.336453 0.075000
v 0.338335 0.321453 0.000000
v 0.338335 0.321453 0.075000
v 0.239963 0.321453 0.000000
v 0.239963 0.321453 0.075000
v 0.239963 -0.298875 0.000000
v 0.239963 -0.298875 0.075000
v 0.173227 -0.298875 0.000000
v 0.173227 -0.298875 0.075000
v 0.173227 -0.371628 0.000000
v 0.173227 -0.371628 0.075000
v -0.214082 -0.371628 0.000000
v -0.214082 -0.371628 0.075000
v -0.214082 -0.356628 0.000000
v -0.214082 -0.356628 0.075000
v 0.070536 -0.356628 0.000000
v 0.070536 -0.356628 0.075000
v 0.070536 0.180046 0.000000
v 0.070536 0.180046 0.075000
v -0.214082 0.180046 0.000000
v -0.214082 0.180046 0.075000
v -0.214082 0.195046 0.000000
v -0.214082 0.195046 0.075000
v 0.070536 0.195046 0.000000
v 0.070536 0.195046 0.075000
v 0.070536 0.710318 0.000000
v 0.070536 0.710318 0.075000
v -0.503884 0.710318 0.000000
v -0.503884 0.710318 0.075000
v -0.503884 0.380729 0.000000
v -0.503884 0.380729 0.075000
v -0.568238 0.380729 0.000000
v -0.568238 0.380729 0.075000
v -0.568238 0.295580 0.000000
v -0.568238 0.295580 0.075000
v -0.598238 0.295580 0.000000
v -0.598238 0.295580 0.075000
v -0.598238 0.395729 0.000000
v -0.598238 0.395729 0.075000
v -0.518884 0.395729 0.000000
v -0.518884 0.395729 0.075000
v -0.518884 0.710318 0.000000
v -0.518884 0.710318 0.075000
v -0.826911 0.710318 0.000000
v -0.826911 0.710318 0.075000
v -0.826911 -0.202514 0.000000
v -0.826911 -0.202514 0.075000
v -0.659203 -0.202514 0.000000
v -0.659203 -0.202514 0.075000
v -0.659203 -0.372741 0.000000
v -0.659203 -0.372741 0.075000
v -0.826911 -0.372741 0.000000
v -0.826911 -0.372741 0.075000
v -0.826911 -0.826000 0.000000
v -0.826911 -0.826000 0.075000
v 0.068582 -0.826000 0.000000
v 0.068582 -0.826000 0.075000
v 0.068582 -0.679535 0.000000
v 0.068582 -0.679535 0.075000
v -0.434518 -0.679535 0.000000
v -0.434518 -0.679535 0.075000
v -0.434518 -0.664535 0.000000
v -0.434518 -0.664535 0.075000
v 0.172714 -0.664535 0.000000
v 0.172714 -0.664535 0.075000
v 0.172714 -0.742612 0.000000
v 0.172714 -0.742612 0.075000
v 0.465773 -0.742612 0.000000
v 0.465773 -0.742612 0.075000
v 0.465773 -0.757612 0.000000
v 0.465773 -0.757612 0.075000
v 0.157714 -0.757612 0.000000
v 0.157714 -0.757612 0.075000
v 0.157714 -0.679535 0.000000
v 0.157714 -0.679535 0.075000
v 0.083582 -0.679535 0.000000
v 0.083582 -0.679535 0.075000
v 0.083582 -0.826000 0.000000
v 0.083582 -0.826000 0.075000
v -0.826911 -0.357741 0.000000
v -0.826911 -0.217514 0.000000
v -0.826911 -0.217514 0.075000
v -0.826911 -0.357741 0.075000
v -0.674203 -0.357741 0.000000
v -0.674203 -0.357741 0.075000
v -0.674203 -0.217514 0.000000
v -0.674203 -0.217514 0.075000
v -0.856911 -0.856000 0.000000
v 0.719197 -0.856000 0.000000
v 0.719197 -0.856000 0.075000
v -0.856911 -0.856000 0.075000
v -0.856911 0.740318 0.000000
v -0.856911 0.740318 0.075000
v 0.719197 0.740318 0.000000
v 0.719197 0.740318 0.075000
vt 0.000000 0.000000 0.000000
vt 0.536673 0.000000 0.000000
vt 0.000000 0.075000 0.000000
vt 0.536673 0.075000 0.000000
vt 0.000000 0.000000 0.000000
vt 0.072691 0.000000 0.000000
vt 0.000000 0.075000 0.000000
vt 0.072691 0.075000 0.000000
vt -0.000000 0.000000 0.000000
vt 0.072753 0.000000 0.000000
vt -0.000000 0.075000 0.000000
vt 0.072753 0.075000 0.000000
vt -0.000000 0.000000 0.000000
vt 0.066736 0.000000 0.000000
vt -0.000000 0.075000 0.000000
vt 0.066736 0.075000 0.000000
vt 0.000000 0.000000 0.000000
vt 0.463920 0.000000 0.000000
vt 0.000000 0.075000 0.000000
vt 0.463920 0.075000 0.000000
vt 0.000000 0.000000 0.000000
vt 0.139427 0.000000 0.000000
vt -0.000000 0.075000 0.000000
vt 0.139427 0.075000 0.000000
vt -0.000000 0.000000 0.000000
vt 1.147453 0.000000 0.000000
vt -0.000000 0.075000 0.000000
vt 1.147453 0.075000 0.000000
vt 0.000000 0.000000 0.000000
vt 0.049607 0.000000 0.000000
vt 0.000000 0.075000 0.000000
vt 0.049607 0.075000 0.000000
vt -0.000000 0.000000 0.000000
vt 0.015000 0.000000 0.000000
vt -0.000000 0.075000 0.000000
vt 0.015000 0.075000 0.000000
vt -0.000000 0.000000 0.000000
vt 0.049607 0.000000 0.000000
vt -0.000000 0.075000 0.000000
vt 0.049607 0.075000 0.000000
vt -0.000000 0.000000 0.000000
vt 0.373865 0.000000 0.000000
vt -0.000000 0.075000 0.000000
vt 0.373865 0.075000 0.000000
vt 0.000000 0.000000 0.000000
vt 0.603661 0.000000 0.000000
vt 0.000000 0.075000 0.000000
vt 0.603661 0.075000 0.000000
vt -0.000000 0.000000 0.000000
vt 0.515272 0.000000 0.000000
vt 0.000000 0.075000 0.000000
vt 0.515272 0.075000 0.000000
vt -0.000000 0.000000 0.000000
vt 0.139427 0.000000 0.000000
vt -0.000000 0.075000 0.000000
vt 0.139427 0.075000 0.000000
vt -0.000000 0.000000 0.000000
vt 0.141407 0.000000 0.000000
vt -0.000000 0.075000 0.000000
vt 0.141407 0.075000 0.000000
vt -0.000000 0.000000 0.000000
vt 0.113372 0.000000 0.000000
vt -0.000000 0.075000 0.000000
vt 0.113372 0.075000 0.000000
vt 0.000000 0.000000 0.000000
vt 0.015000 0.000000 0.000000
vt 0.000000 0.075000 0.000000
vt 0.015000 0.075000 0.000000
vt 0.000000 0.000000 0.000000
vt 0.098372 0.000000 0.000000
vt 0.000000 0.075000 0.000000
vt 0.098372 0.075000 0.000000
vt -0.000000 0.000000 0.000000
vt 0.620328 0.000000 0.000000
vt -0.000000 0.075000 0.000000
vt 0.620328 0.075000 0.000000
vt 0.000000 0.000000 0.000000
vt 0.066736 0.000000 0.000000
vt 0.000000 0.075000 0.000000
vt 0.066736 0.075000 0.000000
vt 0.000000 0.000000 0.000000
vt 0.072753 0.000000 0.000000
vt 0.000000 0.075000 0.000000
vt 0.072753 0.075000 0.000000
vt 0.000000 0.000000 0.000000
vt 0.387310 0.000000 0.000000
vt 0.000000 0.075000 0.000000
vt 0.387310 0.075000 0.000000
vt -0.000000 0.000000 0.000000
vt 0.015000 0.000000 0.000000
vt -0.000000 0.075000 0.000000
vt 0.015000 0.075000 0.000000
vt 0.000000 0.000000 0.000000
vt 0.284618 0.000000 0.000000
vt -0.000000 0.075000 0.000000
vt 0.284618 0.075000 0.000000
vt 0.000000 0.000000 0.000000
vt 0.536673 0.000000 0.000000
vt -0.000000 0.075000 0.000000
vt 0.536673 0.075000 0.000000
vt 0.000000 0.000000 0.000000
vt 0.284618 0.000000 0.000000
vt 0.000000 0.075000 0.000000
vt 0.284618 0.075000 0.000000
vt -0.000000 0.000000 0.000000
vt 0.015000 0.000000 0.000000
vt -0.000000 0.075000 0.000000
vt 0.015000 0.075000 0.000000
vt -0.000000 0.000000 0.000000
vt 0.284618 0.000000 0.000000
vt -0.000000 0.075000 0.000000
vt 0.284618 0.075000 0.000000
vt 0.000000 0.000000 0.000000
vt 0.515272 0.000000 0.000000
vt 0.000000 0.075000 0.000000
vt 0.515272 0.075000 0.000000
vt -0.000000 0.000000 0.000000
vt 0.574420 0.000000 0.000000
vt -0.000000 0.075000 0.000000
vt 0.574420 0.075000 0.000000
vt 0.000000 0.000000 0.000000
vt 0.329589 0.000000 0.000000
vt 0.000000 0.075000 0.000000
vt 0.329589 0.075000 0.000000
vt 0.000000 0.000000 0.000000
vt 0.064354 0.000000 0.000000
vt 0.000000 0.075000 0.000000
vt 0.064354 0.075000 0.000000
vt 0.000000 0.000000 0.000000
vt 0.085149 0.000000 0.000000
vt 0.000000 0.075000 0.000000
vt 0.085149 0.075000 0.000000
vt 0.000000 0.000000 0.000000
vt 0.030000 0.000000 0.000000
vt 0.000000 0.075000 0.000000
vt 0.030000 0.075000 0.000000
vt -0.000000 0.000000 0.000000
vt 0.100149 0.000000 0.000000
vt -0.000000 0.075000 0.000000
vt 0.100149 0.075000 0.000000
vt -0.000000 0.000000 0.000000
vt 0.079354 0.000000 0.000000
vt -0.000000 0.075000 0.000000
vt 0.079354 0.075000 0.000000
vt 0.000000 0.000000 0.000000
vt 0.314589 0.000000 0.000000
vt 0.000000 0.075000 0.000000
vt 0.314589 0.075000 0.000000
vt 0.000000 0.000000 0.000000
vt 0.308028 0.000000 0.000000
vt 0.000000 0.075000 0.000000
vt 0.308028 0.075000 0.000000
vt 0.000000 0.000000 0.000000
vt 0.912832 0.000000 0.000000
vt 0.000000 0.075000 0.000000
vt 0.912832 0.075000 0.000000
vt -0.000000 0.000000 0.000000
vt 0.167709 0.000000 0.000000
vt -0.000000 0.075000 0.000000
vt 0.167709 0.075000 0.000000
vt 0.000000 0.000000 0.000000
vt 0.170227 0.000000 0.000000
vt 0.000000 0.075000 0.000000
vt 0.170227 0.075000 0.000000
vt 0.000000 0.000000 0.000000
vt 0.167709 0.000000 0.000000
vt 0.000000 0.075000 0.000000
vt 0.167709 0.075000 0.000000
vt 0.000000 0.000000 0.000000
vt 0.453259 0.000000 0.000000
vt 0.000000 0.075000 0.000000
vt 0.453259 0.075000 0.000000
vt -0.000000 0.000000 0.000000
vt 0.895493 0.000000 0.000000
vt -0.000000 0.075000 0.000000
vt 0.895493 0.075000 0.000000
vt 0.000000 0.000000 0.000000
vt 0.146466 0.000000 0.000000
vt 0.000000 0.075000 0.000000
vt 0.146466 0.075000 0.000000
vt 0.000000 0.000000 0.000000
vt 0.503100 0.000000 0.000000
vt 0.000000 0.075000 0.000000
vt 0.503100 0.075000 0.000000
vt 0.000000 0.000000 0.000000
vt 0.015000 0.000000 0.000000
vt 0.000000 0.075000 0.000000
vt 0.015000 0.075000 0.000000
vt 0.000000 0.000000 0.000000
vt 0.607232 0.000000 0.000000
vt -0.000000 0.075000 0.000000
vt 0.607232 0.075000 0.000000
vt 0.000000 0.000000 0.000000
vt 0.078077 0.000000 0.000000
vt 0.000000 0.075000 0.000000
vt 0.078077 0.075000 0.000000
vt 0.000000 0.000000 0.000000
vt 0.293059 0.000000 0.000000
vt 0.000000 0.075000 0.000000
vt 0.293059 0.075000 0.000000
vt 0.000000 0.000000 0.000000
vt 0.015000 0.000000 0.000000
vt 0.000000 0.075000 0.000000
vt 0.015000 0.075000 0.000000
vt 0.000000 0.000000 0.000000
vt 0.308059 0.000000 0.000000
vt -0.000000 0.075000 0.000000
vt 0.308059 0.075000 0.000000
vt 0.000000 0.000000 0.000000
vt 0.078077 0.000000 0.000000
vt 0.000000 0.075000 0.000000
vt 0.078077 0.075000 0.000000
vt 0.000000 0.000000 0.000000
vt 0.074132 0.000000 0.000000
vt -0.000000 0.075000 0.000000
vt 0.074132 0.075000 0.000000
vt 0.000000 0.000000 0.000000
vt 0.146466 0.000000 0.000000
vt 0.000000 0.075000 0.000000
vt 0.146466 0.075000 0.000000
vt -0.000000 0.000000 0.000000
vt 0.605615 0.000000 0.000000
vt -0.000000 0.075000 0.000000
vt 0.605615 0.075000 0.000000
vt 0.000000 0.000000 0.000000
vt 0.140227 0.000000 0.000000
vt 0.000000 0.075000 0.000000
vt 0.140227 0.075000 0.000000
vt 0.000000 0.000000 0.000000
vt 0.152709 0.000000 0.000000
vt 0.000000 0.075000 0.000000
vt 0.152709 0.075000 0.000000
vt 0.000000 0.000000 0.000000
vt 0.140227 0.000000 0.000000
vt 0.000000 0.075000 0.000000
vt 0.140227 0.075000 0.000000
vt 0.000000 0.000000 0.000000
vt 0.152709 0.000000 0.000000
vt 0.000000 0.075000 0.000000
vt 0.152709 0.075000 0.000000
vt 0.000000 0.000000 0.000000
vt 1.576108 0.000000 0.000000
vt 0.000000 0.075000 0.000000
vt 1.576108 0.075000 0.000000
vt 0.000000 0.000000 0.000000
vt 1.596318 0.000000 0.000000
vt 0.000000 0.075000 0.000000
vt 1.596318 0.075000 0.000000
vt 0.000000 0.000000 0.000000
vt 1.576108 0.000000 0.000000
vt 0.000000 0.075000 0.000000
vt 1.576108 0.075000 0.000000
vt 0.000000 0.000000 0.000000
vt 1.596318 0.000000 0.000000
vt 0.000000 0.075000 0.000000
vt 1.596318 0.075000 0.000000
vt -0.605345 -0.159673 0.000000
vt -0.758054 -0.144673 0.000000
vt -0.758054 -0.159673 0.000000
vt -0.788054 -0.798159 0.000000
vt -0.758054 -0.299900 0.000000
vt -0.758054 -0.314900 0.000000
vt -0.605345 -0.299900 0.000000
vt -0.590345 -0.314900 0.000000
vt -0.590345 -0.144673 0.000000
vt 0.758054 0.379294 0.000000
vt 0.758054 -0.768159 0.000000
vt 0.788054 -0.798159 0.000000
vt 0.152439 -0.768159 0.000000
vt 0.137439 -0.768159 0.000000
vt 0.137439 -0.621693 0.000000
vt 0.152439 -0.621693 0.000000
vt 0.241571 -0.606693 0.000000
vt 0.226571 -0.621693 0.000000
vt 0.241571 -0.684770 0.000000
vt 0.226571 -0.699770 0.000000
vt 0.534630 -0.699770 0.000000
vt 0.534630 -0.684770 0.000000
vt -0.365660 -0.606693 0.000000
vt -0.365660 -0.621693 0.000000
vt -0.758054 -0.768159 0.000000
vt -0.788054 0.798159 0.000000
vt -0.758054 0.768159 0.000000
vt -0.450026 0.768159 0.000000
vt -0.435026 0.768159 0.000000
vt -0.450026 0.453570 0.000000
vt -0.435026 0.438570 0.000000
vt -0.499380 0.438570 0.000000
vt -0.529380 0.453570 0.000000
vt -0.529380 0.353422 0.000000
vt -0.499380 0.353422 0.000000
vt 0.139393 0.768159 0.000000
vt 0.788054 0.798159 0.000000
vt 0.154393 0.768159 0.000000
vt 0.758054 0.768159 0.000000
vt 0.154393 0.252887 0.000000
vt 0.139393 0.252887 0.000000
vt 0.154393 0.237887 0.000000
vt 0.139393 0.237887 0.000000
vt 0.154393 -0.298786 0.000000
vt 0.139393 -0.298786 0.000000
vt 0.242085 -0.313786 0.000000
vt -0.145225 -0.313786 0.000000
vt -0.145225 -0.298786 0.000000
vt -0.145225 0.252887 0.000000
vt -0.145225 0.237887 0.000000
vt 0.227085 -0.298786 0.000000
vt 0.242085 -0.241033 0.000000
vt 0.227085 -0.226033 0.000000
vt 0.293821 -0.226033 0.000000
vt 0.308821 -0.241033 0.000000
vt 0.293821 0.237887 0.000000
vt 0.308821 0.379294 0.000000
vt 0.293821 0.252887 0.000000
vt 0.293821 0.394294 0.000000
vt 0.407192 0.394294 0.000000
vt 0.407192 0.379294 0.000000
vt 0.758054 0.394294 0.000000
vt 0.708447 0.394294 0.000000
vt 0.708447 0.379294 0.000000
vt 0.758054 -0.159673 0.000000
vt 0.758054 -0.144673 0.000000
vt 0.605345 -0.159673 0.000000
vt 0.590345 -0.144673 0.000000
vt 0.590345 -0.314900 0.000000
vt 0.788054 -0.798159 0.000000
vt 0.758054 -0.299900 0.000000
vt 0.758054 -0.314900 0.000000
vt 0.605345 -0.299900 0.000000
vt -0.758054 -0.768159 0.000000
vt -0.788054 -0.798159 0.000000
vt -0.152439 -0.768159 0.000000
vt -0.137439 -0.768159 0.000000
vt -0.152439 -0.621693 0.000000
vt -0.137439 -0.621693 0.000000
vt -0.241571 -0.606693 0.000000
vt 0.365660 -0.606693 0.000000
vt 0.365660 -0.621693 0.000000
vt -0.758054 0.379294 0.000000
vt -0.788054 0.798159 0.000000
vt -0.758054 0.394294 0.000000
vt -0.758054 0.768159 0.000000
vt -0.708447 0.379294 0.000000
vt -0.708447 0.394294 0.000000
vt -0.154393 0.768159 0.000000
vt -0.139393 0.768159 0.000000
vt 0.788054 0.798159 0.000000
vt 0.435026 0.768159 0.000000
vt 0.450026 0.768159 0.000000
vt 0.450026 0.453570 0.000000
vt 0.435026 0.438570 0.000000
vt 0.499380 0.438570 0.000000
vt -0.139393 0.252887 0.000000
vt -0.154393 0.252887 0.000000
vt -0.139393 0.237887 0.000000
vt -0.154393 0.237887 0.000000
vt -0.139393 -0.298786 0.000000
vt -0.154393 -0.298786 0.000000
vt -0.242085 -0.313786 0.000000
vt -0.227085 -0.298786 0.000000
vt -0.242085 -0.241033 0.000000
vt -0.227085 -0.226033 0.000000
vt -0.293821 -0.226033 0.000000
vt -0.293821 0.252887 0.000000
vt -0.293821 0.237887 0.000000
vt -0.308821 0.379294 0.000000
vt -0.308821 -0.241033 0.000000
vt -0.293821 0.394294 0.000000
vt -0.407192 0.394294 0.000000
vt -0.407192 0.379294 0.000000
vt 0.145225 -0.313786 0.000000
vt 0.145225 -0.298786 0.000000
vt 0.145225 0.237887 0.000000
vt 0.145225 0.252887 0.000000
vt 0.499380 0.353422 0.000000
vt 0.529380 0.353422 0.000000
vt 0.529380 0.453570 0.000000
vt 0.758054 0.768159 0.000000
vt 0.758054 -0.768159 0.000000
vt -0.226571 -0.621693 0.000000
vt -0.241571 -0.684770 0.000000
vt -0.226571 -0.699770 0.000000
vt -0.534630 -0.699770 0.000000
vt -0.534630 -0.684770 0.000000
vn 1.000000 0.000000 0.000000
vn 1.000000 0.000000 0.000000
vn 1.000000 0.000000 0.000000
vn 1.000000 0.000000 0.000000
vn 0.000000 1.000000 -0.000000
vn 0.000000 1.000000 -0.000000
vn 0.000000 1.000000 -0.000000
vn 0.000000 1.000000 -0.000000
vn -1.000000 0.000000 0.000000
vn -1.000000 0.000000 0.000000
vn -1.000000 0.000000 0.000000
vn -1.000000 0.000000 0.000000
vn 0.000000 1.000000 0.000000
vn 0.000000 1.000000 0.000000
vn 0.000000 1.000000 0.000000
vn 0.000000 1.000000 0.000000
vn -1.000000 0.000000 0.000000
vn -1.000000 0.000000 0.000000
vn -1.000000 0.000000 0.000000
vn -1.000000 0.000000 0.000000
vn 0.000000 -1.000000 0.000000
vn 0.000000 -1.000000 0.000000
vn 0.000000 -1.000000 0.000000
vn 0.000000 -1.000000 0.000000
vn -1.000000 0.000000 0.000000
vn -1.000000 0.000000 0.000000
vn -1.000000 0.000000 0.000000
vn -1.000000 0.000000 0.000000
vn 0.000000 -1.000000 0.000000
vn 0.000000 -1.000000 0.000000
vn 0.000000 -1.000000 0.000000
vn 0.000000 -1.000000 0.000000
vn -1.000000 0.000000 0.000000
vn -1.000000 0.000000 0.000000
vn -1.000000 0.000000 0.000000
vn -1.000000 0.000000 0.000000
vn 0.000000 1.000000 0.000000
vn 0.000000 1.000000 0.000000
vn 0.000000 1.000000 0.000000
vn 0.000000 1.000000 0.000000
vn -1.000000 0.000000 0.000000
vn -1.000000 0.000000 0.000000
vn -1.000000 0.000000 0.000000
vn -1.000000 0.000000 0.000000
vn 0.000000 -1.000000 0.000000
vn 0.000000 -1.000000 0.000000
vn 0.000000 -1.000000 0.000000
vn 0.000000 -1.000000 0.000000
vn 1.000000 0.000000 0.000000
vn 1.000000 0.000000 0.000000
vn 1.000000 0.000000 0.000000
vn 1.000000 0.000000 0.000000
vn 0.000000 1.000000 0.000000
vn 0.000000 1.000000 0.000000
vn 0.000000 1.000000 0.000000
vn 0.000000 1.000000 0.000000
vn -1.000000 0.000000 0.000000
vn -1.000000 0.000000 0.000000
vn -1.000000 0.000000 0.000000
vn -1.000000 0.000000 0.000000
vn 0.000000 1.000000 0.000000
vn 0.000000 1.000000 0.000000
vn 0.000000 1.000000 0.000000
vn 0.000000 1.000000 0.000000
vn 1.000000 0.000000 -0.000000
vn 1.000000 0.000000 -0.000000
vn 1.000000 0.000000 -0.000000
vn 1.000000 0.000000 -0.000000
vn 0.000000 -1.000000 0.000000
vn 0.000000 -1.000000 0.000000
vn 0.000000 -1.000000 0.000000
vn 0.000000 -1.000000 0.000000
vn 1.000000 0.000000 0.000000
vn 1.000000 0.000000 0.000000
vn 1.000000 0.000000 0.000000
vn 1.000000 0.000000 0.000000
vn 0.000000 -1.000000 0.000000
vn 0.000000 -1.000000 0.000000
vn 0.000000 -1.000000 0.000000
vn 0.000000 -1.000000 0.000000
vn 1.000000 0.000000 0.000000
vn 1.000000 0.000000 0.000000
vn 1.000000 0.000000 0.000000
vn 1.000000 0.000000 0.000000
vn -0.000000 -1.000000 0.000000
vn -0.000000 -1.000000 0.000000
vn -0.000000 -1.000000 0.000000
vn -0.000000 -1.000000 0.000000
vn -1.000000 0.000000 0.000000
vn -1.000000 0.000000 0.000000
vn -1.000000 0.000000 0.000000
vn -1.000000 0.000000 0.000000
vn 0.000000 1.000000 -0.000000
vn 0.000000 1.000000 -0.000000
vn 0.000000 1.000000 -0.000000
vn 0.000000 1.000000 -0.000000
vn -1.000000 0.000000 0.000000
vn -1.000000 0.000000 0.000000
vn -1.000000 0.000000 0.000000
vn -1.000000 0.000000 0.000000
vn 0.000000 -1.000000 0.000000
vn 0.000000 -1.000000 0.000000
vn 0.000000 -1.000000 0.000000
vn 0.000000 -1.000000 0.000000
vn -1.000000 0.000000 0.000000
vn -1.000000 0.000000 0.000000
vn -1.000000 0.000000 0.000000
vn -1.000000 0.000000 0.000000
vn 0.000000 1.000000 0.000000
vn 0.000000 1.000000 0.000000
vn 0.000000 1.000000 0.000000
vn 0.000000 1.000000 0.000000
vn -1.000000 0.000000 0.000000
vn -1.000000 0.000000 0.000000
vn -1.000000 0.000000 0.000000
vn -1.000000 0.000000 0.000000
vn 0.000000 -1.000000 0.000000
vn 0.000000 -1.000000 0.000000
vn 0.000000 -1.000000 0.000000
vn 0.000000 -1.000000 0.000000
vn 1.000000 0.000000 -0.000000
vn 1.000000 0.000000 -0.000000
vn 1.000000 0.000000 -0.000000
vn 1.000000 0.000000 -0.000000
vn 0.000000 -1.000000 0.000000
vn 0.000000 -1.000000 0.000000
vn 0.000000 -1.000000 0.000000
vn 0.000000 -1.000000 0.000000
vn 1.000000 0.000000 -0.000000
vn 1.000000 0.000000 -0.000000
vn 1.000000 0.000000 -0.000000
vn 1.000000 0.000000 -0.000000
vn 0.000000 -1.000000 0.000000
vn 0.000000 -1.000000 0.000000
vn 0.000000 -1.000000 0.000000
vn 0.000000 -1.000000 0.000000
vn -1.000000 0.000000 0.000000
vn -1.000000 0.000000 0.000000
vn -1.000000 0.000000 0.000000
vn -1.000000 0.000000 0.000000
vn 0.000000 1.000000 0.000000
vn 0.000000 1.000000 0.000000
vn 0.000000 1.000000 0.000000
vn 0.000000 1.000000 0.000000
vn -1.000000 0.000000 0.000000
vn -1.000000 0.000000 0.000000
vn -1.000000 0.000000 0.000000
vn -1.000000 0.000000 0.000000
vn 0.000000 -1.000000 0.000000
vn 0.000000 -1.000000 0.000000
vn 0.000000 -1.000000 0.000000
vn 0.000000 -1.000000 0.000000
vn 1.000000 0.000000 -0.000000
vn 1.000000 0.000000 -0.000000
vn 1.000000 0.000000 -0.000000
vn 1.000000 0.000000 -0.000000
vn 0.000000 1.000000 0.000000
vn 0.000000 1.000000 0.000000
vn 0.000000 1.000000 0.000000
vn 0.000000 1.000000 0.000000
vn 1.000000 0.000000 -0.000000
vn 1.000000 0.000000 -0.000000
vn 1.000000 0.000000 -0.000000
vn 1.000000 0.000000 -0.000000
vn 0.000000 -1.000000 0.000000
vn 0.000000 -1.000000 0.000000
vn 0.000000 -1.000000 0.000000
vn 0.000000 -1.000000 0.000000
vn 1.000000 0.000000 -0.000000
vn 1.000000 0.000000 -0.000000
vn 1.000000 0.000000 -0.000000
vn 1.000000 0.000000 -0.000000
vn 0.000000 1.000000 0.000000
vn 0.000000 1.000000 0.000000
vn 0.000000 1.000000 0.000000
vn 0.000000 1.000000 0.000000
vn -1.000000 0.000000 0.000000
vn -1.000000 0.000000 0.000000
vn -1.000000 0.000000 0.000000
vn -1.000000 0.000000 0.000000
vn 0.000000 -1.000000 0.000000
vn 0.000000 -1.000000 0.000000
vn 0.000000 -1.000000 0.000000
vn 0.000000 -1.000000 0.000000
vn -1.000000 0.000000 0.000000
vn -1.000000 0.000000 0.000000
vn -1.000000 0.000000 0.000000
vn -1.000000 0.000000 0.000000
vn 0.000000 1.000000 -0.000000
vn 0.000000 1.000000 -0.000000
vn 0.000000 1.000000 -0.000000
vn 0.000000 1.000000 -0.000000
vn 1.000000 0.000000 0.000000
vn 1.000000 0.000000 0.000000
vn 1.000000 0.000000 0.000000
vn 1.000000 0.000000 0.000000
vn 0.000000 1.000000 -0.000000
vn 0.000000 1.000000 -0.000000
vn 0.000000 1.000000 -0.000000
vn 0.000000 1.000000 -0.000000
vn 1.000000 0.000000 0.000000
vn 1.000000 0.000000 0.000000
vn 1.000000 0.000000 0.000000
vn 1.000000 0.000000 0.000000
vn 0.000000 -1.000000 0.000000
vn 0.000000 -1.000000 0.000000
vn 0.000000 -1.000000 0.000000
vn 0.000000 -1.000000 0.000000
vn -1.000000 0.000000 0.000000
vn -1.000000 0.000000 0.000000
vn -1.000000 0.000000 0.000000
vn -1.000000 0.000000 0.000000
vn 0.000000 -1.000000 0.000000
vn 0.000000 -1.000000 0.000000
vn 0.000000 -1.000000 0.000000
vn 0.000000 -1.000000 0.000000
vn 1.000000 0.000000 0.000000
vn 1.000000 0.000000 0.000000
vn 1.000000 0.000000 0.000000
vn 1.000000 0.000000 0.000000
vn 0.000000 1.000000 0.000000
vn 0.000000 1.000000 0.000000
vn 0.000000 1.000000 0.000000
vn 0.000000 1.000000 0.000000
vn 1.000000 0.000000 0.000000
vn 1.000000 0.000000 0.000000
vn 1.000000 0.000000 0.000000
vn 1.000000 0.000000 0.000000
vn 0.000000 1.000000 -0.000000
vn 0.000000 1.000000 -0.000000
vn 0.000000 1.000000 -0.000000
vn 0.000000 1.000000 -0.000000
vn -1.000000 0.000000 0.000000
vn -1.000000 0.000000 0.000000
vn -1.000000 0.000000 0.000000
vn -1.000000 0.000000 0.000000
vn 0.000000 -1.000000 0.000000
vn 0.000000 -1.000000 0.000000
vn 0.000000 -1.000000 0.000000
vn 0.000000 -1.000000 0.000000
vn -0.000000 -1.000000 0.000000
vn -0.000000 -1.000000 0.000000
vn -0.000000 -1.000000 0.000000
vn -0.000000 -1.000000 0.000000
vn -1.000000 0.000000 0.000000
vn -1.000000 0.000000 0.000000
vn -1.000000 0.000000 0.000000
vn -1.000000 0.000000 0.000000
vn 0.000000 1.000000 -0.000000
vn 0.000000 1.000000 -0.000000
vn 0.000000 1.000000 -0.000000
vn 0.000000 1.000000 -0.000000
vn 1.000000 0.000000 0.000000
vn 1.000000 0.000000 0.000000
vn 1.000000 0.000000 0.000000
vn 1.000000 0.000000 0.000000
vn 0.000000 0.000000 1.000000
vn 0.000000 0.000000 1.000000
vn 0.000000 0.000000 1.000000
vn 0.000000 0.000000 1.000000
vn 0.000000 0.000000 1.000000
vn 0.000000 0.000000 1.000000
vn 0.000000 0.000000 1.000000
vn 0.000000 0.000000 1.000000
vn 0.000000 0.000000 1.000000
vn 0.000000 0.000000 1.000000
vn 0.000000 0.000000 1.000000
vn 0.000000 0.000000 1.000000
vn 0.000000 0.000000 1.000000
vn 0.000000 0.000000 1.000000
vn 0.000000 0.000000 1.000000
vn 0.000000 0.000000 1.000000
vn 0.000000 0.000000 1.000000
vn 0.000000 0.000000 1.000000
vn 0.000000 0.000000 1.000000
vn 0.000000 0.000000 1.000000
vn 0.000000 0.000000 1.000000
vn 0.000000 0.000000 1.000000
vn 0.000000 0.000000 1.000000
vn 0.000000 0.000000 1.000000
vn 0.000000 0.000000 1.000000
vn 0.000000 0.000000 1.000000
vn 0.000000 0.000000 1.000000
vn 0.000000 0.000000 1.000000
vn 0.000000 0.000000 1.000000
vn 0.000000 0.000000 1.000000
vn 0.000000 0.000000 1.000000
vn 0.000000 0.000000 1.000000
vn 0.000000 0.000000 1.000000
vn 0.000000 0.000000 1.000000
vn 0.000000 0.000000 1.000000
vn 0.000000 0.000000 1.000000
vn 0.000000 0.000000 1.000000
vn 0.000000 0.000000 1.000000
vn 0.000000 0.000000 1.000000
vn 0.000000 0.000000 1.000000
vn 0.000000 0.000000 1.000000
vn 0.000000 0.000000 1.000000
vn 0.000000 0.000000 1.000000
vn 0.000000 0.000000 1.000000
vn 0.000000 0.000000 1.000000
vn 0.000000 0.000000 1.000000
vn 0.000000 0.000000 1.000000
vn 0.000000 0.000000 1.000000
vn 0.000000 0.000000 1.000000
vn 0.000000 0.000000 1.000000
vn 0.000000 0.000000 1.000000
vn 0.000000 0.000000 1.000000
vn 0.000000 0.000000 1.000000
vn 0.000000 0.000000 1.000000
vn 0.000000 0.000000 1.000000
vn 0.000000 0.000000 1.000000
vn 0.000000 0.000000 1.000000
vn 0.000000 0.000000 1.000000
vn 0.000000 0.000000 1.000000
vn 0.000000 0.000000 1.000000
vn 0.000000 0.000000 1.000000
vn 0.000000 0.000000 1.000000
vn 0.000000 0.000000 1.000000
vn 0.000000 0.000000 1.000000
vn -0.000000 -0.000000 -1.000000
vn -0.000000 -0.000000 -1.000000
vn -0.000000 -0.000000 -1.000000
vn -0.000000 -0.000000 -1.000000
vn -0.000000 -0.000000 -1.000000
vn -0.000000 -0.000000 -1.000000
vn -0.000000 -0.000000 -1.000000
vn -0.000000 -0.000000 -1.000000
vn -0.000000 -0.000000 -1.000000
vn -0.000000 -0.000000 -1.000000
vn -0.000000 -0.000000 -1.000000
vn -0.000000 -0.000000 -1.000000
vn -0.000000 -0.000000 -1.000000
vn -0.000000 -0.000000 -1.000000
vn -0.000000 -0.000000 -1.000000
vn -0.000000 -0.000000 -1.000000
vn -0.000000 -0.000000 -1.000000
vn -0.000000 -0.000000 -1.000000
vn -0.000000 -0.000000 -1.000000
vn -0.000000 -0.000000 -1.000000
vn -0.000000 -0.000000 -1.000000
vn -0.000000 -0.000000 -1.000000
vn -0.000000 -0.000000 -1.000000
vn -0.000000 -0.000000 -1.000000
vn -0.000000 -0.000000 -1.000000
vn -0.000000 -0.000000 -1.000000
vn -0.000000 -0.000000 -1.000000
vn -0.000000 -0.000000 -1.000000
vn -0.000000 -0.000000 -1.000000
vn -0.000000 -0.000000 -1.000000
vn -0.000000 -0.000000 -1.000000
vn -0.000000 -0.000000 -1.000000
vn -0.000000 -0.000000 -1.000000
vn -0.000000 -0.000000 -1.000000
vn -0.000000 -0.000000 -1.000000
vn -0.000000 -0.000000 -1.000000
vn -0.000000 -0.000000 -1.000000
vn -0.000000 -0.000000 -1.000000
vn -0.000000 -0.000000 -1.000000
vn -0.000000 -0.000000 -1.000000
vn -0.000000 -0.000000 -1.000000
vn -0.000000 -0.000000 -1.000000
vn -0.000000 -0.000000 -1.000000
vn -0.000000 -0.000000 -1.000000
vn -0.000000 -0.000000 -1.000000
vn -0.000000 -0.000000 -1.000000
vn -0.000000 -0.000000 -1.000000
vn -0.000000 -0.000000 -1.000000
vn -0.000000 -0.000000 -1.000000
vn -0.000000 -0.000000 -1.000000
vn -0.000000 -0.000000 -1.000000
vn -0.000000 -0.000000 -1.000000
vn -0.000000 -0.000000 -1.000000
vn -0.000000 -0.000000 -1.000000
vn -0.000000 -0.000000 -1.000000
vn -0.000000 -0.000000 -1.000000
vn -0.000000 -0.000000 -1.000000
vn -0.000000 -0.000000 -1.000000
vn -0.000000 -0.000000 -1.000000
vn -0.000000 -0.000000 -1.000000
vn -0.000000 -0.000000 -1.000000
vn -0.000000 -0.000000 -1.000000
vn -0.000000 -0.000000 -1.000000
vn -0.000000 -0.000000 -1.000000
usemtl Steel_-_Satin
f 1/1/1 2/2/2 4/3/3
f 4/3/3 2/2/2 3/4/4
f 5/5/5 1/6/6 6/7/7
f 6/7/7 1/6/6 4/8/8
f 7/9/9 5/10/10 8/11/11
f 8/11/11 5/10/10 6/12/12
f 9/13/13 7/14/14 10/15/15
f 10/15/15 7/14/14 8/16/16
f 11/17/17 9/18/18 12/19/19
f 12/19/19 9/18/18 10/20/20
f 2/21/21 11/22/22 3/23/23
f 3/23/23 11/22/22 12/24/24
f 13/25/25 14/26/26 16/27/27
f 16/27/27 14/26/26 15/28/28
f 17/29/29 13/30/30 18/31/31
f 18/31/31 13/30/30 16/32/32
f 19/33/33 17/34/34 20/35/35
f 20/35/35 17/34/34 18/36/36
f 21/37/37 19/38/38 22/39/39
f 22/39/39 19/38/38 20/40/40
f 23/41/41 21/42/42 24/43/43
f 24/43/43 21/42/42 22/44/44
f 25/45/45 23/46/46 26/47/47
f 26/47/47 23/46/46 24/48/48
f 27/49/49 25/50/50 28/51/51
f 28/51/51 25/50/50 26/52/52
f 29/53/53 27/54/54 30/55/55
f 30/55/55 27/54/54 28/56/56
f 31/57/57 29/58/58 32/59/59
f 32/59/59 29/58/58 30/60/60
f 33/61/61 31/62/62 34/63/63
f 34/63/63 31/62/62 32/64/64
f 35/65/65 33/66/66 36/67/67
f 36/67/67 33/66/66 34/68/68
f 37/69/69 35/70/70 38/71/71
f 38/71/71 35/70/70 36/72/72
f 39/73/73 37/74/74 40/75/75
f 40/75/75 37/74/74 38/76/76
f 41/77/77 39/78/78 42/79/79
f 42/79/79 39/78/78 40/80/80
f 43/81/81 41/82/82 44/83/83
f 44/83/83 41/82/82 42/84/84
f 45/85/85 43/86/86 46/87/87
f 46/87/87 43/86/86 44/88/88
f 47/89/89 45/90/90 48/91/91
f 48/91/91 45/90/90 46/92/92
f 49/93/93 47/94/94 50/95/95
f 50/95/95 47/94/94 48/96/96
f 51/97/97 49/98/98 52/99/99
f 52/99/99 49/98/98 50/100/100
f 53/101/101 51/102/102 54/103/103
f 54/103/103 51/102/102 52/104/104
f 55/105/105 53/106/106 56/107/107
f 56/107/107 53/106/106 54/108/108
f 57/109/109 55/110/110 58/111/111
f 58/111/111 55/110/110 56/112/112
f 59/113/113 57/114/114 60/115/115
f 60/115/115 57/114/114 58/116/116
f 61/117/117 59/118/118 62/119/119
f 62/119/119 59/118/118 60/120/120
f 63/121/121 61/122/122 64/123/123
f 64/123/123 61/122/122 62/124/124
f 65/125/125 63/126/126 66/127/127
f 66/127/127 63/126/126 64/128/128
f 67/129/129 65/130/130 68/131/131
f 68/131/131 65/130/130 66/132/132
f 69/133/133 67/134/134 70/135/135
f 70/135/135 67/134/134 68/136/136
f 71/137/137 69/138/138 72/139/139
f 72/139/139 69/138/138 70/140/140
f 73/141/141 71/142/142 74/143/143
f 74/143/143 71/142/142 72/144/144
f 75/145/145 73/146/146 76/147/147
f 76/147/147 73/146/146 74/148/148
f 77/149/149 75/150/150 78/151/151
f 78/151/151 75/150/150 76/152/152
f 79/153/153 77/154/154 80/155/155
f 80/155/155 77/154/154 78/156/156
f 81/157/157 79/158/158 82/159/159
f 82/159/159 79/158/158 80/160/160
f 83/161/161 81/162/162 84/163/163
f 84/163/163 81/162/162 82/164/164
f 85/165/165 83/166/166 86/167/167
f 86/167/167 83/166/166 84/168/168
f 87/169/169 85/170/170 88/171/171
f 88/171/171 85/170/170 86/172/172
f 89/173/173 87/174/174 90/175/175
f 90/175/175 87/174/174 88/176/176
f 91/177/177 89/178/178 92/179/179
f 92/179/179 89/178/178 90/180/180
f 93/181/181 91/182/182 94/183/183
f 94/183/183 91/182/182 92/184/184
f 95/185/185 93/186/186 96/187/187
f 96/187/187 93/186/186 94/188/188
f 97/189/189 95/190/190 98/191/191
f 98/191/191 95/190/190 96/192/192
f 99/193/193 97/194/194 100/195/195
f 100/195/195 97/194/194 98/196/196
f 101/197/197 99/198/198 102/199/199
f 102/199/199 99/198/198 100/200/200
f 103/201/201 101/202/202 104/203/203
f 104/203/203 101/202/202 102/204/204
f 105/205/205 103/206/206 106/207/207
f 106/207/207 103/206/206 104/208/208
f 107/209/209 105/210/210 108/211/211
f 108/211/211 105/210/210 106/212/212
f 109/213/213 107/214/214 110/215/215
f 110/215/215 107/214/214 108/216/216
f 111/217/217 109/218/218 112/219/219
f 112/219/219 109/218/218 110/220/220
f 14/221/221 111/222/222 15/223/223
f 15/223/223 111/222/222 112/224/224
f 113/225/225 114/226/226 116/227/227
f 116/227/227 114/226/226 115/228/228
f 117/229/229 113/230/230 118/231/231
f 118/231/231 113/230/230 116/232/232
f 119/233/233 117/234/234 120/235/235
f 120/235/235 117/234/234 118/236/236
f 114/237/237 119/238/238 115/239/239
f 115/239/239 119/238/238 120/240/240
f 121/241/241 122/242/242 124/243/243
f 124/243/243 122/242/242 123/244/244
f 125/245/245 121/246/246 126/247/247
f 126/247/247 121/246/246 124/248/248
f 127/249/249 125/250/250 128/251/251
f 128/251/251 125/250/250 126/252/252
f 122/253/253 127/254/254 123/255/255
f 123/255/255 127/254/254 128/256/256
f 120/257/257 80/258/258 115/259/259
f 115/259/259 80/258/258 124/260/260
f 115/259/259 124/260/260 116/261/261
f 116/261/261 124/260/260 86/262/262
f 116/261/261 86/262/262 118/263/263
f 118/263/263 86/262/262 84/264/264
f 118/263/263 84/264/264 120/257/257
f 120/257/257 84/264/264 82/265/265
f 120/257/257 82/265/265 80/258/258
f 16/266/266 15/267/267 123/268/268
f 123/268/268 15/267/267 112/269/269
f 123/268/268 112/269/269 90/270/270
f 90/270/270 112/269/269 92/271/271
f 92/271/271 112/269/269 110/272/272
f 92/271/271 110/272/272 98/273/273
f 98/273/273 110/272/272 108/274/274
f 98/273/273 108/274/274 100/275/275
f 100/275/275 108/274/274 106/276/276
f 100/275/275 106/276/276 104/277/277
f 104/277/277 102/278/278 100/275/275
f 98/273/273 96/279/279 92/271/271
f 92/271/271 96/279/279 94/280/280
f 123/268/268 90/270/270 124/260/260
f 124/260/260 90/270/270 88/281/281
f 124/260/260 88/281/281 86/262/262
f 124/260/260 80/258/258 126/282/282
f 126/282/282 80/258/258 78/283/283
f 126/282/282 78/283/283 76/284/284
f 126/282/282 76/284/284 62/285/285
f 62/285/285 76/284/284 74/286/286
f 62/285/285 74/286/286 64/287/287
f 64/287/287 74/286/286 66/288/288
f 66/288/288 74/286/286 72/289/289
f 66/288/288 72/289/289 70/290/290
f 70/290/290 68/291/291 66/288/288
f 62/285/285 60/292/292 126/282/282
f 126/282/282 60/292/292 128/293/293
f 128/293/293 60/292/292 26/294/294
f 128/293/293 26/294/294 24/295/295
f 26/294/294 60/292/292 28/296/296
f 28/296/296 60/292/292 58/297/297
f 28/296/296 58/297/297 3/298/298
f 3/298/298 58/297/297 52/299/299
f 3/298/298 52/299/299 4/300/300
f 4/300/300 52/299/299 50/301/301
f 4/300/300 50/301/301 44/302/302
f 44/302/302 50/301/301 46/303/303
f 46/303/303 50/301/301 48/304/304
f 58/297/297 56/305/305 52/299/299
f 52/299/299 56/305/305 54/306/306
f 4/300/300 44/302/302 6/307/307
f 6/307/307 44/302/302 42/308/308
f 6/307/307 42/308/308 8/309/309
f 8/309/309 42/308/308 10/310/310
f 10/310/310 42/308/308 40/311/311
f 10/310/310 40/311/311 12/312/312
f 12/312/312 40/311/311 38/313/313
f 12/312/312 38/313/313 30/314/314
f 30/314/314 38/313/313 32/315/315
f 32/315/315 38/313/313 34/316/316
f 34/316/316 38/313/313 36/317/317
f 30/314/314 28/296/296 12/312/312
f 12/312/312 28/296/296 3/298/298
f 24/295/295 22/318/318 128/293/293
f 128/293/293 22/318/318 16/266/266
f 128/293/293 16/266/266 123/268/268
f 22/318/318 20/319/319 16/266/266
f 16/266/266 20/319/319 18/320/320
f 114/321/321 79/322/322 119/323/323
f 119/323/323 79/322/322 81/324/324
f 119/323/323 81/324/324 83/325/325
f 79/322/322 114/321/321 121/326/326
f 121/326/326 114/321/321 113/327/327
f 121/326/326 113/327/327 85/328/328
f 85/328/328 113/327/327 117/329/329
f 85/328/328 117/329/329 83/325/325
f 83/325/325 117/329/329 119/323/323
f 14/330/330 122/331/331 111/332/332
f 111/332/332 122/331/331 89/333/333
f 111/332/332 89/333/333 109/334/334
f 109/334/334 89/333/333 91/335/335
f 109/334/334 91/335/335 97/336/336
f 97/336/336 91/335/335 95/337/337
f 95/337/337 91/335/335 93/338/338
f 14/330/330 13/339/339 122/331/331
f 122/331/331 13/339/339 127/340/340
f 127/340/340 13/339/339 21/341/341
f 127/340/340 21/341/341 23/342/342
f 13/339/339 17/343/343 21/341/341
f 21/341/341 17/343/343 19/344/344
f 23/342/342 25/345/345 127/340/340
f 127/340/340 25/345/345 59/346/346
f 127/340/340 59/346/346 125/347/347
f 125/347/347 59/346/346 61/348/348
f 125/347/347 61/348/348 75/349/349
f 75/349/349 61/348/348 73/350/350
f 73/350/350 61/348/348 63/351/351
f 73/350/350 63/351/351 65/352/352
f 59/346/346 25/345/345 57/353/353
f 57/353/353 25/345/345 27/354/354
f 57/353/353 27/354/354 51/355/355
f 51/355/355 27/354/354 2/356/356
f 51/355/355 2/356/356 49/357/357
f 49/357/357 2/356/356 1/358/358
f 49/357/357 1/358/358 43/359/359
f 43/359/359 1/358/358 5/360/360
f 43/359/359 5/360/360 41/361/361
f 41/361/361 5/360/360 7/362/362
f 41/361/361 7/362/362 9/363/363
f 27/354/354 29/364/364 2/356/356
f 2/356/356 29/364/364 11/365/365
f 11/365/365 29/364/364 37/366/366
f 11/365/365 37/366/366 39/367/367
f 29/364/364 31/368/368 37/366/366
f 37/366/366 31/368/368 33/369/369
f 37/366/366 33/369/369 35/370/370
f 11/365/365 39/367/367 9/363/363
f 9/363/363 39/367/367 41/361/361
f 43/359/359 45/371/371 49/357/357
f 49/357/357 45/371/371 47/372/372
f 51/355/355 53/373/373 57/353/353
f 57/353/353 53/373/373 55/374/374
f 67/375/375 69/376/376 65/352/352
f 65/352/352 69/376/376 71/377/377
f 65/352/352 71/377/377 73/350/350
f 75/349/349 77/378/378 125/347/347
f 125/347/347 77/378/378 79/322/322
f 125/347/347 79/322/322 121/326/326
f 85/328/328 87/379/379 121/326/326
f 121/326/326 87/379/379 89/333/333
f 121/326/326 89/333/333 122/331/331
f 109/334/334 97/336/336 107/380/380
f 107/380/380 97/336/336 99/381/381
f 107/380/380 99/381/381 105/382/382
f 105/382/382 99/381/381 103/383/383
f 103/383/383 99/381/381 101/384/384
g Body2

v -0.369958 -0.055924 0.000000
v -0.369958 -0.107094 0.000000
v -0.369958 -0.107094 0.075000
v -0.369958 -0.055924 0.075000
v -0.354958 -0.055924 0.000000
v -0.354958 -0.055924 0.075000
v -0.354958 -0.107094 0.000000
v -0.354958 -0.107094 0.075000
vt -0.000000 0.000000 0.000000
vt 0.051170 0.000000 0.000000
vt -0.000000 0.075000 0.000000
vt 0.051170 0.075000 0.000000
vt -0.000000 0.000000 0.000000
vt 0.015000 0.000000 0.000000
vt -0.000000 0.075000 0.000000
vt 0.015000 0.075000 0.000000
vt 0.000000 0.000000 0.000000
vt 0.051170 0.000000 0.000000
vt 0.000000 0.075000 0.000000
vt 0.051170 0.075000 0.000000
vt 0.000000 0.000000 0.000000
vt 0.015000 0.000000 0.000000
vt 0.000000 0.075000 0.000000
vt 0.015000 0.075000 0.000000
vt -0.007500 -0.025585 0.000000
vt 0.007500 -0.025585 0.000000
vt -0.007500 0.025585 0.000000
vt 0.007500 0.025585 0.000000
vt -0.007500 -0.025585 0.000000
vt 0.007500 -0.025585 0.000000
vt -0.007500 0.025585 0.000000
vt 0.007500 0.025585 0.000000
vn -1.000000 0.000000 0.000000
vn -1.000000 0.000000 0.000000
vn -1.000000 0.000000 0.000000
vn -1.000000 0.000000 0.000000
vn 0.000000 1.000000 0.000000
vn 0.000000 1.000000 0.000000
vn 0.000000 1.000000 0.000000
vn 0.000000 1.000000 0.000000
vn 1.000000 0.000000 -0.000000
vn 1.000000 0.000000 -0.000000
vn 1.000000 0.000000 -0.000000
vn 1.000000 0.000000 -0.000000
vn 0.000000 -1.000000 0.000000
vn 0.000000 -1.000000 0.000000
vn 0.000000 -1.000000 0.000000
vn 0.000000 -1.000000 0.000000
vn 0.000000 0.000000 1.000000
vn 0.000000 0.000000 1.000000
vn 0.000000 0.000000 1.000000
vn 0.000000 0.000000 1.000000
vn -0.000000 0.000000 -1.000000
vn -0.000000 0.000000 -1.000000
vn -0.000000 0.000000 -1.000000
vn -0.000000 0.000000 -1.000000
f 129/385/385 130/386/386 132/387/387
f 132/387/387 130/386/386 131/388/388
f 133/389/389 129/390/390 134/391/391
f 134/391/391 129/390/390 132/392/392
f 135/393/393 133/394/394 136/395/395
f 136/395/395 133/394/394 134/396/396
f 130/397/397 135/398/398 131/399/399
f 131/399/399 135/398/398 136/400/400
f 131/401/401 136/402/402 132/403/403
f 132/403/403 136/402/402 134/404/404
f 135/405/405 130/406/406 133/407/407
f 133/407/407 130/406/406 129/408/408
# 136 vertices
# 408 texture params
# 408 normals
# 276 facets

# 2 groups
