# WaveFront *.obj file (generated by Autodesk ATF)

mtllib Medium Map (Fig. 4 From Paper) v2.mtl

g Body1

v -0.109972 0.253831 0.000000
v 0.299504 0.473532 0.000000
v 0.299504 0.473532 0.075000
v -0.109972 0.253831 0.075000
v -0.109972 -0.091168 0.000000
v -0.109972 -0.091168 0.075000
v 0.268384 -0.091168 0.000000
v 0.268384 -0.091168 0.075000
v 0.268384 0.198831 0.000000
v 0.268384 0.198831 0.075000
v 0.091743 0.198831 0.000000
v 0.091743 0.198831 0.075000
v 0.091743 0.253831 0.000000
v 0.091743 0.253831 0.075000
v 0.323384 0.253831 0.000000
v 0.323384 0.253831 0.075000
v 0.323384 -0.146168 0.000000
v 0.323384 -0.146168 0.075000
v -0.164972 -0.146168 0.000000
v -0.164972 -0.146168 0.075000
v -0.164972 0.290952 0.000000
v -0.164972 0.290952 0.075000
v 0.271745 0.525269 0.000000
v 0.271745 0.525269 0.075000
vt 0.000000 0.000000 0.000000
vt 0.464693 0.000000 0.000000
vt -0.000000 0.075000 0.000000
vt 0.464693 0.075000 0.000000
vt 0.000000 0.000000 0.000000
vt 0.344999 0.000000 0.000000
vt -0.000000 0.075000 0.000000
vt 0.344999 0.075000 0.000000
vt 0.000000 0.000000 0.000000
vt 0.378357 0.000000 0.000000
vt 0.000000 0.075000 0.000000
vt 0.378357 0.075000 0.000000
vt 0.000000 0.000000 0.000000
vt 0.289999 0.000000 0.000000
vt 0.000000 0.075000 0.000000
vt 0.289999 0.075000 0.000000
vt 0.000000 0.000000 0.000000
vt 0.176641 0.000000 0.000000
vt 0.000000 0.075000 0.000000
vt 0.176641 0.075000 0.000000
vt 0.000000 0.000000 0.000000
vt 0.055000 0.000000 0.000000
vt 0.000000 0.075000 0.000000
vt 0.055000 0.075000 0.000000
vt -0.000000 0.000000 0.000000
vt 0.231641 0.000000 0.000000
vt -0.000000 0.075000 0.000000
vt 0.231641 0.075000 0.000000
vt 0.000000 0.000000 0.000000
vt 0.399999 0.000000 0.000000
vt 0.000000 0.075000 0.000000
vt 0.399999 0.075000 0.000000
vt 0.000000 0.000000 0.000000
vt 0.488357 0.000000 0.000000
vt 0.000000 0.075000 0.000000
vt 0.488357 0.075000 0.000000
vt 0.000000 0.000000 0.000000
vt 0.437120 0.000000 0.000000
vt 0.000000 0.075000 0.000000
vt 0.437120 0.075000 0.000000
vt 0.000000 0.000000 0.000000
vt 0.495607 0.000000 0.000000
vt 0.000000 0.075000 0.000000
vt 0.495607 0.075000 0.000000
vt 0.000000 0.000000 0.000000
vt 0.058714 0.000000 0.000000
vt 0.000000 0.075000 0.000000
vt 0.058714 0.075000 0.000000
vt 0.220298 0.283981 0.000000
vt 0.192539 0.335719 0.000000
vt -0.189178 0.064280 0.000000
vt -0.244178 0.101402 0.000000
vt -0.189178 -0.280719 0.000000
vt -0.244178 -0.335719 0.000000
vt 0.244178 -0.335719 0.000000
vt 0.244178 0.064280 0.000000
vt 0.189178 0.009280 0.000000
vt 0.189178 -0.280719 0.000000
vt 0.012537 0.064280 0.000000
vt 0.012537 0.009280 0.000000
vt -0.220298 0.283981 0.000000
vt 0.189178 0.064280 0.000000
vt -0.192539 0.335719 0.000000
vt 0.244178 0.101402 0.000000
vt 0.189178 -0.280719 0.000000
vt 0.244178 -0.335719 0.000000
vt -0.189178 -0.280719 0.000000
vt -0.244178 -0.335719 0.000000
vt -0.189178 0.009280 0.000000
vt -0.244178 0.064280 0.000000
vt -0.012537 0.064280 0.000000
vt -0.012537 0.009280 0.000000
vn 0.472787 -0.881177 0.000000
vn 0.472787 -0.881177 0.000000
vn 0.472787 -0.881177 0.000000
vn 0.472787 -0.881177 0.000000
vn 1.000000 0.000000 0.000000
vn 1.000000 0.000000 0.000000
vn 1.000000 0.000000 0.000000
vn 1.000000 0.000000 0.000000
vn -0.000000 1.000000 0.000000
vn -0.000000 1.000000 0.000000
vn -0.000000 1.000000 0.000000
vn -0.000000 1.000000 0.000000
vn -1.000000 0.000000 0.000000
vn -1.000000 0.000000 0.000000
vn -1.000000 0.000000 0.000000
vn -1.000000 0.000000 0.000000
vn -0.000000 -1.000000 0.000000
vn -0.000000 -1.000000 0.000000
vn -0.000000 -1.000000 0.000000
vn -0.000000 -1.000000 0.000000
vn -1.000000 0.000000 0.000000
vn -1.000000 0.000000 0.000000
vn -1.000000 0.000000 0.000000
vn -1.000000 0.000000 0.000000
vn 0.000000 1.000000 0.000000
vn 0.000000 1.000000 0.000000
vn 0.000000 1.000000 0.000000
vn 0.000000 1.000000 0.000000
vn 1.000000 0.000000 -0.000000
vn 1.000000 0.000000 -0.000000
vn 1.000000 0.000000 -0.000000
vn 1.000000 0.000000 -0.000000
vn 0.000000 -1.000000 0.000000
vn 0.000000 -1.000000 0.000000
vn 0.000000 -1.000000 0.000000
vn 0.000000 -1.000000 0.000000
vn -1.000000 0.000000 0.000000
vn -1.000000 0.000000 0.000000
vn -1.000000 0.000000 0.000000
vn -1.000000 0.000000 0.000000
vn -0.472787 0.881177 0.000000
vn -0.472787 0.881177 0.000000
vn -0.472787 0.881177 0.000000
vn -0.472787 0.881177 0.000000
vn 0.881177 0.472787 -0.000000
vn 0.881177 0.472787 -0.000000
vn 0.881177 0.472787 -0.000000
vn 0.881177 0.472787 -0.000000
vn 0.000000 0.000000 1.000000
vn 0.000000 0.000000 1.000000
vn 0.000000 0.000000 1.000000
vn 0.000000 0.000000 1.000000
vn 0.000000 0.000000 1.000000
vn 0.000000 0.000000 1.000000
vn 0.000000 0.000000 1.000000
vn 0.000000 0.000000 1.000000
vn 0.000000 0.000000 1.000000
vn 0.000000 0.000000 1.000000
vn 0.000000 0.000000 1.000000
vn 0.000000 0.000000 1.000000
vn -0.000000 0.000000 -1.000000
vn -0.000000 0.000000 -1.000000
vn -0.000000 0.000000 -1.000000
vn -0.000000 0.000000 -1.000000
vn -0.000000 0.000000 -1.000000
vn -0.000000 0.000000 -1.000000
vn -0.000000 0.000000 -1.000000
vn -0.000000 0.000000 -1.000000
vn -0.000000 0.000000 -1.000000
vn -0.000000 0.000000 -1.000000
vn -0.000000 0.000000 -1.000000
vn -0.000000 0.000000 -1.000000
usemtl Steel_-_Satin
f 1/1/1 2/2/2 4/3/3
f 4/3/3 2/2/2 3/4/4
f 5/5/5 1/6/6 6/7/7
f 6/7/7 1/6/6 4/8/8
f 7/9/9 5/10/10 8/11/11
f 8/11/11 5/10/10 6/12/12
f 9/13/13 7/14/14 10/15/15
f 10/15/15 7/14/14 8/16/16
f 11/17/17 9/18/18 12/19/19
f 12/19/19 9/18/18 10/20/20
f 13/21/21 11/22/22 14/23/23
f 14/23/23 11/22/22 12/24/24
f 15/25/25 13/26/26 16/27/27
f 16/27/27 13/26/26 14/28/28
f 17/29/29 15/30/30 18/31/31
f 18/31/31 15/30/30 16/32/32
f 19/33/33 17/34/34 20/35/35
f 20/35/35 17/34/34 18/36/36
f 21/37/37 19/38/38 22/39/39
f 22/39/39 19/38/38 20/40/40
f 23/41/41 21/42/42 24/43/43
f 24/43/43 21/42/42 22/44/44
f 2/45/45 23/46/46 3/47/47
f 3/47/47 23/46/46 24/48/48
f 3/49/49 24/50/50 4/51/51
f 4/51/51 24/50/50 22/52/52
f 4/51/51 22/52/52 6/53/53
f 6/53/53 22/52/52 20/54/54
f 6/53/53 20/54/54 18/55/55
f 16/56/56 10/57/57 18/55/55
f 18/55/55 10/57/57 8/58/58
f 18/55/55 8/58/58 6/53/53
f 16/56/56 14/59/59 10/57/57
f 10/57/57 14/59/59 12/60/60
f 2/61/61 1/62/62 23/63/63
f 23/63/63 1/62/62 21/64/64
f 21/64/64 1/62/62 5/65/65
f 21/64/64 5/65/65 19/66/66
f 19/66/66 5/65/65 7/67/67
f 19/66/66 7/67/67 17/68/68
f 17/68/68 7/67/67 9/69/69
f 17/68/68 9/69/69 15/70/70
f 15/70/70 9/69/69 13/71/71
f 13/71/71 9/69/69 11/72/72
g Body2

v -0.144995 1.180994 0.000000
v 0.554830 0.774339 0.000000
v 0.554830 0.774339 0.075000
v -0.144995 1.180994 0.075000
v -0.115947 1.230984 0.000000
v -0.115947 1.230984 0.075000
v 0.609830 0.809248 0.000000
v 0.609830 0.809248 0.075000
v 0.609830 -0.362021 0.000000
v 0.609830 -0.362021 0.075000
v -0.708192 -0.362021 0.000000
v -0.708192 -0.362021 0.075000
v -0.708192 0.680538 0.000000
v -0.708192 0.680538 0.075000
v 0.079007 0.680538 0.000000
v 0.079007 0.680538 0.075000
v 0.079007 0.625538 0.000000
v 0.079007 0.625538 0.075000
v -0.653192 0.625538 0.000000
v -0.653192 0.625538 0.075000
v -0.653192 -0.307021 0.000000
v -0.653192 -0.307021 0.075000
v 0.554830 -0.307021 0.000000
v 0.554830 -0.307021 0.075000
vt -0.000000 0.000000 0.000000
vt 0.809397 0.000000 0.000000
vt -0.000000 0.075000 0.000000
vt 0.809397 0.075000 0.000000
vt -0.000000 0.000000 0.000000
vt 0.057817 0.000000 0.000000
vt 0.000000 0.075000 0.000000
vt 0.057817 0.075000 0.000000
vt 0.000000 0.000000 0.000000
vt 0.839412 0.000000 0.000000
vt 0.000000 0.075000 0.000000
vt 0.839412 0.075000 0.000000
vt -0.000000 0.000000 0.000000
vt 1.171270 0.000000 0.000000
vt -0.000000 0.075000 0.000000
vt 1.171270 0.075000 0.000000
vt 0.000000 0.000000 0.000000
vt 1.318022 0.000000 0.000000
vt 0.000000 0.075000 0.000000
vt 1.318022 0.075000 0.000000
vt -0.000000 0.000000 0.000000
vt 1.042559 0.000000 0.000000
vt -0.000000 0.075000 0.000000
vt 1.042559 0.075000 0.000000
vt -0.000000 0.000000 0.000000
vt 0.787199 0.000000 0.000000
vt -0.000000 0.075000 0.000000
vt 0.787199 0.075000 0.000000
vt 0.000000 0.000000 0.000000
vt 0.055000 0.000000 0.000000
vt 0.000000 0.075000 0.000000
vt 0.055000 0.075000 0.000000
vt 0.000000 0.000000 0.000000
vt 0.732199 0.000000 0.000000
vt 0.000000 0.075000 0.000000
vt 0.732199 0.075000 0.000000
vt 0.000000 0.000000 0.000000
vt 0.932559 0.000000 0.000000
vt 0.000000 0.075000 0.000000
vt 0.932559 0.075000 0.000000
vt 0.000000 0.000000 0.000000
vt 1.208022 0.000000 0.000000
vt 0.000000 0.075000 0.000000
vt 1.208022 0.075000 0.000000
vt -0.000000 0.000000 0.000000
vt 1.081360 0.000000 0.000000
vt -0.000000 0.075000 0.000000
vt 1.081360 0.075000 0.000000
vt 0.604011 -0.741503 0.000000
vt 0.659011 0.374767 0.000000
vt 0.604011 0.339857 0.000000
vt -0.066766 0.796503 0.000000
vt -0.095814 0.746513 0.000000
vt 0.659011 -0.796503 0.000000
vt -0.604011 -0.741503 0.000000
vt -0.659011 -0.796503 0.000000
vt -0.604011 0.191057 0.000000
vt -0.659011 0.246057 0.000000
vt 0.128188 0.246057 0.000000
vt 0.128188 0.191057 0.000000
vt -0.604011 0.339857 0.000000
vt -0.659011 0.374767 0.000000
vt -0.604011 -0.741503 0.000000
vt -0.659011 -0.796503 0.000000
vt 0.659011 -0.796503 0.000000
vt 0.095814 0.746513 0.000000
vt 0.066766 0.796503 0.000000
vt 0.659011 0.246057 0.000000
vt 0.604011 0.191057 0.000000
vt 0.604011 -0.741503 0.000000
vt -0.128188 0.246057 0.000000
vt -0.128188 0.191057 0.000000
vn -0.502418 -0.864625 0.000000
vn -0.502418 -0.864625 0.000000
vn -0.502418 -0.864625 0.000000
vn -0.502418 -0.864625 0.000000
vn -0.864625 0.502418 0.000000
vn -0.864625 0.502418 0.000000
vn -0.864625 0.502418 0.000000
vn -0.864625 0.502418 0.000000
vn 0.502418 0.864625 -0.000000
vn 0.502418 0.864625 -0.000000
vn 0.502418 0.864625 -0.000000
vn 0.502418 0.864625 -0.000000
vn 1.000000 -0.000000 0.000000
vn 1.000000 -0.000000 0.000000
vn 1.000000 -0.000000 0.000000
vn 1.000000 -0.000000 0.000000
vn -0.000000 -1.000000 0.000000
vn -0.000000 -1.000000 0.000000
vn -0.000000 -1.000000 0.000000
vn -0.000000 -1.000000 0.000000
vn -1.000000 0.000000 0.000000
vn -1.000000 0.000000 0.000000
vn -1.000000 0.000000 0.000000
vn -1.000000 0.000000 0.000000
vn 0.000000 1.000000 0.000000
vn 0.000000 1.000000 0.000000
vn 0.000000 1.000000 0.000000
vn 0.000000 1.000000 0.000000
vn 1.000000 0.000000 -0.000000
vn 1.000000 0.000000 -0.000000
vn 1.000000 0.000000 -0.000000
vn 1.000000 0.000000 -0.000000
vn 0.000000 -1.000000 0.000000
vn 0.000000 -1.000000 0.000000
vn 0.000000 -1.000000 0.000000
vn 0.000000 -1.000000 0.000000
vn 1.000000 0.000000 0.000000
vn 1.000000 0.000000 0.000000
vn 1.000000 0.000000 0.000000
vn 1.000000 0.000000 0.000000
vn 0.000000 1.000000 -0.000000
vn 0.000000 1.000000 -0.000000
vn 0.000000 1.000000 -0.000000
vn 0.000000 1.000000 -0.000000
vn -1.000000 0.000000 0.000000
vn -1.000000 0.000000 0.000000
vn -1.000000 0.000000 0.000000
vn -1.000000 0.000000 0.000000
vn 0.000000 0.000000 1.000000
vn 0.000000 0.000000 1.000000
vn 0.000000 0.000000 1.000000
vn 0.000000 0.000000 1.000000
vn 0.000000 0.000000 1.000000
vn 0.000000 0.000000 1.000000
vn 0.000000 0.000000 1.000000
vn 0.000000 0.000000 1.000000
vn 0.000000 0.000000 1.000000
vn 0.000000 0.000000 1.000000
vn 0.000000 0.000000 1.000000
vn 0.000000 0.000000 1.000000
vn -0.000000 0.000000 -1.000000
vn -0.000000 0.000000 -1.000000
vn -0.000000 0.000000 -1.000000
vn -0.000000 0.000000 -1.000000
vn -0.000000 0.000000 -1.000000
vn -0.000000 0.000000 -1.000000
vn -0.000000 0.000000 -1.000000
vn -0.000000 0.000000 -1.000000
vn -0.000000 0.000000 -1.000000
vn -0.000000 0.000000 -1.000000
vn -0.000000 0.000000 -1.000000
vn -0.000000 0.000000 -1.000000
f 25/73/73 26/74/74 28/75/75
f 28/75/75 26/74/74 27/76/76
f 29/77/77 25/78/78 30/79/79
f 30/79/79 25/78/78 28/80/80
f 31/81/81 29/82/82 32/83/83
f 32/83/83 29/82/82 30/84/84
f 33/85/85 31/86/86 34/87/87
f 34/87/87 31/86/86 32/88/88
f 35/89/89 33/90/90 36/91/91
f 36/91/91 33/90/90 34/92/92
f 37/93/93 35/94/94 38/95/95
f 38/95/95 35/94/94 36/96/96
f 39/97/97 37/98/98 40/99/99
f 40/99/99 37/98/98 38/100/100
f 41/101/101 39/102/102 42/103/103
f 42/103/103 39/102/102 40/104/104
f 43/105/105 41/106/106 44/107/107
f 44/107/107 41/106/106 42/108/108
f 45/109/109 43/110/110 46/111/111
f 46/111/111 43/110/110 44/112/112
f 47/113/113 45/114/114 48/115/115
f 48/115/115 45/114/114 46/116/116
f 26/117/117 47/118/118 27/119/119
f 27/119/119 47/118/118 48/120/120
f 48/121/121 32/122/122 27/123/123
f 27/123/123 32/122/122 30/124/124
f 27/123/123 30/124/124 28/125/125
f 32/122/122 48/121/121 34/126/126
f 34/126/126 48/121/121 46/127/127
f 34/126/126 46/127/127 36/128/128
f 36/128/128 46/127/127 44/129/129
f 36/128/128 44/129/129 38/130/130
f 38/130/130 44/129/129 40/131/131
f 40/131/131 44/129/129 42/132/132
f 26/133/133 31/134/134 47/135/135
f 47/135/135 31/134/134 33/136/136
f 47/135/135 33/136/136 35/137/137
f 25/138/138 29/139/139 26/133/133
f 26/133/133 29/139/139 31/134/134
f 37/140/140 43/141/141 35/137/137
f 35/137/137 43/141/141 45/142/142
f 35/137/137 45/142/142 47/135/135
f 37/140/140 39/143/143 43/141/141
f 43/141/141 39/143/143 41/144/144
# 48 vertices
# 144 texture params
# 144 normals
# 88 facets

# 2 groups
