# WaveFront *.obj file (generated by Autodesk ATF)

mtllib Medium Maze Map 2 (Fig. 10 From Paper) v3.mtl

g Body1

v 0.235845 0.100553 0.000000
v -0.255907 0.100553 0.000000
v -0.255907 0.100553 0.075000
v 0.235845 0.100553 0.075000
v 0.235845 0.691021 0.000000
v 0.235845 0.691021 0.075000
v 0.156613 0.691021 0.000000
v 0.156613 0.691021 0.075000
v 0.156613 0.614953 0.000000
v 0.156613 0.614953 0.075000
v 0.141613 0.614953 0.000000
v 0.141613 0.614953 0.075000
v 0.141613 0.691021 0.000000
v 0.141613 0.691021 0.075000
v -0.703322 0.691021 0.000000
v -0.703322 0.691021 0.075000
v -0.703322 0.403230 0.000000
v -0.703322 0.403230 0.075000
v -0.550986 0.403230 0.000000
v -0.550986 0.403230 0.075000
v -0.550986 0.238588 0.000000
v -0.550986 0.238588 0.075000
v -0.565986 0.238588 0.000000
v -0.565986 0.238588 0.075000
v -0.565986 0.378230 0.000000
v -0.565986 0.378230 0.075000
v -0.703322 0.378230 0.000000
v -0.703322 0.378230 0.075000
v -0.703322 -0.059049 0.000000
v -0.703322 -0.059049 0.075000
v -0.568632 -0.059049 0.000000
v -0.568632 -0.059049 0.075000
v -0.568632 -0.050990 0.000000
v -0.568632 -0.050990 0.075000
v -0.552512 -0.050990 0.000000
v -0.552512 -0.050990 0.075000
v -0.552512 -0.539561 0.000000
v -0.552512 -0.539561 0.075000
v -0.703322 -0.539561 0.000000
v -0.703322 -0.539561 0.075000
v -0.703322 -0.755934 0.000000
v -0.703322 -0.755934 0.075000
v 0.142975 -0.755934 0.000000
v 0.142975 -0.755934 0.075000
v 0.142975 -0.601730 0.000000
v 0.142975 -0.601730 0.075000
v 0.233910 -0.601730 0.000000
v 0.233910 -0.601730 0.075000
v 0.233910 -0.681827 0.000000
v 0.233910 -0.681827 0.075000
v 0.294844 -0.681827 0.000000
v 0.294844 -0.681827 0.075000
v 0.294844 -0.755934 0.000000
v 0.294844 -0.755934 0.075000
v 0.719350 -0.755934 0.000000
v 0.719350 -0.755934 0.075000
v 0.719350 -0.538175 0.000000
v 0.719350 -0.538175 0.075000
v 0.640082 -0.538175 0.000000
v 0.640082 -0.538175 0.075000
v 0.640082 -0.257882 0.000000
v 0.640082 -0.257882 0.075000
v 0.375538 -0.257882 0.000000
v 0.375538 -0.257882 0.075000
v 0.375538 -0.242882 0.000000
v 0.375538 -0.242882 0.075000
v 0.655082 -0.242882 0.000000
v 0.655082 -0.242882 0.075000
v 0.655082 -0.523175 0.000000
v 0.655082 -0.523175 0.075000
v 0.719350 -0.523175 0.000000
v 0.719350 -0.523175 0.075000
v 0.719350 0.085553 0.000000
v 0.719350 0.085553 0.075000
v 0.250845 0.085553 0.000000
v 0.250845 0.085553 0.075000
v 0.250845 0.042805 0.000000
v 0.250845 0.042805 0.075000
v 0.235845 0.042805 0.000000
v 0.235845 0.042805 0.075000
v 0.235845 0.085553 0.000000
v 0.235845 0.085553 0.075000
v -0.255907 0.085553 0.000000
v -0.255907 0.085553 0.075000
v -0.255907 -0.097930 0.000000
v -0.255907 -0.097930 0.075000
v -0.034142 -0.097930 0.000000
v -0.034142 -0.097930 0.075000
v -0.034142 -0.112930 0.000000
v -0.034142 -0.112930 0.075000
v -0.280907 -0.112930 0.000000
v -0.280907 -0.112930 0.075000
v -0.280907 0.477018 0.000000
v -0.280907 0.477018 0.075000
v -0.108521 0.477018 0.000000
v -0.108521 0.477018 0.075000
v -0.108521 0.462018 0.000000
v -0.108521 0.462018 0.075000
v -0.255907 0.462018 0.000000
v -0.255907 0.462018 0.075000
v -0.567512 -0.074166 0.000000
v -0.567512 -0.517996 0.000000
v -0.567512 -0.517996 0.075000
v -0.567512 -0.074166 0.075000
v -0.703322 -0.074166 0.000000
v -0.703322 -0.074166 0.075000
v -0.703322 -0.517996 0.000000
v -0.703322 -0.517996 0.075000
v 0.157975 -0.616730 0.000000
v 0.218910 -0.616730 0.000000
v 0.218910 -0.616730 0.075000
v 0.157975 -0.616730 0.075000
v 0.157975 -0.755934 0.000000
v 0.157975 -0.755934 0.075000
v 0.279844 -0.755934 0.000000
v 0.279844 -0.755934 0.075000
v 0.279844 -0.696827 0.000000
v 0.279844 -0.696827 0.075000
v 0.218910 -0.696827 0.000000
v 0.218910 -0.696827 0.075000
v 0.719350 0.100580 0.000000
v 0.704350 0.100553 0.000000
v 0.704350 0.100553 0.075000
v 0.719350 0.100580 0.075000
v 0.719350 0.691021 0.000000
v 0.719350 0.691021 0.075000
v 0.250845 0.691021 0.000000
v 0.250845 0.691021 0.075000
v 0.250845 0.100553 0.000000
v 0.250845 0.100553 0.075000
v -0.733322 0.721021 0.000000
v -0.733322 -0.785934 0.000000
v -0.733322 -0.785934 0.075000
v -0.733322 0.721021 0.075000
v 0.749350 0.721021 0.000000
v 0.749350 0.721021 0.075000
v 0.749350 -0.785934 0.000000
v 0.749350 -0.785934 0.075000
vt 0.000000 0.000000 0.000000
vt 0.491752 0.000000 0.000000
vt 0.000000 0.075000 0.000000
vt 0.491752 0.075000 0.000000
vt 0.000000 0.000000 0.000000
vt 0.590468 0.000000 0.000000
vt 0.000000 0.075000 0.000000
vt 0.590468 0.075000 0.000000
vt 0.000000 0.000000 0.000000
vt 0.079232 0.000000 0.000000
vt 0.000000 0.075000 0.000000
vt 0.079232 0.075000 0.000000
vt 0.000000 0.000000 0.000000
vt 0.076068 0.000000 0.000000
vt 0.000000 0.075000 0.000000
vt 0.076068 0.075000 0.000000
vt 0.000000 0.000000 0.000000
vt 0.015000 0.000000 0.000000
vt -0.000000 0.075000 0.000000
vt 0.015000 0.075000 0.000000
vt 0.000000 0.000000 0.000000
vt 0.076068 0.000000 0.000000
vt 0.000000 0.075000 0.000000
vt 0.076068 0.075000 0.000000
vt 0.000000 0.000000 0.000000
vt 0.844935 0.000000 0.000000
vt 0.000000 0.075000 0.000000
vt 0.844935 0.075000 0.000000
vt 0.000000 0.000000 0.000000
vt 0.287791 0.000000 0.000000
vt 0.000000 0.075000 0.000000
vt 0.287791 0.075000 0.000000
vt 0.000000 0.000000 0.000000
vt 0.152336 0.000000 0.000000
vt 0.000000 0.075000 0.000000
vt 0.152336 0.075000 0.000000
vt 0.000000 0.000000 0.000000
vt 0.164641 0.000000 0.000000
vt 0.000000 0.075000 0.000000
vt 0.164641 0.075000 0.000000
vt 0.000000 0.000000 0.000000
vt 0.015000 0.000000 0.000000
vt 0.000000 0.075000 0.000000
vt 0.015000 0.075000 0.000000
vt 0.000000 0.000000 0.000000
vt 0.139641 0.000000 0.000000
vt 0.000000 0.075000 0.000000
vt 0.139641 0.075000 0.000000
vt 0.000000 0.000000 0.000000
vt 0.137336 0.000000 0.000000
vt 0.000000 0.075000 0.000000
vt 0.137336 0.075000 0.000000
vt -0.000000 0.000000 0.000000
vt 0.437278 0.000000 0.000000
vt -0.000000 0.075000 0.000000
vt 0.437278 0.075000 0.000000
vt -0.000000 0.000000 0.000000
vt 0.134691 0.000000 0.000000
vt -0.000000 0.075000 0.000000
vt 0.134691 0.075000 0.000000
vt -0.000000 0.000000 0.000000
vt 0.008059 0.000000 0.000000
vt -0.000000 0.075000 0.000000
vt 0.008059 0.075000 0.000000
vt 0.000000 0.000000 0.000000
vt 0.016119 0.000000 0.000000
vt 0.000000 0.075000 0.000000
vt 0.016119 0.075000 0.000000
vt 0.000000 0.000000 0.000000
vt 0.488571 0.000000 0.000000
vt 0.000000 0.075000 0.000000
vt 0.488571 0.075000 0.000000
vt 0.000000 0.000000 0.000000
vt 0.150810 0.000000 0.000000
vt 0.000000 0.075000 0.000000
vt 0.150810 0.075000 0.000000
vt 0.000000 0.000000 0.000000
vt 0.216373 0.000000 0.000000
vt 0.000000 0.075000 0.000000
vt 0.216373 0.075000 0.000000
vt -0.000000 0.000000 0.000000
vt 0.846298 0.000000 0.000000
vt 0.000000 0.075000 0.000000
vt 0.846298 0.075000 0.000000
vt -0.000000 0.000000 0.000000
vt 0.154204 0.000000 0.000000
vt 0.000000 0.075000 0.000000
vt 0.154204 0.075000 0.000000
vt -0.000000 0.000000 0.000000
vt 0.090934 0.000000 0.000000
vt -0.000000 0.075000 0.000000
vt 0.090934 0.075000 0.000000
vt 0.000000 0.000000 0.000000
vt 0.080097 0.000000 0.000000
vt 0.000000 0.075000 0.000000
vt 0.080097 0.075000 0.000000
vt 0.000000 0.000000 0.000000
vt 0.060934 0.000000 0.000000
vt 0.000000 0.075000 0.000000
vt 0.060934 0.075000 0.000000
vt 0.000000 0.000000 0.000000
vt 0.074107 0.000000 0.000000
vt 0.000000 0.075000 0.000000
vt 0.074107 0.075000 0.000000
vt 0.000000 0.000000 0.000000
vt 0.424506 0.000000 0.000000
vt 0.000000 0.075000 0.000000
vt 0.424506 0.075000 0.000000
vt 0.000000 0.000000 0.000000
vt 0.217759 0.000000 0.000000
vt 0.000000 0.075000 0.000000
vt 0.217759 0.075000 0.000000
vt 0.000000 0.000000 0.000000
vt 0.079268 0.000000 0.000000
vt 0.000000 0.075000 0.000000
vt 0.079268 0.075000 0.000000
vt 0.000000 0.000000 0.000000
vt 0.280293 0.000000 0.000000
vt 0.000000 0.075000 0.000000
vt 0.280293 0.075000 0.000000
vt 0.000000 0.000000 0.000000
vt 0.264544 0.000000 0.000000
vt 0.000000 0.075000 0.000000
vt 0.264544 0.075000 0.000000
vt -0.000000 0.000000 0.000000
vt 0.015000 0.000000 0.000000
vt -0.000000 0.075000 0.000000
vt 0.015000 0.075000 0.000000
vt -0.000000 0.000000 0.000000
vt 0.279544 0.000000 0.000000
vt -0.000000 0.075000 0.000000
vt 0.279544 0.075000 0.000000
vt 0.000000 0.000000 0.000000
vt 0.280293 0.000000 0.000000
vt 0.000000 0.075000 0.000000
vt 0.280293 0.075000 0.000000
vt -0.000000 0.000000 0.000000
vt 0.064268 0.000000 0.000000
vt -0.000000 0.075000 0.000000
vt 0.064268 0.075000 0.000000
vt 0.000000 0.000000 0.000000
vt 0.608728 0.000000 0.000000
vt 0.000000 0.075000 0.000000
vt 0.608728 0.075000 0.000000
vt 0.000000 0.000000 0.000000
vt 0.468505 0.000000 0.000000
vt 0.000000 0.075000 0.000000
vt 0.468505 0.075000 0.000000
vt 0.000000 0.000000 0.000000
vt 0.042748 0.000000 0.000000
vt 0.000000 0.075000 0.000000
vt 0.042748 0.075000 0.000000
vt 0.000000 0.000000 0.000000
vt 0.015000 0.000000 0.000000
vt 0.000000 0.075000 0.000000
vt 0.015000 0.075000 0.000000
vt 0.000000 0.000000 0.000000
vt 0.042748 0.000000 0.000000
vt 0.000000 0.075000 0.000000
vt 0.042748 0.075000 0.000000
vt 0.000000 0.000000 0.000000
vt 0.491752 0.000000 0.000000
vt 0.000000 0.075000 0.000000
vt 0.491752 0.075000 0.000000
vt 0.000000 0.000000 0.000000
vt 0.183483 0.000000 0.000000
vt 0.000000 0.075000 0.000000
vt 0.183483 0.075000 0.000000
vt 0.000000 0.000000 0.000000
vt 0.221765 0.000000 0.000000
vt -0.000000 0.075000 0.000000
vt 0.221765 0.075000 0.000000
vt 0.000000 0.000000 0.000000
vt 0.015000 0.000000 0.000000
vt 0.000000 0.075000 0.000000
vt 0.015000 0.075000 0.000000
vt 0.000000 0.000000 0.000000
vt 0.246765 0.000000 0.000000
vt 0.000000 0.075000 0.000000
vt 0.246765 0.075000 0.000000
vt -0.000000 0.000000 0.000000
vt 0.589949 0.000000 0.000000
vt -0.000000 0.075000 0.000000
vt 0.589949 0.075000 0.000000
vt -0.000000 0.000000 0.000000
vt 0.172386 0.000000 0.000000
vt -0.000000 0.075000 0.000000
vt 0.172386 0.075000 0.000000
vt 0.000000 0.000000 0.000000
vt 0.015000 0.000000 0.000000
vt 0.000000 0.075000 0.000000
vt 0.015000 0.075000 0.000000
vt 0.000000 0.000000 0.000000
vt 0.147386 0.000000 0.000000
vt 0.000000 0.075000 0.000000
vt 0.147386 0.075000 0.000000
vt -0.000000 0.000000 0.000000
vt 0.361466 0.000000 0.000000
vt -0.000000 0.075000 0.000000
vt 0.361466 0.075000 0.000000
vt -0.000000 0.000000 0.000000
vt 0.443830 0.000000 0.000000
vt 0.000000 0.075000 0.000000
vt 0.443830 0.075000 0.000000
vt 0.000000 0.000000 0.000000
vt 0.135810 0.000000 0.000000
vt 0.000000 0.075000 0.000000
vt 0.135810 0.075000 0.000000
vt 0.000000 0.000000 0.000000
vt 0.443830 0.000000 0.000000
vt 0.000000 0.075000 0.000000
vt 0.443830 0.075000 0.000000
vt -0.000000 0.000000 0.000000
vt 0.135810 0.000000 0.000000
vt 0.000000 0.075000 0.000000
vt 0.135810 0.075000 0.000000
vt 0.000000 0.000000 0.000000
vt 0.060934 0.000000 0.000000
vt 0.000000 0.075000 0.000000
vt 0.060934 0.075000 0.000000
vt 0.000000 0.000000 0.000000
vt 0.139204 0.000000 0.000000
vt 0.000000 0.075000 0.000000
vt 0.139204 0.075000 0.000000
vt 0.000000 0.000000 0.000000
vt 0.121868 0.000000 0.000000
vt 0.000000 0.075000 0.000000
vt 0.121868 0.075000 0.000000
vt 0.000000 0.000000 0.000000
vt 0.059107 0.000000 0.000000
vt 0.000000 0.075000 0.000000
vt 0.059107 0.075000 0.000000
vt 0.000000 0.000000 0.000000
vt 0.060934 0.000000 0.000000
vt 0.000000 0.075000 0.000000
vt 0.060934 0.075000 0.000000
vt 0.000000 0.000000 0.000000
vt 0.080097 0.000000 0.000000
vt 0.000000 0.075000 0.000000
vt 0.080097 0.075000 0.000000
vt -0.000000 0.000000 0.000000
vt 0.015000 0.000000 0.000000
vt -0.000000 0.075000 0.000000
vt 0.015000 0.075000 0.000000
vt 0.000000 0.000000 0.000000
vt 0.590441 0.000000 0.000000
vt 0.000000 0.075000 0.000000
vt 0.590441 0.075000 0.000000
vt 0.000000 0.000000 0.000000
vt 0.468505 0.000000 0.000000
vt 0.000000 0.075000 0.000000
vt 0.468505 0.075000 0.000000
vt -0.000000 0.000000 0.000000
vt 0.590468 0.000000 0.000000
vt -0.000000 0.075000 0.000000
vt 0.590468 0.075000 0.000000
vt 0.000000 0.000000 0.000000
vt 0.453505 0.000000 0.000000
vt 0.000000 0.075000 0.000000
vt 0.453505 0.075000 0.000000
vt -0.000000 0.000000 0.000000
vt 1.506955 0.000000 0.000000
vt 0.000000 0.075000 0.000000
vt 1.506955 0.075000 0.000000
vt -0.000000 0.000000 0.000000
vt 1.482672 0.000000 0.000000
vt -0.000000 0.075000 0.000000
vt 1.482672 0.075000 0.000000
vt 0.000000 0.000000 0.000000
vt 1.506955 0.000000 0.000000
vt 0.000000 0.075000 0.000000
vt 1.506955 0.075000 0.000000
vt -0.000000 0.000000 0.000000
vt 1.482672 0.000000 0.000000
vt -0.000000 0.075000 0.000000
vt 1.482672 0.075000 0.000000
vt 0.242831 0.133009 0.000000
vt 0.242831 0.118009 0.000000
vt 0.696336 0.133009 0.000000
vt 0.711336 0.118009 0.000000
vt 0.711336 0.133036 0.000000
vt 0.741336 0.753477 0.000000
vt 0.711336 0.723477 0.000000
vt 0.242831 0.723477 0.000000
vt 0.227831 0.723477 0.000000
vt 0.227831 0.133009 0.000000
vt 0.227831 0.118009 0.000000
vt 0.242831 0.075261 0.000000
vt 0.227831 0.075261 0.000000
vt 0.210896 -0.664371 0.000000
vt 0.225896 -0.649371 0.000000
vt 0.210896 -0.584274 0.000000
vt 0.225896 -0.569274 0.000000
vt 0.134962 -0.569274 0.000000
vt 0.271830 -0.664371 0.000000
vt 0.286830 -0.649371 0.000000
vt 0.286830 -0.723477 0.000000
vt 0.271830 -0.723477 0.000000
vt 0.741336 -0.753477 0.000000
vt 0.149962 -0.723477 0.000000
vt 0.134962 -0.723477 0.000000
vt 0.149962 -0.584274 0.000000
vt -0.711336 -0.485540 0.000000
vt -0.711336 -0.507104 0.000000
vt -0.575526 -0.485540 0.000000
vt -0.560526 -0.507104 0.000000
vt -0.575526 -0.041710 0.000000
vt -0.560526 -0.018534 0.000000
vt -0.576646 -0.026592 0.000000
vt -0.576646 -0.018534 0.000000
vt -0.741336 -0.753477 0.000000
vt -0.711336 -0.041710 0.000000
vt -0.711336 -0.026592 0.000000
vt -0.263921 0.494475 0.000000
vt -0.288921 0.509475 0.000000
vt -0.263921 0.133009 0.000000
vt -0.288921 -0.080474 0.000000
vt -0.263921 0.118009 0.000000
vt -0.263921 -0.065474 0.000000
vt -0.042156 -0.080474 0.000000
vt -0.042156 -0.065474 0.000000
vt -0.116535 0.494475 0.000000
vt -0.116535 0.509475 0.000000
vt 0.711336 -0.490719 0.000000
vt 0.711336 -0.505719 0.000000
vt 0.647068 -0.490719 0.000000
vt 0.632068 -0.505719 0.000000
vt 0.632068 -0.225426 0.000000
vt 0.647068 -0.210426 0.000000
vt 0.367524 -0.210426 0.000000
vt 0.367524 -0.225426 0.000000
vt 0.711336 -0.723477 0.000000
vt -0.711336 -0.723477 0.000000
vt -0.741336 0.753477 0.000000
vt -0.711336 0.410686 0.000000
vt -0.711336 0.435686 0.000000
vt -0.574000 0.410686 0.000000
vt -0.559000 0.435686 0.000000
vt -0.559000 0.271045 0.000000
vt -0.574000 0.271045 0.000000
vt -0.711336 0.723477 0.000000
vt 0.133599 0.723477 0.000000
vt 0.148599 0.723477 0.000000
vt 0.133599 0.647409 0.000000
vt 0.148599 0.647409 0.000000
vt -0.696336 0.133009 0.000000
vt -0.242831 0.118009 0.000000
vt -0.242831 0.133009 0.000000
vt -0.227831 0.118009 0.000000
vt -0.227831 0.133009 0.000000
vt 0.263921 0.118009 0.000000
vt 0.263921 0.133009 0.000000
vt 0.288921 -0.080474 0.000000
vt 0.288921 0.509475 0.000000
vt -0.711336 0.118009 0.000000
vt -0.711336 0.133036 0.000000
vt -0.741336 0.753477 0.000000
vt -0.711336 0.723477 0.000000
vt -0.242831 0.723477 0.000000
vt -0.227831 0.723477 0.000000
vt -0.148599 0.723477 0.000000
vt -0.133599 0.723477 0.000000
vt -0.133599 0.647409 0.000000
vt -0.148599 0.647409 0.000000
vt -0.271830 -0.664371 0.000000
vt -0.210896 -0.664371 0.000000
vt -0.225896 -0.649371 0.000000
vt -0.210896 -0.584274 0.000000
vt -0.225896 -0.569274 0.000000
vt -0.149962 -0.584274 0.000000
vt -0.134962 -0.569274 0.000000
vt -0.134962 -0.723477 0.000000
vt -0.149962 -0.723477 0.000000
vt -0.741336 -0.753477 0.000000
vt -0.271830 -0.723477 0.000000
vt -0.286830 -0.723477 0.000000
vt -0.286830 -0.649371 0.000000
vt 0.575526 -0.485540 0.000000
vt 0.711336 -0.507104 0.000000
vt 0.711336 -0.485540 0.000000
vt 0.741336 -0.753477 0.000000
vt 0.711336 -0.041710 0.000000
vt 0.711336 -0.026592 0.000000
vt 0.576646 -0.026592 0.000000
vt 0.560526 -0.507104 0.000000
vt 0.575526 -0.041710 0.000000
vt 0.560526 -0.018534 0.000000
vt 0.576646 -0.018534 0.000000
vt 0.263921 0.494475 0.000000
vt 0.116535 0.509475 0.000000
vt 0.116535 0.494475 0.000000
vt 0.741336 0.753477 0.000000
vt 0.711336 0.723477 0.000000
vt 0.711336 0.435686 0.000000
vt 0.559000 0.435686 0.000000
vt 0.574000 0.410686 0.000000
vt 0.711336 0.410686 0.000000
vt 0.559000 0.271045 0.000000
vt 0.574000 0.271045 0.000000
vt 0.711336 -0.723477 0.000000
vt -0.711336 -0.723477 0.000000
vt -0.711336 -0.505719 0.000000
vt -0.711336 -0.490719 0.000000
vt -0.647068 -0.490719 0.000000
vt -0.632068 -0.505719 0.000000
vt -0.632068 -0.225426 0.000000
vt -0.367524 -0.225426 0.000000
vt -0.367524 -0.210426 0.000000
vt -0.647068 -0.210426 0.000000
vt -0.242831 0.075261 0.000000
vt -0.227831 0.075261 0.000000
vt 0.263921 -0.065474 0.000000
vt 0.042156 -0.080474 0.000000
vt 0.042156 -0.065474 0.000000
vn 0.000000 1.000000 -0.000000
vn 0.000000 1.000000 -0.000000
vn 0.000000 1.000000 -0.000000
vn 0.000000 1.000000 -0.000000
vn -1.000000 0.000000 0.000000
vn -1.000000 0.000000 0.000000
vn -1.000000 0.000000 0.000000
vn -1.000000 0.000000 0.000000
vn 0.000000 -1.000000 0.000000
vn 0.000000 -1.000000 0.000000
vn 0.000000 -1.000000 0.000000
vn 0.000000 -1.000000 0.000000
vn 1.000000 0.000000 0.000000
vn 1.000000 0.000000 0.000000
vn 1.000000 0.000000 0.000000
vn 1.000000 0.000000 0.000000
vn 0.000000 -1.000000 0.000000
vn 0.000000 -1.000000 0.000000
vn 0.000000 -1.000000 0.000000
vn 0.000000 -1.000000 0.000000
vn -1.000000 0.000000 0.000000
vn -1.000000 0.000000 0.000000
vn -1.000000 0.000000 0.000000
vn -1.000000 0.000000 0.000000
vn 0.000000 -1.000000 0.000000
vn 0.000000 -1.000000 0.000000
vn 0.000000 -1.000000 0.000000
vn 0.000000 -1.000000 0.000000
vn 1.000000 0.000000 0.000000
vn 1.000000 0.000000 0.000000
vn 1.000000 0.000000 0.000000
vn 1.000000 0.000000 0.000000
vn 0.000000 1.000000 -0.000000
vn 0.000000 1.000000 -0.000000
vn 0.000000 1.000000 -0.000000
vn 0.000000 1.000000 -0.000000
vn 1.000000 0.000000 0.000000
vn 1.000000 0.000000 0.000000
vn 1.000000 0.000000 0.000000
vn 1.000000 0.000000 0.000000
vn 0.000000 -1.000000 0.000000
vn 0.000000 -1.000000 0.000000
vn 0.000000 -1.000000 0.000000
vn 0.000000 -1.000000 0.000000
vn -1.000000 0.000000 0.000000
vn -1.000000 0.000000 0.000000
vn -1.000000 0.000000 0.000000
vn -1.000000 0.000000 0.000000
vn 0.000000 -1.000000 0.000000
vn 0.000000 -1.000000 0.000000
vn 0.000000 -1.000000 0.000000
vn 0.000000 -1.000000 0.000000
vn 1.000000 0.000000 0.000000
vn 1.000000 0.000000 0.000000
vn 1.000000 0.000000 0.000000
vn 1.000000 0.000000 0.000000
vn 0.000000 1.000000 0.000000
vn 0.000000 1.000000 0.000000
vn 0.000000 1.000000 0.000000
vn 0.000000 1.000000 0.000000
vn -1.000000 0.000000 0.000000
vn -1.000000 0.000000 0.000000
vn -1.000000 0.000000 0.000000
vn -1.000000 0.000000 0.000000
vn 0.000000 1.000000 -0.000000
vn 0.000000 1.000000 -0.000000
vn 0.000000 1.000000 -0.000000
vn 0.000000 1.000000 -0.000000
vn 1.000000 0.000000 0.000000
vn 1.000000 0.000000 0.000000
vn 1.000000 0.000000 0.000000
vn 1.000000 0.000000 0.000000
vn 0.000000 -1.000000 0.000000
vn 0.000000 -1.000000 0.000000
vn 0.000000 -1.000000 0.000000
vn 0.000000 -1.000000 0.000000
vn 1.000000 0.000000 0.000000
vn 1.000000 0.000000 0.000000
vn 1.000000 0.000000 0.000000
vn 1.000000 0.000000 0.000000
vn 0.000000 1.000000 -0.000000
vn 0.000000 1.000000 -0.000000
vn 0.000000 1.000000 -0.000000
vn 0.000000 1.000000 -0.000000
vn -1.000000 0.000000 0.000000
vn -1.000000 0.000000 0.000000
vn -1.000000 0.000000 0.000000
vn -1.000000 0.000000 0.000000
vn 0.000000 1.000000 0.000000
vn 0.000000 1.000000 0.000000
vn 0.000000 1.000000 0.000000
vn 0.000000 1.000000 0.000000
vn 1.000000 0.000000 0.000000
vn 1.000000 0.000000 0.000000
vn 1.000000 0.000000 0.000000
vn 1.000000 0.000000 0.000000
vn 0.000000 1.000000 -0.000000
vn 0.000000 1.000000 -0.000000
vn 0.000000 1.000000 -0.000000
vn 0.000000 1.000000 -0.000000
vn 1.000000 0.000000 0.000000
vn 1.000000 0.000000 0.000000
vn 1.000000 0.000000 0.000000
vn 1.000000 0.000000 0.000000
vn 0.000000 1.000000 -0.000000
vn 0.000000 1.000000 -0.000000
vn 0.000000 1.000000 -0.000000
vn 0.000000 1.000000 -0.000000
vn -1.000000 -0.000000 0.000000
vn -1.000000 -0.000000 0.000000
vn -1.000000 -0.000000 0.000000
vn -1.000000 -0.000000 0.000000
vn 0.000000 -1.000000 0.000000
vn 0.000000 -1.000000 0.000000
vn 0.000000 -1.000000 0.000000
vn 0.000000 -1.000000 0.000000
vn -1.000000 0.000000 0.000000
vn -1.000000 0.000000 0.000000
vn -1.000000 0.000000 0.000000
vn -1.000000 0.000000 0.000000
vn 0.000000 -1.000000 0.000000
vn 0.000000 -1.000000 0.000000
vn 0.000000 -1.000000 0.000000
vn 0.000000 -1.000000 0.000000
vn -1.000000 0.000000 0.000000
vn -1.000000 0.000000 0.000000
vn -1.000000 0.000000 0.000000
vn -1.000000 0.000000 0.000000
vn 0.000000 1.000000 0.000000
vn 0.000000 1.000000 0.000000
vn 0.000000 1.000000 0.000000
vn 0.000000 1.000000 0.000000
vn 1.000000 0.000000 -0.000000
vn 1.000000 0.000000 -0.000000
vn 1.000000 0.000000 -0.000000
vn 1.000000 0.000000 -0.000000
vn 0.000000 1.000000 0.000000
vn 0.000000 1.000000 0.000000
vn 0.000000 1.000000 0.000000
vn 0.000000 1.000000 0.000000
vn -1.000000 -0.000000 0.000000
vn -1.000000 -0.000000 0.000000
vn -1.000000 -0.000000 0.000000
vn -1.000000 -0.000000 0.000000
vn -0.000000 -1.000000 0.000000
vn -0.000000 -1.000000 0.000000
vn -0.000000 -1.000000 0.000000
vn -0.000000 -1.000000 0.000000
vn 1.000000 0.000000 0.000000
vn 1.000000 0.000000 0.000000
vn 1.000000 0.000000 0.000000
vn 1.000000 0.000000 0.000000
vn 0.000000 -1.000000 0.000000
vn 0.000000 -1.000000 0.000000
vn 0.000000 -1.000000 0.000000
vn 0.000000 -1.000000 0.000000
vn -1.000000 0.000000 0.000000
vn -1.000000 0.000000 0.000000
vn -1.000000 0.000000 0.000000
vn -1.000000 0.000000 0.000000
vn 0.000000 -1.000000 0.000000
vn 0.000000 -1.000000 0.000000
vn 0.000000 -1.000000 0.000000
vn 0.000000 -1.000000 0.000000
vn 1.000000 0.000000 -0.000000
vn 1.000000 0.000000 -0.000000
vn 1.000000 0.000000 -0.000000
vn 1.000000 0.000000 -0.000000
vn 0.000000 1.000000 -0.000000
vn 0.000000 1.000000 -0.000000
vn 0.000000 1.000000 -0.000000
vn 0.000000 1.000000 -0.000000
vn 1.000000 0.000000 -0.000000
vn 1.000000 0.000000 -0.000000
vn 1.000000 0.000000 -0.000000
vn 1.000000 0.000000 -0.000000
vn -0.000000 -1.000000 0.000000
vn -0.000000 -1.000000 0.000000
vn -0.000000 -1.000000 0.000000
vn -0.000000 -1.000000 0.000000
vn -1.000000 0.000000 0.000000
vn -1.000000 0.000000 0.000000
vn -1.000000 0.000000 0.000000
vn -1.000000 0.000000 0.000000
vn 0.000000 1.000000 0.000000
vn 0.000000 1.000000 0.000000
vn 0.000000 1.000000 0.000000
vn 0.000000 1.000000 0.000000
vn 1.000000 0.000000 -0.000000
vn 1.000000 0.000000 -0.000000
vn 1.000000 0.000000 -0.000000
vn 1.000000 0.000000 -0.000000
vn 0.000000 -1.000000 0.000000
vn 0.000000 -1.000000 0.000000
vn 0.000000 -1.000000 0.000000
vn 0.000000 -1.000000 0.000000
vn 1.000000 0.000000 0.000000
vn 1.000000 0.000000 0.000000
vn 1.000000 0.000000 0.000000
vn 1.000000 0.000000 0.000000
vn -1.000000 0.000000 0.000000
vn -1.000000 0.000000 0.000000
vn -1.000000 0.000000 0.000000
vn -1.000000 0.000000 0.000000
vn 0.000000 -1.000000 0.000000
vn 0.000000 -1.000000 0.000000
vn 0.000000 -1.000000 0.000000
vn 0.000000 -1.000000 0.000000
vn 1.000000 0.000000 -0.000000
vn 1.000000 0.000000 -0.000000
vn 1.000000 0.000000 -0.000000
vn 1.000000 0.000000 -0.000000
vn 0.000000 1.000000 0.000000
vn 0.000000 1.000000 0.000000
vn 0.000000 1.000000 0.000000
vn 0.000000 1.000000 0.000000
vn 0.000000 -1.000000 0.000000
vn 0.000000 -1.000000 0.000000
vn 0.000000 -1.000000 0.000000
vn 0.000000 -1.000000 0.000000
vn 1.000000 0.000000 0.000000
vn 1.000000 0.000000 0.000000
vn 1.000000 0.000000 0.000000
vn 1.000000 0.000000 0.000000
vn 0.000000 1.000000 -0.000000
vn 0.000000 1.000000 -0.000000
vn 0.000000 1.000000 -0.000000
vn 0.000000 1.000000 -0.000000
vn -1.000000 0.000000 0.000000
vn -1.000000 0.000000 0.000000
vn -1.000000 0.000000 0.000000
vn -1.000000 0.000000 0.000000
vn 0.000000 -1.000000 0.000000
vn 0.000000 -1.000000 0.000000
vn 0.000000 -1.000000 0.000000
vn 0.000000 -1.000000 0.000000
vn -1.000000 0.000000 0.000000
vn -1.000000 0.000000 0.000000
vn -1.000000 0.000000 0.000000
vn -1.000000 0.000000 0.000000
vn -0.001813 0.999998 0.000000
vn -0.001813 0.999998 0.000000
vn -0.001813 0.999998 0.000000
vn -0.001813 0.999998 0.000000
vn -1.000000 0.000000 0.000000
vn -1.000000 0.000000 0.000000
vn -1.000000 0.000000 0.000000
vn -1.000000 0.000000 0.000000
vn 0.000000 -1.000000 0.000000
vn 0.000000 -1.000000 0.000000
vn 0.000000 -1.000000 0.000000
vn 0.000000 -1.000000 0.000000
vn 1.000000 0.000000 0.000000
vn 1.000000 0.000000 0.000000
vn 1.000000 0.000000 0.000000
vn 1.000000 0.000000 0.000000
vn -0.000000 1.000000 0.000000
vn -0.000000 1.000000 0.000000
vn -0.000000 1.000000 0.000000
vn -0.000000 1.000000 0.000000
vn -1.000000 0.000000 0.000000
vn -1.000000 0.000000 0.000000
vn -1.000000 0.000000 0.000000
vn -1.000000 0.000000 0.000000
vn 0.000000 1.000000 0.000000
vn 0.000000 1.000000 0.000000
vn 0.000000 1.000000 0.000000
vn 0.000000 1.000000 0.000000
vn 1.000000 0.000000 -0.000000
vn 1.000000 0.000000 -0.000000
vn 1.000000 0.000000 -0.000000
vn 1.000000 0.000000 -0.000000
vn 0.000000 -1.000000 0.000000
vn 0.000000 -1.000000 0.000000
vn 0.000000 -1.000000 0.000000
vn 0.000000 -1.000000 0.000000
vn 0.000000 0.000000 1.000000
vn 0.000000 0.000000 1.000000
vn 0.000000 0.000000 1.000000
vn 0.000000 0.000000 1.000000
vn 0.000000 0.000000 1.000000
vn 0.000000 0.000000 1.000000
vn 0.000000 0.000000 1.000000
vn 0.000000 0.000000 1.000000
vn 0.000000 0.000000 1.000000
vn 0.000000 0.000000 1.000000
vn 0.000000 0.000000 1.000000
vn 0.000000 0.000000 1.000000
vn 0.000000 0.000000 1.000000
vn 0.000000 0.000000 1.000000
vn 0.000000 0.000000 1.000000
vn 0.000000 0.000000 1.000000
vn 0.000000 0.000000 1.000000
vn 0.000000 0.000000 1.000000
vn 0.000000 0.000000 1.000000
vn 0.000000 0.000000 1.000000
vn 0.000000 0.000000 1.000000
vn 0.000000 0.000000 1.000000
vn 0.000000 0.000000 1.000000
vn 0.000000 0.000000 1.000000
vn 0.000000 0.000000 1.000000
vn 0.000000 0.000000 1.000000
vn 0.000000 0.000000 1.000000
vn 0.000000 0.000000 1.000000
vn 0.000000 0.000000 1.000000
vn 0.000000 0.000000 1.000000
vn 0.000000 0.000000 1.000000
vn 0.000000 0.000000 1.000000
vn 0.000000 0.000000 1.000000
vn 0.000000 0.000000 1.000000
vn 0.000000 0.000000 1.000000
vn 0.000000 0.000000 1.000000
vn 0.000000 0.000000 1.000000
vn 0.000000 0.000000 1.000000
vn 0.000000 0.000000 1.000000
vn 0.000000 0.000000 1.000000
vn 0.000000 0.000000 1.000000
vn 0.000000 0.000000 1.000000
vn 0.000000 0.000000 1.000000
vn 0.000000 0.000000 1.000000
vn 0.000000 0.000000 1.000000
vn 0.000000 0.000000 1.000000
vn 0.000000 0.000000 1.000000
vn 0.000000 0.000000 1.000000
vn 0.000000 0.000000 1.000000
vn 0.000000 0.000000 1.000000
vn 0.000000 0.000000 1.000000
vn 0.000000 0.000000 1.000000
vn 0.000000 0.000000 1.000000
vn 0.000000 0.000000 1.000000
vn 0.000000 0.000000 1.000000
vn 0.000000 0.000000 1.000000
vn 0.000000 0.000000 1.000000
vn 0.000000 0.000000 1.000000
vn 0.000000 0.000000 1.000000
vn 0.000000 0.000000 1.000000
vn 0.000000 0.000000 1.000000
vn 0.000000 0.000000 1.000000
vn 0.000000 0.000000 1.000000
vn 0.000000 0.000000 1.000000
vn 0.000000 0.000000 1.000000
vn 0.000000 0.000000 1.000000
vn 0.000000 0.000000 1.000000
vn 0.000000 0.000000 1.000000
vn 0.000000 0.000000 1.000000
vn -0.000000 0.000000 -1.000000
vn -0.000000 0.000000 -1.000000
vn -0.000000 0.000000 -1.000000
vn -0.000000 0.000000 -1.000000
vn -0.000000 0.000000 -1.000000
vn -0.000000 0.000000 -1.000000
vn -0.000000 0.000000 -1.000000
vn -0.000000 0.000000 -1.000000
vn -0.000000 0.000000 -1.000000
vn -0.000000 0.000000 -1.000000
vn -0.000000 0.000000 -1.000000
vn -0.000000 0.000000 -1.000000
vn -0.000000 0.000000 -1.000000
vn -0.000000 0.000000 -1.000000
vn -0.000000 0.000000 -1.000000
vn -0.000000 0.000000 -1.000000
vn -0.000000 0.000000 -1.000000
vn -0.000000 0.000000 -1.000000
vn -0.000000 0.000000 -1.000000
vn -0.000000 0.000000 -1.000000
vn -0.000000 0.000000 -1.000000
vn -0.000000 0.000000 -1.000000
vn -0.000000 0.000000 -1.000000
vn -0.000000 0.000000 -1.000000
vn -0.000000 0.000000 -1.000000
vn -0.000000 0.000000 -1.000000
vn -0.000000 0.000000 -1.000000
vn -0.000000 0.000000 -1.000000
vn -0.000000 0.000000 -1.000000
vn -0.000000 0.000000 -1.000000
vn -0.000000 0.000000 -1.000000
vn -0.000000 0.000000 -1.000000
vn -0.000000 0.000000 -1.000000
vn -0.000000 0.000000 -1.000000
vn -0.000000 0.000000 -1.000000
vn -0.000000 0.000000 -1.000000
vn -0.000000 0.000000 -1.000000
vn -0.000000 0.000000 -1.000000
vn -0.000000 0.000000 -1.000000
vn -0.000000 0.000000 -1.000000
vn -0.000000 0.000000 -1.000000
vn -0.000000 0.000000 -1.000000
vn -0.000000 0.000000 -1.000000
vn -0.000000 0.000000 -1.000000
vn -0.000000 0.000000 -1.000000
vn -0.000000 0.000000 -1.000000
vn -0.000000 0.000000 -1.000000
vn -0.000000 0.000000 -1.000000
vn -0.000000 0.000000 -1.000000
vn -0.000000 0.000000 -1.000000
vn -0.000000 0.000000 -1.000000
vn -0.000000 0.000000 -1.000000
vn -0.000000 0.000000 -1.000000
vn -0.000000 0.000000 -1.000000
vn -0.000000 0.000000 -1.000000
vn -0.000000 0.000000 -1.000000
vn -0.000000 0.000000 -1.000000
vn -0.000000 0.000000 -1.000000
vn -0.000000 0.000000 -1.000000
vn -0.000000 0.000000 -1.000000
vn -0.000000 0.000000 -1.000000
vn -0.000000 0.000000 -1.000000
vn -0.000000 0.000000 -1.000000
vn -0.000000 0.000000 -1.000000
vn -0.000000 0.000000 -1.000000
vn -0.000000 0.000000 -1.000000
vn -0.000000 0.000000 -1.000000
vn -0.000000 0.000000 -1.000000
vn -0.000000 0.000000 -1.000000
usemtl Steel_-_Satin
f 1/1/1 2/2/2 4/3/3
f 4/3/3 2/2/2 3/4/4
f 5/5/5 1/6/6 6/7/7
f 6/7/7 1/6/6 4/8/8
f 7/9/9 5/10/10 8/11/11
f 8/11/11 5/10/10 6/12/12
f 9/13/13 7/14/14 10/15/15
f 10/15/15 7/14/14 8/16/16
f 11/17/17 9/18/18 12/19/19
f 12/19/19 9/18/18 10/20/20
f 13/21/21 11/22/22 14/23/23
f 14/23/23 11/22/22 12/24/24
f 15/25/25 13/26/26 16/27/27
f 16/27/27 13/26/26 14/28/28
f 17/29/29 15/30/30 18/31/31
f 18/31/31 15/30/30 16/32/32
f 19/33/33 17/34/34 20/35/35
f 20/35/35 17/34/34 18/36/36
f 21/37/37 19/38/38 22/39/39
f 22/39/39 19/38/38 20/40/40
f 23/41/41 21/42/42 24/43/43
f 24/43/43 21/42/42 22/44/44
f 25/45/45 23/46/46 26/47/47
f 26/47/47 23/46/46 24/48/48
f 27/49/49 25/50/50 28/51/51
f 28/51/51 25/50/50 26/52/52
f 29/53/53 27/54/54 30/55/55
f 30/55/55 27/54/54 28/56/56
f 31/57/57 29/58/58 32/59/59
f 32/59/59 29/58/58 30/60/60
f 33/61/61 31/62/62 34/63/63
f 34/63/63 31/62/62 32/64/64
f 35/65/65 33/66/66 36/67/67
f 36/67/67 33/66/66 34/68/68
f 37/69/69 35/70/70 38/71/71
f 38/71/71 35/70/70 36/72/72
f 39/73/73 37/74/74 40/75/75
f 40/75/75 37/74/74 38/76/76
f 41/77/77 39/78/78 42/79/79
f 42/79/79 39/78/78 40/80/80
f 43/81/81 41/82/82 44/83/83
f 44/83/83 41/82/82 42/84/84
f 45/85/85 43/86/86 46/87/87
f 46/87/87 43/86/86 44/88/88
f 47/89/89 45/90/90 48/91/91
f 48/91/91 45/90/90 46/92/92
f 49/93/93 47/94/94 50/95/95
f 50/95/95 47/94/94 48/96/96
f 51/97/97 49/98/98 52/99/99
f 52/99/99 49/98/98 50/100/100
f 53/101/101 51/102/102 54/103/103
f 54/103/103 51/102/102 52/104/104
f 55/105/105 53/106/106 56/107/107
f 56/107/107 53/106/106 54/108/108
f 57/109/109 55/110/110 58/111/111
f 58/111/111 55/110/110 56/112/112
f 59/113/113 57/114/114 60/115/115
f 60/115/115 57/114/114 58/116/116
f 61/117/117 59/118/118 62/119/119
f 62/119/119 59/118/118 60/120/120
f 63/121/121 61/122/122 64/123/123
f 64/123/123 61/122/122 62/124/124
f 65/125/125 63/126/126 66/127/127
f 66/127/127 63/126/126 64/128/128
f 67/129/129 65/130/130 68/131/131
f 68/131/131 65/130/130 66/132/132
f 69/133/133 67/134/134 70/135/135
f 70/135/135 67/134/134 68/136/136
f 71/137/137 69/138/138 72/139/139
f 72/139/139 69/138/138 70/140/140
f 73/141/141 71/142/142 74/143/143
f 74/143/143 71/142/142 72/144/144
f 75/145/145 73/146/146 76/147/147
f 76/147/147 73/146/146 74/148/148
f 77/149/149 75/150/150 78/151/151
f 78/151/151 75/150/150 76/152/152
f 79/153/153 77/154/154 80/155/155
f 80/155/155 77/154/154 78/156/156
f 81/157/157 79/158/158 82/159/159
f 82/159/159 79/158/158 80/160/160
f 83/161/161 81/162/162 84/163/163
f 84/163/163 81/162/162 82/164/164
f 85/165/165 83/166/166 86/167/167
f 86/167/167 83/166/166 84/168/168
f 87/169/169 85/170/170 88/171/171
f 88/171/171 85/170/170 86/172/172
f 89/173/173 87/174/174 90/175/175
f 90/175/175 87/174/174 88/176/176
f 91/177/177 89/178/178 92/179/179
f 92/179/179 89/178/178 90/180/180
f 93/181/181 91/182/182 94/183/183
f 94/183/183 91/182/182 92/184/184
f 95/185/185 93/186/186 96/187/187
f 96/187/187 93/186/186 94/188/188
f 97/189/189 95/190/190 98/191/191
f 98/191/191 95/190/190 96/192/192
f 99/193/193 97/194/194 100/195/195
f 100/195/195 97/194/194 98/196/196
f 2/197/197 99/198/198 3/199/199
f 3/199/199 99/198/198 100/200/200
f 101/201/201 102/202/202 104/203/203
f 104/203/203 102/202/202 103/204/204
f 105/205/205 101/206/206 106/207/207
f 106/207/207 101/206/206 104/208/208
f 107/209/209 105/210/210 108/211/211
f 108/211/211 105/210/210 106/212/212
f 102/213/213 107/214/214 103/215/215
f 103/215/215 107/214/214 108/216/216
f 109/217/217 110/218/218 112/219/219
f 112/219/219 110/218/218 111/220/220
f 113/221/221 109/222/222 114/223/223
f 114/223/223 109/222/222 112/224/224
f 115/225/225 113/226/226 116/227/227
f 116/227/227 113/226/226 114/228/228
f 117/229/229 115/230/230 118/231/231
f 118/231/231 115/230/230 116/232/232
f 119/233/233 117/234/234 120/235/235
f 120/235/235 117/234/234 118/236/236
f 110/237/237 119/238/238 111/239/239
f 111/239/239 119/238/238 120/240/240
f 121/241/241 122/242/242 124/243/243
f 124/243/243 122/242/242 123/244/244
f 125/245/245 121/246/246 126/247/247
f 126/247/247 121/246/246 124/248/248
f 127/249/249 125/250/250 128/251/251
f 128/251/251 125/250/250 126/252/252
f 129/253/253 127/254/254 130/255/255
f 130/255/255 127/254/254 128/256/256
f 122/257/257 129/258/258 123/259/259
f 123/259/259 129/258/258 130/260/260
f 131/261/261 132/262/262 134/263/263
f 134/263/263 132/262/262 133/264/264
f 135/265/265 131/266/266 136/267/267
f 136/267/267 131/266/266 134/268/268
f 137/269/269 135/270/270 138/271/271
f 138/271/271 135/270/270 136/272/272
f 132/273/273 137/274/274 133/275/275
f 133/275/275 137/274/274 138/276/276
f 130/277/277 76/278/278 123/279/279
f 123/279/279 76/278/278 74/280/280
f 123/279/279 74/280/280 124/281/281
f 124/281/281 74/280/280 136/282/282
f 124/281/281 136/282/282 126/283/283
f 126/283/283 136/282/282 128/284/284
f 128/284/284 136/282/282 6/285/285
f 128/284/284 6/285/285 130/277/277
f 130/277/277 6/285/285 4/286/286
f 130/277/277 4/286/286 76/278/278
f 76/278/278 4/286/286 82/287/287
f 76/278/278 82/287/287 78/288/288
f 78/288/288 82/287/287 80/289/289
f 120/290/290 50/291/291 111/292/292
f 111/292/292 50/291/291 48/293/293
f 111/292/292 48/293/293 46/294/294
f 120/290/290 118/295/295 50/291/291
f 50/291/291 118/295/295 52/296/296
f 52/296/296 118/295/295 54/297/297
f 54/297/297 118/295/295 116/298/298
f 54/297/297 116/298/298 138/299/299
f 138/299/299 116/298/298 114/300/300
f 138/299/299 114/300/300 44/301/301
f 44/301/301 114/300/300 112/302/302
f 44/301/301 112/302/302 46/294/294
f 46/294/294 112/302/302 111/292/292
f 108/303/303 40/304/304 103/305/305
f 103/305/305 40/304/304 38/306/306
f 103/305/305 38/306/306 104/307/307
f 104/307/307 38/306/306 36/308/308
f 104/307/307 36/308/308 32/309/309
f 32/309/309 36/308/308 34/310/310
f 40/304/304 108/303/303 133/311/311
f 133/311/311 108/303/303 106/312/312
f 133/311/311 106/312/312 30/313/313
f 30/313/313 106/312/312 32/309/309
f 32/309/309 106/312/312 104/307/307
f 100/314/314 94/315/315 3/316/316
f 3/316/316 94/315/315 92/317/317
f 3/316/316 92/317/317 84/318/318
f 84/318/318 92/317/317 86/319/319
f 86/319/319 92/317/317 90/320/320
f 86/319/319 90/320/320 88/321/321
f 98/322/322 96/323/323 100/314/314
f 100/314/314 96/323/323 94/315/315
f 84/318/318 82/287/287 3/316/316
f 3/316/316 82/287/287 4/286/286
f 136/282/282 74/280/280 138/299/299
f 138/299/299 74/280/280 72/324/324
f 138/299/299 72/324/324 58/325/325
f 58/325/325 72/324/324 70/326/326
f 58/325/325 70/326/326 60/327/327
f 60/327/327 70/326/326 62/328/328
f 62/328/328 70/326/326 68/329/329
f 62/328/328 68/329/329 66/330/330
f 66/330/330 64/331/331 62/328/328
f 58/325/325 56/332/332 138/299/299
f 138/299/299 56/332/332 54/297/297
f 138/299/299 44/301/301 133/311/311
f 133/311/311 44/301/301 42/333/333
f 133/311/311 42/333/333 40/304/304
f 133/311/311 30/313/313 134/334/334
f 134/334/334 30/313/313 28/335/335
f 134/334/334 28/335/335 18/336/336
f 18/336/336 28/335/335 26/337/337
f 18/336/336 26/337/337 20/338/338
f 20/338/338 26/337/337 22/339/339
f 22/339/339 26/337/337 24/340/340
f 18/336/336 16/341/341 134/334/334
f 134/334/334 16/341/341 14/342/342
f 134/334/334 14/342/342 136/282/282
f 136/282/282 14/342/342 8/343/343
f 136/282/282 8/343/343 6/285/285
f 12/344/344 10/345/345 14/342/342
f 14/342/342 10/345/345 8/343/343
f 122/346/346 75/347/347 129/348/348
f 129/348/348 75/347/347 81/349/349
f 129/348/348 81/349/349 1/350/350
f 1/350/350 81/349/349 83/351/351
f 1/350/350 83/351/351 2/352/352
f 2/352/352 83/351/351 91/353/353
f 2/352/352 91/353/353 93/354/354
f 75/347/347 122/346/346 73/355/355
f 73/355/355 122/346/346 121/356/356
f 73/355/355 121/356/356 135/357/357
f 135/357/357 121/356/356 125/358/358
f 135/357/357 125/358/358 127/359/359
f 129/348/348 1/350/350 127/359/359
f 127/359/359 1/350/350 5/360/360
f 127/359/359 5/360/360 135/357/357
f 135/357/357 5/360/360 7/361/361
f 135/357/357 7/361/361 13/362/362
f 13/362/362 7/361/361 11/363/363
f 11/363/363 7/361/361 9/364/364
f 117/365/365 119/366/366 49/367/367
f 49/367/367 119/366/366 110/368/368
f 49/367/367 110/368/368 47/369/369
f 47/369/369 110/368/368 109/370/370
f 47/369/369 109/370/370 45/371/371
f 45/371/371 109/370/370 43/372/372
f 43/372/372 109/370/370 113/373/373
f 43/372/372 113/373/373 137/374/374
f 137/374/374 113/373/373 115/375/375
f 137/374/374 115/375/375 53/376/376
f 53/376/376 115/375/375 117/365/365
f 53/376/376 117/365/365 51/377/377
f 51/377/377 117/365/365 49/367/367
f 102/378/378 39/379/379 107/380/380
f 107/380/380 39/379/379 132/381/381
f 107/380/380 132/381/381 105/382/382
f 105/382/382 132/381/381 29/383/383
f 105/382/382 29/383/383 31/384/384
f 39/379/379 102/378/378 37/385/385
f 37/385/385 102/378/378 101/386/386
f 37/385/385 101/386/386 35/387/387
f 35/387/387 101/386/386 31/384/384
f 35/387/387 31/384/384 33/388/388
f 101/386/386 105/382/382 31/384/384
f 2/352/352 93/354/354 99/389/389
f 99/389/389 93/354/354 95/390/390
f 99/389/389 95/390/390 97/391/391
f 135/357/357 13/362/362 131/392/392
f 131/392/392 13/362/362 15/393/393
f 131/392/392 15/393/393 17/394/394
f 19/395/395 25/396/396 17/394/394
f 17/394/394 25/396/396 27/397/397
f 17/394/394 27/397/397 131/392/392
f 131/392/392 27/397/397 29/383/383
f 131/392/392 29/383/383 132/381/381
f 19/395/395 21/398/398 25/396/396
f 25/396/396 21/398/398 23/399/399
f 39/379/379 41/400/400 132/381/381
f 132/381/381 41/400/400 43/372/372
f 132/381/381 43/372/372 137/374/374
f 53/376/376 55/401/401 137/374/374
f 137/374/374 55/401/401 57/402/402
f 137/374/374 57/402/402 71/403/403
f 71/403/403 57/402/402 69/404/404
f 69/404/404 57/402/402 59/405/405
f 69/404/404 59/405/405 61/406/406
f 63/407/407 65/408/408 61/406/406
f 61/406/406 65/408/408 67/409/409
f 61/406/406 67/409/409 69/404/404
f 71/403/403 73/355/355 137/374/374
f 137/374/374 73/355/355 135/357/357
f 77/410/410 79/411/411 75/347/347
f 75/347/347 79/411/411 81/349/349
f 83/351/351 85/412/412 91/353/353
f 91/353/353 85/412/412 89/413/413
f 89/413/413 85/412/412 87/414/414
# 138 vertices
# 414 texture params
# 414 normals
# 288 facets

# 1 groups
